<svg width="24" height="24" viewBox="0 0 24 24" fill="none" xmlns="http://www.w3.org/2000/svg">
<g clip-path="url(#clip0_19723_402)">
<path d="M1.02228 0H22.9777C23.5418 0 24 0.458154 24 1.02228V19.028H0V1.02228C0 0.458154 0.458154 0 1.02228 0Z" fill="white"/>
<mask id="mask0_19723_402" style="mask-type:luminance" maskUnits="userSpaceOnUse" x="12" y="3" width="10" height="5">
<path d="M17.8183 3.14014C14.9137 3.14014 13.4614 5.07651 12.009 7.01306H21.6471V3.14014H17.8183Z" fill="white"/>
</mask>
<g mask="url(#mask0_19723_402)">
<path d="M21.6471 3.14014H12.009V7.01306H21.6471V3.14014Z" fill="url(#paint0_linear_19723_402)"/>
</g>
<mask id="mask1_19723_402" style="mask-type:luminance" maskUnits="userSpaceOnUse" x="2" y="7" width="11" height="4">
<path d="M2.37109 7.01282V10.8856H6.19989C9.10454 10.8856 10.5569 8.94902 12.009 7.01282H2.37109Z" fill="white"/>
</mask>
<g mask="url(#mask1_19723_402)">
<path d="M12.009 7.01282H2.37109V10.8856H12.009V7.01282Z" fill="url(#paint1_linear_19723_402)"/>
</g>
<path d="M4.01726 13.8559C3.95644 13.8154 3.88794 13.7891 3.81196 13.7767C3.91589 13.7443 3.9946 13.6894 4.04759 13.6121C4.12443 13.5 4.16294 13.3734 4.16294 13.2323C4.16294 13.1039 4.1321 12.988 4.07025 12.8846C4.0084 12.7813 3.91964 12.7019 3.80378 12.6464C3.68792 12.591 3.55434 12.5632 3.40304 12.5632H2.37122V15.1675H3.48244C3.66134 15.1675 3.81315 15.1322 3.93787 15.0617C4.06258 14.9912 4.15459 14.8986 4.21371 14.784C4.27283 14.6693 4.30248 14.549 4.30248 14.4229C4.30248 14.3095 4.27846 14.2025 4.23075 14.1016C4.18287 14.0009 4.11165 13.919 4.01726 13.8559ZM3.57308 13.1039C3.6184 13.1568 3.64106 13.226 3.64106 13.3117C3.64106 13.4024 3.61704 13.4731 3.56933 13.5233C3.52146 13.5738 3.45586 13.599 3.37271 13.599H2.89275V13.0245H3.37271C3.46097 13.0245 3.52776 13.0509 3.57308 13.1039ZM3.73188 14.5381C3.7041 14.5897 3.66321 14.6308 3.60903 14.661C3.55485 14.6911 3.48874 14.7063 3.41054 14.7063H2.89275V14.0334H3.41429C3.49232 14.0334 3.55979 14.0498 3.61653 14.0825C3.67327 14.1152 3.71348 14.1568 3.7375 14.2072C3.76135 14.2577 3.77345 14.3119 3.77345 14.3698C3.77345 14.4277 3.75965 14.4863 3.73188 14.5379V14.5381Z" fill="#0B2265"/>
<path d="M6.00788 13.6367C5.99646 13.6191 5.98403 13.6021 5.97005 13.5856C5.90701 13.5113 5.82762 13.4546 5.73186 13.4155C5.63611 13.3765 5.53524 13.3569 5.42944 13.3569C5.26553 13.3569 5.11883 13.3966 4.98917 13.476C4.85934 13.5554 4.75797 13.665 4.68487 13.8049C4.61178 13.9447 4.57532 14.1054 4.57532 14.2869C4.57532 14.4683 4.61178 14.629 4.68487 14.7687C4.75797 14.9086 4.85883 15.0176 4.9873 15.0957C5.11576 15.1737 5.26076 15.2129 5.42194 15.2129C5.52775 15.2129 5.6298 15.1914 5.72811 15.1487C5.82642 15.1059 5.90701 15.0454 5.97005 14.9672C5.98403 14.95 5.99646 14.9323 6.00788 14.9142V15.1676H6.49926V13.4024H6.00788V13.6369V13.6367ZM5.93036 14.5193C5.88878 14.591 5.83273 14.6484 5.76219 14.6912C5.69165 14.7341 5.61481 14.7554 5.53166 14.7554C5.44341 14.7554 5.36537 14.7341 5.29739 14.6912C5.22941 14.6484 5.17506 14.5905 5.13485 14.5174C5.09447 14.4443 5.07436 14.3675 5.07436 14.2869C5.07436 14.2012 5.09447 14.1225 5.13485 14.0506C5.17506 13.9788 5.22941 13.9214 5.29739 13.8786C5.36537 13.8359 5.44358 13.8144 5.53166 13.8144C5.61225 13.8144 5.6879 13.8352 5.75844 13.8768C5.82898 13.9183 5.88572 13.9751 5.92848 14.0468C5.97125 14.1185 5.99271 14.1986 5.99271 14.2869C5.99271 14.37 5.97193 14.4475 5.93036 14.5193Z" fill="#0B2265"/>
<path d="M8.34069 13.4571C8.23608 13.3903 8.10829 13.3569 7.95699 13.3569C7.8839 13.3569 7.80519 13.374 7.72068 13.408C7.63617 13.4421 7.56324 13.4926 7.5014 13.5592C7.4663 13.5972 7.44074 13.6396 7.42387 13.6861V13.4024H6.9325V15.1676H7.42387V14.2415C7.42387 14.1383 7.44398 14.0557 7.48436 13.994C7.52457 13.9323 7.57449 13.8882 7.63361 13.8618C7.69273 13.8354 7.75646 13.8221 7.82444 13.8221C7.88492 13.8221 7.94098 13.8372 7.9926 13.8674C8.04423 13.8977 8.08529 13.943 8.11545 14.0035C8.14561 14.064 8.16077 14.1383 8.16077 14.2266V15.1677H8.6559V14.1964C8.6559 14.0224 8.62949 13.8727 8.5765 13.7466C8.52351 13.6207 8.44479 13.5242 8.34035 13.4575L8.34069 13.4571Z" fill="#0B2265"/>
<path d="M10.1401 14.7082C10.0722 14.7397 10.0028 14.7554 9.93228 14.7554C9.84164 14.7554 9.76036 14.7346 9.68846 14.6931C9.61656 14.6515 9.56051 14.5942 9.5203 14.5211C9.47992 14.4481 9.45981 14.3675 9.45981 14.2792C9.45981 14.1909 9.47992 14.1155 9.5203 14.0449C9.56051 13.9744 9.61605 13.9183 9.68659 13.8768C9.75713 13.8352 9.83908 13.8144 9.93228 13.8144C10.0028 13.8144 10.0722 13.8308 10.1401 13.8635C10.2081 13.8962 10.2623 13.9391 10.3027 13.9919L10.6693 13.7311C10.5836 13.6127 10.4778 13.5207 10.3519 13.4552C10.2258 13.3898 10.0848 13.3569 9.92853 13.3569C9.75457 13.3569 9.59458 13.3954 9.44857 13.4723C9.30238 13.5491 9.18465 13.6575 9.0952 13.7974C9.00575 13.9372 8.96094 14.0979 8.96094 14.2792C8.96094 14.4605 9.00558 14.6225 9.0952 14.765C9.18465 14.9074 9.30306 15.0176 9.45044 15.0957C9.59782 15.1737 9.75713 15.2129 9.92853 15.2129C10.0848 15.2129 10.2258 15.1795 10.3519 15.1127C10.4778 15.0459 10.585 14.9546 10.6733 14.8387L10.3029 14.5779C10.2625 14.6333 10.2083 14.6769 10.1403 14.7082H10.1401Z" fill="#0B2265"/>
<path d="M12.2207 13.4742C12.0757 13.3961 11.9189 13.3569 11.7501 13.3569C11.5812 13.3569 11.425 13.3959 11.2814 13.4742C11.1377 13.5524 11.0219 13.6612 10.9336 13.8011C10.8453 13.941 10.8014 14.1017 10.8014 14.283C10.8014 14.4642 10.8455 14.6258 10.9336 14.7668C11.0217 14.9079 11.1377 15.0176 11.2814 15.0957C11.425 15.1737 11.5812 15.2129 11.7501 15.2129C11.9189 15.2129 12.0757 15.1739 12.2207 15.0957C12.3655 15.0176 12.4815 14.9079 12.5684 14.7668C12.6553 14.6258 12.6988 14.4644 12.6988 14.283C12.6988 14.1015 12.6553 13.9408 12.5684 13.8011C12.4815 13.6612 12.3655 13.5524 12.2207 13.4742ZM12.1394 14.5268C12.099 14.5985 12.0448 14.6547 11.9768 14.6949C11.9089 14.7353 11.8344 14.7554 11.7538 14.7554C11.6681 14.7554 11.5913 14.7353 11.5233 14.6949C11.4553 14.6547 11.401 14.5985 11.3608 14.5268C11.3204 14.4549 11.3003 14.3736 11.3003 14.283C11.3003 14.1923 11.3204 14.1115 11.3608 14.041C11.401 13.9705 11.4553 13.9151 11.5233 13.8747C11.5913 13.8345 11.6656 13.8142 11.7463 13.8142C11.832 13.8142 11.9089 13.8345 11.9768 13.8747C12.0448 13.9151 12.099 13.9712 12.1394 14.0429C12.1796 14.1148 12.1999 14.1947 12.1999 14.283C12.1999 14.3712 12.1796 14.4549 12.1394 14.5268Z" fill="#0B2265"/>
<path d="M14.4304 13.4571C14.3258 13.3903 14.198 13.3569 14.0467 13.3569C13.9736 13.3569 13.8949 13.374 13.8104 13.408C13.7259 13.4421 13.653 13.4926 13.5911 13.5592C13.556 13.5972 13.5305 13.6396 13.5136 13.6861V13.4024H13.0222V15.1676H13.5136V14.2415C13.5136 14.1383 13.5337 14.0557 13.5741 13.994C13.6143 13.9323 13.6642 13.8882 13.7233 13.8618C13.7825 13.8354 13.8462 13.8221 13.9142 13.8221C13.9746 13.8221 14.0307 13.8372 14.0823 13.8674C14.134 13.8977 14.175 13.943 14.2052 14.0035C14.2353 14.064 14.2505 14.1383 14.2505 14.2266V15.1677H14.7456V14.1964C14.7456 14.0224 14.7192 13.8727 14.6662 13.7466C14.6132 13.6207 14.5345 13.5242 14.4301 13.4575L14.4304 13.4571Z" fill="#0B2265"/>
<path d="M15.7708 12.7598H15.2755V13.4023H14.9581V13.7841H15.2755V15.1674H15.7708V13.7841H16.145V13.4023H15.7708V12.7598Z" fill="#0B2265"/>
<path d="M17.7155 13.6367C17.7041 13.6191 17.6917 13.6021 17.6777 13.5856C17.6147 13.5113 17.5353 13.4546 17.4395 13.4155C17.3437 13.3765 17.2429 13.3569 17.1371 13.3569C16.9732 13.3569 16.8265 13.3966 16.6968 13.476C16.567 13.5554 16.4656 13.665 16.3925 13.8049C16.3194 13.9447 16.283 14.1054 16.283 14.2869C16.283 14.4683 16.3194 14.629 16.3925 14.7687C16.4656 14.9086 16.5665 15.0176 16.6949 15.0957C16.8234 15.1737 16.9684 15.2129 17.1296 15.2129C17.2354 15.2129 17.3374 15.1914 17.4358 15.1487C17.5341 15.1059 17.6147 15.0454 17.6777 14.9672C17.6917 14.95 17.7041 14.9323 17.7155 14.9142V15.1676H18.2069V13.4024H17.7155V13.6369V13.6367ZM17.638 14.5193C17.5964 14.591 17.5404 14.6484 17.4698 14.6912C17.3993 14.7341 17.3225 14.7554 17.2393 14.7554C17.151 14.7554 17.073 14.7341 17.005 14.6912C16.9371 14.6484 16.8829 14.5905 16.8425 14.5174C16.8021 14.4443 16.782 14.3675 16.782 14.2869C16.782 14.2012 16.8021 14.1225 16.8425 14.0506C16.8827 13.9788 16.9371 13.9214 17.005 13.8786C17.073 13.8359 17.1512 13.8144 17.2393 13.8144C17.3199 13.8144 17.3955 13.8352 17.4661 13.8768C17.5366 13.9183 17.5934 13.9751 17.6361 14.0468C17.6789 14.1185 17.7004 14.1986 17.7004 14.2869C17.7004 14.37 17.6796 14.4475 17.638 14.5193Z" fill="#0B2265"/>
<path d="M19.7169 14.7082C19.6489 14.7397 19.5796 14.7554 19.5091 14.7554C19.4184 14.7554 19.3371 14.7346 19.2652 14.6931C19.1933 14.6515 19.1373 14.5942 19.0971 14.5211C19.0567 14.4481 19.0366 14.3675 19.0366 14.2792C19.0366 14.1909 19.0567 14.1155 19.0971 14.0449C19.1373 13.9744 19.1928 13.9183 19.2634 13.8768C19.3339 13.8352 19.4159 13.8144 19.5091 13.8144C19.5796 13.8144 19.6489 13.8308 19.7169 13.8635C19.7849 13.8962 19.8391 13.9391 19.8795 13.9919L20.2461 13.7311C20.1604 13.6127 20.0546 13.5207 19.9287 13.4552C19.8026 13.3898 19.6616 13.3569 19.5053 13.3569C19.3315 13.3569 19.1714 13.3954 19.0253 13.4723C18.8792 13.5491 18.7614 13.6575 18.672 13.7974C18.5825 13.9372 18.5377 14.0979 18.5377 14.2792C18.5377 14.4605 18.5824 14.6225 18.672 14.765C18.7614 14.9074 18.8798 15.0176 19.0272 15.0957C19.1746 15.1737 19.3339 15.2129 19.5053 15.2129C19.6616 15.2129 19.8026 15.1795 19.9287 15.1127C20.0546 15.0459 20.1618 14.9546 20.25 14.8387L19.8796 14.5779C19.8393 14.6333 19.7851 14.6769 19.7171 14.7082H19.7169Z" fill="#0B2265"/>
<path d="M21.6139 13.4023H21.2395V12.7598H20.7444V13.4023H20.427V13.7841H20.7444V15.1674H21.2395V13.7841H21.6139V13.4023Z" fill="#0B2265"/>
<path d="M0 17.8058H24V20.9993C24 22.6562 22.6569 23.9993 21 23.9993C14 23.9993 7 23.9993 0 23.9993V17.8058Z" fill="url(#paint2_linear_19723_402)"/>
<path d="M10.2862 19.3282C10.9507 19.3282 11.1594 19.8053 11.0742 20.2866C10.989 20.768 10.6142 21.2365 9.95394 21.2365H9.34908L9.16593 22.2631H8.57385L9.08925 19.3282H10.2862ZM10.1754 19.8522H9.59188L9.43853 20.7169H10.0178C10.299 20.7169 10.4438 20.4954 10.4821 20.2866C10.5205 20.0737 10.4523 19.8522 10.1754 19.8522Z" fill="#0B2265"/>
<path d="M12.87 20.2739H13.428L13.0787 22.2631H12.5207L12.5718 21.982C12.4057 22.1822 12.1245 22.3142 11.8562 22.3142C11.3067 22.3142 10.9745 21.8882 11.081 21.2706C11.1917 20.653 11.6645 20.2228 12.2353 20.2228C12.4909 20.2228 12.7251 20.3335 12.8231 20.5337L12.87 20.2739ZM12.6783 21.2706C12.7337 20.9682 12.5292 20.7424 12.2523 20.7424C11.9584 20.7424 11.7028 20.981 11.6517 21.2706C11.6006 21.5475 11.7753 21.7945 12.0692 21.7945C12.3631 21.7945 12.6314 21.556 12.6783 21.2706Z" fill="#0B2265"/>
<path d="M15.1691 20.2738H15.7697L14.0191 23.2384H13.427L14.1043 22.0756L13.6315 20.2738H14.2448L14.5089 21.4281L15.1691 20.2738Z" fill="#0B2265"/>
</g>
<defs>
<linearGradient id="paint0_linear_19723_402" x1="12.009" y1="5.07651" x2="21.6471" y2="5.07651" gradientUnits="userSpaceOnUse">
<stop stop-color="#FF9700"/>
<stop offset="0.75" stop-color="#FFD400"/>
<stop offset="1" stop-color="#FFD400"/>
</linearGradient>
<linearGradient id="paint1_linear_19723_402" x1="2.41553" y1="8.93778" x2="11.9692" y2="8.93778" gradientUnits="userSpaceOnUse">
<stop stop-color="#0439D1"/>
<stop offset="0.25" stop-color="#0439D1"/>
<stop offset="1" stop-color="#0B2265"/>
</linearGradient>
<linearGradient id="paint2_linear_19723_402" x1="0" y1="20.9026" x2="24" y2="20.9026" gradientUnits="userSpaceOnUse">
<stop stop-color="#FF9700"/>
<stop offset="0.75" stop-color="#FFD400"/>
<stop offset="1" stop-color="#FFD400"/>
</linearGradient>
<clipPath id="clip0_19723_402">
<rect width="24" height="24" fill="white"/>
</clipPath>
</defs>
</svg>
