<svg width="24" height="24" viewBox="0 0 24 24" fill="none" xmlns="http://www.w3.org/2000/svg">
<path d="M20.8 12.2084C20.8 11.5584 20.7417 10.9334 20.6333 10.3334H12V13.8834H16.9333C16.7167 15.025 16.0667 15.9917 15.0917 16.6417V18.95H18.0667C19.8 17.35 20.8 15 20.8 12.2084Z" fill="#4285F4"/>
<path d="M12 21.1667C14.475 21.1667 16.55 20.35 18.0667 18.95L15.0916 16.6417C14.275 17.1917 13.2333 17.525 12 17.525C9.61665 17.525 7.59165 15.9167 6.86665 13.75H3.81665V16.1167C5.32498 19.1083 8.41665 21.1667 12 21.1667Z" fill="#34A853"/>
<path d="M6.86671 13.7416C6.68337 13.1916 6.57504 12.6083 6.57504 11.9999C6.57504 11.3916 6.68337 10.8083 6.86671 10.2583V7.8916H3.81671C3.19171 9.12493 2.83337 10.5166 2.83337 11.9999C2.83337 13.4833 3.19171 14.8749 3.81671 16.1083L6.19171 14.2583L6.86671 13.7416Z" fill="#FBBC05"/>
<path d="M12 6.48337C13.35 6.48337 14.55 6.95004 15.5083 7.85004L18.1333 5.22504C16.5417 3.74171 14.475 2.83337 12 2.83337C8.41665 2.83337 5.32498 4.89171 3.81665 7.89171L6.86665 10.2584C7.59165 8.09171 9.61665 6.48337 12 6.48337Z" fill="#EA4335"/>
</svg>
