<svg width="24" height="24" viewBox="0 0 24 24" fill="none" xmlns="http://www.w3.org/2000/svg">
<g clip-path="url(#clip0_14409_1388)">
<path d="M15.879 5.28717L13.1224 5.05594L3.86145 4.91663V19.1667H13.747L17.0412 18.2709L19.2836 16.327L20.3804 13.2695V9.73693L18.7401 6.89873L15.879 5.28717Z" fill="white"/>
<path d="M4.15403 5.15569V18.7282H12.4001C17.3795 18.7282 20.0883 16.4087 20.0883 11.9246C20.0883 7.31649 17.1521 5.15569 12.4001 5.15569H4.15403ZM12.4001 4.45129C19.7024 4.45129 20.7928 9.13393 20.7928 11.9246C20.7928 16.7665 17.8124 19.4329 12.4001 19.4329C12.4001 19.4329 3.62615 19.4329 3.44946 19.4329C3.44946 19.2555 3.44946 4.62824 3.44946 4.45129C3.62615 4.45129 12.4001 4.45129 12.4001 4.45129Z" fill="#0A0B09"/>
<path d="M9.24146 9.82032C9.24146 10.2447 9.24146 10.9276 9.24146 11.3518C9.474 11.3518 9.71153 11.3518 9.71153 11.3518C10.0372 11.3518 10.338 11.2577 10.338 10.574C10.338 9.90596 10.0033 9.82032 9.71153 9.82032C9.71153 9.82032 9.474 9.82032 9.24146 9.82032ZM17.083 9.05859H17.8434C17.8434 9.05859 17.8434 10.7922 17.8434 11.3518C18.012 11.3518 18.4751 11.3518 18.9702 11.3518C18.6611 7.19076 15.3877 6.29175 12.4134 6.29175H9.24211V9.06016H9.71153C10.5673 9.06016 11.0991 9.6405 11.0991 10.574C11.0991 11.5372 10.5801 12.1121 9.71153 12.1121H9.24211V17.6515H12.4134C17.2494 17.6515 18.9323 15.4058 18.9918 12.1121H17.083V9.05859ZM14.9644 10.7624H15.5145L15.263 9.89919H15.2173L14.9644 10.7624ZM13.7778 12.113L14.6986 9.05848H15.7804L16.701 12.113H15.9094L15.7368 11.5221H14.7422L14.5691 12.113H13.7778ZM13.4126 11.3518V12.1121H11.5315V9.05973H13.3519V9.81978C13.3519 9.81978 12.704 9.81978 12.2919 9.81978C12.2919 9.92458 12.2919 10.0448 12.2919 10.1736H13.2944V10.9335H12.2919C12.2919 11.0861 12.2919 11.2299 12.2919 11.3518C12.7159 11.3518 13.4126 11.3518 13.4126 11.3518Z" fill="#D50172"/>
<path d="M8.24633 10.5847C8.24633 11.4909 7.51205 12.2256 6.60585 12.2256C5.70008 12.2256 4.96509 11.4909 4.96509 10.5847C4.96509 9.6792 5.70008 8.94421 6.60585 8.94421C7.51205 8.94421 8.24633 9.6792 8.24633 10.5847ZM5.28987 17.6491H7.92961V12.9499H5.28987V17.6491Z" fill="black"/>
</g>
<defs>
<clipPath id="clip0_14409_1388">
<rect width="18.2422" height="15.8844" fill="white" transform="translate(3 4)"/>
</clipPath>
</defs>
</svg>
