<svg width="24" height="24" viewBox="0 0 24 24" fill="none" xmlns="http://www.w3.org/2000/svg">
<path d="M18.0693 14.2431C16.8476 14.2431 15.8573 13.2388 15.8573 11.9999C15.8573 10.7612 16.8476 9.75691 18.0693 9.75691C19.2911 9.75691 20.2814 10.7612 20.2814 11.9999C20.2814 13.2388 19.2911 14.2431 18.0693 14.2431ZM5.93047 14.2431C4.70875 14.2431 3.71844 13.2388 3.71844 11.9999C3.71844 10.7612 4.70875 9.75691 5.93047 9.75691C7.15219 9.75691 8.1425 10.7612 8.1425 11.9999C8.1425 13.2388 7.15219 14.2431 5.93047 14.2431ZM18.0693 7C16.9987 7 16.0085 7.347 15.2 7.935L10.795 11.1856C10.4115 8.8117 8.37996 7 5.93047 7C3.20727 7 1 9.23854 1 11.9999C1 14.7615 3.20727 17 5.93047 17C7.00701 17 8.00226 16.6491 8.81295 16.0555L13.2052 12.8155C13.5891 15.1889 15.6202 17 18.0693 17C20.7924 17 23 14.7615 23 11.9999C23 9.23854 20.7924 7 18.0693 7Z" fill="#FF4785"/>
</svg>
