<svg width="24" height="24" viewBox="0 0 24 24" fill="none" xmlns="http://www.w3.org/2000/svg">
<path d="M9.35308 8.12558L6.47282 14.9976H4.59366L3.17627 9.51341C3.09022 9.17562 3.0154 9.05187 2.75369 8.90956C2.32641 8.67776 1.62081 8.46028 1 8.3253L1.04217 8.12558H4.06704C4.45261 8.12558 4.79922 8.38225 4.88676 8.82626L5.63533 12.8027L7.48538 8.12547H9.35308V8.12558ZM16.7159 12.7539C16.7235 10.9402 14.208 10.8403 14.2253 10.0301C14.2306 9.78348 14.4654 9.52131 14.9793 9.4544C15.234 9.42106 15.9359 9.39562 16.7319 9.76194L17.0441 8.30468C16.6164 8.14942 16.066 8 15.3813 8C13.6242 8 12.3876 8.93408 12.3771 10.2716C12.3658 11.2609 13.2598 11.813 13.9333 12.1417C14.6262 12.4784 14.8587 12.6947 14.856 12.9958C14.8511 13.4568 14.3034 13.6603 13.7916 13.6683C12.898 13.682 12.3796 13.4265 11.9663 13.2344L11.644 14.7399C12.0594 14.9304 12.8261 15.0967 13.6209 15.105C15.4885 15.105 16.7102 14.1825 16.7159 12.7539ZM21.3559 14.9976H23L21.5649 8.12558H20.0473C19.7061 8.12558 19.4183 8.32427 19.2908 8.62975L16.6232 14.9976H18.4899L18.8605 13.9711H21.1412L21.3559 14.9976ZM19.3723 12.5627L20.308 9.98251L20.8465 12.5627H19.3723ZM11.893 8.12558L10.4231 14.9976H8.64542L10.116 8.12558H11.893Z" fill="#1434CB"/>
</svg>
