<svg width="24" height="24" viewBox="0 0 24 24" fill="none" xmlns="http://www.w3.org/2000/svg">
<path d="M18.3181 11.7706C18.3181 10.326 19.3571 9.00928 21.1543 9.00928C22.9577 9.00928 23.9999 10.326 23.9999 11.7706C23.9999 13.2152 22.9609 14.5319 21.1543 14.5319C19.3571 14.5319 18.3181 13.2152 18.3181 11.7706ZM22.4211 11.7706C22.4211 11.0748 21.9562 10.4321 21.1574 10.4321C20.3649 10.4321 19.8938 11.0748 19.8938 11.7706C19.8938 12.4664 20.3649 13.1091 21.1574 13.1091C21.9562 13.1091 22.4211 12.4664 22.4211 11.7706Z" fill="#1D1C1C"/>
<path d="M17.2104 12.7971C17.8095 12.4602 18.1683 11.8174 18.1683 11.106C18.1683 10.0514 17.3976 9.15283 16.1995 9.15283H13.6847V14.3946H15.2416V13.0561H15.5349L16.4242 14.3946H18.2588L17.2104 12.7971ZM15.8875 11.8455H15.2448V10.3634H15.8969C16.315 10.3634 16.5864 10.7004 16.5864 11.106C16.5833 11.5085 16.3056 11.8455 15.8875 11.8455Z" fill="#1D1C1C"/>
<path d="M6.57723 9.14343L5.64119 12.2667L4.73011 9.14343H3.49142L2.57098 12.2667L1.64431 9.14343H0L1.88456 14.3759H3.23557L4.10921 11.5272L4.9766 14.3759H6.33698L8.22153 9.14343H6.57723Z" fill="#1D1C1C"/>
<path d="M10.5772 13.0967H10.574C9.99058 13.0967 9.58184 12.7504 9.40711 12.2886H13.3634C13.3946 12.1139 13.4102 11.9392 13.4102 11.7582C13.4102 10.3167 12.3744 9.00312 10.574 9V10.4197C11.1606 10.4228 11.5631 10.7691 11.7378 11.2278H7.78777C7.75657 11.4025 7.74097 11.5772 7.74097 11.7582C7.74097 13.1997 8.77997 14.5164 10.574 14.5164H10.5772V13.0967Z" fill="#1D1C1C"/>
<path d="M10.574 14.5164C10.6364 14.5164 10.6957 14.5133 10.755 14.5133C11.12 14.4946 11.4508 14.4228 11.7441 14.3043C12.0373 14.1857 12.2994 14.0235 12.5178 13.8269C12.7363 13.6303 12.9203 13.3994 13.0607 13.1467C13.1887 12.9158 13.2823 12.6662 13.3416 12.4072H11.691C11.6567 12.4759 11.6193 12.5445 11.5724 12.6069C11.51 12.6912 11.4383 12.7692 11.3572 12.8347C11.276 12.9002 11.1824 12.9564 11.0826 13.0001C10.9827 13.0437 10.8704 13.0749 10.7519 13.0905C10.6926 13.0968 10.6333 13.103 10.5709 13.103C10.1996 13.103 9.90006 12.9626 9.68477 12.7411L8.61145 13.8144C9.09195 14.2419 9.75342 14.5164 10.574 14.5164Z" fill="url(#paint0_linear_17998_887)"/>
<path d="M10.5739 9.00305C9.05131 9.00305 8.07471 9.94845 7.81262 11.1154H9.45693C9.6535 10.7129 10.0404 10.4227 10.5739 10.4227C10.9983 10.4227 11.329 10.6037 11.5443 10.8782L12.6239 9.79556C12.1434 9.31194 11.4476 9.00305 10.5739 9.00305Z" fill="url(#paint1_linear_17998_887)"/>
<defs>
<linearGradient id="paint0_linear_17998_887" x1="12.5113" y1="11.434" x2="10.0849" y2="14.4399" gradientUnits="userSpaceOnUse">
<stop stop-color="#1D1C1C" stop-opacity="0"/>
<stop offset="0.02" stop-color="#1D1C1C" stop-opacity="0"/>
<stop offset="0.68" stop-color="#1D1C1C"/>
<stop offset="1" stop-color="#1D1C1C"/>
</linearGradient>
<linearGradient id="paint1_linear_17998_887" x1="8.26533" y1="12.1071" x2="10.7587" y2="9.61376" gradientUnits="userSpaceOnUse">
<stop stop-color="#1D1C1C" stop-opacity="0"/>
<stop offset="0.02" stop-color="#1D1C1C" stop-opacity="0"/>
<stop offset="0.68" stop-color="#1D1C1C"/>
<stop offset="1" stop-color="#1D1C1C"/>
</linearGradient>
</defs>
</svg>
