<svg width="40" height="40" viewBox="0 0 40 40" fill="none" xmlns="http://www.w3.org/2000/svg">
<path fill-rule="evenodd" clip-rule="evenodd" d="M20.9412 24.823L25.6759 34.0819H14.4259L19.1606 24.823C19.412 24.3313 20.0145 24.1365 20.5062 24.388C20.6933 24.4837 20.8456 24.6359 20.9412 24.823Z" fill="#0053FF"/>
<path d="M16.5509 7.08189L30.9634 31.5832C31.2434 32.0593 31.0845 32.6722 30.6085 32.9522C30.5569 32.9825 30.5026 33.0082 30.4463 33.0289C27.6283 34.0642 24.1631 34.5819 20.0509 34.5819C15.9386 34.5819 12.4734 34.0642 9.65537 33.0289C9.137 32.8384 8.87116 32.2638 9.06161 31.7454C9.08228 31.6891 9.10795 31.6349 9.13833 31.5832L24.7755 5" stroke="#0053FF" stroke-width="3" stroke-linecap="round" stroke-linejoin="round"/>
</svg>
