<svg width="179" height="33" viewBox="0 0 179 33" fill="none" xmlns="http://www.w3.org/2000/svg">
<g clip-path="url(#clip0)">
<path d="M47.872 25.288C51.904 25.288 54.28 23.2 54.28 20.056C54.28 17.008 51.928 15.952 48.376 15.16C45.832 14.584 44.848 14.2 44.848 13C44.848 12.016 45.76 11.224 47.272 11.224C48.856 11.224 50.512 11.872 51.976 13.048L53.824 10.504C52.144 9.064 50.056 8.224 47.368 8.224C43.768 8.224 41.272 10.312 41.272 13.36C41.272 16.552 43.744 17.536 47.224 18.328C49.744 18.904 50.704 19.264 50.704 20.44C50.704 21.472 49.792 22.288 48.016 22.288C45.928 22.288 44.152 21.472 42.592 20.128L40.552 22.552C42.472 24.328 45.016 25.288 47.872 25.288ZM63.2515 21.928C63.0115 22.168 62.5315 22.336 62.0515 22.336C61.4035 22.336 60.8755 21.76 60.8755 20.944V15.424H63.5635V12.592H60.8755V9.184H57.5155V12.592H55.8115V15.424H57.5155V21.496C57.5155 23.728 59.0515 25.288 61.2355 25.288C62.2435 25.288 63.3715 24.856 64.0915 24.208L63.2515 21.928ZM71.83 12.304C70.102 12.304 68.398 12.784 66.646 13.672L67.822 16C68.806 15.496 69.886 15.112 71.038 15.112C73.078 15.112 73.894 16.264 73.894 17.584V17.824C72.838 17.416 71.734 17.2 70.726 17.2C67.846 17.2 65.566 18.88 65.566 21.328C65.566 23.704 67.606 25.288 70.246 25.288C71.59 25.288 73.006 24.76 73.894 23.752V25H77.278V17.584C77.278 14.344 75.07 12.304 71.83 12.304ZM71.038 22.864C69.838 22.864 68.95 22.24 68.95 21.232C68.95 20.224 69.958 19.48 71.23 19.48C72.19 19.48 73.102 19.648 73.894 19.936V21.088C73.654 22.24 72.382 22.864 71.038 22.864ZM94.9913 12.304C93.1433 12.304 91.6073 13.192 90.9593 14.56C90.1913 13.168 88.7273 12.304 87.0233 12.304C85.4873 12.304 84.2633 13.048 83.6633 14.224V12.592H80.1593V25H83.6633V17.512C83.6633 16.192 84.6473 15.256 86.0633 15.256C87.3353 15.256 88.2473 16.264 88.2473 17.704V25.024H91.6073V17.512C91.6073 16.192 92.6153 15.256 94.0073 15.256C95.3033 15.256 96.2153 16.264 96.2153 17.704V25.024H99.5753V17.104C99.5753 14.296 97.5833 12.304 94.9913 12.304ZM109.696 12.304C108.112 12.304 106.744 13.024 105.976 14.104V8.224H102.472V25H105.976V17.656C105.976 16.312 107.104 15.256 108.568 15.256C109.96 15.256 110.92 16.312 110.92 17.848V25H114.304V17.104C114.304 14.296 112.384 12.304 109.696 12.304ZM123.359 25.288C127.031 25.288 130.103 22.312 130.103 18.784C130.103 15.256 127.031 12.304 123.359 12.304C119.663 12.304 116.567 15.256 116.567 18.784C116.567 22.312 119.663 25.288 123.359 25.288ZM123.359 22.336C121.487 22.336 119.927 20.704 119.927 18.784C119.927 16.864 121.487 15.256 123.359 15.256C125.207 15.256 126.767 16.864 126.767 18.784C126.767 20.704 125.207 22.336 123.359 22.336ZM138.57 25.288C142.242 25.288 145.314 22.312 145.314 18.784C145.314 15.256 142.242 12.304 138.57 12.304C134.874 12.304 131.778 15.256 131.778 18.784C131.778 22.312 134.874 25.288 138.57 25.288ZM138.57 22.336C136.698 22.336 135.138 20.704 135.138 18.784C135.138 16.864 136.698 15.256 138.57 15.256C140.418 15.256 141.978 16.864 141.978 18.784C141.978 20.704 140.418 22.336 138.57 22.336ZM151.836 11.92C151.836 11.104 152.364 10.528 153.012 10.528C153.492 10.528 153.972 10.696 154.212 10.936L155.052 8.8C154.332 8.152 153.204 7.72 152.196 7.72C150.012 7.72 148.476 9.28 148.476 11.512V12.592H146.772V15.424H148.476V25H151.836V15.424H154.524V12.592H151.836V11.92ZM166.042 8.224V14.368C165.058 13.072 163.618 12.304 161.866 12.304C158.554 12.304 156.154 14.992 156.154 18.784C156.154 22.6 158.554 25.288 161.866 25.288C163.618 25.288 165.058 24.52 166.042 23.224V25H169.546V8.224H166.042ZM162.874 22.336C160.93 22.336 159.562 20.872 159.562 18.784C159.562 16.72 160.93 15.256 162.874 15.256C164.722 15.256 166.042 16.72 166.042 18.784C166.042 20.872 164.722 22.336 162.874 22.336Z" fill="#000716"/>
<path fill-rule="evenodd" clip-rule="evenodd" d="M13.9412 21.823L18.6759 31.0819H7.4259L12.1606 21.823C12.412 21.3313 13.0145 21.1365 13.5062 21.388C13.6933 21.4837 13.8456 21.6359 13.9412 21.823Z" fill="#0053FF"/>
<path d="M9.55088 4.08189L23.9634 28.5832C24.2434 29.0593 24.0845 29.6722 23.6085 29.9522C23.5569 29.9825 23.5026 30.0082 23.4463 30.0289C20.6283 31.0642 17.1631 31.5819 13.0509 31.5819C8.93862 31.5819 5.47345 31.0642 2.65537 30.0289C2.137 29.8384 1.87116 29.2638 2.06161 28.7454C2.08228 28.6891 2.10795 28.6349 2.13833 28.5832L17.7755 2" stroke="#0053FF" stroke-width="3" stroke-linecap="round" stroke-linejoin="round"/>
</g>
<defs>
<clipPath id="clip0">
<path d="M0 0H179V33H0V0Z" fill="white"/>
</clipPath>
</defs>
</svg>
