<svg width="240" height="240" viewBox="0 0 240 240" fill="none" xmlns="http://www.w3.org/2000/svg">
<g clip-path="url(#clip0)">
<rect y="1" width="240" height="240" rx="50" fill="#FF6200"/>
<mask id="mask0" mask-type="alpha" maskUnits="userSpaceOnUse" x="0" y="1" width="240" height="240">
<rect y="1" width="240" height="240" rx="50" fill="#FF6200"/>
</mask>
<g mask="url(#mask0)">
<path d="M39.9999 1H0V241H39.9999V1Z" fill="#238647"/>
<path d="M60.0389 1H20.0391V241H60.0389V1Z" fill="#2F9B47"/>
<path d="M79.9608 1H39.9609V241H79.9608V1Z" fill="#62B64F"/>
<path d="M99.9999 1H60V241H99.9999V1Z" fill="#89CC53"/>
<path d="M120.039 1H80.0391V241H120.039V1Z" fill="#3DB8AD"/>
<path d="M139.961 1H99.9609V241H139.961V1Z" fill="#3394D7"/>
<path d="M160 1H120V241H160V1Z" fill="#2872BC"/>
<path d="M180.039 1H140.039V241H180.039V1Z" fill="#1D5C84"/>
<path d="M199.961 1H159.961V241H199.961V1Z" fill="#993233"/>
<path d="M220 1H180V241H220V1Z" fill="#E13030"/>
<path d="M240.039 1H200.039V241H240.039V1Z" fill="#F28825"/>
<path d="M239.961 1H219.961V241H239.961V1Z" fill="#F5C836"/>
<path fill-rule="evenodd" clip-rule="evenodd" d="M108.039 101.986H116.039V122.986C116.039 132.92 107.973 140.986 98.039 140.986C88.105 140.986 80.0391 132.92 80.0391 122.986V101.986H88.039V122.986C88.039 129.057 92.52 133.986 98.039 133.986C103.558 133.986 108.039 129.057 108.039 122.986V101.986Z" fill="white"/>
<path fill-rule="evenodd" clip-rule="evenodd" d="M151.984 139.984H159.984V118.984C159.984 109.05 151.918 100.984 141.984 100.984C132.05 100.984 123.984 109.05 123.984 118.984V139.984H131.984V118.984C131.984 112.913 136.465 107.984 141.984 107.984C147.503 107.984 151.984 112.913 151.984 118.984V139.984Z" fill="white"/>
<path fill-rule="evenodd" clip-rule="evenodd" d="M38.9922 139.994H31.9922V121.994H32.0222C32.0022 121.663 31.9922 121.329 31.9922 120.994V84.9941H39.9921V104.997C43.3321 102.484 47.4921 100.994 51.9921 100.994C63.032 100.994 71.992 109.956 71.992 120.994C71.992 132.032 63.032 140.994 51.9921 140.994C47.2121 140.994 42.8221 139.313 39.3822 136.511L38.9922 139.994ZM51.4921 107.994C58.3921 107.994 63.992 113.819 63.992 120.994C63.992 128.169 58.3921 133.994 51.4921 133.994C44.5921 133.994 38.9922 128.169 38.9922 120.994C38.9922 113.819 44.5921 107.994 51.4921 107.994Z" fill="white"/>
<path fill-rule="evenodd" clip-rule="evenodd" d="M201.008 102.006H208.008V120.006H207.978C207.998 120.337 208.008 120.671 208.008 121.006V157.006H200.008V137.003C196.668 139.516 192.508 141.006 188.008 141.006C176.968 141.006 168.008 132.044 168.008 121.006C168.008 109.968 176.968 101.006 188.008 101.006C192.788 101.006 197.178 102.687 200.618 105.489L201.008 102.006ZM188.508 134.006C181.608 134.006 176.008 128.181 176.008 121.006C176.008 113.831 181.608 108.006 188.508 108.006C195.408 108.006 201.008 113.831 201.008 121.006C201.008 128.181 195.408 134.006 188.508 134.006Z" fill="white"/>
</g>
</g>
<defs>
<clipPath id="clip0">
<rect width="240" height="240" fill="white"/>
</clipPath>
</defs>
</svg>
