<svg width="24" height="24" viewBox="0 0 24 24" fill="none" xmlns="http://www.w3.org/2000/svg">
<path d="M8.6267 12.2602L8.0377 8.72619C7.8871 7.82258 8.58392 7 9.5 7C10.4161 7 11.1129 7.82257 10.9623 8.72619L10.3733 12.2602C10.3021 12.6871 9.93279 13 9.5 13C9.06721 13 8.69785 12.6871 8.6267 12.2602Z" fill="#000716"/>
<circle cx="9.5" cy="15.5" r="1.5" fill="#000716"/>
<path d="M13.6267 12.2602L13.0377 8.72619C12.8871 7.82258 13.5839 7 14.5 7C15.4161 7 16.1129 7.82257 15.9623 8.72619L15.3733 12.2602C15.3021 12.6871 14.9328 13 14.5 13C14.0672 13 13.6979 12.6871 13.6267 12.2602Z" fill="#000716"/>
<circle cx="14.5" cy="15.5" r="1.5" fill="#000716"/>
</svg>
