<svg width="118" height="73" viewBox="0 0 118 73" fill="none" xmlns="http://www.w3.org/2000/svg">
<path d="M12.5 67.4C12.5 66.6 12.3 66 12 65.4C11.6 64.8 11.2 64.4 10.6 64.1C11.2 63.8 11.7 63.4 12 62.8C12.3 62.2 12.5 61.6 12.5 60.8V60.4C12.5 59.5 12.3 58.8 12 58.2C11.7 57.6 11.2 57.1 10.6 56.8C10 56.4 9.20002 56.2 8.40002 56C7.50002 55.8 6.60002 55.8 5.50002 55.8C5.10002 55.8 4.80002 55.8 4.40002 55.8C4.00002 55.8 3.60002 55.8 3.30002 55.9C2.90002 55.9 2.60002 55.9 2.30002 56C2.00002 56 1.70002 56.1 1.60002 56.1C1.20002 56.2 0.900027 56.3 0.700027 56.5C0.500027 56.7 0.400024 57 0.400024 57.6V71.2C0.400024 71.7 0.500027 72.1 0.700027 72.3C0.900027 72.5 1.20003 72.6 1.70003 72.7C1.90003 72.7 2.20002 72.8 2.50002 72.8C2.80002 72.8 3.20002 72.9 3.50002 72.9C3.90002 72.9 4.20002 72.9 4.60002 73C5.00002 73 5.40003 73 5.70003 73C6.70003 73 7.60002 72.9 8.40002 72.8C9.30002 72.7 10 72.4 10.6 72C11.2 71.6 11.7 71.1 12.1 70.5C12.5 69.8 12.7 69 12.7 68V67.4H12.5ZM8.70003 61C8.70003 61.2 8.70002 61.5 8.60002 61.7C8.50002 61.9 8.40003 62.1 8.20003 62.3C8.00003 62.5 7.80002 62.6 7.50002 62.7C7.20002 62.8 6.80002 62.8 6.40002 62.8H3.90002V58.9C4.00002 58.9 4.10003 58.9 4.20003 58.9C4.40003 58.9 4.50003 58.9 4.70003 58.9H5.20003H5.60002C6.70002 58.9 7.50002 59 8.00002 59.3C8.50002 59.6 8.70003 60 8.70003 60.7V61V61ZM8.80002 67.7C8.80002 68.3 8.60002 68.8 8.10002 69.2C7.70002 69.5 6.90003 69.7 5.70003 69.7H5.30002C5.10002 69.7 4.90002 69.7 4.80002 69.7C4.60002 69.7 4.40002 69.7 4.30002 69.7H3.90002V65.5H6.40002C7.30002 65.5 7.90002 65.7 8.30002 66.1C8.60002 66.5 8.80002 67 8.80002 67.5V67.7ZM24.7 64.2C24.7 63.4 24.6 62.7 24.3 62.1C24.1 61.5 23.7 61.1 23.3 60.7C22.9 60.3 22.3 60.1 21.7 59.9C21.1 59.7 20.3 59.6 19.5 59.6C18.8 59.6 18 59.7 17.3 59.8C16.6 59.9 16 60 15.6 60.1C15.3 60.2 15.2 60.3 15.2 60.6V62.4C15.2 62.5 15.2 62.7 15.3 62.7C15.4 62.8 15.5 62.8 15.6 62.8H15.7C15.9 62.8 16.1 62.8 16.4 62.7C16.7 62.7 17 62.7 17.3 62.6C17.6 62.5 18 62.6 18.4 62.6C18.8 62.6 19.1 62.6 19.5 62.6C20 62.6 20.4 62.7 20.7 62.9C21 63.1 21.1 63.5 21.1 64.2V65H19.9C18 65 16.6 65.3 15.7 65.9C14.8 66.5 14.4 67.5 14.4 68.8V69C14.4 69.7 14.5 70.3 14.7 70.8C14.9 71.3 15.2 71.7 15.6 72C16 72.3 16.4 72.5 16.8 72.6C17.3 72.7 17.7 72.8 18.2 72.8C18.9 72.8 19.5 72.7 19.9 72.5C20.4 72.3 20.8 72.1 21.3 71.8V72.2C21.3 72.3 21.3 72.4 21.4 72.5C21.5 72.6 21.6 72.6 21.7 72.6H24.2C24.3 72.6 24.4 72.6 24.5 72.5C24.6 72.4 24.6 72.3 24.6 72.2V64.2H24.7ZM21.2 69.6C20.9 69.7 20.6 69.8 20.3 69.9C20 70 19.7 70 19.3 70C18.8 70 18.5 69.9 18.2 69.8C18 69.7 17.9 69.4 17.9 68.9V68.7C17.9 68.4 17.9 68.2 18 68C18.1 67.8 18.2 67.6 18.3 67.5C18.4 67.4 18.7 67.3 18.9 67.2C19.2 67.1 19.5 67.1 19.9 67.1H21.2V69.6ZM38.4 72.1V64.7C38.4 64 38.3 63.3 38.2 62.7C38.1 62.1 37.9 61.5 37.6 61.1C37.3 60.6 36.9 60.3 36.4 60C35.9 59.7 35.2 59.6 34.4 59.6C33.7 59.6 33 59.7 32.5 59.9C31.9 60.1 31.4 60.4 30.8 60.8V60.3C30.8 60.2 30.8 60.1 30.7 60C30.6 59.9 30.5 59.9 30.4 59.9H27.9C27.8 59.9 27.7 59.9 27.6 60C27.5 60.1 27.5 60.2 27.5 60.3V72.2C27.5 72.3 27.5 72.4 27.6 72.5C27.7 72.6 27.8 72.6 27.9 72.6H30.6C30.7 72.6 30.8 72.6 30.9 72.5C31 72.4 31 72.3 31 72.2V63.4C31.4 63.2 31.8 63 32.1 62.9C32.4 62.8 32.8 62.7 33.1 62.7C33.4 62.7 33.7 62.7 33.9 62.8C34.1 62.9 34.3 63 34.4 63.1C34.5 63.3 34.6 63.5 34.6 63.7C34.6 64 34.7 64.3 34.7 64.7V72.1C34.7 72.2 34.7 72.3 34.8 72.4C34.9 72.5 35 72.5 35.1 72.5H37.8C37.9 72.5 38 72.5 38.1 72.4C38.3 72.3 38.4 72.2 38.4 72.1ZM49.4 71.9V69.9C49.4 69.8 49.4 69.7 49.3 69.6C49.2 69.5 49.1 69.5 49 69.5C48.6 69.5 48.2 69.6 47.8 69.6C47.4 69.6 46.9 69.6 46.3 69.6C46 69.6 45.8 69.6 45.6 69.5C45.4 69.4 45.2 69.3 45 69.1C44.8 68.9 44.7 68.6 44.6 68.3C44.5 68 44.5 67.6 44.5 67.1V65.2C44.5 64.7 44.5 64.3 44.6 64C44.7 63.7 44.8 63.4 45 63.2C45.2 63 45.4 62.9 45.6 62.8C45.8 62.7 46.1 62.7 46.3 62.7C46.9 62.7 47.5 62.7 47.8 62.7C48.2 62.7 48.6 62.8 49 62.8C49.1 62.8 49.2 62.8 49.3 62.7C49.4 62.6 49.4 62.5 49.4 62.4V60.4C49.4 60.2 49.4 60.1 49.3 60.1C49.2 60 49.1 60 48.9 59.9C48.6 59.8 48.2 59.8 47.7 59.7C47.2 59.6 46.6 59.6 45.9 59.6C44.3 59.6 43.1 60.1 42.1 61.1C41.1 62.1 40.7 63.5 40.7 65.3V67.2C40.7 69 41.2 70.4 42.1 71.4C43 72.4 44.3 72.9 45.9 72.9C46.6 72.9 47.2 72.9 47.7 72.8C48.2 72.7 48.6 72.7 48.9 72.6C49.1 72.6 49.2 72.5 49.3 72.4C49.4 72.2 49.4 72.1 49.4 71.9ZM61.8 65.4C61.8 64.5 61.7 63.7 61.4 63C61.2 62.3 60.8 61.7 60.3 61.2C59.8 60.7 59.2 60.3 58.6 60C57.9 59.7 57.1 59.6 56.2 59.6C55.3 59.6 54.5 59.7 53.8 60C53.1 60.3 52.5 60.7 52 61.2C51.5 61.7 51.2 62.3 50.9 63C50.7 63.7 50.5 64.5 50.5 65.4V67C50.5 67.9 50.6 68.7 50.9 69.4C51.1 70.1 51.5 70.7 52 71.2C52.5 71.7 53.1 72.1 53.8 72.4C54.5 72.7 55.3 72.8 56.2 72.8C57.1 72.8 57.9 72.7 58.6 72.4C59.3 72.1 59.9 71.7 60.3 71.2C60.8 70.7 61.1 70.1 61.4 69.4C61.7 68.7 61.8 67.9 61.8 67V65.4ZM58.2 67C58.2 68.8 57.5 69.7 56.2 69.7C55.5 69.7 55.1 69.5 54.7 69C54.4 68.5 54.2 67.9 54.2 66.9V65.4C54.2 64.5 54.4 63.8 54.7 63.4C55 62.9 55.5 62.7 56.2 62.7C57.5 62.7 58.2 63.6 58.2 65.4V67ZM75.1 72.1V64.7C75.1 64 75 63.3 74.9 62.7C74.8 62.1 74.6 61.5 74.3 61.1C74 60.6 73.6 60.3 73.1 60C72.6 59.7 71.9 59.6 71.1 59.6C70.4 59.6 69.8 59.7 69.2 59.9C68.6 60.1 68.1 60.4 67.5 60.8V60.3C67.5 60.2 67.5 60.1 67.4 60C67.3 59.9 67.2 59.9 67.1 59.9H64.6C64.5 59.9 64.4 59.9 64.3 60C64.2 60.1 64.2 60.2 64.2 60.3V72.2C64.2 72.3 64.2 72.4 64.3 72.5C64.4 72.6 64.5 72.6 64.6 72.6H67.3C67.4 72.6 67.5 72.6 67.6 72.5C67.7 72.4 67.7 72.3 67.7 72.2V63.4C68.1 63.2 68.5 63 68.8 62.9C69.1 62.8 69.5 62.7 69.8 62.7C70.1 62.7 70.4 62.7 70.6 62.8C70.8 62.9 71 63 71.1 63.1C71.2 63.3 71.3 63.5 71.3 63.7C71.3 64 71.4 64.3 71.4 64.7V72.1C71.4 72.2 71.4 72.3 71.5 72.4C71.6 72.5 71.7 72.5 71.8 72.5H74.5C74.6 72.5 74.7 72.5 74.8 72.4C75.1 72.3 75.1 72.2 75.1 72.1ZM84.9 72.2V70.4C84.9 70.2 84.7 70 84.4 70H83.3C83 70 82.7 69.9 82.7 69.8C82.6 69.7 82.6 69.4 82.6 68.9V62.4H84.4C84.5 62.4 84.6 62.4 84.7 62.3C84.8 62.2 84.8 62.1 84.8 62V60.2C84.8 60.1 84.8 60 84.7 59.9C84.6 59.8 84.5 59.8 84.4 59.8H82.6V57.4C82.6 57.3 82.6 57.2 82.5 57.1C82.4 57 82.3 57 82.2 57H82.1L79.4 57.5C79.3 57.5 79.2 57.6 79.1 57.7C79 57.8 79 57.9 79 58V59.8H77.2C77.1 59.8 77 59.8 76.9 59.9C76.8 60 76.8 60.1 76.8 60.2V61.7C76.8 61.8 76.8 61.9 76.9 62C77 62.1 77.1 62.1 77.2 62.2L79 62.5V69C79 69.8 79.1 70.4 79.2 70.9C79.4 71.4 79.6 71.8 79.9 72.1C80.2 72.4 80.6 72.6 81.1 72.7C81.6 72.8 82.1 72.8 82.7 72.8C83 72.8 83.3 72.8 83.6 72.8C83.9 72.8 84.2 72.7 84.5 72.7C84.7 72.6 84.9 72.4 84.9 72.2ZM96.8 64.2C96.8 63.4 96.7 62.7 96.4 62.1C96.2 61.5 95.8 61.1 95.4 60.7C95 60.3 94.4 60.1 93.8 59.9C93.2 59.7 92.4 59.6 91.6 59.6C90.9 59.6 90.1 59.7 89.4 59.8C88.7 59.9 88.1 60 87.7 60.1C87.4 60.2 87.3 60.3 87.3 60.6V62.4C87.3 62.5 87.3 62.7 87.4 62.7C87.5 62.8 87.6 62.8 87.7 62.8H87.8C88 62.8 88.2 62.8 88.5 62.7C88.8 62.7 89.1 62.7 89.4 62.6C89.7 62.6 90.1 62.6 90.5 62.6C90.9 62.6 91.2 62.6 91.6 62.6C92.1 62.6 92.5 62.7 92.8 62.9C93.1 63.1 93.2 63.5 93.2 64.2V65H92C90.1 65 88.7 65.3 87.8 65.9C86.9 66.5 86.5 67.5 86.5 68.8V69C86.5 69.7 86.6 70.3 86.8 70.8C87 71.3 87.3 71.7 87.7 72C88.1 72.3 88.5 72.5 88.9 72.6C89.4 72.7 89.8 72.8 90.3 72.8C91 72.8 91.5 72.7 92 72.5C92.5 72.3 92.9 72.1 93.4 71.8V72.2C93.4 72.3 93.4 72.4 93.5 72.5C93.6 72.6 93.7 72.6 93.8 72.6H96.3C96.4 72.6 96.5 72.6 96.6 72.5C96.7 72.4 96.7 72.3 96.7 72.2V64.2H96.8ZM93.2 69.6C92.9 69.7 92.6 69.8 92.3 69.9C92 70 91.7 70 91.3 70C90.8 70 90.5 69.9 90.2 69.8C90 69.7 89.9 69.4 89.9 68.9V68.7C89.9 68.4 89.9 68.2 90 68C90.1 67.8 90.2 67.6 90.3 67.5C90.4 67.4 90.6 67.3 90.9 67.2C91.2 67.1 91.5 67.1 91.9 67.1H93.2V69.6ZM107.8 71.9V69.9C107.8 69.8 107.8 69.7 107.7 69.6C107.6 69.5 107.5 69.5 107.4 69.5C107 69.5 106.6 69.6 106.2 69.6C105.8 69.6 105.3 69.6 104.7 69.6C104.4 69.6 104.2 69.6 104 69.5C103.8 69.4 103.6 69.3 103.4 69.1C103.2 68.9 103.1 68.6 103 68.3C102.9 68 102.9 67.6 102.9 67.1V65.2C102.9 64.7 102.9 64.3 103 64C103.1 63.7 103.2 63.4 103.4 63.2C103.6 63 103.8 62.9 104 62.8C104.2 62.7 104.5 62.7 104.7 62.7C105.3 62.7 105.9 62.7 106.2 62.7C106.6 62.7 107 62.8 107.4 62.8C107.5 62.8 107.6 62.8 107.7 62.7C107.8 62.6 107.8 62.5 107.8 62.4V60.4C107.8 60.2 107.8 60.1 107.7 60.1C107.6 60 107.5 60 107.3 59.9C107 59.8 106.6 59.8 106.1 59.7C105.6 59.6 105 59.6 104.3 59.6C102.7 59.6 101.5 60.1 100.5 61.1C99.6 62.1 99.1 63.5 99.1 65.3V67.2C99.1 69 99.6 70.4 100.5 71.4C101.4 72.4 102.7 72.9 104.3 72.9C105 72.9 105.6 72.9 106.1 72.8C106.6 72.7 107 72.7 107.3 72.6C107.5 72.6 107.6 72.5 107.7 72.4C107.8 72.3 107.8 72.1 107.8 71.9ZM117.4 72.2V70.4C117.4 70.2 117.2 70 116.9 70H115.8C115.5 70 115.2 69.9 115.2 69.8C115.1 69.7 115.1 69.4 115.1 68.9V62.4H116.9C117 62.4 117.1 62.4 117.2 62.3C117.3 62.2 117.3 62.1 117.3 62V60.2C117.3 60.1 117.3 60 117.2 59.9C117.1 59.8 117 59.8 116.9 59.8H115.1V57.4C115.1 57.3 115.1 57.2 115 57.1C114.9 57 114.8 57 114.7 57H114.6L111.9 57.5C111.8 57.5 111.7 57.6 111.6 57.7C111.5 57.8 111.5 57.9 111.5 58V59.8H109.7C109.6 59.8 109.5 59.8 109.4 59.9C109.3 60 109.3 60.1 109.3 60.2V61.7C109.3 61.8 109.3 61.9 109.4 62C109.5 62.1 109.6 62.1 109.7 62.2L111.5 62.5V69C111.5 69.8 111.6 70.4 111.7 70.9C111.9 71.4 112.1 71.8 112.4 72.1C112.7 72.4 113.1 72.6 113.6 72.7C114.1 72.8 114.6 72.8 115.2 72.8C115.5 72.8 115.8 72.8 116.1 72.8C116.4 72.8 116.7 72.7 117 72.7C117.3 72.6 117.4 72.4 117.4 72.2Z" fill="#005498"/>
<path d="M104.6 12.8H99.1H73.7H68.2L64.5 17L52.6 30.4L48.9 34.6H43.4H18.6H13.1L16.7 30.4L18.4 28.4L22 24.2H16.6H9.5H5.5C2.5 24.2 0 26.7 0 29.8V40.7V41.7C0 44.8 2.5 47.3 5.5 47.3H7H64.6H68.7C71.7 47.3 75.8 45.4 77.9 43.1L87.5 32.2L104.6 12.8Z" fill="#005498"/>
<path d="M111.9 0.0999908C114.9 0.0999908 117.4 2.6 117.4 5.7V17.6C117.4 20.7 114.9 23.2 111.9 23.2H108.9H100.9H95.4001L99.1001 19L100.9 16.9L104.6 12.7H68.3L48.9001 34.5H12.8L38.7001 5.29999L39.7001 4.2C41.7001 1.9 45.9001 0 48.9001 0H50.2001H111.9V0.0999908Z" fill="#FFD800"/>
</svg>
