<svg width="614" height="423" viewBox="0 0 614 423" fill="none" xmlns="http://www.w3.org/2000/svg">
<path d="M21.8544 0.758423H592.501C598.096 0.758423 603.462 2.98104 607.418 6.93732C611.375 10.8936 613.597 16.2595 613.597 21.8545V401.585C613.597 407.18 611.375 412.546 607.418 416.502C603.462 420.458 598.096 422.681 592.501 422.681H21.8544C16.2594 422.681 10.8935 420.458 6.93721 416.502C2.98092 412.546 0.758301 407.18 0.758301 401.585V21.8546C0.758301 16.2595 2.98092 10.8936 6.93721 6.93734C10.8935 2.98105 16.2594 0.758426 21.8544 0.758423V0.758423Z" fill="white"/>
<path d="M55.3281 366.865V294.107H77.7793C94.0981 294.107 104.596 300.239 104.596 312.92C104.596 320.092 101.27 325.081 96.5926 327.991C103.349 331.109 107.298 337.138 107.298 345.349C107.298 360.005 96.5926 366.865 79.9621 366.865L55.3281 366.865ZM69.7758 324.353H80.4819C87.03 324.353 89.8366 321.131 89.8366 315.207C89.8366 308.866 84.7433 306.788 77.8832 306.788H69.7758V324.353ZM69.7758 354.184H78.7147C87.4458 354.184 92.5388 352.001 92.5388 345.142C92.5388 338.386 88.1735 335.579 79.9621 335.579H69.7758V354.184ZM135.316 368.112C121.076 368.112 113.904 361.149 113.904 351.794C113.904 341.503 122.324 335.475 134.797 335.371C137.896 335.428 140.987 335.706 144.047 336.203V333.708C144.047 327.368 140.409 324.353 133.445 324.353C128.754 324.294 124.095 325.142 119.725 326.848L117.127 315.623C121.596 313.751 128.768 312.504 135.108 312.504C150.388 312.504 157.975 320.612 157.975 334.644V363.539C153.714 365.722 145.71 368.112 135.316 368.112V368.112ZM144.047 356.367V345.245C141.624 344.707 139.15 344.428 136.668 344.414C131.886 344.414 128.144 346.285 128.144 351.17C128.144 355.536 131.263 357.822 136.771 357.822C139.276 357.904 141.766 357.406 144.047 356.367ZM168.074 366.865V317.077C175.543 314.077 183.515 312.525 191.565 312.504C206.74 312.504 215.471 319.988 215.471 333.812V366.865H201.127V334.851C201.127 327.679 197.801 324.353 191.46 324.353C188.312 324.309 185.192 324.948 182.314 326.224V366.865L168.074 366.865ZM265.598 315.623L262.895 326.952C259.182 325.343 255.195 324.461 251.15 324.353C242.731 324.353 238.157 330.278 238.157 340.049C238.157 350.754 242.938 356.263 251.877 356.263C255.867 356.154 259.792 355.235 263.415 353.561L265.701 365.098C260.995 367.193 255.884 368.222 250.734 368.112C233.48 368.112 223.501 357.407 223.501 340.464C223.501 323.626 233.376 312.504 249.903 312.504C255.291 312.478 260.629 313.538 265.597 315.623H265.598ZM296.585 368.112C280.578 368.112 270.6 356.991 270.6 340.256C270.6 323.626 280.578 312.504 296.585 312.504C312.696 312.504 322.466 323.626 322.466 340.256C322.466 356.991 312.696 368.112 296.585 368.112H296.585ZM296.585 356.263C303.965 356.263 307.81 350.131 307.81 340.256C307.81 330.486 303.965 324.353 296.585 324.353C289.309 324.353 285.255 330.486 285.255 340.256C285.255 350.131 289.309 356.263 296.585 356.263H296.585ZM330.766 366.865V317.077C338.236 314.077 346.208 312.525 354.257 312.504C369.432 312.504 378.163 319.988 378.163 333.812V366.865H363.82V334.851C363.82 327.679 360.493 324.353 354.153 324.353C351.005 324.309 347.884 324.948 345.006 326.224V366.865L330.766 366.865ZM410.512 368.112C398.143 368.112 391.803 361.356 391.803 347.636V325.185H384.735V313.751H391.803V302.214L406.146 301.486V313.751H417.684V325.185H406.146V347.428C406.146 353.457 408.641 356.263 413.318 356.263C415.172 356.259 417.02 356.049 418.827 355.64L419.555 367.177C416.587 367.835 413.552 368.148 410.512 368.112H410.512ZM446.717 368.112C432.477 368.112 425.305 361.149 425.305 351.794C425.305 341.503 433.724 335.475 446.197 335.371C449.297 335.428 452.388 335.706 455.448 336.203V333.708C455.448 327.368 451.81 324.353 444.846 324.353C440.155 324.294 435.496 325.142 431.126 326.848L428.527 315.623C432.997 313.751 440.169 312.504 446.509 312.504C461.788 312.504 469.376 320.612 469.376 334.644V363.539C465.114 365.722 457.111 368.112 446.717 368.112H446.717ZM455.448 356.367V345.245C453.024 344.707 450.551 344.428 448.068 344.414C443.287 344.414 439.545 346.285 439.545 351.17C439.545 355.536 442.663 357.822 448.172 357.822C450.677 357.904 453.167 357.406 455.448 356.367H455.448ZM518.451 315.623L515.749 326.952C512.036 325.343 508.049 324.461 504.003 324.353C495.584 324.353 491.011 330.278 491.011 340.049C491.011 350.754 495.792 356.263 504.731 356.263C508.72 356.154 512.646 355.235 516.268 353.561L518.555 365.098C513.849 367.193 508.738 368.222 503.588 368.112C486.333 368.112 476.355 357.407 476.355 340.464C476.355 323.626 486.23 312.504 502.756 312.504C508.144 312.478 513.482 313.538 518.451 315.623H518.451ZM549.988 368.112C537.619 368.112 531.278 361.356 531.278 347.636V325.185H524.21V313.751H531.278V302.214L545.622 301.486V313.751H557.159V325.185H545.622V347.428C545.622 353.457 548.117 356.263 552.794 356.263C554.648 356.259 556.495 356.049 558.303 355.64L559.031 367.177C556.062 367.835 553.028 368.148 549.987 368.112H549.988Z" fill="#1E3764"/>
<path d="M155.379 257.728C231.279 257.728 269.229 207.128 307.179 156.527H55.3281V257.728H155.379Z" fill="url(#paint0_linear)"/>
<path d="M458.979 55.3271C383.079 55.3271 345.129 105.927 307.179 156.527H559.031V55.3271H458.979Z" fill="url(#paint1_linear)"/>
<defs>
<linearGradient id="paint0_linear" x1="106.27" y1="211.799" x2="290.51" y2="143.368" gradientUnits="userSpaceOnUse">
<stop stop-color="#005AB9"/>
<stop offset="1" stop-color="#1E3764"/>
</linearGradient>
<linearGradient id="paint1_linear" x1="322.428" y1="165.305" x2="518.053" y2="98.5623" gradientUnits="userSpaceOnUse">
<stop stop-color="#FBA900"/>
<stop offset="1" stop-color="#FFD800"/>
</linearGradient>
</defs>
</svg>
