<svg width="240" height="240" viewBox="0 0 240 240" fill="none" xmlns="http://www.w3.org/2000/svg">
<rect width="240" height="240" rx="50" fill="#00AEEF"/>
<path d="M82.4532 200.534V209.693H70.7534V185.325H82.4532V196.291H82.5208L89.407 185.325H103.436L93.1636 197.918L102.856 209.693H89.4686L82.5345 200.534H82.4532Z" fill="white"/>
<path d="M169.247 208.687C166.486 209.531 162.857 210.028 159.61 210.028C148.033 210.028 139.535 206.738 139.535 197.17C139.535 188.522 147.773 184.765 159.034 184.765C162.162 184.765 166.137 185.111 169.247 186.103L169.243 194.479C166.938 193.083 164.634 192.213 161.334 192.213C157.039 192.213 152.747 194.328 152.747 197.398C152.747 200.476 157.02 202.583 161.334 202.583C164.581 202.583 166.938 201.684 169.243 200.353L169.247 208.687Z" fill="white"/>
<path d="M117.053 195.653H122.88C125.132 195.653 126.014 194.74 126.014 193.341C126.014 191.737 125.125 190.937 123.042 190.937H117.051L117.053 195.653ZM117.053 204.74H123.153C125.439 204.74 126.218 203.793 126.218 202.394C126.218 200.995 125.432 199.99 123.179 199.99H117.051L117.053 204.74ZM105.352 185.325H129.004C135.148 185.325 137.161 187.715 137.161 191.434C137.161 195.597 133.44 197.407 129.618 197.612V197.68C133.543 197.987 137.366 198.43 137.366 203.346C137.366 206.554 135.352 209.693 128.595 209.693H105.352V185.325Z" fill="white"/>
<rect x="52" y="48" width="137" height="104" rx="3" stroke="white" stroke-width="5" stroke-linecap="round" stroke-linejoin="round"/>
<path d="M52 62C53.2 62 143.833 62 189 62" stroke="white" stroke-width="5"/>
<rect x="151" y="85.5" width="38" height="29" rx="5" stroke="white" stroke-width="5" stroke-linecap="round" stroke-linejoin="round"/>
<circle cx="164.75" cy="100.25" r="5.75" fill="white"/>
</svg>
