<svg width="24" height="24" viewBox="0 0 24 24" fill="none" xmlns="http://www.w3.org/2000/svg">
<path d="M11.1331 3.50766C11.5176 2.83896 12.4824 2.83896 12.8669 3.50766L22.6384 20.5015C23.0217 21.1682 22.5405 22 21.7715 22H2.22853C1.45951 22 0.978289 21.1682 1.36162 20.5015L11.1331 3.50766Z" fill="#FFC900"/>
<path d="M11.1267 14.2602L10.5377 10.7262C10.3871 9.82258 11.0839 9 12 9C12.9161 9 13.6129 9.82257 13.4623 10.7262L12.8733 14.2602C12.8021 14.6871 12.4328 15 12 15C11.5672 15 11.1979 14.6871 11.1267 14.2602Z" fill="white"/>
<circle cx="12" cy="17.5" r="1.5" fill="white"/>
</svg>
