<svg width="152" height="133" viewBox="0 0 152 133" fill="none" xmlns="http://www.w3.org/2000/svg">
<path d="M107.312 10.7252L84.3437 8.79851L7.17798 7.63766V126.374H89.5477L116.996 118.91L135.68 102.713L144.819 77.2363V47.8021L131.152 24.1532L107.312 10.7252Z" fill="white"/>
<path d="M9.61568 9.63025V122.721H78.3247C119.815 122.721 142.385 103.394 142.385 66.031C142.385 27.6347 117.92 9.63025 78.3247 9.63025H9.61568V9.63025ZM78.3247 3.76099C139.17 3.76099 148.255 42.7783 148.255 66.031C148.255 106.375 123.421 128.593 78.3247 128.593C78.3247 128.593 5.21718 128.593 3.745 128.593C3.745 127.115 3.745 5.23535 3.745 3.76099C5.21718 3.76099 78.3247 3.76099 78.3247 3.76099Z" fill="#0A0B09"/>
<path d="M52.0057 48.4974C52.0057 52.0335 52.0057 57.7233 52.0057 61.2581C53.9434 61.2581 55.9225 61.2581 55.9225 61.2581C58.6364 61.2581 61.1428 60.4737 61.1428 54.7776C61.1428 49.211 58.3536 48.4974 55.9225 48.4974C55.9225 48.4974 53.9434 48.4974 52.0057 48.4974V48.4974ZM117.344 42.1504H123.68C123.68 42.1504 123.68 56.5958 123.68 61.2581C125.085 61.2581 128.943 61.2581 133.069 61.2581C130.494 26.587 103.219 19.0961 78.4351 19.0961H52.0112V42.1635H55.9225C63.0534 42.1635 67.4839 46.999 67.4839 54.7776C67.4839 62.8029 63.1599 67.5933 55.9225 67.5933H52.0112V113.75H78.4351C118.731 113.75 132.753 95.0371 133.249 67.5933H117.344V42.1504V42.1504ZM99.6911 56.3473H104.275L102.179 49.1546H101.798L99.6911 56.3473ZM89.8039 67.601L97.4765 42.1495H106.49L114.161 67.601H107.565L106.127 62.6775H97.8396L96.3976 67.601H89.8039ZM86.7612 61.2581V67.5933H71.0868V42.1599H86.2552V48.4928C86.2552 48.4928 80.8572 48.4928 77.4234 48.4928C77.4234 49.3661 77.4234 50.3674 77.4234 51.4413H85.7761V57.7725H77.4234C77.4234 59.044 77.4234 60.2428 77.4234 61.2581C80.9564 61.2581 86.7612 61.2581 86.7612 61.2581V61.2581Z" fill="#D50172"/>
<path d="M43.7145 54.866C43.7145 62.4169 37.5962 68.5383 30.0454 68.5383C22.4982 68.5383 16.374 62.4169 16.374 54.866C16.374 47.3211 22.4982 41.197 30.0454 41.197C37.5962 41.197 43.7145 47.3211 43.7145 54.866ZM19.0802 113.729H41.0755V74.5735H19.0802V113.729Z" fill="black"/>
</svg>
