<svg width="24" height="24" viewBox="0 0 24 24" fill="none" xmlns="http://www.w3.org/2000/svg">
<path d="M5 7C5 6.44772 5.45047 6.00673 5.99691 5.9266C8.45554 5.56606 10.2089 4 12 4C13.7911 4 15.5445 5.56607 18.0031 5.9266C18.5495 6.00673 19 6.44771 19 7L19 12C19 18 14 18.5 12 20C10 18.5 5 18 5 12V7Z" fill="#868686"/>
<path d="M11 12V15C11 15.5523 11.4477 16 12 16C12.5523 16 13 15.5523 13 15V12C13 11.4477 12.5523 11 12 11C11.4477 11 11 11.4477 11 12Z" fill="white"/>
<circle r="1.25" transform="matrix(1 0 0 -1 12 8.75)" fill="white"/>
</svg>
