<svg width="24" height="24" viewBox="0 0 24 24" fill="none" xmlns="http://www.w3.org/2000/svg">
<path fill-rule="evenodd" clip-rule="evenodd" d="M4.5132 8.96754C4.26104 9.40429 4.37356 9.96047 4.77567 10.2649L5.93786 11.1446V12.8554L4.77573 13.7351C4.37362 14.0395 4.2611 14.5957 4.51326 15.0325L5.63048 16.9675C5.88264 17.4043 6.42057 17.5849 6.88523 17.3889L8.22816 16.8223L9.70981 17.6777L9.8906 19.124C9.95315 19.6245 10.3786 20 10.8829 20H13.1173C13.6216 20 14.047 19.6245 14.1096 19.124L14.2904 17.6777L15.7719 16.8223L17.1149 17.3889C17.5795 17.5849 18.1174 17.4043 18.3696 16.9675L19.4868 15.0325C19.739 14.5957 19.6265 14.0395 19.2244 13.7351L18.0622 12.8554V11.1446L19.2244 10.2649C19.6265 9.96047 19.739 9.40429 19.4869 8.96754L18.3697 7.03246C18.1175 6.5957 17.5796 6.41506 17.1149 6.6111L15.7719 7.17771L14.2904 6.32233L14.1096 4.87596C14.047 4.37553 13.6216 4 13.1173 4H10.8829C10.3786 4 9.95315 4.37553 9.8906 4.87596L9.70981 6.32226L8.22814 7.17771L6.88517 6.6111C6.4205 6.41506 5.88258 6.5957 5.63042 7.03246L4.5132 8.96754ZM12 15C13.6569 15 15 13.6569 15 12C15 10.3431 13.6569 9 12 9C10.3432 9 9.00004 10.3431 9.00004 12C9.00004 13.6569 10.3432 15 12 15Z" fill="#868686"/>
</svg>
