<svg width="24" height="24" viewBox="0 0 24 24" fill="none" xmlns="http://www.w3.org/2000/svg">
<circle cx="12" cy="12" r="4.5" stroke="#868686" stroke-width="3"/>
<path d="M9.89057 4.87596C9.95312 4.37553 10.3785 4 10.8828 4H13.1173C13.6216 4 14.047 4.37553 14.1096 4.87596L14.9846 11.876C14.9949 11.9583 14.9949 12.0417 14.9846 12.124L14.1096 19.124C14.047 19.6245 13.6216 20 13.1173 20H10.8828C10.3785 20 9.95312 19.6245 9.89057 19.124L9.01557 12.124C9.00527 12.0417 9.00527 11.9583 9.01557 11.876L9.89057 4.87596Z" fill="#868686"/>
<path d="M6.88519 17.3889C6.42053 17.5849 5.88261 17.4043 5.63045 16.9675L4.51323 15.0325C4.26107 14.5957 4.37359 14.0395 4.7757 13.7351L10.4004 9.47736C10.4666 9.42726 10.5387 9.3856 10.6152 9.35333L17.1149 6.6111C17.5796 6.41506 18.1175 6.5957 18.3696 7.03246L19.4869 8.96753C19.739 9.40429 19.6265 9.96047 19.2244 10.2649L13.5997 14.5226C13.5335 14.5727 13.4614 14.6144 13.3849 14.6467L6.88519 17.3889Z" fill="#868686"/>
<path d="M4.77564 10.2649C4.37353 9.96047 4.26101 9.40429 4.51317 8.96753L5.63039 7.03246C5.88255 6.5957 6.42047 6.41506 6.88513 6.6111L13.3848 9.35333C13.4613 9.3856 13.5335 9.42726 13.5996 9.47736L19.2243 13.7351C19.6264 14.0395 19.739 14.5957 19.4868 15.0325L18.3696 16.9675C18.1174 17.4043 17.5795 17.5849 17.1148 17.3889L10.6151 14.6467C10.5387 14.6144 10.4665 14.5727 10.4003 14.5226L4.77564 10.2649Z" fill="#868686"/>
<path d="M12 5L18.0622 8.5V15.5L12 19L5.93782 15.5V8.5L12 5Z" fill="#868686"/>
<circle cx="12" cy="12" r="3" fill="#E5E5E5"/>
</svg>
