<svg width="240" height="240" viewBox="0 0 240 240" fill="none" xmlns="http://www.w3.org/2000/svg">
<path d="M119.913 0.0176704C95.0104 0.0176704 70.0643 0.157952 45.1621 0.421144C17.7583 0.701882 0.24689 19.213 0.141559 46.6991C-0.0427719 95.7318 -0.0515495 144.896 0.141559 193.99C0.255668 222.257 17.9777 239.672 46.3559 239.794C76.5598 239.935 106.72 239.865 136.862 239.865C168.049 239.865 199.306 239.602 230.511 239.996C237.753 240.093 240.035 238.303 240 230.784C239.692 169.382 239.947 108.014 239.736 46.6377C239.736 19.1166 222.207 0.68448 194.847 0.403741C169.84 0.149322 145.043 0 120.027 0L119.913 0.0176704ZM120.044 69.6497C135.115 69.6497 150.143 69.6934 165.196 69.7811C178.732 69.8601 184.604 75.1414 184.7 86.406C184.806 97.6531 177.924 103.707 164.529 103.83C149.485 103.961 134.413 103.83 119.386 103.83H119.324C104.613 103.83 89.8667 103.935 75.1641 103.759C62.4102 103.593 55.7831 97.5918 55.7216 86.7308C55.6602 75.4135 61.5763 69.86 74.8306 69.7723C89.8843 69.6845 104.973 69.6497 120.044 69.6497ZM119.913 136.009C135.177 136.009 150.415 136 165.679 136.079C177.889 136.141 184.595 142.826 184.384 153.906C184.191 164.416 177.845 170.286 165.679 170.461C150.275 170.68 134.808 170.531 119.377 170.531H119.316C104.245 170.531 89.1558 170.689 74.0846 170.461C61.8924 170.277 55.5636 164.407 55.3793 153.836C55.1774 142.747 61.8923 136.132 74.1459 136.079C89.4102 136.009 104.648 136.009 119.913 136.009Z" fill="#AA0024"/>
</svg>
