<svg width="24" height="24" viewBox="0 0 24 24" fill="none" xmlns="http://www.w3.org/2000/svg">
<path fill-rule="evenodd" clip-rule="evenodd" d="M18 10C19.1046 10 20 10.8954 20 12V20C20 21.1046 19.1046 22 18 22H6C4.89543 22 4 21.1046 4 20V12C4 10.8954 4.89543 10 6 10H18ZM12 13.5C10.8954 13.5 10 14.3954 10 15.5C10 16.2403 10.4022 16.8866 10.9999 17.2324L11 18C11 18.5523 11.4477 19 12 19C12.5523 19 13 18.5523 13 18L13.0011 17.2318C13.5983 16.8858 14 16.2398 14 15.5C14 14.3954 13.1046 13.5 12 13.5Z" fill="white"/>
<path d="M17 8C17 5.23858 14.7614 3 12 3C9.23858 3 7 5.23858 7 8V15C7 17.7614 9.23858 20 12 20C14.7614 20 17 17.7614 17 15V8Z" stroke="white" stroke-width="2"/>
</svg>
