<?xml version="1.0" encoding="utf-8"?>
<!-- Generator: Adobe Illustrator 27.6.1, SVG Export Plug-In . SVG Version: 6.00 Build 0)  -->
<svg version="1.1" id="Layer_1" xmlns="http://www.w3.org/2000/svg" xmlns:xlink="http://www.w3.org/1999/xlink" x="0px" y="0px"
	 viewBox="0 0 50 50" style="enable-background:new 0 0 50 50;" xml:space="preserve">
<style type="text/css">
	.st0{fill:none;stroke:#C9D9EF;stroke-width:3;}
	.st1{fill-rule:evenodd;clip-rule:evenodd;fill:#C9D9EF;}
</style>
<path class="st0" d="M7,9.5h36c1.4,0,2.5,1.1,2.5,2.5v26c0,1.4-1.1,2.5-2.5,2.5H7c-1.4,0-2.5-1.1-2.5-2.5V12C4.5,10.6,5.6,9.5,7,9.5
	z"/>
<path class="st1" d="M25,34c1,0,7-6.1,7-11c0-3.9-3.1-7-7-7s-7,3.1-7,7C18,27.9,24,34,25,34z M25,25c1.1,0,2-0.9,2-2s-0.9-2-2-2
	s-2,0.9-2,2S23.9,25,25,25z"/>
</svg>
