<?xml version="1.0" encoding="utf-8"?>
<!-- Generator: Adobe Illustrator 27.6.1, SVG Export Plug-In . SVG Version: 6.00 Build 0)  -->
<svg version="1.1" id="Layer_1" xmlns="http://www.w3.org/2000/svg" xmlns:xlink="http://www.w3.org/1999/xlink" x="0px" y="0px"
	 viewBox="0 0 50 50" style="enable-background:new 0 0 50 50;" xml:space="preserve">
<style type="text/css">
	.st0{clip-path:url(#SVGID_00000103266644351402247990000003229375995816552835_);}
	.st1{fill:#000716;}
	.st2{fill-rule:evenodd;clip-rule:evenodd;fill:#002573;filter:url(#Adobe_OpacityMaskFilter);}
	.st3{mask:url(#mask0_12568_1150_00000097497016513671246620000001335866523764052357_);}
	.st4{fill:#868686;}
	.st5{fill:#FECDA9;}
	
		.st6{fill:#0046D7;filter:url(#Adobe_OpacityMaskFilter_00000110445371818255972580000015805563634202064266_);stroke:#000000;stroke-width:1.4;}
	.st7{mask:url(#mask1_12568_1150_00000152968696090793929290000016198201725070234302_);}
	.st8{fill:#24418A;}
	.st9{fill:#0067B1;}
	.st10{fill:#C4C4C4;filter:url(#Adobe_OpacityMaskFilter_00000056415574982876875550000015723980874123663800_);}
	.st11{mask:url(#mask2_12568_1150_00000122693256811317144340000009099235968440840832_);}
	.st12{fill:#DCDCDC;}
	.st13{fill:#FFFFFF;}
</style>
<g>
	<defs>
		<rect id="SVGID_1_" y="0" width="50" height="50"/>
	</defs>
	<clipPath id="SVGID_00000098179146287446178150000016618821298629421446_">
		<use xlink:href="#SVGID_1_"  style="overflow:visible;"/>
	</clipPath>
	<g style="clip-path:url(#SVGID_00000098179146287446178150000016618821298629421446_);">
		<path class="st1" d="M11.1,15h22.6c0.7,17.3-10,21.9-10,21.9c-9.3,0.7-11.3-1.3-11.3-1.3c13.3-4-0.7-2-0.7-2l-4-5.3
			C15.1,26.3,11.1,15,11.1,15z"/>
		<defs>
			<filter id="Adobe_OpacityMaskFilter" filterUnits="userSpaceOnUse" x="7" y="30.9" width="30.5" height="39.9">
				<feColorMatrix  type="matrix" values="1 0 0 0 0  0 1 0 0 0  0 0 1 0 0  0 0 0 1 0"/>
			</filter>
		</defs>
		
			<mask maskUnits="userSpaceOnUse" x="7" y="30.9" width="30.5" height="39.9" id="mask0_12568_1150_00000097497016513671246620000001335866523764052357_">
			<path class="st2" d="M37.4,43.4c-4.6,1.1-10,1.5-15.2,1.5c-5.2,0-10.6-0.3-15.2-1.5c0-0.6,0-1.2,0-1.8c0-4.7,3.2-9,7.9-9.8
				c2.5-0.5,5.2-0.8,7.5-0.8s5,0.4,7.5,0.8c4.7,0.9,7.9,5.1,7.7,9.8C37.5,42.2,37.4,42.8,37.4,43.4z"/>
		</mask>
		<g class="st3">
			<path class="st4" d="M7,41.6c0-4.7,3.2-9,7.9-9.8c2.5-0.5,5.2-0.8,7.5-0.8s5,0.4,7.5,0.8c4.7,0.9,7.9,5.1,7.7,9.8
				C36.9,54.7,34.1,70.8,21,70.8C8,70.8,6.9,54.7,7,41.6z"/>
			<path class="st5" d="M18.4,30.9h8l0,0c0,1.6-1.1,3-2.6,3.2c-0.5,0.1-1,0.1-1.4,0.1c-0.4,0-0.9-0.1-1.4-0.1
				C19.4,33.9,18.4,32.5,18.4,30.9L18.4,30.9z"/>
		</g>
		<circle class="st1" cx="22.4" cy="14.3" r="11.3"/>
		<path class="st5" d="M12.4,15.6c0-5.5,4.5-10,10-10l0,0c5.5,0,10,4.5,10,10v4c0,5.5-4.5,10-10,10l0,0c-5.5,0-10-4.5-10-10V15.6z"
			/>
		<path class="st5" d="M20.4,21.6h4v9.3c0,1.1-0.9,2-2,2l0,0c-1.1,0-2-0.9-2-2V21.6z"/>
		<path class="st1" d="M32.3,12.3c-8,0-10.6,12.6-23.9,10.6c4-6,0.7-11.3,6-16.6l1.3-0.7l6.6-1.3l8,2.7L32.3,12.3z"/>
		<defs>
			
				<filter id="Adobe_OpacityMaskFilter_00000182491966869614283250000005273230542353899186_" filterUnits="userSpaceOnUse" x="19" y="20" width="35" height="35">
				<feColorMatrix  type="matrix" values="1 0 0 0 0  0 1 0 0 0  0 0 1 0 0  0 0 0 1 0"/>
			</filter>
		</defs>
		
			<mask maskUnits="userSpaceOnUse" x="19" y="20" width="35" height="35" id="mask1_12568_1150_00000152968696090793929290000016198201725070234302_">
			
				<path style="fill:#0046D7;filter:url(#Adobe_OpacityMaskFilter_00000182491966869614283250000005273230542353899186_);stroke:#000000;stroke-width:1.4;" d="
				M27,28.5C27,28.4,27.1,28.4,27,28.5c5.7,0.5,8.9-2.7,9.8-3.8c0.2-0.2,0.5-0.2,0.7,0c1,1.2,4.1,4.3,9.7,3.8c0,0,0.1,0,0.1,0.1v6.1
				c-0.7,9.9-5.6,12.1-9.4,14.3c-0.5,0.3-1.1,0.3-1.5,0c-3.8-2.2-8.7-4.4-9.4-14.3V28.5z"/>
		</mask>
		<g class="st7">
			<rect x="19" y="20" class="st8" width="35" height="35"/>
			<path class="st9" d="M37.2,20H19v35h18.2V20z"/>
		</g>
		<defs>
			
				<filter id="Adobe_OpacityMaskFilter_00000044879863264345971600000008020341666147227582_" filterUnits="userSpaceOnUse" x="26.7" y="24.5" width="21" height="27">
				<feColorMatrix  type="matrix" values="1 0 0 0 0  0 1 0 0 0  0 0 1 0 0  0 0 0 1 0"/>
			</filter>
		</defs>
		
			<mask maskUnits="userSpaceOnUse" x="26.7" y="24.5" width="21" height="27" id="mask2_12568_1150_00000122693256811317144340000009099235968440840832_">
			<path style="fill:#C4C4C4;filter:url(#Adobe_OpacityMaskFilter_00000044879863264345971600000008020341666147227582_);" d="
				M28.1,30.5c0-0.4,0.4-0.8,0.8-0.8c3.9,0.1,6.6-1.8,7.7-2.9c0.3-0.3,0.9-0.3,1.2,0c1.1,1,3.7,3,7.7,2.9c0.4,0,0.8,0.3,0.8,0.8v4.8
				c-0.5,8-5.1,10.3-8.4,12.2c-0.5,0.3-1,0.3-1.5,0c-3.2-1.9-7.8-4.2-8.4-12.2V30.5z"/>
		</mask>
		<g class="st11">
			<path class="st12" d="M37.2,24.5l10.5,3.2v8.4c0,0-4.9,1.4-10.5,1.4V24.5z"/>
			<path class="st13" d="M37.2,37.5c-5.6,0-10.5-1.4-10.5-1.4v7l5.6,5.6l4.9,2.8V37.5z"/>
		</g>
	</g>
</g>
</svg>
