<?xml version="1.0" encoding="UTF-8"?>
<svg id="Layer_1" data-name="Layer 1" xmlns="http://www.w3.org/2000/svg" xmlns:xlink="http://www.w3.org/1999/xlink" viewBox="0 0 50 71.78">
  <defs>
    <style>
      .cls-1, .cls-2, .cls-3, .cls-4 {
        fill: none;
      }

      .cls-5 {
        fill: #0067b1;
      }

      .cls-6 {
        fill: #000716;
      }

      .cls-7, .cls-8 {
        fill: #f47d30;
      }

      .cls-9 {
        fill: #ffc900;
      }

      .cls-10 {
        fill: #fecda9;
      }

      .cls-2 {
        mask: url(#mask-1);
      }

      .cls-3 {
        mask: url(#mask);
      }

      .cls-8, .cls-11 {
        fill-rule: evenodd;
      }

      .cls-11 {
        fill: #002573;
      }

      .cls-4 {
        clip-path: url(#clippath);
      }
    </style>
    <clipPath id="clippath">
      <rect class="cls-1" width="50" height="50"/>
    </clipPath>
    <mask id="mask" x="7" y="31.91" width="30.51" height="39.87" maskUnits="userSpaceOnUse">
      <g id="mask0_8300_206" data-name="mask0 8300 206">
        <path class="cls-11" d="m37.4,44.39c-4.58,1.13-9.99,1.47-15.18,1.47s-10.64-.34-15.22-1.48c0-.61,0-1.21,0-1.8.02-4.75,3.22-8.96,7.89-9.83,2.51-.47,5.23-.84,7.47-.84s4.96.37,7.47.84c4.67.87,7.87,5.09,7.66,9.83-.03.6-.06,1.2-.09,1.81Z"/>
      </g>
    </mask>
    <mask id="mask-1" x="24.5" y="32.02" width="14.09" height="18.47" maskUnits="userSpaceOnUse">
      <g id="mask1_8300_206" data-name="mask1 8300 206">
        <path class="cls-9" d="m34.14,32.02l4.45,2.89-3.26,5.02c-.07.11-.19.18-.32.18l-2.4.03c-.28,0-.46.29-.35.54l.8,1.86c.11.26-.08.54-.35.54l-2.02.02c-.28,0-.46.29-.35.54l.95,2.2c.05.12.04.26-.03.37l-1.33,2.05-3.93.27c-.29.02-.57-.13-.72-.38l-.51-.88c-.15-.25-.14-.57.02-.82l9.37-14.43Z"/>
      </g>
    </mask>
  </defs>
  <g class="cls-4">
    <g>
      <path class="cls-6" d="m11.07,15.96h22.59c.66,17.28-9.97,21.93-9.97,21.93-9.3.66-11.3-1.33-11.3-1.33,13.29-3.99-.66-1.99-.66-1.99l-3.99-5.32c7.31-1.99,3.32-13.29,3.32-13.29Z"/>
      <g class="cls-3">
        <g>
          <path class="cls-5" d="m7,42.58c.02-4.75,3.22-8.96,7.89-9.83,2.51-.47,5.23-.84,7.47-.84s4.96.37,7.47.84c4.67.87,7.87,5.09,7.66,9.83-.59,13.12-3.39,29.2-16.46,29.2s-14.09-16.08-14.03-29.19Z"/>
          <path class="cls-10" d="m18.38,31.91h7.97c0,1.56-1.06,2.95-2.6,3.19-.51.08-1,.13-1.38.13s-.88-.06-1.38-.13c-1.54-.24-2.6-1.63-2.6-3.19h0Z"/>
        </g>
      </g>
      <circle class="cls-6" cx="22.36" cy="15.3" r="11.3"/>
      <path class="cls-10" d="m12.4,16.62c0-5.5,4.46-9.97,9.97-9.97h0c5.5,0,9.97,4.46,9.97,9.97v3.99c0,5.5-4.46,9.97-9.97,9.97h0c-5.5,0-9.97-4.46-9.97-9.97v-3.99Z"/>
      <path class="cls-10" d="m20.37,22.61h3.99v9.3c0,1.1-.89,1.99-1.99,1.99h0c-1.1,0-1.99-.89-1.99-1.99v-9.3Z"/>
      <path class="cls-6" d="m32.33,13.3c-7.97,0-10.63,12.62-23.92,10.63,3.99-5.98.66-11.3,5.98-16.61l1.33-.66,6.64-1.33,7.97,2.66,1.99,5.32Z"/>
      <path class="cls-8" d="m37.23,22.78c-.77-.11-1.5.29-1.93.95l-3.63,5.59c-.31.48-.34,1.1-.06,1.6l2.94,5.34,6.07.51c.57.05,1.12-.22,1.44-.7l3.63-5.59c.43-.66.5-1.48.08-2.14-.64-1.03-1.82-2.58-3.63-3.76-1.81-1.18-3.71-1.62-4.91-1.79Zm1.38,3c-.64-.31-1.41-.1-1.8.5-.42.65-.24,1.53.41,1.95l3.57,2.32c.65.42,1.53.24,1.95-.41.39-.6.27-1.39-.27-1.85l-1.17-.99c-.4-.34-.84-.62-1.31-.85l-1.38-.67Z"/>
      <g class="cls-2">
        <path class="cls-7" d="m34.14,32.02l4.45,2.89-10.12,15.58-2.97-1.93-1-1.71,9.64-14.84Z"/>
      </g>
    </g>
  </g>
</svg>