<?xml version="1.0" encoding="UTF-8"?>
<svg id="Layer_1" data-name="Layer 1" xmlns="http://www.w3.org/2000/svg" xmlns:xlink="http://www.w3.org/1999/xlink" viewBox="0 0 50 50">
  <defs>
    <style>
      .cls-1, .cls-2, .cls-3 {
        fill: none;
      }

      .cls-4 {
        fill: #0067b1;
      }

      .cls-5 {
        fill: #c9d9ef;
      }

      .cls-6 {
        fill: #150958;
      }

      .cls-7 {
        fill: #24418a;
      }

      .cls-2 {
        stroke: #24418a;
        stroke-linecap: round;
        stroke-width: 1.5px;
      }

      .cls-3 {
        clip-path: url(#clippath);
      }
    </style>
    <clipPath id="clippath">
      <rect class="cls-1" width="50" height="50"/>
    </clipPath>
  </defs>
  <g class="cls-3">
    <g>
      <path class="cls-5" d="m8,6c0-1.1.9-2,2-2h27c1.1,0,2,.9,2,2v38c0,1.1-.9,2-2,2H10c-1.1,0-2-.9-2-2V6Z"/>
      <path class="cls-6" d="m11,13c0-.55.45-1,1-1h13c.55,0,1,.45,1,1h0c0,.55-.45,1-1,1h-13c-.55,0-1-.45-1-1h0Z"/>
      <path class="cls-7" d="m11,21c0-.55.45-1,1-1h21c.55,0,1,.45,1,1v2c0,.55-.45,1-1,1H12c-.55,0-1-.45-1-1v-2Z"/>
      <path class="cls-7" d="m11,27c0-.55.45-1,1-1h14c.55,0,1,.45,1,1h0c0,.55-.45,1-1,1h-14c-.55,0-1-.45-1-1h0Z"/>
      <path class="cls-6" d="m11,16c0-.55.45-1,1-1h7c.55,0,1,.45,1,1h0c0,.55-.45,1-1,1h-7c-.55,0-1-.45-1-1h0Z"/>
      <rect class="cls-5" x="41.94" y="3.97" width="5.03" height="1.26" rx=".63" ry=".63" transform="translate(22.29 43.41) rotate(-66.17)"/>
      <path class="cls-4" d="m45.23,9.07l1.27,3.95c.29.91.13,1.9-.44,2.67l-4.14,5.61c-.32.44-1.01.31-1.15-.22h0c-.08-.29.06-.6.33-.74l.14-.07c.17-.09.3-.23.38-.4l2.07-4.6c.34-.76.35-1.62.02-2.39l-.08-.18,1.6-3.63Z"/>
      <path class="cls-6" d="m29.54,39.94c-.14.32-.51.46-.83.32h0c-.32-.14-.46-.51-.32-.83l1.27-2.88,1.15.51-1.27,2.88Z"/>
      <path class="cls-4" d="m30.95,38.72c-.33.52-.99.71-1.55.46l-.35-.16c-.56-.25-.86-.86-.7-1.46.58-2.16,1.98-7.17,3.15-9.83,1.52-3.45,6.12-1.42,4.6,2.03-1.18,2.66-3.94,7.07-5.14,8.95Z"/>
      <path class="cls-4" d="m36.09,29.77l-4.6-2.03,9.65-21.85c.56-1.27,2.05-1.85,3.32-1.28h0c1.27.56,1.85,2.05,1.28,3.32l-9.65,21.85Z"/>
      <rect class="cls-5" x="38.38" y="12.03" width="5.03" height="1.26" rx=".63" ry=".63" transform="translate(12.8 44.96) rotate(-66.17)"/>
      <path class="cls-2" d="m13,42c10.94-4.98,5.78-9.73,2.5-6-1.51,1.72-3.5,8,10.5,4.13"/>
    </g>
  </g>
</svg>