<?xml version="1.0" encoding="UTF-8"?>
<svg id="Layer_1" data-name="Layer 1" xmlns="http://www.w3.org/2000/svg" viewBox="0 0 40 43">
  <defs>
    <style>
      .cls-1 {
        fill: #0067b1;
      }

      .cls-2 {
        fill: #ef3e42;
      }

      .cls-3, .cls-4 {
        fill: #c9d9ef;
      }

      .cls-5 {
        fill: #150958;
      }

      .cls-6, .cls-7 {
        fill: #24418a;
      }

      .cls-7 {
        isolation: isolate;
        opacity: .5;
      }

      .cls-8 {
        fill: #fff;
        fill-rule: evenodd;
      }

      .cls-4 {
        stroke: #fff;
        stroke-width: 2px;
      }
    </style>
  </defs>
  <path class="cls-6" d="m0,34c0-1.66,1.34-3,3-3h30c1.66,0,3,1.34,3,3v4c0,2.21-1.79,4-4,4H4c-2.21,0-4-1.79-4-4v-4Z"/>
  <path class="cls-3" d="m0,6C0,2.69,2.69,0,6,0h24c3.31,0,6,2.69,6,6v28c0,2.21-1.79,4-4,4H4c-2.21,0-4-1.79-4-4V6Z"/>
  <path class="cls-5" d="m0,5C0,2.24,2.24,0,5,0h26c2.76,0,5,2.24,5,5v13H0V5Z"/>
  <rect class="cls-4" x="3" y="6" width="30" height="9" rx="1" ry="1"/>
  <rect class="cls-2" x="4" y="19" width="8" height="7" rx="1.5" ry="1.5"/>
  <rect class="cls-5" x="14" y="19" width="8" height="7" rx="1.5" ry="1.5"/>
  <rect class="cls-5" x="24" y="19" width="8" height="7" rx="1.5" ry="1.5"/>
  <rect class="cls-5" x="14" y="28" width="8" height="7" rx="1.5" ry="1.5"/>
  <rect class="cls-5" x="4" y="28" width="8" height="7" rx="1.5" ry="1.5"/>
  <rect x="24" y="28" width="8" height="7" rx="1.5" ry="1.5"/>
  <path class="cls-7" d="m22.5,10h6c.83,0,1.5.67,1.5,1.5h0c0,.83-.67,1.5-1.5,1.5h-6c-.83,0-1.5-.67-1.5-1.5h0c0-.83.67-1.5,1.5-1.5Z"/>
  <path class="cls-1" d="m30,23h0c5.52,0,10,4.48,10,10h0c0,5.52-4.48,10-10,10h0c-5.52,0-10-4.48-10-10h0c0-5.52,4.48-10,10-10Z"/>
  <path class="cls-8" d="m29,28.5c0-.55.45-1,1-1s1,.45,1,1v6.59l1.79-1.79c.39-.39,1.02-.39,1.41,0s.39,1.02,0,1.41l-3.5,3.5c-.39.39-1.02.39-1.41,0l-3.5-3.5c-.39-.39-.39-1.02,0-1.41s1.02-.39,1.41,0l1.79,1.79v-6.59Z"/>
</svg>