<?xml version="1.0" encoding="UTF-8"?>
<svg id="Layer_1" data-name="Layer 1" xmlns="http://www.w3.org/2000/svg" viewBox="0 0 39.5 41">
  <defs>
    <style>
      .cls-1 {
        fill: #150958;
      }

      .cls-2, .cls-3, .cls-4, .cls-5, .cls-6, .cls-7 {
        fill: none;
      }

      .cls-2, .cls-3, .cls-8 {
        stroke-width: 2px;
      }

      .cls-2, .cls-7 {
        stroke: #0067b1;
      }

      .cls-3, .cls-5 {
        stroke: #150958;
      }

      .cls-3, .cls-5, .cls-6, .cls-7 {
        stroke-linecap: round;
        stroke-linejoin: round;
      }

      .cls-4 {
        stroke: #dcdcdc;
      }

      .cls-8 {
        fill: #c9d9ef;
        stroke: #c9d9ef;
      }

      .cls-5, .cls-6, .cls-7 {
        stroke-width: 3px;
      }

      .cls-6 {
        stroke: #24418a;
      }
    </style>
  </defs>
  <path class="cls-4" d="m10,11.5l28,1"/>
  <path class="cls-4" d="m12.5,17h25"/>
  <path class="cls-4" d="m17,7l2.5,15.5"/>
  <path class="cls-4" d="m24,7l1,14"/>
  <path class="cls-4" d="m30.5,8v12.5"/>
  <path class="cls-8" d="m9.58,9.61c-.29-1.3.76-2.52,2.09-2.43l25.9,1.76c.52.04.93.47.93,1v10.69c0,.5-.37.92-.86.99l-22.81,3.13c-1.03.14-2-.53-2.22-1.55l-3.02-13.59Z"/>
  <path class="cls-2" d="m7.5,2.5l16,23"/>
  <circle class="cls-1" cx="15.5" cy="37" r="4"/>
  <circle class="cls-1" cx="34.5" cy="37" r="4"/>
  <path class="cls-6" d="m14.5,32v2.39c0,.39.12.78.34,1.11l.66,1"/>
  <path class="cls-6" d="m33.5,32v2.39c0,.39.12.78.34,1.11l.66,1"/>
  <path class="cls-5" d="m2.5,1.5h2.65c1.38,0,2.59.94,2.91,2.29l5.44,22.21"/>
  <path class="cls-7" d="m1.5,1.5h2.5"/>
  <path class="cls-3" d="m34.5,31.5H13.48c-.61,0-1.18-.31-1.52-.82h0c-1.13-1.7-.09-3.99,1.94-4.25l15.11-1.94"/>
</svg>