<?xml version="1.0" encoding="UTF-8"?>
<svg id="Layer_1" data-name="Layer 1" xmlns="http://www.w3.org/2000/svg" viewBox="0 0 37 47.5">
  <defs>
    <style>
      .cls-1 {
        fill: #0067b1;
      }

      .cls-2, .cls-3 {
        fill: #fff;
      }

      .cls-4 {
        fill: #24418a;
      }

      .cls-5 {
        stroke: #24418a;
        stroke-linecap: round;
      }

      .cls-5, .cls-6 {
        fill: none;
        stroke-width: 2px;
      }

      .cls-6 {
        stroke: #c9d9ef;
      }

      .cls-3 {
        stroke: #0067b1;
        stroke-width: 3px;
      }

      .cls-7 {
        fill: #c9d9ef;
      }

      .cls-7, .cls-8 {
        fill-rule: evenodd;
      }

      .cls-8 {
        fill: #ef3e42;
      }
    </style>
  </defs>
  <circle class="cls-6" cx="18.5" cy="6" r="5"/>
  <path class="cls-4" d="m17,8h3v5h-3v-5Z"/>
  <path class="cls-1" d="m15.5,6.5c0-.83.67-1.5,1.5-1.5h3c.83,0,1.5.67,1.5,1.5v.38c0,.4-.16.78-.44,1.06l-.62.62c-.28.28-.66.44-1.06.44h-1.76c-.4,0-.78-.16-1.06-.44l-.62-.62c-.28-.28-.44-.66-.44-1.06v-.38Z"/>
  <path class="cls-3" d="m18.5,46c9.39,0,17-7.61,17-17s-7.61-17-17-17S1.5,19.61,1.5,29s7.61,17,17,17Z"/>
  <path class="cls-5" d="m26.5,21l-1,1"/>
  <path class="cls-5" d="m18.5,18v1"/>
  <path class="cls-5" d="m18.5,39v1"/>
  <path class="cls-5" d="m7.5,29h1"/>
  <path class="cls-5" d="m10,21.5l1,1"/>
  <path class="cls-5" d="m10.5,37l1-1"/>
  <path class="cls-5" d="m26.5,37l-1-1"/>
  <path class="cls-5" d="m28.5,29h1"/>
  <path class="cls-7" d="m21.87,32.37c-.27.27-.59.48-.94.64l-6.68,2.86c-1.65.71-3.33-.96-2.63-2.61l2.88-6.71c.15-.35.36-.66.63-.92l6.74,6.74Z"/>
  <path class="cls-8" d="m16.06,24.97l6.74-2.83c1.66-.68,3.31,1.01,2.58,2.66l-2.91,6.65c-.15.35-.37.67-.64.93l-6.69-6.8c.26-.26.58-.47.92-.62Z"/>
  <circle class="cls-2" cx="18.5" cy="29" r="2"/>
</svg>