<?xml version="1.0" encoding="UTF-8"?>
<svg id="Layer_1" data-name="Layer 1" xmlns="http://www.w3.org/2000/svg" viewBox="0 0 42.68 30.68">
  <defs>
    <style>
      .cls-1 {
        fill: #0067b1;
      }

      .cls-2 {
        fill: #f47d30;
      }

      .cls-3 {
        fill: #ef3e42;
      }

      .cls-4 {
        fill: #c9d9ef;
      }

      .cls-5 {
        fill: #d36629;
      }

      .cls-6 {
        fill: #150958;
      }

      .cls-7 {
        fill: #24418a;
      }

      .cls-8 {
        fill: #ef854b;
        isolation: isolate;
        opacity: .5;
      }
    </style>
  </defs>
  <rect class="cls-4" x="1.42" y="2.46" width="34" height="23" rx="2" ry="2" transform="translate(-2.14 3.41) rotate(-10)"/>
  <path class="cls-6" d="m33.69,2.64L.2,8.54l.87,4.92,33.48-5.9-.87-4.92Z"/>
  <path class="cls-7" d="m9.96,14.94l-4.92.87c-.82.14-1.36.92-1.22,1.74.14.82.92,1.36,1.74,1.22l4.92-.87c.82-.14,1.36-.92,1.22-1.74-.14-.82-.92-1.36-1.74-1.22Z"/>
  <path class="cls-1" d="m8.68,10.68c0-1.66,1.34-3,3-3h28c1.66,0,3,1.34,3,3v17c0,1.66-1.34,3-3,3H11.68c-1.66,0-3-1.34-3-3V10.68Z"/>
  <rect class="cls-2" x="11.68" y="12.68" width="6" height="5" rx="1" ry="1"/>
  <path class="cls-5" d="m12.68,12.68h4c.55,0,1,.45,1,1h0c0,.55-.45,1-1,1h-4c-.55,0-1-.45-1-1h0c0-.55.45-1,1-1Z"/>
  <path class="cls-5" d="m12.68,15.68h4c.55,0,1,.45,1,1h0c0,.55-.45,1-1,1h-4c-.55,0-1-.45-1-1h0c0-.55.45-1,1-1Z"/>
  <path class="cls-8" d="m14.68,12.68h0c.55,0,1,.45,1,1v3c0,.55-.45,1-1,1h0c-.55,0-1-.45-1-1v-3c0-.55.45-1,1-1Z"/>
  <path class="cls-2" d="m36.41,16.68c1.66,0,3-1.34,3-3s-1.34-3-3-3-3,1.34-3,3,1.34,3,3,3Z"/>
  <path class="cls-3" d="m32.41,16.68c1.66,0,3-1.34,3-3s-1.34-3-3-3-3,1.34-3,3,1.34,3,3,3Z"/>
  <path class="cls-7" d="m13.18,19.68h3c.83,0,1.5.67,1.5,1.5h0c0,.83-.67,1.5-1.5,1.5h-3c-.83,0-1.5-.67-1.5-1.5h0c0-.83.67-1.5,1.5-1.5Z"/>
  <path class="cls-7" d="m13.18,23.68h7c.83,0,1.5.67,1.5,1.5h0c0,.83-.67,1.5-1.5,1.5h-7c-.83,0-1.5-.67-1.5-1.5h0c0-.83.67-1.5,1.5-1.5Z"/>
  <path class="cls-7" d="m20.18,19.68h3c.83,0,1.5.67,1.5,1.5h0c0,.83-.67,1.5-1.5,1.5h-3c-.83,0-1.5-.67-1.5-1.5h0c0-.83.67-1.5,1.5-1.5Z"/>
  <path class="cls-7" d="m27.18,19.68h3c.83,0,1.5.67,1.5,1.5h0c0,.83-.67,1.5-1.5,1.5h-3c-.83,0-1.5-.67-1.5-1.5h0c0-.83.67-1.5,1.5-1.5Z"/>
  <path class="cls-7" d="m34.18,19.68h3c.83,0,1.5.67,1.5,1.5h0c0,.83-.67,1.5-1.5,1.5h-3c-.83,0-1.5-.67-1.5-1.5h0c0-.83.67-1.5,1.5-1.5Z"/>
</svg>