<?xml version="1.0" encoding="UTF-8"?>
<svg id="Layer_1" data-name="Layer 1" xmlns="http://www.w3.org/2000/svg" viewBox="0 0 42.97 43.21">
  <defs>
    <style>
      .cls-1 {
        stroke: #24418a;
        stroke-miterlimit: 4;
        stroke-width: 1.39px;
      }

      .cls-1, .cls-2 {
        fill: #c9d9ef;
      }

      .cls-3 {
        fill: #0039b0;
      }

      .cls-4 {
        fill: #0067b1;
      }

      .cls-5 {
        fill: #fff;
      }

      .cls-6 {
        fill: #b3bdd1;
      }

      .cls-7 {
        fill: #cad1da;
      }

      .cls-8, .cls-9 {
        fill: #150958;
      }

      .cls-10 {
        fill: #24418a;
      }

      .cls-11 {
        fill: #100d2d;
      }

      .cls-9 {
        stroke: #150958;
        stroke-miterlimit: 4;
        stroke-width: 1.23px;
      }
    </style>
  </defs>
  <path class="cls-8" d="m17,11.24h19v23c0,1.1-.9,2-2,2h-17V11.24Z"/>
  <path class="cls-4" d="m2,11.24h17v23c0,1.1-.9,2-2,2H4c-1.1,0-2-.9-2-2V11.24Z"/>
  <path class="cls-4" d="m0,10.24c0-1.1.9-2,2-2h8v6H1c-.55,0-1-.45-1-1v-3Z"/>
  <rect class="cls-3" x="2" y="14.24" width="17" height="3"/>
  <path class="cls-8" d="m3,35.24c0-.55.45-1,1-1h6v2h-6c-.55,0-1-.45-1-1Z"/>
  <rect class="cls-11" x="19" y="14.24" width="17" height="3"/>
  <path class="cls-2" d="m8,17.24h5v17h2v2h-6c-.55,0-1-.45-1-1v-18Z"/>
  <path class="cls-2" d="m30,17.24h-5v17h-2v2h6c.55,0,1-.45,1-1v-18Z"/>
  <rect class="cls-7" x="8" y="14.24" width="5" height="3"/>
  <path class="cls-2" d="m7,9.24c0-.55.45-1,1-1h5v6h-5c-.55,0-1-.45-1-1v-4Z"/>
  <path class="cls-8" d="m13,34.24h4c1.1,0,2-.9,2-2h2v4h-7c-.55,0-1-.45-1-1v-1Z"/>
  <path class="cls-3" d="m25,34.24h-6v2h5c.55,0,1-.45,1-1v-1Z"/>
  <rect class="cls-6" x="25" y="14.24" width="5" height="3"/>
  <path class="cls-2" d="m16,3.24c0-.55.45-1,1-1h4c.55,0,1,.45,1,1v5h-6V3.24Z"/>
  <path class="cls-2" d="m5.17,2.41C5.57.38,7.87-.64,9.65.43l6.35,3.81v4H7.66c-1.89,0-3.31-1.73-2.94-3.59l.45-2.24Z"/>
  <path class="cls-2" d="m32.83,2.41c-.41-2.03-2.71-3.05-4.49-1.98l-6.35,3.81v4h8.34c1.89,0,3.31-1.73,2.94-3.59l-.45-2.24Z"/>
  <path class="cls-5" d="m22,5.24l5.66-1.62c.75-.21,1.53.2,1.78.94.29.87-.29,1.79-1.2,1.9l-6.24.78v-2Z"/>
  <path class="cls-5" d="m16,5.24l-5.66-1.62c-.75-.21-1.53.2-1.78.94-.29.87.29,1.79,1.2,1.9l6.24.78v-2Z"/>
  <path class="cls-4" d="m12,9.24c0-.55.45-1,1-1h8v6h-8c-.55,0-1-.45-1-1v-4Z"/>
  <path class="cls-8" d="m24,8.24h12c1.1,0,2,.9,2,2v3c0,.55-.45,1-1,1h-13v-6Z"/>
  <path class="cls-2" d="m25,8.24h5c.55,0,1,.45,1,1v4c0,.55-.45,1-1,1h-5v-6Z"/>
  <path class="cls-8" d="m19,10.24c0-1.1.9-2,2-2h4c.55,0,1,.45,1,1v4c0,.55-.45,1-1,1h-6v-4Z"/>
  <rect class="cls-9" x="21.97" y="25.63" width="19.67" height="11.07" rx=".61" ry=".61" transform="translate(-12.7 32.48) rotate(-46.11)"/>
  <rect class="cls-1" x="18.48" y="23.74" width="22.26" height="12.52" rx=".7" ry=".7" transform="translate(-10.52 42.88) rotate(-63.17)"/>
  <circle class="cls-10" cx="29.61" cy="30" r="4.17"/>
  <circle class="cls-10" cx="32.75" cy="23.79" r="1.39"/>
  <circle class="cls-10" cx="26.47" cy="36.21" r="1.39"/>
  <path class="cls-10" d="m21.8,37.74l-.31.62-2.48-1.26,1.26-2.48.62.31c1.03.52,1.44,1.78.92,2.8Z"/>
  <path class="cls-10" d="m31.22,19.12l.31-.62-2.48-1.26-1.26,2.48.62.31c1.03.52,2.28.11,2.8-.92Z"/>
  <path class="cls-10" d="m28,40.88l-.31.62,2.48,1.26,1.26-2.48-.62-.31c-1.03-.52-2.28-.11-2.8.92Z"/>
  <path class="cls-10" d="m37.42,22.26l.31-.62,2.48,1.26-1.26,2.48-.62-.31c-1.03-.52-1.44-1.78-.92-2.8Z"/>
</svg>