<?xml version="1.0" encoding="UTF-8"?>
<svg id="Layer_1" data-name="Layer 1" xmlns="http://www.w3.org/2000/svg" xmlns:xlink="http://www.w3.org/1999/xlink" viewBox="0 0 45 40">
  <defs>
    <style>
      .cls-1 {
        fill: #0053ff;
      }

      .cls-2 {
        fill: #0067b1;
      }

      .cls-3 {
        fill: #002573;
      }

      .cls-4 {
        fill: #000716;
      }

      .cls-5 {
        fill: #f47d30;
      }

      .cls-6 {
        fill: #c9d9ef;
      }

      .cls-7 {
        fill: #150958;
      }

      .cls-8 {
        fill: #24418a;
      }

      .cls-9 {
        fill: #5c73a2;
      }

      .cls-10 {
        mask: url(#mask-1);
      }

      .cls-10, .cls-11 {
        fill: none;
      }

      .cls-11 {
        mask: url(#mask);
      }
    </style>
    <mask id="mask" x="0" y="11" width="45" height="27" maskUnits="userSpaceOnUse">
      <g id="mask0">
        <path class="cls-3" d="m36,20c0,7.73-8.06,14-18,14S0,27.73,0,20c0-4.09,0-6,0-6h36s0-1.73,0,6Z"/>
      </g>
    </mask>
    <mask id="mask-1" x="0" y="0" width="37" height="29" maskUnits="userSpaceOnUse">
      <g id="mask1">
        <ellipse class="cls-1" cx="18" cy="14" rx="18" ry="14"/>
      </g>
    </mask>
  </defs>
  <g class="cls-11">
    <g>
      <path class="cls-3" d="m36,20c0,7.73-8.06,14-18,14S0,27.73,0,20c0-4.09,0-9,0-9h36s0,1.27,0,9Z"/>
      <rect class="cls-9" x="9" y="26" width="18" height="12"/>
      <rect class="cls-4" x="27" y="13" width="18" height="24"/>
    </g>
  </g>
  <g class="cls-10">
    <g>
      <ellipse class="cls-7" cx="18" cy="14" rx="18" ry="14"/>
      <rect class="cls-8" x="18" y="11" width="19" height="17"/>
      <path class="cls-2" d="m0,0h36v11l-18,3L0,11V0Z"/>
      <path class="cls-6" d="m8,27.5l10-13.5,10,13.5-10,1.5-10-1.5Z"/>
    </g>
  </g>
  <path class="cls-5" d="m19.55,40c1.41,0,2.55-1.14,2.55-2.55s-1.14-2.55-2.55-2.55-2.55,1.14-2.55,2.55,1.14,2.55,2.55,2.55Z"/>
  <path class="cls-5" d="m25.91,33.64c1.41,0,2.55-1.14,2.55-2.55s-1.14-2.55-2.55-2.55-2.55,1.14-2.55,2.55,1.14,2.55,2.55,2.55Z"/>
  <path class="cls-5" d="m32.27,38.73c1.41,0,2.55-1.14,2.55-2.55s-1.14-2.55-2.55-2.55-2.55,1.14-2.55,2.55,1.14,2.55,2.55,2.55Z"/>
  <path class="cls-5" d="m38.64,31.09c1.41,0,2.55-1.14,2.55-2.55s-1.14-2.55-2.55-2.55-2.55,1.14-2.55,2.55,1.14,2.55,2.55,2.55Z"/>
  <path class="cls-5" d="m19.55,38.73c-.33,0-.65-.12-.9-.37-.5-.5-.5-1.3,0-1.8l6.36-6.36c.46-.46,1.19-.5,1.7-.09l5.39,4.31,5.57-6.68c.45-.54,1.25-.61,1.79-.16.54.45.61,1.25.16,1.79l-6.36,7.64c-.44.53-1.23.61-1.77.18l-5.47-4.38-5.56,5.56c-.25.25-.57.37-.9.37Z"/>
</svg>