<?xml version="1.0" encoding="UTF-8"?>
<svg id="Layer_1" data-name="Layer 1" xmlns="http://www.w3.org/2000/svg" xmlns:xlink="http://www.w3.org/1999/xlink" viewBox="0 0 51.4 50">
  <defs>
    <style>
      .cls-1, .cls-2, .cls-3, .cls-4, .cls-5, .cls-6, .cls-7 {
        fill: none;
      }

      .cls-8 {
        fill: #0067b1;
      }

      .cls-9 {
        fill: #99afc9;
      }

      .cls-10, .cls-11, .cls-12 {
        fill: #c9d9ef;
      }

      .cls-13 {
        fill: #c4c4c4;
      }

      .cls-14 {
        fill: #dcdcdc;
      }

      .cls-15 {
        fill: #24418a;
      }

      .cls-2 {
        mask: url(#mask-2);
      }

      .cls-3 {
        mask: url(#mask-1);
      }

      .cls-4 {
        mask: url(#mask);
      }

      .cls-5 {
        stroke-miterlimit: 4;
        stroke-width: 3px;
      }

      .cls-5, .cls-6 {
        stroke: #0067b1;
      }

      .cls-6 {
        stroke-miterlimit: 4;
        stroke-width: 3px;
      }

      .cls-11 {
        stroke-miterlimit: 4;
        stroke-width: 1.67px;
      }

      .cls-11, .cls-12 {
        stroke: #24418a;
      }

      .cls-12 {
        stroke-miterlimit: 4;
        stroke-width: 1.67px;
      }

      .cls-7 {
        clip-path: url(#clippath);
      }
    </style>
    <clipPath id="clippath">
      <rect class="cls-1" x="1.4" width="50" height="50"/>
    </clipPath>
    <mask id="mask" x="-.2" y="3.7" width="31.46" height="42.44" maskUnits="userSpaceOnUse">
      <g id="mask0_8300_203" data-name="mask0 8300 203">
        <path class="cls-13" d="m-.2,17.19C7.03,12.83,21.56,4.02,21.8,3.7l7.29,18.6-21.11,12.29L-.2,17.19Z"/>
      </g>
    </mask>
    <mask id="mask-1" x="0" y="17.45" width="35.66" height="20.45" maskUnits="userSpaceOnUse">
      <g id="mask1_8300_203" data-name="mask1 8300 203">
        <path class="cls-14" d="m11.28,37.53c-1.19.72-2.74.36-3.5-.81-.76-1.17-.45-2.73.69-3.53l22.57-15.74,3.81,5.87-23.57,14.2Z"/>
      </g>
    </mask>
    <mask id="mask-2" x="7.22" y="18.3" width="25.63" height="35.94" maskUnits="userSpaceOnUse">
      <g id="mask2_8300_203" data-name="mask2 8300 203">
        <path class="cls-13" d="m7.22,35c8.4-.94,25.28-2.85,25.63-3.04l-1.16,19.95-24.31,2.33-.16-19.23Z"/>
      </g>
    </mask>
  </defs>
  <g class="cls-7">
    <g>
      <path class="cls-10" d="m11.28,37.53c-1.19.72-2.74.36-3.5-.81-.76-1.17-.45-2.73.69-3.53l22.57-15.74,3.81,5.87-23.57,14.2Z"/>
      <g class="cls-4">
        <g>
          <rect class="cls-12" x="10.06" y="16.96" width="15.01" height="26.68" rx=".83" ry=".83" transform="translate(-12.8 12.84) rotate(-30)"/>
          <circle class="cls-15" cx="17.56" cy="30.31" r="5"/>
          <circle class="cls-15" cx="13.4" cy="23.08" r="1.67"/>
          <path class="cls-15" d="m7.7,21.56l-.42-.72-2.89,1.67,1.67,2.89.72-.42c1.2-.69,1.61-2.22.92-3.42Z"/>
          <path class="cls-15" d="m14.92,17.39l-.42-.72,2.89-1.67,1.67,2.89-.72.42c-1.2.69-2.73.28-3.42-.92Z"/>
        </g>
      </g>
      <g class="cls-3">
        <path class="cls-9" d="m27.68,19.63L0,37.6l35.66-13.01-.52-2.64-7.46-2.31Z"/>
      </g>
      <circle class="cls-15" cx="27.49" cy="23.93" r="1.5"/>
      <circle class="cls-5" cx="42.08" cy="21.61" r="4"/>
      <path class="cls-8" d="m33.21,20.81l6.29-4.08-1.77,8.3c-.48-.74-1.4-1.08-2.25-.82l-2.05.63-.23-4.02Z"/>
      <circle class="cls-6" cx="35.55" cy="11.54" r="4"/>
      <path class="cls-8" d="m32.67,19.97l6.29-4.08-8.3-1.77c.48.74.41,1.72-.17,2.39l-1.41,1.61,3.58,1.85Z"/>
      <g class="cls-2">
        <g>
          <rect class="cls-11" x="11.05" y="19.32" width="15.01" height="26.68" rx=".83" ry=".83" transform="translate(-.92 .54) rotate(-1.63)"/>
          <circle class="cls-15" cx="18.56" cy="32.66" r="5"/>
          <circle class="cls-15" cx="18.8" cy="40.99" r="1.67"/>
          <path class="cls-15" d="m14.75,45.28l.02.83-3.33.09-.1-3.33.83-.02c1.38-.04,2.53,1.05,2.57,2.43Z"/>
          <path class="cls-15" d="m23.08,45.04l.02.83,3.33-.1-.1-3.33-.83.02c-1.38.04-2.47,1.19-2.43,2.57Z"/>
        </g>
      </g>
    </g>
  </g>
</svg>