<?xml version="1.0" encoding="UTF-8"?>
<svg id="Layer_1" data-name="Layer 1" xmlns="http://www.w3.org/2000/svg" xmlns:xlink="http://www.w3.org/1999/xlink" viewBox="0 0 56 57">
  <defs>
    <style>
      .cls-1 {
        fill: #0053ff;
      }

      .cls-2 {
        fill: #0067b1;
      }

      .cls-3 {
        fill: #f47d30;
      }

      .cls-4 {
        fill-rule: evenodd;
        isolation: isolate;
        opacity: .25;
      }

      .cls-5 {
        fill: none;
        mask: url(#mask);
      }
    </style>
    <mask id="mask" x="0" y="0" width="56" height="57" maskUnits="userSpaceOnUse">
      <g id="mask0_8300_200" data-name="mask0 8300 200">
        <circle class="cls-1" cx="28" cy="29" r="19"/>
      </g>
    </mask>
  </defs>
  <g class="cls-5">
    <g>
      <circle class="cls-2" cx="28" cy="29" r="19"/>
      <path class="cls-3" d="m12.28,23.24l.85-8.1c.09-.88-.37-1.73-1.16-2.12-.7-.35-1.53-.29-2.17.16l-4.38,3.09c-3.11,2.2-4.88,5.84-4.67,9.65.41,7.64.9,16.8.9,17.18,0,.28,5.58,2.72,10.26,4.71,2.99,1.27,6.29-.93,6.29-4.18,0-1.49-.73-2.88-1.94-3.73l-4.18-2.93c-3.3-2.31-3.92-6.95-1.34-10.04.87-1.05,1.41-2.33,1.56-3.68Z"/>
      <path class="cls-3" d="m29.12,7.65l.61.12c1.27.25,2.58.12,3.78-.37,3.12-1.3,6.72,0,8.28,3.01l4.94,9.52c.59,1.14,1.06,2.34,1.39,3.58.61,2.3,1.34,5.11,1.34,5.49,0,.4-1.37,1.92-2.42,3.02-.42.44-.92.78-1.48,1.03l-2.46,1.09c-1.21.54-2.63-.04-3.13-1.27l-.54-1.36c-.44-1.1-1.92-1.3-2.63-.35-.14.19-.33.34-.54.45l-.27.14c-1.1.55-1.72,1.76-1.52,2.98l.21,1.26c.04.25.06.5.06.75v3.55c0,.64-.13,1.28-.39,1.88-.86,2-2.95,3.16-5.1,2.83l-.91-.14c-2.04-.31-3.66-1.89-4.03-3.92l-.11-.59c-.3-1.65-1.61-2.94-3.26-3.21l-.67-.11c-2.06-.34-3.32-2.44-2.66-4.42.36-1.09,1.25-1.92,2.36-2.21l11.45-2.99c.57-.15,1.08-.44,1.5-.86l.63-.63c1.22-1.22.94-3.26-.55-4.11-.82-.47-1.83-.46-2.64.03l-1.11.66c-.42.25-.74.64-.91,1.1l-.54,1.44c-.42,1.11-1.94,1.25-2.55.23-.21-.34-.55-.58-.94-.66l-1.44-.29c-.63-.13-1.28.07-1.73.52-.65.65-1.66.75-2.42.24l-.66-.44c-.99-.66-1.37-1.93-.9-3.02l.32-.74c.39-.9,1.45-1.29,2.33-.85.52.26,1.14.24,1.64-.06l1.39-.83c.57-.34,1.22-.56,1.88-.64l1.63-.18c.75-.08.89-1.11.19-1.39l-2.62-1.05c-.51-.21-.9-.65-1.03-1.18-.22-.89.3-1.8,1.18-2.07l1.87-.56c1.59-.48,2.68-1.94,2.68-3.61v-.36c0-.27.25-.47.51-.42Z"/>
      <path class="cls-4" d="m56,36.74c-5.49,3.94-12.23,6.26-19.5,6.26C18,43,3,28,3,9.5c0-3.3.48-6.49,1.37-9.5H0v57h56v-20.26Z"/>
    </g>
  </g>
</svg>