<?xml version="1.0" encoding="UTF-8"?>
<svg id="Layer_1" data-name="Layer 1" xmlns="http://www.w3.org/2000/svg" viewBox="0 0 39.1 45.4">
  <defs>
    <style>
      .cls-1 {
        stroke: #0067b1;
        stroke-width: 4px;
      }

      .cls-1, .cls-2, .cls-3 {
        fill-rule: evenodd;
      }

      .cls-1, .cls-4 {
        fill: #fff;
      }

      .cls-5 {
        fill: #f47d30;
      }

      .cls-6 {
        fill: #ff1741;
      }

      .cls-7 {
        fill: #c9d9ef;
      }

      .cls-2 {
        fill: #150958;
      }

      .cls-3 {
        fill: #dcdcdc;
      }

      .cls-4 {
        stroke: #c9d9ef;
        stroke-width: 2px;
      }
    </style>
  </defs>
  <path class="cls-1" d="m5,7c-1.66,0-3,1.34-3,3v28c0,1.66,1.34,3,3,3h23c1.66,0,3-1.34,3-3V10c0-1.66-1.34-3-3-3H5Z"/>
  <path class="cls-3" d="m14,3.5h5c.55,0,1,.45,1,1v4.33c0,.55-.45,1-1,1-.15,0-.31-.04-.44-.1-.98-.49-1.67-.73-2.06-.73s-1.07.24-2.06.73c-.49.25-1.09.04-1.34-.45-.07-.14-.1-.29-.1-.44v-4.33c0-.55.45-1,1-1Z"/>
  <path class="cls-7" d="m25,4H8c-1.1,0-2,.9-2,2v3c0,1.1.9,2,2,2h17c1.1,0,2-.9,2-2v-3c0-1.1-.9-2-2-2Z"/>
  <path class="cls-4" d="m16.5,7c1.66,0,3-1.34,3-3s-1.34-3-3-3-3,1.34-3,3,1.34,3,3,3Z"/>
  <path class="cls-7" d="m24.5,16H8.5c-.83,0-1.5.67-1.5,1.5s.67,1.5,1.5,1.5h16c.83,0,1.5-.67,1.5-1.5s-.67-1.5-1.5-1.5Z"/>
  <path class="cls-7" d="m24.5,21H8.5c-.83,0-1.5.67-1.5,1.5s.67,1.5,1.5,1.5h16c.83,0,1.5-.67,1.5-1.5s-.67-1.5-1.5-1.5Z"/>
  <path class="cls-7" d="m13.5,26h-5c-.83,0-1.5.67-1.5,1.5s.67,1.5,1.5,1.5h5c.83,0,1.5-.67,1.5-1.5s-.67-1.5-1.5-1.5Z"/>
  <rect class="cls-5" x="20.48" y="28.59" width="21.57" height="4.11" transform="translate(-10.91 42.36) rotate(-59.95)"/>
  <path class="cls-7" d="m23.58,45.2c-.21.22-.54.26-.8.11-.26-.15-.39-.46-.3-.75l1.61-5.61,3.56,2.06-4.06,4.19Z"/>
  <path class="cls-6" d="m37.42,24.11l-3.56-2.06,1.54-2.67c.28-.49.91-.66,1.4-.37l1.78,1.03c.49.28.66.91.37,1.4l-1.54,2.67Z"/>
  <rect class="cls-7" x="34.87" y="21.48" width="1.03" height="4.11" transform="translate(-2.7 42.37) rotate(-59.95)"/>
  <path class="cls-2" d="m22.92,43.02l1.78,1.03-1.12,1.15c-.21.22-.54.26-.8.11-.26-.15-.39-.46-.3-.75l.44-1.54Z"/>
</svg>