<?xml version="1.0" encoding="UTF-8"?>
<svg id="Layer_1" data-name="Layer 1" xmlns="http://www.w3.org/2000/svg" xmlns:xlink="http://www.w3.org/1999/xlink" viewBox="0 0 50 50">
  <defs>
    <style>
      .cls-1, .cls-2, .cls-3 {
        fill: none;
      }

      .cls-4 {
        fill: #f47d30;
      }

      .cls-5 {
        fill: #fff;
      }

      .cls-6 {
        fill: #c9d9ef;
      }

      .cls-7 {
        fill: #c4c4c4;
      }

      .cls-8 {
        fill: #150958;
      }

      .cls-9 {
        fill: #24418a;
      }

      .cls-2 {
        mask: url(#mask);
      }

      .cls-10 {
        fill: #0067b1;
        fill-rule: evenodd;
      }

      .cls-3 {
        clip-path: url(#clippath);
      }
    </style>
    <clipPath id="clippath">
      <rect class="cls-1" width="50" height="50"/>
    </clipPath>
    <mask id="mask" x="8" y="23" width="34" height="22" maskUnits="userSpaceOnUse">
      <g id="mask0_14136_704" data-name="mask0 14136 704">
        <path class="cls-7" d="m8,23h34v18c0,2.21-1.79,4-4,4H12c-2.21,0-4-1.79-4-4v-18Z"/>
      </g>
    </mask>
  </defs>
  <g class="cls-3">
    <g>
      <path class="cls-8" d="m25,37l-17-14,17-12,17,12-17,14Z"/>
      <path class="cls-6" d="m11,8c0-.55.45-1,1-1h26c.55,0,1,.45,1,1v28H11V8Z"/>
      <path class="cls-10" d="m42,41v-18l-17,13-17-13v18c0,2.21,1.79,4,4,4h26c2.21,0,4-1.79,4-4Z"/>
      <g class="cls-2">
        <path class="cls-9" d="m23.79,32.93l-15.79,12.07h34l-15.79-12.07c-.72-.55-1.71-.55-2.43,0Z"/>
      </g>
      <path class="cls-9" d="m15.5,11h16c.83,0,1.5.67,1.5,1.5h0c0,.83-.67,1.5-1.5,1.5H15.5c-.83,0-1.5-.67-1.5-1.5h0c0-.83.67-1.5,1.5-1.5Z"/>
      <path class="cls-9" d="m15.5,17h5c.83,0,1.5.67,1.5,1.5h0c0,.83-.67,1.5-1.5,1.5h-5c-.83,0-1.5-.67-1.5-1.5h0c0-.83.67-1.5,1.5-1.5Z"/>
      <path class="cls-4" d="m38.13,31.51c.38-.67,1.35-.67,1.73,0l9.77,16.99c.38.67-.1,1.5-.87,1.5h-19.54c-.77,0-1.25-.83-.87-1.5l9.77-16.99Z"/>
      <path class="cls-5" d="m38.13,42.26l-.59-3.53c-.15-.9.55-1.73,1.46-1.73s1.61.82,1.46,1.73l-.59,3.53c-.07.43-.44.74-.87.74s-.8-.31-.87-.74Z"/>
      <circle class="cls-5" cx="39" cy="45.5" r="1.5"/>
    </g>
  </g>
</svg>