<?xml version="1.0" encoding="UTF-8"?>
<svg id="Layer_1" data-name="Layer 1" xmlns="http://www.w3.org/2000/svg" xmlns:xlink="http://www.w3.org/1999/xlink" viewBox="0 0 50 50">
  <defs>
    <style>
      .cls-1, .cls-2, .cls-3 {
        fill: none;
      }

      .cls-4 {
        fill: #f47d30;
      }

      .cls-5 {
        fill: #c9d9ef;
      }

      .cls-6 {
        fill: #c4c4c4;
      }

      .cls-7 {
        fill: #150958;
      }

      .cls-8 {
        fill: #24418a;
      }

      .cls-2 {
        mask: url(#mask);
      }

      .cls-9 {
        fill: #0067b1;
        fill-rule: evenodd;
      }

      .cls-3 {
        clip-path: url(#clippath);
      }
    </style>
    <clipPath id="clippath">
      <rect class="cls-1" width="50" height="50"/>
    </clipPath>
    <mask id="mask" x="8" y="23" width="34" height="22" maskUnits="userSpaceOnUse">
      <g id="mask0_13772_738" data-name="mask0 13772 738">
        <path class="cls-6" d="m8,23h34v18c0,2.21-1.79,4-4,4H12c-2.21,0-4-1.79-4-4v-18Z"/>
      </g>
    </mask>
  </defs>
  <g class="cls-3">
    <g>
      <path class="cls-7" d="m25,37l-17-14,17-12,17,12-17,14Z"/>
      <path class="cls-5" d="m11,8c0-.55.45-1,1-1h26c.55,0,1,.45,1,1v28H11V8Z"/>
      <path class="cls-9" d="m42,41v-18l-17,13-17-13v18c0,2.21,1.79,4,4,4h26c2.21,0,4-1.79,4-4Z"/>
      <g class="cls-2">
        <path class="cls-8" d="m23.79,32.93l-15.79,12.07h34l-15.79-12.07c-.72-.55-1.71-.55-2.43,0Z"/>
      </g>
      <path class="cls-8" d="m15.5,11h16c.83,0,1.5.67,1.5,1.5h0c0,.83-.67,1.5-1.5,1.5H15.5c-.83,0-1.5-.67-1.5-1.5h0c0-.83.67-1.5,1.5-1.5Z"/>
      <path class="cls-8" d="m15.5,17h5c.83,0,1.5.67,1.5,1.5h0c0,.83-.67,1.5-1.5,1.5h-5c-.83,0-1.5-.67-1.5-1.5h0c0-.83.67-1.5,1.5-1.5Z"/>
      <path class="cls-4" d="m37.77,47.51l3.12-7.01-4.36-.85c-.92-.18-1.32-1.27-.74-2.01l8.34-10.42c.23-.29.59-.46.97-.46.9,0,1.5.92,1.13,1.74l-3.12,7.01,4.36.85c.92.18,1.32,1.27.74,2.01l-8.34,10.42c-.23.29-.59.46-.97.46-.9,0-1.5-.92-1.13-1.74Z"/>
    </g>
  </g>
</svg>