<?xml version="1.0" encoding="UTF-8"?>
<svg id="Layer_1" data-name="Layer 1" xmlns="http://www.w3.org/2000/svg" viewBox="0 0 44 34">
  <defs>
    <style>
      .cls-1 {
        fill: #c9d9ef;
        fill-rule: evenodd;
      }

      .cls-2 {
        fill: none;
        stroke: #c9d9ef;
        stroke-width: 3px;
      }
    </style>
  </defs>
  <rect class="cls-2" x="1.5" y="1.5" width="41" height="31" rx="2.5" ry="2.5"/>
  <path class="cls-1" d="m12.99,11.41c.33-.09.7,0,.96.25,2.99,2.9,6.11,4.99,7.63,5.92.26.16.59.16.85,0,1.51-.94,4.64-3.02,7.63-5.92.26-.26.63-.34.96-.25-.42-.9-1.31-1.53-2.36-1.61-1.82-.14-4.4-.3-6.66-.3s-4.84.16-6.66.3c-1.05.08-1.93.71-2.36,1.61Zm18.35,1.79c-1.83,1.77-3.7,3.23-5.25,4.34l4.55,3.85c.42.36.47.99.12,1.41-.36.42-.99.47-1.41.12l-4.97-4.21c-.34.22-.64.41-.9.57-.91.56-2.05.56-2.96,0-.26-.16-.56-.35-.9-.57l-4.97,4.21c-.42.36-1.05.3-1.41-.12-.36-.42-.3-1.05.12-1.41l4.55-3.85c-1.54-1.1-3.41-2.57-5.25-4.34-.09,1.14-.16,2.47-.16,3.8,0,1.71.12,3.42.24,4.72.13,1.35,1.19,2.39,2.54,2.5,1.64.13,4.04.28,6.72.28s5.08-.14,6.72-.28c1.35-.11,2.41-1.15,2.54-2.5.12-1.3.24-3.01.24-4.72,0-1.33-.07-2.66-.16-3.8Z"/>
</svg>