<?xml version="1.0" encoding="UTF-8"?>
<svg id="Layer_1" data-name="Layer 1" xmlns="http://www.w3.org/2000/svg" viewBox="0 0 32.59 42.58">
  <defs>
    <style>
      .cls-1 {
        fill: #0067b1;
      }

      .cls-2 {
        fill: #150958;
      }

      .cls-3 {
        fill: #24418a;
      }

      .cls-4 {
        fill: none;
        stroke: #150958;
        stroke-linecap: round;
        stroke-width: 3.15px;
      }
    </style>
  </defs>
  <path class="cls-3" d="m14.72,8.94c3.15,3.15,14.72-3.15,17.87,0,0,0-2.1.53-5.26,6.83,3.15,1.58,5.26,6.83,5.26,6.83-3.15-3.15-14.72,3.15-17.87,0v-13.67Z"/>
  <path class="cls-2" d="m14.72,16.82h4.21v3.15c0,1.58-4.21.53-4.21,2.63v-5.78Z"/>
  <path class="cls-1" d="m3.15,6.31c4.17,3.76,12.62-3.15,15.77,0v13.67c-3.15-3.15-11.13,3.76-15.77,0V6.31Z"/>
  <path class="cls-4" d="m5.78,41L2.63,2.63"/>
  <circle class="cls-1" cx="2.63" cy="2.63" r="2.63"/>
</svg>