<?xml version="1.0" encoding="UTF-8"?>
<svg id="Layer_1" data-name="Layer 1" xmlns="http://www.w3.org/2000/svg" viewBox="0 0 34.29 36">
  <defs>
    <style>
      .cls-1 {
        stroke: #0067b1;
        stroke-linecap: round;
      }

      .cls-1, .cls-2 {
        fill: none;
        stroke-width: 3px;
      }

      .cls-3 {
        fill: #150958;
        fill-rule: evenodd;
      }

      .cls-2 {
        stroke: #c9d9ef;
      }
    </style>
  </defs>
  <path class="cls-3" d="m.3,11.18c-.57.98-.31,2.23.59,2.92l2.61,1.98v3.85l-2.61,1.98c-.9.68-1.16,1.94-.59,2.92l2.51,4.35c.57.98,1.78,1.39,2.82.95l3.02-1.27,3.33,1.92.41,3.25c.14,1.13,1.1,1.97,2.23,1.97h5.03c1.13,0,2.09-.84,2.23-1.97l.41-3.25,3.33-1.92,3.02,1.27c1.05.44,2.26.03,2.82-.95l2.51-4.35c.57-.98.31-2.23-.59-2.92l-2.61-1.98v-3.85l2.62-1.98c.9-.68,1.16-1.94.59-2.92l-2.51-4.35c-.57-.98-1.78-1.39-2.82-.95l-3.02,1.27-3.33-1.92-.41-3.25c-.14-1.13-1.1-1.97-2.23-1.97h-5.03c-1.13,0-2.09.84-2.23,1.97l-.41,3.25-3.33,1.92-3.02-1.27c-1.05-.44-2.26-.03-2.82.95L.3,11.18Zm16.85,15.46c4.77,0,8.64-3.87,8.64-8.64s-3.87-8.64-8.64-8.64-8.64,3.87-8.64,8.64,3.87,8.64,8.64,8.64Z"/>
  <circle class="cls-2" cx="17.15" cy="18" r="7.56"/>
  <path class="cls-1" d="m22.49,23.35c-2.95,2.95-7.74,2.95-10.69,0-2.95-2.95-2.95-7.74,0-10.69"/>
</svg>