<?xml version="1.0" encoding="UTF-8"?>
<svg id="Layer_1" data-name="Layer 1" xmlns="http://www.w3.org/2000/svg" xmlns:xlink="http://www.w3.org/1999/xlink" viewBox="0 0 38.58 56.37">
  <defs>
    <style>
      .cls-1 {
        fill: #000716;
      }

      .cls-2 {
        fill: #fecda9;
      }

      .cls-3 {
        fill: #a07a57;
      }

      .cls-4 {
        fill: #1d2129;
      }

      .cls-5 {
        fill: none;
        mask: url(#mask);
      }

      .cls-6 {
        fill: #24418a;
      }

      .cls-6, .cls-7, .cls-8, .cls-9 {
        fill-rule: evenodd;
      }

      .cls-7 {
        fill: #c9d9ef;
      }

      .cls-8 {
        fill: #c4c4c4;
      }

      .cls-9 {
        fill: #0067b1;
      }
    </style>
    <mask id="mask" x="4.91" y="23.21" width="25.37" height="33.16" maskUnits="userSpaceOnUse">
      <g id="mask0_6334_338" data-name="mask0 6334 338">
        <path class="cls-8" d="m29.33,41.22c-3.31.59-6.99.78-10.54.78-4.69,0-9.6-.33-13.6-1.48-.24-2.8-.29-5.69-.28-8.43.02-3.95,2.68-7.45,6.56-8.18,2.09-.39,4.35-.7,6.22-.7s4.13.31,6.22.7c3.88.72,6.55,4.23,6.37,8.18-.13,2.97-.4,6.12-.94,9.13Z"/>
      </g>
    </mask>
  </defs>
  <path class="cls-1" d="m8.29,9.95h18.79c.55,14.37-8.29,18.24-8.29,18.24-7.74.55-17.13-1.66-17.13-1.66,11.05-3.32,6.63-2.21,6.63-2.21l-2.76-3.32c6.08-1.66,2.76-11.05,2.76-11.05Z"/>
  <g class="cls-5">
    <g>
      <path class="cls-9" d="m4.91,32.09c.02-3.95,2.68-7.45,6.56-8.18,2.09-.39,4.35-.7,6.22-.7s4.13.31,6.22.7c3.88.72,6.55,4.23,6.37,8.18-.02.35-.03.71-.05,1.07h-7.01v16.58h3.44c-2.04,3.95-5.2,6.63-10.07,6.63-5.74,0-8.68-3.72-10.18-8.84h4.65v-7.74l-5.98-.8c-.14-2.31-.17-4.66-.16-6.9Z"/>
      <path class="cls-2" d="m14.37,23.21h6.63c0,1.3-.88,2.45-2.17,2.65-.42.07-.83.11-1.15.11s-.73-.05-1.15-.11c-1.28-.2-2.17-1.35-2.17-2.65Z"/>
    </g>
  </g>
  <circle class="cls-1" cx="17.68" cy="9.39" r="9.39"/>
  <path class="cls-2" d="m9.39,10.5c0-4.58,3.71-8.29,8.29-8.29s8.29,3.71,8.29,8.29v3.32c0,4.58-3.71,8.29-8.29,8.29s-8.29-3.71-8.29-8.29v-3.32Z"/>
  <path class="cls-2" d="m16.03,15.47h3.32v7.74c0,.92-.74,1.66-1.66,1.66s-1.66-.74-1.66-1.66v-7.74Z"/>
  <path class="cls-1" d="m25.97,7.74c-6.63,0-8.84,10.5-19.89,8.84,3.32-4.97.55-9.39,4.97-13.82l1.11-.55,5.53-1.11,6.63,2.21,1.66,4.42Z"/>
  <path class="cls-6" d="m11.71,41.69c-4.14-.41-7.99-1.27-10.77-2.95.64-1.65,2.33-2.81,4.2-2.81h2.21c2.44,0,4.57,1.98,4.48,4.42-.02.48-.06.93-.12,1.35Z"/>
  <path class="cls-1" d="m0,28.05c0-2.52,1.89-4.65,4.38-4.98,3.48-.46,6.38,2.68,5.59,6.1-.42,1.84-1.86,3.29-3.69,3.75-3.17.79-6.28-1.6-6.28-4.86Z"/>
  <path class="cls-1" d="m1.55,27.52c0-2.99,2.42-5.42,5.42-5.42h.96c2.46,0,4.46,2,4.46,4.46v2.76c0,1.99-1.62,3.61-3.61,3.61h-1.81c-2.99,0-5.42-2.42-5.42-5.42Z"/>
  <path class="cls-2" d="m4.74,32.94h3.09v3.09c0,.85-.69,1.55-1.55,1.55s-1.55-.69-1.55-1.55v-3.09Z"/>
  <path class="cls-2" d="m1.64,29.84c0-2.56,2.08-4.64,4.64-4.64s4.64,2.08,4.64,4.64v1.55c0,2.56-2.08,4.64-4.64,4.64s-4.64-2.08-4.64-4.64v-1.55Z"/>
  <path class="cls-1" d="m2.32,26.75c.77,3.87,8.73,2.54,9.84,1.44l-3.65-4.53h-3.09l-3.09,3.09Z"/>
  <path class="cls-7" d="m23.1,41.89c-.64-1.45-1.07-3.21-1.31-5.25-.32-2.75,1.47-5.27,4.18-5.82,1.23-.25,2.58-.43,3.87-.43s2.64.18,3.87.43c2.71.54,4.5,3.07,4.18,5.82-.06.47-.12.93-.2,1.37-3.34,2.59-8.88,3.59-14.6,3.89Z"/>
  <path class="cls-4" d="m30.29,13.26h0c4.58,0,8.29,3.71,8.29,8.29h0c0,4.58-3.71,8.29-8.29,8.29h0c-4.58,0-8.29-3.71-8.29-8.29h0c0-4.58,3.71-8.29,8.29-8.29Z"/>
  <path class="cls-3" d="m28.63,27.92h3.32v2.48c0,.92-.74,1.66-1.66,1.66s-1.66-.74-1.66-1.66v-2.48Z"/>
  <path class="cls-3" d="m25.32,23.76c0-2.75,2.23-4.97,4.97-4.97s4.97,2.23,4.97,4.97v1.11c0,2.75-2.23,4.97-4.97,4.97s-4.97-2.23-4.97-4.97v-1.11Z"/>
  <path class="cls-4" d="m36.82,19.96c0,.54-4.32,2.69-12.58,1.63l4.19-7.34h3.36l5.03,5.71Z"/>
</svg>