<?xml version="1.0" encoding="UTF-8"?>
<svg id="Layer_1" data-name="Layer 1" xmlns="http://www.w3.org/2000/svg" viewBox="0 0 33 44">
  <defs>
    <style>
      .cls-1 {
        stroke-width: 4px;
      }

      .cls-1, .cls-2 {
        stroke: #ef3e42;
      }

      .cls-1, .cls-3, .cls-4 {
        fill-rule: evenodd;
      }

      .cls-1, .cls-5 {
        fill: #fff;
      }

      .cls-6, .cls-4 {
        fill: #ef3e42;
      }

      .cls-7 {
        fill: #c9d9ef;
      }

      .cls-2 {
        fill: none;
        stroke-linecap: round;
        stroke-linejoin: round;
      }

      .cls-2, .cls-5 {
        stroke-width: 2px;
      }

      .cls-3 {
        fill: #dcdcdc;
      }

      .cls-5 {
        stroke: #c9d9ef;
      }
    </style>
  </defs>
  <path class="cls-1" d="m5,8c-1.66,0-3,1.34-3,3v28c0,1.66,1.34,3,3,3h23c1.66,0,3-1.34,3-3V11c0-1.66-1.34-3-3-3H5Z"/>
  <path class="cls-6" d="m9.5,38c1.1,0,2-.9,2-2s-.9-2-2-2-2,.9-2,2,.9,2,2,2Z"/>
  <path class="cls-6" d="m14.5,33c1.1,0,2-.9,2-2s-.9-2-2-2-2,.9-2,2,.9,2,2,2Z"/>
  <path class="cls-6" d="m19.5,37c1.1,0,2-.9,2-2s-.9-2-2-2-2,.9-2,2,.9,2,2,2Z"/>
  <path class="cls-6" d="m24.5,31c1.1,0,2-.9,2-2s-.9-2-2-2-2,.9-2,2,.9,2,2,2Z"/>
  <path class="cls-2" d="m9.5,36l5-5,5,4,5-6"/>
  <path class="cls-3" d="m14,4.5h5c.55,0,1,.45,1,1v4.33c0,.55-.45,1-1,1-.15,0-.31-.04-.44-.1-.98-.49-1.67-.73-2.06-.73s-1.07.24-2.06.73c-.49.25-1.09.04-1.34-.45-.07-.14-.1-.29-.1-.44v-4.33c0-.55.45-1,1-1Z"/>
  <path class="cls-7" d="m25,4H8c-1.1,0-2,.9-2,2v3c0,1.1.9,2,2,2h17c1.1,0,2-.9,2-2v-3c0-1.1-.9-2-2-2Z"/>
  <path class="cls-5" d="m16.5,7c1.66,0,3-1.34,3-3s-1.34-3-3-3-3,1.34-3,3,1.34,3,3,3Z"/>
  <path class="cls-7" d="m13.5,17h-5c-.83,0-1.5.67-1.5,1.5s.67,1.5,1.5,1.5h5c.83,0,1.5-.67,1.5-1.5s-.67-1.5-1.5-1.5Z"/>
  <path class="cls-7" d="m16.5,22h-8c-.83,0-1.5.67-1.5,1.5s.67,1.5,1.5,1.5h8c.83,0,1.5-.67,1.5-1.5s-.67-1.5-1.5-1.5Z"/>
  <path class="cls-6" d="m22.38,18.75c.76,0,1.38-.62,1.38-1.38s-.62-1.38-1.38-1.38-1.38.62-1.38,1.38.62,1.38,1.38,1.38Z"/>
  <path class="cls-6" d="m24.62,18.75c.76,0,1.38-.62,1.38-1.38s-.62-1.38-1.38-1.38-1.38.62-1.38,1.38.62,1.38,1.38,1.38Z"/>
  <path class="cls-4" d="m21,17.5h5c0,.83-.83,1.92-2.5,3.25-1.67-1.33-2.5-2.42-2.5-3.25Z"/>
</svg>