<?xml version="1.0" encoding="UTF-8"?>
<svg id="Layer_1" data-name="Layer 1" xmlns="http://www.w3.org/2000/svg" viewBox="0 0 38.7 38.5">
  <defs>
    <style>
      .cls-1 {
        fill: #0067b1;
      }

      .cls-2 {
        fill: #c9d9ef;
      }

      .cls-3 {
        fill: #24418a;
      }

      .cls-4 {
        fill: none;
        stroke: #0067b1;
        stroke-linecap: round;
        stroke-linejoin: round;
        stroke-width: 4px;
      }
    </style>
  </defs>
  <path class="cls-1" d="m25.5,8.5c0-.55.45-1,1-1h3c.55,0,1,.45,1,1v7.52c0,.71-.71,1.19-1.37.93l-3-1.2c-.38-.15-.63-.52-.63-.93v-6.32Z"/>
  <path class="cls-2" d="m3.5,19.5l15-10,15,10v17c0,1.1-.9,2-2,2H5.5c-1.1,0-2-.9-2-2v-17Z"/>
  <path class="cls-4" d="m34,21l-14.23-12.39c-.74-.64-1.83-.66-2.58-.04L2,21"/>
  <path class="cls-3" d="m21.5,25.5c0-1.1.9-2,2-2h5c1.1,0,2,.9,2,2v13h-9v-13Z"/>
  <rect class="cls-3" x="6.5" y="23.5" width="12" height="11" rx="2" ry="2"/>
  <path class="cls-2" d="m29.5,7.5h-3c-.94-1.88.37-4.11,2.47-4.2l4.78-.22c1.1-.05,2.11-.62,2.72-1.54l.8-1.19c.14-.22.39-.35.65-.35.53,0,.91.52.74,1.03l-.7,2.11c-.28.84-1,1.45-1.87,1.6l-2.5.42c-1.36.23-2.61.87-3.58,1.84l-.51.51Z"/>
</svg>