<?xml version="1.0" encoding="UTF-8"?>
<svg id="Layer_1" data-name="Layer 1" xmlns="http://www.w3.org/2000/svg" xmlns:xlink="http://www.w3.org/1999/xlink" viewBox="0 0 50 50">
  <defs>
    <style>
      .cls-1, .cls-2, .cls-3 {
        fill: none;
      }

      .cls-2 {
        stroke: #fff;
        stroke-linecap: round;
        stroke-width: 2.18px;
      }

      .cls-4 {
        fill: #f47d30;
      }

      .cls-5 {
        fill: #207245;
      }

      .cls-6 {
        fill: #868686;
      }

      .cls-7 {
        fill: #dcdcdc;
        stroke: #dcdcdc;
        stroke-width: 3.26px;
      }

      .cls-8 {
        fill: #150958;
        fill-rule: evenodd;
      }

      .cls-3 {
        clip-path: url(#clippath);
      }
    </style>
    <clipPath id="clippath">
      <rect class="cls-1" width="50" height="50"/>
    </clipPath>
  </defs>
  <g class="cls-3">
    <g>
      <rect class="cls-7" x="20.43" y="11.9" width="21.76" height="27.21" rx="2.72" ry="2.72"/>
      <rect class="cls-6" x="28.59" y="15.71" width="10.88" height="3.26" rx="1.63" ry="1.63"/>
      <rect class="cls-6" x="28.59" y="21.15" width="10.88" height="3.26" rx="1.63" ry="1.63"/>
      <rect class="cls-6" x="28.59" y="26.59" width="10.88" height="3.26" rx="1.63" ry="1.63"/>
      <rect class="cls-6" x="28.59" y="32.03" width="10.88" height="3.26" rx="1.63" ry="1.63"/>
      <path class="cls-5" d="m9,13.05c0-1,.68-1.87,1.65-2.11l15.37-3.84c.26-.06.52-.1.79-.1h1.77c1.2,0,2.18.97,2.18,2.18v32.65c0,1.2-.97,2.18-2.18,2.18h-1.77c-.27,0-.53-.03-.79-.1l-15.37-3.84c-.97-.24-1.65-1.11-1.65-2.11V13.05Z"/>
      <path class="cls-2" d="m23.15,30.94l-7.62-9.79"/>
      <path class="cls-2" d="m15.53,29.85l7.62-9.79"/>
      <path class="cls-4" d="m37.5,28h0c5.25,0,9.5,4.25,9.5,9.5h0c0,5.25-4.25,9.5-9.5,9.5h0c-5.25,0-9.5-4.25-9.5-9.5h0c0-5.25,4.25-9.5,9.5-9.5Z"/>
      <path class="cls-8" d="m36.5,33.5c0-.55.45-1,1-1s1,.45,1,1v6.09l1.29-1.29c.39-.39,1.02-.39,1.41,0s.39,1.02,0,1.41l-3,3c-.39.39-1.02.39-1.41,0l-3-3c-.39-.39-.39-1.02,0-1.41s1.02-.39,1.41,0l1.29,1.29v-6.09Z"/>
    </g>
  </g>
</svg>