<?xml version="1.0" encoding="UTF-8"?>
<svg id="Layer_1" data-name="Layer 1" xmlns="http://www.w3.org/2000/svg" xmlns:xlink="http://www.w3.org/1999/xlink" viewBox="0 0 47.48 43.49">
  <defs>
    <style>
      .cls-1 {
        fill: #0067b1;
      }

      .cls-2, .cls-3 {
        fill: #f47d30;
      }

      .cls-4 {
        fill: #fff;
      }

      .cls-5 {
        fill: #ffc900;
      }

      .cls-6 {
        fill: #ef3e42;
      }

      .cls-7 {
        fill: #c9d9ef;
      }

      .cls-8 {
        fill: #150958;
      }

      .cls-9 {
        fill: #24418a;
      }

      .cls-10 {
        fill: none;
        mask: url(#mask);
      }

      .cls-3 {
        fill-rule: evenodd;
      }
    </style>
    <mask id="mask" x="25.93" y="25.02" width="14.09" height="18.47" maskUnits="userSpaceOnUse">
      <g id="mask0_13407_652" data-name="mask0 13407 652">
        <path class="cls-5" d="m35.56,25.02l4.45,2.89-3.26,5.02c-.07.11-.19.18-.32.18l-2.4.03c-.28,0-.46.29-.35.54l.8,1.86c.11.26-.08.54-.35.54l-2.02.02c-.28,0-.46.29-.35.54l.95,2.2c.05.12.04.26-.03.37l-1.33,2.05-3.93.27c-.29.02-.57-.13-.72-.38l-.51-.88c-.15-.25-.14-.57.02-.82l9.37-14.43Z"/>
      </g>
    </mask>
  </defs>
  <path class="cls-8" d="m2.59,3.09c0-1.71,1.38-3.09,3.09-3.09h28.99c1.71,0,3.09,1.38,3.09,3.09v20.3c0,1.14-.92,2.06-2.06,2.06H4.65c-1.14,0-2.06-.92-2.06-2.06V3.09Z"/>
  <path class="cls-4" d="m5.76,5.25c0-.57.46-1.03,1.03-1.03h26.77c.57,0,1.03.46,1.03,1.03v16c0,.57-.46,1.03-1.03,1.03H6.79c-.57,0-1.03-.46-1.03-1.03V5.25Z"/>
  <path class="cls-7" d="m2.59,23.33h35.17l2.53,10.11c.32,1.3-.66,2.56-2,2.56H2.06c-1.34,0-2.32-1.26-2-2.56l2.53-10.11Z"/>
  <path class="cls-9" d="m4.54,26.27c.1-.48.52-.83,1.01-.83h29.26c.49,0,.91.35,1.01.83l.64,3.22c.13.64-.36,1.23-1.01,1.23H4.9c-.65,0-1.14-.59-1.01-1.23l.64-3.22Z"/>
  <path class="cls-9" d="m18.42,34.92c0-.57.46-1.03,1.03-1.03h4.44c.57,0,1.03.46,1.03,1.03v1.08h-6.5v-1.08Z"/>
  <path class="cls-7" d="m5.76,4.2c0-.57.46-1.03,1.03-1.03h26.77c.57,0,1.03.46,1.03,1.03v3.19h-8.78v-2.14c0-.57-.46-1.03-1.03-1.03h-7.44c-.57,0-1.03.46-1.03,1.03v2.14H5.76v-3.19Z"/>
  <path class="cls-7" d="m10.42,15h6c.55,0,1,.45,1,1h0c0,.55-.45,1-1,1h-6c-.55,0-1-.45-1-1h0c0-.55.45-1,1-1Z"/>
  <path class="cls-1" d="m10.42,18h6c.55,0,1,.45,1,1h0c0,.55-.45,1-1,1h-6c-.55,0-1-.45-1-1h0c0-.55.45-1,1-1Z"/>
  <circle class="cls-6" cx="8.92" cy="5.28" r="1.06"/>
  <circle class="cls-2" cx="11.03" cy="5.28" r="1.06"/>
  <circle class="cls-9" cx="13.15" cy="5.28" r="1.06"/>
  <path class="cls-7" d="m14.2,11c0-.55.45-1,1-1h16.28c.55,0,1,.45,1,1h0c0,.55-.45,1-1,1H15.2c-.55,0-1-.45-1-1h0Z"/>
  <path class="cls-7" d="m8.87,10h3.28c.55,0,1,.45,1,1h0c0,.55-.45,1-1,1h-3.28c-.55,0-1-.45-1-1h0c0-.55.45-1,1-1Z"/>
  <path class="cls-3" d="m38.66,15.78c-.77-.11-1.5.29-1.93.95l-3.63,5.59c-.31.48-.34,1.1-.06,1.6l2.94,5.34,6.07.51c.57.05,1.12-.22,1.44-.7l3.63-5.59c.43-.66.5-1.48.08-2.14-.64-1.03-1.82-2.58-3.63-3.76-1.81-1.18-3.71-1.62-4.91-1.79Zm1.38,3c-.64-.31-1.41-.1-1.8.5-.42.65-.24,1.53.41,1.95l3.57,2.32c.65.42,1.53.24,1.95-.41.39-.6.27-1.39-.27-1.85l-1.17-.99c-.4-.34-.84-.62-1.31-.85l-1.38-.67Z"/>
  <g class="cls-10">
    <path class="cls-2" d="m35.56,25.02l4.45,2.89-10.12,15.58-2.97-1.93-1-1.71,9.64-14.84Z"/>
  </g>
</svg>