<?xml version="1.0" encoding="UTF-8"?>
<svg id="Layer_1" data-name="Layer 1" xmlns="http://www.w3.org/2000/svg" viewBox="0 0 46.35 38">
  <defs>
    <style>
      .cls-1 {
        fill: #0067b1;
      }

      .cls-2 {
        fill: #f47d30;
      }

      .cls-3 {
        fill: #fff;
      }

      .cls-4 {
        fill: #ef3e42;
      }

      .cls-5 {
        fill: #c9d9ef;
      }

      .cls-6 {
        fill: #150958;
      }

      .cls-7 {
        fill: #24418a;
      }
    </style>
  </defs>
  <path class="cls-6" d="m2.59,3.09c0-1.71,1.38-3.09,3.09-3.09h34.99c1.71,0,3.09,1.38,3.09,3.09v22.3c0,1.14-.92,2.06-2.06,2.06H4.65c-1.14,0-2.06-.92-2.06-2.06,0,0,0-22.3,0-22.3Z"/>
  <path class="cls-3" d="m5.76,5.25c0-.57.46-1.03,1.03-1.03h32.77c.57,0,1.03.46,1.03,1.03v18c0,.57-.46,1.03-1.03,1.03H6.79c-.57,0-1.03-.46-1.03-1.03V5.25Z"/>
  <path class="cls-5" d="m2.59,25.33h41.17l2.53,10.11c.32,1.3-.66,2.56-2,2.56H2.06c-1.34,0-2.32-1.26-2-2.56,0,0,2.53-10.11,2.53-10.11Z"/>
  <path class="cls-7" d="m4.54,28.27c.1-.48.52-.83,1.01-.83h35.26c.49,0,.91.35,1.01.83l.64,3.22c.13.64-.36,1.23-1.01,1.23H4.9c-.65,0-1.14-.59-1.01-1.23l.64-3.22h0Z"/>
  <path class="cls-7" d="m18.42,36.92c0-.57.46-1.03,1.03-1.03h7.44c.57,0,1.03.46,1.03,1.03v1.08h-9.5s0-1.08,0-1.08Z"/>
  <path class="cls-5" d="m5.76,4.2c0-.57.46-1.03,1.03-1.03h32.77c.57,0,1.03.46,1.03,1.03v3.19h-14.78v-2.14c0-.57-.46-1.03-1.03-1.03h-7.44c-.57,0-1.03.46-1.03,1.03v2.14H5.76v-3.19Z"/>
  <rect class="cls-5" x="18.42" y="5.28" width="5.28" height="2.11" rx="1.03" ry="1.03"/>
  <path class="cls-5" d="m11.03,13.72h6.33c.58,0,1.06.47,1.06,1.06h0c0,.58-.47,1.06-1.06,1.06h-6.33c-.58,0-1.06-.47-1.06-1.06h0c0-.58.47-1.06,1.06-1.06Z"/>
  <path class="cls-5" d="m23.7,13.72h3.17c.58,0,1.06.47,1.06,1.06h0c0,.58-.47,1.06-1.06,1.06h-3.17c-.58,0-1.06-.47-1.06-1.06h0c0-.58.47-1.06,1.06-1.06Z"/>
  <path class="cls-5" d="m23.7,16.89h8.44c.58,0,1.06.47,1.06,1.06h0c0,.58-.47,1.06-1.06,1.06h-8.44c-.58,0-1.06-.47-1.06-1.06h0c0-.58.47-1.06,1.06-1.06Z"/>
  <path class="cls-5" d="m11.03,16.89h6.33c.58,0,1.06.47,1.06,1.06h0c0,.58-.47,1.06-1.06,1.06h-6.33c-.58,0-1.06-.47-1.06-1.06h0c0-.58.47-1.06,1.06-1.06Z"/>
  <path class="cls-1" d="m11.03,20.06h6.33c.58,0,1.06.47,1.06,1.06h0c0,.58-.47,1.06-1.06,1.06h-6.33c-.58,0-1.06-.47-1.06-1.06h0c0-.58.47-1.06,1.06-1.06Z"/>
  <circle class="cls-4" cx="8.92" cy="5.28" r="1.06"/>
  <circle class="cls-2" cx="11.03" cy="5.28" r="1.06"/>
  <circle class="cls-7" cx="13.15" cy="5.28" r="1.06"/>
  <path class="cls-7" d="m26.87,5.25c0-.57.46-1.03,1.03-1.03h5.33c.57,0,1.03.46,1.03,1.03v2.14h-7.39s0-2.14,0-2.14Z"/>
  <path class="cls-5" d="m15.26,8.44h22.17c.58,0,1.06.47,1.06,1.06h0c0,.58-.47,1.06-1.06,1.06H15.26c-.58,0-1.06-.47-1.06-1.06h0c0-.58.47-1.06,1.06-1.06Z"/>
  <path class="cls-5" d="m8.92,8.44h3.17c.58,0,1.06.47,1.06,1.06h0c0,.58-.47,1.06-1.06,1.06h-3.17c-.58,0-1.06-.47-1.06-1.06h0c0-.58.47-1.06,1.06-1.06Z"/>
</svg>