<?xml version="1.0" encoding="UTF-8"?>
<svg id="Layer_1" data-name="Layer 1" xmlns="http://www.w3.org/2000/svg" xmlns:xlink="http://www.w3.org/1999/xlink" viewBox="0 0 50 50">
  <defs>
    <style>
      .cls-1, .cls-2, .cls-3 {
        fill: none;
      }

      .cls-4 {
        fill: #0067b1;
      }

      .cls-5 {
        fill: #f47d30;
      }

      .cls-6 {
        fill: #fff;
      }

      .cls-7 {
        fill: #ef3e42;
      }

      .cls-8 {
        fill: #c9d9ef;
      }

      .cls-9 {
        fill: #150958;
      }

      .cls-10 {
        fill: #24418a;
      }

      .cls-2 {
        stroke: #fff;
        stroke-linecap: round;
        stroke-width: 2px;
      }

      .cls-3 {
        clip-path: url(#clippath);
      }
    </style>
    <clipPath id="clippath">
      <rect class="cls-1" width="50" height="50"/>
    </clipPath>
  </defs>
  <g class="cls-3">
    <g>
      <path class="cls-9" d="m4.17,9.09c0-1.71,1.38-3.09,3.09-3.09h34.99c1.71,0,3.09,1.38,3.09,3.09v22.3c0,1.14-.92,2.06-2.06,2.06H6.22c-1.14,0-2.06-.92-2.06-2.06V9.09Z"/>
      <path class="cls-6" d="m7.33,11.25c0-.57.46-1.03,1.03-1.03h32.77c.57,0,1.03.46,1.03,1.03v18c0,.57-.46,1.03-1.03,1.03H8.36c-.57,0-1.03-.46-1.03-1.03V11.25Z"/>
      <path class="cls-8" d="m4.17,31.33h41.17l2.53,10.11c.32,1.3-.66,2.56-2,2.56H3.64c-1.34,0-2.32-1.26-2-2.56l2.53-10.11Z"/>
      <path class="cls-10" d="m6.11,34.27c.1-.48.52-.83,1.01-.83h35.26c.49,0,.91.35,1.01.83l.64,3.22c.13.64-.36,1.23-1.01,1.23H6.48c-.65,0-1.14-.59-1.01-1.23l.64-3.22Z"/>
      <path class="cls-10" d="m20,42.92c0-.57.46-1.03,1.03-1.03h7.44c.57,0,1.03.46,1.03,1.03v1.08h-9.5v-1.08Z"/>
      <path class="cls-8" d="m7.33,10.2c0-.57.46-1.03,1.03-1.03h32.77c.57,0,1.03.46,1.03,1.03v3.19h-14.78v-2.14c0-.57-.46-1.03-1.03-1.03h-7.44c-.57,0-1.03.46-1.03,1.03v2.14H7.33v-3.19Z"/>
      <rect class="cls-8" x="20" y="11.28" width="5.28" height="2.11" rx="1.03" ry="1.03"/>
      <path class="cls-8" d="m12.61,19.72h6.33c.58,0,1.06.47,1.06,1.06h0c0,.58-.47,1.06-1.06,1.06h-6.33c-.58,0-1.06-.47-1.06-1.06h0c0-.58.47-1.06,1.06-1.06Z"/>
      <path class="cls-8" d="m25.28,19.72h3.17c.58,0,1.06.47,1.06,1.06h0c0,.58-.47,1.06-1.06,1.06h-3.17c-.58,0-1.06-.47-1.06-1.06h0c0-.58.47-1.06,1.06-1.06Z"/>
      <path class="cls-8" d="m25.28,22.89h8.44c.58,0,1.06.47,1.06,1.06h0c0,.58-.47,1.06-1.06,1.06h-8.44c-.58,0-1.06-.47-1.06-1.06h0c0-.58.47-1.06,1.06-1.06Z"/>
      <path class="cls-8" d="m12.61,22.89h6.33c.58,0,1.06.47,1.06,1.06h0c0,.58-.47,1.06-1.06,1.06h-6.33c-.58,0-1.06-.47-1.06-1.06h0c0-.58.47-1.06,1.06-1.06Z"/>
      <path class="cls-4" d="m12.61,26.06h6.33c.58,0,1.06.47,1.06,1.06h0c0,.58-.47,1.06-1.06,1.06h-6.33c-.58,0-1.06-.47-1.06-1.06h0c0-.58.47-1.06,1.06-1.06Z"/>
      <circle class="cls-7" cx="10.5" cy="11.28" r="1.06"/>
      <circle class="cls-5" cx="12.61" cy="11.28" r="1.06"/>
      <circle class="cls-10" cx="14.72" cy="11.28" r="1.06"/>
      <path class="cls-10" d="m28.44,11.25c0-.57.46-1.03,1.03-1.03h5.33c.57,0,1.03.46,1.03,1.03v2.14h-7.39v-2.14Z"/>
      <path class="cls-8" d="m16.83,14.44h22.17c.58,0,1.06.47,1.06,1.06h0c0,.58-.47,1.06-1.06,1.06h-22.17c-.58,0-1.06-.47-1.06-1.06h0c0-.58.47-1.06,1.06-1.06Z"/>
      <path class="cls-8" d="m10.5,14.44h3.17c.58,0,1.06.47,1.06,1.06h0c0,.58-.47,1.06-1.06,1.06h-3.17c-.58,0-1.06-.47-1.06-1.06h0c0-.58.47-1.06,1.06-1.06Z"/>
      <path class="cls-4" d="m48,37c0-5.52-4.48-10-10-10s-10,4.48-10,10,4.48,10,10,10,10-4.48,10-10Z"/>
      <path class="cls-2" d="m34,37h8"/>
      <path class="cls-2" d="m38,33v8"/>
    </g>
  </g>
</svg>