<?xml version="1.0" encoding="UTF-8"?>
<svg id="Layer_1" data-name="Layer 1" xmlns="http://www.w3.org/2000/svg" viewBox="0 0 33 43">
  <defs>
    <style>
      .cls-1 {
        fill: #fff;
        stroke: #0067b1;
        stroke-width: 4px;
      }

      .cls-1, .cls-2 {
        fill-rule: evenodd;
      }

      .cls-3, .cls-2 {
        fill: #c9d9ef;
      }

      .cls-4 {
        fill: none;
        stroke: #c9d9ef;
        stroke-width: 2px;
      }
    </style>
  </defs>
  <path class="cls-1" d="m5,7c-1.66,0-3,1.34-3,3v28c0,1.66,1.34,3,3,3h23c1.66,0,3-1.34,3-3V10c0-1.66-1.34-3-3-3h-5.75l-5.75,1.5-5.75-1.5h-5.75Z"/>
  <path class="cls-4" d="m16.5,7c1.66,0,3-1.34,3-3s-1.34-3-3-3-3,1.34-3,3,1.34,3,3,3Z"/>
  <path class="cls-2" d="m19.5,4c0,1.66-1.34,3-3,3s-3-1.34-3-3h-5.5c-1.1,0-2,.9-2,2v3c0,1.1.9,2,2,2h17c1.1,0,2-.9,2-2v-3c0-1.1-.9-2-2-2h-5.5Z"/>
  <path class="cls-3" d="m24.5,16H8.5c-.83,0-1.5.67-1.5,1.5s.67,1.5,1.5,1.5h16c.83,0,1.5-.67,1.5-1.5s-.67-1.5-1.5-1.5Z"/>
  <path class="cls-3" d="m24.5,21H8.5c-.83,0-1.5.67-1.5,1.5s.67,1.5,1.5,1.5h16c.83,0,1.5-.67,1.5-1.5s-.67-1.5-1.5-1.5Z"/>
  <path class="cls-3" d="m13.5,26h-5c-.83,0-1.5.67-1.5,1.5s.67,1.5,1.5,1.5h5c.83,0,1.5-.67,1.5-1.5s-.67-1.5-1.5-1.5Z"/>
</svg>