<?xml version="1.0" encoding="UTF-8"?>
<svg id="Layer_1" data-name="Layer 1" xmlns="http://www.w3.org/2000/svg" viewBox="0 0 30 36.78">
  <defs>
    <style>
      .cls-1 {
        fill: #002573;
      }

      .cls-2 {
        fill: #150958;
      }

      .cls-3 {
        fill: none;
        stroke: #150958;
        stroke-width: 4px;
      }

      .cls-4 {
        fill: #0067b1;
        fill-rule: evenodd;
      }
    </style>
  </defs>
  <path class="cls-3" d="m25,23.18v-12.35c0-4.87-4.48-8.82-10-8.82S5,5.95,5,10.82v12.35"/>
  <path class="cls-4" d="m26.25,14.78c2.07,0,3.75,1.64,3.75,3.67v14.67c0,2.03-1.68,3.67-3.75,3.67H3.75c-2.07,0-3.75-1.64-3.75-3.67v-14.67c0-2.03,1.68-3.67,3.75-3.67h22.5Z"/>
  <path class="cls-1" d="m11.25,24.86c0-2.03,1.68-3.67,3.75-3.67s3.75,1.64,3.75,3.67c0,1.36-.75,2.54-1.87,3.17v1.41c0,1.01-.84,1.83-1.88,1.83s-1.88-.82-1.88-1.83v-1.41c-1.12-.63-1.88-1.82-1.88-3.18Z"/>
  <circle class="cls-2" cx="15" cy="25" r="4"/>
  <path class="cls-2" d="m15,26h0c1.1,0,2,.9,2,2v2c0,1.1-.9,2-2,2h0c-1.1,0-2-.9-2-2v-2c0-1.1.9-2,2-2Z"/>
</svg>