<?xml version="1.0" encoding="UTF-8"?>
<svg id="Layer_1" data-name="Layer 1" xmlns="http://www.w3.org/2000/svg" xmlns:xlink="http://www.w3.org/1999/xlink" viewBox="0 0 70.71 70.71">
  <defs>
    <style>
      .cls-1, .cls-2, .cls-3, .cls-4 {
        fill: none;
      }

      .cls-2 {
        clip-path: url(#clippath-1);
      }

      .cls-5 {
        fill: #0067b1;
      }

      .cls-6 {
        fill: #150958;
      }

      .cls-7 {
        fill: #c9d9ef;
        stroke: #0067b1;
        stroke-width: 3px;
      }

      .cls-3 {
        isolation: isolate;
        opacity: .5;
        stroke: #fff;
        stroke-linecap: round;
        stroke-width: 2px;
      }

      .cls-4 {
        clip-path: url(#clippath);
      }
    </style>
    <clipPath id="clippath">
      <rect class="cls-1" x="10.36" y="10.36" width="50" height="50"/>
    </clipPath>
    <clipPath id="clippath-1">
      <rect class="cls-1" x="10.36" y="10.36" width="50" height="50" transform="translate(-14.64 35.36) rotate(-45)"/>
    </clipPath>
  </defs>
  <g class="cls-4">
    <g class="cls-2">
      <g>
        <rect class="cls-5" x="36.68" y="36.18" width="3" height="4" transform="translate(-15.82 38.18) rotate(-45)"/>
        <path class="cls-6" d="m38.27,42.06c-.65-.8-.59-1.95.13-2.68l.98-.98c.73-.73,1.89-.78,2.68-.13l7.17,5.87c1.66,1.36,1.78,3.85.27,5.36h0c-1.51,1.51-4.01,1.39-5.36-.27l-5.87-7.17Z"/>
        <path class="cls-7" d="m36.77,36.77c4.3-4.3,4.3-11.26,0-15.56-4.3-4.3-11.26-4.3-15.56,0-4.3,4.3-4.3,11.26,0,15.56,4.3,4.3,11.26,4.3,15.56,0Z"/>
        <path class="cls-3" d="m28.99,22.99c-.79,0-1.57.16-2.3.46-.73.3-1.39.74-1.95,1.3-.56.56-1,1.22-1.3,1.95-.3.73-.46,1.51-.46,2.3"/>
        <path class="cls-3" d="m33.6,25.15c-.21-.25-.44-.48-.68-.7"/>
      </g>
    </g>
  </g>
</svg>