<?xml version="1.0" encoding="UTF-8"?>
<svg id="Layer_1" data-name="Layer 1" xmlns="http://www.w3.org/2000/svg" xmlns:xlink="http://www.w3.org/1999/xlink" viewBox="0 0 43 36.65">
  <defs>
    <style>
      .cls-1 {
        fill: #0067b1;
      }

      .cls-2 {
        fill: #000716;
      }

      .cls-3 {
        fill: #fecda9;
      }

      .cls-4 {
        fill: #c9d9ef;
      }

      .cls-5 {
        fill: #150958;
      }

      .cls-6 {
        fill: #24418a;
      }

      .cls-7 {
        stroke: #fff;
        stroke-linecap: round;
        stroke-linejoin: round;
        stroke-width: 2px;
      }

      .cls-7, .cls-8 {
        fill: none;
      }

      .cls-8 {
        mask: url(#mask);
      }

      .cls-9 {
        fill: #002573;
        fill-rule: evenodd;
      }
    </style>
    <mask id="mask" x="3.55" y="18.1" width="12.9" height="18.55" maskUnits="userSpaceOnUse">
      <g id="mask0_13457_616" data-name="mask0 13457 616">
        <path class="cls-9" d="m16.4,23.38c-1.93.48-4.22.62-6.42.62s-4.5-.14-6.43-.62c0-.26,0-.51,0-.76,0-2.01,1.36-3.79,3.33-4.16,1.06-.2,2.21-.36,3.16-.36s2.1.16,3.16.36c1.97.37,3.33,2.15,3.24,4.16-.01.25-.02.51-.04.77Z"/>
      </g>
    </mask>
  </defs>
  <path class="cls-4" d="m0,3C0,1.34,1.34,0,3,0h36c1.66,0,3,1.34,3,3v22c0,1.66-1.34,3-3,3H3c-1.66,0-3-1.34-3-3V3Z"/>
  <path class="cls-6" d="m0,3C0,1.34,1.34,0,3,0h36c1.66,0,3,1.34,3,3v2H0v-2Z"/>
  <path class="cls-5" d="m22.5,10h10c.83,0,1.5.67,1.5,1.5h0c0,.83-.67,1.5-1.5,1.5h-10c-.83,0-1.5-.67-1.5-1.5h0c0-.83.67-1.5,1.5-1.5Z"/>
  <path class="cls-5" d="m22.5,15h6c.83,0,1.5.67,1.5,1.5h0c0,.83-.67,1.5-1.5,1.5h-6c-.83,0-1.5-.67-1.5-1.5h0c0-.83.67-1.5,1.5-1.5Z"/>
  <path class="cls-5" d="m22.5,20h6c.83,0,1.5.67,1.5,1.5h0c0,.83-.67,1.5-1.5,1.5h-6c-.83,0-1.5-.67-1.5-1.5h0c0-.83.67-1.5,1.5-1.5Z"/>
  <path class="cls-2" d="m5.27,13.06h9.55c.28,7.3-4.21,9.27-4.21,9.27-3.93.28-4.78-.56-4.78-.56,5.62-1.69-.28-.84-.28-.84l-1.69-2.25c3.09-.84,1.4-5.62,1.4-5.62Z"/>
  <g class="cls-8">
    <g>
      <path class="cls-1" d="m3.55,24.31c0-2.01,1.36-3.79,3.33-4.16,1.06-.2,2.21-.36,3.16-.36s2.1.16,3.16.36c1.97.37,3.33,2.15,3.24,4.16-.25,5.54-1.43,12.34-6.96,12.34s-5.96-6.8-5.93-12.34Z"/>
      <path class="cls-3" d="m8.36,19.8h3.37c0,.66-.45,1.25-1.1,1.35-.21.03-.42.06-.58.06s-.37-.02-.58-.06c-.65-.1-1.1-.69-1.1-1.35h0Z"/>
    </g>
  </g>
  <circle class="cls-2" cx="10.05" cy="12.78" r="4.78"/>
  <path class="cls-3" d="m5.83,13.34c0-2.33,1.89-4.21,4.21-4.21h0c2.33,0,4.21,1.89,4.21,4.21v1.69c0,2.33-1.89,4.21-4.21,4.21h0c-2.33,0-4.21-1.89-4.21-4.21v-1.69Z"/>
  <path class="cls-3" d="m9.2,15.87h1.69v3.93c0,.47-.38.84-.84.84h0c-.47,0-.84-.38-.84-.84v-3.93Z"/>
  <path class="cls-2" d="m14.26,11.93c-3.37,0-4.49,5.34-10.11,4.49,1.69-2.53.28-4.78,2.53-7.02l.56-.28,2.81-.56,3.37,1.12.84,2.25Z"/>
  <path class="cls-1" d="m33.5,17h0c5.25,0,9.5,4.25,9.5,9.5h0c0,5.25-4.25,9.5-9.5,9.5h0c-5.25,0-9.5-4.25-9.5-9.5h0c0-5.25,4.25-9.5,9.5-9.5Z"/>
  <path class="cls-7" d="m30,26l3,4,5-7"/>
</svg>