<?xml version="1.0" encoding="UTF-8"?>
<svg id="Layer_1" data-name="Layer 1" xmlns="http://www.w3.org/2000/svg" viewBox="0 0 43 36">
  <defs>
    <style>
      .cls-1 {
        fill: #0067b1;
      }

      .cls-2 {
        fill: #f47d30;
      }

      .cls-3 {
        fill: #ef3e42;
      }

      .cls-4 {
        fill: #d66222;
      }

      .cls-5 {
        fill: #24418a;
      }

      .cls-6 {
        fill: #f28446;
        isolation: isolate;
        opacity: .5;
      }

      .cls-7 {
        fill: #150958;
        fill-rule: evenodd;
      }
    </style>
  </defs>
  <path class="cls-1" d="m0,3.71C0,1.66,1.66,0,3.71,0h34.59c2.05,0,3.71,1.66,3.71,3.71v21c0,2.05-1.66,3.71-3.71,3.71H3.71c-2.05,0-3.71-1.66-3.71-3.71V3.71Z"/>
  <rect class="cls-2" x="3.71" y="6.18" width="7.41" height="6.18" rx="1.24" ry="1.24"/>
  <rect class="cls-4" x="3.71" y="6.18" width="7.41" height="2.47" rx="1.24" ry="1.24"/>
  <rect class="cls-4" x="3.71" y="9.88" width="7.41" height="2.47" rx="1.24" ry="1.24"/>
  <rect class="cls-6" x="6.18" y="6.18" width="2.47" height="6.18" rx="1.24" ry="1.24"/>
  <path class="cls-2" d="m34.26,11.12c2.05,0,3.71-1.66,3.71-3.71s-1.66-3.71-3.71-3.71-3.71,1.66-3.71,3.71,1.66,3.71,3.71,3.71Z"/>
  <path class="cls-3" d="m29.31,11.12c2.05,0,3.71-1.66,3.71-3.71s-1.66-3.71-3.71-3.71-3.71,1.66-3.71,3.71,1.66,3.71,3.71,3.71Z"/>
  <path class="cls-5" d="m5.56,14.82h3.71c1.02,0,1.85.83,1.85,1.85h0c0,1.02-.83,1.85-1.85,1.85h-3.71c-1.02,0-1.85-.83-1.85-1.85h0c0-1.02.83-1.85,1.85-1.85Z"/>
  <path class="cls-5" d="m5.56,19.76h8.65c1.02,0,1.85.83,1.85,1.85h0c0,1.02-.83,1.85-1.85,1.85H5.56c-1.02,0-1.85-.83-1.85-1.85h0c0-1.02.83-1.85,1.85-1.85Z"/>
  <path class="cls-5" d="m14.21,14.82h3.71c1.02,0,1.85.83,1.85,1.85h0c0,1.02-.83,1.85-1.85,1.85h-3.71c-1.02,0-1.85-.83-1.85-1.85h0c0-1.02.83-1.85,1.85-1.85Z"/>
  <path class="cls-5" d="m22.85,14.82h3.71c1.02,0,1.85.83,1.85,1.85h0c0,1.02-.83,1.85-1.85,1.85h-3.71c-1.02,0-1.85-.83-1.85-1.85h0c0-1.02.83-1.85,1.85-1.85Z"/>
  <path class="cls-5" d="m31.5,14.82h3.71c1.02,0,1.85.83,1.85,1.85h0c0,1.02-.83,1.85-1.85,1.85h-3.71c-1.02,0-1.85-.83-1.85-1.85h0c0-1.02.83-1.85,1.85-1.85Z"/>
  <path class="cls-2" d="m33.5,17h0c5.25,0,9.5,4.25,9.5,9.5h0c0,5.25-4.25,9.5-9.5,9.5h0c-5.25,0-9.5-4.25-9.5-9.5h0c0-5.25,4.25-9.5,9.5-9.5Z"/>
  <path class="cls-7" d="m32.5,22.5c0-.55.45-1,1-1s1,.45,1,1v6.09l1.29-1.29c.39-.39,1.02-.39,1.41,0s.39,1.02,0,1.41l-3,3c-.39.39-1.02.39-1.41,0l-3-3c-.39-.39-.39-1.02,0-1.41s1.02-.39,1.41,0l1.29,1.29v-6.09Z"/>
</svg>