<?xml version="1.0" encoding="UTF-8"?>
<svg id="Layer_1" data-name="Layer 1" xmlns="http://www.w3.org/2000/svg" xmlns:xlink="http://www.w3.org/1999/xlink" viewBox="0 0 44.11 49.03">
  <defs>
    <style>
      .cls-1, .cls-2 {
        fill: #0067b1;
      }

      .cls-3 {
        fill: #000716;
      }

      .cls-4 {
        fill: #f47d30;
      }

      .cls-5 {
        fill: #f49058;
      }

      .cls-6, .cls-7 {
        fill: #fff;
      }

      .cls-8 {
        fill: #fecda9;
      }

      .cls-9 {
        fill: #a07a57;
      }

      .cls-10, .cls-11 {
        fill: #c9d9ef;
      }

      .cls-12 {
        fill: #d66729;
      }

      .cls-13 {
        fill: #150958;
      }

      .cls-14 {
        fill: #24418a;
      }

      .cls-15 {
        fill: #1d2129;
      }

      .cls-7 {
        isolation: isolate;
        opacity: .15;
      }

      .cls-16 {
        fill: none;
        mask: url(#mask);
      }

      .cls-11, .cls-17, .cls-2 {
        fill-rule: evenodd;
      }

      .cls-17 {
        fill: #c4c4c4;
      }
    </style>
    <mask id="mask" x="26.26" y="31.46" width="13.45" height="17.57" maskUnits="userSpaceOnUse">
      <g id="mask1_9591_2208" data-name="mask1 9591 2208">
        <path class="cls-17" d="m39.2,41.01c-1.76.31-3.7.41-5.59.41-2.49,0-5.09-.17-7.21-.79-.13-1.48-.15-3.02-.15-4.47,0-2.09,1.42-3.95,3.48-4.33,1.11-.21,2.3-.37,3.29-.37s2.19.17,3.29.37c2.06.38,3.47,2.24,3.38,4.33-.07,1.57-.21,3.24-.5,4.84Z"/>
      </g>
    </mask>
  </defs>
  <g>
    <path class="cls-5" d="m0,0h27.78c.53,0,1.05.13,1.52.39l10.94,5.97L0,10.59V0Z"/>
    <path class="cls-12" d="m0,2.81C0,1.58,1.35.81,2.41,1.45l7.67,4.6c.32.19.51.54.51.91v8.4l5.29,20.65h-3.83c-.96,0-1.9-.26-2.72-.75l-7.79-4.67C.58,30.02,0,28.98,0,27.87,0,27.87,0,2.81,0,2.81Z"/>
    <path class="cls-4" d="m10.59,7.41c0-.58.47-1.06,1.06-1.06h28.59v26.47c0,1.75-1.42,3.18-3.18,3.18H13.77c-1.75,0-3.18-1.42-3.18-3.18,0,0,0-25.41,0-25.41Z"/>
    <path class="cls-10" d="m3.52,2.12h31.21l3.39,2.12H7.07s-3.55-2.12-3.55-2.12Z"/>
  </g>
  <path class="cls-13" d="m3.53,2.12l3.55,2.12v8.6c0,.41-.45.67-.8.45l-2.49-1.49c-.16-.1-.26-.27-.26-.45V2.12Z"/>
  <rect class="cls-6" x="14.29" y="9" width="11.12" height="12.71" rx=".79" ry=".79"/>
  <rect class="cls-10" x="15.88" y="10.59" width="7.94" height="1.59" rx=".79" ry=".79"/>
  <rect class="cls-10" x="15.88" y="13.76" width="4.76" height="1.59" rx=".79" ry=".79"/>
  <rect class="cls-14" x="15.88" y="16.94" width="1.59" height="3.18" rx=".32" ry=".32"/>
  <rect class="cls-14" x="20.65" y="16.94" width="1.59" height="3.18" rx=".32" ry=".32"/>
  <rect class="cls-14" x="18.26" y="16.94" width=".79" height="3.18" rx=".32" ry=".32"/>
  <path class="cls-14" d="m20.05,16.94h0c.11,0,.2.09.2.2v2.78c0,.11-.09.2-.2.2h0c-.11,0-.2-.09-.2-.2v-2.78c0-.11.09-.2.2-.2Z"/>
  <rect class="cls-14" x="23.03" y="16.94" width=".79" height="3.18" rx=".32" ry=".32"/>
  <rect class="cls-13" x="13.76" y="31.76" width="3.18" height="1.06"/>
  <rect class="cls-13" x="13.76" y="28.59" width="3.18" height="2.12"/>
  <path class="cls-13" d="m18,28.59h-5.29l2.65-3.18,2.65,3.18h0Z"/>
  <path class="cls-13" d="m3.5,2l3.55,2.12v8.6c0,.41-.45.67-.8.45l-2.49-1.49c-.16-.1-.26-.27-.26-.45V2Z"/>
  <rect class="cls-6" x="14.26" y="8.88" width="11.12" height="12.71" rx=".79" ry=".79"/>
  <rect class="cls-10" x="15.85" y="10.47" width="7.94" height="1.59" rx=".79" ry=".79"/>
  <rect class="cls-10" x="15.85" y="13.64" width="4.76" height="1.59" rx=".79" ry=".79"/>
  <rect class="cls-14" x="15.85" y="16.82" width="1.59" height="3.18" rx=".32" ry=".32"/>
  <rect class="cls-14" x="20.62" y="16.82" width="1.59" height="3.18" rx=".32" ry=".32"/>
  <rect class="cls-14" x="18.23" y="16.82" width=".79" height="3.18" rx=".32" ry=".32"/>
  <path class="cls-14" d="m20.02,16.82h0c.11,0,.2.09.2.2v2.78c0,.11-.09.2-.2.2h0c-.11,0-.2-.09-.2-.2v-2.78c0-.11.09-.2.2-.2Z"/>
  <rect class="cls-14" x="23" y="16.82" width=".79" height="3.18" rx=".32" ry=".32"/>
  <rect class="cls-13" x="13.73" y="31.64" width="3.18" height="1.06"/>
  <rect class="cls-13" x="13.73" y="28.47" width="3.18" height="2.12"/>
  <path class="cls-13" d="m17.97,28.47h-5.29l2.65-3.18,2.65,3.18h-.01Z"/>
  <circle class="cls-7" cx="31.34" cy="34.6" r=".33"/>
  <circle class="cls-7" cx="29.35" cy="37.92" r=".99"/>
  <path class="cls-3" d="m28.05,24.43h9.96c.29,7.62-4.39,9.67-4.39,9.67-4.1.29-9.08-.88-9.08-.88,5.86-1.76,3.51-1.17,3.51-1.17l-1.46-1.76c3.22-.88,1.46-5.86,1.46-5.86Z"/>
  <g class="cls-16">
    <g>
      <path class="cls-2" d="m26.26,36.17c0-2.09,1.42-3.95,3.48-4.33,1.11-.21,2.3-.37,3.29-.37s2.19.17,3.29.37c2.06.38,3.47,2.24,3.38,4.33,0,.19-.02.38-.03.57h-3.71v8.79h1.82c-1.08,2.09-2.76,3.51-5.34,3.51-3.04,0-4.6-1.97-5.39-4.69h2.47v-4.1l-3.17-.42c-.08-1.23-.09-2.47-.09-3.66Z"/>
      <path class="cls-1" d="m31.27,31.46h3.51c0,.69-.47,1.3-1.15,1.41-.22.03-.44.06-.61.06s-.39-.02-.61-.06c-.68-.11-1.15-.72-1.15-1.41h0Z"/>
    </g>
  </g>
  <circle class="cls-3" cx="33.03" cy="24.14" r="4.98"/>
  <path class="cls-8" d="m28.64,24.72c0-2.43,1.97-4.39,4.39-4.39h0c2.43,0,4.39,1.97,4.39,4.39v1.76c0,2.43-1.97,4.39-4.39,4.39h0c-2.43,0-4.39-1.97-4.39-4.39v-1.76Z"/>
  <path class="cls-8" d="m32.15,27.36h1.76v4.1c0,.49-.39.88-.88.88h0c-.49,0-.88-.39-.88-.88v-4.1Z"/>
  <path class="cls-3" d="m37.43,23.26c-3.51,0-4.69,5.56-10.54,4.69,1.76-2.64.29-4.98,2.64-7.32l.59-.29,2.93-.59,3.51,1.17.88,2.34Z"/>
  <path class="cls-11" d="m29.87,41.26c-2.19-.22-4.24-.67-5.71-1.57.34-.87,1.23-1.49,2.23-1.49h1.17c1.29,0,2.42,1.05,2.37,2.34,0,.25-.03.49-.07.71Z"/>
  <path class="cls-3" d="m23.66,34.03c0-1.33,1-2.46,2.32-2.64h0c1.84-.25,3.38,1.42,2.96,3.23h0c-.22.97-.99,1.74-1.96,1.99h0c-1.68.42-3.33-.85-3.33-2.58h0Z"/>
  <path class="cls-3" d="m24.48,33.75c0-1.59,1.29-2.87,2.87-2.87h.51c1.31,0,2.36,1.06,2.36,2.36v1.46c0,1.06-.86,1.91-1.91,1.91h-.96c-1.59,0-2.87-1.29-2.87-2.87h0Z"/>
  <path class="cls-8" d="m26.17,36.62h1.64v1.64c0,.45-.37.82-.82.82h0c-.45,0-.82-.37-.82-.82v-1.64Z"/>
  <path class="cls-8" d="m24.53,34.98c0-1.36,1.1-2.46,2.46-2.46h0c1.36,0,2.46,1.1,2.46,2.46v.82c0,1.36-1.1,2.46-2.46,2.46h0c-1.36,0-2.46-1.1-2.46-2.46v-.82Z"/>
  <path class="cls-3" d="m24.89,33.34c.41,2.05,4.63,1.35,5.21.76l-1.93-2.4h-1.64l-1.64,1.64Z"/>
  <path class="cls-11" d="m35.9,41.36c-.34-.77-.57-1.7-.69-2.79-.17-1.46.78-2.8,2.22-3.08.65-.13,1.37-.23,2.05-.23s1.4.1,2.05.23c1.44.29,2.39,1.63,2.22,3.08-.03.25-.06.49-.1.72-1.77,1.37-4.7,1.9-7.74,2.06Z"/>
  <path class="cls-15" d="m39.71,26.19h0c2.43,0,4.39,1.97,4.39,4.39h0c0,2.43-1.97,4.39-4.39,4.39h0c-2.43,0-4.39-1.97-4.39-4.39h0c0-2.43,1.97-4.39,4.39-4.39Z"/>
  <path class="cls-9" d="m38.83,33.95h1.76v1.31c0,.49-.39.88-.88.88h0c-.49,0-.88-.39-.88-.88v-1.31Z"/>
  <path class="cls-9" d="m37.08,31.75c0-1.46,1.18-2.64,2.64-2.64h0c1.46,0,2.64,1.18,2.64,2.64v.59c0,1.46-1.18,2.64-2.64,2.64h0c-1.46,0-2.64-1.18-2.64-2.64v-.59Z"/>
  <path class="cls-15" d="m43.18,29.74c0,.29-2.29,1.43-6.67.86l2.22-3.89h1.78l2.67,3.03Z"/>
</svg>