<?xml version="1.0" encoding="UTF-8"?>
<svg id="Layer_1" data-name="Layer 1" xmlns="http://www.w3.org/2000/svg" xmlns:xlink="http://www.w3.org/1999/xlink" viewBox="0 0 53.85 50">
  <defs>
    <style>
      .cls-1, .cls-2 {
        fill: none;
      }

      .cls-3 {
        stroke: #c9d9ef;
        stroke-width: 1.33px;
      }

      .cls-3, .cls-4 {
        fill: #c9d9ef;
      }

      .cls-5 {
        fill: #0067b1;
      }

      .cls-6 {
        fill: #f47d30;
      }

      .cls-7 {
        fill: #f49058;
      }

      .cls-8, .cls-9, .cls-10 {
        fill: #fff;
      }

      .cls-11 {
        fill: #dcdcdc;
      }

      .cls-12 {
        fill: #d66729;
      }

      .cls-13 {
        fill: #150958;
      }

      .cls-14 {
        fill: #24418a;
      }

      .cls-9 {
        opacity: .15;
      }

      .cls-9, .cls-10 {
        isolation: isolate;
      }

      .cls-10 {
        opacity: .25;
      }

      .cls-2 {
        mask: url(#mask);
      }
    </style>
    <mask id="mask" x="24.87" y="37.96" width="28.98" height="11.93" maskUnits="userSpaceOnUse">
      <g id="mask1_9591_2206" data-name="mask1 9591 2206">
        <path class="cls-11" d="m36.67,37.96h5.96l4.56,6.85c.88,1.32-.07,3.09-1.65,3.09h-11.79c-1.59,0-2.53-1.77-1.65-3.09l4.57-6.85Z"/>
      </g>
    </mask>
  </defs>
  <rect class="cls-1" width="50" height="50"/>
  <g>
    <path class="cls-7" d="m5,7h27.78c.53,0,1.05.13,1.52.39l10.94,5.97L5,17.59V7Z"/>
    <path class="cls-12" d="m5,9.81c0-1.23,1.35-2,2.41-1.36l7.67,4.6c.32.19.51.54.51.91v8.4l5.29,20.65h-3.83c-.96,0-1.9-.26-2.72-.75l-7.79-4.67c-.96-.57-1.54-1.61-1.54-2.72,0,0,0-25.06,0-25.06Z"/>
    <path class="cls-6" d="m15.59,14.41c0-.58.47-1.06,1.06-1.06h28.59v26.47c0,1.75-1.42,3.18-3.18,3.18h-23.29c-1.75,0-3.18-1.42-3.18-3.18,0,0,0-25.41,0-25.41Z"/>
    <path class="cls-4" d="m8.52,9.12h31.21l3.39,2.12H12.07s-3.55-2.12-3.55-2.12Z"/>
  </g>
  <path class="cls-13" d="m8.53,9.12l3.55,2.12v8.6c0,.41-.45.67-.8.45l-2.49-1.49c-.16-.1-.26-.27-.26-.45v-9.23Z"/>
  <rect class="cls-8" x="19.29" y="16" width="11.12" height="12.71" rx=".79" ry=".79"/>
  <rect class="cls-4" x="20.88" y="17.59" width="7.94" height="1.59" rx=".79" ry=".79"/>
  <rect class="cls-4" x="20.88" y="20.76" width="4.76" height="1.59" rx=".79" ry=".79"/>
  <rect class="cls-14" x="20.88" y="23.94" width="1.59" height="3.18" rx=".32" ry=".32"/>
  <rect class="cls-14" x="25.65" y="23.94" width="1.59" height="3.18" rx=".32" ry=".32"/>
  <rect class="cls-14" x="23.26" y="23.94" width=".79" height="3.18" rx=".32" ry=".32"/>
  <path class="cls-14" d="m25.05,23.94h0c.11,0,.2.09.2.2v2.78c0,.11-.09.2-.2.2h0c-.11,0-.2-.09-.2-.2v-2.78c0-.11.09-.2.2-.2Z"/>
  <rect class="cls-14" x="28.03" y="23.94" width=".79" height="3.18" rx=".32" ry=".32"/>
  <rect class="cls-13" x="18.76" y="38.76" width="3.18" height="1.06"/>
  <rect class="cls-13" x="18.76" y="35.59" width="3.18" height="2.12"/>
  <path class="cls-13" d="m23,35.59h-5.29l2.65-3.18,2.65,3.18h0Z"/>
  <path class="cls-13" d="m8.5,9l3.55,2.12v8.6c0,.41-.45.67-.8.45l-2.49-1.49c-.16-.1-.26-.27-.26-.45v-9.23Z"/>
  <rect class="cls-8" x="19.26" y="15.88" width="11.12" height="12.71" rx=".79" ry=".79"/>
  <rect class="cls-4" x="20.85" y="17.47" width="7.94" height="1.59" rx=".79" ry=".79"/>
  <rect class="cls-4" x="20.85" y="20.64" width="4.76" height="1.59" rx=".79" ry=".79"/>
  <rect class="cls-14" x="20.85" y="23.82" width="1.59" height="3.18" rx=".32" ry=".32"/>
  <rect class="cls-14" x="25.62" y="23.82" width="1.59" height="3.18" rx=".32" ry=".32"/>
  <rect class="cls-14" x="23.23" y="23.82" width=".79" height="3.18" rx=".32" ry=".32"/>
  <path class="cls-14" d="m25.02,23.82h0c.11,0,.2.09.2.2v2.78c0,.11-.09.2-.2.2h0c-.11,0-.2-.09-.2-.2v-2.78c0-.11.09-.2.2-.2Z"/>
  <rect class="cls-14" x="28" y="23.82" width=".79" height="3.18" rx=".32" ry=".32"/>
  <rect class="cls-13" x="18.73" y="38.64" width="3.18" height="1.06"/>
  <rect class="cls-13" x="18.73" y="35.47" width="3.18" height="2.12"/>
  <path class="cls-13" d="m22.97,35.47h-5.29l2.65-3.18,2.65,3.18h-.01Z"/>
  <path class="cls-3" d="m40.21,32.96l-.56-.87-.56.87-2.98,4.63-4.56,6.84c-1.17,1.76.09,4.12,2.2,4.12h11.79c2.12,0,3.38-2.36,2.2-4.12l-4.56-6.84-2.98-4.63Z"/>
  <g class="cls-2">
    <g>
      <path class="cls-14" d="m49.26,44.25c-9.61,1.66-6.29-4.97-17.89-3.97-11.59.99-4.14,9.61-4.14,9.61h23.19s8.44-7.29-1.16-5.63Z"/>
      <path class="cls-5" d="m31.37,41.6c8.61,5.63,8.28-4.31,16.56-1.99,8.28,2.32,2.65,10.27,2.65,10.27h-23.19s-4.64-13.91,3.98-8.28Z"/>
    </g>
  </g>
  <path class="cls-4" d="m36.67,26.7h5.96c.73,0,1.33.59,1.33,1.33h0c0,.73-.59,1.32-1.33,1.32h-5.96c-.73,0-1.33-.59-1.33-1.33h0c0-.73.59-1.32,1.33-1.32Z"/>
  <rect class="cls-4" x="36.67" y="26.7" width="5.96" height="11.93"/>
  <path class="cls-14" d="m36.67,30.67h2.65c.37,0,.66.3.66.66h0c0,.37-.3.66-.66.66h-2.65v-1.33Z"/>
  <path class="cls-14" d="m36.67,33.32h2.65c.37,0,.66.3.66.66h0c0,.37-.3.66-.66.66h-2.65v-1.32Z"/>
  <circle class="cls-9" cx="42.63" cy="43.26" r=".66"/>
  <circle class="cls-9" cx="40.64" cy="45.25" r=".66"/>
  <circle class="cls-10" cx="38.32" cy="38.95" r=".99"/>
  <circle class="cls-9" cx="40.64" cy="32.66" r=".66"/>
  <circle class="cls-10" cx="40.64" cy="37.3" r=".66"/>
  <circle class="cls-9" cx="36.34" cy="41.6" r=".33"/>
  <circle class="cls-9" cx="34.35" cy="44.92" r=".99"/>
</svg>