<?xml version="1.0" encoding="UTF-8"?>
<svg id="Layer_1" data-name="Layer 1" xmlns="http://www.w3.org/2000/svg" viewBox="0 0 41.65 36.5">
  <defs>
    <style>
      .cls-1 {
        fill: #0067b1;
      }

      .cls-2 {
        fill: #c9d9ef;
      }

      .cls-3 {
        fill: #150958;
      }

      .cls-4 {
        stroke: #000716;
        stroke-width: 2px;
      }

      .cls-4, .cls-5 {
        fill: none;
      }

      .cls-5 {
        stroke: #150958;
        stroke-linecap: round;
        stroke-width: 3px;
      }
    </style>
  </defs>
  <path class="cls-2" d="m16.76,1.5l18,18-15.88,15.88c-1.17,1.17-3.07,1.17-4.24,0L.88,21.62c-1.17-1.17-1.17-3.07,0-4.24L16.76,1.5Z"/>
  <path class="cls-1" d="m34.76,34v-14.5l-13-13.5,14.73,6.25c1.17.5,2.25,1.18,3.2,2.02,1.84,1.64,2.46,4.25,1.54,6.54l-1.08,2.71c-.26.65-.39,1.34-.39,2.03v8.45c0,1.38-1.12,2.5-2.5,2.5s-2.5-1.12-2.5-2.5Z"/>
  <path class="cls-4" d="m4.76,12.5l3-.5"/>
  <path class="cls-5" d="m16.76,1.5l9,9,9,9"/>
  <path class="cls-1" d="m11.26,7L2.76,15.5l13.09,13.09c.78.78,2.05.78,2.83,0l5.67-5.67c.78-.78.78-2.05,0-2.83L11.26,7Z"/>
  <path class="cls-3" d="m23.02,14.46c.53-.15.85-.7.7-1.23-.15-.53-.7-.85-1.23-.7l.53,1.93Zm-21.15-.85l-.68.73.68-.73Zm.38.32l2.67-.44-.33-1.97-2.67.44.33,1.97Zm-1.06.42c1.42,1.31,3.59,1.87,5.82,2.06,2.27.2,4.82.04,7.17-.24,2.36-.29,4.56-.71,6.18-1.06.81-.18,1.47-.33,1.93-.45.23-.06.41-.1.53-.14.06-.02.11-.03.14-.04.02,0,.03,0,.04-.01,0,0,0,0,.01,0,0,0,0,0,0,0,0,0,0,0,0,0t-.26-.96q-.26-.96-.26-.96s0,0,0,0c0,0,0,0,0,0,0,0,0,0,0,0,0,0-.02,0-.03,0-.03,0-.07.02-.13.03-.12.03-.29.07-.51.13-.44.11-1.09.26-1.87.44-1.57.34-3.72.76-5.99,1.03-2.29.28-4.67.42-6.75.24-2.12-.19-3.72-.69-4.64-1.54l-1.36,1.47Zm-.44-1.01c0,.36.14.73.44,1.01l1.36-1.47c.15.13.2.31.2.46H.76Zm1.17-1.38c-.67.11-1.17.69-1.17,1.38h2c0,.3-.21.55-.5.6l-.33-1.97Z"/>
  <path class="cls-3" d="m22.76,15.5c1.1,0,2-.9,2-2s-.9-2-2-2-2,.9-2,2,.9,2,2,2Z"/>
</svg>