<?xml version="1.0" encoding="UTF-8"?>
<svg id="Layer_1" data-name="Layer 1" xmlns="http://www.w3.org/2000/svg" xmlns:xlink="http://www.w3.org/1999/xlink" viewBox="0 0 50 50">
  <defs>
    <style>
      .cls-1, .cls-2, .cls-3 {
        fill: none;
      }

      .cls-4, .cls-5 {
        fill: #0067b1;
      }

      .cls-6 {
        fill: #f47d30;
      }

      .cls-7 {
        fill: #e7e7e7;
      }

      .cls-8 {
        fill: #e99c5c;
      }

      .cls-9 {
        fill: #ef3e42;
      }

      .cls-10 {
        fill: #150958;
      }

      .cls-11 {
        fill: #24418a;
      }

      .cls-2 {
        mask: url(#mask);
      }

      .cls-12 {
        fill: #c9d9ef;
      }

      .cls-12, .cls-5 {
        fill-rule: evenodd;
      }

      .cls-3 {
        clip-path: url(#clippath);
      }
    </style>
    <clipPath id="clippath">
      <rect class="cls-1" width="50" height="50"/>
    </clipPath>
    <mask id="mask" x="35.57" y="6.69" width="11.01" height="31.69" maskUnits="userSpaceOnUse">
      <g id="mask0_6855_705" data-name="mask0 6855 705">
        <path class="cls-8" d="m38.97,38.02l-1.94-.48s.11-6.67,1.92-13.95c1.47-5.93,4.4-13.57,5.43-16.18.21-.53.78-.82,1.34-.69.56.14.93.66.86,1.23-.31,2.79-1.3,10.9-2.78,16.84-1.81,7.28-4.83,13.23-4.83,13.23Z"/>
      </g>
    </mask>
  </defs>
  <g class="cls-3">
    <g>
      <path class="cls-12" d="m6.74,11.72c4.48-5.38,16.64-8.28,27.79.99,11.15,9.27,10.52,21.75,6.05,27.14-1.37,1.64-3.58.98-5.26-.33l-6.03-4.68c-.67-.52-1.55-.67-2.35-.41-1.6.53-2.25,2.44-1.3,3.84l.93,1.36c.6.88.84,2.01.22,2.88-1.32,1.86-4.8,3.99-13.22-3C1.64,29.58,2.26,17.1,6.74,11.72Zm24.14,18.63c1.56,1.48,3.83,1.63,5.07.33,1.24-1.3.97-3.56-.59-5.04-1.56-1.48-3.83-1.63-5.07-.33-1.24,1.3-.97,3.56.59,5.04Z"/>
      <path class="cls-4" d="m13.84,30.65l-.35.87c-.56,1.4.05,3,1.4,3.67l.12.06c.32.16.61.4.82.69l.98,1.31c.71.95,2.2.71,2.58-.42.07-.22.19-.41.36-.58l.79-.79c.94-.94.63-2.54-.59-3.06-.59-.25-1.01-.79-1.11-1.42l-.03-.16c-.18-1.05-1.09-1.82-2.15-1.82h-.37c-1.07,0-2.04.65-2.44,1.65Z"/>
      <path class="cls-6" d="m10.04,19.87l-1.33.59c-.75.33-1.28,1.03-1.4,1.85-.18,1.24.63,2.4,1.85,2.67l.35.08c1.19.26,2.41-.28,3.01-1.33l.39-.68c.37-.65.4-1.45.06-2.12-.54-1.08-1.83-1.54-2.93-1.05Z"/>
      <path class="cls-9" d="m28.48,12.71l-.84-.24c-.97-.28-2.01.12-2.54.98-.8,1.28-.12,2.97,1.33,3.39.37.11.72.31,1,.58l.24.24c.96.96,2.56.83,3.35-.28.58-.82.54-1.92-.1-2.69l-.73-.88c-.44-.53-1.03-.91-1.69-1.1Z"/>
      <path class="cls-11" d="m17.08,11.29l-.37-.19c-1.24-.62-2.74-.16-3.42,1.04l-.23.4c-.34.6-.36,1.34-.05,1.96l.69,1.38c.37.75,1.4.84,1.9.17.25-.34.67-.5,1.08-.43l.48.08c1.03.17,2.01-.5,2.21-1.52l.23-1.13c.19-.97-.66-1.82-1.63-1.63-.3.06-.61.02-.89-.12Z"/>
      <path class="cls-6" d="m38.97,38.02l-1.94-.48s.11-6.67,1.92-13.95c1.47-5.93,4.4-13.57,5.43-16.18.21-.53.78-.82,1.34-.69.56.14.93.66.86,1.23-.31,2.79-1.3,10.9-2.78,16.84-1.81,7.28-4.83,13.23-4.83,13.23Z"/>
      <g class="cls-2">
        <path class="cls-7" d="m40.42,38.38l-4.85-1.21,1.45-5.82s1.58-.12,2.55.12c.97.24,2.31,1.09,2.31,1.09l-1.45,5.82Z"/>
      </g>
      <path class="cls-10" d="m34.45,39.62c.33-1.34,1.81-2.64,3.63-2.19,1.83.45,2.52,2.29,2.19,3.63-.82,3.28-4.25,5.11-5.81,4.74,1.69-2.67-.7-3.39,0-6.18Z"/>
      <path class="cls-5" d="m34.32,40.52c.74-.22,1.77-.42,3.28-.44.96-.01,1.91.24,2.73.6-.01.13-.04.26-.07.39-.82,3.28-4.25,5.11-5.81,4.74.94-1.48.62-2.36.27-3.33-.21-.57-.43-1.18-.4-1.96Z"/>
    </g>
  </g>
</svg>