<?xml version="1.0" encoding="UTF-8"?>
<svg id="Layer_1" data-name="Layer 1" xmlns="http://www.w3.org/2000/svg" viewBox="0 0 44.97 43.97">
  <defs>
    <style>
      .cls-1 {
        fill: #c9d9ef;
        stroke: #24418a;
        stroke-miterlimit: 4;
        stroke-width: 1.39px;
      }

      .cls-2 {
        fill: #f7a57c;
      }

      .cls-3 {
        fill: #0067b1;
      }

      .cls-4 {
        fill: #ecbac2;
      }

      .cls-5 {
        fill: #f47d30;
      }

      .cls-6 {
        fill: #fff;
      }

      .cls-7 {
        fill: #ffc900;
      }

      .cls-8 {
        fill: #ffcad3;
      }

      .cls-9 {
        fill: #ffd432;
      }

      .cls-10 {
        fill: #24418a;
      }

      .cls-11, .cls-12 {
        stroke-width: 2px;
      }

      .cls-11, .cls-12, .cls-13 {
        fill: none;
        stroke-linecap: round;
      }

      .cls-11, .cls-13 {
        stroke: #0067b1;
      }

      .cls-12, .cls-14 {
        stroke: #150958;
      }

      .cls-14 {
        fill: #150958;
        stroke-miterlimit: 4;
        stroke-width: 1.23px;
      }

      .cls-13 {
        stroke-width: 1.5px;
      }
    </style>
  </defs>
  <path class="cls-13" d="m39.5,14c-3.5,2.5,3.5,5,3-.5"/>
  <path class="cls-10" d="m7.44,16.4l-.36-11.62c-.03-.91,1.07-1.38,1.71-.75l6.86,6.84c.43.43.38,1.15-.12,1.51l-6.49,4.78c-.65.48-1.57.04-1.59-.77Z"/>
  <path class="cls-10" d="m9.69,28.03c-.35-1.27.61-2.53,1.93-2.53h1.38c1.1,0,2,.9,2,2v7.3c0,.94-.76,1.7-1.7,1.7-.77,0-1.44-.51-1.64-1.25l-1.97-7.22Z"/>
  <path class="cls-4" d="m23.69,28.03c-.35-1.27.61-2.53,1.93-2.53h1.38c1.1,0,2,.9,2,2v7.3c0,.94-.76,1.7-1.7,1.7-.77,0-1.44-.51-1.64-1.25l-1.97-7.22Z"/>
  <path class="cls-3" d="m4,21.6c0-7.71,6.05-14.17,13.76-14.1.97,0,1.89.03,2.71.07,1.88.09,4.37.31,6.88.58,6.11.65,10.65,5.88,10.65,12.02,0,6.8-5.52,12.31-12.33,12.3l-10.84-.02c-5.98-.01-10.83-4.87-10.83-10.85Z"/>
  <path class="cls-3" d="m12.88,31.13c-.43-1.3.53-2.63,1.9-2.63h1.23c1.1,0,2,.9,2,2v5.26c0,.96-.78,1.74-1.74,1.74-.75,0-1.42-.48-1.65-1.19l-1.73-5.18Z"/>
  <path class="cls-8" d="m26.88,31.13c-.43-1.3.53-2.63,1.9-2.63h1.23c1.1,0,2,.9,2,2v5.26c0,.96-.78,1.74-1.74,1.74-.75,0-1.42-.48-1.65-1.19l-1.73-5.18Z"/>
  <path class="cls-3" d="m0,18.5c0-.55.46-.99,1.01-1.05,7.59-.73,3.15-9.93,18.99-9.45l-8,15.5H1c-.55,0-1-.45-1-1v-4Z"/>
  <path class="cls-3" d="m11.28,13.47l-.36-11.62c-.03-.91,1.07-1.38,1.71-.75l6.86,6.84c.43.43.38,1.15-.12,1.51l-6.49,4.78c-.65.48-1.56.04-1.59-.77Z"/>
  <circle cx="12.5" cy="15.5" r="3"/>
  <circle class="cls-10" cx="16" cy="22" r="5.5"/>
  <path class="cls-6" d="m11.75,13.5h.5c.41,0,.75.34.75.75h0c0,.41-.34.75-.75.75h-.5c-.41,0-.75-.34-.75-.75h0c0-.41.34-.75.75-.75Z"/>
  <path class="cls-12" d="m20,10.9c3-.6,7.5-.1,10,1.1"/>
  <path class="cls-11" d="m36.5,20c5.94-.43,5.25-6.75,2.97-6-1.11.36-1.47,3.5,1.61,2.5"/>
  <circle class="cls-7" cx="25.25" cy="5.25" r="5.25"/>
  <path class="cls-9" d="m25.25,1.5h0c2.07,0,3.75,1.68,3.75,3.75h0c0,2.07-1.68,3.75-3.75,3.75h0c-2.07,0-3.75-1.68-3.75-3.75h0c0-2.07,1.68-3.75,3.75-3.75Z"/>
  <circle class="cls-5" cx="25.25" cy="5.25" r="5.25"/>
  <path class="cls-2" d="m25.25,1.5h0c2.07,0,3.75,1.68,3.75,3.75h0c0,2.07-1.68,3.75-3.75,3.75h0c-2.07,0-3.75-1.68-3.75-3.75h0c0-2.07,1.68-3.75,3.75-3.75Z"/>
  <rect class="cls-14" x="23.97" y="26.39" width="19.67" height="11.07" rx=".61" ry=".61" transform="translate(-12.64 34.15) rotate(-46.11)"/>
  <rect class="cls-1" x="20.48" y="24.5" width="22.26" height="12.52" rx=".7" ry=".7" transform="translate(-10.1 45.08) rotate(-63.17)"/>
  <circle class="cls-10" cx="31.61" cy="30.76" r="4.17"/>
  <circle class="cls-10" cx="34.75" cy="24.55" r="1.39"/>
  <circle class="cls-10" cx="28.47" cy="36.97" r="1.39"/>
  <path class="cls-10" d="m23.8,38.5l-.31.62-2.48-1.26,1.26-2.48.62.31c1.03.52,1.44,1.78.92,2.8Z"/>
  <path class="cls-10" d="m33.22,19.88l.31-.62-2.48-1.26-1.26,2.48.62.31c1.03.52,2.28.11,2.8-.92Z"/>
  <path class="cls-10" d="m30,41.64l-.31.62,2.48,1.26,1.26-2.48-.62-.31c-1.03-.52-2.28-.11-2.8.92Z"/>
  <path class="cls-10" d="m39.42,23.02l.31-.62,2.48,1.26-1.26,2.48-.62-.31c-1.03-.52-1.44-1.78-.92-2.8Z"/>
</svg>