<?xml version="1.0" encoding="UTF-8"?>
<svg id="Layer_1" data-name="Layer 1" xmlns="http://www.w3.org/2000/svg" xmlns:xlink="http://www.w3.org/1999/xlink" viewBox="0 0 52 51.5">
  <defs>
    <style>
      .cls-1, .cls-2, .cls-3, .cls-4 {
        fill: none;
      }

      .cls-5 {
        fill: #0067b1;
      }

      .cls-6 {
        fill: #fff;
      }

      .cls-7 {
        fill: #c9d9ef;
      }

      .cls-8 {
        fill: #c4c4c4;
      }

      .cls-9 {
        fill: #dcdcdc;
      }

      .cls-10 {
        fill: #24418a;
      }

      .cls-2 {
        mask: url(#mask-1);
      }

      .cls-11 {
        fill: #0046d7;
        stroke: #000;
        stroke-width: 1.4px;
      }

      .cls-3 {
        mask: url(#mask);
      }

      .cls-4 {
        clip-path: url(#clippath);
      }
    </style>
    <clipPath id="clippath">
      <rect class="cls-1" width="50" height="50"/>
    </clipPath>
    <mask id="mask" x="17" y="16.5" width="35" height="35" maskUnits="userSpaceOnUse">
      <g id="mask0_12568_1097" data-name="mask0 12568 1097">
        <path class="cls-11" d="m25.05,24.98s.04-.07.08-.07c5.66.53,8.78-2.6,9.75-3.77.16-.2.49-.2.65,0,.96,1.18,4.09,4.31,9.75,3.77.04,0,.08.03.08.07v6.14c-.66,9.91-5.6,12.08-9.39,14.32-.47.28-1.05.28-1.52,0-3.79-2.25-8.74-4.41-9.39-14.32v-6.14Z"/>
      </g>
    </mask>
    <mask id="mask-1" x="24.7" y="21.05" width="21" height="26.95" maskUnits="userSpaceOnUse">
      <g id="mask1_12568_1097" data-name="mask1 12568 1097">
        <path class="cls-8" d="m26.1,27.05c0-.44.38-.78.82-.77,3.94.11,6.57-1.83,7.68-2.86.33-.3.88-.3,1.21,0,1.11,1.03,3.74,2.97,7.68,2.86.44-.01.82.33.82.77v4.82c-.54,8-5.12,10.31-8.36,12.19-.46.27-1.03.27-1.49,0-3.24-1.88-7.81-4.19-8.36-12.19v-4.82Z"/>
      </g>
    </mask>
  </defs>
  <g class="cls-4">
    <g>
      <path class="cls-7" d="m10,8c0-1.1.9-2,2-2h27c1.1,0,2,.9,2,2v32c0,1.1-.9,2-2,2H12c-1.1,0-2-.9-2-2V8Z"/>
      <path class="cls-10" d="m13,13.5c0-.83.67-1.5,1.5-1.5h13c.83,0,1.5.67,1.5,1.5h0c0,.83-.67,1.5-1.5,1.5h-13c-.83,0-1.5-.67-1.5-1.5h0Z"/>
      <path class="cls-5" d="m13,28c0-.55.45-1,1-1h14c.55,0,1,.45,1,1h0c0,.55-.45,1-1,1h-14c-.55,0-1-.45-1-1h0Z"/>
      <path class="cls-5" d="m13,24c0-.55.45-1,1-1h20c.55,0,1,.45,1,1h0c0,.55-.45,1-1,1H14c-.55,0-1-.45-1-1h0Z"/>
      <path class="cls-5" d="m13,32c0-.55.45-1,1-1h22c.55,0,1,.45,1,1h0c0,.55-.45,1-1,1H14c-.55,0-1-.45-1-1h0Z"/>
      <path class="cls-5" d="m13,36c0-.55.45-1,1-1h22c.55,0,1,.45,1,1h0c0,.55-.45,1-1,1H14c-.55,0-1-.45-1-1h0Z"/>
      <path class="cls-10" d="m13,17c0-.55.45-1,1-1h7c.55,0,1,.45,1,1h0c0,.55-.45,1-1,1h-7c-.55,0-1-.45-1-1h0Z"/>
      <g class="cls-3">
        <g>
          <rect class="cls-10" x="17" y="16.5" width="35" height="35"/>
          <path class="cls-5" d="m35.2,16.5h-18.2v35h18.2V16.5Z"/>
        </g>
      </g>
      <g class="cls-2">
        <g>
          <path class="cls-9" d="m35.2,21.05l10.5,3.15v8.4s-4.9,1.4-10.5,1.4v-12.95Z"/>
          <path class="cls-6" d="m35.2,34c-5.6,0-10.5-1.4-10.5-1.4v7l5.6,5.6,4.9,2.8v-14Z"/>
        </g>
      </g>
    </g>
  </g>
</svg>