<?xml version="1.0" encoding="UTF-8"?>
<svg id="Layer_1" data-name="Layer 1" xmlns="http://www.w3.org/2000/svg" xmlns:xlink="http://www.w3.org/1999/xlink" viewBox="0 0 50 71.78">
  <defs>
    <style>
      .cls-1, .cls-2, .cls-3 {
        fill: none;
      }

      .cls-4 {
        fill: #000716;
      }

      .cls-5 {
        fill: #fecda9;
      }

      .cls-6 {
        fill: #c9d9ef;
      }

      .cls-2 {
        mask: url(#mask);
      }

      .cls-7 {
        fill: #f47d30;
      }

      .cls-7, .cls-8 {
        fill-rule: evenodd;
      }

      .cls-8 {
        fill: #002573;
      }

      .cls-3 {
        clip-path: url(#clippath);
      }
    </style>
    <clipPath id="clippath">
      <rect class="cls-1" width="50" height="50"/>
    </clipPath>
    <mask id="mask" x="10" y="31.91" width="30.51" height="39.87" maskUnits="userSpaceOnUse">
      <g id="mask0_13458_716" data-name="mask0 13458 716">
        <path class="cls-8" d="m40.4,44.39c-4.58,1.13-9.99,1.47-15.18,1.47s-10.64-.34-15.22-1.48c0-.61,0-1.21,0-1.8.02-4.75,3.22-8.96,7.89-9.83,2.51-.47,5.23-.84,7.47-.84s4.96.37,7.47.84c4.67.87,7.87,5.09,7.66,9.83-.03.6-.06,1.2-.09,1.81Z"/>
      </g>
    </mask>
  </defs>
  <g class="cls-3">
    <g>
      <path class="cls-4" d="m14.07,15.96h22.59c.66,17.28-9.97,21.93-9.97,21.93-9.3.66-11.3-1.33-11.3-1.33,13.29-3.99-.66-1.99-.66-1.99l-3.99-5.32c7.31-1.99,3.32-13.29,3.32-13.29Z"/>
      <g class="cls-2">
        <g>
          <path class="cls-6" d="m10,42.58c.02-4.75,3.22-8.96,7.89-9.83,2.51-.47,5.23-.84,7.47-.84s4.96.37,7.47.84c4.67.87,7.87,5.09,7.66,9.83-.59,13.12-3.39,29.2-16.46,29.2s-14.09-16.08-14.03-29.19Z"/>
          <path class="cls-6" d="m21.38,31.91h7.97c0,1.56-1.06,2.95-2.6,3.19-.51.08-1,.13-1.38.13s-.88-.06-1.38-.13c-1.54-.24-2.6-1.63-2.6-3.19Z"/>
        </g>
      </g>
      <circle class="cls-4" cx="25.36" cy="15.3" r="11.3"/>
      <path class="cls-5" d="m15.4,16.62c0-5.5,4.46-9.97,9.97-9.97s9.97,4.46,9.97,9.97v3.99c0,5.5-4.46,9.97-9.97,9.97s-9.97-4.46-9.97-9.97v-3.99Z"/>
      <path class="cls-5" d="m23.37,22.61h3.99v9.3c0,1.1-.89,1.99-1.99,1.99s-1.99-.89-1.99-1.99v-9.3Z"/>
      <path class="cls-4" d="m35.33,13.3c-7.97,0-10.63,12.62-23.92,10.63,3.99-5.98.66-11.3,5.98-16.61l1.33-.66,6.64-1.33,7.97,2.66,1.99,5.32Z"/>
      <path class="cls-7" d="m36.57,32.23c.47-1.36,2.39-1.36,2.87,0l1.6,4.6,4.86.1c1.44.03,2.03,1.86.89,2.72l-3.88,2.94,1.41,4.66c.42,1.38-1.14,2.51-2.32,1.68l-3.99-2.78-3.99,2.78c-1.18.82-2.73-.31-2.32-1.68l1.41-4.66-3.88-2.94c-1.15-.87-.55-2.7.89-2.72l4.86-.1,1.6-4.6Z"/>
    </g>
  </g>
</svg>