<?xml version="1.0" encoding="UTF-8"?>
<svg id="Layer_1" data-name="Layer 1" xmlns="http://www.w3.org/2000/svg" viewBox="0 0 41 41">
  <defs>
    <style>
      .cls-1 {
        fill: #0067b1;
      }

      .cls-2 {
        fill: #fff;
      }

      .cls-3 {
        stroke: #0067b1;
      }

      .cls-3, .cls-4 {
        fill: none;
        stroke-linecap: round;
        stroke-width: 2px;
      }

      .cls-4 {
        stroke: #fff;
        stroke-linejoin: round;
      }

      .cls-5 {
        fill: #150958;
        fill-rule: evenodd;
      }
    </style>
  </defs>
  <rect class="cls-2" x="4" y="4" width="30" height="30" rx="2.35" ry="2.35"/>
  <path class="cls-5" d="m6.5,7.75c0-.69.56-1.25,1.25-1.25h8.75c.69,0,1.25.56,1.25,1.25v8.75c0,.69-.56,1.25-1.25,1.25H7.75c-.69,0-1.25-.56-1.25-1.25V7.75Zm8.75,1.25h-6.25v6.25h6.25v-6.25Zm6.25-2.5c-.69,0-1.25.56-1.25,1.25v8.75c0,.69.56,1.25,1.25,1.25h8.75c.69,0,1.25-.56,1.25-1.25V7.75c0-.69-.56-1.25-1.25-1.25h-8.75Zm7.5,8.75h-6.25v-6.25h6.25v6.25Zm-21.25,5c-.69,0-1.25.56-1.25,1.25v8.75c0,.69.56,1.25,1.25,1.25h8.75c.69,0,1.25-.56,1.25-1.25v-8.75c0-.69-.56-1.25-1.25-1.25H7.75Zm7.5,8.75h-6.25v-6.25h6.25v6.25Zm12.5-.62c0-.35.28-.62.62-.62h2.5c.35,0,.62.28.62.62v2.5c0,.35-.28.62-.62.62h-2.5c-.35,0-.62-.28-.62-.62v-2.5Zm-3.12-4.38c-.35,0-.62.28-.62.62v2.5c0,.35.28.62.62.62h2.5c.35,0,.62-.28.62-.62v-2.5c0-.35-.28-.62-.62-.62h-2.5Zm-4.38,4.38c0-.35.28-.62.62-.62h2.5c.35,0,.62.28.62.62v2.5c0,.35-.28.62-.62.62h-2.5c-.35,0-.62-.28-.62-.62v-2.5Zm.62-8.12c-.35,0-.62.28-.62.62v2.5c0,.35.28.62.62.62h2.5c.35,0,.62-.28.62-.62v-2.5c0-.35-.28-.62-.62-.62h-2.5Zm6.88.62c0-.35.28-.62.62-.62h2.5c.35,0,.62.28.62.62v2.5c0,.35-.28.62-.62.62h-2.5c-.35,0-.62-.28-.62-.62v-2.5ZM10.88,10.25c-.35,0-.62.28-.62.62v2.5c0,.35.28.62.62.62h2.5c.35,0,.62-.28.62-.62v-2.5c0-.35-.28-.62-.62-.62h-2.5Zm13.12.62c0-.35.28-.62.62-.62h2.5c.35,0,.62.28.62.62v2.5c0,.35-.28.62-.62.62h-2.5c-.35,0-.62-.28-.62-.62v-2.5Zm-13.12,13.12c-.35,0-.62.28-.62.62v2.5c0,.35.28.62.62.62h2.5c.35,0,.62-.28.62-.62v-2.5c0-.35-.28-.62-.62-.62h-2.5Z"/>
  <path class="cls-3" d="m11.29,1H3c-1.1,0-2,.9-2,2v8.29M26.71,1h8.29c1.1,0,2,.9,2,2v8.29m-25.71,25.71H3c-1.1,0-2-.9-2-2v-8.29m36,0v8.29c0,1.1-.9,2-2,2h-8.29"/>
  <path class="cls-1" d="m31.5,22h0c5.25,0,9.5,4.25,9.5,9.5h0c0,5.25-4.25,9.5-9.5,9.5h0c-5.25,0-9.5-4.25-9.5-9.5h0c0-5.25,4.25-9.5,9.5-9.5Z"/>
  <path class="cls-4" d="m28,31l3,4,5-7"/>
</svg>