<?xml version="1.0" encoding="UTF-8"?>
<svg id="Layer_1" data-name="Layer 1" xmlns="http://www.w3.org/2000/svg" xmlns:xlink="http://www.w3.org/1999/xlink" viewBox="0 0 39 43">
  <defs>
    <style>
      .cls-1 {
        fill: #0067b1;
      }

      .cls-2 {
        fill: #ef3e42;
      }

      .cls-3 {
        fill: #d3333c;
      }

      .cls-4 {
        fill: #d9d9d9;
      }

      .cls-5 {
        fill: #150958;
      }

      .cls-6 {
        fill: #24418a;
      }

      .cls-7 {
        fill: #291d1d;
      }

      .cls-8 {
        stroke: #fff;
        stroke-linecap: round;
        stroke-linejoin: round;
        stroke-width: 2px;
      }

      .cls-8, .cls-9 {
        fill: none;
      }

      .cls-9 {
        mask: url(#mask);
      }
    </style>
    <mask id="mask" x="1.68" y="25.69" width="34.62" height="13.4" maskUnits="userSpaceOnUse">
      <g id="mask0_12966_961" data-name="mask0 12966 961">
        <path class="cls-4" d="m2.79,30.16c0-2.47,2-4.47,4.47-4.47h18.99c2.47,0,4.47,2,4.47,4.47v2.79c0,1.85-1.5,3.35-3.35,3.35H6.14c-1.85,0-3.35-1.5-3.35-3.35v-2.79Z"/>
      </g>
    </mask>
  </defs>
  <path class="cls-5" d="m1.68,22.34h4.47v13.4c0,.62-.5,1.12-1.12,1.12h-2.23c-.62,0-1.12-.5-1.12-1.12v-13.4Z"/>
  <path class="cls-5" d="m2.79,22.34h3.35v18.99c0,.62-.5,1.12-1.12,1.12h-1.12c-.62,0-1.12-.5-1.12-1.12v-18.99Z"/>
  <path class="cls-7" d="m31.83,22.9h-4.47v13.4c0,.62.5,1.12,1.12,1.12h2.23c.62,0,1.12-.5,1.12-1.12v-13.4Z"/>
  <path class="cls-7" d="m30.71,22.9h-3.35v18.99c0,.62.5,1.12,1.12,1.12h1.12c.62,0,1.12-.5,1.12-1.12v-18.99Z"/>
  <path class="cls-2" d="m6.02,5.63c.31-3.26,3.08-5.63,6.35-5.63h8.75c3.28,0,6.04,2.37,6.35,5.63.46,4.82,1,12.69,1,23.4H5.03c0-10.71.53-18.58,1-23.4Z"/>
  <rect class="cls-5" y="19.55" width="5.58" height="4.47" rx="1.12" ry="1.12"/>
  <rect class="cls-5" x="27.92" y="20.1" width="5.58" height="4.47" rx="1.12" ry="1.12"/>
  <g class="cls-9">
    <g>
      <path class="cls-3" d="m2.79,30.16c0-2.47,2-4.47,4.47-4.47h21.22c2.47,0,4.47,2,4.47,4.47v2.23c0,1.85-1.5,3.35-3.35,3.35H6.14c-1.85,0-3.35-1.5-3.35-3.35v-2.23Z"/>
      <rect class="cls-6" x="1.68" y="31.27" width="34.62" height="7.82"/>
    </g>
  </g>
  <path class="cls-1" d="m29.5,24h0c5.25,0,9.5,4.25,9.5,9.5h0c0,5.25-4.25,9.5-9.5,9.5h0c-5.25,0-9.5-4.25-9.5-9.5h0c0-5.25,4.25-9.5,9.5-9.5Z"/>
  <path class="cls-8" d="m26,33l3,4,5-7"/>
</svg>