<?xml version="1.0" encoding="UTF-8"?>
<svg id="Layer_1" data-name="Layer 1" xmlns="http://www.w3.org/2000/svg" xmlns:xlink="http://www.w3.org/1999/xlink" viewBox="0 0 50 50">
  <defs>
    <style>
      .cls-1 {
        fill: #0067b1;
      }

      .cls-2 {
        fill: #fff;
      }

      .cls-3 {
        fill: #c4c4c4;
      }

      .cls-4 {
        fill: #dcdcdc;
      }

      .cls-5 {
        fill: #24418a;
      }

      .cls-6 {
        mask: url(#mask-1);
      }

      .cls-6, .cls-7 {
        fill: none;
      }

      .cls-7 {
        mask: url(#mask);
      }

      .cls-8 {
        fill: #0046d7;
        stroke: #000;
        stroke-width: 2px;
      }
    </style>
    <mask id="mask" x="0" y="0" width="50" height="50" maskUnits="userSpaceOnUse">
      <g id="mask0_9247_1176" data-name="mask0 9247 1176">
        <path class="cls-8" d="m11.5,12.11c0-.06.05-.11.11-.1,8.08.76,12.55-3.71,13.92-5.39.23-.28.7-.28.93,0,1.38,1.68,5.84,6.15,13.92,5.39.06,0,.11.04.11.1v8.76c-.94,14.16-8,17.25-13.41,20.46-.67.4-1.5.4-2.17,0-5.41-3.21-12.48-6.31-13.41-20.46v-8.76Z"/>
      </g>
    </mask>
    <mask id="mask-1" x="11" y="6.5" width="30" height="38.5" maskUnits="userSpaceOnUse">
      <g id="mask1_9247_1176" data-name="mask1 9247 1176">
        <path class="cls-3" d="m13,15.07c0-.63.54-1.11,1.17-1.1,5.63.16,9.38-2.61,10.97-4.08.47-.43,1.25-.43,1.72,0,1.59,1.47,5.34,4.24,10.97,4.08.63-.02,1.17.47,1.17,1.1v6.89c-.78,11.43-7.31,14.72-11.94,17.42-.66.38-1.47.38-2.12,0-4.63-2.69-11.16-5.98-11.94-17.42v-6.89Z"/>
      </g>
    </mask>
  </defs>
  <g class="cls-7">
    <g>
      <rect class="cls-5" width="50" height="50"/>
      <path class="cls-1" d="m26,0H0v50h26V0Z"/>
    </g>
  </g>
  <g class="cls-6">
    <g>
      <path class="cls-4" d="m26,6.5l15,4.5v12s-7,2-15,2V6.5Z"/>
      <path class="cls-2" d="m26,25c-8,0-15-2-15-2v10l8,8,7,4v-20Z"/>
    </g>
  </g>
</svg>