<?xml version="1.0" encoding="UTF-8"?>
<svg id="Layer_1" data-name="Layer 1" xmlns="http://www.w3.org/2000/svg" xmlns:xlink="http://www.w3.org/1999/xlink" viewBox="0 0 50 50">
  <defs>
    <style>
      .cls-1, .cls-2, .cls-3, .cls-4, .cls-5, .cls-6, .cls-7, .cls-8 {
        fill: none;
      }

      .cls-9 {
        fill: #150958;
      }

      .cls-2, .cls-3, .cls-10 {
        stroke-width: 2px;
      }

      .cls-2, .cls-8 {
        stroke: #0067b1;
      }

      .cls-3, .cls-6 {
        stroke: #150958;
      }

      .cls-3, .cls-6, .cls-7, .cls-8 {
        stroke-linecap: round;
        stroke-linejoin: round;
      }

      .cls-11 {
        fill: #0067b1;
        fill-rule: evenodd;
      }

      .cls-4 {
        stroke: #dcdcdc;
      }

      .cls-5 {
        clip-path: url(#clippath);
      }

      .cls-10 {
        fill: #c9d9ef;
        stroke: #c9d9ef;
      }

      .cls-6, .cls-7, .cls-8 {
        stroke-width: 3px;
      }

      .cls-7 {
        stroke: #24418a;
      }
    </style>
    <clipPath id="clippath">
      <rect class="cls-1" width="50" height="50"/>
    </clipPath>
  </defs>
  <g class="cls-5">
    <g>
      <path class="cls-4" d="m11.5,14.5l28,1"/>
      <path class="cls-4" d="m14,20h25"/>
      <path class="cls-4" d="m18.5,10l2.5,15.5"/>
      <path class="cls-4" d="m25.5,10l1,14"/>
      <path class="cls-4" d="m32,11v12.5"/>
      <path class="cls-10" d="m11.08,12.61c-.29-1.3.76-2.52,2.09-2.43l25.9,1.76c.52.04.93.47.93,1v10.69c0,.5-.37.92-.86.99l-22.81,3.13c-1.03.14-2-.53-2.22-1.55l-3.02-13.59Z"/>
      <path class="cls-2" d="m9,5.5l16,23"/>
      <circle class="cls-9" cx="17" cy="40" r="4"/>
      <path class="cls-7" d="m16,35v2.39c0,.39.12.78.34,1.11l.66,1"/>
      <path class="cls-6" d="m4,4.5h2.65c1.38,0,2.59.94,2.91,2.29l5.44,22.21"/>
      <path class="cls-8" d="m3,4.5h2.5"/>
      <path class="cls-3" d="m30.5,27.5l-15.11,1.94c-2.02.26-3.07,2.55-1.94,4.25h0c.34.51.91.82,1.52.82h15.52"/>
      <path class="cls-11" d="m28.09,31.92c-.35.61-.19,1.38.37,1.81l1.62,1.23v2.38l-1.62,1.23c-.56.42-.72,1.2-.37,1.81l1.56,2.7c.35.61,1.1.86,1.75.59l1.87-.79,2.06,1.19.25,2.02c.09.7.68,1.22,1.38,1.22h3.11c.7,0,1.3-.52,1.38-1.22l.25-2.02,2.06-1.19,1.87.79c.65.27,1.4.02,1.75-.59l1.56-2.7c.35-.61.19-1.38-.37-1.81l-1.62-1.23v-2.38l1.62-1.23c.56-.42.72-1.2.37-1.81l-1.56-2.7c-.35-.61-1.1-.86-1.75-.59l-1.87.79-2.07-1.19-.25-2.02c-.09-.7-.68-1.22-1.38-1.22h-3.11c-.7,0-1.3.52-1.38,1.22l-.25,2.02-2.07,1.19-1.87-.79c-.65-.27-1.4-.02-1.75.59l-1.56,2.7Zm10.43,8.94c2.6,0,4.72-2.11,4.72-4.72s-2.11-4.72-4.72-4.72-4.72,2.11-4.72,4.72,2.11,4.72,4.72,4.72Z"/>
    </g>
  </g>
</svg>