<?xml version="1.0" encoding="UTF-8"?>
<svg id="Layer_1" data-name="Layer 1" xmlns="http://www.w3.org/2000/svg" xmlns:xlink="http://www.w3.org/1999/xlink" viewBox="0 0 50 50">
  <defs>
    <style>
      .cls-1, .cls-2, .cls-3 {
        fill: none;
      }

      .cls-4 {
        fill: #0067b1;
      }

      .cls-5 {
        fill: #f47d30;
      }

      .cls-6 {
        fill: #f49058;
      }

      .cls-7 {
        fill: #fff;
      }

      .cls-8 {
        fill: #a58167;
      }

      .cls-9 {
        fill: #c9d9ef;
      }

      .cls-10 {
        fill: #d66729;
      }

      .cls-11 {
        fill: #150958;
      }

      .cls-12 {
        fill: #24418a;
      }

      .cls-2 {
        stroke: #fff;
        stroke-linecap: round;
        stroke-linejoin: round;
        stroke-width: 2px;
      }

      .cls-3 {
        mask: url(#mask);
      }
    </style>
    <mask id="mask" x="5" y="7" width="40.24" height="36" maskUnits="userSpaceOnUse">
      <g id="mask0_9591_2207" data-name="mask0 9591 2207">
        <path class="cls-8" d="m5,10.18c0-1.75,1.42-3.18,3.18-3.18h24.87c.35,0,.7.09,1.01.26l9.52,5.19c1.02.56,1.66,1.63,1.66,2.79v24.58c0,1.75-1.42,3.18-3.18,3.18h-25c-.96,0-1.9-.26-2.72-.75l-8.3-4.98c-.64-.38-1.03-1.07-1.03-1.82V10.18Z"/>
      </g>
    </mask>
  </defs>
  <rect class="cls-1" width="50" height="50"/>
  <g class="cls-3">
    <g>
      <path class="cls-6" d="m5,7h27.78c.53,0,1.05.13,1.52.39l10.94,5.97L5,17.59V7Z"/>
      <path class="cls-10" d="m5,9.81c0-1.23,1.35-2,2.41-1.36l7.67,4.6c.32.19.51.54.51.91v8.4l5.29,20.65h-3.83c-.96,0-1.9-.26-2.72-.75l-7.79-4.67c-.96-.57-1.54-1.61-1.54-2.72V9.81Z"/>
      <path class="cls-5" d="m15.59,14.41c0-.58.47-1.06,1.06-1.06h28.59v26.47c0,1.75-1.42,3.18-3.18,3.18h-23.29c-1.75,0-3.18-1.42-3.18-3.18V14.41Z"/>
      <path class="cls-9" d="m8.52,9.12h31.21l3.39,2.12H12.07l-3.55-2.12Z"/>
    </g>
  </g>
  <path class="cls-11" d="m8.53,9.12l3.55,2.12v8.6c0,.41-.45.67-.8.45l-2.49-1.49c-.16-.1-.26-.27-.26-.45v-9.23Z"/>
  <rect class="cls-7" x="19.29" y="16" width="11.12" height="12.71" rx=".79" ry=".79"/>
  <rect class="cls-9" x="20.88" y="17.59" width="7.94" height="1.59" rx=".79" ry=".79"/>
  <rect class="cls-9" x="20.88" y="20.76" width="4.76" height="1.59" rx=".79" ry=".79"/>
  <rect class="cls-12" x="20.88" y="23.94" width="1.59" height="3.18" rx=".32" ry=".32"/>
  <rect class="cls-12" x="25.65" y="23.94" width="1.59" height="3.18" rx=".32" ry=".32"/>
  <rect class="cls-12" x="23.26" y="23.94" width=".79" height="3.18" rx=".32" ry=".32"/>
  <rect class="cls-12" x="24.85" y="23.94" width=".4" height="3.18" rx=".2" ry=".2"/>
  <rect class="cls-12" x="28.03" y="23.94" width=".79" height="3.18" rx=".32" ry=".32"/>
  <rect class="cls-11" x="18.76" y="38.76" width="3.18" height="1.06"/>
  <rect class="cls-11" x="18.76" y="35.59" width="3.18" height="2.12"/>
  <path class="cls-11" d="m23,35.59h-5.29l2.65-3.18,2.65,3.18Z"/>
  <path class="cls-11" d="m8.5,9l3.55,2.12v8.6c0,.41-.45.67-.8.45l-2.49-1.49c-.16-.1-.26-.27-.26-.45v-9.23Z"/>
  <rect class="cls-7" x="19.26" y="15.88" width="11.12" height="12.71" rx=".79" ry=".79"/>
  <rect class="cls-9" x="20.85" y="17.47" width="7.94" height="1.59" rx=".79" ry=".79"/>
  <rect class="cls-9" x="20.85" y="20.64" width="4.76" height="1.59" rx=".79" ry=".79"/>
  <rect class="cls-12" x="20.85" y="23.82" width="1.59" height="3.18" rx=".32" ry=".32"/>
  <rect class="cls-12" x="25.62" y="23.82" width="1.59" height="3.18" rx=".32" ry=".32"/>
  <rect class="cls-12" x="23.23" y="23.82" width=".79" height="3.18" rx=".32" ry=".32"/>
  <path class="cls-12" d="m25.02,23.82h0c.11,0,.2.09.2.2v2.78c0,.11-.09.2-.2.2h0c-.11,0-.2-.09-.2-.2v-2.78c0-.11.09-.2.2-.2Z"/>
  <rect class="cls-12" x="28" y="23.82" width=".79" height="3.18" rx=".32" ry=".32"/>
  <rect class="cls-11" x="18.73" y="38.64" width="3.18" height="1.06"/>
  <rect class="cls-11" x="18.73" y="35.47" width="3.18" height="2.12"/>
  <path class="cls-11" d="m22.97,35.47h-5.29l2.65-3.18,2.65,3.18h0Z"/>
  <path class="cls-4" d="m37.47,27.88h0c5.25,0,9.5,4.25,9.5,9.5h0c0,5.25-4.25,9.5-9.5,9.5h0c-5.25,0-9.5-4.25-9.5-9.5h0c0-5.25,4.25-9.5,9.5-9.5Z"/>
  <path class="cls-2" d="m33.97,36.88l3,4,5-7"/>
</svg>