<?xml version="1.0" encoding="UTF-8"?>
<svg id="Layer_1" data-name="Layer 1" xmlns="http://www.w3.org/2000/svg" xmlns:xlink="http://www.w3.org/1999/xlink" viewBox="0 0 43.65 39">
  <defs>
    <style>
      .cls-1, .cls-2 {
        fill: none;
      }

      .cls-3 {
        fill: #150958;
      }

      .cls-2 {
        clip-path: url(#clippath);
      }
    </style>
    <clipPath id="clippath">
      <rect class="cls-1" width="43.65" height="39"/>
    </clipPath>
  </defs>
  <g class="cls-2">
    <g>
      <path class="cls-3" d="m11.21.27c-2.86.93-3.98,2.77-3.77,6.13.19,2.98,1.07,3.86,4.99,5.1,1.29.43,2.53.91,2.72,1.12.57.55.72,1.53.33,2.19-.79,1.41-2.12.55-2.12-1.34v-1h-2.84l-2.81-.02-.17,1.26c-.07.67-.14,1.86-.14,2.6q0,1.36,1.03,1.96c1.41.81,3.98,1.41,6.11,1.41,1.67-.02,1.91-.07,3.05-.86.69-.45,1.72-1.03,2.31-1.24.93-.36,1.12-.55,1.46-1.53.24-.69.29-1.12.12-1.17-.31-.12-.31-1,0-1,.36,0,.29-2.27-.1-3.17-.69-1.69-3.84-3.46-5.63-3.17-.5.07-.72.05-.52-.07.24-.14.1-.31-.6-.64-.79-.38-.91-.57-.98-1.34-.07-.79,0-.95.57-1.19.55-.26.67-.24,1.07.26.26.31.45.86.45,1.22v.64l2.67.14c1.46.1,2.7.14,2.72.1.05-.02.14-1.05.24-2.24l.17-2.17-.93-.62c-1.67-1.1-2.89-1.38-5.94-1.48-1.57-.05-3.12,0-3.46.12Zm8.66,10.85c.14.36-.02.62-.36.62-.1,0-.19-.21-.19-.48,0-.55.36-.64.55-.14Zm-6.51,5.63c0,.12-.1.24-.24.24-.12,0-.24-.12-.24-.24,0-.14.12-.24.24-.24.14,0,.24.1.24.24Zm-.81,1.57c-.55.38-1,.43-1.22.1-.19-.33,1.14-.98,1.43-.69.17.17.1.36-.21.6Z"/>
      <path class="cls-3" d="m25.79.92c-1.5.55-2.34,1.24-2.89,2.36-.64,1.34-.62,2.31.07,2.62.69.31.72,1.34,0,1.67-.48.24-.45.29.57.83,1.22.64,3.77,3.08,4.01,3.82.1.26.24.48.33.48.19,0,.5-3.65.5-6.15,0-1.36.05-1.5.6-1.77.88-.41,1.26.07,1.36,1.67l.07,1.36,2.93.07,2.91.07V2.68l-.76-.48c-1.77-1.1-3.34-1.5-6.03-1.6-1.98-.05-2.89.02-3.67.31Z"/>
      <path class="cls-3" d="m22.18,12.08c0,1.74.07,3.53.14,3.94.14.72.17.74,1.15.57.52-.1,1.91-.19,3.08-.19s2.08-.07,2.08-.19c0-.69-1.6-3.48-2.65-4.58-1.17-1.22-3.15-2.74-3.6-2.74-.1,0-.19,1.43-.19,3.2Zm2.15,1.38c0,.17-.21.57-.48.91-.36.48-.55.55-.86.33-.72-.43-.64-.81.19-1.17.98-.43,1.15-.43,1.15-.07Z"/>
      <path class="cls-3" d="m30.29,13.23c0,1.91-.17,2.53-.74,2.7-.72.24-.33.55,1.05.83.67.14,2.03.62,3.01,1.05.98.45,1.91.76,2.1.69.26-.1.31-.72.29-2.84-.05-2.53-.07-2.72-.5-2.72-.26,0-.52-.21-.6-.48-.14-.55-.19-.57-.81-.21-.38.19-.6.17-.91-.12-.26-.24-.86-.38-1.65-.38h-1.24v1.48Z"/>
      <path class="cls-3" d="m25.88,18c-1.05.12-2,.33-2.12.45-.29.26,2.03,1.31,3.39,1.53.98.17,1,.19,1,1.03,0,.88-.02.88-1.05.95-1.38.1-2.62-.57-2.72-1.48-.07-.62-.12-.64-1.43-.57l-1.36.07.1,1.65c.02.93.21,1.88.38,2.15.36.55.79,9.23.5,10.11-.21.67-1.45.74-1.79.1-.33-.64-.62-10.21-.29-10.4.14-.1.26-.86.26-1.84v-1.65h-1.43c-1.05,0-1.48.1-1.57.36-.12.29-.24.29-.64.07-.38-.19-.52-.19-.6.02-.07.21-.17.21-.43,0-.26-.21-.48-.21-.88-.02-.29.14-.74.29-1,.33-.72.12-.52,2.41.31,3.51.33.45.48.74.33.64-.31-.19-.36,4.13-.07,7.01l.14,1.55,1.55.79c2.7,1.34,6.8,1.86,9.78,1.22.98-.21,1.26-.38,1.48-.88.17-.43.19-2.46.12-5.77-.12-5.1.07-7.39.38-4.77.1.72.17,1.88.17,2.55v1.26h4.06v-2c0-1.45.1-2.08.36-2.29.5-.41.55.1.69,5.46.1,3.43.19,4.68.43,4.82.21.14.17.21-.19.21-.67,0-.74.26-.62,2.12l.1,1.53,2.53-.17c1.38-.07,2.91-.14,3.43-.14h.91v-1.62c-.02-1.03-.14-1.77-.36-2.05-.19-.26-.36-.93-.36-1.53,0-.76-.07-.98-.29-.86-.24.12-.24.1-.02-.14.19-.21.24-1.34.14-4.08-.12-2.84-.07-3.79.14-3.79.43,0,.74,1.1.74,2.65v1.41h.98c.91,0,.98-.05,1.43-1.07.6-1.36,1.17-4.29,1.17-6.01v-1.31l-2.67.14c-4.96.26-6.92.24-6.42-.07.24-.17.02-.31-.86-.57-1.03-.31-3.75-.76-4.13-.69-.05,0-.24.43-.38.93l-.29.91-.02-1.03c-.02-1.15.19-1.1-3.01-.72Zm.07,10.61c-.24.05-.62.05-.83,0-.24-.07-.05-.12.41-.12s.64.05.43.12Zm12.45,3.27s-.19.24-.41.41c-.38.31-.41.29-.1-.1.31-.38.5-.5.5-.31Zm-1.77,1.22c-.26.19-.6.36-.72.36-.14-.02,0-.17.33-.36.76-.45.95-.43.38,0Zm-1.34.6c-.19.12-.52.21-.72.21-.24,0-.19-.07.12-.21.64-.29,1.03-.29.6,0Z"/>
      <path class="cls-3" d="m4.29,20.43c-2.41.52-3.41,1.36-4.06,3.34-.33,1.05-.14,9.64.26,11.78.29,1.43,1.14,2.58,2.29,3.05,1.6.67,8.09.17,9.45-.74,1-.64,1.6-2.17,1.6-4.06,0-1.53-.05-1.72-.76-2.5l-.79-.83.81.72.81.72-.17-3.94c-.12-3.41-.21-4.08-.69-5.01-.48-.98-.6-1.07-1.34-1.03-1.05.05-1.19.21-1.45,1.88l-.21,1.41.07-1.62c.1-1.5.05-1.65-.43-1.88-.31-.12-.72-.55-.95-.93-.38-.64-.5-.69-1.77-.67-.74,0-1.96.14-2.67.31Zm3.32,4.15c.12.24.31,2.58.41,5.2.14,4.2.12,4.79-.21,5.06-.55.45-1.19.26-1.5-.43-.17-.33-.33-2.53-.41-5.06-.12-3.79-.07-4.53.21-4.84.5-.48,1.22-.45,1.5.07Zm2.81,1.77c-.07.19-.14.12-.14-.14-.02-.26.05-.41.12-.31.07.07.1.29.02.45Zm1.62,3.43c.21.36.29.55.14.48-.26-.17-.83-1.1-.67-1.1.07,0,.29.29.52.62Z"/>
      <path class="cls-3" d="m14.93,34.58c.38,1.62,1.41,2.79,2.74,3.17,1.43.41,5.75.57,6.75.24.48-.14.81-.36.74-.43-.1-.1-.88-.29-1.79-.43-2.41-.41-5.53-1.48-7.06-2.39-.74-.45-1.38-.81-1.43-.81-.07,0-.02.29.05.64Z"/>
    </g>
  </g>
</svg>