<?xml version="1.0" encoding="UTF-8"?>
<svg id="Layer_1" data-name="Layer 1" xmlns="http://www.w3.org/2000/svg" viewBox="0 0 31 25.31">
  <defs>
    <style>
      .cls-1 {
        stroke: #150958;
      }

      .cls-1, .cls-2 {
        fill: none;
        stroke-linecap: round;
        stroke-linejoin: round;
        stroke-width: 4px;
      }

      .cls-2 {
        stroke: #0067b1;
      }

      .cls-3 {
        fill: #150958;
      }

      .cls-3, .cls-4 {
        fill-rule: evenodd;
      }

      .cls-4 {
        fill: #0067b1;
      }
    </style>
  </defs>
  <path class="cls-2" d="m29,13.66c0,3.31-2.69,6-6,6H7"/>
  <path class="cls-4" d="m10.45,14.16l-7.17,4.66c-.46.3-.59.92-.29,1.38.08.12.18.22.29.29l7.17,4.66c.46.3,1.08.17,1.38-.29.11-.16.16-.35.16-.54v-9.31c0-.55-.45-1-1-1-.19,0-.38.06-.55.16Z"/>
  <path class="cls-1" d="m2,11.66c0-3.31,2.69-6,6-6h16"/>
  <path class="cls-3" d="m20.55,11.15l7.17-4.66c.46-.3.59-.92.29-1.38-.08-.12-.18-.22-.29-.29L20.55.16c-.46-.3-1.08-.17-1.38.29-.11.16-.16.35-.16.55v9.31c0,.55.45,1,1,1,.19,0,.38-.06.55-.16Z"/>
</svg>