<?xml version="1.0" encoding="UTF-8"?>
<svg id="Layer_1" data-name="Layer 1" xmlns="http://www.w3.org/2000/svg" xmlns:xlink="http://www.w3.org/1999/xlink" viewBox="0 0 48 37">
  <defs>
    <style>
      .cls-1 {
        fill: #0067b1;
      }

      .cls-2 {
        fill: #150958;
      }

      .cls-3 {
        fill: #24418a;
      }

      .cls-4 {
        fill: #295d2e;
      }

      .cls-5 {
        fill: none;
        mask: url(#mask);
      }

      .cls-6 {
        fill: #0a5732;
      }

      .cls-6, .cls-7 {
        fill-rule: evenodd;
      }

      .cls-7 {
        fill: #c9d9ef;
      }
    </style>
    <mask id="mask" x="8.74" y="0" width="14.95" height="27.49" maskUnits="userSpaceOnUse">
      <g id="mask1_13946_1558" data-name="mask1 13946 1558">
        <path class="cls-6" d="m17.73.76c-.65-1.01-2.12-1.01-2.77,0l-2.82,4.38c-.63.97-.08,2.22.96,2.49l-2.38,4.19c-.58,1.03.07,2.28,1.19,2.45l-2.36,4.15c-.62,1.09.16,2.45,1.41,2.46l-1.83,4.31c-.46,1.09.34,2.3,1.52,2.3h11.39c1.18,0,1.98-1.21,1.52-2.3l-1.83-4.31c1.25-.02,2.03-1.37,1.41-2.46l-2.36-4.15c1.12-.16,1.77-1.42,1.19-2.45l-2.38-4.19c1.04-.27,1.59-1.52.96-2.49l-2.82-4.38Z"/>
      </g>
    </mask>
  </defs>
  <path class="cls-7" d="m39.64,1.92c-.79-1.23-2.59-1.23-3.38,0l-3.44,5.34c-.76,1.19-.1,2.71,1.17,3.04l-2.9,5.1c-.71,1.25.09,2.78,1.45,2.98l-2.87,5.06c-.76,1.33.2,2.98,1.72,3l-2.23,5.24c-.56,1.33.41,2.8,1.85,2.8h13.88c1.44,0,2.41-1.47,1.85-2.8l-2.23-5.24c1.52-.02,2.47-1.67,1.72-3l-2.87-5.06c1.36-.2,2.15-1.73,1.45-2.98l-2.9-5.1c1.27-.33,1.94-1.85,1.18-3.04l-3.44-5.34Z"/>
  <path class="cls-7" d="m11.74,3.2c-.58-.9-1.89-.9-2.47,0l-2.52,3.9c-.56.87-.07,1.98.86,2.22l-2.12,3.73c-.52.91.06,2.03,1.06,2.18l-2.1,3.7c-.55.97.14,2.18,1.26,2.2l-1.63,3.84c-.41.97.3,2.05,1.35,2.05h10.15c1.05,0,1.77-1.08,1.35-2.05l-1.63-3.84c1.11-.02,1.81-1.22,1.26-2.2l-2.1-3.7c.99-.15,1.58-1.27,1.06-2.18l-2.12-3.73c.93-.24,1.42-1.35.86-2.22l-2.52-3.9Z"/>
  <path class="cls-7" d="m17.73.76c-.65-1.01-2.12-1.01-2.77,0l-2.82,4.38c-.63.97-.08,2.22.96,2.49l-2.38,4.19c-.58,1.03.07,2.28,1.19,2.45l-2.36,4.15c-.62,1.09.16,2.45,1.41,2.46l-1.83,4.31c-.46,1.09.34,2.3,1.52,2.3h11.39c1.18,0,1.98-1.21,1.52-2.3l-1.83-4.31c1.25-.02,2.03-1.37,1.41-2.46l-2.36-4.15c1.12-.16,1.77-1.42,1.19-2.45l-2.38-4.19c1.04-.27,1.59-1.52.96-2.49l-2.82-4.38Z"/>
  <g class="cls-5">
    <path class="cls-4" d="m8.74,20.88h9.95l-9.95,2.48v-2.48Z"/>
  </g>
  <path class="cls-2" d="m0,32c8.5-7,13-22,13-22l-5,22H0Z"/>
  <path class="cls-2" d="m17,25l25,2v9c0,.55-.45,1-1,1h-24v-12Z"/>
  <path class="cls-3" d="m13,10l8.93,21.82c.05.12.07.25.07.38v4.8H4v-4.77c0-.15.03-.3.1-.44.95-1.97,8.43-17.58,8.9-21.79Z"/>
  <path class="cls-2" d="m13.25,17.85c-.02-.25-.48-.25-.5,0-.59,5.86-2.27,18.77-5.75,19.15h12c-3.47-.39-5.16-13.29-5.75-19.15Z"/>
  <path class="cls-1" d="m13,14v-4s7.02,2,12.5,2c4.86,0,9.39-1.31,10.94-1.81.29-.1.61.09.67.39,2.14,10.73,8.92,19.45,10.89,21.42h-24c-2-2-6.5-6-11-18Z"/>
  <path class="cls-1" d="m13,14C11,25,1,31,0,32c2-2,8.83-8.83,13-22,3.5,13,9,20,11,22-1-1-9-7-11-18Z"/>
</svg>