<?xml version="1.0" encoding="UTF-8"?>
<svg id="Layer_1" data-name="Layer 1" xmlns="http://www.w3.org/2000/svg" viewBox="0 0 43.73 28.73">
  <defs>
    <style>
      .cls-1 {
        fill: #fff;
      }

      .cls-2, .cls-3 {
        fill: #150958;
      }

      .cls-3, .cls-4 {
        fill-rule: evenodd;
      }

      .cls-4 {
        fill: #0067b1;
      }
    </style>
  </defs>
  <path class="cls-3" d="m33.37.02c1.09-.16,2.11.6,2.27,1.69l2.47,16.82c.16,1.09-.6,2.11-1.69,2.27l-31.66,4.64c-1.09.16-2.11-.6-2.27-1.69l-.67-4.54c.08,0,.16-.02.24-.03,2.19-.32,3.7-2.35,3.38-4.54-.32-2.19-2.35-3.7-4.54-3.38-.08.01-.16.03-.24.04L.02,6.93c-.16-1.09.6-2.11,1.69-2.27L33.37.02Z"/>
  <path class="cls-4" d="m7.73,7.73c-1.1,0-2,.9-2,2v4.5c2.21,0,4,1.79,4,4s-1.79,4-4,4v4.5c0,1.1.9,2,2,2h34c1.1,0,2-.9,2-2V9.73c0-1.1-.9-2-2-2H7.73Z"/>
  <path class="cls-2" d="m29.73,19.73c0-.55.45-1,1-1h0c.55,0,1,.45,1,1v1c0,.55-.45,1-1,1h0c-.55,0-1-.45-1-1v-1Z"/>
  <path class="cls-2" d="m14.23,13.73h6c.83,0,1.5.67,1.5,1.5h0c0,.83-.67,1.5-1.5,1.5h-6c-.83,0-1.5-.67-1.5-1.5h0c0-.83.67-1.5,1.5-1.5Z"/>
  <path class="cls-2" d="m14.23,18.73h2c.83,0,1.5.67,1.5,1.5h0c0,.83-.67,1.5-1.5,1.5h-2c-.83,0-1.5-.67-1.5-1.5h0c0-.83.67-1.5,1.5-1.5Z"/>
  <rect class="cls-1" x="24.73" y="9.73" width="17" height="17" rx="1" ry="1"/>
  <path class="cls-3" d="m26.98,12.61c0-.35.28-.62.62-.62h4.38c.35,0,.62.28.62.62v4.38c0,.35-.28.62-.62.62h-4.38c-.35,0-.62-.28-.62-.62v-4.38Zm4.38.62h-3.12v3.12h3.12v-3.12Zm3.12-1.25c-.35,0-.62.28-.62.62v4.38c0,.35.28.62.62.62h4.38c.35,0,.62-.28.62-.62v-4.38c0-.35-.28-.62-.62-.62h-4.38Zm3.75,4.38h-3.12v-3.12h3.12v3.12Zm-10.62,2.5c-.35,0-.62.28-.62.62v4.38c0,.35.28.62.62.62h4.38c.35,0,.62-.28.62-.62v-4.38c0-.35-.28-.62-.62-.62h-4.38Zm3.75,4.38h-3.12v-3.12h3.12v3.12Zm6.25-.31c0-.17.14-.31.31-.31h1.25c.17,0,.31.14.31.31v1.25c0,.17-.14.31-.31.31h-1.25c-.17,0-.31-.14-.31-.31v-1.25Zm-1.56-2.19c-.17,0-.31.14-.31.31v1.25c0,.17.14.31.31.31h1.25c.17,0,.31-.14.31-.31v-1.25c0-.17-.14-.31-.31-.31h-1.25Zm-2.19,2.19c0-.17.14-.31.31-.31h1.25c.17,0,.31.14.31.31v1.25c0,.17-.14.31-.31.31h-1.25c-.17,0-.31-.14-.31-.31v-1.25Zm.31-4.06c-.17,0-.31.14-.31.31v1.25c0,.17.14.31.31.31h1.25c.17,0,.31-.14.31-.31v-1.25c0-.17-.14-.31-.31-.31h-1.25Zm3.44.31c0-.17.14-.31.31-.31h1.25c.17,0,.31.14.31.31v1.25c0,.17-.14.31-.31.31h-1.25c-.17,0-.31-.14-.31-.31v-1.25Zm-8.44-5.31c-.17,0-.31.14-.31.31v1.25c0,.17.14.31.31.31h1.25c.17,0,.31-.14.31-.31v-1.25c0-.17-.14-.31-.31-.31h-1.25Zm6.56.31c0-.17.14-.31.31-.31h1.25c.17,0,.31.14.31.31v1.25c0,.17-.14.31-.31.31h-1.25c-.17,0-.31-.14-.31-.31v-1.25Zm-6.56,6.56c-.17,0-.31.14-.31.31v1.25c0,.17.14.31.31.31h1.25c.17,0,.31-.14.31-.31v-1.25c0-.17-.14-.31-.31-.31h-1.25Z"/>
</svg>