<?xml version="1.0" encoding="UTF-8"?>
<svg id="Layer_1" data-name="Layer 1" xmlns="http://www.w3.org/2000/svg" viewBox="0 0 35 41">
  <defs>
    <style>
      .cls-1 {
        fill: #fff;
      }

      .cls-2 {
        fill: #ffcad3;
      }

      .cls-3 {
        fill: #ef3e42;
      }

      .cls-4 {
        fill: #c9d9ef;
      }

      .cls-5 {
        fill: #e1e9f4;
      }

      .cls-6 {
        fill: #24418a;
      }

      .cls-7 {
        fill: #840018;
      }
    </style>
  </defs>
  <path class="cls-4" d="m1,1c0-.55.45-1,1-1h30c.55,0,1,.45,1,1v14H1V1Z"/>
  <path class="cls-5" d="m1,15h32l2,9H0l1-9Z"/>
  <g>
    <path class="cls-2" d="m0,28h35v11c0,1.1-.9,2-2,2H2c-1.1,0-2-.9-2-2v-11Z"/>
    <path class="cls-4" d="m0,24h35v4H0v-4Z"/>
    <path class="cls-3" d="m0,27h35v2H0v-2Z"/>
    <path class="cls-7" d="m2.5,31h5c.28,0,.5.22.5.5h0c0,.28-.22.5-.5.5H2.5c-.28,0-.5-.22-.5-.5h0c0-.28.22-.5.5-.5Z"/>
    <path class="cls-7" d="m2.5,34h3c.28,0,.5.22.5.5h0c0,.28-.22.5-.5.5h-3c-.28,0-.5-.22-.5-.5h0c0-.28.22-.5.5-.5Z"/>
    <path class="cls-7" d="m2.5,37h6c.28,0,.5.22.5.5h0c0,.28-.22.5-.5.5H2.5c-.28,0-.5-.22-.5-.5h0c0-.28.22-.5.5-.5Z"/>
  </g>
  <rect class="cls-1" x="14" y="31" width="3" height="2" rx=".25" ry=".25"/>
  <rect class="cls-1" x="10" y="31" width="3" height="2" rx=".25" ry=".25"/>
  <rect class="cls-1" x="18" y="31" width="3" height="2" rx=".25" ry=".25"/>
  <rect class="cls-1" x="18" y="34" width="3" height="2" rx=".25" ry=".25"/>
  <rect class="cls-1" x="18" y="37" width="3" height="2" rx=".25" ry=".25"/>
  <rect class="cls-1" x="22" y="31" width="3" height="2" rx=".25" ry=".25"/>
  <rect class="cls-1" x="26" y="31" width="3" height="2" rx=".25" ry=".25"/>
  <rect class="cls-1" x="30" y="31" width="3" height="2" rx=".25" ry=".25"/>
  <rect class="cls-1" x="22" y="34" width="3" height="2" rx=".25" ry=".25"/>
  <rect class="cls-1" x="26" y="34" width="3" height="2" rx=".25" ry=".25"/>
  <rect class="cls-1" x="30" y="34" width="3" height="2" rx=".25" ry=".25"/>
  <rect class="cls-1" x="22" y="37" width="3" height="2" rx=".25" ry=".25"/>
  <rect class="cls-1" x="26" y="37" width="3" height="2" rx=".25" ry=".25"/>
  <rect class="cls-1" x="30" y="37" width="3" height="2" rx=".25" ry=".25"/>
  <rect class="cls-1" x="14" y="34" width="3" height="2" rx=".25" ry=".25"/>
  <rect class="cls-1" x="10" y="34" width="3" height="2" rx=".25" ry=".25"/>
  <rect class="cls-1" x="14" y="37" width="3" height="2" rx=".25" ry=".25"/>
  <rect class="cls-1" x="10" y="37" width="3" height="2" rx=".25" ry=".25"/>
  <rect class="cls-7" x="17" y="32.5" width="1" height="1" rx=".25" ry=".25"/>
  <rect class="cls-7" x="13" y="32.5" width="1" height="1" rx=".25" ry=".25"/>
  <rect class="cls-7" x="21" y="32.5" width="1" height="1" rx=".25" ry=".25"/>
  <rect class="cls-7" x="25" y="32.5" width="1" height="1" rx=".25" ry=".25"/>
  <rect class="cls-7" x="29" y="32.5" width="1" height="1" rx=".25" ry=".25"/>
  <rect class="cls-7" x="21" y="35.5" width="1" height="1" rx=".25" ry=".25"/>
  <rect class="cls-7" x="25" y="35.5" width="1" height="1" rx=".25" ry=".25"/>
  <rect class="cls-7" x="29" y="35.5" width="1" height="1" rx=".25" ry=".25"/>
  <rect class="cls-7" x="21" y="38.5" width="1" height="1" rx=".25" ry=".25"/>
  <rect class="cls-7" x="25" y="38.5" width="1" height="1" rx=".25" ry=".25"/>
  <rect class="cls-7" x="29" y="38.5" width="1" height="1" rx=".25" ry=".25"/>
  <rect class="cls-7" x="17" y="35.5" width="1" height="1" rx=".25" ry=".25"/>
  <rect class="cls-7" x="13" y="35.5" width="1" height="1" rx=".25" ry=".25"/>
  <rect class="cls-7" x="17" y="38.5" width="1" height="1" rx=".25" ry=".25"/>
  <rect class="cls-7" x="13" y="38.5" width="1" height="1" rx=".25" ry=".25"/>
  <path class="cls-6" d="m4,21.5c0-.28.22-.5.5-.5h10c.28,0,.5.22.5.5h0c0,.28-.22.5-.5.5H4.5c-.28,0-.5-.22-.5-.5h0Z"/>
  <path class="cls-6" d="m5,18.5c0-.28.22-.5.5-.5h10c.28,0,.5.22.5.5h0c0,.28-.22.5-.5.5H5.5c-.28,0-.5-.22-.5-.5h0Z"/>
  <path class="cls-6" d="m25,21.5c0-.28.22-.5.5-.5h5c.28,0,.5.22.5.5h0c0,.28-.22.5-.5.5h-5c-.28,0-.5-.22-.5-.5h0Z"/>
  <path class="cls-6" d="m24,18.5c0-.28.22-.5.5-.5h5c.28,0,.5.22.5.5h0c0,.28-.22.5-.5.5h-5c-.28,0-.5-.22-.5-.5h0Z"/>
  <path class="cls-6" d="m25,25.5c0-.28.22-.5.5-.5h6c.28,0,.5.22.5.5h0c0,.28-.22.5-.5.5h-6c-.28,0-.5-.22-.5-.5h0Z"/>
  <path class="cls-6" d="m6,7c0-.55.45-1,1-1h13c.55,0,1,.45,1,1h0c0,.55-.45,1-1,1H7c-.55,0-1-.45-1-1h0Z"/>
  <path class="cls-6" d="m6,10c0-.55.45-1,1-1h7c.55,0,1,.45,1,1h0c0,.55-.45,1-1,1h-7c-.55,0-1-.45-1-1h0Z"/>
</svg>