<?xml version="1.0" encoding="UTF-8"?>
<svg id="Layer_1" data-name="Layer 1" xmlns="http://www.w3.org/2000/svg" xmlns:xlink="http://www.w3.org/1999/xlink" viewBox="0 0 30.51 67.78">
  <defs>
    <style>
      .cls-1 {
        fill: #0067b1;
      }

      .cls-2 {
        fill: #000716;
      }

      .cls-3 {
        fill: #fecda9;
      }

      .cls-4 {
        fill: none;
        mask: url(#mask);
      }

      .cls-5 {
        fill: #002573;
        fill-rule: evenodd;
      }
    </style>
    <mask id="mask" x="0" y="27.91" width="30.51" height="39.87" maskUnits="userSpaceOnUse">
      <g id="mask0_12490_2565" data-name="mask0 12490 2565">
        <path class="cls-5" d="m30.4,40.39c-4.58,1.13-9.99,1.47-15.18,1.47S4.59,41.52,0,40.38c0-.61,0-1.21,0-1.8.02-4.75,3.22-8.96,7.89-9.83,2.51-.47,5.23-.84,7.47-.84s4.96.37,7.47.84c4.67.87,7.87,5.09,7.66,9.83-.03.6-.06,1.2-.09,1.81Z"/>
      </g>
    </mask>
  </defs>
  <path class="cls-2" d="m4.07,11.96h22.59c.66,17.28-9.97,21.93-9.97,21.93-9.3.66-11.3-1.33-11.3-1.33,13.29-3.99-.66-1.99-.66-1.99l-3.99-5.32c7.31-1.99,3.32-13.29,3.32-13.29Z"/>
  <g class="cls-4">
    <g>
      <path class="cls-1" d="m0,38.58c.02-4.75,3.22-8.96,7.89-9.83,2.51-.47,5.23-.84,7.47-.84s4.96.37,7.47.84c4.67.87,7.87,5.09,7.66,9.83-.59,13.12-3.39,29.2-16.46,29.2S-.06,51.7,0,38.58Z"/>
      <path class="cls-3" d="m11.38,27.91h7.97c0,1.56-1.06,2.95-2.6,3.19-.51.08-1,.13-1.38.13s-.88-.06-1.38-.13c-1.54-.24-2.6-1.63-2.6-3.19h0Z"/>
    </g>
  </g>
  <circle class="cls-2" cx="15.36" cy="11.3" r="11.3"/>
  <path class="cls-3" d="m5.4,12.62c0-5.5,4.46-9.97,9.97-9.97h0c5.5,0,9.97,4.46,9.97,9.97v3.99c0,5.5-4.46,9.97-9.97,9.97h0c-5.5,0-9.97-4.46-9.97-9.97v-3.99Z"/>
  <path class="cls-3" d="m13.37,18.61h3.99v9.3c0,1.1-.89,1.99-1.99,1.99h0c-1.1,0-1.99-.89-1.99-1.99v-9.3Z"/>
  <path class="cls-2" d="m25.33,9.3c-7.97,0-10.63,12.62-23.92,10.63,3.99-5.98.66-11.3,5.98-16.61l1.33-.66,6.64-1.33,7.97,2.66,1.99,5.32Z"/>
</svg>