<svg width="240" height="240" viewBox="0 0 240 240" fill="none" xmlns="http://www.w3.org/2000/svg">
<rect width="240" height="240" rx="50" fill="#00AEEF"/>
<g clip-path="url(#clip0)">
<path d="M120.446 103.736C134.105 103.736 145.176 92.6649 145.176 79.0071C145.176 65.3501 134.105 54.2776 120.446 54.2776C106.787 54.2776 95.7144 65.3501 95.7144 79.0071C95.7144 92.6649 106.787 103.736 120.446 103.736" fill="white"/>
<path d="M138.687 99.0154C133.975 104.123 125.666 109.232 115.005 109.232C106.734 109.232 99.611 106.017 95.0811 102.444C68.0807 105.277 48 109.292 48 109.292V120.226L191.241 120.211V97.6692C191.241 97.6692 166.697 97.5176 138.687 99.0154Z" fill="white"/>
<path d="M65.0163 152.194V165.514H48V130.075H65.0163V146.022H65.1151L75.129 130.075H95.5316L80.5919 148.389L94.6877 165.514H75.2183L65.133 152.194H65.0163Z" fill="white"/>
<path d="M191.241 164.05C187.224 165.276 181.947 166 177.224 166C160.39 166 148.031 161.215 148.031 147.299C148.031 134.723 160.011 129.259 176.386 129.259C180.937 129.259 186.719 129.762 191.241 131.205L191.234 143.386C187.884 141.357 184.532 140.092 179.732 140.092C173.486 140.092 167.244 143.167 167.244 147.632C167.244 152.107 173.459 155.173 179.732 155.173C184.455 155.173 187.884 153.865 191.234 151.929L191.241 164.05" fill="white"/>
<path d="M115.334 145.093H123.809C127.085 145.093 128.367 143.767 128.367 141.732C128.367 139.4 127.073 138.235 124.045 138.235H115.333L115.334 145.093ZM115.334 158.309H124.206C127.531 158.309 128.664 156.932 128.664 154.897C128.664 152.863 127.519 151.401 124.243 151.401H115.333L115.334 158.309ZM98.3184 130.075H132.715C141.65 130.075 144.578 133.549 144.578 138.958C144.578 145.013 139.167 147.644 133.609 147.942V148.041C139.316 148.489 144.876 149.133 144.876 156.281C144.876 160.947 141.947 165.514 132.119 165.514H98.3184V130.075Z" fill="white"/>
</g>
<defs>
<clipPath id="clip0">
<rect width="143.889" height="112" fill="white" transform="translate(48 54)"/>
</clipPath>
</defs>
</svg>
