<svg width="476" height="476" viewBox="0 0 476 476" fill="none" xmlns="http://www.w3.org/2000/svg">
<g filter="url(#filter0_d)">
<path d="M380.488 353.249C380.488 368.266 368.271 380.484 353.254 380.484H122.499C107.481 380.484 95.2637 368.266 95.2637 353.249L95.2642 122.501C95.2642 107.482 107.481 95.2639 122.5 95.2639H353.255C368.272 95.2639 380.489 107.482 380.489 122.501L380.488 353.249Z" fill="white" fill-opacity="0.01"/>
</g>
<path d="M95.2642 253.956V122.501C95.2642 107.482 107.481 95.2639 122.5 95.2639H353.255C368.272 95.2639 380.489 107.482 380.489 122.501V253.956H95.2642Z" fill="#FF4785"/>
<path d="M95.2637 253.95V353.249C95.2637 368.266 107.481 380.484 122.499 380.484H353.254C368.271 380.484 380.488 368.266 380.488 353.249V253.95H95.2637Z" fill="white"/>
<path d="M277.263 166.289C269.333 166.289 262.905 159.861 262.905 151.932C262.905 144.003 269.333 137.575 277.263 137.575C285.193 137.575 291.62 144.003 291.62 151.932C291.62 159.861 285.193 166.289 277.263 166.289ZM198.474 166.289C190.544 166.289 184.116 159.861 184.116 151.932C184.116 144.003 190.544 137.575 198.474 137.575C206.403 137.575 212.831 144.003 212.831 151.932C212.831 159.861 206.403 166.289 198.474 166.289ZM277.263 119.93C270.313 119.93 263.887 122.151 258.639 125.914L230.048 146.72C227.558 131.525 214.372 119.93 198.474 119.93C180.798 119.93 166.472 134.257 166.472 151.932C166.472 169.607 180.798 183.935 198.474 183.935C205.461 183.935 211.921 181.689 217.183 177.89L245.691 157.152C248.183 172.342 261.366 183.935 277.263 183.935C294.937 183.935 309.266 169.607 309.266 151.932C309.266 134.257 294.937 119.93 277.263 119.93Z" fill="white"/>
<path d="M263.711 216.301C263.711 213.22 261.233 210.713 258.189 210.713C255.143 210.713 252.664 213.22 252.664 216.301C252.664 219.383 255.143 221.891 258.189 221.891C261.233 221.891 263.711 219.383 263.711 216.301ZM271.126 216.301C271.126 223.521 265.321 229.394 258.189 229.394C251.054 229.394 245.25 223.521 245.25 216.301C245.25 209.082 251.054 203.208 258.189 203.208C265.321 203.208 271.126 209.082 271.126 216.301ZM219.372 203.448H211.846L206.5 217.146L200.746 203.448H192.72L202.929 226.301L199.401 235.341H206.925L219.372 203.448ZM286.494 203.426C284.904 203.426 283.291 203.75 281.777 204.366V203.391H274.362V229.307H281.777V215.675C281.777 211.062 286.011 210.929 286.494 210.929C287.735 210.929 288.857 211.338 289.655 212.08C290.566 212.925 291.025 214.191 291.025 215.838V229.137H298.441V215.838C298.441 207.689 292.431 203.426 286.494 203.426ZM182.614 215.654C182.295 212.877 179.958 210.713 177.131 210.713C174.086 210.713 171.608 213.22 171.608 216.301C171.608 219.383 174.086 221.891 177.131 221.891C179.958 221.891 182.295 219.726 182.614 216.95V215.654ZM190.028 229.307H182.614V228.143C180.947 228.937 179.092 229.394 177.131 229.394C169.996 229.394 164.193 223.521 164.193 216.301C164.193 209.082 169.996 203.208 177.131 203.208C179.092 203.208 180.947 203.666 182.614 204.46V203.391H190.028V229.307ZM154.511 216.301C154.511 213.22 152.034 210.713 148.989 210.713C145.943 210.713 143.466 213.22 143.466 216.301C143.466 219.383 145.943 221.891 148.989 221.891C152.034 221.891 154.511 219.383 154.511 216.301ZM161.928 216.301C161.928 223.521 156.123 229.394 148.989 229.394C146.966 229.394 145.058 228.908 143.352 228.068V235.258H135.938V203.391H143.352V204.536C145.058 203.694 146.966 203.208 148.989 203.208C156.123 203.208 161.928 209.082 161.928 216.301ZM232.325 210.713C234.184 210.713 235.909 211.656 236.938 213.235L243.131 209.107C240.726 205.414 236.687 203.208 232.325 203.208C225.19 203.208 219.386 209.082 219.386 216.301C219.386 223.521 225.19 229.394 232.325 229.394C236.647 229.394 240.664 227.223 243.076 223.587L236.915 219.406C235.886 220.963 234.17 221.891 232.325 221.891C229.279 221.891 226.801 219.383 226.801 216.301C226.801 213.22 229.279 210.713 232.325 210.713ZM332.348 216.301C332.348 213.22 329.871 210.713 326.825 210.713C323.78 210.713 321.301 213.22 321.301 216.301C321.301 219.383 323.78 221.891 326.825 221.891C329.871 221.891 332.348 219.383 332.348 216.301ZM339.819 203.391V235.258H332.405V228.096C330.712 228.919 328.825 229.394 326.825 229.394C319.69 229.394 313.887 223.521 313.887 216.301C313.887 209.082 319.69 203.208 326.825 203.208C328.825 203.208 330.712 203.684 332.405 204.507V203.391H339.819ZM306.9 191.806C304.513 191.804 302.576 193.76 302.573 196.176C302.571 198.592 304.504 200.552 306.892 200.555C309.279 200.556 311.216 198.6 311.218 196.184C311.22 193.769 309.287 191.809 306.9 191.806ZM303.198 203.341H310.612V229.307H303.198V203.341Z" fill="white"/>
<path d="M306.702 361.564C303.195 361.564 301.398 359.649 301.398 355.76V349.395H299.394V346.154H301.398V342.883L305.464 342.677V346.154H308.735V349.395H305.464V355.701C305.464 357.41 306.171 358.206 307.497 358.206C308.116 358.206 308.676 358.117 309.058 358.029L309.266 361.3C308.558 361.475 307.615 361.564 306.702 361.564ZM297.761 346.684L296.996 349.896C295.876 349.424 294.668 349.159 293.666 349.159C291.279 349.159 289.982 350.839 289.982 353.609C289.982 356.643 291.338 358.206 293.872 358.206C294.845 358.206 296.023 357.94 297.142 357.439L297.791 360.71C296.789 361.211 295.256 361.564 293.548 361.564C288.657 361.564 285.827 358.53 285.827 353.727C285.827 348.954 288.627 345.801 293.312 345.801C294.992 345.801 296.671 346.183 297.761 346.684ZM279.9 358.235V355.082C279.223 354.935 278.516 354.846 277.808 354.846C276.453 354.846 275.392 355.377 275.392 356.761C275.392 357.999 276.277 358.647 277.838 358.647C278.722 358.647 279.459 358.471 279.9 358.235ZM277.426 361.564C273.388 361.564 271.355 359.59 271.355 356.938C271.355 354.022 273.742 352.312 277.279 352.282C278.103 352.282 279.164 352.4 279.9 352.518V351.811C279.9 350.014 278.869 349.159 276.895 349.159C275.598 349.159 274.213 349.365 273.006 349.867L272.268 346.684C273.536 346.154 275.569 345.801 277.367 345.801C281.699 345.801 283.849 348.099 283.849 352.077V360.268C282.641 360.887 280.372 361.564 277.426 361.564ZM267.162 361.564C263.655 361.564 261.858 359.649 261.858 355.76V349.395H259.854V346.154H261.858V342.883L265.924 342.677V346.154H269.195V349.395H265.924V355.701C265.924 357.41 266.631 358.206 267.957 358.206C268.577 358.206 269.136 358.117 269.519 358.029L269.726 361.3C269.018 361.475 268.075 361.564 267.162 361.564ZM244.555 361.211V347.097C246.411 346.301 248.946 345.801 251.215 345.801C255.516 345.801 257.991 347.922 257.991 351.841V361.211H253.925V352.135C253.925 350.102 252.982 349.159 251.184 349.159C250.241 349.159 249.358 349.336 248.592 349.69V361.211H244.555ZM234.865 358.206C236.957 358.206 238.047 356.468 238.047 353.668C238.047 350.898 236.957 349.159 234.865 349.159C232.802 349.159 231.653 350.898 231.653 353.668C231.653 356.468 232.802 358.206 234.865 358.206ZM234.865 361.564C230.327 361.564 227.498 358.412 227.498 353.668C227.498 348.954 230.327 345.801 234.865 345.801C239.433 345.801 242.202 348.954 242.202 353.668C242.202 358.412 239.433 361.564 234.865 361.564ZM226.08 346.684L225.314 349.896C224.195 349.424 222.986 349.159 221.985 349.159C219.598 349.159 218.301 350.839 218.301 353.609C218.301 356.643 219.657 358.206 222.191 358.206C223.163 358.206 224.342 357.94 225.462 357.439L226.11 360.71C225.108 361.211 223.575 361.564 221.867 361.564C216.976 361.564 214.147 358.53 214.147 353.727C214.147 348.954 216.946 345.801 221.631 345.801C223.311 345.801 224.99 346.183 226.08 346.684ZM198.434 361.211V347.097C200.29 346.301 202.823 345.801 205.092 345.801C209.395 345.801 211.87 347.922 211.87 351.841V361.211H207.804V352.135C207.804 350.102 206.861 349.159 205.063 349.159C204.12 349.159 203.236 349.336 202.471 349.69V361.211H198.434ZM191.622 358.235V355.082C190.945 354.935 190.237 354.846 189.53 354.846C188.174 354.846 187.115 355.377 187.115 356.761C187.115 357.999 187.998 358.647 189.56 358.647C190.443 358.647 191.181 358.471 191.622 358.235ZM189.148 361.564C185.11 361.564 183.077 359.59 183.077 356.938C183.077 354.022 185.464 352.312 189 352.282C189.825 352.282 190.886 352.4 191.622 352.518V351.811C191.622 350.014 190.591 349.159 188.617 349.159C187.32 349.159 185.936 349.365 184.728 349.867L183.991 346.684C185.257 346.154 187.29 345.801 189.089 345.801C193.42 345.801 195.57 348.099 195.57 352.077V360.268C194.363 360.887 192.094 361.564 189.148 361.564ZM170.567 357.616H173.102C175.576 357.616 177.021 356.997 177.021 355.053C177.021 353.138 175.783 352.341 173.455 352.341H170.567V357.616ZM170.567 349.159H173.602C175.458 349.159 176.255 348.246 176.255 346.566C176.255 344.769 174.811 344.179 172.866 344.179H170.567V349.159ZM166.472 361.211V340.585H172.836C177.462 340.585 180.438 342.323 180.438 345.919C180.438 347.951 179.495 349.365 178.17 350.19C180.085 351.074 181.205 352.784 181.205 355.112C181.205 359.266 178.17 361.211 173.455 361.211H166.472Z" fill="#1E3764"/>
<path d="M166.472 301.538V330.232H194.831C216.338 330.232 227.091 315.913 237.844 301.538H166.472Z" fill="url(#paint0_linear)"/>
<path d="M280.898 272.919C259.393 272.92 248.663 287.236 237.89 301.594L309.24 301.588L309.281 272.874L280.898 272.919Z" fill="url(#paint1_linear)"/>
<defs>
<filter id="filter0_d" x="15.2637" y="15.2639" width="445.225" height="445.22" filterUnits="userSpaceOnUse" color-interpolation-filters="sRGB">
<feFlood flood-opacity="0" result="BackgroundImageFix"/>
<feColorMatrix in="SourceAlpha" type="matrix" values="0 0 0 0 0 0 0 0 0 0 0 0 0 0 0 0 0 0 127 0"/>
<feOffset/>
<feGaussianBlur stdDeviation="40"/>
<feColorMatrix type="matrix" values="0 0 0 0 0 0 0 0 0 0.0788691 0 0 0 0 0.220833 0 0 0 0.25 0"/>
<feBlend mode="normal" in2="BackgroundImageFix" result="effect1_dropShadow"/>
<feBlend mode="normal" in="SourceGraphic" in2="effect1_dropShadow" result="shape"/>
</filter>
<linearGradient id="paint0_linear" x1="180.915" y1="317.234" x2="233.144" y2="297.834" gradientUnits="userSpaceOnUse">
<stop stop-color="#005AB9"/>
<stop offset="1" stop-color="#1E3764"/>
</linearGradient>
<linearGradient id="paint1_linear" x1="242.2" y1="304.072" x2="297.657" y2="285.151" gradientUnits="userSpaceOnUse">
<stop stop-color="#FBA900"/>
<stop offset="1" stop-color="#FFD800"/>
</linearGradient>
</defs>
</svg>
