<svg width="241" height="241" viewBox="0 0 241 241" fill="none" xmlns="http://www.w3.org/2000/svg">
<mask id="mask0" mask-type="alpha" maskUnits="userSpaceOnUse" x="0" y="0" width="240" height="240">
<rect width="240" height="240" rx="50" fill="#FF6200"/>
</mask>
<g mask="url(#mask0)">
<path d="M0 133.5V22.9C0 10.3 10.3 0 22.9 0H217.1C229.7 0 240 10.3 240 22.9V133.5H0Z" fill="#FF4785"/>
<path d="M0 133.5V217.1C0 229.7 10.3 240 22.9 240H217.1C229.7 240 240 229.7 240 217.1V133.5H0V133.5Z" fill="white"/>
<path d="M73.7 217.8C73.7 217 73.5 216.4 73.2 215.8C72.8 215.2 72.4 214.8 71.8 214.5C72.4 214.2 72.9 213.8 73.2 213.2C73.5 212.6 73.7 212 73.7 211.2V210.8C73.7 209.9 73.5 209.2 73.2 208.6C72.9 208 72.4 207.5 71.8 207.2C71.2 206.8 70.4 206.6 69.6 206.4C68.7 206.2 67.8 206.2 66.7 206.2C66.3 206.2 66 206.2 65.6 206.2C65.2 206.2 64.8 206.2 64.5 206.3C64.1 206.3 63.8 206.3 63.5 206.4C63.2 206.4 62.9 206.5 62.8 206.5C62.4 206.6 62.1 206.7 61.9 206.9C61.7 207.1 61.6 207.4 61.6 208V221.6C61.6 222.1 61.7 222.5 61.9 222.7C62.1 222.9 62.4 223 62.9 223.1C63.1 223.1 63.4 223.2 63.7 223.2C64 223.2 64.4 223.3 64.7 223.3C65.1 223.3 65.4 223.3 65.8 223.4C66.2 223.4 66.6 223.4 66.9 223.4C67.9 223.4 68.8 223.3 69.6 223.2C70.5 223.1 71.2 222.8 71.8 222.4C72.4 222 72.9 221.5 73.3 220.9C73.7 220.2 73.9 219.4 73.9 218.4V217.8H73.7ZM69.9 211.4C69.9 211.6 69.9 211.9 69.8 212.1C69.7 212.3 69.6 212.5 69.4 212.7C69.2 212.9 69 213 68.7 213.1C68.4 213.2 68 213.2 67.6 213.2H65.1V209.3C65.2 209.3 65.3 209.3 65.4 209.3C65.6 209.3 65.7 209.3 65.9 209.3H66.4H66.8C67.9 209.3 68.7 209.4 69.2 209.7C69.7 210 69.9 210.4 69.9 211.1V211.4V211.4ZM70 218.1C70 218.7 69.8 219.2 69.3 219.6C68.9 219.9 68.1 220.1 66.9 220.1H66.5C66.3 220.1 66.1 220.1 66 220.1C65.8 220.1 65.6 220.1 65.5 220.1H65.1V215.9H67.6C68.5 215.9 69.1 216.1 69.5 216.5C69.8 216.9 70 217.4 70 217.9V218.1ZM85.9 214.6C85.9 213.8 85.8 213.1 85.5 212.5C85.3 211.9 84.9 211.5 84.5 211.1C84.1 210.7 83.5 210.5 82.9 210.3C82.3 210.1 81.5 210 80.7 210C80 210 79.2 210.1 78.5 210.2C77.8 210.3 77.2 210.4 76.8 210.5C76.5 210.6 76.4 210.7 76.4 211V212.8C76.4 212.9 76.4 213.1 76.5 213.1C76.6 213.2 76.7 213.2 76.8 213.2H76.9C77.1 213.2 77.3 213.2 77.6 213.1C77.9 213.1 78.2 213.1 78.5 213C78.8 212.9 79.2 213 79.6 213C80 213 80.3 213 80.7 213C81.2 213 81.6 213.1 81.9 213.3C82.2 213.5 82.3 213.9 82.3 214.6V215.4H81.1C79.2 215.4 77.8 215.7 76.9 216.3C76 216.9 75.6 217.9 75.6 219.2V219.4C75.6 220.1 75.7 220.7 75.9 221.2C76.1 221.7 76.4 222.1 76.8 222.4C77.2 222.7 77.6 222.9 78 223C78.5 223.1 78.9 223.2 79.4 223.2C80.1 223.2 80.7 223.1 81.1 222.9C81.6 222.7 82 222.5 82.5 222.2V222.6C82.5 222.7 82.5 222.8 82.6 222.9C82.7 223 82.8 223 82.9 223H85.4C85.5 223 85.6 223 85.7 222.9C85.8 222.8 85.8 222.7 85.8 222.6V214.6H85.9ZM82.4 220C82.1 220.1 81.8 220.2 81.5 220.3C81.2 220.4 80.9 220.4 80.5 220.4C80 220.4 79.7 220.3 79.4 220.2C79.2 220.1 79.1 219.8 79.1 219.3V219.1C79.1 218.8 79.1 218.6 79.2 218.4C79.3 218.2 79.4 218 79.5 217.9C79.6 217.8 79.9 217.7 80.1 217.6C80.4 217.5 80.7 217.5 81.1 217.5H82.4V220ZM99.6 222.5V215.1C99.6 214.4 99.5 213.7 99.4 213.1C99.3 212.5 99.1 211.9 98.8 211.5C98.5 211 98.1 210.7 97.6 210.4C97.1 210.1 96.4 210 95.6 210C94.9 210 94.2 210.1 93.7 210.3C93.1 210.5 92.6 210.8 92 211.2V210.7C92 210.6 92 210.5 91.9 210.4C91.8 210.3 91.7 210.3 91.6 210.3H89.1C89 210.3 88.9 210.3 88.8 210.4C88.7 210.5 88.7 210.6 88.7 210.7V222.6C88.7 222.7 88.7 222.8 88.8 222.9C88.9 223 89 223 89.1 223H91.8C91.9 223 92 223 92.1 222.9C92.2 222.8 92.2 222.7 92.2 222.6V213.8C92.6 213.6 93 213.4 93.3 213.3C93.6 213.2 94 213.1 94.3 213.1C94.6 213.1 94.9 213.1 95.1 213.2C95.3 213.3 95.5 213.4 95.6 213.5C95.7 213.7 95.8 213.9 95.8 214.1C95.8 214.4 95.9 214.7 95.9 215.1V222.5C95.9 222.6 95.9 222.7 96 222.8C96.1 222.9 96.2 222.9 96.3 222.9H99C99.1 222.9 99.2 222.9 99.3 222.8C99.5 222.7 99.6 222.6 99.6 222.5ZM110.6 222.3V220.3C110.6 220.2 110.6 220.1 110.5 220C110.4 219.9 110.3 219.9 110.2 219.9C109.8 219.9 109.4 220 109 220C108.6 220 108.1 220 107.5 220C107.2 220 107 220 106.8 219.9C106.6 219.8 106.4 219.7 106.2 219.5C106 219.3 105.9 219 105.8 218.7C105.7 218.4 105.7 218 105.7 217.5V215.6C105.7 215.1 105.7 214.7 105.8 214.4C105.9 214.1 106 213.8 106.2 213.6C106.4 213.4 106.6 213.3 106.8 213.2C107 213.1 107.3 213.1 107.5 213.1C108.1 213.1 108.7 213.1 109 213.1C109.4 213.1 109.8 213.2 110.2 213.2C110.3 213.2 110.4 213.2 110.5 213.1C110.6 213 110.6 212.9 110.6 212.8V210.8C110.6 210.6 110.6 210.5 110.5 210.5C110.4 210.4 110.3 210.4 110.1 210.3C109.8 210.2 109.4 210.2 108.9 210.1C108.4 210 107.8 210 107.1 210C105.5 210 104.3 210.5 103.3 211.5C102.3 212.5 101.9 213.9 101.9 215.7V217.6C101.9 219.4 102.4 220.8 103.3 221.8C104.2 222.8 105.5 223.3 107.1 223.3C107.8 223.3 108.4 223.3 108.9 223.2C109.4 223.1 109.8 223.1 110.1 223C110.3 223 110.4 222.9 110.5 222.8C110.6 222.6 110.6 222.5 110.6 222.3ZM123 215.8C123 214.9 122.9 214.1 122.6 213.4C122.4 212.7 122 212.1 121.5 211.6C121 211.1 120.4 210.7 119.8 210.4C119.1 210.1 118.3 210 117.4 210C116.5 210 115.7 210.1 115 210.4C114.3 210.7 113.7 211.1 113.2 211.6C112.7 212.1 112.4 212.7 112.1 213.4C111.9 214.1 111.7 214.9 111.7 215.8V217.4C111.7 218.3 111.8 219.1 112.1 219.8C112.3 220.5 112.7 221.1 113.2 221.6C113.7 222.1 114.3 222.5 115 222.8C115.7 223.1 116.5 223.2 117.4 223.2C118.3 223.2 119.1 223.1 119.8 222.8C120.5 222.5 121.1 222.1 121.5 221.6C122 221.1 122.3 220.5 122.6 219.8C122.9 219.1 123 218.3 123 217.4V215.8ZM119.4 217.4C119.4 219.2 118.7 220.1 117.4 220.1C116.7 220.1 116.3 219.9 115.9 219.4C115.6 218.9 115.4 218.3 115.4 217.3V215.8C115.4 214.9 115.6 214.2 115.9 213.8C116.2 213.3 116.7 213.1 117.4 213.1C118.7 213.1 119.4 214 119.4 215.8V217.4ZM136.3 222.5V215.1C136.3 214.4 136.2 213.7 136.1 213.1C136 212.5 135.8 211.9 135.5 211.5C135.2 211 134.8 210.7 134.3 210.4C133.8 210.1 133.1 210 132.3 210C131.6 210 131 210.1 130.4 210.3C129.8 210.5 129.3 210.8 128.7 211.2V210.7C128.7 210.6 128.7 210.5 128.6 210.4C128.5 210.3 128.4 210.3 128.3 210.3H125.8C125.7 210.3 125.6 210.3 125.5 210.4C125.4 210.5 125.4 210.6 125.4 210.7V222.6C125.4 222.7 125.4 222.8 125.5 222.9C125.6 223 125.7 223 125.8 223H128.5C128.6 223 128.7 223 128.8 222.9C128.9 222.8 128.9 222.7 128.9 222.6V213.8C129.3 213.6 129.7 213.4 130 213.3C130.3 213.2 130.7 213.1 131 213.1C131.3 213.1 131.6 213.1 131.8 213.2C132 213.3 132.2 213.4 132.3 213.5C132.4 213.7 132.5 213.9 132.5 214.1C132.5 214.4 132.6 214.7 132.6 215.1V222.5C132.6 222.6 132.6 222.7 132.7 222.8C132.8 222.9 132.9 222.9 133 222.9H135.7C135.8 222.9 135.9 222.9 136 222.8C136.3 222.7 136.3 222.6 136.3 222.5ZM146.1 222.6V220.8C146.1 220.6 145.9 220.4 145.6 220.4H144.5C144.2 220.4 143.9 220.3 143.9 220.2C143.8 220.1 143.8 219.8 143.8 219.3V212.8H145.6C145.7 212.8 145.8 212.8 145.9 212.7C146 212.6 146 212.5 146 212.4V210.6C146 210.5 146 210.4 145.9 210.3C145.8 210.2 145.7 210.2 145.6 210.2H143.8V207.8C143.8 207.7 143.8 207.6 143.7 207.5C143.6 207.4 143.5 207.4 143.4 207.4H143.3L140.6 207.9C140.5 207.9 140.4 208 140.3 208.1C140.2 208.2 140.2 208.3 140.2 208.4V210.2H138.4C138.3 210.2 138.2 210.2 138.1 210.3C138 210.4 138 210.5 138 210.6V212.1C138 212.2 138 212.3 138.1 212.4C138.2 212.5 138.3 212.5 138.4 212.6L140.2 212.9V219.4C140.2 220.2 140.3 220.8 140.4 221.3C140.6 221.8 140.8 222.2 141.1 222.5C141.4 222.8 141.8 223 142.3 223.1C142.8 223.2 143.3 223.2 143.9 223.2C144.2 223.2 144.5 223.2 144.8 223.2C145.1 223.2 145.4 223.1 145.7 223.1C145.9 223 146.1 222.8 146.1 222.6ZM158 214.6C158 213.8 157.9 213.1 157.6 212.5C157.4 211.9 157 211.5 156.6 211.1C156.2 210.7 155.6 210.5 155 210.3C154.4 210.1 153.6 210 152.8 210C152.1 210 151.3 210.1 150.6 210.2C149.9 210.3 149.3 210.4 148.9 210.5C148.6 210.6 148.5 210.7 148.5 211V212.8C148.5 212.9 148.5 213.1 148.6 213.1C148.7 213.2 148.8 213.2 148.9 213.2H149C149.2 213.2 149.4 213.2 149.7 213.1C150 213.1 150.3 213.1 150.6 213C150.9 213 151.3 213 151.7 213C152.1 213 152.4 213 152.8 213C153.3 213 153.7 213.1 154 213.3C154.3 213.5 154.4 213.9 154.4 214.6V215.4H153.2C151.3 215.4 149.9 215.7 149 216.3C148.1 216.9 147.7 217.9 147.7 219.2V219.4C147.7 220.1 147.8 220.7 148 221.2C148.2 221.7 148.5 222.1 148.9 222.4C149.3 222.7 149.7 222.9 150.1 223C150.6 223.1 151 223.2 151.5 223.2C152.2 223.2 152.7 223.1 153.2 222.9C153.7 222.7 154.1 222.5 154.6 222.2V222.6C154.6 222.7 154.6 222.8 154.7 222.9C154.8 223 154.9 223 155 223H157.5C157.6 223 157.7 223 157.8 222.9C157.9 222.8 157.9 222.7 157.9 222.6V214.6H158ZM154.4 220C154.1 220.1 153.8 220.2 153.5 220.3C153.2 220.4 152.9 220.4 152.5 220.4C152 220.4 151.7 220.3 151.4 220.2C151.2 220.1 151.1 219.8 151.1 219.3V219.1C151.1 218.8 151.1 218.6 151.2 218.4C151.3 218.2 151.4 218 151.5 217.9C151.6 217.8 151.8 217.7 152.1 217.6C152.4 217.5 152.7 217.5 153.1 217.5H154.4V220ZM169 222.3V220.3C169 220.2 169 220.1 168.9 220C168.8 219.9 168.7 219.9 168.6 219.9C168.2 219.9 167.8 220 167.4 220C167 220 166.5 220 165.9 220C165.6 220 165.4 220 165.2 219.9C165 219.8 164.8 219.7 164.6 219.5C164.4 219.3 164.3 219 164.2 218.7C164.1 218.4 164.1 218 164.1 217.5V215.6C164.1 215.1 164.1 214.7 164.2 214.4C164.3 214.1 164.4 213.8 164.6 213.6C164.8 213.4 165 213.3 165.2 213.2C165.4 213.1 165.7 213.1 165.9 213.1C166.5 213.1 167.1 213.1 167.4 213.1C167.8 213.1 168.2 213.2 168.6 213.2C168.7 213.2 168.8 213.2 168.9 213.1C169 213 169 212.9 169 212.8V210.8C169 210.6 169 210.5 168.9 210.5C168.8 210.4 168.7 210.4 168.5 210.3C168.2 210.2 167.8 210.2 167.3 210.1C166.8 210 166.2 210 165.5 210C163.9 210 162.7 210.5 161.7 211.5C160.8 212.5 160.3 213.9 160.3 215.7V217.6C160.3 219.4 160.8 220.8 161.7 221.8C162.6 222.8 163.9 223.3 165.5 223.3C166.2 223.3 166.8 223.3 167.3 223.2C167.8 223.1 168.2 223.1 168.5 223C168.7 223 168.8 222.9 168.9 222.8C169 222.7 169 222.5 169 222.3ZM178.6 222.6V220.8C178.6 220.6 178.4 220.4 178.1 220.4H177C176.7 220.4 176.4 220.3 176.4 220.2C176.3 220.1 176.3 219.8 176.3 219.3V212.8H178.1C178.2 212.8 178.3 212.8 178.4 212.7C178.5 212.6 178.5 212.5 178.5 212.4V210.6C178.5 210.5 178.5 210.4 178.4 210.3C178.3 210.2 178.2 210.2 178.1 210.2H176.3V207.8C176.3 207.7 176.3 207.6 176.2 207.5C176.1 207.4 176 207.4 175.9 207.4H175.8L173.1 207.9C173 207.9 172.9 208 172.8 208.1C172.7 208.2 172.7 208.3 172.7 208.4V210.2H170.9C170.8 210.2 170.7 210.2 170.6 210.3C170.5 210.4 170.5 210.5 170.5 210.6V212.1C170.5 212.2 170.5 212.3 170.6 212.4C170.7 212.5 170.8 212.5 170.9 212.6L172.7 212.9V219.4C172.7 220.2 172.8 220.8 172.9 221.3C173.1 221.8 173.3 222.2 173.6 222.5C173.9 222.8 174.3 223 174.8 223.1C175.3 223.2 175.8 223.2 176.4 223.2C176.7 223.2 177 223.2 177.3 223.2C177.6 223.2 177.9 223.1 178.2 223.1C178.5 223 178.6 222.8 178.6 222.6Z" fill="#005498"/>
<path d="M165.8 163.2H160.3H134.9H129.4L125.7 167.4L113.8 180.8L110.1 185H104.6H79.8H74.3L77.9 180.8L79.6 178.8L83.2 174.6H77.8H70.7H66.7C63.7 174.6 61.2 177.1 61.2 180.2V191.1V192.1C61.2 195.2 63.7 197.7 66.7 197.7H68.2H125.8H129.9C132.9 197.7 137 195.8 139.1 193.5L148.7 182.6L165.8 163.2Z" fill="#005498"/>
<path d="M173.1 150.5C176.1 150.5 178.6 153 178.6 156.1V168C178.6 171.1 176.1 173.6 173.1 173.6H170.1H162.1H156.6L160.3 169.4L162.1 167.3L165.8 163.1H129.5L110.1 184.9H74L99.9 155.7L100.9 154.6C102.9 152.3 107.1 150.4 110.1 150.4H111.4H173.1V150.5Z" fill="#FFD800"/>
<path d="M153.76 22.3C147.867 22.3 142.439 24.161 137.941 27.3403L113.67 45.0203C111.576 32.148 100.41 22.3 86.9175 22.3C71.9516 22.3 59.7772 34.4743 59.7772 49.4403C59.7772 64.4062 71.9516 76.5806 86.9175 76.5806C92.8108 76.5806 98.3164 74.642 102.814 71.4627L127.008 53.8603C129.101 66.7325 140.268 76.5806 153.76 76.5806C168.726 76.5806 180.9 64.4062 180.9 49.4403C180.9 34.4743 168.804 22.3 153.76 22.3ZM86.9175 61.6146C80.1712 61.6146 74.7432 56.1866 74.7432 49.4403C74.7432 42.694 80.1712 37.2659 86.9175 37.2659C93.6638 37.2659 99.0919 42.694 99.0919 49.4403C99.0919 56.1866 93.6638 61.6146 86.9175 61.6146ZM153.76 61.6146C147.014 61.6146 141.586 56.1866 141.586 49.4403C141.586 42.694 147.014 37.2659 153.76 37.2659C160.506 37.2659 165.935 42.694 165.935 49.4403C165.935 56.1866 160.506 61.6146 153.76 61.6146Z" fill="white"/>
<path d="M175.783 93.0974H182.064V115.12H175.783V93.0974ZM178.884 83.3269C176.868 83.3269 175.24 84.9553 175.24 87.049C175.24 89.0651 176.868 90.7711 178.884 90.7711C180.9 90.7711 182.529 89.1427 182.529 87.049C182.606 84.9553 180.9 83.3269 178.884 83.3269ZM206.8 93.0974V120.16H200.519V114.112C199.046 114.81 197.495 115.197 195.789 115.197C189.74 115.197 184.778 110.235 184.778 104.109C184.778 97.9827 189.663 93.0199 195.789 93.0199C197.495 93.0199 199.123 93.4076 200.519 94.1055V93.175H206.8V93.0974ZM200.519 104.109C200.519 101.472 198.425 99.3784 195.866 99.3784C193.307 99.3784 191.214 101.472 191.214 104.109C191.214 106.745 193.307 108.839 195.866 108.839C198.425 108.839 200.519 106.668 200.519 104.109ZM115.609 99.3009C117.16 99.3009 118.633 100.076 119.486 101.472L124.759 97.9827C122.743 94.8809 119.331 92.9423 115.609 92.9423C109.56 92.9423 104.597 97.9051 104.597 104.031C104.597 110.157 109.483 115.12 115.609 115.12C119.253 115.12 122.665 113.259 124.759 110.157L119.563 106.745C118.71 108.063 117.237 108.839 115.686 108.839C113.127 108.839 111.034 106.745 111.034 104.109C110.956 101.472 113.05 99.3009 115.609 99.3009ZM55.9 104.109C55.9 110.235 51.0147 115.197 44.8888 115.197C43.1828 115.197 41.5544 114.81 40.0811 114.034V120.16H33.8V93.0974H40.0811V94.1055C41.5544 93.4076 43.1828 92.9423 44.8888 92.9423C51.0147 92.9423 55.9 97.9827 55.9 104.109ZM49.619 104.109C49.619 101.472 47.5253 99.3784 44.9663 99.3784C42.4074 99.3784 40.3137 101.472 40.3137 104.109C40.3137 106.745 42.4074 108.839 44.9663 108.839C47.5253 108.839 49.619 106.668 49.619 104.109ZM79.7835 115.12H73.5024V114.112C72.1066 114.81 70.4782 115.197 68.8498 115.197C62.8014 115.197 57.8386 110.235 57.8386 104.109C57.8386 97.9827 62.7238 93.0199 68.8498 93.0199C70.4782 93.0199 72.1066 93.4076 73.5024 94.1055V93.175H79.7835V115.12ZM73.5024 103.488C73.2698 101.162 71.2537 99.3009 68.8498 99.3009C66.2909 99.3009 64.1972 101.395 64.1972 104.031C64.1972 106.668 66.2909 108.761 68.8498 108.761C71.2537 108.761 73.1922 106.9 73.5024 104.574V103.488ZM161.592 93.175C160.274 93.175 158.878 93.4851 157.56 93.9504V93.0974H151.279V115.12H157.56V103.566C157.56 99.6886 161.127 99.5335 161.592 99.5335C162.678 99.5335 163.608 99.8437 164.306 100.542C165.082 101.239 165.469 102.325 165.469 103.721V114.965H171.75V103.643C171.75 96.742 166.632 93.175 161.592 93.175ZM104.675 93.175H98.3164L93.8189 104.807L88.9336 93.175H82.1098L90.7947 112.561L87.7705 120.238H94.129L104.675 93.175ZM148.565 104.109C148.565 110.235 143.679 115.197 137.554 115.197C131.505 115.197 126.542 110.235 126.542 104.109C126.542 97.9827 131.428 93.0199 137.554 93.0199C143.602 92.9423 148.565 97.9827 148.565 104.109ZM142.284 104.109C142.284 101.472 140.19 99.3784 137.631 99.3784C135.072 99.3784 132.978 101.472 132.978 104.109C132.978 106.745 135.072 108.839 137.631 108.839C140.19 108.839 142.284 106.668 142.284 104.109Z" fill="white"/>
</g>
</svg>
