<svg width="241" height="241" viewBox="0 0 241 241" fill="none" xmlns="http://www.w3.org/2000/svg">
<mask id="mask0" mask-type="alpha" maskUnits="userSpaceOnUse" x="0" y="0" width="240" height="240">
<rect width="240" height="240" rx="50" fill="#FF6200"/>
</mask>
<g mask="url(#mask0)">
<path d="M0.000488281 134.086V23.0135C0.000488281 10.324 10.3234 0 23.013 0H217.989C230.677 0 241 10.324 241 23.0135V134.086H0.000488281Z" fill="#FF4785"/>
<path d="M0 134.081V217.983C0 230.672 10.323 240.996 23.0125 240.996H217.988C230.677 240.996 241 230.672 241 217.983V134.081H0Z" fill="white"/>
<path d="M153.78 60.0125C147.08 60.0125 141.648 54.5814 141.648 47.8812C141.648 41.1819 147.08 35.7509 153.78 35.7509C160.48 35.7509 165.911 41.1819 165.911 47.8812C165.911 54.5814 160.48 60.0125 153.78 60.0125ZM87.2071 60.0125C80.5069 60.0125 75.0758 54.5814 75.0758 47.8812C75.0758 41.1819 80.5069 35.7509 87.2071 35.7509C93.9074 35.7509 99.3385 41.1819 99.3385 47.8812C99.3385 54.5814 93.9074 60.0125 87.2071 60.0125ZM153.78 20.8412C147.908 20.8412 142.478 22.7179 138.044 25.8978L113.886 43.4773C111.782 30.6391 100.641 20.8412 87.2071 20.8412C72.2724 20.8412 60.1672 32.9475 60.1672 47.8812C60.1672 62.8159 72.2724 74.9221 87.2071 74.9221C93.1111 74.9221 98.5693 73.0244 103.015 69.8143L127.103 52.2921C129.209 65.1273 140.348 74.9221 153.78 74.9221C168.713 74.9221 180.821 62.8159 180.821 47.8812C180.821 32.9475 168.713 20.8412 153.78 20.8412Z" fill="white"/>
<path d="M142.329 102.27C142.329 99.6665 140.236 97.5479 137.663 97.5479C135.09 97.5479 132.995 99.6665 132.995 102.27C132.995 104.874 135.09 106.993 137.663 106.993C140.236 106.993 142.329 104.874 142.329 102.27ZM148.594 102.27C148.594 108.37 143.69 113.333 137.663 113.333C131.635 113.333 126.731 108.37 126.731 102.27C126.731 96.1703 131.635 91.2072 137.663 91.2072C143.69 91.2072 148.594 96.1703 148.594 102.27ZM104.865 91.41H98.5059L93.9885 102.984L89.1268 91.41H82.3452L90.9713 110.719L87.9901 118.358H94.348L104.865 91.41ZM161.579 91.3909C160.236 91.3909 158.873 91.665 157.594 92.1851V91.3618H151.329V113.259H157.594V101.741C157.594 97.8431 161.172 97.7307 161.579 97.7307C162.628 97.7307 163.576 98.0761 164.25 98.7036C165.02 99.4175 165.408 100.487 165.408 101.879V113.115H171.674V101.879C171.674 94.9936 166.596 91.3909 161.579 91.3909ZM73.8065 101.723C73.5364 99.3764 71.5624 97.5479 69.1737 97.5479C66.6002 97.5479 64.5067 99.6665 64.5067 102.27C64.5067 104.874 66.6002 106.993 69.1737 106.993C71.5624 106.993 73.5364 105.164 73.8065 102.818V101.723ZM80.071 113.259H73.8065V112.276C72.3978 112.947 70.8304 113.333 69.1737 113.333C63.1452 113.333 58.2412 108.37 58.2412 102.27C58.2412 96.1703 63.1452 91.2072 69.1737 91.2072C70.8304 91.2072 72.3978 91.5937 73.8065 92.2645V91.3618H80.071V113.259ZM50.061 102.27C50.061 99.6665 47.9675 97.5479 45.395 97.5479C42.8216 97.5479 40.728 99.6665 40.728 102.27C40.728 104.874 42.8216 106.993 45.395 106.993C47.9675 106.993 50.061 104.874 50.061 102.27ZM56.3275 102.27C56.3275 108.37 51.4225 113.333 45.395 113.333C43.6861 113.333 42.0735 112.922 40.6317 112.213V118.287H34.3672V91.3618H40.6317V92.3287C42.0735 91.6178 43.6861 91.2072 45.395 91.2072C51.4225 91.2072 56.3275 96.1703 56.3275 102.27ZM115.809 97.5479C117.381 97.5479 118.838 98.3452 119.707 99.6796L124.94 96.1914C122.908 93.0707 119.495 91.2072 115.809 91.2072C109.781 91.2072 104.877 96.1703 104.877 102.27C104.877 108.37 109.781 113.333 115.809 113.333C119.461 113.333 122.856 111.499 124.893 108.426L119.688 104.894C118.818 106.209 117.369 106.993 115.809 106.993C113.236 106.993 111.142 104.874 111.142 102.27C111.142 99.6665 113.236 97.5479 115.809 97.5479ZM200.324 102.27C200.324 99.6665 198.23 97.5479 195.657 97.5479C193.084 97.5479 190.99 99.6665 190.99 102.27C190.99 104.874 193.084 106.993 195.657 106.993C198.23 106.993 200.324 104.874 200.324 102.27ZM206.636 91.3618V118.287H200.372V112.236C198.941 112.931 197.347 113.333 195.657 113.333C189.628 113.333 184.725 108.37 184.725 102.27C184.725 96.1703 189.628 91.2072 195.657 91.2072C197.347 91.2072 198.941 91.6088 200.372 92.3046V91.3618H206.636ZM178.821 81.573C176.804 81.571 175.167 83.2237 175.165 85.265C175.163 87.3063 176.797 88.963 178.814 88.965C180.832 88.9661 182.468 87.3133 182.47 85.272C182.471 83.2317 180.839 81.575 178.821 81.573ZM175.694 91.3196H181.958V113.259H175.694V91.3196Z" fill="white"/>
<path d="M178.654 225.009C175.691 225.009 174.172 223.391 174.172 220.105V214.727H172.479V211.988H174.172V209.225L177.608 209.051V211.988H180.372V214.727H177.608V220.055C177.608 221.5 178.205 222.172 179.326 222.172C179.849 222.172 180.322 222.097 180.645 222.022L180.82 224.786C180.222 224.934 179.426 225.009 178.654 225.009ZM171.1 212.437L170.453 215.151C169.507 214.752 168.486 214.528 167.639 214.528C165.622 214.528 164.527 215.947 164.527 218.287C164.527 220.852 165.672 222.172 167.814 222.172C168.635 222.172 169.631 221.947 170.577 221.524L171.125 224.287C170.278 224.711 168.983 225.009 167.54 225.009C163.407 225.009 161.016 222.446 161.016 218.387C161.016 214.354 163.382 211.69 167.34 211.69C168.76 211.69 170.179 212.013 171.1 212.437ZM156.008 222.197V219.533C155.436 219.408 154.839 219.333 154.241 219.333C153.095 219.333 152.199 219.782 152.199 220.951C152.199 221.997 152.947 222.545 154.266 222.545C155.012 222.545 155.636 222.396 156.008 222.197ZM153.918 225.009C150.506 225.009 148.788 223.341 148.788 221.101C148.788 218.636 150.805 217.192 153.793 217.167C154.49 217.167 155.386 217.266 156.008 217.366V216.769C156.008 215.25 155.137 214.528 153.469 214.528C152.373 214.528 151.203 214.702 150.183 215.126L149.56 212.437C150.631 211.988 152.348 211.69 153.868 211.69C157.528 211.69 159.344 213.632 159.344 216.993V223.914C158.324 224.437 156.407 225.009 153.918 225.009ZM145.245 225.009C142.282 225.009 140.763 223.391 140.763 220.105V214.727H139.071V211.988H140.763V209.225L144.199 209.051V211.988H146.963V214.727H144.199V220.055C144.199 221.5 144.796 222.172 145.917 222.172C146.44 222.172 146.913 222.097 147.237 222.022L147.411 224.786C146.813 224.934 146.017 225.009 145.245 225.009ZM126.144 224.711V212.786C127.712 212.113 129.853 211.69 131.771 211.69C135.405 211.69 137.496 213.483 137.496 216.794V224.711H134.061V217.042C134.061 215.324 133.264 214.528 131.745 214.528C130.948 214.528 130.201 214.677 129.554 214.976V224.711H126.144ZM117.956 222.172C119.724 222.172 120.645 220.703 120.645 218.337C120.645 215.997 119.724 214.528 117.956 214.528C116.213 214.528 115.242 215.997 115.242 218.337C115.242 220.703 116.213 222.172 117.956 222.172ZM117.956 225.009C114.121 225.009 111.732 222.346 111.732 218.337C111.732 214.354 114.121 211.69 117.956 211.69C121.815 211.69 124.155 214.354 124.155 218.337C124.155 222.346 121.815 225.009 117.956 225.009ZM110.533 212.437L109.886 215.151C108.94 214.752 107.919 214.528 107.073 214.528C105.056 214.528 103.96 215.947 103.96 218.287C103.96 220.852 105.106 222.172 107.247 222.172C108.069 222.172 109.065 221.947 110.011 221.524L110.558 224.287C109.712 224.711 108.417 225.009 106.973 225.009C102.84 225.009 100.45 222.446 100.45 218.387C100.45 214.354 102.815 211.69 106.774 211.69C108.193 211.69 109.612 212.013 110.533 212.437ZM87.1736 224.711V212.786C88.7419 212.113 90.8825 211.69 92.7997 211.69C96.4348 211.69 98.5265 213.483 98.5265 216.794V224.711H95.0908V217.042C95.0908 215.324 94.2942 214.528 92.7748 214.528C91.9782 214.528 91.2314 214.677 90.5843 214.976V224.711H87.1736ZM81.418 222.197V219.533C80.8457 219.408 80.2475 219.333 79.6503 219.333C78.5047 219.333 77.6094 219.782 77.6094 220.951C77.6094 221.997 78.3562 222.545 79.6752 222.545C80.422 222.545 81.0451 222.396 81.418 222.197ZM79.3272 225.009C75.9155 225.009 74.1976 223.341 74.1976 221.101C74.1976 218.636 76.2146 217.192 79.2026 217.167C79.8995 217.167 80.7958 217.266 81.418 217.366V216.769C81.418 215.25 80.5466 214.528 78.8786 214.528C77.7829 214.528 76.6134 214.702 75.5924 215.126L74.9703 212.437C76.0401 211.988 77.758 211.69 79.2774 211.69C82.9374 211.69 84.754 213.632 84.754 216.993V223.914C83.734 224.437 81.8168 225.009 79.3272 225.009ZM63.6279 221.673H65.7694C67.8602 221.673 69.0805 221.151 69.0805 219.508C69.0805 217.89 68.0347 217.217 66.0676 217.217H63.6279V221.673ZM63.6279 214.528H66.1922C67.7605 214.528 68.4334 213.756 68.4334 212.337C68.4334 210.819 67.2131 210.32 65.57 210.32H63.6279V214.528ZM60.1672 224.711V207.283H65.5451C69.4534 207.283 71.9679 208.752 71.9679 211.79C71.9679 213.507 71.1713 214.702 70.0516 215.399C71.6698 216.146 72.6159 217.59 72.6159 219.558C72.6159 223.068 70.0516 224.711 66.0676 224.711H60.1672Z" fill="#1E3764"/>
<path d="M60.1672 174.291V198.536H84.1295C102.301 198.536 111.387 186.437 120.473 174.291H60.1672Z" fill="url(#paint0_linear)"/>
<path d="M156.851 150.109C138.681 150.11 129.614 162.206 120.512 174.338L180.799 174.333L180.833 150.071L156.851 150.109Z" fill="url(#paint1_linear)"/>
</g>
<defs>
<linearGradient id="paint0_linear" x1="72.3707" y1="187.553" x2="116.502" y2="171.161" gradientUnits="userSpaceOnUse">
<stop stop-color="#005AB9"/>
<stop offset="1" stop-color="#1E3764"/>
</linearGradient>
<linearGradient id="paint1_linear" x1="124.153" y1="176.432" x2="171.011" y2="160.445" gradientUnits="userSpaceOnUse">
<stop stop-color="#FBA900"/>
<stop offset="1" stop-color="#FFD800"/>
</linearGradient>
</defs>
</svg>
