<svg width="50" height="50" viewBox="0 0 50 50" fill="none" xmlns="http://www.w3.org/2000/svg">
<path d="M47 25.5209C47 23.8959 46.8542 22.3334 46.5833 20.8334H25V29.7084H37.3333C36.7917 32.5625 35.1667 34.9792 32.7292 36.6042V42.375H40.1667C44.5 38.375 47 32.5 47 25.5209Z" fill="#4285F4"/>
<path d="M25.0003 47.9167C31.1878 47.9167 36.3753 45.875 40.167 42.375L32.7295 36.6042C30.6878 37.9792 28.0837 38.8125 25.0003 38.8125C19.042 38.8125 13.9795 34.7917 12.167 29.375H4.54199V35.2917C8.31283 42.7708 16.042 47.9167 25.0003 47.9167Z" fill="#34A853"/>
<path d="M12.1668 29.354C11.7085 27.979 11.4377 26.5207 11.4377 24.9998C11.4377 23.479 11.7085 22.0207 12.1668 20.6457V14.729H4.54183C2.97933 17.8123 2.0835 21.2915 2.0835 24.9998C2.0835 28.7082 2.97933 32.1873 4.54183 35.2707L10.4793 30.6457L12.1668 29.354Z" fill="#FBBC05"/>
<path d="M25.0003 11.2084C28.3753 11.2084 31.3753 12.375 33.7712 14.625L40.3337 8.06254C36.3545 4.35421 31.1878 2.08337 25.0003 2.08337C16.042 2.08337 8.31283 7.22921 4.54199 14.7292L12.167 20.6459C13.9795 15.2292 19.042 11.2084 25.0003 11.2084Z" fill="#EA4335"/>
</svg>
