<svg width="167" height="33" viewBox="0 0 167 33" fill="none" xmlns="http://www.w3.org/2000/svg">
<g clip-path="url(#clip0)">
<path d="M47.216 24.264C50.912 24.264 53.09 22.35 53.09 19.468C53.09 16.674 50.934 15.706 47.678 14.98C45.346 14.452 44.444 14.1 44.444 13C44.444 12.098 45.28 11.372 46.666 11.372C48.118 11.372 49.636 11.966 50.978 13.044L52.672 10.712C51.132 9.392 49.218 8.622 46.754 8.622C43.454 8.622 41.166 10.536 41.166 13.33C41.166 16.256 43.432 17.158 46.622 17.884C48.932 18.412 49.812 18.742 49.812 19.82C49.812 20.766 48.976 21.514 47.348 21.514C45.434 21.514 43.806 20.766 42.376 19.534L40.506 21.756C42.266 23.384 44.598 24.264 47.216 24.264ZM61.3139 21.184C61.0939 21.404 60.6539 21.558 60.2139 21.558C59.6199 21.558 59.1359 21.03 59.1359 20.282V15.222H61.5999V12.626H59.1359V9.502H56.0559V12.626H54.4939V15.222H56.0559V20.788C56.0559 22.834 57.4639 24.264 59.4659 24.264C60.3899 24.264 61.4239 23.868 62.0839 23.274L61.3139 21.184ZM69.1775 12.362C67.5935 12.362 66.0315 12.802 64.4255 13.616L65.5035 15.75C66.4055 15.288 67.3955 14.936 68.4515 14.936C70.3215 14.936 71.0695 15.992 71.0695 17.202V17.422C70.1015 17.048 69.0895 16.85 68.1655 16.85C65.5255 16.85 63.4355 18.39 63.4355 20.634C63.4355 22.812 65.3055 24.264 67.7255 24.264C68.9575 24.264 70.2555 23.78 71.0695 22.856V24H74.1715V17.202C74.1715 14.232 72.1475 12.362 69.1775 12.362ZM68.4515 22.042C67.3515 22.042 66.5375 21.47 66.5375 20.546C66.5375 19.622 67.4615 18.94 68.6275 18.94C69.5075 18.94 70.3435 19.094 71.0695 19.358V20.414C70.8495 21.47 69.6835 22.042 68.4515 22.042ZM90.4087 12.362C88.7147 12.362 87.3067 13.176 86.7127 14.43C86.0087 13.154 84.6667 12.362 83.1047 12.362C81.6967 12.362 80.5747 13.044 80.0247 14.122V12.626H76.8127V24H80.0247V17.136C80.0247 15.926 80.9267 15.068 82.2247 15.068C83.3907 15.068 84.2267 15.992 84.2267 17.312V24.022H87.3067V17.136C87.3067 15.926 88.2307 15.068 89.5067 15.068C90.6947 15.068 91.5307 15.992 91.5307 17.312V24.022H94.6107V16.762C94.6107 14.188 92.7847 12.362 90.4087 12.362ZM103.888 12.362C102.436 12.362 101.182 13.022 100.478 14.012V8.622H97.2663V24H100.478V17.268C100.478 16.036 101.512 15.068 102.854 15.068C104.13 15.068 105.01 16.036 105.01 17.444V24H108.112V16.762C108.112 14.188 106.352 12.362 103.888 12.362ZM116.412 24.264C119.778 24.264 122.594 21.536 122.594 18.302C122.594 15.068 119.778 12.362 116.412 12.362C113.024 12.362 110.186 15.068 110.186 18.302C110.186 21.536 113.024 24.264 116.412 24.264ZM116.412 21.558C114.696 21.558 113.266 20.062 113.266 18.302C113.266 16.542 114.696 15.068 116.412 15.068C118.106 15.068 119.536 16.542 119.536 18.302C119.536 20.062 118.106 21.558 116.412 21.558ZM130.355 24.264C133.721 24.264 136.537 21.536 136.537 18.302C136.537 15.068 133.721 12.362 130.355 12.362C126.967 12.362 124.129 15.068 124.129 18.302C124.129 21.536 126.967 24.264 130.355 24.264ZM130.355 21.558C128.639 21.558 127.209 20.062 127.209 18.302C127.209 16.542 128.639 15.068 130.355 15.068C132.049 15.068 133.479 16.542 133.479 18.302C133.479 20.062 132.049 21.558 130.355 21.558ZM142.517 12.01C142.517 11.262 143.001 10.734 143.595 10.734C144.035 10.734 144.475 10.888 144.695 11.108L145.465 9.15C144.805 8.556 143.771 8.16 142.847 8.16C140.845 8.16 139.437 9.59 139.437 11.636V12.626H137.875V15.222H139.437V24H142.517V15.222H144.981V12.626H142.517V12.01ZM155.539 8.622V14.254C154.637 13.066 153.317 12.362 151.711 12.362C148.675 12.362 146.475 14.826 146.475 18.302C146.475 21.8 148.675 24.264 151.711 24.264C153.317 24.264 154.637 23.56 155.539 22.372V24H158.751V8.622H155.539ZM152.635 21.558C150.853 21.558 149.599 20.216 149.599 18.302C149.599 16.41 150.853 15.068 152.635 15.068C154.329 15.068 155.539 16.41 155.539 18.302C155.539 20.216 154.329 21.558 152.635 21.558Z" fill="#000716"/>
<path fill-rule="evenodd" clip-rule="evenodd" d="M13.9412 21.823L18.6759 31.0819H7.42587L12.1605 21.823C12.412 21.3313 13.0144 21.1365 13.5062 21.388C13.6933 21.4837 13.8455 21.6359 13.9412 21.823Z" fill="#0053FF"/>
<path d="M9.55088 4.08189L23.9634 28.5832C24.2434 29.0593 24.0845 29.6722 23.6085 29.9522C23.5569 29.9825 23.5026 30.0082 23.4463 30.0289C20.6283 31.0642 17.1631 31.5819 13.0509 31.5819C8.93862 31.5819 5.47345 31.0642 2.65537 30.0289C2.137 29.8384 1.87116 29.2638 2.06161 28.7454C2.08228 28.6891 2.10795 28.6349 2.13833 28.5832L17.7755 2" stroke="#0053FF" stroke-width="3" stroke-linecap="round" stroke-linejoin="round"/>
</g>
<defs>
<clipPath id="clip0">
<path d="M0 0H167V33H0V0Z" fill="white"/>
</clipPath>
</defs>
</svg>
