<svg width="24" height="24" viewBox="0 0 24 24" fill="none" xmlns="http://www.w3.org/2000/svg">
<path fill-rule="evenodd" clip-rule="evenodd" d="M10 9C10 7.89543 10.8954 7 12 7C13.1046 7 14 7.89543 14 9C14 9.58455 13.6995 10.147 13.2133 10.5382C12.7758 10.8902 12.2398 11.3437 11.8127 11.8841C11.3833 12.4275 11 13.1392 11 14C11 14.5523 11.4477 15 12 15C12.5523 15 13 14.5523 13 14C13 13.7563 13.1064 13.4728 13.3819 13.1241C13.6599 12.7724 14.0439 12.4369 14.467 12.0965C15.3485 11.3873 16 10.2821 16 9C16 6.79086 14.2091 5 12 5C9.79086 5 8 6.79086 8 9C8 9.55228 8.44772 10 9 10C9.55228 10 10 9.55228 10 9ZM12 18C12.5523 18 13 17.5523 13 17C13 16.4477 12.5523 16 12 16C11.4477 16 11 16.4477 11 17C11 17.5523 11.4477 18 12 18Z" fill="#868686"/>
</svg>
