<svg width="59" height="26" viewBox="0 0 59 26" fill="none" xmlns="http://www.w3.org/2000/svg">
<g clip-path="url(#clip0)">
<g clip-path="url(#clip1)">
<g clip-path="url(#clip2)">
<rect x="0.673828" y="0.108276" width="26" height="26" rx="5.41667" fill="#FF6200"/>
<mask id="mask0" mask-type="alpha" maskUnits="userSpaceOnUse" x="0" y="0" width="27" height="27">
<rect x="0.673828" y="0.108276" width="26" height="26" rx="5.41667" fill="#FF6200"/>
</mask>
<g mask="url(#mask0)">
<path fill-rule="evenodd" clip-rule="evenodd" d="M11.415 39.9667C10.6796 39.9667 10.8888 41.1635 10.6796 41.7073C10.5742 41.8157 10.4656 42.0325 10.5742 42.1417H12.1472C12.1472 42.1417 12.2526 41.1635 12.2526 40.9466C12.1472 40.7281 11.831 40.1835 11.415 39.9667ZM13.3896 31.3402C12.846 30.9178 11.9751 30.4944 10.6691 30.0705C10.3426 29.9647 9.5811 30.0705 9.25377 30.0705C8.38118 31.5513 8.05803 32.9284 7.40421 34.5157C7.29314 34.8351 7.07604 35.4703 7.07604 35.4703C6.53496 35.1534 5.98801 34.9423 5.44192 34.9423C4.56933 34.9423 3.91717 35.2592 3.59236 36.1057C3.26838 36 2.8325 35.7889 2.28807 35.8927C1.52821 36 0.871869 36.4241 0.544541 37.0585C0.219733 37.4809 0.110343 37.9051 0.219733 38.3292C-0.323034 38.5412 -0.654542 39.0709 -0.869961 39.4933C-1.08624 40.3398 -0.323034 41.8241 0.00261434 42.1417H1.09065C0.871869 41.1888 0.436832 40.7647 0.76332 39.8117C0.982938 39.282 1.7428 39.0709 1.96156 38.9636C1.96156 38.5412 1.41548 38.2234 1.52821 37.7978C1.7428 37.2714 2.39578 37.2714 3.0496 37.3754C2.94021 38.0123 2.8325 38.8579 2.72311 39.7044C2.61372 40.659 3.15899 42.1417 3.15899 42.1417H4.24618H4.35557C4.24618 41.8241 4.13763 41.5055 4.13763 41.1888C4.03158 40.8703 4.03158 40.659 4.03158 40.3398C4.13763 39.9174 4.13763 39.4933 4.13763 39.1782C5.22648 38.6468 4.89916 39.3876 5.11543 39.5989C5.11543 39.5989 5.55465 38.6468 5.00855 38.2234C4.89916 38.1179 4.24618 38.2234 4.24618 38.1179C4.24618 38.0123 4.35557 37.6938 4.46328 37.3754C4.68372 36.9513 4.79145 36.8474 5.00855 36.5289C5.11543 36.4241 5.44192 36.4241 5.8803 36.5289C5.98801 36.5289 6.53496 36.6344 6.85894 36.7402C6.74956 37.0585 6.31452 37.6938 6.20847 38.0123C5.77341 39.282 5.77341 40.7647 5.8803 42.1417H7.07604C7.07604 41.3982 6.96833 40.5517 7.07604 39.8117C7.29314 38.8579 7.61797 38.7523 7.73154 38.7523C7.9453 38.7523 8.16408 38.9636 8.27679 39.1782C8.49141 40.2341 7.83925 41.1888 7.83925 42.1417H8.71016C8.71016 42.1417 9.03833 42.0352 9.14604 41.7185C9.36232 41.0816 9.7982 40.4446 9.90925 39.8117C10.0153 39.282 9.7982 38.8579 9.47003 38.2234C9.14604 37.7978 8.81955 37.4809 8.05803 36.9513C7.83925 36.5289 8.05803 36 8.05803 36C8.05803 36.1057 8.49139 35.8927 8.71016 35.8927C9.5811 36.1057 9.7982 36.1057 10.2332 36.3168C10.5597 36.4241 10.9939 36.6344 11.3213 36.8474C11.6478 37.0585 11.9751 37.6938 12.3016 38.4347C12.3016 38.4347 12.5187 37.0585 12.5187 36.6344C12.0861 36.213 11.6478 35.7889 10.9939 35.4703C10.447 35.0462 9.25377 34.7295 8.71016 34.5157C8.71016 34.5157 8.92728 34.1989 8.92728 33.9878C9.5811 33.8805 10.3426 33.8805 10.6691 33.9878C11.7588 34.3062 13.0631 34.9423 13.6092 35.3647C13.6092 35.3647 13.8246 34.9423 13.8246 34.7295C13.8246 34.7295 12.3016 33.7765 12.4093 33.4581C11.9751 33.1413 11.6478 32.8227 11.2135 32.7164C10.5597 32.6123 9.25377 32.5068 9.25377 32.5068C9.25377 32.5068 9.5811 32.0844 9.90925 31.7643H10.7802C11.2135 31.7643 12.3016 32.0844 12.9537 32.4012C13.9357 32.8227 14.4768 33.1413 14.5878 33.3524C14.6939 33.034 14.8049 32.6123 14.916 32.4012C13.7169 31.9771 13.8246 31.5513 13.3896 31.3402ZM10.941 28.4275C11.0472 28.1035 10.941 27.8875 11.0472 27.5618C11.0472 27.3458 11.0472 26.805 11.1559 26.4811C10.941 26.3714 10.508 26.589 10.1902 26.589C9.86827 26.589 9.11911 26.589 9.11911 26.697C9.22531 26.9148 9.22531 27.1299 9.33151 27.3458C9.43854 27.5618 9.54474 27.7779 9.54474 28.3211C9.54474 28.6452 9.65422 28.9709 9.54474 29.4021C9.54474 29.4021 10.941 28.6452 10.941 28.4275ZM9.59706 25.872C9.81433 25.5535 10.4636 24.9186 10.6858 24.7056C10.4636 24.4943 10.3591 24.1758 10.2497 23.9643C9.81433 23.9643 8.17908 24.5984 8.17908 24.5984C8.50662 25.1292 8.72555 25.6608 8.9428 26.2948C9.16173 26.1891 9.37814 26.0835 9.59706 25.872ZM13.7031 26.4155H13.0587C13.0587 26.4155 12.8448 27.2446 12.8448 27.8676C12.7386 28.1799 12.6283 28.387 12.6283 28.4904C12.4144 28.9054 12.3082 29.009 12.0959 29.5284C12.4144 29.6319 12.7386 29.4248 12.9509 29.4248C13.1649 29.3213 13.4866 29.2161 13.5969 29.1142C13.7031 29.009 14.0248 28.2818 14.1326 28.0762V27.35C14.0248 27.1412 14.1326 26.7262 14.1326 26.4155C14.0248 26.2068 13.8092 26.3103 13.7031 26.4155ZM19.6162 34.2182C19.5067 34.1096 19.5067 33.8906 19.3931 33.6751C19.1742 33.0199 19.2853 32.6933 19.1742 32.0432H18.2893C18.0669 32.1501 17.9558 32.0432 17.7361 32.1501C17.7361 32.5864 17.8465 32.9113 18.1782 33.4562C18.5082 34.1096 19.6162 34.2182 19.6162 34.2182ZM8.36619 24.1196C8.36619 24.1196 8.7039 23.9106 8.7039 23.6967C9.26765 23.0637 9.94397 22.5337 10.0591 22.4318C9.83053 21.9 9.71881 21.7946 9.37937 21.4785C9.26765 21.5839 8.7039 21.9 8.58873 22.1122C8.36619 22.2176 8.1393 22.323 8.02239 22.4318C8.02239 22.6423 8.1393 22.7461 8.24928 22.9584C8.24928 23.1691 8.36619 23.6967 8.36619 24.1196ZM16.9054 27.798C16.9054 27.693 16.5651 27.693 16.3418 27.693C16.1141 27.693 15.8925 27.798 15.6623 27.798C15.4373 28.1093 15.3256 28.4191 15.213 28.8338C15.1013 29.1444 14.8745 29.3509 14.7593 29.5574C14.7593 29.5574 15.7774 29.3509 16.0024 29.3509C16.3418 29.1444 16.5651 29.0394 16.7921 28.6256C16.9054 28.3143 17.0196 28.2125 16.9054 27.798ZM30.6792 36.2221C30.4614 36.1151 28.3771 35.1645 28.0482 35.1645C27.3899 35.2699 26.296 35.2699 25.6345 35.5879C25.5276 35.2699 25.4191 34.741 25.6345 34.4239C25.7429 34.2113 26.8417 34.2113 27.1696 34.2113C28.3771 34.3184 29.0337 34.5276 29.3626 34.5276C29.692 34.8465 30.0224 34.8465 30.131 34.8465C30.131 34.8465 30.0224 34.2113 29.9108 34.0004C29.4742 33.7895 29.0337 33.6841 28.7041 33.5787C28.1568 33.3661 27.9391 33.259 27.062 33.1552C26.735 33.1552 26.735 33.259 26.0767 33.259C26.0767 33.1552 26.1851 33.0481 26.296 32.9427C26.5113 32.6272 26.735 32.4163 26.9536 32.2039H28.7041C29.1456 32.3092 29.3626 32.4163 29.9108 32.6272C30.2377 32.6272 29.9108 32.1 29.9108 31.7803C29.8022 31.6733 29.692 31.5679 29.4742 31.4623C29.0337 31.357 28.7041 31.2516 28.2653 31.039C27.9391 30.9351 27.2832 30.7235 26.735 30.829C26.1851 31.039 26.1851 30.9351 25.7429 31.1461C25.1979 31.8874 24.8692 32.7311 24.5413 33.5787C24.5413 33.7895 23.9924 35.0572 23.9924 35.2699C23.9924 35.3752 23.8855 35.5879 23.8855 35.5879C23.444 35.4808 21.4715 35.1643 20.925 35.6917C20.708 35.9024 20.486 36.1151 20.1549 36.7486C19.7176 36.4331 19.3881 36.326 18.9508 36.326C18.4009 36.326 17.7459 36.643 17.4172 37.1702C17.4172 37.279 16.5403 38.8631 16.6487 40.3425C16.7589 41.1902 17.0885 41.5066 17.5256 42.1417H18.7338C18.6237 41.7191 18.4009 41.1902 18.1839 40.5542C18.0738 40.0262 18.2942 39.0757 18.4009 38.2295C18.4009 38.2295 18.7338 38.0188 19.0593 37.9117C19.2812 37.7008 19.3881 37.8045 19.7176 37.8045C19.8294 37.8045 19.8294 37.9117 19.8294 37.9117C19.3881 38.3351 19.3881 38.7577 19.2812 39.392C19.2812 39.7082 19.7176 41.2957 20.1549 42.1417H21.0352C21.0352 42.1417 20.8149 40.0262 20.925 39.8153C20.925 39.392 21.0352 39.0757 21.1436 38.7577C21.3631 38.8631 21.5799 38.8631 21.8004 38.9686C22.1283 39.1828 22.1283 39.392 22.1283 39.7082C22.1283 40.2372 22.1283 40.3425 22.0214 40.6615V41.1902C22.0214 41.7191 22.1283 42.1417 22.1283 42.1417H23.0086C23.0086 41.1902 23.1136 41.2957 23.2254 40.7668C23.3356 40.3425 23.2254 40.1333 23.3356 39.8153C23.3356 39.6029 23.444 39.392 23.5576 39.2866C23.8855 39.0757 24.104 39.0757 24.5413 39.1828C24.5413 39.4973 24.5413 39.8153 24.4346 40.1333C24.3211 40.6615 24.2126 41.1902 23.9924 41.7191C23.9924 41.8245 23.8855 42.0354 23.7736 42.1417H25.0895C25.0895 42.1417 25.3065 41.7191 25.4191 41.1902C25.7429 41.5067 26.1851 41.2957 26.4029 41.2957C26.735 41.1902 26.9536 40.8722 27.1696 40.6615C26.735 40.3425 25.7429 40.4471 25.7429 40.0262C25.5276 39.2866 25.7429 39.1828 25.7429 38.7577C25.7429 38.1242 25.0895 37.9117 24.4346 37.8045C24.2126 37.7008 23.7736 37.7008 23.5576 37.7008C23.3356 37.8045 23.1136 38.1242 22.9 38.1242C22.9 38.1242 22.4587 37.8045 22.1283 37.7008C21.9105 37.7008 21.2512 37.4882 21.2512 37.4882C21.3631 37.279 21.4715 37.0666 21.5799 36.9593C21.6885 36.8556 22.0214 36.5377 22.1283 36.5377C22.3501 36.4331 22.6773 36.5377 22.9 36.643C23.444 36.7486 23.8855 36.8556 23.9924 36.8556C24.104 36.8556 24.4346 37.0666 24.4346 37.0666C24.7574 36.8556 24.7574 36.643 24.9777 36.643C25.6345 36.4331 25.8562 36.326 26.5113 36.326C27.062 36.326 27.5018 37.279 27.8272 37.5953C27.9391 37.8045 28.7041 38.7577 29.1456 39.6029C29.3626 39.4973 29.4742 39.2866 29.692 39.2866C29.692 39.0757 29.5829 38.2295 29.4742 38.1242C29.1456 37.1702 28.489 36.9593 28.489 36.7486C28.7041 36.7486 29.1456 36.9593 29.3626 36.9593C29.5829 37.0666 29.9108 37.1702 30.2377 37.3828C30.3496 37.4882 30.5691 37.5953 30.6792 37.7008C30.7876 38.1242 30.7876 38.4405 31.0079 38.8631C31.0079 38.9686 31.0079 39.0757 31.1163 39.1828C31.446 38.5468 31.7748 38.4405 31.9934 37.9117C31.7748 36.9593 31.2249 36.5377 30.6792 36.2221ZM29.7772 41.0308C29.554 41.4752 29.3299 41.9178 29.3299 42.1417H30.5573C30.8934 41.6981 31.0037 41.2537 30.7796 40.588C30.4477 40.6987 29.7772 40.3633 29.7772 41.0308ZM18.0188 30.5334C18.3408 30.428 18.5523 30.2156 18.8751 30.1102C19.0866 30.0046 19.3028 28.3145 19.3028 28.3145C19.3028 28.3145 18.6621 28.4183 18.5523 28.5252C18.4448 28.5252 18.0188 28.5252 17.8066 28.7361C17.8066 29.0529 17.8066 29.369 17.7008 29.7924C17.4863 30.1102 16.9528 30.3209 16.9528 30.8494C16.9528 30.8494 17.3805 30.9556 17.4863 30.9556C17.7008 30.8494 17.9131 30.6387 18.0188 30.5334ZM7.3957 18.3287V18.8514C7.3957 19.0621 7.50969 20.2144 7.50969 20.528C7.62026 20.8431 7.62026 21.1567 7.72912 21.4713C7.84566 21.6803 7.95624 21.8893 7.95624 22.1C7.95624 22.1 8.18078 21.9971 8.28963 21.7847C8.62561 21.4713 8.7396 21.1567 8.96244 20.7387C8.85015 20.0054 8.62561 19.3757 8.62561 19.1667C8.62561 18.3287 8.7396 18.118 8.85015 17.5945C8.40534 17.8027 7.84566 18.118 7.3957 18.3287ZM22.0678 33.2861C22.173 33.2861 22.2797 33.0729 22.2797 33.0729C22.173 32.6444 22.0678 32.1117 21.9661 31.6838C21.9661 31.6838 21.6483 31.469 21.3379 31.469C21.1285 31.469 20.9199 31.3625 20.713 31.469C20.8147 31.792 20.8147 32.0067 20.9199 32.3264C21.2312 32.7517 21.6483 32.9647 22.0678 33.2861ZM12.3568 21.899C12.2534 21.6887 11.94 21.5837 11.7325 21.4785C11.5225 21.4785 11.3125 21.899 11.3125 22.321C11.3125 22.5312 11.4191 23.271 11.5225 23.5863C11.5225 23.6915 11.7325 23.7982 11.94 23.9049C12.2534 24.1135 12.5651 24.2185 12.8792 24.4304C12.8792 24.4304 12.5651 23.4829 12.4617 22.9549C12.3568 22.6396 12.5651 22.2159 12.3568 21.899ZM14.7932 25.2072C14.9039 24.7747 15.2294 24.559 15.2294 23.8018C15.2294 23.8018 15.122 23.2607 15.0146 23.0441C14.9039 22.8282 14.7932 22.6123 14.4694 22.3966C14.3595 22.3966 14.1448 22.1773 14.0374 22.2852C14.0374 22.2852 13.9267 23.1519 13.8193 23.2607C14.0374 23.5844 14.2538 23.8018 14.3595 24.1256C14.4694 24.451 14.5768 24.8828 14.7932 25.2072ZM17.7451 26.9163C18.0774 26.5947 17.7451 26.0599 17.7451 25.74C17.6313 25.4185 17.7451 25.0979 17.6313 24.7762C17.5208 24.563 17.2948 24.4563 17.074 24.4563C16.8505 24.4563 16.2931 24.1349 16.2931 24.3481C15.7348 24.3481 16.1826 24.8829 16.1826 25.2036C16.1826 25.6317 17.2948 26.7014 17.2948 26.7014C17.5208 26.8079 17.5208 26.7014 17.7451 26.9163ZM7.14745 17.9052C7.37092 17.5817 8.03879 16.9342 8.36888 16.5004C8.59493 16.2853 9.04016 15.7462 10.1499 15.2066C10.2608 14.7745 10.3725 14.4515 10.3725 14.0211C9.26024 14.3441 8.48148 14.5609 8.26228 14.7745C7.70529 15.099 7.48096 15.3158 6.92569 15.6405C6.92569 16.2853 6.92569 16.2853 7.03571 16.6097L7.14745 17.9052ZM24.1598 29.8672C23.8223 29.6607 23.2627 29.0392 22.9304 28.7285C22.7028 28.5219 22.8135 28.212 22.5904 28.0037C22.369 28.0037 22.1422 28.0037 21.9199 28.107C21.5826 28.107 21.361 28.107 21.0262 28.212C21.1369 28.417 21.1369 28.6252 21.361 28.7285C21.8075 29.1425 21.8074 29.2474 22.2547 29.8672C22.369 30.0755 22.9304 30.1789 23.3751 30.1789C23.6017 30.1789 24.0456 29.9722 24.1598 29.8672ZM19.9275 23.9643C19.4729 24.0675 18.5699 24.1708 18.5699 24.4821C18.4565 24.7919 18.5699 25.1024 18.5699 25.3105C18.6859 25.517 18.6859 25.7236 18.6859 26.0349C18.6859 26.2414 18.5699 26.4494 18.6859 26.7609C18.7993 26.5527 19.3629 26.3462 19.4729 26.1381C19.7006 25.8283 19.9275 25.622 20.0392 25.3105C20.1526 25 20.0392 24.4821 19.9275 23.9643ZM21.269 23.869C20.935 24.0826 20.713 24.1895 20.713 24.4031C20.713 24.8322 20.8222 25.2603 20.8222 25.4756C20.8222 25.7978 20.8222 26.0114 20.935 26.1183C21.269 26.225 21.3835 26.225 21.8311 26.4388C21.8311 26.5472 22.2797 26.7609 22.2797 26.7609C22.2797 26.7609 22.0575 25.7978 21.9439 25.367V23.6537C21.4946 23.7604 21.3835 23.869 21.269 23.869ZM8.56829 13.8115C8.67455 13.7069 9.85754 12.8751 9.96216 12.7713C10.1772 12.5638 10.2851 12.6676 10.3881 12.46C10.3881 11.8351 10.6072 11.8351 10.4993 11.6291C10.3881 11.4184 9.53378 11.6291 9.31794 11.6291C8.78247 11.7312 7.81531 12.0418 7.81531 12.251C7.70905 12.5638 7.70905 13.2903 7.70905 13.3972C7.81531 13.7069 7.81531 14.0206 7.91995 14.3319C8.24699 14.0206 8.34997 13.9169 8.56829 13.8115ZM32.0453 32.6704C31.9419 32.566 31.7334 32.4598 31.5233 32.3539V32.7773C31.5233 33.2014 31.6252 33.309 31.6252 33.5228C31.6252 33.7349 31.9418 35.2235 31.9418 35.6476C32.4631 35.7555 32.4631 36.1813 32.7767 36.3934C32.7767 36.3934 32.5666 35.1176 32.5666 33.5228C32.5666 33.4152 32.2562 32.7773 32.0453 32.6704ZM25.551 28.7298C25.9838 29.0392 26.8471 28.9357 27.6066 28.8331C27.1704 28.5214 27.0643 28.3129 26.8471 28.1077C26.5211 27.8993 26.3088 27.7959 25.8751 27.3822H24.473C24.6862 27.8993 24.7916 28.2112 25.551 28.7298ZM21.3051 21.8402C21.5259 21.6335 21.7437 21.221 21.7437 21.1161C21.9663 20.7026 21.9663 20.1842 21.9663 19.7691C21.0882 19.2499 19.9875 19.1482 18.8884 19.1482C17.8984 19.1482 16.7984 19.2499 15.6993 19.9775C15.8116 20.3925 15.9186 20.7026 16.1404 21.1161C16.2492 21.1161 16.3597 21.3243 16.467 21.3243C16.6879 21.1161 16.9096 20.8059 17.2362 20.7026V21.1161C17.2362 21.4268 17.2362 21.6335 17.35 21.9469C17.35 22.2554 17.6798 22.2554 18.1175 22.2554C18.5561 22.2554 18.6691 21.5303 18.6691 21.4268C18.6691 21.4268 18.7796 21.8402 19.4359 22.1519C19.4359 22.1519 20.2051 22.1519 20.2051 22.0487C20.3173 21.5303 20.4286 21.4268 20.3173 21.0126C20.3173 21.0126 20.9777 21.4268 21.3051 21.8402ZM24.7864 25.8751C24.3379 25.2301 24.227 24.5858 24.227 24.4785C24.0031 24.2624 24.4489 23.5117 23.8885 23.5117C23.6673 23.4012 22.9941 23.1876 22.9941 23.1876C22.8771 23.5117 22.8771 24.1551 22.9941 24.4785C22.9941 24.8003 23.5511 25.7695 23.7767 25.8751C23.8885 25.9841 24.4489 25.9841 24.5652 25.9841C24.6746 25.8751 24.7864 25.8751 24.7864 25.8751ZM7.92711 11.8461C8.15026 11.5323 8.15026 11.5323 8.37171 11.3186C8.81889 11.003 9.04205 10.791 9.59568 10.3686C9.70557 10.1566 9.81715 10.2634 10.1502 10.053C10.2609 9.9487 10.3725 9.84185 10.3725 9.73666C10.3725 9.52629 10.2609 9.31427 10.1502 9.10555C10.0386 8.89353 9.81715 8.36596 9.81715 8.25913C9.81715 7.41682 9.93043 7.20646 10.0386 6.46685C9.59568 6.36168 9.04205 6.36168 8.81889 6.78406C8.59743 7.10127 8.59743 7.41682 8.59743 7.73568C8.59743 8.25913 8.7073 8.68317 8.81889 9.31427C8.37171 9.63314 8.15026 9.84185 7.70905 10.053C7.81892 10.6858 7.92711 11.8461 7.92711 11.8461ZM29.9566 27.2498C29.7418 27.0354 29.5279 26.8218 29.2047 26.6058C28.7711 26.4985 28.5596 26.2824 28.3397 25.8537C28.2332 25.6394 28.1267 25.4233 27.9093 25.2072C27.6978 25.2072 27.5896 25.316 27.3748 25.4233C27.1576 25.6394 26.7245 25.6394 26.5098 25.961C26.6163 26.1753 26.7245 26.3914 26.9412 26.6058C27.0509 26.713 27.1576 26.9291 27.5896 27.1425C28.3397 27.5712 28.5596 27.6785 28.5596 27.6785C29.2047 27.7873 29.9566 27.2498 29.9566 27.2498ZM24.6297 22.5661C24.6297 22.5661 24.7347 23.1017 24.9515 23.6348C25.0615 23.8494 25.2748 24.0622 25.3856 24.0622C25.5972 24.1687 26.0322 24.275 26.3531 24.275V24.0622C26.0322 23.7411 25.5972 22.9952 25.5972 22.7807C25.3856 22.6759 25.3856 22.6759 25.0615 22.6759C24.9515 22.5661 24.7347 22.5661 24.6297 22.5661ZM34.4461 30.1789C34.3444 30.4904 34.0302 30.6969 34.0302 31.1109C34.0302 31.1109 34.5524 31.6274 34.6572 31.9407C34.7612 32.1474 34.6572 33.0794 34.7612 33.2861C35.0739 32.9744 35.2835 32.8712 35.2835 32.4589C35.1771 32.3554 35.0739 31.5242 34.9691 30.9044C34.9691 30.6969 34.6572 30.3872 34.4461 30.1789ZM43.1558 37.6361C42.6166 37.6361 41.9736 38.2649 41.5454 40.2543C41.4384 40.9898 41.3305 41.62 41.4384 42.0363L42.4017 42.1417C42.6166 41.8273 42.6166 41.3034 42.8323 40.8836C42.8323 40.6746 43.0495 40.6746 43.2602 40.6746C43.4769 40.7792 43.9083 41.3034 44.1197 41.5122C44.2276 41.3034 44.4417 40.8836 44.4417 40.5685C44.4417 40.4624 44.1197 40.2543 44.0128 40.2543C43.6926 40.0453 43.4769 39.8363 43.0495 39.8363C42.9401 39.4166 43.583 38.8926 43.583 38.8926C44.3339 38.8926 45.0863 39.7302 45.0863 39.7302C45.3003 39.6256 45.4066 39.3122 45.624 39.1032C44.9785 37.9497 43.7987 37.6361 43.1558 37.6361ZM37.477 32.0122C37.3707 31.8008 37.2659 31.4847 37.1636 31.2749C37.1636 31.1699 37.1636 30.9603 37.0572 30.6448C37.0572 30.6448 36.3266 31.1699 36.2235 31.2749C36.64 31.8008 36.4329 32.1188 36.5337 32.5381C36.5337 32.7461 36.9542 32.8519 37.0572 33.168C37.0572 33.2712 36.8526 34.2182 36.8526 34.2182C37.477 33.3777 37.477 32.3268 37.477 32.0122ZM46.3797 41.2812C46.2718 41.6063 46.1588 41.8191 45.9372 42.0336C46.0493 42.1417 46.2718 42.1417 46.3797 42.1417H47.4913C47.5957 42.0336 47.5957 41.7118 47.7078 41.4958C47.7078 41.2812 47.8173 41.0652 47.8173 40.7433H47.1525C46.8221 40.7433 46.491 40.9596 46.3797 41.2812ZM31.4456 25.7218H31.9861C32.2047 25.7218 32.2047 25.3095 31.9861 25.3095C31.227 25.1019 30.5794 24.8967 30.1467 24.275C30.0394 24.3798 29.3876 24.5842 29.1732 24.7919C29.1732 24.7919 29.3876 25.3095 29.9291 25.8264C30.2521 26.1356 30.9058 25.9295 31.4456 25.7218ZM26.6665 22.2163C26.9927 22.645 27.3164 22.9641 27.6392 23.284C27.7442 23.4984 28.0679 23.4984 28.2809 23.4984H29.3586C29.6823 23.3886 29.897 23.3886 30.1133 23.1767C29.6823 22.9641 29.1456 22.7497 28.7119 22.5354C28.2809 22.3226 27.9604 22.1099 27.6392 21.7893C27.4212 21.7893 27.3164 21.8956 27.205 21.8956C26.9927 22.0053 26.8828 22.1099 26.6665 22.2163ZM15.2294 17.0717C15.2294 17.0717 15.6611 16.9732 15.9881 16.9732C16.2069 16.9732 16.4231 16.9732 16.6394 17.0717C16.5289 17.1703 16.0954 17.3677 16.0954 17.3677C15.8824 17.4664 15.7717 17.5643 15.4449 17.6628C15.3374 17.4664 15.2294 17.0717 15.2294 17.0717ZM15.1596 14.81C15.3737 14.4949 15.8085 14.2847 16.1309 14.1797C16.5607 14.0748 16.4508 13.2321 16.4508 13.1271C16.5607 12.9152 16.4508 12.6003 16.4508 12.3886C16.2374 12.4951 16.2374 12.3886 15.8085 12.4951C15.3737 12.4951 15.1596 12.2834 14.9464 12.0717C14.7265 11.8625 14.1909 11.4407 13.976 11.0223C14.5116 10.9139 14.9464 10.9139 15.4836 10.9139H16.8846C17.2045 11.0223 17.4227 11.2323 17.4227 11.4407C17.4227 11.5459 17.3162 12.1784 17.3162 12.2834C17.2045 12.9152 17.2045 13.1271 17.0996 14.0748V14.3899C16.9913 14.6016 16.5607 14.7065 16.3458 14.9167C16.2374 15.2316 16.2374 15.4435 15.9135 15.5485C15.5886 15.6552 15.3737 15.9694 15.1596 15.8644C14.8364 15.6552 14.9464 15.1267 15.1596 14.81ZM13.3838 9.36035C13.1601 9.15537 12.7136 8.84383 12.4916 8.429C12.1612 8.01496 12.2696 7.60176 12.2696 7.49682C12.4916 6.87537 13.2703 6.66715 13.7185 6.56385C13.9388 6.56385 14.1625 6.56385 14.4955 6.77207C14.9412 6.97867 15.1649 6.97867 15.3861 7.70344C15.3861 7.80998 15.3861 7.91004 15.275 7.91004C15.275 7.91004 14.6056 8.32406 14.3828 8.53393C13.8287 8.84383 13.7185 9.36035 13.3838 9.36035ZM16.5502 9.30299C16.8724 9.08335 17.1906 8.86544 17.4074 8.86544C17.6229 8.75648 18.0495 8.64582 18.0495 8.86544C18.0495 9.30299 17.7289 9.52089 17.4074 9.95673C17.1906 10.2827 17.0862 10.0674 16.5502 10.0674H16.0127C16.0127 9.74053 16.2288 9.62986 16.5502 9.30299ZM21.0413 8.78851C21.2509 8.78851 23.0569 9.19429 21.8901 9.69953C21.6748 9.90321 21.1465 9.80058 20.6139 9.80058C20.6139 9.60007 20.6139 9.19429 20.4036 9.19429C20.1875 8.99061 19.872 8.99061 19.872 8.78851C19.4439 8.38274 20.5087 8.68747 21.0413 8.78851ZM23.2174 6.7668C23.5547 6.44809 24.0054 6.3424 24.4499 6.44809C25.0095 6.55377 25.1202 6.65946 25.3451 6.87247C25.6816 7.29688 25.5709 8.14401 25.4558 8.67324C25.3451 8.99196 25.0095 9.205 24.6747 9.205C24.1143 8.56924 23.5547 8.14399 22.7719 7.93098C22.6595 7.50823 22.9993 7.08385 23.2174 6.7668ZM23.9391 11.2369C23.8288 11.4482 23.6064 11.5547 23.3858 11.6646C23.273 11.6646 23.1668 11.8759 23.1668 11.9824C22.942 12.3029 22.6118 12.4094 22.1707 12.4094C21.9474 12.4094 21.5061 12.4094 21.2846 11.9824C21.2846 11.9824 21.3933 13.2649 21.3933 13.5844C21.3933 13.6909 21.5061 13.6909 21.5061 13.6909C21.9474 13.7974 22.0586 14.2259 22.2783 14.4389C22.2783 14.4389 22.3896 14.5455 22.5024 14.5455C22.942 14.865 23.9391 15.2927 23.4969 15.2927C23.4969 15.5075 23.1668 16.0409 23.0575 16.0409C22.7214 15.7222 22.1707 15.5075 21.725 15.2927C21.6156 15.0797 21.5061 14.865 21.3933 14.6537C21.1753 14.4389 21.064 14.4389 20.7305 14.2259C20.7305 13.4796 20.621 13.4796 20.621 12.7306C20.621 12.6241 20.3996 11.4482 20.3996 11.4482C20.3996 11.3416 20.7305 11.0238 21.064 10.9139C21.064 10.9139 23.1668 10.9139 24.1598 11.0238C24.1598 11.0238 24.0519 11.2369 23.9391 11.2369ZM22.6408 17.7498C22.2068 17.6372 21.8825 17.2986 21.3396 17.2986C21.3396 16.9627 21.3396 16.9627 21.4501 16.8481C22.1012 16.7357 22.4263 16.9627 22.7496 17.0753C22.7496 17.1877 22.6408 17.7498 22.6408 17.7498ZM15.5562 19.2678C15.8841 19.2678 16.2114 18.951 16.5378 18.8431C17.1879 18.6307 17.7348 18.4183 18.3851 18.3121C18.6063 18.2026 18.6063 17.9919 18.6063 17.7777C18.7155 17.5662 18.7155 17.5662 18.7155 17.2476C18.7155 17.1413 18.279 17.0352 18.0602 16.6071C17.8432 16.2868 18.0602 15.9682 17.9511 15.9682C17.6271 16.1807 17.1879 16.3931 17.082 15.9682C16.9726 15.6504 16.9726 15.2223 17.3007 15.1162C18.3851 14.6913 19.5845 14.6913 20.6756 15.1162C20.8909 15.1162 21.0002 15.3301 21.0002 15.5426C21.1079 15.755 21.0002 15.9682 20.7815 16.1807C20.4551 16.2868 20.1262 15.8621 20.1262 16.1807C20.1262 16.4992 19.9109 16.9274 19.365 17.1413C19.2589 17.2476 19.365 17.5662 19.4769 17.8855C19.4769 17.9919 19.4769 18.2026 19.5845 18.2026C20.0203 18.3121 20.6756 18.4183 21.0002 18.6307C21.4335 18.8432 22.1947 19.4803 22.3058 19.3757C22.6305 19.1632 22.7381 18.8432 22.9594 18.6307C24.1546 19.1632 25.133 19.4803 26.6589 20.4419C26.8759 20.4419 26.8759 20.0155 26.8759 19.8013C26.3292 19.4803 24.6955 18.6307 24.481 18.5229C24.047 18.4183 23.8299 18.2026 23.3917 18.098V17.2476C24.1546 17.4601 25.674 17.5662 27.2032 18.4183C27.3092 18.098 27.5294 17.8855 27.4203 17.7777C25.674 16.9274 24.3751 16.6071 23.284 16.6071C23.284 16.4992 23.0638 16.3931 23.284 16.2868C23.6104 16.0743 23.719 15.9682 23.8299 15.8621C24.1546 15.4364 24.3751 15.01 24.481 14.5852C24.8066 13.9463 25.133 14.1587 25.3525 12.774C25.0254 12.774 24.9143 12.9864 24.5896 13.0942C24.6955 12.774 24.8066 12.4554 24.8066 12.1351C24.9143 11.4955 25.133 11.0706 25.133 10.3239C25.4602 10.216 26.0053 9.89829 26.113 9.4735C26.113 9.36562 26.113 9.04703 26.2231 8.62058C26.2231 7.98255 26.3292 7.4499 26.113 7.02343C26.113 6.91725 25.3525 5.85277 24.8066 5.53418C24.047 5.21392 23.719 5.32178 23.1747 5.4263C22.5211 5.4263 21.6488 6.06516 21.6488 7.2375C21.0002 7.2375 19.6922 7.3437 18.931 7.98255C18.279 7.66229 17.7348 7.55776 17.1879 7.4499H16.2114C16.1038 7.02343 15.8841 6.59699 15.45 6.2784C14.9075 5.96063 14.2506 5.53418 13.4893 5.53418C13.1629 5.53418 12.8382 5.4263 12.511 5.64205C12.1846 5.85277 11.6404 6.06516 11.5327 6.49078C11.314 7.02343 11.097 7.4499 11.097 7.98255C11.097 8.51604 11.425 8.94083 11.7514 9.4735C11.8566 9.68756 11.9676 9.68756 12.1846 9.79209C12.294 9.79209 12.7305 10.0061 12.8382 10.1115C12.9459 10.216 12.7305 10.5379 12.7305 11.1785C12.7305 11.7095 12.7305 11.7095 12.8382 12.1351C12.8382 12.5615 12.9459 12.9864 13.0553 13.305C12.7305 13.305 12.511 12.9864 12.294 13.2004C12.294 13.4145 12.511 13.9463 12.7305 14.3712C13.274 14.9037 13.8165 15.4364 14.1446 16.0743C14.1446 16.1807 14.1446 16.3931 14.2506 16.3931C13.4893 16.4992 12.7305 16.4992 11.9676 16.7149C11.314 16.9274 10.5527 17.2476 9.90247 17.5662C9.90247 17.9919 10.0085 18.3121 10.0085 18.3121C10.1178 18.3121 11.097 17.7777 11.9676 17.5662C13.3816 17.1413 14.1446 17.2476 14.1446 17.2476C14.2506 17.4601 14.3608 17.7777 14.2506 17.8855C12.9459 18.4183 11.6404 19.0571 10.44 19.8013C10.5527 20.0155 10.44 20.3341 10.6621 20.5463C11.7514 19.9075 13.274 19.1632 14.3608 18.7368C14.7965 18.6307 14.7965 18.7368 15.0152 18.7368C15.1229 18.8432 15.3391 19.2678 15.5562 19.2678ZM36.3802 28.6857C36.3802 28.6857 36.1718 28.2717 36.1718 28.1705C36.0683 27.9636 35.9649 27.6538 35.6505 27.5512C35.6505 27.4483 35.5453 27.9636 35.4419 28.1705C35.3354 28.3759 35.3354 28.2717 35.1268 28.6857C35.3354 28.993 35.4419 29.1986 35.6505 29.5084C35.6505 29.6111 35.9649 30.0235 35.9649 30.0235C35.9649 30.0235 36.3802 29.1986 36.3802 28.993V28.6857ZM50.2645 40.9791H49.7264C49.5117 40.872 49.4037 40.872 49.2972 40.9791C48.9736 41.2955 48.9736 41.8245 48.7574 42.1417H50.05C50.2645 41.9283 50.4808 41.8244 50.4808 41.3994C50.4808 41.2955 50.4808 41.0829 50.2645 40.9791ZM35.1268 26.3983C35.1268 25.4657 34.8994 25.4657 34.4436 25.0519C34.4436 25.0519 34.1001 25.6739 33.8735 25.9837C34.3291 26.3983 34.4436 26.9163 34.4436 26.9163C34.8994 26.5015 34.8994 26.6048 35.1268 26.3983ZM39.3571 30.1407C39.3571 29.8239 39.2462 29.5088 39.029 29.2971C38.9165 28.9819 38.8076 28.5611 38.8076 28.3494C38.6934 28.141 38.2554 27.5074 38.0347 27.1923C37.8148 26.9829 37.8148 26.4561 37.7041 26.1395L36.3802 26.3494C37.0439 27.1923 37.5968 28.0343 37.9223 28.8777C38.0347 29.1938 39.029 32.3539 39.029 32.3539C39.3571 32.2472 38.9165 30.6675 39.029 30.5626C39.1355 30.3524 39.1355 30.2457 39.3571 30.1407ZM31.1297 21.6835C31.0196 21.4761 30.796 21.0603 30.6844 20.9567C30.5752 20.7492 30.4616 20.5417 30.3483 20.4364C30.2398 20.3342 29.7945 20.4364 29.5737 20.4364C29.3502 20.4364 29.24 20.4364 29.0165 20.5417C29.24 20.7492 29.4601 21.4761 29.5737 21.4761C29.6836 21.6835 29.6836 21.7872 29.9064 21.8943C30.4616 21.9964 30.9062 21.8943 31.4631 22.1C31.6825 21.7872 31.2396 21.7872 31.1297 21.6835ZM34.0302 24.0902C34.0302 24.0902 32.6985 23.3481 32.4753 23.0322C32.1432 23.0322 32.1432 23.0322 31.8103 23.3481C31.5855 23.3481 31.4775 23.4569 31.3667 23.6663C31.7004 23.8809 31.8103 23.9847 32.1432 24.196C32.2556 24.3015 32.3654 24.3015 32.6985 24.196H33.5881C33.8061 24.196 34.0302 24.3015 34.0302 24.0902ZM52.4544 39.8113C52.4544 39.8113 52.341 40.1406 52.2276 40.3574C52.0026 40.906 51.8908 41.1243 51.8908 41.4521C52.2276 41.6756 52.341 41.563 52.794 41.563C53.019 41.563 53.244 41.6756 53.3576 41.6756C53.5826 41.563 53.3576 41.3446 53.3576 41.2352C53.244 41.2352 52.794 40.248 52.4544 39.8113ZM40.8442 30.6448C41.2927 30.3259 41.4061 29.6845 41.5195 29.3654C41.6329 29.0447 41.4061 28.4059 41.2927 28.1931C40.9558 28.1931 40.7335 27.9787 40.5031 27.9787C40.278 27.9787 40.1664 27.4454 39.827 27.5517C39.9404 27.7661 40.1664 28.8329 40.278 29.0447C40.3931 29.1528 40.8442 29.8989 40.8442 30.6448ZM49.2273 36.4707C49.2273 36.3657 48.8816 36.1544 48.7717 36.1544C48.7717 36.0471 48.6511 35.6228 48.5358 35.5188C48.3098 35.4115 48.3098 35.3058 48.0792 35.3058C48.0792 35.4115 48.0792 35.5188 47.9639 35.7301C47.9639 35.9414 47.7335 36.0471 47.8505 36.2584C47.9639 36.4707 48.0792 36.4707 48.3098 36.5762C48.4232 36.6819 48.7717 37.5306 48.8816 37.6361C48.9969 37.5306 48.9969 36.8932 49.2273 36.4707ZM30.1223 19.2486C30.4551 19.2486 30.6746 19.4589 30.8966 19.4589C30.8966 19.1451 30.784 18.9348 30.6746 18.6175C30.5637 18.0902 30.3425 17.7731 30.2299 17.4584C30.2299 17.1429 30.2299 16.931 30.1223 16.7206C30.0129 16.7206 29.9003 16.7206 29.7909 16.6138C29.4605 16.6138 29.0165 16.5071 29.0165 16.5071C29.0165 16.8258 29.1293 17.3515 29.1293 17.6679C29.1293 17.7731 29.5699 18.7227 29.68 18.8279C29.7909 19.0399 29.9003 19.1451 30.1223 19.2486ZM40.6103 26.2479C40.5014 25.9224 40.1727 25.8123 39.9522 25.5953C39.9522 25.5953 38.5228 25.0519 38.2996 25.0519C38.0792 25.1595 38.8515 25.5953 38.9604 25.8123C39.4006 26.2479 40.5014 27.2269 40.5014 27.2269L40.6103 26.2479ZM27.1338 12.9337C27.0248 13.0389 26.9125 13.2508 26.9125 13.3542C26.6913 13.6713 26.3645 13.8824 26.5806 14.1994C26.6913 14.6216 26.6913 15.0421 27.0248 15.3591C27.3559 15.6762 27.7932 15.5693 28.2332 15.8856C28.2332 15.8856 27.9022 14.5147 27.686 13.8824C27.5754 13.4626 27.3559 13.2508 27.1338 12.9337ZM47.9988 20.9111C46.5828 19.5332 45.0546 18.6821 43.529 18.6821C42.2225 18.6821 41.2387 19.6357 41.2387 20.5935C41.2387 24.4149 42.7678 26.8573 43.7481 28.9781C44.0735 29.5091 44.1822 29.9342 44.1822 30.4652C44.2917 31.8456 43.0948 34.3924 42.3303 35.7728C42.2225 35.6654 41.6747 35.5611 41.2387 35.5611C40.149 35.5611 39.7131 36.3021 39.4939 36.9383C39.167 36.9383 38.952 36.7264 38.6199 36.7264C37.3142 36.6207 36.2235 37.7869 36.2235 39.0631C36.2235 40.4402 36.548 41.1864 37.096 42.1417H38.1866C38.0763 41.8233 37.7509 40.2293 37.6413 39.806C37.535 39.1707 37.7509 38.744 38.0763 38.4254C38.5136 37.7869 39.602 38.002 39.602 38.002C39.2765 38.5321 38.8408 39.3807 38.8408 40.2293C38.952 40.7613 39.0574 41.6132 39.3878 42.1417H40.2601C40.4743 41.504 40.2601 40.9747 40.2601 40.4402C40.2601 40.1251 40.2601 39.806 40.3664 39.4866C40.3664 39.275 40.9117 39.9117 40.9117 39.9117C40.9117 39.9117 41.3485 39.3807 41.3485 38.9556C41.3485 38.638 40.6959 38.744 40.589 38.4254C40.4743 38.1078 40.8039 37.3634 40.8039 37.3634C41.458 36.9383 42.0016 37.0458 42.2225 37.0458C42.5469 37.0458 42.6548 37.15 43.0948 37.15C43.4194 37.15 43.529 36.5147 43.529 36.1981C43.6368 36.3021 43.9672 36.5147 44.0735 36.5147C44.3997 36.6207 44.5093 36.6207 44.8363 36.7264C45.2738 36.9383 45.7103 37.15 46.1478 37.5768V37.4693C46.0365 37.0458 46.2541 36.5147 45.9286 36.3021C45.9286 36.3021 45.3816 35.877 44.9458 35.6654C44.7284 35.4535 44.3997 35.4535 44.2917 35.2418C44.1822 35.1359 44.1822 35.0284 44.1822 34.8167C44.1822 34.6041 44.2917 34.2865 44.3997 34.2865C44.6172 34.179 44.7284 34.2865 45.1642 34.4966C45.6007 34.7108 46.0365 35.0284 46.3636 35.2418C46.3636 35.2418 46.4715 35.4535 46.4715 35.3477C46.909 35.1359 46.909 35.0284 46.909 34.3924C46.4715 33.8597 46.909 33.7555 46.2541 33.3304C46.0365 33.3304 44.8363 32.9051 44.8363 32.9051C44.8363 32.6927 45.1642 32.1632 45.1642 32.1632C45.2738 32.059 45.4896 32.059 45.6007 32.2692C46.2541 32.6927 46.6898 32.6927 47.3489 32.9051C47.4518 32.5885 47.4518 32.3766 47.2359 32.1632C47.0153 31.8456 46.6898 31.5248 46.4715 31.4188C46.0365 31.3131 45.8183 31.2071 45.4896 31.1012C45.4896 30.7828 45.3816 30.4652 45.2738 30.0401C45.2738 29.8267 45.4896 29.9342 45.7103 29.9342C46.1478 29.8267 47.9988 30.4652 47.9988 30.4652C47.9988 30.0401 47.8893 29.7208 47.6702 29.5091C47.4518 29.2957 47.2359 29.0839 46.6898 28.873C45.9286 28.6596 45.2738 28.7672 44.7284 28.4479C44.2917 28.0228 44.1822 27.9169 44.0735 27.4918C44.3997 27.3876 44.9458 27.2799 45.2738 27.2799C45.8183 27.2799 46.1478 27.1742 46.8011 27.3876C47.0153 27.4918 47.7814 28.1303 48.1101 28.1303C48.1101 28.1303 47.8893 27.2799 47.6702 26.9633C47.3489 26.9633 46.8011 26.3246 46.5828 26.2189C45.4896 25.7936 45.2738 26.007 44.6172 26.1129C44.2917 26.2189 43.9672 26.1129 43.6368 26.1129C43.529 25.9013 43.856 25.5819 43.7481 25.3702C43.7481 25.2626 43.3089 25.1568 43.3089 24.9459C43.3089 24.9459 45.0546 24.7325 45.7103 24.8383C45.9286 24.9459 46.5828 25.3702 46.8011 25.3702C46.8011 25.3702 47.0153 24.6249 46.6898 23.9897C46.1478 23.8854 45.6007 23.9897 45.1642 23.8854C44.7284 23.778 44.2917 23.8854 43.9672 23.8854C43.6368 23.8854 43.3089 23.778 42.9837 23.778C42.7678 23.4604 42.6548 23.1403 42.6548 22.8227C42.6548 22.8227 45.3816 22.715 45.6007 22.611C45.4896 22.5016 45.2738 22.3991 45.1642 22.184C44.7284 21.4413 44.3997 21.3363 43.856 21.3363C43.529 21.3363 42.7678 21.653 42.3303 21.5472C42.3303 20.6994 42.7678 19.9567 43.4194 19.9567C44.7284 19.9567 46.0365 20.486 47.1264 21.653C49.8549 24.4149 51.2693 29.6149 51.2693 33.3304C51.2693 35.0284 51.0519 36.6207 50.8352 37.8944C51.1614 38.002 51.3771 38.002 51.706 38.002C52.0354 36.7264 52.3609 35.0284 52.3609 33.4362C52.3609 28.0228 50.397 23.4604 47.9988 20.9111ZM31.5233 16.5128C31.7454 17.3601 32.0743 18.4192 32.1852 19.6859C32.1852 20.0058 32.0743 20.3222 32.1852 20.6404L33.7168 21.1678C33.7168 21.1678 33.5015 19.8985 33.281 18.4192C33.0615 17.1507 32.9514 16.7271 32.6225 16.1963C32.4022 16.3017 32.2938 16.3017 32.0743 16.3017C31.7454 16.4072 31.5233 16.5128 31.5233 16.5128ZM35.1256 22.6889C35.3455 22.8982 35.4537 23.318 35.5637 24.0528C35.6728 24.4733 35.8927 24.5781 36.1092 25.2072C36.4392 24.9986 36.9864 25.1034 36.9864 25.1034C36.9864 24.5781 36.6566 24.0528 36.6566 23.9498C36.5449 23.7369 36.2191 23.1076 36.1092 22.8982C36.2191 22.8982 36.5449 23.318 37.0947 23.318C37.2063 23.318 37.5354 23.421 37.7518 23.318C37.7518 23.318 38.0784 23.5291 38.0784 23.7369C38.2973 24.0528 38.2973 24.2622 38.4107 24.5781C38.6239 24.5781 38.7373 24.5781 38.8455 24.4733C39.2828 24.4733 39.501 24.367 39.501 24.367C39.3945 24.1574 39.2828 23.9498 39.2828 23.7369C39.1729 23.5291 38.9572 23.003 38.9572 23.003L40.9238 22.6889C40.9238 22.3712 40.8155 21.9508 40.4848 21.7414C39.501 22.0588 38.4107 22.1619 37.6419 22.1619C36.5449 22.1619 35.4537 21.9508 33.922 21.3232C33.8128 21.5318 33.922 21.9508 33.922 21.9508C34.5784 22.4793 34.5784 22.1619 35.1256 22.6889ZM10.9763 5.17888C11.7451 4.74817 13.056 3.99315 13.4924 3.56415C13.6048 3.78035 14.9183 4.53367 15.4638 4.85374C15.9001 5.17888 16.3391 5.28445 16.7755 5.49895C16.9946 5.17887 17.211 4.85374 17.4326 4.1021C17.7607 4.3183 18.198 4.31831 18.5244 4.42388C18.5244 4.85374 18.5244 5.28445 18.6369 5.71685C18.6369 5.92965 18.855 5.8224 19.2933 5.6079C19.9487 5.3934 20.604 5.28445 20.9338 5.17888C21.696 4.74817 22.1348 3.8876 22.7912 3.8876C23.34 3.8876 24.3235 4.20936 24.5434 4.42388C24.8708 4.53367 25.0907 4.63922 25.4197 4.63922C25.8561 4.63922 26.1842 4.20935 26.5098 3.99315C25.5279 3.34962 24.4369 2.70442 23.34 2.27455C22.6828 2.80999 22.2447 3.24069 21.9176 3.24069C21.5878 3.24069 21.8076 2.59717 21.8076 2.1656C21.4793 2.1656 21.2595 2.1656 20.9338 2.05835C20.7174 2.80999 20.604 3.78035 20.0587 3.99315C19.8403 4.1021 19.7288 4.1021 19.6204 4.1021V3.24069C19.6204 3.13344 20.0587 2.3818 19.9487 2.27455C19.9487 2.27455 18.9634 2.48821 18.7468 2.59716C18.6369 2.70442 17.9782 3.02787 17.8699 3.02787C17.8699 3.02787 17.5409 2.91892 17.4326 2.91892C17.1045 2.70442 16.8862 2.70442 16.5573 2.48822C16.121 3.78035 16.0083 4.1021 16.0083 3.8876C16.0083 3.8876 14.4768 2.91892 13.933 2.27455C12.5088 2.48822 12.5088 2.70442 11.3053 3.13344C10.8681 3.56415 10.2118 4.1021 9.77455 4.74817C9.55634 5.17888 9.33648 5.3934 9.11911 5.8224L10.2118 6.25311C10.3217 6.14418 10.8681 5.3934 10.9763 5.17888ZM48.7753 34.0179C49.0805 34.122 49.2855 34.8519 49.4915 35.0597C49.7997 35.477 49.698 34.3313 49.5947 34.122C49.5947 34.0179 49.5947 33.185 49.3897 33.185C49.2855 33.0794 49.1838 32.767 49.0805 32.6646C48.9773 32.9756 49.0805 33.185 49.0805 33.4969C49.0805 33.7062 48.6673 33.9124 48.7753 34.0179ZM29.6791 12.3649C29.5691 12.3649 29.2358 12.2609 28.7882 12.1569H28.2332C28.3431 12.4707 28.6783 12.7829 28.7882 12.991C28.7882 13.0967 28.7882 13.4105 28.9024 13.617C29.1225 13.617 29.4557 13.7211 29.6791 13.8259C29.7899 13.8259 30.4567 13.9316 30.679 14.1398C30.9008 14.1398 31.6765 14.974 31.7916 15.078C32.1234 15.2878 32.4576 15.4958 32.6775 15.3918C32.9008 15.3918 32.6775 15.078 32.6775 14.974C32.235 14.3479 31.9016 13.2008 31.7916 13.2008C31.4574 13.0967 31.2341 13.2008 30.7909 12.991C30.57 12.7829 29.9016 12.4707 29.6791 12.3649ZM27.8209 9.86443C27.9305 10.0813 28.1439 10.0813 28.3597 10.1881C28.5739 10.4033 28.7905 10.511 29.1127 10.7278C29.5411 11.1599 29.756 11.7014 30.2923 12.1292C30.5074 12.2386 30.6153 12.3462 30.7216 12.3462C30.8312 12.3462 31.2595 12.6707 31.3667 12.7784C31.3667 11.9148 31.0438 11.2693 30.8312 10.8355C30.8312 10.7278 30.7216 10.6201 30.5074 10.511C30.1828 10.1881 29.8623 9.86443 29.756 9.86443C29.4347 9.5416 29.2189 9.21878 28.8969 8.89428C28.5739 8.89428 28.3597 9.21878 28.1439 9.32639C28.0375 9.5416 27.61 9.75851 27.8209 9.86443ZM27.4239 7.11666C27.4239 7.43045 27.5342 7.74755 27.6428 8.05972C28.1797 8.37434 28.8304 8.58353 28.8304 8.58353C28.9373 8.2681 28.7193 7.9551 28.7193 7.63967C28.5071 6.9058 28.1797 6.17277 28.0729 5.3343V4.91261C27.6428 4.70505 27.2069 4.59881 26.6665 4.38877C26.6665 4.38877 26.6665 5.01885 26.8837 5.3343C27.1007 5.85731 27.4239 6.6966 27.4239 7.11666ZM50.5987 9.92667L50.1674 9.37787L51.3506 9.04963L51.8908 10.9139L50.5987 9.92667ZM46.6562 8.96545L46.0132 9.36035L45.1539 8.76799L46.1193 8.27281L47.1907 8.96545H46.6562ZM63.6903 29.6735C63.798 29.0386 63.798 28.4044 63.798 27.9806C63.5785 27.7695 63.2483 27.6622 63.033 27.6622C63.033 27.3473 62.9211 26.9243 63.033 26.5004C63.2483 26.5004 63.6903 26.606 63.6903 26.5004C63.6903 25.8656 63.5787 25.229 63.4718 24.9131C63.2483 24.806 62.9211 24.7005 62.5917 24.5932C62.5917 24.2765 62.4832 23.9599 62.3731 23.7488C62.705 23.6417 62.9211 23.6417 63.1397 23.6417C63.1397 23.6417 62.9211 22.6892 62.8136 22.2653C62.5917 22.1598 62.263 22.1598 62.0444 22.1598C61.9351 21.9504 61.8249 21.736 61.7148 21.4194C61.9351 21.3146 62.1561 21.3146 62.3731 21.209C62.1561 20.6797 62.0444 20.4669 61.8249 20.1502H61.0599C60.9515 19.9391 60.8414 19.7265 60.8414 19.5169C60.9515 19.4074 61.1683 19.3035 61.2794 19.1963C61.1683 18.8813 60.9515 18.5629 60.7295 18.3518C60.511 18.3518 60.2916 18.4557 60.0731 18.3518C59.9647 18.3518 59.6343 17.9281 59.7444 17.9281C59.8528 17.7153 60.0731 17.6097 60.1832 17.5049C59.8528 17.0829 59.7444 16.7645 59.4148 16.5517C59.1962 16.5517 58.9794 16.5517 58.7574 16.659C58.7574 16.659 58.5381 16.3391 58.4295 16.2335C58.0993 16.2335 58.649 15.705 58.649 15.705C58.3194 15.2828 57.9924 14.9644 57.5545 14.5422C57.3308 14.5422 57.1123 14.7516 57.0039 14.7516C57.0039 14.7516 56.5658 14.4351 56.5658 14.3296C56.5658 14.1185 57.0039 14.0129 57.0039 14.0129C57.0039 14.0129 56.2354 13.166 55.6891 12.8476C55.4704 12.9532 55.362 12.9532 55.1392 12.9532C54.8123 12.6367 54.3734 12.4256 54.3734 12.4256C54.3734 12.4256 54.7038 12.2128 54.7038 12.1072C54.1557 11.7898 53.9354 11.5804 53.4975 11.2603C53.0587 11.0492 52.84 10.731 52.6207 10.4127C51.8549 9.25086 50.8688 7.55797 48.4543 7.23969C48.4543 7.23969 49.0049 7.98017 49.3346 8.51039C49.3346 8.61427 49.3346 8.61426 48.8948 8.61426H48.1298C47.908 8.29597 47.7996 8.19209 47.6877 7.98017C47.4682 7.55797 47.365 7.45078 47.1413 7.23969C46.7024 6.92139 44.5108 8.08572 42.6472 8.51039C43.0894 9.03812 43.5255 9.35476 43.634 9.5675C44.1822 10.0961 44.9497 11.0492 45.4961 11.7898C45.608 11.6843 45.7181 11.5804 45.9374 11.4714C47.365 11.2603 47.365 10.9454 47.365 10.9454C47.365 10.9454 46.2644 10.0961 47.0294 10.0961C47.0294 10.0961 47.5793 10.1999 47.7996 9.99134C48.3468 9.88414 49.0049 9.77859 49.3346 9.99134C49.7717 10.3071 49.9902 10.731 50.3199 11.0492C50.1011 11.0492 49.8835 10.9454 49.6633 10.9454C49.0049 10.8366 48.3468 10.9454 47.7996 11.0492C47.7996 11.0492 48.6797 11.7898 48.8948 12.1072C48.6797 12 48.0181 12.1072 48.0181 12.1072C47.6877 12.2128 47.2514 12.3183 47.1413 12.3183C46.8143 12.4256 46.4829 12.3183 46.2644 12.4256C46.7024 12.6367 48.6797 13.3788 49.6633 13.3788C50.5399 13.3788 51.0864 13.2698 51.8549 12.9532C51.9633 12.8476 52.1818 12.7421 52.292 12.8476C52.7315 12.9532 52.9501 13.0605 53.1688 13.2698C56.0193 14.9644 59.1962 18.9869 60.1832 21.1019C61.1683 23.113 61.7148 25.3361 61.7148 27.4511C61.8249 30.31 60.8414 33.0609 58.8675 35.4959C57.7679 36.8688 55.6891 38.0349 53.4975 38.246C54.1557 38.9873 54.4819 40.1499 54.8123 41.2095C54.8123 41.2095 55.5805 41.1039 56.0193 40.8928C56.0193 40.0461 55.4704 39.0944 55.4704 38.88C55.4704 38.88 56.127 38.4578 56.6759 38.4578C56.7826 38.7745 57.1123 39.3038 57.5545 40.0461C57.9924 39.8333 58.3194 39.6204 58.649 39.304C58.649 38.7745 58.3194 38.1404 58.0993 37.5054C58.8675 37.1889 59.3064 37.0799 59.3064 37.0799C59.5274 37.3983 60.0731 37.715 60.1832 38.0349C60.1832 38.0349 60.7295 37.5054 60.9515 36.9761C60.7295 36.5522 60.4008 36.2347 60.1832 35.811L61.0599 34.861C61.0599 34.861 61.6064 35.2832 61.8249 35.4959C62.1563 35.0721 62.4832 34.6482 62.5917 34.118C62.0444 33.5904 61.8249 33.5904 61.7148 33.272C61.9351 32.9536 62.0444 32.5324 62.263 32.214C62.5917 32.3213 62.8136 32.5324 63.033 32.6362C63.2483 32.214 63.4718 31.5774 63.4718 31.1552C63.2483 30.9426 62.9211 30.8386 62.705 30.6267C62.8136 30.0974 62.9211 29.5679 62.9211 29.5679C62.9211 29.5679 63.4718 29.6735 63.6903 29.6735Z" fill="white"/>
</g>
</g>
</g>
<g clip-path="url(#clip3)">
<g clip-path="url(#clip4)">
<rect x="32.3262" y="0.108276" width="26" height="26" rx="5.41667" fill="#FF6200"/>
<mask id="mask1" mask-type="alpha" maskUnits="userSpaceOnUse" x="32" y="0" width="27" height="27">
<rect x="32.3262" y="0.108276" width="26" height="26" rx="5.41667" fill="#FF6200"/>
</mask>
<g mask="url(#mask1)">
<path d="M36.6595 0.108276H32.3262V26.1083H36.6595V0.108276Z" fill="#238647"/>
<path d="M38.8304 0.108276H34.4971V26.1083H38.8304V0.108276Z" fill="#2F9B47"/>
<path d="M40.9886 0.108276H36.6553V26.1083H40.9886V0.108276Z" fill="#62B64F"/>
<path d="M43.1595 0.108276H38.8262V26.1083H43.1595V0.108276Z" fill="#89CC53"/>
<path d="M45.3304 0.108276H40.9971V26.1083H45.3304V0.108276Z" fill="#3DB8AD"/>
<path d="M47.4886 0.108276H43.1553V26.1083H47.4886V0.108276Z" fill="#3394D7"/>
<path d="M49.6595 0.108276H45.3262V26.1083H49.6595V0.108276Z" fill="#2872BC"/>
<path d="M51.8304 0.108276H47.4971V26.1083H51.8304V0.108276Z" fill="#1D5C84"/>
<path d="M53.9886 0.108276H49.6553V26.1083H53.9886V0.108276Z" fill="#993233"/>
<path d="M56.1595 0.108276H51.8262V26.1083H56.1595V0.108276Z" fill="#E13030"/>
<path d="M58.3304 0.108276H53.9971V26.1083H58.3304V0.108276Z" fill="#F28825"/>
<path d="M58.3219 0.108276H56.1553V26.1083H58.3219V0.108276Z" fill="#F5C836"/>
<path fill-rule="evenodd" clip-rule="evenodd" d="M44.0304 11.0485H44.8971V13.3235C44.8971 14.3997 44.0232 15.2735 42.9471 15.2735C41.8709 15.2735 40.9971 14.3997 40.9971 13.3235V11.0485H41.8637V13.3235C41.8637 13.9812 42.3492 14.5151 42.9471 14.5151C43.5449 14.5151 44.0304 13.9812 44.0304 13.3235V11.0485Z" fill="white"/>
<path fill-rule="evenodd" clip-rule="evenodd" d="M48.7911 15.1649H49.6578V12.8899C49.6578 11.8137 48.784 10.9399 47.7078 10.9399C46.6316 10.9399 45.7578 11.8137 45.7578 12.8899V15.1649H46.6245V12.8899C46.6245 12.2322 47.1099 11.6982 47.7078 11.6982C48.3057 11.6982 48.7911 12.2322 48.7911 12.8899V15.1649Z" fill="white"/>
<path fill-rule="evenodd" clip-rule="evenodd" d="M36.5503 15.166H35.792V13.216H35.7952C35.7931 13.1801 35.792 13.1439 35.792 13.1076V9.20764H36.6587V11.3746C37.0205 11.1024 37.4712 10.941 37.9586 10.941C39.1546 10.941 40.1253 11.9119 40.1253 13.1076C40.1253 14.3034 39.1546 15.2743 37.9586 15.2743C37.4408 15.2743 36.9652 15.0922 36.5926 14.7887L36.5503 15.166ZM37.9045 11.6993C38.652 11.6993 39.2586 12.3304 39.2586 13.1076C39.2586 13.8849 38.652 14.516 37.9045 14.516C37.157 14.516 36.5503 13.8849 36.5503 13.1076C36.5503 12.3304 37.157 11.6993 37.9045 11.6993Z" fill="white"/>
<path fill-rule="evenodd" clip-rule="evenodd" d="M54.102 11.0506H54.8604V13.0006H54.8571C54.8593 13.0364 54.8604 13.0726 54.8604 13.1089V17.0089H53.9937V14.8419C53.6319 15.1142 53.1812 15.2756 52.6937 15.2756C51.4977 15.2756 50.527 14.3047 50.527 13.1089C50.527 11.9131 51.4977 10.9422 52.6937 10.9422C53.2115 10.9422 53.6871 11.1243 54.0598 11.4279L54.102 11.0506ZM52.7479 14.5172C52.0004 14.5172 51.3937 13.8862 51.3937 13.1089C51.3937 12.3316 52.0004 11.7006 52.7479 11.7006C53.4954 11.7006 54.102 12.3316 54.102 13.1089C54.102 13.8862 53.4954 14.5172 52.7479 14.5172Z" fill="white"/>
</g>
</g>
</g>
</g>
<defs>
<clipPath id="clip0">
<rect width="57.6522" height="26" fill="white" transform="translate(0.673828)"/>
</clipPath>
<clipPath id="clip1">
<rect width="26" height="26" fill="white" transform="translate(0.673828)"/>
</clipPath>
<clipPath id="clip2">
<rect width="26" height="26" fill="white" transform="translate(0.673828 0.108276)"/>
</clipPath>
<clipPath id="clip3">
<rect width="26" height="26" fill="white" transform="translate(32.3262)"/>
</clipPath>
<clipPath id="clip4">
<rect width="26" height="26" fill="white" transform="translate(32.3262 0.108276)"/>
</clipPath>
</defs>
</svg>
