<svg width="51" height="23" viewBox="0 0 51 23" fill="none" xmlns="http://www.w3.org/2000/svg">
<g clip-path="url(#clip0)">
<g clip-path="url(#clip1)">
<g clip-path="url(#clip2)">
<rect y="0.0958252" width="23" height="23" rx="4.79167" fill="#FF6200"/>
<mask id="mask0" mask-type="alpha" maskUnits="userSpaceOnUse" x="0" y="0" width="23" height="24">
<rect y="0.0958252" width="23" height="23" rx="4.79167" fill="#FF6200"/>
</mask>
<g mask="url(#mask0)">
<path fill-rule="evenodd" clip-rule="evenodd" d="M9.50191 35.3551C8.85139 35.3551 9.03645 36.4138 8.85139 36.8948C8.75815 36.9907 8.66208 37.1826 8.75815 37.2791H10.1496C10.1496 37.2791 10.2428 36.4138 10.2428 36.222C10.1496 36.0286 9.86989 35.5469 9.50191 35.3551ZM11.2487 27.724C10.7678 27.3503 9.99737 26.9758 8.84209 26.6008C8.55327 26.5072 7.87961 26.6008 7.59005 26.6008C6.81814 27.9107 6.53228 29.129 5.9539 30.5331C5.85565 30.8156 5.6636 31.3775 5.6636 31.3775C5.18495 31.0972 4.70111 30.9105 4.21803 30.9105C3.44612 30.9105 2.86921 31.1908 2.58188 31.9396C2.29528 31.8461 1.9097 31.6593 1.42809 31.7512C0.755899 31.8461 0.175294 32.2213 -0.114266 32.7825C-0.401597 33.1562 -0.498364 33.5314 -0.401597 33.9065C-0.881736 34.0941 -1.17499 34.5627 -1.36556 34.9364C-1.55688 35.6852 -0.881736 36.9982 -0.593663 37.2791H0.368828C0.175293 36.4362 -0.209547 36.0611 0.0792691 35.218C0.273547 34.7494 0.945736 34.5627 1.13925 34.4678C1.13925 34.0941 0.656176 33.813 0.755898 33.4365C0.945736 32.9708 1.52337 32.9708 2.10175 33.0628C2.00498 33.6263 1.9097 34.3743 1.81293 35.1231C1.71616 35.9675 2.19851 37.2791 2.19851 37.2791H3.16026H3.25703C3.16026 36.9982 3.06424 36.7164 3.06424 36.4362C2.97042 36.1544 2.97042 35.9675 2.97042 35.6852C3.06424 35.3115 3.06424 34.9364 3.06424 34.6576C4.02745 34.1875 3.73789 34.8428 3.92922 35.0297C3.92922 35.0297 4.31776 34.1875 3.83466 33.813C3.73789 33.7196 3.16026 33.813 3.16026 33.7196C3.16026 33.6263 3.25703 33.3444 3.35231 33.0628C3.54731 32.6876 3.64261 32.5958 3.83466 32.314C3.92922 32.2213 4.21803 32.2213 4.60583 32.314C4.70111 32.314 5.18495 32.4073 5.47155 32.5009C5.37479 32.7825 4.98994 33.3444 4.89613 33.6263C4.51127 34.7494 4.51127 36.0611 4.60583 37.2791H5.6636C5.6636 36.6215 5.56832 35.8726 5.6636 35.218C5.85565 34.3743 6.143 34.2809 6.24346 34.2809C6.43256 34.2809 6.62609 34.4678 6.7258 34.6576C6.91565 35.5917 6.33875 36.4362 6.33875 37.2791H7.10917C7.10917 37.2791 7.39947 37.1849 7.49475 36.9048C7.68608 36.3413 8.07166 35.7779 8.1699 35.218C8.26371 34.7494 8.07166 34.3743 7.78136 33.813C7.49475 33.4365 7.20594 33.1562 6.53228 32.6876C6.33875 32.314 6.53228 31.8461 6.53228 31.8461C6.53228 31.9396 6.91564 31.7512 7.10917 31.7512C7.87961 31.9396 8.07166 31.9396 8.4565 32.1264C8.74532 32.2213 9.12943 32.4073 9.41899 32.5958C9.70781 32.7825 9.99737 33.3444 10.2862 33.9999C10.2862 33.9999 10.4782 32.7825 10.4782 32.4073C10.0956 32.0345 9.70781 31.6593 9.12943 31.3775C8.6456 31.0023 7.59005 30.7222 7.10917 30.5331C7.10917 30.5331 7.30124 30.2528 7.30124 30.0661C7.87961 29.9712 8.55327 29.9712 8.84209 30.0661C9.80605 30.3477 10.9598 30.9105 11.4429 31.2841C11.4429 31.2841 11.6335 30.9105 11.6335 30.7222C11.6335 30.7222 10.2862 29.8791 10.3815 29.5975C9.99737 29.3172 9.70781 29.0354 9.3237 28.9414C8.74532 28.8493 7.59005 28.756 7.59005 28.756C7.59005 28.756 7.87961 28.3823 8.1699 28.0991H8.94034C9.3237 28.0991 10.2862 28.3823 10.8631 28.6626C11.7318 29.0354 12.2104 29.3172 12.3087 29.504C12.4025 29.2223 12.5007 28.8493 12.599 28.6626C11.5382 28.2874 11.6335 27.9107 11.2487 27.724ZM9.0826 25.1473C9.17654 24.8608 9.0826 24.6696 9.17654 24.3816C9.17654 24.1905 9.17654 23.7121 9.27267 23.4256C9.0826 23.3285 8.69953 23.521 8.41841 23.521C8.13365 23.521 7.47093 23.521 7.47093 23.6165C7.56488 23.8092 7.56488 23.9995 7.65883 24.1905C7.7535 24.3816 7.84745 24.5727 7.84745 25.0533C7.84745 25.34 7.9443 25.628 7.84745 26.0095C7.84745 26.0095 9.0826 25.34 9.0826 25.1473ZM7.89373 22.8868C8.08593 22.605 8.66025 22.0434 8.85688 21.8549C8.66025 21.668 8.56786 21.3862 8.47104 21.1991C8.08593 21.1991 6.63936 21.76 6.63936 21.76C6.92911 22.2296 7.12278 22.6999 7.31496 23.2608C7.50863 23.1672 7.70007 23.0739 7.89373 22.8868ZM11.526 23.3675H10.956C10.956 23.3675 10.7667 24.101 10.7667 24.6521C10.6728 24.9283 10.5752 25.1115 10.5752 25.203C10.386 25.5701 10.2921 25.6618 10.1042 26.1212C10.386 26.2128 10.6728 26.0296 10.8606 26.0296C11.0499 25.938 11.3345 25.845 11.4321 25.7548C11.526 25.6618 11.8106 25.0185 11.906 24.8366V24.1942C11.8106 24.0094 11.906 23.6424 11.906 23.3675C11.8106 23.1829 11.6199 23.2744 11.526 23.3675ZM16.7568 30.2699C16.6599 30.1738 16.6599 29.9801 16.5595 29.7895C16.3658 29.2098 16.4641 28.9209 16.3658 28.3458H15.583C15.3863 28.4404 15.288 28.3458 15.0937 28.4404C15.0937 28.8264 15.1913 29.1138 15.4847 29.5958C15.7767 30.1738 16.7568 30.2699 16.7568 30.2699ZM6.80489 21.3366C6.80489 21.3366 7.10363 21.1517 7.10363 20.9624C7.60233 20.4025 8.20061 19.9336 8.3025 19.8434C8.10027 19.373 8.00144 19.2798 7.70116 19.0002C7.60233 19.0934 7.10363 19.373 7.00175 19.5608C6.80489 19.654 6.60418 19.7472 6.50076 19.8434C6.50076 20.0297 6.60418 20.1215 6.70147 20.3093C6.70147 20.4957 6.80489 20.9624 6.80489 21.3366ZM14.3588 24.5905C14.3588 24.4976 14.0578 24.4976 13.8602 24.4976C13.6588 24.4976 13.4628 24.5905 13.2591 24.5905C13.0601 24.8658 12.9613 25.1399 12.8616 25.5068C12.7628 25.7815 12.5622 25.9642 12.4604 26.1469C12.4604 26.1469 13.3609 25.9642 13.56 25.9642C13.8602 25.7815 14.0578 25.6887 14.2585 25.3226C14.3588 25.0472 14.4598 24.9572 14.3588 24.5905ZM26.5433 32.0426C26.3507 31.9479 24.5069 31.107 24.2159 31.107C23.6336 31.2002 22.6659 31.2002 22.0807 31.4815C21.9861 31.2002 21.8902 30.7323 22.0807 30.4519C22.1766 30.2638 23.1486 30.2638 23.4387 30.2638C24.5069 30.3585 25.0877 30.5436 25.3786 30.5436C25.6701 30.8257 25.9623 30.8257 26.0584 30.8257C26.0584 30.8257 25.9623 30.2638 25.8636 30.0772C25.4774 29.8906 25.0877 29.7974 24.7961 29.7042C24.312 29.5161 24.1193 29.4214 23.3435 29.3295C23.0542 29.3295 23.0542 29.4214 22.4719 29.4214C22.4719 29.3295 22.5678 29.2348 22.6659 29.1416C22.8564 28.8625 23.0542 28.6759 23.2476 28.488H24.7961C25.1866 28.5812 25.3786 28.6759 25.8636 28.8625C26.1528 28.8625 25.8636 28.3961 25.8636 28.1133C25.7675 28.0186 25.6701 27.9254 25.4774 27.832C25.0877 27.7388 24.7961 27.6456 24.4079 27.4575C24.1193 27.3657 23.5392 27.1784 23.0542 27.2718C22.5678 27.4575 22.5678 27.3657 22.1766 27.5522C21.6945 28.2081 21.4037 28.9544 21.1137 29.7042C21.1137 29.8906 20.628 31.0121 20.628 31.2002C20.628 31.2934 20.5335 31.4815 20.5335 31.4815C20.1429 31.3868 18.3981 31.1069 17.9146 31.5734C17.7227 31.7598 17.5263 31.9479 17.2333 32.5083C16.8465 32.2292 16.5551 32.1345 16.1682 32.1345C15.6818 32.1345 15.1023 32.4149 14.8115 32.8813C14.8115 32.9775 14.0358 34.3788 14.1317 35.6876C14.2292 36.4374 14.5208 36.7174 14.9074 37.2791H15.9763C15.8788 36.9053 15.6818 36.4374 15.4898 35.8748C15.3924 35.4078 15.5874 34.5669 15.6818 33.8184C15.6818 33.8184 15.9763 33.632 16.2641 33.5373C16.4605 33.3507 16.5551 33.4424 16.8465 33.4424C16.9454 33.4424 16.9454 33.5373 16.9454 33.5373C16.5551 33.9118 16.5551 34.2856 16.4605 34.8467C16.4605 35.1265 16.8465 36.5308 17.2333 37.2791H18.0121C18.0121 37.2791 17.8172 35.4078 17.9146 35.2212C17.9146 34.8467 18.0121 34.5669 18.108 34.2856C18.3021 34.3788 18.494 34.3788 18.689 34.4722C18.9791 34.6616 18.9791 34.8467 18.9791 35.1265C18.9791 35.5944 18.9791 35.6876 18.8845 35.9697V36.4374C18.8845 36.9053 18.9791 37.2791 18.9791 37.2791H19.7578C19.7578 36.4374 19.8507 36.5308 19.9496 36.0629C20.047 35.6876 19.9496 35.5025 20.047 35.2212C20.047 35.0333 20.1429 34.8467 20.2434 34.7535C20.5335 34.5669 20.7268 34.5669 21.1137 34.6616C21.1137 34.9399 21.1137 35.2212 21.0193 35.5025C20.9188 35.9697 20.8229 36.4374 20.628 36.9053C20.628 36.9985 20.5335 37.1851 20.4345 37.2791H21.5986C21.5986 37.2791 21.7906 36.9053 21.8902 36.4374C22.1766 36.7174 22.5678 36.5308 22.7604 36.5308C23.0542 36.4374 23.2476 36.1561 23.4387 35.9697C23.0542 35.6876 22.1766 35.7801 22.1766 35.4078C21.9861 34.7535 22.1766 34.6616 22.1766 34.2856C22.1766 33.7252 21.5986 33.5373 21.0193 33.4424C20.8229 33.3507 20.4345 33.3507 20.2434 33.3507C20.047 33.4424 19.8507 33.7252 19.6617 33.7252C19.6617 33.7252 19.2713 33.4424 18.9791 33.3507C18.7864 33.3507 18.2032 33.1626 18.2032 33.1626C18.3021 32.9775 18.3981 32.7896 18.494 32.6947C18.59 32.603 18.8845 32.3217 18.9791 32.3217C19.1753 32.2292 19.4647 32.3217 19.6617 32.4149C20.1429 32.5083 20.5335 32.603 20.628 32.603C20.7268 32.603 21.0193 32.7896 21.0193 32.7896C21.3048 32.603 21.3048 32.4149 21.4996 32.4149C22.0807 32.2292 22.2769 32.1345 22.8563 32.1345C23.3435 32.1345 23.7325 32.9775 24.0204 33.2573C24.1193 33.4424 24.7961 34.2856 25.1866 35.0333C25.3786 34.9399 25.4774 34.7535 25.6701 34.7535C25.6701 34.5669 25.5735 33.8184 25.4774 33.7252C25.1866 32.8813 24.6058 32.6947 24.6058 32.5083C24.7961 32.5083 25.1866 32.6947 25.3786 32.6947C25.5735 32.7896 25.8636 32.8813 26.1528 33.0694C26.2517 33.1626 26.4459 33.2573 26.5433 33.3507C26.6392 33.7252 26.6392 34.005 26.8341 34.3788C26.8341 34.4722 26.8341 34.5669 26.93 34.6616C27.2216 34.099 27.5125 34.005 27.7059 33.5373C27.5125 32.6947 27.0261 32.3217 26.5433 32.0426ZM25.7454 36.2964C25.548 36.6895 25.3497 37.0811 25.3497 37.2791H26.4354C26.7328 36.8867 26.8304 36.4936 26.6322 35.9047C26.3385 36.0026 25.7454 35.706 25.7454 36.2964ZM15.3437 27.0102C15.6286 26.917 15.8157 26.7291 16.1012 26.6359C16.2883 26.5425 16.4796 25.0474 16.4796 25.0474C16.4796 25.0474 15.9128 25.1392 15.8157 25.2338C15.7206 25.2338 15.3437 25.2338 15.156 25.4203C15.156 25.7006 15.156 25.9803 15.0624 26.3548C14.8727 26.6359 14.4007 26.8223 14.4007 27.2898C14.4007 27.2898 14.7791 27.3837 14.8727 27.3837C15.0624 27.2898 15.2502 27.1034 15.3437 27.0102ZM5.94637 16.2138V16.6762C5.94637 16.8626 6.04721 17.8819 6.04721 18.1593C6.14502 18.4381 6.14502 18.7155 6.24132 18.9938C6.34442 19.1787 6.44223 19.3636 6.44223 19.55C6.44223 19.55 6.64087 19.459 6.73716 19.271C7.03437 18.9938 7.13521 18.7155 7.33234 18.3457C7.233 17.697 7.03437 17.14 7.03437 16.9551C7.03437 16.2138 7.13521 16.0274 7.233 15.5643C6.83952 15.7485 6.34442 16.0274 5.94637 16.2138ZM18.9255 29.4454C19.0186 29.4454 19.113 29.2568 19.113 29.2568C19.0186 28.8777 18.9255 28.4064 18.8355 28.0279C18.8355 28.0279 18.5544 27.8379 18.2799 27.8379C18.0946 27.8379 17.9101 27.7437 17.727 27.8379C17.817 28.1236 17.817 28.3136 17.9101 28.5964C18.1855 28.9726 18.5544 29.161 18.9255 29.4454ZM10.335 19.3722C10.2436 19.1861 9.96635 19.0932 9.78274 19.0002C9.59699 19.0002 9.41126 19.3722 9.41126 19.7455C9.41126 19.9314 9.50555 20.5859 9.59699 20.8648C9.59699 20.9578 9.78274 21.0522 9.96635 21.1466C10.2436 21.3312 10.5193 21.424 10.7972 21.6114C10.7972 21.6114 10.5193 20.7733 10.4279 20.3062C10.335 20.0273 10.5193 19.6525 10.335 19.3722ZM12.4903 22.2987C12.5882 21.9161 12.8761 21.7253 12.8761 21.0554C12.8761 21.0554 12.7812 20.5767 12.6862 20.3851C12.5882 20.1941 12.4903 20.0032 12.2039 19.8124C12.1067 19.8124 11.9167 19.6184 11.8217 19.7138C11.8217 19.7138 11.7238 20.4805 11.6288 20.5767C11.8217 20.8631 12.0132 21.0554 12.1067 21.3418C12.2039 21.6297 12.2989 22.0116 12.4903 22.2987ZM15.1016 23.8105C15.3956 23.526 15.1016 23.0529 15.1016 22.7699C15.001 22.4856 15.1016 22.2019 15.001 21.9174C14.9032 21.7288 14.7033 21.6344 14.5079 21.6344C14.3102 21.6344 13.8172 21.3501 13.8172 21.5387C13.3233 21.5387 13.7194 22.0118 13.7194 22.2955C13.7194 22.6742 14.7033 23.6204 14.7033 23.6204C14.9032 23.7146 14.9032 23.6204 15.1016 23.8105ZM5.72677 15.8392C5.92446 15.553 6.51526 14.9802 6.80727 14.5964C7.00724 14.4061 7.40109 13.9293 8.38275 13.452C8.48085 13.0697 8.57969 12.784 8.57969 12.4033C7.59578 12.6889 6.90687 12.8808 6.71297 13.0697C6.22025 13.3567 6.0218 13.5486 5.5306 13.8358C5.5306 14.4061 5.5306 14.4061 5.62792 14.6932L5.72677 15.8392ZM20.7761 26.4209C20.4776 26.2383 19.9825 25.6885 19.6886 25.4136C19.4873 25.2309 19.5852 24.9567 19.3879 24.7725C19.192 24.7725 18.9914 24.7725 18.7947 24.8638C18.4963 24.8638 18.3003 24.8638 18.0041 24.9567C18.1021 25.138 18.1021 25.3222 18.3003 25.4136C18.6952 25.7798 18.6952 25.8727 19.0908 26.4209C19.192 26.6052 19.6886 26.6967 20.082 26.6967C20.2824 26.6967 20.6752 26.5138 20.7761 26.4209ZM17.0322 21.1991C16.63 21.2905 15.8312 21.3818 15.8312 21.6572C15.7309 21.9312 15.8312 22.206 15.8312 22.39C15.9339 22.5727 15.9339 22.7554 15.9339 23.0308C15.9339 23.2135 15.8312 23.3975 15.9339 23.6731C16.0342 23.4889 16.5328 23.3062 16.63 23.1221C16.8315 22.8481 17.0322 22.6656 17.131 22.39C17.2313 22.1153 17.131 21.6572 17.0322 21.1991ZM18.2189 21.1149C17.9234 21.3038 17.727 21.3984 17.727 21.5873C17.727 21.9669 17.8236 22.3456 17.8236 22.5361C17.8236 22.8211 17.8236 23.01 17.9234 23.1046C18.2189 23.199 18.3202 23.199 18.7162 23.3881C18.7162 23.484 19.113 23.6731 19.113 23.6731C19.113 23.6731 18.9164 22.8211 18.816 22.44V20.9244C18.4185 21.0188 18.3202 21.1149 18.2189 21.1149ZM6.98366 12.2179C7.07766 12.1253 8.12416 11.3895 8.2167 11.2976C8.40691 11.1141 8.50238 11.2059 8.59347 11.0222C8.59347 10.4694 8.78733 10.4694 8.69186 10.2872C8.59347 10.1008 7.83776 10.2872 7.64682 10.2872C7.17313 10.3776 6.31757 10.6523 6.31757 10.8373C6.22357 11.1141 6.22357 11.7567 6.22357 11.8513C6.31757 12.1253 6.31757 12.4028 6.41013 12.6781C6.69944 12.4028 6.79053 12.3111 6.98366 12.2179ZM27.7518 28.9007C27.6603 28.8083 27.4759 28.7144 27.29 28.6207V28.9952C27.29 29.3704 27.3802 29.4656 27.3802 29.6547C27.3802 29.8423 27.6603 31.1592 27.6603 31.5344C28.1214 31.6298 28.1214 32.0065 28.3988 32.1941C28.3988 32.1941 28.2129 31.0655 28.2129 29.6547C28.2129 29.5595 27.9384 28.9952 27.7518 28.9007ZM22.0069 25.4148C22.3897 25.6885 23.1534 25.597 23.8252 25.5061C23.4394 25.2304 23.3455 25.046 23.1534 24.8645C22.865 24.6801 22.6772 24.5886 22.2936 24.2227H21.0532C21.2418 24.6801 21.335 24.956 22.0069 25.4148ZM18.2508 19.3202C18.4462 19.1373 18.6388 18.7724 18.6388 18.6796C18.8357 18.3138 18.8357 17.8552 18.8357 17.488C18.059 17.0287 17.0853 16.9387 16.113 16.9387C15.2372 16.9387 14.2641 17.0287 13.2919 17.6724C13.3912 18.0394 13.4859 18.3138 13.6821 18.6796C13.7783 18.6796 13.8761 18.8638 13.971 18.8638C14.1664 18.6796 14.3626 18.4052 14.6515 18.3138V18.6796C14.6515 18.9544 14.6515 19.1373 14.7521 19.4146C14.7521 19.6874 15.0439 19.6874 15.431 19.6874C15.8191 19.6874 15.919 19.046 15.919 18.9544C15.919 18.9544 16.0168 19.3202 16.5973 19.5959C16.5973 19.5959 17.2777 19.5959 17.2777 19.5045C17.377 19.046 17.4755 18.9544 17.377 18.588C17.377 18.588 17.9612 18.9544 18.2508 19.3202ZM21.3305 22.8895C20.9337 22.3189 20.8356 21.7489 20.8356 21.654C20.6375 21.4629 21.0319 20.7988 20.5362 20.7988C20.3405 20.701 19.745 20.5121 19.745 20.5121C19.6415 20.7988 19.6415 21.368 19.745 21.654C19.745 21.9387 20.2377 22.7961 20.4372 22.8895C20.5362 22.9859 21.0319 22.9859 21.1348 22.9859C21.2315 22.8895 21.3305 22.8895 21.3305 22.8895ZM6.41647 10.4792C6.61387 10.2016 6.61387 10.2016 6.80977 10.0125C7.20535 9.73341 7.40277 9.54582 7.89251 9.17216C7.98972 8.98462 8.08843 9.07912 8.38304 8.89303C8.48099 8.80072 8.57969 8.7062 8.57969 8.61315C8.57969 8.42706 8.48099 8.2395 8.38304 8.05487C8.28433 7.86731 8.08843 7.40061 8.08843 7.3061C8.08843 6.56099 8.18864 6.3749 8.28433 5.72063C7.89251 5.62759 7.40277 5.62759 7.20535 6.00124C7.00945 6.28185 7.00945 6.56099 7.00945 6.84305C7.00945 7.3061 7.10664 7.68122 7.20535 8.2395C6.80977 8.52158 6.61387 8.7062 6.22357 8.89303C6.32076 9.45279 6.41647 10.4792 6.41647 10.4792ZM25.9041 24.1055C25.7141 23.9159 25.5248 23.727 25.239 23.5358C24.8554 23.4409 24.6683 23.2498 24.4738 22.8706C24.3795 22.6809 24.2853 22.4898 24.093 22.2987C23.9059 22.2987 23.8102 22.3949 23.6202 22.4898C23.4281 22.6809 23.045 22.6809 22.855 22.9654C22.9492 23.1551 23.045 23.3462 23.2366 23.5358C23.3337 23.6307 23.4281 23.8219 23.8102 24.0106C24.4738 24.3899 24.6683 24.4848 24.6683 24.4848C25.239 24.581 25.9041 24.1055 25.9041 24.1055ZM21.1918 19.9623C21.1918 19.9623 21.2847 20.4361 21.4765 20.9077C21.5738 21.0975 21.7625 21.2857 21.8605 21.2857C22.0477 21.38 22.4325 21.474 22.7164 21.474V21.2857C22.4325 21.0017 22.0477 20.3419 22.0477 20.1521C21.8605 20.0594 21.8605 20.0594 21.5738 20.0594C21.4765 19.9623 21.2847 19.9623 21.1918 19.9623ZM29.8756 26.6967C29.7856 26.9722 29.5077 27.1549 29.5077 27.5212C29.5077 27.5212 29.9696 27.9781 30.0623 28.2552C30.1543 28.438 30.0623 29.2625 30.1543 29.4454C30.4309 29.1696 30.6163 29.0783 30.6163 28.7136C30.5223 28.6221 30.4309 27.8867 30.3382 27.3385C30.3382 27.1549 30.0623 26.8809 29.8756 26.6967ZM37.5803 33.2935C37.1033 33.2935 36.5345 33.8496 36.1558 35.6096C36.061 36.2601 35.9656 36.8177 36.061 37.1859L36.9132 37.2791C37.1033 37.001 37.1033 36.5375 37.2941 36.1663C37.2941 35.9814 37.4863 35.9814 37.6727 35.9814C37.8643 36.0739 38.2459 36.5375 38.433 36.7223C38.5284 36.5375 38.7179 36.1662 38.7179 35.8875C38.7179 35.7936 38.433 35.6096 38.3385 35.6096C38.0551 35.4247 37.8643 35.2398 37.4863 35.2398C37.3895 34.8685 37.9582 34.405 37.9582 34.405C38.6225 34.405 39.2881 35.1459 39.2881 35.1459C39.4774 35.0534 39.5714 34.7761 39.7637 34.5912C39.1927 33.5709 38.149 33.2935 37.5803 33.2935ZM32.5567 28.3185C32.4627 28.1314 32.37 27.8518 32.2795 27.6662C32.2795 27.5733 32.2795 27.3879 32.1854 27.1088C32.1854 27.1088 31.5391 27.5733 31.4479 27.6662C31.8163 28.1314 31.6331 28.4127 31.7223 28.7837C31.7223 28.9677 32.0943 29.0612 32.1854 29.3409C32.1854 29.4322 32.0044 30.2699 32.0044 30.2699C32.5567 29.5264 32.5567 28.5967 32.5567 28.3185ZM40.4322 36.518C40.3368 36.8055 40.2368 36.9938 40.0408 37.1836C40.1399 37.2791 40.3368 37.2791 40.4322 37.2791H41.4156C41.5079 37.1836 41.5079 36.8989 41.6071 36.7077C41.6071 36.518 41.704 36.3268 41.704 36.0421H41.1159C40.8236 36.0421 40.5306 36.2335 40.4322 36.518ZM27.2213 22.7539H27.6995C27.8928 22.7539 27.8928 22.3892 27.6995 22.3892C27.0279 22.2055 26.455 22.0239 26.0723 21.474C25.9774 21.5667 25.4007 21.7475 25.2111 21.9312C25.2111 21.9312 25.4007 22.3892 25.8798 22.8464C26.1655 23.1199 26.7438 22.9376 27.2213 22.7539ZM22.9936 19.6528C23.2822 20.032 23.5686 20.3143 23.8541 20.5973C23.9469 20.787 24.2333 20.787 24.4218 20.787H25.3751C25.6614 20.6899 25.8514 20.6899 26.0427 20.5024C25.6614 20.3143 25.1866 20.1247 24.803 19.9351C24.4218 19.7468 24.1383 19.5587 23.8541 19.2751C23.6613 19.2751 23.5686 19.3691 23.4699 19.3691C23.2822 19.4662 23.1849 19.5587 22.9936 19.6528ZM12.8761 15.1018C12.8761 15.1018 13.2581 15.0147 13.5474 15.0147C13.7409 15.0147 13.9322 15.0147 14.1235 15.1018C14.0257 15.1891 13.6422 15.3637 13.6422 15.3637C13.4538 15.451 13.3559 15.5376 13.0668 15.6247C12.9717 15.451 12.8761 15.1018 12.8761 15.1018ZM12.8145 13.1011C13.0038 12.8223 13.3885 12.6364 13.6737 12.5436C14.0539 12.4507 13.9566 11.7052 13.9566 11.6124C14.0539 11.4249 13.9566 11.1463 13.9566 10.9591C13.7679 11.0533 13.7679 10.9591 13.3885 11.0533C13.0038 11.0533 12.8145 10.8661 12.6258 10.6788C12.4313 10.4937 11.9575 10.1206 11.7674 9.75047C12.2412 9.65456 12.6258 9.65456 13.1011 9.65456H14.3404C14.6234 9.75047 14.8164 9.9362 14.8164 10.1206C14.8164 10.2136 14.7222 10.7732 14.7222 10.8661C14.6234 11.4249 14.6234 11.6124 14.5306 12.4507V12.7295C14.4348 12.9167 14.0539 13.0096 13.8638 13.1955C13.7679 13.4741 13.7679 13.6615 13.4813 13.7544C13.194 13.8488 13.0038 14.1267 12.8145 14.0338C12.5286 13.8488 12.6258 13.3812 12.8145 13.1011ZM11.2436 8.28026C11.0457 8.09894 10.6506 7.82334 10.4543 7.45638C10.162 7.09011 10.2579 6.72459 10.2579 6.63175C10.4543 6.08201 11.1431 5.89782 11.5396 5.80644C11.7345 5.80644 11.9324 5.80644 12.227 5.99063C12.6212 6.1734 12.8191 6.1734 13.0148 6.81453C13.0148 6.90879 13.0148 6.9973 12.9166 6.9973C12.9166 6.9973 12.3244 7.36355 12.1273 7.5492C11.6371 7.82334 11.5396 8.28026 11.2436 8.28026ZM14.0446 8.22952C14.3296 8.03523 14.6111 7.84245 14.8029 7.84245C14.9935 7.74607 15.3709 7.64818 15.3709 7.84245C15.3709 8.22952 15.0873 8.42228 14.8029 8.80783C14.6111 9.09618 14.5187 8.90573 14.0446 8.90573H13.5691C13.5691 8.61658 13.7603 8.51868 14.0446 8.22952ZM18.0175 7.77441C18.2029 7.77441 19.8005 8.13336 18.7683 8.58031C18.5779 8.76049 18.1105 8.6697 17.6394 8.6697C17.6394 8.49232 17.6394 8.13336 17.4533 8.13336C17.2622 7.95319 16.9831 7.95319 16.9831 7.77441C16.6044 7.41545 17.5464 7.68502 18.0175 7.77441ZM19.9425 5.98597C20.2409 5.70403 20.6395 5.61054 21.0328 5.70403C21.5278 5.79752 21.6258 5.89101 21.8247 6.07945C22.1224 6.45488 22.0244 7.20427 21.9226 7.67244C21.8247 7.95438 21.5278 8.14284 21.2317 8.14284C20.7359 7.58043 20.2409 7.20425 19.5484 7.01582C19.449 6.64185 19.7495 6.26643 19.9425 5.98597ZM20.5809 9.94025C20.4833 10.1272 20.2866 10.2214 20.0914 10.3186C19.9917 10.3186 19.8978 10.5056 19.8978 10.5998C19.6989 10.8833 19.4068 10.9775 19.0165 10.9775C18.819 10.9775 18.4286 10.9775 18.2328 10.5998C18.2328 10.5998 18.3288 11.7343 18.3288 12.0169C18.3288 12.1111 18.4286 12.1111 18.4286 12.1111C18.819 12.2054 18.9174 12.5844 19.1118 12.7729C19.1118 12.7729 19.2102 12.8671 19.31 12.8671C19.6989 13.1497 20.5809 13.5281 20.1897 13.5281C20.1897 13.7181 19.8978 14.19 19.801 14.19C19.5037 13.908 19.0166 13.7181 18.6223 13.5281C18.5255 13.3397 18.4286 13.1497 18.3288 12.9628C18.136 12.7729 18.0376 12.7729 17.7426 12.5844C17.7426 11.9242 17.6457 11.9242 17.6457 11.2617C17.6457 11.1674 17.4498 10.1272 17.4498 10.1272C17.4498 10.033 17.7426 9.75182 18.0376 9.65456C18.0376 9.65456 19.8978 9.65456 20.7761 9.75182C20.7761 9.75182 20.6807 9.94025 20.5809 9.94025ZM19.4324 15.7017C19.0485 15.6021 18.7616 15.3026 18.2814 15.3026C18.2814 15.0054 18.2814 15.0054 18.3791 14.9041C18.9551 14.8046 19.2426 15.0054 19.5287 15.105C19.5287 15.2045 19.4324 15.7017 19.4324 15.7017ZM13.1653 17.0446C13.4553 17.0446 13.7449 16.7643 14.0336 16.6689C14.6087 16.481 15.0925 16.293 15.6678 16.1992C15.8635 16.1022 15.8635 15.9158 15.8635 15.7264C15.96 15.5393 15.96 15.5393 15.96 15.2575C15.96 15.1634 15.5739 15.0696 15.3804 14.6908C15.1884 14.4075 15.3804 14.1257 15.2838 14.1257C14.9973 14.3136 14.6087 14.5015 14.515 14.1257C14.4183 13.8446 14.4183 13.4658 14.7085 13.3719C15.6678 12.9961 16.7288 12.9961 17.694 13.3719C17.8844 13.3719 17.9812 13.5612 17.9812 13.7492C18.0764 13.9371 17.9812 14.1257 17.7877 14.3136C17.4989 14.4075 17.208 14.0318 17.208 14.3136C17.208 14.5954 17.0175 14.9742 16.5346 15.1634C16.4408 15.2575 16.5346 15.5393 16.6336 15.8218C16.6336 15.9158 16.6336 16.1022 16.7288 16.1022C17.1143 16.1992 17.694 16.293 17.9812 16.481C18.3645 16.6689 19.0378 17.2325 19.1361 17.14C19.4233 16.9521 19.5185 16.6689 19.7142 16.481C20.7716 16.9521 21.6371 17.2325 22.9869 18.0832C23.1789 18.0832 23.1789 17.706 23.1789 17.5165C22.6953 17.2325 21.2501 16.481 21.0603 16.3856C20.6763 16.293 20.4844 16.1022 20.0967 16.0097V15.2575C20.7716 15.4454 22.1156 15.5393 23.4684 16.293C23.5621 16.0097 23.757 15.8218 23.6604 15.7264C22.1156 14.9742 20.9666 14.6908 20.0014 14.6908C20.0014 14.5954 19.8066 14.5015 20.0014 14.4075C20.2902 14.2196 20.3863 14.1257 20.4844 14.0318C20.7716 13.6553 20.9666 13.2781 21.0603 12.9022C21.3484 12.3371 21.6371 12.525 21.8313 11.3C21.5419 11.3 21.4436 11.4879 21.1564 11.5833C21.2501 11.3 21.3484 11.0182 21.3484 10.7349C21.4436 10.169 21.6371 9.79319 21.6371 9.13265C21.9265 9.03721 22.4087 8.75613 22.504 8.38036C22.504 8.28492 22.504 8.0031 22.6014 7.62585C22.6014 7.06144 22.6953 6.59025 22.504 6.21299C22.504 6.11906 21.8313 5.1774 21.3484 4.89558C20.6763 4.61227 20.3863 4.70768 19.9047 4.80014C19.3266 4.80014 18.5549 5.36528 18.5549 6.40236C17.9812 6.40236 16.824 6.4963 16.1507 7.06144C15.5739 6.77813 15.0925 6.68567 14.6087 6.59025H13.7449C13.6497 6.21299 13.4553 5.83575 13.0714 5.55392C12.5914 5.27282 12.0103 4.89558 11.3369 4.89558C11.0482 4.89558 10.7609 4.80015 10.4715 4.991C10.1827 5.1774 9.70129 5.36528 9.60603 5.7418C9.41256 6.21299 9.22058 6.59025 9.22058 7.06144C9.22058 7.53337 9.51078 7.90915 9.7995 8.38036C9.89255 8.56972 9.99075 8.56972 10.1827 8.66218C10.2795 8.66218 10.6657 8.85155 10.7609 8.94475C10.8562 9.03721 10.6657 9.32193 10.6657 9.88858C10.6657 10.3583 10.6657 10.3583 10.7609 10.7349C10.7609 11.1121 10.8562 11.4879 10.9529 11.7697C10.6657 11.7697 10.4715 11.4879 10.2795 11.6772C10.2795 11.8667 10.4715 12.3371 10.6657 12.7129C11.1464 13.184 11.6263 13.6553 11.9165 14.2196C11.9165 14.3136 11.9165 14.5015 12.0103 14.5015C11.3369 14.5954 10.6657 14.5954 9.99075 14.7862C9.41258 14.9742 8.73914 15.2575 8.1639 15.5393C8.1639 15.9158 8.25768 16.1992 8.25768 16.1992C8.35442 16.1992 9.22058 15.7264 9.99075 15.5393C11.2416 15.1634 11.9165 15.2575 11.9165 15.2575C12.0103 15.4454 12.1078 15.7264 12.0103 15.8218C10.8562 16.293 9.70129 16.8582 8.63945 17.5165C8.73914 17.706 8.63945 17.9878 8.83587 18.1755C9.7995 17.6104 11.1464 16.9521 12.1078 16.5748C12.4932 16.481 12.4932 16.5748 12.6867 16.5748C12.782 16.6689 12.9733 17.0446 13.1653 17.0446ZM31.5865 25.3758C31.5865 25.3758 31.4021 25.0095 31.4021 24.92C31.3106 24.737 31.2191 24.463 30.941 24.3721C30.941 24.2811 30.848 24.737 30.7565 24.92C30.6622 25.1017 30.6622 25.0095 30.4777 25.3758C30.6622 25.6476 30.7565 25.8295 30.941 26.1035C30.941 26.1944 31.2191 26.5592 31.2191 26.5592C31.2191 26.5592 31.5865 25.8295 31.5865 25.6476V25.3758ZM43.8688 36.2507H43.3928C43.2029 36.156 43.1073 36.156 43.0131 36.2507C42.7269 36.5306 42.7269 36.9985 42.5356 37.2791H43.679C43.8688 37.0904 44.0601 36.9985 44.0601 36.6225C44.0601 36.5306 44.0601 36.3425 43.8688 36.2507ZM30.4777 23.3523C30.4777 22.5273 30.2766 22.5273 29.8734 22.1612C29.8734 22.1612 29.5695 22.7115 29.369 22.9855C29.7721 23.3523 29.8734 23.8105 29.8734 23.8105C30.2766 23.4436 30.2766 23.535 30.4777 23.3523ZM34.2199 26.6629C34.2199 26.3826 34.1218 26.1038 33.9296 25.9166C33.8302 25.6378 33.7338 25.2655 33.7338 25.0783C33.6328 24.8939 33.2453 24.3335 33.0501 24.0547C32.8556 23.8695 32.8556 23.4034 32.7577 23.1233L31.5865 23.3091C32.1736 24.0547 32.6628 24.7995 32.9507 25.5456C33.0501 25.8252 33.9296 28.6207 33.9296 28.6207C34.2199 28.5263 33.8302 27.1289 33.9296 27.0361C34.0239 26.8502 34.0239 26.7558 34.2199 26.6629ZM26.9418 19.1815C26.8444 18.998 26.6467 18.6302 26.5479 18.5386C26.4513 18.355 26.3509 18.1715 26.2506 18.0783C26.1547 17.9879 25.7607 18.0783 25.5654 18.0783C25.3676 18.0783 25.2702 18.0783 25.0725 18.1715C25.2702 18.355 25.4649 18.998 25.5654 18.998C25.6626 19.1815 25.6626 19.2732 25.8597 19.3679C26.3509 19.4583 26.7441 19.3679 27.2368 19.55C27.4308 19.2732 27.0391 19.2732 26.9418 19.1815ZM29.5077 21.3106C29.5077 21.3106 28.3296 20.6541 28.1322 20.3746C27.8384 20.3746 27.8384 20.3746 27.5439 20.6541C27.345 20.6541 27.2495 20.7503 27.1515 20.9355C27.4467 21.1253 27.5439 21.2172 27.8384 21.4041C27.9379 21.4975 28.035 21.4975 28.3296 21.4041H29.1166C29.3094 21.4041 29.5077 21.4975 29.5077 21.3106ZM45.806 35.2177C45.806 35.2177 45.7057 35.5089 45.6054 35.7007C45.4063 36.186 45.3074 36.3792 45.3074 36.6691C45.6054 36.8668 45.7057 36.7672 46.1064 36.7672C46.3055 36.7672 46.5045 36.8668 46.605 36.8668C46.8041 36.7672 46.605 36.574 46.605 36.4773C46.5045 36.4773 46.1064 35.604 45.806 35.2177ZM35.5354 27.1088C35.9322 26.8267 36.0325 26.2594 36.1328 25.977C36.2331 25.6934 36.0325 25.1282 35.9322 24.94C35.6342 24.94 35.4375 24.7504 35.2337 24.7504C35.0346 24.7504 34.9358 24.2786 34.6356 24.3726C34.7359 24.5623 34.9358 25.506 35.0346 25.6934C35.1364 25.7889 35.5354 26.449 35.5354 27.1088ZM42.9513 32.2625C42.9513 32.1696 42.6455 31.9827 42.5482 31.9827C42.5482 31.8878 42.4415 31.5124 42.3395 31.4204C42.1396 31.3255 42.1396 31.232 41.9356 31.232C41.9356 31.3255 41.9356 31.4204 41.8337 31.6073C41.8337 31.7942 41.6299 31.8878 41.7334 32.0747C41.8337 32.2625 41.9356 32.2625 42.1396 32.3558C42.2399 32.4494 42.5482 33.2001 42.6455 33.2935C42.7475 33.2001 42.7475 32.6363 42.9513 32.2625ZM26.0506 17.0275C26.3451 17.0275 26.5393 17.2136 26.7357 17.2136C26.7357 16.936 26.636 16.7499 26.5393 16.4693C26.4412 16.0028 26.2455 15.7223 26.1459 15.4439C26.1459 15.1648 26.1459 14.9774 26.0506 14.7913C25.9539 14.7913 25.8543 14.7913 25.7575 14.6967C25.4652 14.6967 25.0725 14.6023 25.0725 14.6023C25.0725 14.8843 25.1723 15.3493 25.1723 15.6293C25.1723 15.7223 25.562 16.5623 25.6594 16.6554C25.7575 16.843 25.8543 16.936 26.0506 17.0275ZM35.3286 23.2192C35.2322 22.9313 34.9414 22.8339 34.7464 22.6419C34.7464 22.6419 33.4819 22.1612 33.2845 22.1612C33.0895 22.2565 33.7726 22.6419 33.869 22.8339C34.2584 23.2192 35.2322 24.0853 35.2322 24.0853L35.3286 23.2192ZM23.407 11.4413C23.3106 11.5344 23.2113 11.7218 23.2113 11.8133C23.0156 12.0938 22.7265 12.2805 22.9176 12.561C23.0156 12.9345 23.0156 13.3064 23.3106 13.5869C23.6035 13.8673 23.9903 13.7728 24.3795 14.0526C24.3795 14.0526 24.0868 12.8399 23.8954 12.2805C23.7977 11.9092 23.6035 11.7218 23.407 11.4413ZM41.8645 18.4982C40.6119 17.2793 39.2601 16.5264 37.9104 16.5264C36.7547 16.5264 35.8844 17.37 35.8844 18.2172C35.8844 21.5978 37.2371 23.7584 38.1043 25.6345C38.3922 26.1042 38.4882 26.4802 38.4882 26.95C38.5852 28.1711 37.5263 30.424 36.8501 31.6451C36.7547 31.5501 36.2701 31.4579 35.8844 31.4579C34.9205 31.4579 34.5348 32.1134 34.341 32.6761C34.0517 32.6761 33.8616 32.4887 33.5678 32.4887C32.4127 32.3952 31.4479 33.4268 31.4479 34.5558C31.4479 35.774 31.7349 36.434 32.2197 37.2791H33.1845C33.0869 36.9975 32.799 35.5874 32.7021 35.2129C32.6081 34.651 32.799 34.2735 33.0869 33.9916C33.4738 33.4268 34.4365 33.6171 34.4365 33.6171C34.1486 34.086 33.7632 34.8367 33.7632 35.5874C33.8616 36.058 33.9548 36.8116 34.2471 37.2791H35.0187C35.2082 36.715 35.0187 36.2468 35.0187 35.774C35.0187 35.4952 35.0187 35.2129 35.1128 34.9304C35.1128 34.7432 35.5952 35.3065 35.5952 35.3065C35.5952 35.3065 35.9815 34.8367 35.9815 34.4607C35.9815 34.1797 35.4042 34.2735 35.3097 33.9916C35.2082 33.7107 35.4998 33.0522 35.4998 33.0522C36.0784 32.6761 36.5593 32.7712 36.7547 32.7712C37.0417 32.7712 37.1371 32.8634 37.5263 32.8634C37.8135 32.8634 37.9104 32.3015 37.9104 32.0213C38.0058 32.1134 38.2981 32.3015 38.3922 32.3015C38.6807 32.3952 38.7776 32.3952 39.0669 32.4887C39.4539 32.6761 39.84 32.8634 40.227 33.2409V33.1459C40.1286 32.7712 40.3211 32.3015 40.0332 32.1134C40.0332 32.1134 39.5493 31.7373 39.1638 31.5501C38.9715 31.3627 38.6807 31.3627 38.5852 31.1754C38.4882 31.0817 38.4882 30.9866 38.4882 30.7994C38.4882 30.6113 38.5852 30.3303 38.6807 30.3303C38.873 30.2353 38.9715 30.3303 39.357 30.5162C39.7431 30.7057 40.1286 30.9866 40.418 31.1754C40.418 31.1754 40.5134 31.3627 40.5134 31.2691C40.9004 31.0817 40.9004 30.9866 40.9004 30.424C40.5134 29.9528 40.9004 29.8606 40.3211 29.4846C40.1286 29.4846 39.0669 29.1084 39.0669 29.1084C39.0669 28.9204 39.357 28.452 39.357 28.452C39.4539 28.3598 39.6449 28.3598 39.7431 28.5457C40.3211 28.9204 40.7066 28.9204 41.2896 29.1084C41.3806 28.8282 41.3806 28.6408 41.1897 28.452C40.9945 28.1711 40.7066 27.8872 40.5134 27.7935C40.1286 27.7 39.9356 27.6063 39.6449 27.5126C39.6449 27.2309 39.5493 26.95 39.4539 26.5739C39.4539 26.3852 39.6449 26.4802 39.84 26.4802C40.227 26.3852 41.8645 26.95 41.8645 26.95C41.8645 26.5739 41.7676 26.2914 41.5738 26.1042C41.3806 25.9154 41.1897 25.728 40.7066 25.5414C40.0332 25.3526 39.4539 25.4479 38.9715 25.1654C38.5852 24.7894 38.4882 24.6956 38.3922 24.3196C38.6807 24.2274 39.1638 24.1322 39.4539 24.1322C39.9356 24.1322 40.227 24.0387 40.805 24.2274C40.9945 24.3196 41.6722 24.8844 41.963 24.8844C41.963 24.8844 41.7676 24.1322 41.5738 23.8521C41.2896 23.8521 40.805 23.2871 40.6119 23.1936C39.6449 22.8174 39.4539 23.0061 38.873 23.0999C38.5852 23.1936 38.2981 23.0999 38.0058 23.0999C37.9104 22.9126 38.1997 22.6301 38.1043 22.4429C38.1043 22.3476 37.7158 22.2541 37.7158 22.0675C37.7158 22.0675 39.26 21.8787 39.84 21.9723C40.0332 22.0675 40.6119 22.4429 40.805 22.4429C40.805 22.4429 40.9945 21.7835 40.7066 21.2216C40.227 21.1294 39.7431 21.2216 39.357 21.1294C38.9715 21.0343 38.5852 21.1294 38.2981 21.1294C38.0058 21.1294 37.7158 21.0343 37.428 21.0343C37.2371 20.7534 37.1371 20.4702 37.1371 20.1892C37.1371 20.1892 39.5493 20.094 39.7431 20.002C39.6449 19.9052 39.4539 19.8146 39.357 19.6243C38.9715 18.9673 38.6807 18.8744 38.1997 18.8744C37.9104 18.8744 37.2371 19.1545 36.8501 19.061C36.8501 18.311 37.2371 17.654 37.8135 17.654C38.9715 17.654 40.1286 18.1222 41.0927 19.1545C43.5064 21.5978 44.7576 26.1977 44.7576 29.4846C44.7576 30.9866 44.5653 32.3952 44.3736 33.5219C44.6622 33.6171 44.853 33.6171 45.1439 33.6171C45.4354 32.4887 45.7233 30.9866 45.7233 29.5781C45.7233 24.7894 43.986 20.7534 41.8645 18.4982ZM27.29 14.6074C27.4865 15.3569 27.7775 16.2939 27.8756 17.4144C27.8756 17.6974 27.7775 17.9773 27.8756 18.2588L29.2304 18.7253C29.2304 18.7253 29.0399 17.6025 28.8449 16.2939C28.6507 15.1717 28.5533 14.797 28.2624 14.3275C28.0675 14.4207 27.9716 14.4207 27.7775 14.4207C27.4865 14.514 27.29 14.6074 27.29 14.6074ZM30.4767 20.0709C30.6712 20.2561 30.7669 20.6274 30.8642 21.2775C30.9608 21.6494 31.1553 21.7421 31.3468 22.2987C31.6387 22.1141 32.1228 22.2068 32.1228 22.2068C32.1228 21.7421 31.831 21.2775 31.831 21.1863C31.7322 20.998 31.444 20.4413 31.3468 20.2561C31.444 20.2561 31.7322 20.6274 32.2185 20.6274C32.3173 20.6274 32.6084 20.7186 32.7999 20.6274C32.7999 20.6274 33.0888 20.8141 33.0888 20.998C33.2825 21.2775 33.2825 21.4627 33.3827 21.7421C33.5714 21.7421 33.6716 21.7421 33.7674 21.6494C34.1542 21.6494 34.3472 21.5554 34.3472 21.5554C34.253 21.37 34.1542 21.1863 34.1542 20.998C34.057 20.8141 33.8662 20.3488 33.8662 20.3488L35.6058 20.0709C35.6058 19.7899 35.5101 19.4179 35.2175 19.2327C34.3472 19.5135 33.3827 19.6047 32.7026 19.6047C31.7322 19.6047 30.7669 19.4179 29.4119 18.8628C29.3153 19.0473 29.4119 19.4179 29.4119 19.4179C29.9926 19.8855 29.9926 19.6047 30.4767 20.0709ZM9.11387 4.58127C9.79391 4.20026 10.9535 3.53236 11.3396 3.15285C11.4391 3.34411 12.6009 4.01051 13.0835 4.29365C13.4695 4.58127 13.8579 4.67466 14.2439 4.86441C14.4377 4.58127 14.6292 4.29365 14.8252 3.62874C15.1155 3.81999 15.5023 3.81999 15.791 3.91338C15.791 4.29365 15.791 4.67466 15.8905 5.05717C15.8905 5.24542 16.0835 5.15054 16.4711 4.96079C17.051 4.77104 17.6306 4.67466 17.9224 4.58127C18.5966 4.20026 18.9848 3.43898 19.5655 3.43898C20.0509 3.43898 20.921 3.72361 21.1155 3.91338C21.4051 4.01051 21.5996 4.10388 21.8907 4.10388C22.2767 4.10388 22.5669 3.72361 22.855 3.53236C21.9864 2.96308 21.0213 2.39232 20.0509 2.01206C19.4696 2.48571 19.0821 2.86672 18.7927 2.86672C18.5009 2.86672 18.6954 2.29745 18.6954 1.91568C18.405 1.91568 18.2105 1.91568 17.9224 1.8208C17.7309 2.48571 17.6306 3.34411 17.1482 3.53236C16.9551 3.62874 16.8565 3.62874 16.7606 3.62874V2.86672C16.7606 2.77184 17.1482 2.10693 17.051 2.01206C17.051 2.01206 16.1794 2.20107 15.9877 2.29745C15.8905 2.39232 15.3078 2.67845 15.212 2.67845C15.212 2.67845 14.9209 2.58207 14.8252 2.58207C14.535 2.39232 14.3418 2.39232 14.0509 2.20107C13.6649 3.34411 13.5653 3.62874 13.5653 3.43898C13.5653 3.43898 12.2104 2.58207 11.7294 2.01206C10.4695 2.20107 10.4695 2.39232 9.4049 2.77184C9.0181 3.15285 8.43754 3.62874 8.05074 4.20026C7.85771 4.58127 7.66322 4.77104 7.47093 5.15054L8.43754 5.53155C8.5348 5.43519 9.0181 4.77104 9.11387 4.58127ZM42.5514 30.0927C42.8214 30.1848 43.0028 30.8304 43.1849 31.0143C43.4576 31.3834 43.3676 30.37 43.2763 30.1848C43.2763 30.0927 43.2763 29.3559 43.095 29.3559C43.0028 29.2625 42.9128 28.9861 42.8214 28.8956C42.7301 29.1707 42.8214 29.3559 42.8214 29.6318C42.8214 29.817 42.4559 29.9994 42.5514 30.0927ZM25.6586 10.9382C25.5613 10.9382 25.2665 10.8461 24.8706 10.7541H24.3795C24.4768 11.0317 24.7733 11.3079 24.8706 11.492C24.8706 11.5855 24.8706 11.8631 24.9715 12.0458C25.1662 12.0458 25.461 12.1378 25.6586 12.2305C25.7567 12.2305 26.3465 12.3241 26.5432 12.5083C26.7394 12.5083 27.4256 13.2462 27.5274 13.3382C27.8209 13.5237 28.1165 13.7078 28.311 13.6158C28.5086 13.6158 28.311 13.3382 28.311 13.2462C27.9196 12.6923 27.6247 11.6775 27.5274 11.6775C27.2317 11.5855 27.0342 11.6775 26.6421 11.492C26.4468 11.3079 25.8554 11.0317 25.6586 10.9382ZM24.0148 8.72618C24.1117 8.91806 24.3005 8.91806 24.4915 9.01251C24.6809 9.20289 24.8726 9.29812 25.1576 9.48993C25.5365 9.87221 25.7266 10.3512 26.2011 10.7296C26.3914 10.8264 26.4868 10.9216 26.5808 10.9216C26.6777 10.9216 27.0566 11.2086 27.1515 11.3039C27.1515 10.54 26.8658 9.96896 26.6777 9.58516C26.6777 9.48993 26.5808 9.3947 26.3914 9.29812C26.1042 9.01251 25.8207 8.72618 25.7266 8.72618C25.4424 8.4406 25.2515 8.15503 24.9666 7.86797C24.6809 7.86797 24.4915 8.15503 24.3005 8.25022C24.2065 8.4406 23.8282 8.63248 24.0148 8.72618ZM23.6636 6.29546C23.6636 6.57305 23.7612 6.85355 23.8573 7.12971C24.3323 7.40802 24.9079 7.59308 24.9079 7.59308C25.0024 7.31404 24.8096 7.03716 24.8096 6.75812C24.6218 6.10893 24.3323 5.46048 24.2377 4.71876V4.34572C23.8573 4.16211 23.4716 4.06813 22.9936 3.88233C22.9936 3.88233 22.9936 4.4397 23.1858 4.71876C23.3778 5.18142 23.6636 5.92387 23.6636 6.29546ZM44.1644 8.78124L43.7828 8.29576L44.8295 8.00539L45.3074 9.65456L44.1644 8.78124ZM40.6769 7.93093L40.108 8.28026L39.3479 7.75626L40.2019 7.31821L41.1496 7.93093H40.6769ZM55.7455 26.2496C55.8407 25.688 55.8407 25.1269 55.8407 24.752C55.6465 24.5653 55.3544 24.4704 55.164 24.4704C55.164 24.1918 55.065 23.8176 55.164 23.4426C55.3544 23.4426 55.7455 23.536 55.7455 23.4426C55.7455 22.881 55.6467 22.3179 55.5521 22.0385C55.3544 21.9437 55.065 21.8504 54.7736 21.7555C54.7736 21.4754 54.6777 21.1952 54.5802 21.0085C54.8739 20.9138 55.065 20.9138 55.2583 20.9138C55.2583 20.9138 55.065 20.0712 54.9699 19.6962C54.7736 19.6028 54.4828 19.6028 54.2895 19.6028C54.1927 19.4176 54.0953 19.228 53.9979 18.9479C54.1927 18.8552 54.3883 18.8552 54.5802 18.7618C54.3883 18.2936 54.2895 18.1053 54.0953 17.8252H53.4186C53.3227 17.6384 53.2252 17.4503 53.2252 17.2649C53.3227 17.168 53.5145 17.0762 53.6127 16.9813C53.5145 16.7027 53.3227 16.421 53.1263 16.2343C52.933 16.2343 52.7389 16.3261 52.5456 16.2343C52.4497 16.2343 52.1574 15.8594 52.2549 15.8594C52.3508 15.6712 52.5456 15.5778 52.643 15.4851C52.3508 15.1118 52.2549 14.8301 51.9633 14.6419C51.7699 14.6419 51.5781 14.6419 51.3817 14.7368C51.3817 14.7368 51.1877 14.4538 51.0916 14.3604C50.7995 14.3604 51.2858 13.8928 51.2858 13.8928C50.9942 13.5194 50.705 13.2377 50.3176 12.8642C50.1198 12.8642 49.9264 13.0494 49.8305 13.0494C49.8305 13.0494 49.443 12.7695 49.443 12.6761C49.443 12.4894 49.8305 12.396 49.8305 12.396C49.8305 12.396 49.1507 11.6468 48.6675 11.3652C48.474 11.4585 48.3781 11.4585 48.181 11.4585C47.8918 11.1786 47.5036 10.9918 47.5036 10.9918C47.5036 10.9918 47.7959 10.8036 47.7959 10.7102C47.311 10.4294 47.1161 10.2442 46.7288 9.96102C46.3406 9.77427 46.1471 9.4928 45.9531 9.21116C45.2756 8.18341 44.4034 6.68585 42.2674 6.4043C42.2674 6.4043 42.7546 7.05933 43.0462 7.52838C43.0462 7.62027 43.0462 7.62026 42.6571 7.62026H41.9804C41.7842 7.33869 41.6883 7.2468 41.5893 7.05933C41.3951 6.68585 41.3038 6.59103 41.1059 6.4043C40.7177 6.12272 38.779 7.1527 37.1304 7.52838C37.5216 7.99521 37.9074 8.27532 38.0033 8.46352C38.4882 8.93108 39.1672 9.77427 39.6506 10.4294C39.7495 10.336 39.847 10.2442 40.041 10.1478C41.3038 9.96102 41.3038 9.68242 41.3038 9.68242C41.3038 9.68242 40.3302 8.93107 41.007 8.93107C41.007 8.93107 41.4934 9.02298 41.6883 8.83844C42.1724 8.74362 42.7546 8.65024 43.0462 8.83844C43.4328 9.11779 43.6262 9.4928 43.9178 9.77427C43.7243 9.77427 43.5318 9.68242 43.3369 9.68242C42.7546 9.58618 42.1724 9.68242 41.6883 9.77427C41.6883 9.77427 42.4668 10.4294 42.6571 10.7102C42.4668 10.6153 41.8816 10.7102 41.8816 10.7102C41.5893 10.8036 41.2033 10.897 41.1059 10.897C40.8167 10.9918 40.5236 10.897 40.3302 10.9918C40.7177 11.1786 42.4668 11.8351 43.3369 11.8351C44.1124 11.8351 44.5959 11.7387 45.2756 11.4585C45.3715 11.3652 45.5649 11.2718 45.6623 11.3652C46.0512 11.4585 46.2445 11.5534 46.438 11.7387C48.9596 13.2377 51.7699 16.796 52.643 18.6671C53.5145 20.4461 53.9979 22.4126 53.9979 24.2837C54.0953 26.8127 53.2252 29.2461 51.4792 31.4001C50.5064 32.6147 48.6675 33.6462 46.7288 33.8329C47.3109 34.4887 47.5995 35.5172 47.8918 36.4545C47.8918 36.4545 48.5714 36.3611 48.9596 36.1744C48.9596 35.4253 48.474 34.5835 48.474 34.3938C48.474 34.3938 49.0548 34.0203 49.5404 34.0203C49.6348 34.3005 49.9264 34.7687 50.3176 35.4253C50.705 35.2371 50.9942 35.0488 51.2858 34.7689C51.2858 34.3005 50.9942 33.7396 50.7995 33.1778C51.4792 32.8978 51.8673 32.8014 51.8673 32.8014C52.0629 33.0831 52.5456 33.3632 52.643 33.6462C52.643 33.6462 53.1263 33.1778 53.3227 32.7096C53.1263 32.3346 52.8355 32.0538 52.643 31.6789L53.4186 30.8386C53.4186 30.8386 53.902 31.212 54.0953 31.4001C54.3884 31.0253 54.6777 30.6503 54.7736 30.1812C54.2895 29.7145 54.0953 29.7145 53.9979 29.4329C54.1927 29.1512 54.2895 28.7786 54.4828 28.497C54.7736 28.5918 54.9699 28.7786 55.164 28.8704C55.3544 28.497 55.5521 27.9338 55.5521 27.5603C55.3544 27.3722 55.065 27.2802 54.8739 27.0928C54.9699 26.6246 55.065 26.1562 55.065 26.1562C55.065 26.1562 55.5521 26.2496 55.7455 26.2496Z" fill="white"/>
</g>
</g>
</g>
<g clip-path="url(#clip3)">
<g clip-path="url(#clip4)">
<rect x="28" y="0.0958252" width="23" height="23" rx="4.79167" fill="#FF6200"/>
<mask id="mask1" mask-type="alpha" maskUnits="userSpaceOnUse" x="28" y="0" width="23" height="24">
<rect x="28" y="0.0958252" width="23" height="23" rx="4.79167" fill="#FF6200"/>
</mask>
<g mask="url(#mask1)">
<path d="M31.8333 0.0958252H28V23.0958H31.8333V0.0958252Z" fill="#238647"/>
<path d="M33.7537 0.0958252H29.9204V23.0958H33.7537V0.0958252Z" fill="#2F9B47"/>
<path d="M35.6629 0.0958252H31.8296V23.0958H35.6629V0.0958252Z" fill="#62B64F"/>
<path d="M37.5833 0.0958252H33.75V23.0958H37.5833V0.0958252Z" fill="#89CC53"/>
<path d="M39.5037 0.0958252H35.6704V23.0958H39.5037V0.0958252Z" fill="#3DB8AD"/>
<path d="M41.4129 0.0958252H37.5796V23.0958H41.4129V0.0958252Z" fill="#3394D7"/>
<path d="M43.3333 0.0958252H39.5V23.0958H43.3333V0.0958252Z" fill="#2872BC"/>
<path d="M45.2537 0.0958252H41.4204V23.0958H45.2537V0.0958252Z" fill="#1D5C84"/>
<path d="M47.1629 0.0958252H43.3296V23.0958H47.1629V0.0958252Z" fill="#993233"/>
<path d="M49.0833 0.0958252H45.25V23.0958H49.0833V0.0958252Z" fill="#E13030"/>
<path d="M51.0037 0.0958252H47.1704V23.0958H51.0037V0.0958252Z" fill="#F28825"/>
<path d="M50.9962 0.0958252H49.0796V23.0958H50.9962V0.0958252Z" fill="#F5C836"/>
<path fill-rule="evenodd" clip-rule="evenodd" d="M38.3537 9.77368H39.1204V11.7862C39.1204 12.7382 38.3474 13.5112 37.3954 13.5112C36.4434 13.5112 35.6704 12.7382 35.6704 11.7862V9.77368H36.4371V11.7862C36.4371 12.368 36.8665 12.8404 37.3954 12.8404C37.9243 12.8404 38.3537 12.368 38.3537 11.7862V9.77368Z" fill="white"/>
<path fill-rule="evenodd" clip-rule="evenodd" d="M42.5652 13.4152H43.3318V11.4027C43.3318 10.4506 42.5588 9.67765 41.6068 9.67765C40.6548 9.67765 39.8818 10.4506 39.8818 11.4027V13.4152H40.6485V11.4027C40.6485 10.8209 41.0779 10.3485 41.6068 10.3485C42.1357 10.3485 42.5652 10.8209 42.5652 11.4027V13.4152Z" fill="white"/>
<path fill-rule="evenodd" clip-rule="evenodd" d="M31.7367 13.4161H31.0659V11.6911H31.0688C31.0669 11.6594 31.0659 11.6274 31.0659 11.5953V8.14526H31.8326V10.0622C32.1527 9.82139 32.5513 9.6786 32.9826 9.6786C34.0406 9.6786 34.8992 10.5375 34.8992 11.5953C34.8992 12.6531 34.0406 13.5119 32.9826 13.5119C32.5245 13.5119 32.1038 13.3508 31.7741 13.0823L31.7367 13.4161ZM32.9347 10.3494C33.5959 10.3494 34.1326 10.9077 34.1326 11.5953C34.1326 12.2829 33.5959 12.8411 32.9347 12.8411C32.2734 12.8411 31.7367 12.2829 31.7367 11.5953C31.7367 10.9077 32.2734 10.3494 32.9347 10.3494Z" fill="white"/>
<path fill-rule="evenodd" clip-rule="evenodd" d="M47.2633 9.77554H47.9341V11.5005H47.9312C47.9331 11.5323 47.9341 11.5643 47.9341 11.5964V15.0464H47.1674V13.1294C46.8473 13.3703 46.4487 13.5131 46.0174 13.5131C44.9594 13.5131 44.1008 12.6542 44.1008 11.5964C44.1008 10.5386 44.9594 9.67971 46.0174 9.67971C46.4755 9.67971 46.8962 9.8408 47.2259 10.1093L47.2633 9.77554ZM46.0653 12.8422C45.4041 12.8422 44.8674 12.284 44.8674 11.5964C44.8674 10.9088 45.4041 10.3505 46.0653 10.3505C46.7266 10.3505 47.2633 10.9088 47.2633 11.5964C47.2633 12.284 46.7266 12.8422 46.0653 12.8422Z" fill="white"/>
</g>
</g>
</g>
</g>
<defs>
<clipPath id="clip0">
<rect width="51" height="23" fill="white"/>
</clipPath>
<clipPath id="clip1">
<rect width="23" height="23" fill="white"/>
</clipPath>
<clipPath id="clip2">
<rect width="23" height="23" fill="white" transform="translate(0 0.0958252)"/>
</clipPath>
<clipPath id="clip3">
<rect width="23" height="23" fill="white" transform="translate(28)"/>
</clipPath>
<clipPath id="clip4">
<rect width="23" height="23" fill="white" transform="translate(28 0.0958252)"/>
</clipPath>
</defs>
</svg>
