<svg width="24" height="24" viewBox="0 0 24 24" fill="none" xmlns="http://www.w3.org/2000/svg">
<circle cx="12" cy="8.5" r="3" fill="#000716"/>
<path fill-rule="evenodd" clip-rule="evenodd" d="M11.1953 13.062L11.1289 12.5312C8.61909 12.7206 7 13.8008 7 16.5C7 19.6 17 19.6 17 16.5C17 13.8008 15.3809 12.7206 12.8711 12.5312L12.8047 13.062C12.7735 13.3122 12.5608 13.5 12.3086 13.5H11.6914C11.4392 13.5 11.2265 13.3122 11.1953 13.062ZM11.5528 13.8944L10.3223 16.3553C10.1298 16.7403 10.2053 17.2053 10.5097 17.5097L11.2929 18.2929C11.6834 18.6834 12.3166 18.6834 12.7071 18.2929L13.4903 17.5097C13.7947 17.2053 13.8702 16.7403 13.6777 16.3553L12.4472 13.8944C12.263 13.5259 11.737 13.5259 11.5528 13.8944Z" fill="#000716"/>
</svg>
