<svg width="24" height="24" viewBox="0 0 24 24" fill="none" xmlns="http://www.w3.org/2000/svg">
<path fill-rule="evenodd" clip-rule="evenodd" d="M22 12C22 17.5228 17.5228 22 12 22C6.47715 22 2 17.5228 2 12C2 6.47715 6.47715 2 12 2C17.5228 2 22 6.47715 22 12ZM11.1267 12.2602L10.5377 8.72619C10.3871 7.82258 11.0839 7 12 7C12.9161 7 13.6129 7.82258 13.4623 8.72619L12.8733 12.2602C12.8021 12.6871 12.4328 13 12 13C11.5672 13 11.1979 12.6871 11.1267 12.2602ZM12 17C12.8284 17 13.5 16.3284 13.5 15.5C13.5 14.6716 12.8284 14 12 14C11.1716 14 10.5 14.6716 10.5 15.5C10.5 16.3284 11.1716 17 12 17Z" fill="#000716"/>
</svg>
