<svg width="24" height="24" viewBox="0 0 24 24" fill="none" xmlns="http://www.w3.org/2000/svg">
<path fill-rule="evenodd" clip-rule="evenodd" d="M9.5 7C8.94772 7 8.5 7.44772 8.5 8C8.5 8.55228 8.94772 9 9.5 9C10.0523 9 10.5 8.55228 10.5 8C10.5 7.44772 10.0523 7 9.5 7ZM12 6.34111C11.4625 5.53276 10.5435 5 9.5 5C7.84315 5 6.5 6.34315 6.5 8C6.5 8.35064 6.56015 8.68722 6.67071 9H5C4.44772 9 4 9.44772 4 10V11C4 11.5523 4.44772 12 5 12H19C19.5523 12 20 11.5523 20 11V10C20 9.44772 19.5523 9 19 9H17.3293C17.4398 8.68722 17.5 8.35064 17.5 8C17.5 6.34315 16.1569 5 14.5 5C13.4565 5 12.5375 5.53276 12 6.34111ZM14.5 9C13.9477 9 13.5 8.55228 13.5 8C13.5 7.44772 13.9477 7 14.5 7C15.0523 7 15.5 7.44772 15.5 8C15.5 8.55228 15.0523 9 14.5 9ZM11 14V20H8C6.89543 20 6 19.1046 6 18V14H11ZM18 18C18 19.1046 17.1046 20 16 20H13V14H18V18Z" fill="#000716"/>
</svg>
