<svg width="24" height="24" viewBox="0 0 24 24" fill="none" xmlns="http://www.w3.org/2000/svg">
<path fill-rule="evenodd" clip-rule="evenodd" d="M12 21C16.9706 21 21 16.9706 21 12C21 7.02944 16.9706 3 12 3C7.02944 3 3 7.02944 3 12C3 16.9706 7.02944 21 12 21ZM12 9C11.4477 9 11 9.44772 11 10C11 10.5523 10.5523 11 10 11C9.44772 11 9 10.5523 9 10C9 8.34315 10.3431 7 12 7C13.6569 7 15 8.34315 15 10C15 11.3072 14.1647 12.4171 13 12.829V13C13 13.5523 12.5523 14 12 14C11.4477 14 11 13.5523 11 13V12.5C11 11.6284 11.6873 11.112 12.2482 10.9692C12.681 10.859 13 10.4655 13 10C13 9.44772 12.5523 9 12 9ZM12 17C12.5523 17 13 16.5523 13 16C13 15.4477 12.5523 15 12 15C11.4477 15 11 15.4477 11 16C11 16.5523 11.4477 17 12 17Z" fill="#000716"/>
</svg>
