<svg width="24" height="24" viewBox="0 0 24 24" fill="none" xmlns="http://www.w3.org/2000/svg">
<g id="icons/info-filled">
<path id="Exclude" fill-rule="evenodd" clip-rule="evenodd" d="M21 12C21 16.9706 16.9706 21 12 21C7.02944 21 3 16.9706 3 12C3 7.02944 7.02944 3 12 3C16.9706 3 21 7.02944 21 12ZM13 9C13 8.44772 12.5523 8 12 8C11.4477 8 11 8.44772 11 9C11 9.55228 11.4477 10 12 10C12.5523 10 13 9.55228 13 9ZM12 11C11.4477 11 11 11.4477 11 12V15C11 15.5523 11.4477 16 12 16C12.5523 16 13 15.5523 13 15V12C13 11.4477 12.5523 11 12 11Z" fill="#000716"/>
</g>
</svg>
