<svg width="24" height="24" viewBox="0 0 24 24" fill="none" xmlns="http://www.w3.org/2000/svg">
<path fill-rule="evenodd" clip-rule="evenodd" d="M8 8C8 5.79086 9.79086 4 12 4C14.2091 4 16 5.79086 16 8V10H8V8ZM6 10V8C6 4.68629 8.68629 2 12 2C15.3137 2 18 4.68629 18 8V10C19.1046 10 20 10.8954 20 12V20C20 21.1046 19.1046 22 18 22H6C4.89543 22 4 21.1046 4 20V12C4 10.8954 4.89543 10 6 10ZM12 19C12.5523 19 13 18.5523 13 18L13.0011 17.2318C13.5983 16.8858 14 16.2398 14 15.5C14 14.3954 13.1046 13.5 12 13.5C10.8954 13.5 10 14.3954 10 15.5C10 16.2403 10.4022 16.8866 10.9999 17.2324L11 18C11 18.5523 11.4477 19 12 19Z" fill="#000716"/>
</svg>
