<svg width="24" height="24" viewBox="0 0 24 24" fill="none" xmlns="http://www.w3.org/2000/svg">
<path fill-rule="evenodd" clip-rule="evenodd" d="M6 5C4.85792 5 3.89471 5.76582 3.59588 6.81195C3.53418 6.97547 3.5 7.15436 3.5 7.34436V7.5V16.5V18.0403C3.5 18.6253 3.84019 19.157 4.37141 19.4022L7.87141 21.0176C8.86534 21.4763 10 20.7503 10 19.6556V19H11.5C12.8807 19 14 17.8807 14 16.5V15.5C14 14.9477 13.5523 14.5 13 14.5C12.4477 14.5 12 14.9477 12 15.5V16.5C12 16.7761 11.7761 17 11.5 17H10V8.95975C10 8.37467 9.65981 7.84299 9.12859 7.59781L7.83333 7H11.5C11.7761 7 12 7.22386 12 7.5V8.5C12 9.05228 12.4477 9.5 13 9.5C13.5523 9.5 14 9.05228 14 8.5V7.5C14 6.11929 12.8807 5 11.5 5H6ZM13 11C12.4477 11 12 11.4477 12 12C12 12.5523 12.4477 13 13 13H18.0858L16.7929 14.2929C16.4024 14.6834 16.4024 15.3166 16.7929 15.7071C17.1834 16.0976 17.8166 16.0976 18.2071 15.7071L21.2071 12.7071C21.5976 12.3166 21.5976 11.6834 21.2071 11.2929L18.2071 8.29289C17.8166 7.90237 17.1834 7.90237 16.7929 8.29289C16.4024 8.68342 16.4024 9.31658 16.7929 9.70711L18.0858 11H13Z" fill="#000716"/>
</svg>
