<svg width="24" height="24" viewBox="0 0 24 24" fill="none" xmlns="http://www.w3.org/2000/svg">
<path fill-rule="evenodd" clip-rule="evenodd" d="M6.81454 8.5H5.84454V6.155L5.26954 6.505L4.88954 5.835L6.03954 5.065H6.81454V8.5ZM7.36194 13.5H4.61194V12.715L5.88694 11.795C6.24694 11.535 6.33194 11.38 6.33194 11.2C6.33194 11.01 6.16694 10.885 5.94194 10.885C5.64694 10.885 5.41694 11.025 5.15194 11.29L4.55194 10.685C4.93194 10.235 5.39694 10.005 5.96694 10.005C6.78194 10.005 7.33194 10.495 7.33194 11.16C7.33194 11.61 7.15194 11.96 6.54194 12.35L6.09694 12.635H7.36194V13.5ZM5.98147 18.565C6.84147 18.565 7.39147 18.13 7.39147 17.52C7.39147 17.095 7.07647 16.82 6.68647 16.73C7.07647 16.615 7.31647 16.32 7.31647 15.95C7.31647 15.41 6.82647 15.005 5.97647 15.005C5.31647 15.005 4.88647 15.27 4.58647 15.615L5.12147 16.21C5.34147 16.005 5.58647 15.87 5.87147 15.87C6.15147 15.87 6.32647 15.965 6.32647 16.135C6.32647 16.29 6.18147 16.375 5.86147 16.375H5.45147V17.185L5.86647 17.18C6.27647 17.175 6.39147 17.265 6.39147 17.43C6.39147 17.585 6.23647 17.7 5.92647 17.7C5.63147 17.7 5.31147 17.59 5.05647 17.35L4.51147 17.995C4.83147 18.335 5.32647 18.565 5.98147 18.565ZM10 6C9.44772 6 9 6.44772 9 7C9 7.55228 9.44772 8 10 8H19C19.5523 8 20 7.55228 20 7C20 6.44772 19.5523 6 19 6H10ZM10 11C9.44772 11 9 11.4477 9 12C9 12.5523 9.44772 13 10 13H19C19.5523 13 20 12.5523 20 12C20 11.4477 19.5523 11 19 11H10ZM9 17C9 16.4477 9.44772 16 10 16H19C19.5523 16 20 16.4477 20 17C20 17.5523 19.5523 18 19 18H10C9.44772 18 9 17.5523 9 17Z" fill="#000716"/>
</svg>
