<svg width="24" height="24" viewBox="0 0 24 24" fill="none" xmlns="http://www.w3.org/2000/svg">
<path fill-rule="evenodd" clip-rule="evenodd" d="M12 18.5181C12 18.5181 12 18.5181 12 18.5181C14.2363 16.8618 17 14.531 17 10.5L17 7.26868C15.0996 6.88039 13.0435 6.09461 12 5.66988C12 5.66988 12 5.66988 12 5.66988V18.5181ZM5 5.99999C5 5.72385 5.22409 5.50079 5.49918 5.47678C7.55783 5.29714 10.5202 4.12327 11.5929 3.67426C11.8539 3.565 12.1461 3.565 12.4072 3.67426C13.4798 4.12327 16.4422 5.29714 18.5008 5.47678C18.7759 5.50079 19 5.72384 19 5.99999L19 10.5C19 15.9545 14.8678 18.9297 12.6139 20.5526L12.6138 20.5526C12.3884 20.7149 12.1818 20.8636 12 21C11.8182 20.8636 11.6116 20.7149 11.3862 20.5526C9.13227 18.9298 5 15.9546 5 10.5V5.99999Z" fill="#000716"/>
</svg>
