<svg width="24" height="24" viewBox="0 0 24 24" fill="none" xmlns="http://www.w3.org/2000/svg">
<path fill-rule="evenodd" clip-rule="evenodd" d="M12 22C17.5228 22 22 17.5228 22 12C22 6.47715 17.5228 2 12 2C6.47715 2 2 6.47715 2 12C2 17.5228 6.47715 22 12 22ZM16.8137 9.58124C17.1347 9.13183 17.0307 8.50728 16.5812 8.18627C16.1318 7.86526 15.5073 7.96935 15.1863 8.41876L10.9803 14.3071L8.8 11.4C8.46863 10.9582 7.84183 10.8686 7.4 11.2C6.95817 11.5314 6.86863 12.1582 7.2 12.6L10.2 16.6C10.3913 16.8551 10.6928 17.0036 11.0116 16.9999C11.3305 16.9962 11.6284 16.8407 11.8137 16.5812L16.8137 9.58124Z" fill="#000716"/>
</svg>
