<svg width="24" height="24" viewBox="0 0 24 24" fill="none" xmlns="http://www.w3.org/2000/svg">
<path fill-rule="evenodd" clip-rule="evenodd" d="M19.2356 7.84935L14.9896 10.6092C14.8935 10.6717 14.7813 10.705 14.6667 10.705C14.3394 10.705 14.0741 10.4397 14.0741 10.1124V8.35248H7.55556C6.14416 8.35248 5 9.49664 5 10.908C5 11.4603 4.55228 11.908 4 11.908C3.44771 11.908 3 11.4603 3 10.908C3 8.39207 5.03959 6.35248 7.55556 6.35248H14.0741V4.5926C14.0741 4.47795 14.1073 4.36577 14.1698 4.26965C14.3482 3.99524 14.7152 3.91738 14.9896 4.09575L19.2356 6.85564C19.3051 6.9008 19.3643 6.96005 19.4095 7.02954C19.5879 7.30394 19.51 7.67098 19.2356 7.84935ZM21 12.0932C21 11.5409 20.5523 11.0932 20 11.0932C19.4477 11.0932 19 11.5409 19 12.0932C19 13.5046 17.8558 14.6488 16.4444 14.6488H9.92589V12.8889C9.92589 12.5616 9.66058 12.2963 9.3333 12.2963C9.21865 12.2963 9.10647 12.3295 9.01034 12.392L4.76436 15.1519C4.48995 15.3303 4.4121 15.6973 4.59046 15.9717C4.63563 16.0412 4.69487 16.1005 4.76436 16.1456L9.01034 18.9055C9.28475 19.0839 9.65179 19.006 9.83015 18.7316C9.89264 18.6355 9.92589 18.5233 9.92589 18.4087V16.6488H16.4444C18.9604 16.6488 21 14.6092 21 12.0932Z" fill="#000716"/>
</svg>
