<svg width="24" height="24" viewBox="0 0 24 24" fill="none" xmlns="http://www.w3.org/2000/svg">
<path fill-rule="evenodd" clip-rule="evenodd" d="M10.5 2C9.11929 2 8 3.11929 8 4.5V6H4C3.44772 6 3 6.44772 3 7C3 7.55229 3.44772 8 4 8H5.03508L5.44898 19.5892C5.49702 20.9344 6.6014 22 7.94738 22H16.0526C17.3986 22 18.503 20.9344 18.551 19.5892L18.9649 8H20C20.5523 8 21 7.55229 21 7C21 6.44772 20.5523 6 20 6H16V4.5C16 3.11929 14.8807 2 13.5 2H10.5ZM10 4.5C10 4.22386 10.2239 4 10.5 4H13.5C13.7761 4 14 4.22386 14 4.5V6H10V4.5ZM7.4477 19.5178L7.03635 8H16.9636L16.5523 19.5178C16.5427 19.7869 16.3218 20 16.0526 20H7.94738C7.67819 20 7.45731 19.7869 7.4477 19.5178ZM11 17V11C11 10.4477 10.5523 10 10 10C9.44772 10 9 10.4477 9 11V17C9 17.5523 9.44772 18 10 18C10.5523 18 11 17.5523 11 17ZM13 17V11C13 10.4477 13.4477 10 14 10C14.5523 10 15 10.4477 15 11V17C15 17.5523 14.5523 18 14 18C13.4477 18 13 17.5523 13 17Z" fill="#000716"/>
</svg>
