<svg width="24" height="24" viewBox="0 0 24 24" fill="none" xmlns="http://www.w3.org/2000/svg">
<path fill-rule="evenodd" clip-rule="evenodd" d="M11.5 3C9.84315 3 8.5 4.34315 8.5 6H5C4.44772 6 4 6.44772 4 7C4 7.55228 4.44772 8 5 8H5.53772L5.92677 18.1153C5.98873 19.7261 7.31256 21 8.92456 21H15.0754C16.6874 21 18.0113 19.7261 18.0732 18.1153L18.4623 8H19C19.5523 8 20 7.55229 20 7C20 6.44772 19.5523 6 19 6L15.5 6C15.5 4.34315 14.1569 3 12.5 3H11.5ZM13.5 6C13.5 5.44772 13.0523 5 12.5 5H11.5C10.9477 5 10.5 5.44772 10.5 6H13.5ZM8.5 8H7.5392L7.92529 18.0384C7.94595 18.5754 8.38722 19 8.92456 19H15.0754C15.6128 19 16.0541 18.5754 16.0747 18.0384L16.4608 8L15.5 8H14.5H9.5H8.5ZM11.25 11C11.25 10.4477 10.8023 10 10.25 10C9.69772 10 9.25 10.4477 9.25 11V16C9.25 16.5523 9.69772 17 10.25 17C10.8023 17 11.25 16.5523 11.25 16V11ZM13.75 10C14.3023 10 14.75 10.4477 14.75 11V16C14.75 16.5523 14.3023 17 13.75 17C13.1977 17 12.75 16.5523 12.75 16V11C12.75 10.4477 13.1977 10 13.75 10Z" fill="#000716"/>
</svg>
