<svg width="24" height="24" viewBox="0 0 24 24" fill="none" xmlns="http://www.w3.org/2000/svg">
<path fill-rule="evenodd" clip-rule="evenodd" d="M10 10C11.6569 10 13 8.65685 13 7C13 5.34315 11.6569 4 10 4C8.34315 4 7 5.34315 7 7C7 8.65685 8.34315 10 10 10ZM10 11C7 11 5 12 5 15C5 16.552 7.5063 17.3269 10.0094 17.325C10.0032 17.2175 10 17.1091 10 17C10 14.6374 11.4897 12.6228 13.5809 11.8441C12.7083 11.2417 11.475 11 10 11ZM19 17C19 18.933 17.433 20.5 15.5 20.5C13.567 20.5 12 18.933 12 17C12 15.067 13.567 13.5 15.5 13.5C17.433 13.5 19 15.067 19 17ZM13.5 17C13.5 16.4477 13.9477 16 14.5 16H16.5C17.0523 16 17.5 16.4477 17.5 17C17.5 17.5523 17.0523 18 16.5 18H14.5C13.9477 18 13.5 17.5523 13.5 17Z" fill="#000716"/>
</svg>
