<svg width="50" height="50" viewBox="0 0 50 50" fill="none" xmlns="http://www.w3.org/2000/svg">
<path d="M24.5 43C34.7173 43 43 34.7173 43 24.5C43 14.2827 34.7173 6 24.5 6C14.2827 6 6 14.2827 6 24.5C6 34.7173 14.2827 43 24.5 43Z" fill="white" stroke="#0053FF" stroke-width="4"/>
<path d="M28.2379 22.7598C28.6671 22.4123 28.7333 21.7826 28.3857 21.3534C28.0382 20.9242 27.4085 20.858 26.9793 21.2056L14.5449 31.2747C14.1157 31.6222 14.0495 32.2519 14.3971 32.6811C14.7447 33.1104 15.3744 33.1765 15.8036 32.829L28.2379 22.7598Z" fill="#DCDCDC"/>
<path d="M24.5 14.5V24.5L30.5 28.5" stroke="#000716" stroke-width="2" stroke-linecap="round" stroke-linejoin="round"/>
</svg>
