<svg width="24" height="24" viewBox="0 0 24 24" fill="none" xmlns="http://www.w3.org/2000/svg">
<path fill-rule="evenodd" clip-rule="evenodd" d="M4.5 5C3.67157 5 3 5.67157 3 6.5C3 7.32843 3.67157 8 4.5 8H19.5C20.3284 8 21 7.32843 21 6.5C21 5.67157 20.3284 5 19.5 5H4.5ZM5 9C4.72386 9 4.5 9.22386 4.5 9.5V18C4.5 19.1046 5.39543 20 6.5 20H17.5C18.6046 20 19.5 19.1046 19.5 18V9.5C19.5 9.22386 19.2761 9 19 9H5ZM9 11.5C9 10.9477 9.44772 10.5 10 10.5H14C14.5523 10.5 15 10.9477 15 11.5C15 12.0523 14.5523 12.5 14 12.5H10C9.44772 12.5 9 12.0523 9 11.5Z" fill="#1D2129"/>
</svg>
