<svg width="24" height="24" viewBox="0 0 24 24" fill="none" xmlns="http://www.w3.org/2000/svg">
<path fill-rule="evenodd" clip-rule="evenodd" d="M5 5C4.44772 5 4 5.44772 4 6V7C4 7.55228 4.44772 8 5 8H19C19.5523 8 20 7.55228 20 7V6C20 5.44772 19.5523 5 19 5H5ZM6 9C5.44772 9 5 9.44772 5 10V17C5 18.1046 5.89543 19 7 19H17C18.1046 19 19 18.1046 19 17V10C19 9.44772 18.5523 9 18 9H6ZM9 12C9 11.4477 9.44772 11 10 11H14C14.5523 11 15 11.4477 15 12C15 12.5523 14.5523 13 14 13H10C9.44772 13 9 12.5523 9 12Z" fill="#000716"/>
</svg>
