<svg width="24" height="24" viewBox="0 0 24 24" fill="none" xmlns="http://www.w3.org/2000/svg">
<path fill-rule="evenodd" clip-rule="evenodd" d="M8.29289 14.2929C8.68342 13.9024 9.31658 13.9024 9.70711 14.2929L12 16.5858L14.2929 14.2929C14.6834 13.9024 15.3166 13.9024 15.7071 14.2929C16.0976 14.6834 16.0976 15.3166 15.7071 15.7071L12.7071 18.7071C12.3166 19.0976 11.6834 19.0976 11.2929 18.7071L8.29289 15.7071C7.90237 15.3166 7.90237 14.6834 8.29289 14.2929Z" fill="#1D2129"/>
<path fill-rule="evenodd" clip-rule="evenodd" d="M8.29289 10.7071C8.68342 11.0976 9.31658 11.0976 9.70711 10.7071L12 8.41421L14.2929 10.7071C14.6834 11.0976 15.3166 11.0976 15.7071 10.7071C16.0976 10.3166 16.0976 9.68342 15.7071 9.29289L12.7071 6.29289C12.3166 5.90237 11.6834 5.90237 11.2929 6.29289L8.29289 9.29289C7.90237 9.68342 7.90237 10.3166 8.29289 10.7071Z" fill="#1D2129"/>
</svg>
