<svg width="24" height="24" viewBox="0 0 24 24" fill="none" xmlns="http://www.w3.org/2000/svg">
<path d="M12 2C17.5228 2 22 6.47715 22 12C22 17.5228 17.5228 22 12 22C6.47715 22 2 17.5228 2 12C2 6.47715 6.47715 2 12 2ZM12.707 6.29297C12.3165 5.90253 11.6835 5.90253 11.293 6.29297L6.79297 10.793C6.40253 11.1835 6.40253 11.8165 6.79297 12.207C7.18348 12.5975 7.81652 12.5975 8.20703 12.207L11 9.41406V17C11 17.5522 11.4478 17.9999 12 18C12.5522 17.9999 13 17.5522 13 17V9.41406L15.793 12.207C16.1835 12.5975 16.8165 12.5975 17.207 12.207C17.5975 11.8165 17.5975 11.1835 17.207 10.793L12.707 6.29297Z" fill="black"/>
</svg>
