<svg width="24" height="24" viewBox="0 0 24 24" fill="none" xmlns="http://www.w3.org/2000/svg">
<path fill-rule="evenodd" clip-rule="evenodd" d="M5.78239 12.9571C4.12267 14.6168 4.12267 17.3078 5.78239 18.9675C7.44212 20.6272 10.1331 20.6272 11.7928 18.9675L17.98 12.7803C18.3705 12.3898 19.0037 12.3898 19.3942 12.7803C19.7847 13.1708 19.7847 13.804 19.3942 14.1945L13.207 20.3817C10.7662 22.8225 6.80896 22.8225 4.36818 20.3817C1.9274 17.9409 1.9274 13.9837 4.36818 11.5429L13.0302 2.88082C14.7876 1.12347 17.6368 1.12346 19.3942 2.88082C21.1516 4.63818 21.1516 7.48743 19.3942 9.24479L10.7321 17.9068C9.6582 18.9808 7.917 18.9808 6.84305 17.9068C5.76911 16.8329 5.76911 15.0917 6.84305 14.0178L13.0302 7.83057C13.4208 7.44005 14.0539 7.44005 14.4445 7.83057C14.835 8.2211 14.835 8.85426 14.4445 9.24479L8.25727 15.432C7.96437 15.7249 7.96437 16.1997 8.25727 16.4926C8.55016 16.7855 9.02503 16.7855 9.31793 16.4926L17.98 7.83057C18.9563 6.85426 18.9563 5.27135 17.98 4.29504C17.0037 3.31873 15.4208 3.31873 14.4445 4.29504L5.78239 12.9571Z" fill="#000716"/>
</svg>
