<svg width="24" height="24" viewBox="0 0 24 24" fill="none" xmlns="http://www.w3.org/2000/svg">
<path fill-rule="evenodd" clip-rule="evenodd" d="M4 3C3.44772 3 3 3.44772 3 4C3 4.55228 3.44772 5 4 5H5.74814C5.98978 5 6.19684 5.17281 6.24007 5.41056L7.86684 14.3578C8.03974 15.3087 8.868 16 9.83458 16H15C15.5523 16 16 15.5523 16 15C16 14.4477 15.5523 14 15 14L9.83458 14L9.70148 13.268L18.353 12.0882C18.7461 12.0346 19.0704 11.7536 19.1794 11.3721L20.6358 6.27472C20.8183 5.6359 20.3386 5 19.6743 5H8.19763C7.96086 3.83857 6.93839 3 5.74814 3H4ZM9.5 20C10.3284 20 11 19.3284 11 18.5C11 17.6716 10.3284 17 9.5 17C8.67157 17 8 17.6716 8 18.5C8 19.3284 8.67157 20 9.5 20ZM16 18.5C16 19.3284 15.3284 20 14.5 20C13.6716 20 13 19.3284 13 18.5C13 17.6716 13.6716 17 14.5 17C15.3284 17 16 17.6716 16 18.5Z" fill="#000716"/>
</svg>
