<svg width="24" height="24" viewBox="0 0 24 24" fill="none" xmlns="http://www.w3.org/2000/svg">
<path d="M8.25 17.5C9.2165 17.5 10 18.2835 10 19.25C10 20.2165 9.2165 21 8.25 21C7.2835 21 6.5 20.2165 6.5 19.25C6.5 18.2835 7.2835 17.5 8.25 17.5ZM17.25 17.5C18.2165 17.5 19 18.2835 19 19.25C19 20.2165 18.2165 21 17.25 21C16.2835 21 15.5 20.2165 15.5 19.25C15.5 18.2835 16.2835 17.5 17.25 17.5ZM4.53027 3C5.51371 3 6.40567 3.57697 6.80957 4.47363L7.04688 5H19.833C20.5879 5 21.0711 5.8046 20.7158 6.4707L17.7646 12.0029C17.6003 12.3111 17.2872 12.5117 16.9385 12.5312L8.85156 12.9795L8.00488 15H18.5C19.0523 15 19.5 15.4477 19.5 16C19.5 16.5523 19.0523 17 18.5 17H7.55273C6.33788 16.9998 5.51513 15.7618 5.98535 14.6416L7.53418 10.9521L4.98633 5.29492C4.90555 5.11559 4.72696 5 4.53027 5H3C2.44772 5 2 4.55228 2 4C2 3.44772 2.44772 3 3 3H4.53027Z" fill="black"/>
</svg>
