<svg width="24" height="24" viewBox="0 0 24 24" fill="none" xmlns="http://www.w3.org/2000/svg">
<path fill-rule="evenodd" clip-rule="evenodd" d="M1.01006 3.35858C1.08816 2.81185 1.59469 2.43195 2.14143 2.51006L4.49607 2.84643C5.62083 3.00711 6.4958 3.90605 6.62603 5.03475L7.68694 14.2293C7.80338 15.2384 8.65788 16 9.67376 16H19C19.5523 16 20 16.4477 20 17C20 17.5523 19.5523 18 19 18H9.67376C7.642 18 5.93301 16.4769 5.70012 14.4585L4.63922 5.26399C4.61317 5.03825 4.43818 4.85847 4.21322 4.82633L1.85858 4.48995C1.31185 4.41185 0.931951 3.90532 1.01006 3.35858ZM11 20C11 21.1046 10.1046 22 9.00003 22C7.89546 22 7.00003 21.1046 7.00003 20C7.00003 18.8955 7.89546 18 9.00003 18C10.1046 18 11 18.8955 11 20ZM17 22C18.1046 22 19 21.1046 19 20C19 18.8955 18.1046 18 17 18C15.8955 18 15 18.8955 15 20C15 21.1046 15.8955 22 17 22Z" fill="#000716"/>
</svg>
