<svg width="24" height="24" viewBox="0 0 24 24" fill="none" xmlns="http://www.w3.org/2000/svg">
<path fill-rule="evenodd" clip-rule="evenodd" d="M2.14143 2.51006C1.59469 2.43195 1.08816 2.81185 1.01006 3.35858C0.931951 3.90532 1.31185 4.41185 1.85858 4.48995L4.21322 4.82633C4.43818 4.85847 4.61317 5.03825 4.63922 5.26399L5.70012 14.4585C5.93301 16.4769 7.642 18 9.67376 18H19C19.5523 18 20 17.5523 20 17C20 16.4477 19.5523 16 19 16H9.67376C8.91415 16 8.24477 15.5742 7.90671 14.9375L19.8836 13.0949C20.2609 13.0368 20.5722 12.7691 20.6861 12.4048L22.5943 6.29831C22.7955 5.65438 22.3145 5.00003 21.6398 5.00003H6.62178C6.4778 3.88766 5.60928 3.00546 4.49607 2.84643L2.14143 2.51006ZM9.00003 22C10.1046 22 11 21.1046 11 20C11 18.8955 10.1046 18 9.00003 18C7.89546 18 7.00003 18.8955 7.00003 20C7.00003 21.1046 7.89546 22 9.00003 22ZM19 20C19 21.1046 18.1046 22 17 22C15.8955 22 15 21.1046 15 20C15 18.8955 15.8955 18 17 18C18.1046 18 19 18.8955 19 20Z" fill="#000716"/>
</svg>
