<svg width="24" height="24" viewBox="0 0 24 24" fill="none" xmlns="http://www.w3.org/2000/svg">
<path d="M9.5 18C10.3284 18 11 18.6716 11 19.5C11 20.3284 10.3284 21 9.5 21C8.67157 21 8 20.3284 8 19.5C8 18.6716 8.67157 18 9.5 18ZM16.5 18C17.3284 18 18 18.6716 18 19.5C18 20.3284 17.3284 21 16.5 21C15.6716 21 15 20.3284 15 19.5C15 18.6716 15.6716 18 16.5 18ZM3.8291 3C4.9761 3.00012 5.97564 3.78081 6.25391 4.89355L6.28027 5H20.7188C21.3692 5 21.847 5.61116 21.6895 6.24219L20.1895 12.2422C20.0782 12.6874 19.6776 13 19.2188 13H8.28125L8.78125 15H18C18.5523 15 19 15.4477 19 16C19 16.5523 18.5523 17 18 17H8.78125C7.86363 17 7.06352 16.3755 6.84082 15.4854L4.31348 5.37891C4.25785 5.15641 4.05842 5.00012 3.8291 5H2C1.44772 5 1 4.55228 1 4C1 3.44772 1.44772 3 2 3H3.8291Z" fill="black"/>
</svg>
