<svg width="24" height="24" viewBox="0 0 24 24" fill="none" xmlns="http://www.w3.org/2000/svg">
<path d="M8.6405 16H13.6945C15.5425 16 16.8585 14.936 16.8585 13.396C16.8585 12.332 16.2005 11.436 15.0805 10.932C15.9345 10.484 16.4385 9.77002 16.4385 8.79002C16.4385 7.39002 15.2345 6.38202 13.5125 6.38202H8.6405V16ZM10.6985 10.26V8.14602H13.0085C13.7645 8.14602 14.3105 8.59402 14.3105 9.19602C14.3105 9.81202 13.7645 10.26 13.0085 10.26H10.6985ZM10.6985 14.236V11.884H13.3165C14.1425 11.884 14.7305 12.374 14.7305 13.06C14.7305 13.746 14.1425 14.236 13.3165 14.236H10.6985Z" fill="black"/>
</svg>
