<svg width="24" height="24" viewBox="0 0 24 24" fill="none" xmlns="http://www.w3.org/2000/svg">
<path d="M7.58913 17H13.3651C15.4771 17 16.9811 15.784 16.9811 14.024C16.9811 12.808 16.2291 11.784 14.9491 11.208C15.9251 10.696 16.5011 9.88 16.5011 8.76C16.5011 7.16 15.1251 6.008 13.1571 6.008H7.58913V17ZM9.94113 10.44V8.024H12.5811C13.4451 8.024 14.0691 8.536 14.0691 9.224C14.0691 9.928 13.4451 10.44 12.5811 10.44H9.94113ZM9.94113 14.984V12.296H12.9331C13.8771 12.296 14.5491 12.856 14.5491 13.64C14.5491 14.424 13.8771 14.984 12.9331 14.984H9.94113Z" fill="black"/>
</svg>
