<svg width="24" height="24" viewBox="0 0 24 24" fill="none" xmlns="http://www.w3.org/2000/svg">
<path d="M9 7C9 6.44772 9.44772 6 10 6H14.5C15.0523 6 15.5 6.44772 15.5 7C15.5 7.55228 15.0523 8 14.5 8H10C9.44772 8 9 7.55228 9 7Z" fill="#1D2129"/>
<path d="M10 9.5H13C13.5523 9.5 14 9.94772 14 10.5C14 11.0523 13.5523 11.5 13 11.5H10C9.44772 11.5 9 11.0523 9 10.5C9 9.94772 9.44772 9.5 10 9.5Z" fill="#1D2129"/>
<path d="M7 2H17C18.6569 2 20 3.34315 20 5V19C20 20.6569 18.6569 22 17 22H7C5.34315 22 4 20.6569 4 19V5C4 3.34315 5.34315 2 7 2ZM18 15.8293V5C18 4.44772 17.5523 4 17 4H7.5V16H17C17.3506 16 17.6872 15.9398 18 15.8293ZM6 19C6 19.5523 6.44772 20 7 20H17C17.5523 20 18 19.5523 18 19V17.9C17.6769 17.9656 17.3425 18 17 18H7C6.44772 18 6 18.4477 6 19Z" fill="#1D2129"/>
</svg>
