<svg width="24" height="24" viewBox="0 0 24 24" fill="none" xmlns="http://www.w3.org/2000/svg">
<path d="M10.882 1.441C11.5858 1.08909 12.4142 1.08909 13.118 1.44099L20.618 5.191C21.465 5.61448 22 6.48013 22 7.42706V16.1174C22 17.0253 21.5078 17.8619 20.7141 18.3028L14.4282 21.795C12.9181 22.6339 11.0819 22.6339 9.57178 21.795L3.28589 18.3028C2.49223 17.8619 2 17.0253 2 16.1174V7.42706C2 6.48013 2.535 5.61448 3.38196 5.191L10.882 1.441ZM12.2236 3.22985C12.0828 3.15947 11.9172 3.15947 11.7764 3.22985L9.4061 4.415L16.5 8.35605L19.3307 6.78342L12.2236 3.22985ZM16.9721 10.3817L13 12.5884V20.2527C13.1564 20.1974 13.3093 20.1287 13.4569 20.0466L19.7428 16.5545C19.9016 16.4663 20 16.299 20 16.1174V8.69953L17.0008 10.3657C16.9913 10.3712 16.9818 10.3765 16.9721 10.3817ZM14.4409 9.50001L7.2386 5.49875L4.66926 6.78342L12 10.8561L14.4409 9.50001ZM4 16.1174C4 16.299 4.09845 16.4663 4.25718 16.5545L10.5431 20.0466C10.6907 20.1287 10.8436 20.1974 11 20.2527V12.5884L4 8.69953V16.1174Z" fill="black"/>
</svg>
