<svg width="24" height="24" viewBox="0 0 24 24" fill="none" xmlns="http://www.w3.org/2000/svg">
<path d="M10.882 1.44093C11.5858 1.08903 12.4142 1.08902 13.118 1.44093L20.618 5.19093C21.465 5.61441 22 6.48007 22 7.427V16.1173C22 17.0253 21.5078 17.8618 20.7141 18.3027L14.4282 21.7949C12.9181 22.6339 11.0819 22.6339 9.57178 21.7949L3.28589 18.3027C2.49223 17.8618 2 17.0253 2 16.1173V7.427C2 6.48007 2.535 5.61442 3.38196 5.19094L10.882 1.44093ZM12.2236 3.22979C12.0828 3.15941 11.9172 3.15941 11.7764 3.22979L9.4061 4.41494L16.5 8.35599L19.3307 6.78336L12.2236 3.22979ZM16.9721 10.3816L13 12.5884V20.2526C13.1564 20.1973 13.3093 20.1286 13.4569 20.0466L19.7428 16.5544C19.9016 16.4662 20 16.2989 20 16.1173V8.69947L17.0008 10.3657C16.9913 10.3711 16.9818 10.3765 16.9721 10.3816ZM14.4409 9.49995L7.2386 5.49869L4.66926 6.78336L12 10.856L14.4409 9.49995ZM4 16.1173C4 16.2989 4.09845 16.4662 4.25718 16.5544L10.5431 20.0466C10.6907 20.1286 10.8436 20.1973 11 20.2526V12.5884L4 8.69947V16.1173Z" fill="black"/>
</svg>
