<svg width="24" height="24" viewBox="0 0 24 24" fill="none" xmlns="http://www.w3.org/2000/svg">
<path d="M8.205 2C5.91741 2 4.09575 3.91502 4.20999 6.19976L4.85749 19.1498C4.93732 20.7464 6.25513 22 7.85375 22H16.1463C17.7449 22 19.0627 20.7464 19.1425 19.1498L19.79 6.19975C19.9043 3.91502 18.0826 2 15.795 2H8.205ZM11.25 11H12.75C13.0261 11 13.25 11.2239 13.25 11.5V12.5C13.25 12.7761 13.0261 13 12.75 13H11.25C10.9739 13 10.75 12.7761 10.75 12.5V11.5C10.75 11.2239 10.9739 11 11.25 11ZM7 11.5C7 11.2239 7.22386 11 7.5 11H9C9.27615 11 9.5 11.2239 9.5 11.5V12.5C9.5 12.7761 9.27615 13 9 13H7.5C7.22386 13 7 12.7761 7 12.5V11.5ZM11.25 14H12.75C13.0261 14 13.25 14.2239 13.25 14.5V15.5C13.25 15.7761 13.0261 16 12.75 16H11.25C10.9739 16 10.75 15.7761 10.75 15.5V14.5C10.75 14.2239 10.9739 14 11.25 14ZM7 14.5C7 14.2239 7.22386 14 7.5 14H9C9.27615 14 9.5 14.2239 9.5 14.5V15.5C9.5 15.7761 9.27615 16 9 16H7.5C7.22386 16 7 15.7761 7 15.5V14.5ZM11.25 17H12.75C13.0261 17 13.25 17.2239 13.25 17.5V18.5C13.25 18.7761 13.0261 19 12.75 19H11.25C10.9739 19 10.75 18.7761 10.75 18.5V17.5C10.75 17.2239 10.9739 17 11.25 17ZM7 17.5C7 17.2239 7.22386 17 7.5 17H9C9.27615 17 9.5 17.2239 9.5 17.5V18.5C9.5 18.7761 9.27615 19 9 19H7.5C7.22386 19 7 18.7761 7 18.5V17.5ZM15 11H16.5C16.7761 11 17 11.2239 17 11.5V12.5C17 12.7761 16.7761 13 16.5 13H15C14.7239 13 14.5 12.7761 14.5 12.5V11.5C14.5 11.2239 14.7239 11 15 11ZM15 14H16.5C16.7761 14 17 14.2239 17 14.5V18.5C17 18.7761 16.7761 19 16.5 19H15C14.7239 19 14.5 18.7761 14.5 18.5V14.5C14.5 14.2239 14.7239 14 15 14ZM7.59668 5H16.4033C17.2686 5 17.9544 5.73002 17.9004 6.59357L17.8086 8.06238C17.7757 8.58941 17.3386 9 16.8106 9H7.18945C6.66139 9 6.22434 8.58941 6.1914 8.06238L6.0996 6.59357C6.04563 5.73002 6.73145 5 7.59668 5Z" fill="black"/>
</svg>
