<svg width="24" height="24" viewBox="0 0 24 24" fill="none" xmlns="http://www.w3.org/2000/svg">
<path fill-rule="evenodd" clip-rule="evenodd" d="M4 3.5C4 2.67157 4.67157 2 5.5 2H18C19.1046 2 20 2.89543 20 4V20.5C20 21.3284 19.3284 22 18.5 22H5.5C4.67157 22 4 21.3284 4 20.5V3.5ZM17 6H7C6.44772 6 6 6.44772 6 7V8C6 8.55228 6.44772 9 7 9H17C17.5523 9 18 8.55228 18 8V7C18 6.44772 17.5523 6 17 6ZM13 11H11C10.7239 11 10.5 11.2239 10.5 11.5V12.5C10.5 12.7761 10.7239 13 11 13H13C13.2761 13 13.5 12.7761 13.5 12.5V11.5C13.5 11.2239 13.2761 11 13 11ZM6.5 11C6.22386 11 6 11.2239 6 11.5V12.5C6 12.7761 6.22386 13 6.5 13H8.5C8.77614 13 9 12.7761 9 12.5V11.5C9 11.2239 8.77614 11 8.5 11H6.5ZM13 14H11C10.7239 14 10.5 14.2239 10.5 14.5V15.5C10.5 15.7761 10.7239 16 11 16H13C13.2761 16 13.5 15.7761 13.5 15.5V14.5C13.5 14.2239 13.2761 14 13 14ZM6.5 14C6.22386 14 6 14.2239 6 14.5V15.5C6 15.7761 6.22386 16 6.5 16H8.5C8.77614 16 9 15.7761 9 15.5V14.5C9 14.2239 8.77614 14 8.5 14H6.5ZM13 17H11C10.7239 17 10.5 17.2239 10.5 17.5V18.5C10.5 18.7761 10.7239 19 11 19H13C13.2761 19 13.5 18.7761 13.5 18.5V17.5C13.5 17.2239 13.2761 17 13 17ZM6.5 17C6.22386 17 6 17.2239 6 17.5V18.5C6 18.7761 6.22386 19 6.5 19H8.5C8.77614 19 9 18.7761 9 18.5V17.5C9 17.2239 8.77614 17 8.5 17H6.5ZM17.5 11H15.5C15.2239 11 15 11.2239 15 11.5V12.5C15 12.7761 15.2239 13 15.5 13H17.5C17.7761 13 18 12.7761 18 12.5V11.5C18 11.2239 17.7761 11 17.5 11ZM17.5 14H15.5C15.2239 14 15 14.2239 15 14.5V18.5C15 18.7761 15.2239 19 15.5 19H17.5C17.7761 19 18 18.7761 18 18.5V14.5C18 14.2239 17.7761 14 17.5 14Z" fill="#000716"/>
</svg>
