<svg width="24" height="24" viewBox="0 0 24 24" fill="none" xmlns="http://www.w3.org/2000/svg">
<path d="M11.25 11.5H12.75C13.0261 11.5 13.25 11.7239 13.25 12V13C13.25 13.2761 13.0261 13.5 12.75 13.5H11.25C10.9739 13.5 10.75 13.2761 10.75 13V12C10.75 11.7239 10.9739 11.5 11.25 11.5ZM7 12C7 11.7239 7.22386 11.5 7.5 11.5H9C9.27614 11.5 9.5 11.7239 9.5 12V13C9.5 13.2761 9.27614 13.5 9 13.5H7.5C7.22386 13.5 7 13.2761 7 13V12ZM11.25 14.5H12.75C13.0261 14.5 13.25 14.7239 13.25 15V16C13.25 16.2761 13.0261 16.5 12.75 16.5H11.25C10.9739 16.5 10.75 16.2761 10.75 16V15C10.75 14.7239 10.9739 14.5 11.25 14.5ZM7 15C7 14.7239 7.22386 14.5 7.5 14.5H9C9.27614 14.5 9.5 14.7239 9.5 15V16C9.5 16.2761 9.27614 16.5 9 16.5H7.5C7.22386 16.5 7 16.2761 7 16V15ZM11.25 17.5H12.75C13.0261 17.5 13.25 17.7239 13.25 18V19C13.25 19.2761 13.0261 19.5 12.75 19.5H11.25C10.9739 19.5 10.75 19.2761 10.75 19V18C10.75 17.7239 10.9739 17.5 11.25 17.5ZM7 18C7 17.7239 7.22386 17.5 7.5 17.5H9C9.27614 17.5 9.5 17.7239 9.5 18V19C9.5 19.2761 9.27614 19.5 9 19.5H7.5C7.22386 19.5 7 19.2761 7 19V18ZM15 11.5H16.5C16.7761 11.5 17 11.7239 17 12V13C17 13.2761 16.7761 13.5 16.5 13.5H15C14.7239 13.5 14.5 13.2761 14.5 13V12C14.5 11.7239 14.7239 11.5 15 11.5ZM15 14.5H16.5C16.7761 14.5 17 14.7239 17 15V19C17 19.2761 16.7761 19.5 16.5 19.5H15C14.7239 19.5 14.5 19.2761 14.5 19V15C14.5 14.7239 14.7239 14.5 15 14.5Z" fill="#868686"/>
</svg>
