<svg width="24" height="24" viewBox="0 0 24 24" fill="none" xmlns="http://www.w3.org/2000/svg">
<path fill-rule="evenodd" clip-rule="evenodd" d="M4.5 5C4.5 3.89543 5.39543 3 6.5 3H17.5C18.6046 3 19.5 3.89543 19.5 5V20C19.5 20.8284 18.8284 21.5 18 21.5H6C5.17157 21.5 4.5 20.8284 4.5 20V5ZM16.5 6.5H7.5C6.94772 6.5 6.5 6.94772 6.5 7.5V8.5C6.5 9.05228 6.94772 9.5 7.5 9.5H16.5C17.0523 9.5 17.5 9.05228 17.5 8.5V7.5C17.5 6.94772 17.0523 6.5 16.5 6.5ZM12.75 11.5H11.25C10.9739 11.5 10.75 11.7239 10.75 12V13C10.75 13.2761 10.9739 13.5 11.25 13.5H12.75C13.0261 13.5 13.25 13.2761 13.25 13V12C13.25 11.7239 13.0261 11.5 12.75 11.5ZM7.5 11.5C7.22386 11.5 7 11.7239 7 12V13C7 13.2761 7.22386 13.5 7.5 13.5H9C9.27614 13.5 9.5 13.2761 9.5 13V12C9.5 11.7239 9.27614 11.5 9 11.5H7.5ZM12.75 14.5H11.25C10.9739 14.5 10.75 14.7239 10.75 15V16C10.75 16.2761 10.9739 16.5 11.25 16.5H12.75C13.0261 16.5 13.25 16.2761 13.25 16V15C13.25 14.7239 13.0261 14.5 12.75 14.5ZM7.5 14.5C7.22386 14.5 7 14.7239 7 15V16C7 16.2761 7.22386 16.5 7.5 16.5H9C9.27614 16.5 9.5 16.2761 9.5 16V15C9.5 14.7239 9.27614 14.5 9 14.5H7.5ZM12.75 17.5H11.25C10.9739 17.5 10.75 17.7239 10.75 18V19C10.75 19.2761 10.9739 19.5 11.25 19.5H12.75C13.0261 19.5 13.25 19.2761 13.25 19V18C13.25 17.7239 13.0261 17.5 12.75 17.5ZM7.5 17.5C7.22386 17.5 7 17.7239 7 18V19C7 19.2761 7.22386 19.5 7.5 19.5H9C9.27614 19.5 9.5 19.2761 9.5 19V18C9.5 17.7239 9.27614 17.5 9 17.5H7.5ZM16.5 11.5H15C14.7239 11.5 14.5 11.7239 14.5 12V13C14.5 13.2761 14.7239 13.5 15 13.5H16.5C16.7761 13.5 17 13.2761 17 13V12C17 11.7239 16.7761 11.5 16.5 11.5ZM16.5 14.5H15C14.7239 14.5 14.5 14.7239 14.5 15V19C14.5 19.2761 14.7239 19.5 15 19.5H16.5C16.7761 19.5 17 19.2761 17 19V15C17 14.7239 16.7761 14.5 16.5 14.5Z" fill="#000716"/>
</svg>
