<svg width="24" height="24" viewBox="0 0 24 24" fill="none" xmlns="http://www.w3.org/2000/svg">
<path fill-rule="evenodd" clip-rule="evenodd" d="M4.20999 6.19976C4.09575 3.91502 5.91741 2 8.205 2H15.795C18.0826 2 19.9042 3.91502 19.79 6.19975L19.1425 19.1498C19.0627 20.7464 17.7449 22 16.1463 22H7.85375C6.25513 22 4.93732 20.7464 4.85749 19.1498L4.20999 6.19976ZM17 5H7C6.44772 5 6 5.44772 6 6V8C6 8.55228 6.44772 9 7 9H17C17.5523 9 18 8.55228 18 8V6C18 5.44772 17.5523 5 17 5ZM12.75 11H11.25C10.9739 11 10.75 11.2239 10.75 11.5V12.5C10.75 12.7761 10.9739 13 11.25 13H12.75C13.0261 13 13.25 12.7761 13.25 12.5V11.5C13.25 11.2239 13.0261 11 12.75 11ZM7.5 11C7.22386 11 7 11.2239 7 11.5V12.5C7 12.7761 7.22386 13 7.5 13H9C9.27614 13 9.5 12.7761 9.5 12.5V11.5C9.5 11.2239 9.27614 11 9 11H7.5ZM12.75 14H11.25C10.9739 14 10.75 14.2239 10.75 14.5V15.5C10.75 15.7761 10.9739 16 11.25 16H12.75C13.0261 16 13.25 15.7761 13.25 15.5V14.5C13.25 14.2239 13.0261 14 12.75 14ZM7.5 14C7.22386 14 7 14.2239 7 14.5V15.5C7 15.7761 7.22386 16 7.5 16H9C9.27614 16 9.5 15.7761 9.5 15.5V14.5C9.5 14.2239 9.27614 14 9 14H7.5ZM12.75 17H11.25C10.9739 17 10.75 17.2239 10.75 17.5V18.5C10.75 18.7761 10.9739 19 11.25 19H12.75C13.0261 19 13.25 18.7761 13.25 18.5V17.5C13.25 17.2239 13.0261 17 12.75 17ZM7.5 17C7.22386 17 7 17.2239 7 17.5V18.5C7 18.7761 7.22386 19 7.5 19H9C9.27614 19 9.5 18.7761 9.5 18.5V17.5C9.5 17.2239 9.27614 17 9 17H7.5ZM16.5 11H15C14.7239 11 14.5 11.2239 14.5 11.5V12.5C14.5 12.7761 14.7239 13 15 13H16.5C16.7761 13 17 12.7761 17 12.5V11.5C17 11.2239 16.7761 11 16.5 11ZM16.5 14H15C14.7239 14 14.5 14.2239 14.5 14.5V18.5C14.5 18.7761 14.7239 19 15 19H16.5C16.7761 19 17 18.7761 17 18.5V14.5C17 14.2239 16.7761 14 16.5 14Z" fill="#000716"/>
</svg>
