<svg width="24" height="24" viewBox="0 0 24 24" fill="none" xmlns="http://www.w3.org/2000/svg">
<path d="M8 11C7.44772 11 7 11.4477 7 12C7 12.5523 7.44772 13 8 13V16C8 16.5523 8.44772 17 9 17C9.55228 17 10 16.5523 10 16V12C10 11.4477 9.55228 11 9 11H8Z" fill="black"/>
<path d="M11 12C11 11.4477 11.4477 11 12 11H14.5C14.8079 11 15.0987 11.1419 15.2882 11.3846C15.4777 11.6273 15.5448 11.9438 15.4701 12.2425L14.4701 16.2425C14.3362 16.7783 13.7933 17.1041 13.2575 16.9701C12.7217 16.8362 12.3959 16.2933 12.5299 15.7575L13.2192 13H12C11.4477 13 11 12.5523 11 12Z" fill="black"/>
<path d="M8 2C8 1.44772 7.55228 1 7 1C6.44772 1 6 1.44772 6 2V2.10002C3.71776 2.56329 2 4.58104 2 7V17C2 19.7614 4.23858 22 7 22H16C18.7614 22 21 19.7614 21 17V7C21 4.58104 19.2822 2.56329 17 2.10002V2C17 1.44772 16.5523 1 16 1C15.4477 1 15 1.44772 15 2H8ZM4 9H19V17C19 18.6569 17.6569 20 16 20H7C5.34315 20 4 18.6569 4 17V9Z" fill="black"/>
</svg>
