<svg width="24" height="24" viewBox="0 0 24 24" fill="none" xmlns="http://www.w3.org/2000/svg">
<path d="M8 2C8.55228 2 9 2.44772 9 3H14C14 2.44772 14.4477 2 15 2C15.5523 2 16 2.44772 16 3C18.2091 3 20 4.79086 20 7V17C20 19.2091 18.2091 21 16 21H7C4.79086 21 3 19.2091 3 17V7C3 4.79086 4.79086 3 7 3C7 2.44772 7.44772 2 8 2ZM7 12C7 12.5523 7.44772 13 8 13V16C8 16.5523 8.44772 17 9 17C9.55228 17 10 16.5523 10 16V12C10 11.4477 9.55228 11 9 11H8C7.44772 11 7 11.4477 7 12ZM12 11C11.4477 11 11 11.4477 11 12C11 12.5523 11.4477 13 12 13H13.2192L12.5299 15.7575C12.3959 16.2933 12.7217 16.8362 13.2575 16.9701C13.7933 17.1041 14.3362 16.7783 14.4701 16.2425L15.4701 12.2425C15.5448 11.9438 15.4777 11.6273 15.2882 11.3846C15.0987 11.1419 14.8079 11 14.5 11H12ZM6 5C5.44772 5 5 5.44772 5 6C5 6.55228 5.44772 7 6 7H17C17.5523 7 18 6.55228 18 6C18 5.44772 17.5523 5 17 5H6Z" fill="black"/>
</svg>
