<svg width="24" height="24" viewBox="0 0 24 24" fill="none" xmlns="http://www.w3.org/2000/svg">
<path d="M7 2V5" stroke="black" stroke-width="2" stroke-linecap="round" stroke-linejoin="round"/>
<path d="M17 2V5" stroke="black" stroke-width="2" stroke-linecap="round" stroke-linejoin="round"/>
<path fill-rule="evenodd" clip-rule="evenodd" d="M8 11C7.44772 11 7 11.4477 7 12C7 12.5523 7.44772 13 8 13V16C8 16.5523 8.44772 17 9 17C9.55228 17 10 16.5523 10 16V12C10 11.4477 9.55228 11 9 11H8Z" fill="black"/>
<path d="M3 7C3 4.79086 4.79086 3 7 3H16C18.2091 3 20 4.79086 20 7V17C20 19.2091 18.2091 21 16 21H7C4.79086 21 3 19.2091 3 17V7Z" stroke="black" stroke-width="2"/>
<path d="M12 12H14.5L13.5 16" stroke="black" stroke-width="2" stroke-linecap="round" stroke-linejoin="round"/>
<rect x="4" y="4" width="16" height="5" fill="black"/>
</svg>
