<svg width="24" height="24" viewBox="0 0 24 24" fill="none" xmlns="http://www.w3.org/2000/svg">
<path d="M8.5 11C7.94772 11 7.5 11.4477 7.5 12C7.5 12.5523 7.94772 13 8.5 13V16C8.5 16.5523 8.94772 17 9.5 17C10.0523 17 10.5 16.5523 10.5 16V12C10.5 11.4477 10.0523 11 9.5 11H8.5Z" fill="black"/>
<path d="M12 12C12 11.4477 12.4477 11 13 11H15.5C15.8079 11 16.0987 11.1419 16.2882 11.3846C16.4777 11.6273 16.5448 11.9438 16.4701 12.2425L15.4701 16.2425C15.3362 16.7783 14.7933 17.1041 14.2575 16.9701C13.7217 16.8362 13.3959 16.2933 13.5299 15.7575L14.2192 13H13C12.4477 13 12 12.5523 12 12Z" fill="black"/>
<path d="M8 2C8 1.44772 7.55228 1 7 1C6.44772 1 6 1.44772 6 2V2.10002C3.71776 2.56329 2 4.58104 2 7V17C2 19.7614 4.23858 22 7 22H17C19.7614 22 22 19.7614 22 17V7C22 4.58104 20.2822 2.56329 18 2.10002V2C18 1.44772 17.5523 1 17 1C16.4477 1 16 1.44772 16 2H8ZM4 9H20V17C20 18.6569 18.6569 20 17 20H7C5.34315 20 4 18.6569 4 17V9Z" fill="black"/>
</svg>
