<svg width="24" height="24" viewBox="0 0 24 24" fill="none" xmlns="http://www.w3.org/2000/svg">
<path fill-rule="evenodd" clip-rule="evenodd" d="M11 10.5C10.4477 10.5 10 10.9477 10 11.5C10 12.0523 10.4477 12.5 11 12.5V15.5C11 16.0523 11.4477 16.5 12 16.5C12.5523 16.5 13 16.0523 13 15.5V11.5C13 10.9477 12.5523 10.5 12 10.5H11Z" fill="black"/>
<path fill-rule="evenodd" clip-rule="evenodd" d="M8 3C8.55228 3 9 3.44772 9 4H15C15 3.44772 15.4477 3 16 3C16.5523 3 17 3.44772 17 4C18.6569 4 20 5.34315 20 7V17C20 18.6569 18.6569 20 17 20H7C5.34315 20 4 18.6569 4 17V7C4 5.34315 5.34315 4 7 4C7 3.44772 7.44772 3 8 3ZM18 9H6V17C6 17.5523 6.44772 18 7 18H17C17.5523 18 18 17.5523 18 17V9Z" fill="black"/>
</svg>
