<svg width="24" height="24" viewBox="0 0 24 24" fill="none" xmlns="http://www.w3.org/2000/svg">
<path d="M10 10H8V12H10V10Z" fill="black"/>
<path d="M11 10H13V12H11V10Z" fill="black"/>
<path d="M16 10H14V12H16V10Z" fill="black"/>
<path d="M19 10V12H17V10H19Z" fill="black"/>
<path d="M19 15V13H17V15H19Z" fill="black"/>
<path d="M5 13H7V15H5V13Z" fill="black"/>
<path d="M8 13H10V15H8V13Z" fill="black"/>
<path d="M10 16H8V18H10V16Z" fill="black"/>
<path d="M11 13H13V15H11V13Z" fill="black"/>
<path d="M13 16H11V18H13V16Z" fill="black"/>
<path d="M14 13H16V15H14V13Z" fill="black"/>
<path d="M16 16H14V18H16V16Z" fill="black"/>
<path d="M7 16H5V18H7V16Z" fill="black"/>
<path d="M7 1C7.55228 1 8 1.44772 8 2H16C16 1.44772 16.4477 1 17 1C17.5523 1 18 1.44772 18 2V2.10002C20.2822 2.56329 22 4.58104 22 7V17C22 19.7614 19.7614 22 17 22H7C4.23858 22 2 19.7614 2 17V7C2 4.58104 3.71776 2.56329 6 2.10002V2C6 1.44772 6.44772 1 7 1ZM4 17C4 18.6569 5.34315 20 7 20H17C18.6569 20 20 18.6569 20 17V9H4V17Z" fill="black"/>
</svg>
