<svg width="24" height="24" viewBox="0 0 24 24" fill="none" xmlns="http://www.w3.org/2000/svg">
<path fill-rule="evenodd" clip-rule="evenodd" d="M9.56155 5C9.10268 5 8.7027 5.3123 8.59141 5.75746L8.47014 6.24254C8.35885 6.6877 7.95887 7 7.5 7H4C3.44772 7 3 7.44771 3 8V18C3 18.5523 3.44772 19 4 19H20C20.5523 19 21 18.5523 21 18V8C21 7.44772 20.5523 7 20 7H16.5C16.0411 7 15.6411 6.6877 15.5299 6.24253L15.4086 5.75746C15.2973 5.3123 14.8973 5 14.4384 5H9.56155ZM6.73302 5C7.15258 3.81124 8.28059 3 9.56155 3H14.4384C15.7194 3 16.8474 3.81124 17.267 5H20C21.6569 5 23 6.34315 23 8V18C23 19.6569 21.6569 21 20 21H4C2.34315 21 1 19.6569 1 18V8C1 6.34315 2.34315 5 4 5H6.73302ZM20 9C20 9.55228 19.5523 10 19 10C18.4477 10 18 9.55228 18 9C18 8.44772 18.4477 8 19 8C19.5523 8 20 8.44772 20 9ZM9 13C9 14.6569 10.3431 16 12 16C13.6569 16 15 14.6569 15 13C15 11.3431 13.6569 10 12 10C10.3431 10 9 11.3431 9 13ZM17 13C17 15.7614 14.7614 18 12 18C9.23858 18 7 15.7614 7 13C7 10.2386 9.23858 8 12 8C14.7614 8 17 10.2386 17 13Z" fill="black"/>
</svg>
