<svg width="24" height="24" viewBox="0 0 24 24" fill="none" xmlns="http://www.w3.org/2000/svg">
<path fill-rule="evenodd" clip-rule="evenodd" d="M9.56155 3.5C8.64382 3.5 7.84385 4.12459 7.62127 5.01493L7.375 6H5C3.34315 6 2 7.34315 2 9V17C2 18.6569 3.34315 20 5 20H19C20.6569 20 22 18.6569 22 17V9C22 7.34315 20.6569 6 19 6H16.625L16.3787 5.01493C16.1561 4.12459 15.3562 3.5 14.4384 3.5H9.56155ZM20 9C20 9.55228 19.5523 10 19 10C18.4477 10 18 9.55228 18 9C18 8.44772 18.4477 8 19 8C19.5523 8 20 8.44772 20 9ZM9 13C9 14.6569 10.3431 16 12 16C13.6569 16 15 14.6569 15 13C15 11.3431 13.6569 10 12 10C10.3431 10 9 11.3431 9 13ZM17 13C17 15.7614 14.7614 18 12 18C9.23858 18 7 15.7614 7 13C7 10.2386 9.23858 8 12 8C14.7614 8 17 10.2386 17 13Z" fill="black"/>
</svg>
