<svg width="24" height="24" viewBox="0 0 24 24" fill="none" xmlns="http://www.w3.org/2000/svg">
<path fill-rule="evenodd" clip-rule="evenodd" d="M19.0712 4.92896C15.166 1.02372 8.83435 1.02372 4.92911 4.92896L4.09095 5.76712L4.09095 5.00008C4.09095 4.44779 3.64323 4.00008 3.09095 4.00008C2.53867 4.00008 2.09095 4.44779 2.09095 5.00008L2.09095 6.06074L2.09095 8.18206C2.09095 8.44727 2.19631 8.70163 2.38384 8.88916C2.57138 9.0767 2.82573 9.18206 3.09095 9.18206L5.21227 9.18206L6.27293 9.18206C6.82522 9.18206 7.27293 8.73434 7.27293 8.18206C7.27293 7.62977 6.82521 7.18206 6.27293 7.18206L5.50444 7.18206L6.34332 6.34318C9.46752 3.21898 14.5328 3.21898 17.657 6.34318C20.7812 9.46737 20.7812 14.5327 17.657 17.6569C14.5328 20.7811 9.46751 20.7811 6.34332 17.6569C5.9528 17.2664 5.31963 17.2664 4.92911 17.6569C4.53858 18.0474 4.53858 18.6806 4.92911 19.0711C8.83435 22.9763 15.166 22.9763 19.0712 19.0711C22.9765 15.1659 22.9765 8.8342 19.0712 4.92896Z" fill="black"/>
<path fill-rule="evenodd" clip-rule="evenodd" d="M15.682 15.682C16.0725 16.0725 16.0765 16.7147 15.6218 17.0282C15.0078 17.4515 14.3112 17.7475 13.573 17.8943C12.5061 18.1065 11.4002 17.9976 10.3952 17.5813C9.39025 17.1651 8.53127 16.4601 7.92692 15.5556C7.6059 15.0752 7.36439 14.5499 7.2085 14H6.5C6.22386 14 6 13.7761 6 13.5C6 13.2239 6.22386 13 6.5 13H7.02277C7.00764 12.8342 7 12.6674 7 12.5C7 12.3326 7.00764 12.1658 7.02277 12H6.5C6.22386 12 6 11.7761 6 11.5C6 11.2239 6.22386 11 6.5 11H7.2085C7.36439 10.4501 7.6059 9.9248 7.92692 9.44437C8.53126 8.5399 9.39025 7.83495 10.3952 7.41867C11.4002 7.00238 12.5061 6.89346 13.573 7.10568C14.3112 7.25252 15.0078 7.54854 15.6218 7.97179C16.0765 8.28526 16.0725 8.9275 15.682 9.31802L15.652 9.348C15.2615 9.73853 14.6317 9.72228 14.146 9.45936C13.8432 9.29542 13.516 9.17675 13.1745 9.10884C12.5038 8.97543 11.8086 9.0439 11.1768 9.3056C10.545 9.56729 10.005 10.0105 9.62511 10.5791C9.53487 10.7141 9.45462 10.8548 9.38471 11H11.5C11.7761 11 12 11.2239 12 11.5C12 11.7761 11.7761 12 11.5 12H9.07874C9.05464 12.1649 9.0424 12.332 9.0424 12.5C9.0424 12.668 9.05464 12.8351 9.07874 13H11.5C11.7761 13 12 13.2239 12 13.5C12 13.7761 11.7761 14 11.5 14H9.38471C9.45462 14.1452 9.53487 14.2859 9.62511 14.4209C10.005 14.9895 10.545 15.4327 11.1768 15.6944C11.8086 15.9561 12.5038 16.0246 13.1745 15.8912C13.516 15.8233 13.8432 15.7046 14.146 15.5406C14.6317 15.2777 15.2615 15.2615 15.652 15.652L15.682 15.682Z" fill="black"/>
</svg>
