<svg width="24" height="24" viewBox="0 0 24 24" fill="none" xmlns="http://www.w3.org/2000/svg">
<path d="M12 2C17.5228 2 22 6.47715 22 12C22 17.5228 17.5228 22 12 22C6.47715 22 2 17.5228 2 12C2 6.47715 6.47715 2 12 2ZM11.5498 6.9502C10.9976 6.95033 10.5498 7.39799 10.5498 7.9502V12.4502C10.5498 12.4567 10.5507 12.4632 10.5508 12.4697C10.5511 12.4828 10.552 12.4958 10.5527 12.5088C10.5539 12.5282 10.5554 12.5473 10.5576 12.5664C10.5587 12.5752 10.5602 12.584 10.5615 12.5928C10.5836 12.7469 10.6397 12.8897 10.7236 13.0127C10.7259 13.016 10.7282 13.0192 10.7305 13.0225C10.8046 13.1284 10.8991 13.2187 11.0078 13.2891C11.0105 13.2908 11.0129 13.2932 11.0156 13.2949L13.4648 14.8457C13.9314 15.1409 14.5493 15.0015 14.8447 14.5352C15.14 14.0684 15.0009 13.4506 14.5342 13.1553L12.5498 11.8994V7.9502C12.5498 7.39791 12.1021 6.9502 11.5498 6.9502Z" fill="black"/>
</svg>
