<svg width="24" height="24" viewBox="0 0 24 24" fill="none" xmlns="http://www.w3.org/2000/svg">
<path d="M12 3C16.9706 3 21 7.02944 21 12C21 16.9706 16.9706 21 12 21C7.02944 21 3 16.9706 3 12C3 7.02944 7.02944 3 12 3ZM11.5498 6.9502C10.9976 6.9503 10.5498 7.39798 10.5498 7.9502V12.4502C10.5498 12.5696 10.5719 12.6839 10.6104 12.79C10.6146 12.8018 10.6184 12.8136 10.623 12.8252C10.629 12.8398 10.636 12.8539 10.6426 12.8682C10.6492 12.8826 10.6558 12.897 10.6631 12.9111C10.6723 12.9288 10.6822 12.9459 10.6924 12.9629C10.6984 12.973 10.7045 12.9832 10.7109 12.9932C10.72 13.0071 10.7295 13.0207 10.7393 13.0342C10.7496 13.0485 10.7604 13.0624 10.7715 13.0762C10.7831 13.0906 10.7952 13.1044 10.8076 13.1182C10.8155 13.1269 10.8229 13.1361 10.8311 13.1445C10.8442 13.1581 10.8582 13.1708 10.8721 13.1836C10.8842 13.1948 10.8964 13.2061 10.9092 13.2168C10.9193 13.2253 10.9299 13.2331 10.9404 13.2412C10.9534 13.2512 10.9659 13.262 10.9795 13.2715L13.9287 15.3213C14.3821 15.6364 15.006 15.5245 15.3213 15.0713C15.6365 14.6178 15.5238 13.9939 15.0703 13.6787L12.5498 11.9268V7.9502C12.5498 7.39791 12.1021 6.9502 11.5498 6.9502Z" fill="black"/>
</svg>
