<svg width="24" height="24" viewBox="0 0 24 24" fill="none" xmlns="http://www.w3.org/2000/svg">
<path d="M12 2C17.5228 2 22 6.47715 22 12C22 17.5228 17.5228 22 12 22C6.47715 22 2 17.5228 2 12C2 6.47715 6.47715 2 12 2ZM11.5498 6.4502C10.7215 6.45033 10.0498 7.12185 10.0498 7.9502V12.4502C10.0498 12.4587 10.0506 12.4671 10.0508 12.4756C10.051 12.4886 10.0522 12.5016 10.0527 12.5146C10.0543 12.5504 10.0556 12.586 10.0596 12.6211C10.062 12.6417 10.0661 12.6621 10.0693 12.6826C10.0962 12.8549 10.1512 13.0175 10.2314 13.165L10.2412 13.1826C10.2494 13.1973 10.2589 13.2112 10.2676 13.2256C10.2828 13.2507 10.2979 13.2757 10.3145 13.2998C10.3239 13.3136 10.3348 13.3264 10.3447 13.3398C10.3627 13.3642 10.38 13.3889 10.3994 13.4121C10.4155 13.4313 10.4331 13.4493 10.4502 13.4678C10.4657 13.4845 10.4808 13.5016 10.4971 13.5176C10.5134 13.5337 10.5306 13.549 10.5479 13.5645C10.5691 13.5836 10.5909 13.6022 10.6133 13.6201C10.6265 13.6307 10.6406 13.6402 10.6543 13.6504C10.679 13.6688 10.7037 13.6872 10.7295 13.7041C10.7359 13.7083 10.7416 13.7137 10.748 13.7178L13.1982 15.2676C13.8982 15.7103 14.8246 15.5015 15.2676 14.8018C15.7101 14.1017 15.5017 13.1753 14.8018 12.7324L13.0498 11.624V7.9502C13.0498 7.12177 12.3782 6.4502 11.5498 6.4502Z" fill="black"/>
</svg>
