<svg width="24" height="24" viewBox="0 0 24 24" fill="none" xmlns="http://www.w3.org/2000/svg">
<path fill-rule="evenodd" clip-rule="evenodd" d="M21 12C21 16.9706 16.9706 21 12 21C7.02944 21 3 16.9706 3 12C3 7.02944 7.02944 3 12 3C16.9706 3 21 7.02944 21 12ZM12.55 11.45V7.95C12.55 7.39772 12.1023 6.95 11.55 6.95C10.9977 6.95 10.55 7.39772 10.55 7.95V12.45C10.55 13.0023 10.9977 13.45 11.55 13.45H15.15C15.7023 13.45 16.15 13.0023 16.15 12.45C16.15 11.8977 15.7023 11.45 15.15 11.45H12.55Z" fill="#1D2129"/>
</svg>
