<svg width="24" height="24" viewBox="0 0 24 24" fill="none" xmlns="http://www.w3.org/2000/svg">
<path d="M18.2931 4.29314C18.6836 3.90261 19.3166 3.90261 19.7072 4.29314C20.0975 4.68368 20.0976 5.31675 19.7072 5.7072L13.4142 12.0002L19.7072 18.2931C20.0975 18.6837 20.0976 19.3167 19.7072 19.7072C19.3167 20.0977 18.6836 20.0975 18.2931 19.7072L12.0001 13.4142L5.70717 19.7072C5.31672 20.0977 4.68365 20.0975 4.29311 19.7072C3.90258 19.3167 3.90258 18.6837 4.29311 18.2931L10.5861 12.0002L4.29311 5.7072C3.90258 5.31668 3.90258 4.68366 4.29311 4.29314C4.68363 3.90261 5.31665 3.90261 5.70717 4.29314L12.0001 10.5861L18.2931 4.29314Z" fill="#1D2129"/>
</svg>
