<svg width="24" height="24" viewBox="0 0 24 24" fill="none" xmlns="http://www.w3.org/2000/svg">
<path d="M17 3C19.2091 3 21 4.79086 21 7V17C21 19.2091 19.2091 21 17 21H7C4.79086 21 3 19.2091 3 17V7C3 4.79086 4.79086 3 7 3H17ZM12 15C11.4477 15 11 15.4477 11 16C11 16.5523 11.4477 17 12 17H15C15.5523 17 16 16.5523 16 16C16 15.4477 15.5523 15 15 15H12ZM7.55469 7.16797C7.09516 6.86162 6.47432 6.98578 6.16797 7.44531C5.86162 7.90484 5.98578 8.52568 6.44531 8.83203L8.19727 10L6.44531 11.168C5.98578 11.4743 5.86162 12.0952 6.16797 12.5547C6.47432 13.0142 7.09516 13.1384 7.55469 12.832L10.5547 10.832C10.8329 10.6466 11 10.3344 11 10C11 9.66565 10.8329 9.35343 10.5547 9.16797L7.55469 7.16797Z" fill="black"/>
</svg>
