<svg width="24" height="24" viewBox="0 0 24 24" fill="none" xmlns="http://www.w3.org/2000/svg">
<path fill-rule="evenodd" clip-rule="evenodd" d="M18 4C17.4477 4 17 4.44771 17 5V11H8.41421L11.2071 8.20711C11.5976 7.81658 11.5976 7.18342 11.2071 6.79289C10.8166 6.40237 10.1834 6.40237 9.79289 6.79289L5.29289 11.2929C4.90237 11.6834 4.90237 12.3166 5.29289 12.7071L9.79289 17.2071C10.1834 17.5976 10.8166 17.5976 11.2071 17.2071C11.5976 16.8166 11.5976 16.1834 11.2071 15.7929L8.41421 13H17V19C17 19.5523 17.4477 20 18 20C18.5523 20 19 19.5523 19 19V13V11V5C19 4.44771 18.5523 4 18 4Z" fill="#000716"/>
</svg>
