<svg width="24" height="24" viewBox="0 0 24 24" fill="none" xmlns="http://www.w3.org/2000/svg">
<path d="M12 7C14.4189 7 16.4361 8.71781 16.8994 11H22C22.5523 11 23 11.4477 23 12C23 12.5523 22.5523 13 22 13H16.8994C16.4361 15.2822 14.4189 17 12 17C9.58108 17 7.5639 15.2822 7.10059 13H2C1.44772 13 1 12.5523 1 12C1 11.4477 1.44772 11 2 11H7.10059C7.5639 8.71781 9.58108 7 12 7ZM12 9C10.3431 9 9 10.3431 9 12C9 13.6569 10.3431 15 12 15C13.6569 15 15 13.6569 15 12C15 10.3431 13.6569 9 12 9Z" fill="black"/>
</svg>
