<svg width="24" height="24" viewBox="0 0 24 24" fill="none" xmlns="http://www.w3.org/2000/svg">
<path d="M19 11C20.1046 11 21 11.8954 21 13V21C21 21.5523 20.5523 22 20 22H16V11H19ZM17.5 17C17.2239 17 17 17.2239 17 17.5V19.5C17 19.7761 17.2239 20 17.5 20H18.5C18.7761 20 19 19.7761 19 19.5V17.5C19 17.2239 18.7761 17 18.5 17H17.5ZM17.5 13C17.2239 13 17 13.2239 17 13.5V15.5C17 15.7761 17.2239 16 17.5 16H18.5C18.7761 16 19 15.7761 19 15.5V13.5C19 13.2239 18.7761 13 18.5 13H17.5Z" fill="black"/>
<path d="M13 5C14.1046 5 15 5.89543 15 7V21C15 21.5523 14.5523 22 14 22H10V19.5C10 19.2239 9.77614 19 9.5 19H8.5C8.22386 19 8 19.2239 8 19.5V22H4C3.44772 22 3 21.5523 3 21V7C3 5.89543 3.89543 5 5 5H13ZM5.5 15C5.22386 15 5 15.2239 5 15.5V17.5C5 17.7761 5.22386 18 5.5 18H6.5C6.77614 18 7 17.7761 7 17.5V15.5C7 15.2239 6.77614 15 6.5 15H5.5ZM8.5 15C8.22386 15 8 15.2239 8 15.5V17.5C8 17.7761 8.22386 18 8.5 18H9.5C9.77614 18 10 17.7761 10 17.5V15.5C10 15.2239 9.77614 15 9.5 15H8.5ZM11.5 15C11.2239 15 11 15.2239 11 15.5V17.5C11 17.7761 11.2239 18 11.5 18H12.5C12.7761 18 13 17.7761 13 17.5V15.5C13 15.2239 12.7761 15 12.5 15H11.5ZM5.5 11C5.22386 11 5 11.2239 5 11.5V13.5C5 13.7761 5.22386 14 5.5 14H6.5C6.77614 14 7 13.7761 7 13.5V11.5C7 11.2239 6.77614 11 6.5 11H5.5ZM8.5 11C8.22386 11 8 11.2239 8 11.5V13.5C8 13.7761 8.22386 14 8.5 14H9.5C9.77614 14 10 13.7761 10 13.5V11.5C10 11.2239 9.77614 11 9.5 11H8.5ZM11.5 11C11.2239 11 11 11.2239 11 11.5V13.5C11 13.7761 11.2239 14 11.5 14H12.5C12.7761 14 13 13.7761 13 13.5V11.5C13 11.2239 12.7761 11 12.5 11H11.5ZM5.5 7C5.22386 7 5 7.22386 5 7.5V9.5C5 9.77614 5.22386 10 5.5 10H6.5C6.77614 10 7 9.77614 7 9.5V7.5C7 7.22386 6.77614 7 6.5 7H5.5ZM8.5 7C8.22386 7 8 7.22386 8 7.5V9.5C8 9.77614 8.22386 10 8.5 10H9.5C9.77614 10 10 9.77614 10 9.5V7.5C10 7.22386 9.77614 7 9.5 7H8.5ZM11.5 7C11.2239 7 11 7.22386 11 7.5V9.5C11 9.77614 11.2239 10 11.5 10H12.5C12.7761 10 13 9.77614 13 9.5V7.5C13 7.22386 12.7761 7 12.5 7H11.5Z" fill="black"/>
<rect x="5" y="3" width="8" height="3" rx="1" fill="black"/>
</svg>
