<svg width="24" height="24" viewBox="0 0 24 24" fill="none" xmlns="http://www.w3.org/2000/svg">
<path fill-rule="evenodd" clip-rule="evenodd" d="M6 4.5C6 4.22386 6.22386 4 6.5 4H14.5C14.7761 4 15 4.22386 15 4.5H17C17 3.11929 15.8807 2 14.5 2H6.5C5.11929 2 4 3.11929 4 4.5V16.5C4 17.8807 5.11929 19 6.5 19V17C6.22386 17 6 16.7761 6 16.5V4.5ZM10.5 8C10.2239 8 10 8.22386 10 8.5V20.5C10 20.7761 10.2239 21 10.5 21H18.5C18.7761 21 19 20.7761 19 20.5V13.5C19 12.9477 18.5523 12.5 18 12.5H16H14.7534L15.0238 11.2831L15.483 9.21693C15.6217 8.59242 15.1465 8 14.5068 8H10.5ZM8 8.5C8 7.11929 9.11929 6 10.5 6H14H14.5068L14.5183 6.00002L15.5 6.00002C18.433 6.00002 21 8.56703 21 11.5L21 14V20.5C21 21.8807 19.8807 23 18.5 23H10.5C9.11929 23 8 21.8807 8 20.5V8.5Z" fill="#000716"/>
</svg>
