<svg width="24" height="24" viewBox="0 0 24 24" fill="none" xmlns="http://www.w3.org/2000/svg">
<path d="M4.88196 9.32335C4.64996 8.58066 5.56283 8.01959 6.12069 8.56201L8.16693 10.5516C8.62538 10.9974 9.37865 10.9043 9.71476 10.3603L11.2493 7.8768C11.6401 7.24432 12.5599 7.24432 12.9507 7.8768L14.4852 10.3603C14.8214 10.9043 15.5746 10.9974 16.0331 10.5516L18.0793 8.56201C18.6372 8.01959 19.55 8.58066 19.318 9.32336L17.0931 16.4458C16.9861 16.7885 16.7044 17.047 16.3509 17.1094C15.518 17.2566 13.8723 17.5 12.1 17.5C10.3277 17.5 8.68203 17.2566 7.84911 17.1094C7.49555 17.047 7.21392 16.7885 7.10687 16.4458L4.88196 9.32335Z" fill="#1D2129"/>
</svg>
