<svg width="24" height="24" viewBox="0 0 24 24" fill="none" xmlns="http://www.w3.org/2000/svg">
<path d="M2.3238 7.34919C2.21449 6.89373 2.73528 6.55146 3.11 6.8325L7.63195 10.224C7.83998 10.38 8.13289 10.3505 8.30565 10.1561L11.6263 6.42042C11.8252 6.19666 12.1748 6.19666 12.3737 6.42042L15.6943 10.1561C15.8671 10.3505 16.16 10.38 16.3681 10.224L20.89 6.8325C21.2647 6.55146 21.7855 6.89373 21.6762 7.34918L19.2544 17.44C19.1176 18.01 18.5205 18.3491 17.9509 18.2103C16.7388 17.915 14.5769 17.5 12 17.5C9.42308 17.5 7.26119 17.915 6.04909 18.2103C5.47949 18.3491 4.88241 18.01 4.74559 17.44L2.3238 7.34919Z" fill="#1D2129"/>
</svg>
