<svg width="24" height="24" viewBox="0 0 24 24" fill="none" xmlns="http://www.w3.org/2000/svg">
<path d="M16.5 11.5C19.2614 11.5 21.5 13.7386 21.5 16.5C21.5 19.2614 19.2614 21.5 16.5 21.5C13.7386 21.5 11.5 19.2614 11.5 16.5C11.5 13.7386 13.7386 11.5 16.5 11.5ZM16.5 13.75C16.0858 13.75 15.75 14.0858 15.75 14.5V16.5C15.75 16.6989 15.8291 16.8896 15.9697 17.0303L17.4697 18.5303C17.7626 18.8232 18.2374 18.8232 18.5303 18.5303C18.8232 18.2374 18.8232 17.7626 18.5303 17.4697L17.25 16.1895V14.5C17.25 14.0858 16.9142 13.75 16.5 13.75Z" fill="black"/>
<path d="M17 2C17.5523 2 18 2.44772 18 3V3.12598C19.7252 3.57002 21 5.13616 21 7V10C21 10.5523 20.5523 11 20 11C19.4477 11 19 10.5523 19 10V9H5V17C5 18.1046 5.89543 19 7 19H10C10.5523 19 11 19.4477 11 20C11 20.5523 10.5523 21 10 21H7C4.79086 21 3 19.2091 3 17V7C3 5.13616 4.27477 3.57002 6 3.12598V3C6 2.44772 6.44772 2 7 2C7.55228 2 8 2.44772 8 3H16C16 2.44772 16.4477 2 17 2Z" fill="black"/>
</svg>
