<svg width="24" height="24" viewBox="0 0 24 24" fill="none" xmlns="http://www.w3.org/2000/svg">
<path d="M17 2C17.5523 2 18 2.44772 18 3V3.12598C19.7252 3.57002 21 5.13616 21 7V17C21 19.2091 19.2091 21 17 21H7C4.79086 21 3 19.2091 3 17V7C3 5.13616 4.27477 3.57002 6 3.12598V3C6 2.44772 6.44772 2 7 2C7.55228 2 8 2.44772 8 3H16C16 2.44772 16.4477 2 17 2ZM5 17C5 18.1046 5.89543 19 7 19H17C18.1046 19 19 18.1046 19 17V9H5V17ZM14 15C14.5523 15 15 15.4477 15 16C15 16.5523 14.5523 17 14 17H8C7.44772 17 7 16.5523 7 16C7 15.4477 7.44772 15 8 15H14ZM16 11C16.5523 11 17 11.4477 17 12C17 12.5523 16.5523 13 16 13H12C11.4477 13 11 12.5523 11 12C11 11.4477 11.4477 11 12 11H16Z" fill="black"/>
</svg>
