<svg width="24" height="24" viewBox="0 0 24 24" fill="none" xmlns="http://www.w3.org/2000/svg">
<path d="M12 1.5C17.799 1.5 22.5 6.20101 22.5 12C22.5 17.799 17.799 22.5 12 22.5C6.20101 22.5 1.5 17.799 1.5 12C1.5 6.20101 6.20101 1.5 12 1.5ZM5.74316 7.86426C4.95787 9.04991 4.5 10.4714 4.5 12C4.5 16.1421 7.85786 19.5 12 19.5C13.5285 19.5 14.9492 19.0411 16.1348 18.2559L5.74316 7.86426ZM12 4.5C10.4714 4.5 9.04991 4.95787 7.86426 5.74316L18.2559 16.1348C19.0411 14.9492 19.5 13.5285 19.5 12C19.5 7.85786 16.1421 4.5 12 4.5Z" fill="black"/>
</svg>
