<svg width="24" height="24" viewBox="0 0 24 24" fill="none" xmlns="http://www.w3.org/2000/svg">
<path fill-rule="evenodd" clip-rule="evenodd" d="M12 4C12 5.10457 11.1046 6 10 6C8.89543 6 8 5.10457 8 4C8 2.89543 8.89543 2 10 2C11.1046 2 12 2.89543 12 4ZM10.2719 6.51744C11.0907 6.39147 11.8566 6.95312 11.9826 7.77191L12.4023 10.5H15.5C16.0523 10.5 16.5 10.9477 16.5 11.5C16.5 12.0523 16.0523 12.5 15.5 12.5H12.71L12.9407 14H17C17.4205 14 17.7961 14.2631 17.9398 14.6583L19.6072 19.2435L20.1838 19.0513C20.7077 18.8767 21.274 19.1598 21.4487 19.6838C21.6233 20.2077 21.3402 20.774 20.8162 20.9487L19.3162 21.4487C18.8023 21.62 18.2453 21.3509 18.0602 20.8417L16.2996 16H11.5233C10.7852 16.0124 10.1328 15.4781 10.0174 14.7281L9.01744 8.22809C8.89147 7.40929 9.45312 6.64341 10.2719 6.51744ZM8.11795 11.9136L7.7814 9.78216C5.53489 10.9474 4 13.2944 4 16C4 19.8659 7.13401 23 11 23C13.2353 23 15.2259 21.9522 16.5075 20.321L15.6352 17.8784C14.8926 19.709 13.097 21 11 21C8.23858 21 6 18.7614 6 16C6 14.3118 6.83666 12.819 8.11795 11.9136Z" fill="black"/>
</svg>
