<svg width="24" height="24" viewBox="0 0 24 24" fill="none" xmlns="http://www.w3.org/2000/svg">
<path d="M20 12C20 16.4183 16.4183 20 12 20C7.58172 20 4 16.4183 4 12C4 7.58172 7.58172 4 12 4C16.4183 4 20 7.58172 20 12ZM15.4765 16.8907L7.10925 8.52347C6.41079 9.50428 6 10.7042 6 12C6 15.3137 8.68629 18 12 18C13.2958 18 14.4957 17.5892 15.4765 16.8907ZM16.8907 15.4765C17.5892 14.4957 18 13.2958 18 12C18 8.68629 15.3137 6 12 6C10.7042 6 9.50428 6.41079 8.52347 7.10925L16.8907 15.4765Z" fill="black"/>
</svg>
