<svg width="24" height="24" viewBox="0 0 24 24" fill="none" xmlns="http://www.w3.org/2000/svg">
<path d="M19.3691 3.22461C19.7619 2.90426 20.3409 2.92685 20.707 3.29297C21.0731 3.65908 21.0957 4.23809 20.7754 4.63086L20.707 4.70703L19.0293 6.38379C20.2614 7.92335 21 9.87472 21 12C21 15.7278 18.734 18.9266 15.5039 20.293C14.4272 20.7484 13.2426 21 12 21C11.8448 21 11.6904 20.9961 11.5371 20.9883C10.2387 20.9225 9.01302 20.5814 7.91699 20.0225C7.68457 19.9039 7.45751 19.7753 7.2373 19.6377C6.94014 19.452 6.65594 19.2478 6.38379 19.0293L4.70703 20.707C4.31651 21.0976 3.68349 21.0976 3.29297 20.707C2.90244 20.3165 2.90244 19.6835 3.29297 19.293L19.293 3.29297L19.3691 3.22461ZM9.32227 16.0908C9.77723 16.3648 10.1062 16.8251 10.2051 17.3691L10.2568 17.6504C10.3478 18.1508 10.5983 18.5932 10.9541 18.9229C11.2952 18.974 11.6446 19 12 19C13.0574 19 14.0603 18.7655 14.959 18.3457C14.9775 18.3084 14.9952 18.27 15.0117 18.2314C15.1319 17.9509 15.1943 17.6489 15.1943 17.3438V15.6621C15.1943 15.5438 15.1845 15.4253 15.165 15.3086L15.0654 14.7119C14.9695 14.1352 15.2612 13.5632 15.7842 13.3018L15.9131 13.2373C16.013 13.1873 16.0999 13.1147 16.167 13.0254C16.5041 12.576 17.2033 12.668 17.4121 13.1895L17.6689 13.833C17.8208 14.2126 18.1581 14.4613 18.5332 14.5186C18.8346 13.7371 19 12.8878 19 12C19 10.4274 18.4801 8.9771 17.6045 7.80859L9.32227 16.0908ZM12 3C13.4215 3 14.7656 3.33107 15.9609 3.91797L14.4404 5.4375C13.6806 5.15485 12.8583 5 12 5C11.1768 5.00003 10.3869 5.14231 9.65332 5.40332C9.74335 5.56695 9.88812 5.69659 10.0654 5.76758L11.3086 6.26465C11.6404 6.39737 11.5739 6.88631 11.2188 6.92578L10.4473 7.01074C10.132 7.04578 9.82772 7.1493 9.55566 7.3125L8.89648 7.70801C8.66 7.84986 8.36678 7.86064 8.12012 7.7373C7.70521 7.53009 7.20152 7.71449 7.01855 8.14062L6.86719 8.49414C6.6456 9.01168 6.82458 9.6134 7.29297 9.92578L7.60645 10.1348C7.96689 10.375 8.44654 10.3276 8.75293 10.0215C8.96781 9.80661 9.27623 9.71291 9.57422 9.77246L10.0176 9.86035L3.91699 15.9609C3.66725 15.4523 3.46348 14.9165 3.3125 14.3594C3.19851 13.9386 3.11459 13.5053 3.0625 13.0625C3.02155 12.7142 3 12.3593 3 12C3.00001 9.94846 3.68706 8.05672 4.84277 6.54297C6.48714 4.38951 9.08133 3.00008 12 3Z" fill="#1D2129"/>
</svg>
