<svg width="24" height="24" viewBox="0 0 24 24" fill="none" xmlns="http://www.w3.org/2000/svg">
<path fill-rule="evenodd" clip-rule="evenodd" d="M15.5032 20.2927C18.7334 18.9265 21 15.7279 21 12C21 7.02944 16.9706 3 12 3C12 3 12 3 12 3C9.08101 3 6.48656 4.38962 4.84216 6.54341C3.68644 8.05717 3 9.94845 3 12C3 12.3594 3.02106 12.7138 3.06202 13.0621C3.06201 13.0622 3.06202 13.062 3.06202 13.0621C3.11412 13.5052 3.1984 13.9387 3.31246 14.3596C3.3125 14.3597 3.31243 14.3595 3.31246 14.3596C3.91272 16.5747 5.33764 18.4509 7.23719 19.6379C7.23719 19.6379 7.23719 19.6379 7.23719 19.6379C7.4574 19.7755 7.68399 19.9039 7.91641 20.0224C9.01251 20.5814 10.2384 20.9225 11.5369 20.9883C11.6902 20.9961 11.8446 21 12 21C12 21 12 21 12 21C13.2426 21 14.4265 20.7482 15.5032 20.2927ZM14.9588 18.3458C14.0601 18.7655 13.0574 19 12 19C11.6445 19 11.2953 18.9735 10.954 18.9224C10.5982 18.5928 10.3473 18.151 10.2564 17.6506L10.2051 17.3688C10.0628 16.5863 9.44479 15.9772 8.66027 15.8465L8.34056 15.7932C7.36578 15.6307 6.76676 14.6358 7.07926 13.6983C7.25129 13.1822 7.67259 12.788 8.199 12.6507L13.6231 11.2357C13.8912 11.1658 14.1358 11.0257 14.3317 10.8297L14.6308 10.5306C15.2068 9.95463 15.0774 8.98871 14.3702 8.58461C13.9823 8.36294 13.505 8.36802 13.1219 8.59789L12.5971 8.91271C12.3986 9.03183 12.2463 9.21468 12.165 9.43146L11.9094 10.113C11.7116 10.6406 10.9917 10.7062 10.7018 10.223C10.6042 10.0604 10.4426 9.94643 10.2566 9.90923L9.57406 9.77273C9.27602 9.71312 8.96791 9.80641 8.75299 10.0213C8.44659 10.3277 7.96651 10.3753 7.60596 10.1349L7.29276 9.9261C6.82412 9.61367 6.64507 9.01138 6.86694 8.49368L7.01805 8.14109C7.20089 7.71448 7.70513 7.52977 8.12028 7.73734C8.36697 7.86068 8.65957 7.84945 8.89608 7.70755L9.55502 7.31218C9.82711 7.14892 10.1312 7.04627 10.4466 7.01123L11.2188 6.92543C11.5739 6.88597 11.6402 6.39782 11.3084 6.2651L10.0653 5.76787C9.88785 5.69688 9.7431 5.56692 9.65303 5.40315C10.3867 5.14211 11.1768 5 12 5C15.866 5 19 8.13401 19 12C19 12.8878 18.8347 13.7369 18.5333 14.5184C18.158 14.4612 17.8209 14.2129 17.669 13.8332L17.4117 13.1898C17.203 12.6681 16.5039 12.5757 16.1668 13.0252C16.0997 13.1146 16.0127 13.1872 15.9127 13.2372L15.7835 13.3018C15.2604 13.5634 14.9691 14.1355 15.0652 14.7123L15.1645 15.3082C15.184 15.4251 15.1938 15.5433 15.1938 15.6617V17.3434C15.1938 17.6488 15.1317 17.9511 15.0114 18.2319C14.9948 18.2705 14.9773 18.3085 14.9588 18.3458Z" fill="black"/>
</svg>
