<svg width="24" height="24" viewBox="0 0 24 24" fill="none" xmlns="http://www.w3.org/2000/svg">
<path d="M12 3.5C9.70028 3.5 7.08941 3.66211 5.26506 3.80163C3.41592 3.94305 1.91441 5.36894 1.74047 7.24187C1.61862 8.55397 1.5 10.2727 1.5 12C1.5 13.7535 1.62225 15.4983 1.74606 16.8179C1.91812 18.6519 3.37015 20.071 5.19843 20.2194C6.86082 20.3543 9.28349 20.5 12 20.5C13.2662 20.5 14.4686 20.4684 15.5599 20.4209C14.8935 19.9574 14.4597 19.2406 14.3297 18.4647C13.588 18.4868 12.8071 18.5 12 18.5C9.35159 18.5 6.98498 18.3578 5.36024 18.226C5.07148 18.2025 4.80426 18.1134 4.57321 17.9734C4.59805 17.9559 4.62233 17.9372 4.64594 17.9173L9.62016 13.7083C9.95924 13.9301 10.2615 14.1215 10.5192 14.2812C11.4292 14.8454 12.5708 14.8454 13.4808 14.2812C13.7385 14.1215 14.0408 13.9301 14.3798 13.7083L15.8698 14.9691L17.1197 13.4067L16.0912 12.5365C17.3718 11.6204 18.8761 10.4542 20.3984 9.07501C20.4098 9.25048 20.4205 9.42899 20.4304 9.60992C20.8693 9.36212 21.3696 9.22729 21.8861 9.22729C22.0677 9.22729 22.2441 9.24313 22.4145 9.27331C22.371 8.53589 22.3156 7.84581 22.2595 7.24188C22.0856 5.36894 20.5841 3.94305 18.7349 3.80163C16.9106 3.66211 14.2997 3.5 12 3.5ZM5.41757 5.79581C7.22611 5.65749 9.77708 5.5 12 5.5C14.2229 5.5 16.7739 5.65749 18.5824 5.79581C19.2071 5.84358 19.7347 6.18603 20.0279 6.68229C17.0465 9.57058 13.936 11.6459 12.427 12.5814C12.1625 12.7454 11.8375 12.7454 11.573 12.5814C10.064 11.6459 6.95349 9.57058 3.97213 6.68229C4.26528 6.18603 4.79292 5.84358 5.41757 5.79581ZM3.60161 9.07501C5.12388 10.4542 6.62822 11.6204 7.90875 12.5365L3.69031 16.106C3.58814 14.9063 3.5 13.4498 3.5 12C3.5 10.9993 3.54199 9.99547 3.60161 9.07501Z" fill="#1D2129"/>
<path d="M23.2082 16.8354C23.7202 16.9356 23.9431 17.5434 23.6172 17.9508L18.9843 23.7419C18.8538 23.905 18.6562 24 18.4472 24C17.9495 24 17.6166 23.4877 17.8187 23.0329L19.5494 19.1389L17.1251 18.6646C16.9273 18.6259 16.7726 18.5114 16.6761 18.3619C16.6761 18.3619 16.6761 18.3619 16.6761 18.3619C16.5228 18.1246 16.5162 17.7992 16.7162 17.5492L21.3491 11.7581C21.4796 11.595 21.6772 11.5 21.8861 11.5C22.3838 11.5 22.7168 12.0123 22.5146 12.4671L22.4967 12.5075C22.4967 12.5074 22.4967 12.5075 22.4967 12.5075L20.784 16.3611L23.2082 16.8354Z" fill="#1D2129"/>
</svg>
