<svg width="24" height="24" viewBox="0 0 24 24" fill="none" xmlns="http://www.w3.org/2000/svg">
<path d="M12 3.5C9.70028 3.5 7.08941 3.66211 5.26506 3.80163C3.41592 3.94305 1.91441 5.36894 1.74047 7.24187C1.61862 8.55397 1.5 10.2727 1.5 12C1.5 13.7535 1.62225 15.4983 1.74606 16.8179C1.91812 18.6519 3.37015 20.071 5.19843 20.2194C6.86082 20.3543 9.28349 20.5 12 20.5C14.7165 20.5 17.1392 20.3543 18.8016 20.2194C20.6299 20.071 22.0819 18.6519 22.2539 16.8179C22.3778 15.4983 22.5 13.7535 22.5 12C22.5 10.2727 22.3814 8.55397 22.2595 7.24188C22.0856 5.36894 20.5841 3.94305 18.7349 3.80163C16.9106 3.66211 14.2997 3.5 12 3.5ZM5.41757 5.79581C7.22611 5.65749 9.77708 5.5 12 5.5C14.2229 5.5 16.7739 5.65749 18.5824 5.79581C19.2071 5.84358 19.7347 6.18603 20.0279 6.68229C17.0465 9.57058 13.936 11.6459 12.427 12.5814C12.1625 12.7454 11.8375 12.7454 11.573 12.5814C10.064 11.6459 6.95349 9.57058 3.97213 6.68229C4.26528 6.18603 4.79292 5.84358 5.41757 5.79581ZM3.60161 9.07501C5.12387 10.4542 6.62819 11.6203 7.90871 12.5365L3.69031 16.1059C3.58814 14.9062 3.5 13.4498 3.5 12C3.5 10.9993 3.54199 9.99547 3.60161 9.07501ZM4.57316 17.9733C4.59802 17.9559 4.62231 17.9372 4.64594 17.9172L9.62012 13.7083C9.95921 13.9301 10.2615 14.1215 10.5192 14.2812C11.4292 14.8454 12.5708 14.8454 13.4808 14.2812C13.7385 14.1215 14.0408 13.9301 14.3799 13.7083L19.3541 17.9172C19.3777 17.9372 19.402 17.9559 19.4268 17.9733C19.1958 18.1134 18.9285 18.2025 18.6398 18.226C17.015 18.3578 14.6484 18.5 12 18.5C9.35159 18.5 6.98498 18.3578 5.36024 18.226C5.07146 18.2025 4.80422 18.1134 4.57316 17.9733ZM20.3097 16.1059L16.0913 12.5365C17.3718 11.6203 18.8761 10.4542 20.3984 9.07501C20.458 9.99547 20.5 10.9993 20.5 12C20.5 13.4498 20.4119 14.9062 20.3097 16.1059Z" fill="#000716"/>
</svg>
