<svg width="24" height="24" viewBox="0 0 24 24" fill="none" xmlns="http://www.w3.org/2000/svg">
<path d="M5.26506 3.80163C7.08941 3.66211 9.70028 3.5 12 3.5C14.2997 3.5 16.9106 3.66211 18.7349 3.80163C20.5841 3.94305 22.0856 5.36894 22.2595 7.24188C22.3814 8.55397 22.5 10.2727 22.5 12C22.5 12.5146 22.4895 13.0285 22.4715 13.531C21.8579 13.2533 21.1892 13.0758 20.4864 13.0194C20.4951 12.6815 20.5 12.3406 20.5 12C20.5 10.9993 20.458 9.99547 20.3984 9.07501C18.8761 10.4542 17.3718 11.6204 16.0912 12.5365L17.3603 13.6103C16.7365 13.9165 16.1736 14.3277 15.6947 14.8209L14.3798 13.7083C14.0408 13.9301 13.7385 14.1215 13.4808 14.2812C12.5708 14.8454 11.4292 14.8454 10.5192 14.2812C10.2615 14.1215 9.95924 13.9301 9.62016 13.7083L4.64594 17.9173C4.62233 17.9372 4.59805 17.9559 4.57321 17.9734C4.80426 18.1134 5.07148 18.2025 5.36024 18.226C6.98498 18.3578 9.35159 18.5 12 18.5C12.6966 18.5 13.3736 18.4902 14.0228 18.4733C14.0077 18.6468 14 18.8225 14 19C14 19.5071 14.0629 19.9994 14.1813 20.4698C13.4834 20.4888 12.753 20.5 12 20.5C9.28349 20.5 6.86082 20.3543 5.19843 20.2194C3.37015 20.071 1.91812 18.6519 1.74606 16.8179C1.62225 15.4983 1.5 13.7535 1.5 12C1.5 10.2727 1.61862 8.55397 1.74047 7.24187C1.91441 5.36894 3.41592 3.94305 5.26506 3.80163ZM12 5.5C9.77708 5.5 7.22611 5.65749 5.41757 5.79581C4.79292 5.84358 4.26528 6.18603 3.97213 6.68229C6.95349 9.57058 10.064 11.6459 11.573 12.5814C11.8375 12.7454 12.1625 12.7454 12.427 12.5814C13.936 11.6459 17.0465 9.57058 20.0279 6.68229C19.7347 6.18603 19.2071 5.84358 18.5824 5.79581C16.7739 5.65749 14.2229 5.5 12 5.5ZM3.5 12C3.5 13.4498 3.58814 14.9063 3.69031 16.106L7.90875 12.5365C6.62822 11.6204 5.12388 10.4542 3.60161 9.07501C3.54199 9.99547 3.5 10.9993 3.5 12Z" fill="#1D2129"/>
</svg>
