<svg width="24" height="24" viewBox="0 0 24 24" fill="none" xmlns="http://www.w3.org/2000/svg">
<path fill-rule="evenodd" clip-rule="evenodd" d="M2.30539 6.67973L11.4367 12.9056C11.7765 13.1373 12.2235 13.1373 12.5634 12.9056L21.6946 6.67975C21.2062 5.68485 20.1831 5 19 5H5C3.81691 5 2.79377 5.68484 2.30539 6.67973ZM22 8.89218L17.0526 12.2654L22 15.2338V8.89218ZM13.69 14.5581L15.233 13.506L21.6704 17.3685C21.173 18.3372 20.1639 19 19 19H5C3.83611 19 2.82703 18.3372 2.32959 17.3685L8.76702 13.506L10.31 14.5581C11.3295 15.2532 12.6706 15.2532 13.69 14.5581ZM6.94743 12.2654L2 8.89215V15.2338L6.94743 12.2654Z" fill="#000716"/>
</svg>
