<svg width="24" height="24" viewBox="0 0 24 24" fill="none" xmlns="http://www.w3.org/2000/svg">
<path d="M20 4C21.6569 4 23 5.34315 23 7V17C23 18.6051 21.7394 19.9158 20.1543 19.9961L20 20H4L3.8457 19.9961C2.26055 19.9158 1 18.6051 1 17V7C1 5.34315 2.34315 4 4 4H20ZM14.1211 14.293C12.9496 15.4643 11.0504 15.4643 9.87891 14.293L9.23047 13.6445L4.48047 18H19.5195L14.7686 13.6445L14.1211 14.293ZM3 16.6426L7.81445 12.2285L3 7.41406V16.6426ZM16.1846 12.2285L21 16.6426V7.41406L16.1846 12.2285ZM11.293 12.8789C11.6835 13.2692 12.3165 13.2692 12.707 12.8789L19.5859 6H4.41406L11.293 12.8789Z" fill="#1D2129"/>
</svg>
