<svg width="24" height="24" viewBox="0 0 24 24" fill="none" xmlns="http://www.w3.org/2000/svg">
<path d="M20.0001 3.99963C21.6568 3.99968 22.9999 5.34295 23.0001 6.99963V16.9996C23.0001 18.6565 21.6569 19.9996 20.0001 19.9996H4.00006C2.34321 19.9996 1.00006 18.6565 1.00006 16.9996V6.99963C1.00023 5.34292 2.34331 3.99963 4.00006 3.99963H20.0001ZM20.7071 6.2926C20.3166 5.90226 19.6835 5.90232 19.293 6.2926L12.7071 12.8785C12.3166 13.2689 11.6835 13.2689 11.293 12.8785L4.70709 6.2926C4.31663 5.90226 3.68353 5.90232 3.29303 6.2926C2.90254 6.68309 2.90262 7.31613 3.29303 7.70667L7.81061 12.2242L3.33112 16.2565C2.9207 16.6259 2.88759 17.2581 3.2569 17.6686C3.62636 18.079 4.25851 18.1122 4.66901 17.7428L9.22662 13.6403L9.87897 14.2926C11.0505 15.464 12.9496 15.464 14.1212 14.2926L14.7725 13.6403L19.3311 17.7428C19.7416 18.1122 20.3738 18.079 20.7432 17.6686C21.1124 17.2581 21.0794 16.6259 20.669 16.2565L16.1885 12.2242L20.7071 7.70667C21.0974 7.31612 21.0975 6.68306 20.7071 6.2926Z" fill="#1D2129"/>
</svg>
