<svg width="24" height="24" viewBox="0 0 24 24" fill="none" xmlns="http://www.w3.org/2000/svg">
<path d="M21.5157 19.9293C21.351 19.9732 21.1787 19.9996 21.0001 19.9996H3.00012C2.82122 19.9996 2.64854 19.9734 2.48352 19.9293L9.00012 13.4137L9.87903 14.2926C11.0506 15.464 12.9497 15.464 14.1212 14.2926L14.9991 13.4127L21.5157 19.9293ZM7.58606 11.9996L1.06946 18.5153C1.02564 18.3507 1.00012 18.178 1.00012 17.9996V5.99963C1.00015 5.82081 1.02541 5.64797 1.06946 5.48303L7.58606 11.9996ZM22.9298 5.48303C22.9739 5.64803 23.0001 5.82074 23.0001 5.99963V17.9996C23.0001 18.1781 22.9737 18.3506 22.9298 18.5153L16.4132 11.9987L22.9298 5.48303ZM21.0001 3.99963C21.1786 3.99964 21.3511 4.02511 21.5157 4.06897L12.7072 12.8785C12.3167 13.2689 11.6836 13.2689 11.2931 12.8785L2.48352 4.06897C2.64842 4.02497 2.82136 3.99963 3.00012 3.99963H21.0001Z" fill="#1D2129"/>
</svg>
