<svg width="24" height="24" viewBox="0 0 24 24" fill="none" xmlns="http://www.w3.org/2000/svg">
<path fill-rule="evenodd" clip-rule="evenodd" d="M1.81485 6.7661C1.78053 6.92098 1.75553 7.07975 1.74047 7.24187C1.61862 8.55397 1.5 10.2727 1.5 12C1.5 13.7535 1.62225 15.4983 1.74606 16.8179C1.76766 17.0482 1.80946 17.272 1.86964 17.4875L7.07973 11.5331C5.42961 10.0729 3.52829 8.36576 1.81485 6.7661ZM8.58074 12.8549L2.97224 19.2646C3.57031 19.8025 4.34321 20.15 5.19843 20.2194C6.86082 20.3543 9.28349 20.5 12 20.5C14.7165 20.5 17.1392 20.3543 18.8016 20.2194C19.6568 20.15 20.4297 19.8025 21.0278 19.2646L15.4193 12.8549C14.8625 13.3428 14.3642 13.777 13.9495 14.1371C12.8286 15.1104 11.1714 15.1104 10.0505 14.1371C9.63585 13.777 9.13753 13.3428 8.58074 12.8549ZM22.2539 16.8179C22.2323 17.0482 22.1905 17.272 22.1304 17.4875L16.9203 11.5331C18.5704 10.0729 20.4717 8.36576 22.1852 6.7661C22.2195 6.92098 22.2445 7.07975 22.2595 7.24188C22.3814 8.55397 22.5 10.2727 22.5 12C22.5 13.7535 22.3778 15.4983 22.2539 16.8179ZM21.201 4.94765C20.5651 4.29654 19.6971 3.87521 18.7349 3.80163C16.9106 3.66211 14.2997 3.5 12 3.5C9.70028 3.5 7.08941 3.66211 5.26506 3.80163C4.30292 3.87521 3.4349 4.29654 2.79902 4.94765C5.76413 7.73459 9.44272 10.9605 11.3618 12.6269C11.7305 12.9471 12.2695 12.9471 12.6382 12.6269C14.5573 10.9605 18.2359 7.73459 21.201 4.94765Z" fill="#1D2129"/>
</svg>
