<svg width="23" height="23" viewBox="0 0 23 23" fill="none" xmlns="http://www.w3.org/2000/svg">
<path fill-rule="evenodd" clip-rule="evenodd" d="M6.50001 8C4.28901 10.5795 4.52228 13.9059 5.79871 15.7273C7.2934 12.0786 10.6053 10.0596 13.2965 8.41894L13.2965 8.41894C13.7256 8.1574 14.1388 7.90547 14.5264 7.65809C14.2677 8.13774 13.9247 8.60322 13.4974 9.0915C12.9545 9.71192 12.3315 10.312 11.6097 11.0072L11.6095 11.0074C11.2031 11.3988 10.7653 11.8205 10.2929 12.2929C8.86308 13.7227 8.30512 15.2965 7.85957 16.6968C7.82359 16.8099 7.78843 16.9213 7.75375 17.0313L7.75363 17.0316C7.34926 18.3133 7.01099 19.3855 6.21913 20.3753C5.87412 20.8066 5.94404 21.4359 6.3753 21.7809C6.80657 22.1259 7.43586 22.056 7.78087 21.6247C8.818 20.3283 9.26336 18.9054 9.65107 17.6666L9.65115 17.6664C9.68102 17.5709 9.71055 17.4766 9.73998 17.3835C17.9529 18.0827 20.224 9.75093 17 1C15.1476 3.38168 13.2109 4.15766 11.3237 4.91378C9.6452 5.5863 8.00591 6.2431 6.50001 8Z" fill="black"/>
</svg>
