<svg width="23" height="23" viewBox="0 0 23 23" fill="none" xmlns="http://www.w3.org/2000/svg">
<path fill-rule="evenodd" clip-rule="evenodd" d="M7.70978 6.31074C4.4605 8.53546 4.02908 12.9318 5.37688 14.9457C9.37632 12.508 12.2334 10.5118 15.236 8.0945C14.8767 8.60549 14.394 9.20092 13.8078 9.85883C12.8663 10.9154 11.7121 12.0735 10.5055 13.2112C8.08825 15.4905 5.51114 17.641 4.1061 18.6746C3.66122 19.0019 3.56589 19.6278 3.89316 20.0727C4.22043 20.5176 4.84638 20.6129 5.29125 20.2857C6.25963 19.5733 7.71691 18.3891 9.29476 17.0094C16.4099 18.8302 20.3458 11.6242 19.5343 2.74982C17.1736 3.74582 15.3656 4.00486 13.7222 4.24032C11.7091 4.52876 9.94281 4.78182 7.70978 6.31074Z" fill="black"/>
</svg>
