<svg width="24" height="24" viewBox="0 0 24 24" fill="none" xmlns="http://www.w3.org/2000/svg">
<path d="M17 2C17.5523 2 18 2.44772 18 3V3.12598C19.7252 3.57002 21 5.13616 21 7V17C21 19.2091 19.2091 21 17 21H7C4.79086 21 3 19.2091 3 17V7C3 5.13616 4.27477 3.57002 6 3.12598V3C6 2.44772 6.44772 2 7 2C7.55228 2 8 2.44772 8 3H16C16 2.44772 16.4477 2 17 2ZM5 17C5 18.1046 5.89543 19 7 19H17C18.1046 19 19 18.1046 19 17V9H5V17ZM15 13C16.1046 13 17 13.8954 17 15C17 16.1046 16.1046 17 15 17C13.8954 17 13 16.1046 13 15C13 13.8954 13.8954 13 15 13Z" fill="black"/>
</svg>
