<svg width="24" height="24" viewBox="0 0 24 24" fill="none" xmlns="http://www.w3.org/2000/svg">
<path fill-rule="evenodd" clip-rule="evenodd" d="M6 4.5C6 4.22386 6.22386 4 6.5 4H14.0388C14.3425 4 14.6298 4.13809 14.8196 4.3753L17.7809 8.07687C17.9227 8.25418 18 8.47449 18 8.70156V19.5C18 19.7761 17.7761 20 17.5 20H6.5C6.22386 20 6 19.7761 6 19.5V4.5ZM6.5 2C5.11929 2 4 3.11929 4 4.5V19.5C4 20.8807 5.11929 22 6.5 22H17.5C18.8807 22 20 20.8807 20 19.5V8.70156C20 8.02035 19.7682 7.35942 19.3426 6.82748L16.3814 3.12591C15.812 2.41427 14.9501 2 14.0388 2H6.5ZM8.85982 9.73178C9.28409 9.37821 9.91466 9.43554 10.2682 9.85982L12 11.938L13.7318 9.85982C14.0853 9.43554 14.7159 9.37821 15.1402 9.73178C15.5645 10.0853 15.6218 10.7159 15.2682 11.1402L13.3017 13.5L15.2682 15.8598C15.6218 16.2841 15.5645 16.9147 15.1402 17.2682C14.7159 17.6218 14.0853 17.5645 13.7318 17.1402L12 15.062L10.2682 17.1402C9.91466 17.5645 9.28409 17.6218 8.85982 17.2682C8.43554 16.9147 8.37821 16.2841 8.73178 15.8598L10.6983 13.5L8.73178 11.1402C8.37821 10.7159 8.43554 10.0853 8.85982 9.73178Z" fill="#196100"/>
</svg>
