<svg width="24" height="24" viewBox="0 0 24 24" fill="none" xmlns="http://www.w3.org/2000/svg">
<path fill-rule="evenodd" clip-rule="evenodd" d="M8.0377 8.72619L8.6267 12.2602C8.69785 12.6871 9.06721 13 9.5 13C9.93279 13 10.3021 12.6871 10.3733 12.2602L10.9623 8.72619C11.1129 7.82257 10.4161 7 9.5 7C8.58392 7 7.8871 7.82258 8.0377 8.72619ZM9.5 17C10.3284 17 11 16.3284 11 15.5C11 14.6716 10.3284 14 9.5 14C8.67157 14 8 14.6716 8 15.5C8 16.3284 8.67157 17 9.5 17ZM13.6267 12.2602L13.0377 8.72619C12.8871 7.82258 13.5839 7 14.5 7C15.4161 7 16.1129 7.82257 15.9623 8.72619L15.3733 12.2602C15.3021 12.6871 14.9328 13 14.5 13C14.0672 13 13.6979 12.6871 13.6267 12.2602ZM14.5 17C15.3284 17 16 16.3284 16 15.5C16 14.6716 15.3284 14 14.5 14C13.6716 14 13 14.6716 13 15.5C13 16.3284 13.6716 17 14.5 17Z" fill="#000716"/>
</svg>
