<svg width="24" height="24" viewBox="0 0 24 24" fill="none" xmlns="http://www.w3.org/2000/svg">
<path fill-rule="evenodd" clip-rule="evenodd" d="M15 4C14.4477 4 14 4.44772 14 5C14 5.55228 14.4477 6 15 6H16.5858L11.2929 11.2929C10.9024 11.6834 10.9024 12.3166 11.2929 12.7071C11.6834 13.0976 12.3166 13.0976 12.7071 12.7071L18 7.41421V9C18 9.55228 18.4477 10 19 10C19.5523 10 20 9.55228 20 9V5C20 4.44772 19.5523 4 19 4H15ZM8 19C6.34315 19 5 17.6569 5 16V8C5 6.34315 6.34315 5 8 5H11C11.5523 5 12 5.44771 12 6C12 6.55229 11.5523 7 11 7H8C7.44772 7 7 7.44772 7 8V16C7 16.5523 7.44772 17 8 17H16C16.5523 17 17 16.5523 17 16V13C17 12.4477 17.4477 12 18 12C18.5523 12 19 12.4477 19 13V16C19 17.6569 17.6569 19 16 19H8Z" fill="#000716"/>
</svg>
