<svg width="24" height="24" viewBox="0 0 24 24" fill="none" xmlns="http://www.w3.org/2000/svg">
<path d="M10 4C10.5523 4 11 4.44771 11 5C11 5.55229 10.5523 6 10 6H7C6.44772 6 6 6.44771 6 7V17C6 17.5523 6.44772 18 7 18H17C17.5523 18 18 17.5523 18 17V14C18 13.4477 18.4477 13 19 13C19.5523 13 20 13.4477 20 14V17C20 18.6569 18.6569 20 17 20H7C5.34315 20 4 18.6569 4 17V7C4 5.34315 5.34315 4 7 4H10ZM20 3C20.5523 3 21 3.44772 21 4V8C21 8.55228 20.5523 9 20 9C19.4477 9 19 8.55228 19 8V6.41406L13.707 11.707C13.3165 12.0976 12.6835 12.0976 12.293 11.707C11.9024 11.3165 11.9024 10.6835 12.293 10.293L17.5859 5H16C15.4477 5 15 4.55228 15 4C15 3.44772 15.4477 3 16 3H20Z" fill="#1D2129"/>
</svg>
