<svg width="24" height="24" viewBox="0 0 24 24" fill="none" xmlns="http://www.w3.org/2000/svg">
<path d="M20.7071 4.70711C21.0976 4.31658 21.0976 3.68342 20.7071 3.29289C20.3166 2.90237 19.6834 2.90237 19.2929 3.29289L3.29289 19.2929C2.90237 19.6834 2.90237 20.3166 3.29289 20.7071C3.68342 21.0976 4.31658 21.0976 4.70711 20.7071L7.01724 18.397C8.47475 19.0658 10.1525 19.5 12 19.5C18.5751 19.5 23 14 23 12C23 10.8124 21.4396 8.39047 18.7952 6.61901L20.7071 4.70711ZM16.1716 9.24262C16.6951 10.0331 17 10.9809 17 12C17 14.7615 14.7614 17 12 17C10.9809 17 10.033 16.6951 9.24259 16.1716L10.7066 14.7077C11.0982 14.8951 11.5368 15 12 15C13.6569 15 15 13.6569 15 12C15 11.9121 14.9962 11.825 14.9888 11.7389C14.6972 11.9051 14.3597 12 14 12C13.8208 12 13.6472 11.9765 13.4819 11.9323L16.1716 9.24262Z" fill="#1D2129"/>
<path d="M12 4.50003C13.0555 4.50003 14.0555 4.64175 14.9907 4.88797L12.8129 7.06578C12.5484 7.02252 12.2768 7.00003 12 7.00003C9.23858 7.00003 7 9.23861 7 12C7 12.2768 7.02249 12.5484 7.06575 12.813L3.68435 16.1944C1.97296 14.6453 1 12.9379 1 12C1 10 5.42487 4.50003 12 4.50003Z" fill="#1D2129"/>
<path d="M9.43437 10.4443C9.6849 10.032 10.032 9.68493 10.4443 9.4344L9.43437 10.4443Z" fill="#1D2129"/>
</svg>
