<svg width="24" height="24" viewBox="0 0 24 24" fill="none" xmlns="http://www.w3.org/2000/svg">
<path fill-rule="evenodd" clip-rule="evenodd" d="M14 12C14.3597 12 14.6972 11.9051 14.9888 11.7389C14.9962 11.8249 15 11.912 15 12C15 13.6569 13.6569 15 12 15C10.3431 15 9 13.6569 9 12C9 10.3431 10.3431 9 12 9C12.088 9 12.1751 9.00379 12.2611 9.01121C12.0949 9.30284 12 9.64033 12 10C12 11.1046 12.8954 12 14 12Z" fill="black"/>
<path fill-rule="evenodd" clip-rule="evenodd" d="M23 12C23 10 18.5751 4.5 12 4.5C5.42487 4.5 1 10 1 12C1 14 5.42487 19.5 12 19.5C18.5751 19.5 23 14 23 12ZM17 12C17 14.7614 14.7614 17 12 17C9.23858 17 7 14.7614 7 12C7 9.23858 9.23858 7 12 7C14.7614 7 17 9.23858 17 12Z" fill="black"/>
</svg>
