<svg width="24" height="24" viewBox="0 0 24 24" fill="none" xmlns="http://www.w3.org/2000/svg">
<path fill-rule="evenodd" clip-rule="evenodd" d="M6.30641 4.70149C4.81383 5.09253 3.82297 6.38494 3.52037 7.89793L3.39219 8.53884C3.13327 9.83346 3.13327 11.1665 3.39219 12.4612L3.52037 13.1021C3.82297 14.6151 4.81383 15.9075 6.30641 16.2985C6.3178 16.3015 6.32922 16.3045 6.34069 16.3075L4.99996 21L11.3011 16.9902C11.5295 16.9966 11.7625 17 12 17C14.3921 17 16.3264 16.6567 17.6935 16.2985C19.1861 15.9075 20.1769 14.6151 20.4795 13.1021L20.6077 12.4612C20.8667 11.1665 20.8667 9.83346 20.6077 8.53884L20.4795 7.89793C20.1769 6.38494 19.1861 5.09253 17.6935 4.70149C16.3264 4.34334 14.3921 4 12 4C9.60782 4 7.67347 4.34334 6.30641 4.70149Z" fill="#000716"/>
</svg>
