<svg width="24" height="24" viewBox="0 0 24 24" fill="none" xmlns="http://www.w3.org/2000/svg">
<path d="M3.52037 7.89793L4.50095 8.09405L3.52037 7.89793ZM6.30641 4.70149L6.55985 5.66884L6.30641 4.70149ZM3.39219 8.53884L2.41161 8.34272L3.39219 8.53884ZM3.39219 12.4612L2.41161 12.6573H2.41161L3.39219 12.4612ZM3.52037 13.1021L4.50095 12.906L3.52037 13.1021ZM6.30641 16.2985L6.55985 15.3312L6.55985 15.3312L6.30641 16.2985ZM6.34069 16.3075L7.30221 16.5822C7.37621 16.3232 7.3426 16.0453 7.20898 15.8114C7.07536 15.5775 6.85304 15.4074 6.59235 15.3396L6.34069 16.3075ZM4.99996 21L4.03844 20.7253C3.92433 21.1246 4.06897 21.553 4.40181 21.8014C4.73466 22.0498 5.18643 22.0666 5.53683 21.8437L4.99996 21ZM11.3011 16.9902L11.3293 15.9906C11.1296 15.9849 10.9328 16.0392 10.7642 16.1465L11.3011 16.9902ZM17.6935 16.2985L17.9469 17.2659H17.9469L17.6935 16.2985ZM20.4795 13.1021L21.4601 13.2982L20.4795 13.1021ZM20.6077 12.4612L19.6271 12.265L20.6077 12.4612ZM20.6077 8.53884L19.6271 8.73495V8.73495L20.6077 8.53884ZM20.4795 7.89793L21.4601 7.70181V7.70181L20.4795 7.89793ZM17.6935 4.70149L17.9469 3.73414V3.73414L17.6935 4.70149ZM4.50095 8.09405C4.74676 6.86501 5.51918 5.94149 6.55985 5.66884L6.05298 3.73414C4.10848 4.24357 2.89918 5.90487 2.53979 7.70182L4.50095 8.09405ZM4.37277 8.73495L4.50095 8.09405L2.53979 7.70182L2.41161 8.34272L4.37277 8.73495ZM4.37277 12.265C4.13974 11.0999 4.13974 9.90011 4.37277 8.73495L2.41161 8.34272C2.12679 9.76681 2.12679 11.2332 2.41161 12.6573L4.37277 12.265ZM4.50095 12.906L4.37277 12.265L2.41161 12.6573L2.53979 13.2982L4.50095 12.906ZM6.55985 15.3312C5.51918 15.0585 4.74676 14.135 4.50095 12.906L2.53979 13.2982C2.89918 15.0951 4.10848 16.7564 6.05298 17.2659L6.55985 15.3312ZM6.59235 15.3396C6.58142 15.3368 6.5706 15.334 6.55985 15.3312L6.05297 17.2659C6.065 17.269 6.07702 17.2721 6.08902 17.2753L6.59235 15.3396ZM5.96148 21.2747L7.30221 16.5822L5.37916 16.0327L4.03844 20.7253L5.96148 21.2747ZM10.7642 16.1465L4.46308 20.1563L5.53683 21.8437L11.838 17.8338L10.7642 16.1465ZM12 16C11.772 16 11.5484 15.9968 11.3293 15.9906L11.2729 17.9898C11.5106 17.9965 11.753 18 12 18V16ZM17.4401 15.3312C16.145 15.6704 14.2961 16 12 16V18C14.4881 18 16.5079 17.6429 17.9469 17.2659L17.4401 15.3312ZM19.499 12.906C19.2532 14.135 18.4807 15.0585 17.4401 15.3312L17.9469 17.2659C19.8914 16.7564 21.1007 15.0951 21.4601 13.2982L19.499 12.906ZM19.6271 12.265L19.499 12.906L21.4601 13.2982L21.5883 12.6573L19.6271 12.265ZM19.6271 8.73495C19.8602 9.90011 19.8602 11.0999 19.6271 12.265L21.5883 12.6573C21.8731 11.2332 21.8731 9.76681 21.5883 8.34272L19.6271 8.73495ZM19.499 8.09405L19.6271 8.73495L21.5883 8.34272L21.4601 7.70181L19.499 8.09405ZM17.4401 5.66884C18.4807 5.94149 19.2532 6.86501 19.499 8.09405L21.4601 7.70181C21.1007 5.90487 19.8914 4.24357 17.9469 3.73414L17.4401 5.66884ZM12 5C14.2961 5 16.145 5.32955 17.4401 5.66884L17.9469 3.73414C16.5079 3.35713 14.4881 3 12 3V5ZM6.55985 5.66884C7.85491 5.32955 9.70378 5 12 5V3C9.51186 3 7.49202 3.35713 6.05298 3.73414L6.55985 5.66884Z" fill="black"/>
</svg>
