<svg width="24" height="24" viewBox="0 0 24 24" fill="none" xmlns="http://www.w3.org/2000/svg">
<path fill-rule="evenodd" clip-rule="evenodd" d="M5.94532 4.79998C4.66959 5.16192 3.74953 6.20349 3.44048 7.49306C3.21182 8.44722 3 9.57952 3 10.5C3 11.4205 3.21182 12.5528 3.44048 13.5069C3.73425 14.7327 4.58009 15.7345 5.75872 16.1414C5.51169 17.4589 5.01177 19.2294 4.00003 21C5.92516 21 8.75794 18.8822 10.9174 16.9763C11.2669 16.9917 11.6279 17 12 17C14.6111 17 16.6768 16.5909 18.0547 16.2C19.3304 15.8381 20.2505 14.7965 20.5595 13.5069C20.7882 12.5528 21 11.4205 21 10.5C21 9.57952 20.7882 8.44722 20.5595 7.49306C20.2505 6.20349 19.3304 5.16192 18.0547 4.79998C16.6768 4.40909 14.6111 4 12 4C9.38885 4 7.32315 4.40909 5.94532 4.79998Z" fill="#000716"/>
</svg>
