<svg width="24" height="24" viewBox="0 0 24 24" fill="none" xmlns="http://www.w3.org/2000/svg">
<path fill-rule="evenodd" clip-rule="evenodd" d="M12 5C10.3431 5 9 6.34315 9 8C9 9.65685 10.3431 11 12 11C13.6569 11 15 9.65685 15 8C15 6.34315 13.6569 5 12 5ZM17 8C17 10.419 15.2822 12.4367 13 12.9V15H15C15.5523 15 16 15.4477 16 16C16 16.5523 15.5523 17 15 17H13V19C13 19.5523 12.5523 20 12 20C11.4477 20 11 19.5523 11 19V17H9C8.44772 17 8 16.5523 8 16C8 15.4477 8.44772 15 9 15H11V12.9C8.71776 12.4367 7 10.419 7 8C7 5.23858 9.23858 3 12 3C14.7614 3 17 5.23858 17 8Z" fill="#FF0089"/>
</svg>
