<svg width="24" height="24" viewBox="0 0 24 24" fill="none" xmlns="http://www.w3.org/2000/svg">
<path d="M6 2C4.89543 2 4 2.89543 4 4V20C4 21.1046 4.89543 22 6 22H18C19.1046 22 20 21.1046 20 20V8.21393C20 7.75224 19.8403 7.30478 19.5479 6.94745L16.1002 2.73352C15.7203 2.26925 15.1521 2 14.5522 2H6ZM8 10H16C16.5523 10 17 10.4477 17 11C17 11.5523 16.5523 12 16 12H8C7.44772 12 7 11.5523 7 11C7 10.4477 7.44772 10 8 10ZM7 14C7 13.4477 7.44772 13 8 13H16C16.5523 13 17 13.4477 17 14C17 14.5523 16.5523 15 16 15H8C7.44772 15 7 14.5523 7 14ZM8 16H13C13.5523 16 14 16.4477 14 17C14 17.5523 13.5523 18 13 18H8C7.44772 18 7 17.5523 7 17C7 16.4477 7.44772 16 8 16Z" fill="#000716"/>
</svg>
