<svg width="24" height="24" viewBox="0 0 24 24" fill="none" xmlns="http://www.w3.org/2000/svg">
<path fill-rule="evenodd" clip-rule="evenodd" d="M6 4.5C6 4.22386 6.22386 4 6.5 4H14.0388C14.3425 4 14.6298 4.13809 14.8196 4.3753L17.7809 8.07687C17.9227 8.25418 18 8.47449 18 8.70156V19.5C18 19.7761 17.7761 20 17.5 20H6.5C6.22386 20 6 19.7761 6 19.5V4.5ZM6.5 2C5.11929 2 4 3.11929 4 4.5V19.5C4 20.8807 5.11929 22 6.5 22H17.5C18.8807 22 20 20.8807 20 19.5V8.70156C20 8.02035 19.7682 7.35942 19.3426 6.82748L16.3814 3.12591C15.812 2.41427 14.9501 2 14.0388 2H6.5ZM13 9C13 8.44772 12.5523 8 12 8C11.4477 8 11 8.44772 11 9C11 9.24674 10.99 9.49221 10.979 9.75378L10.9779 9.78047L10.9779 9.78051L10.9779 9.78053C10.9694 9.98236 10.9603 10.1968 10.9573 10.4114C10.8923 11.2936 10.7471 11.8947 10.4806 12.4278C10.273 12.8428 9.9765 13.2482 9.52745 13.7184C8.95989 14.1573 8.39636 14.6897 7.8001 15.2857C7.61356 15.4681 7.51224 15.7089 7.50102 15.9547C7.49429 16.1022 7.52002 16.2515 7.57928 16.3909C7.62239 16.4925 7.68307 16.5885 7.76133 16.6741C7.94589 16.8766 8.19669 16.9868 8.45293 16.9989C8.60102 17.0059 8.75092 16.9802 8.8909 16.9207C8.98235 16.8819 9.06919 16.8289 9.14806 16.7617C9.81008 16.2098 10.3793 15.7086 10.8604 15.2172C11.2918 14.8946 11.6711 14.6857 12.0468 14.5635C12.5257 14.4077 13.0672 14.3734 13.815 14.5315C14.2419 14.6967 14.7208 14.8419 15.2543 14.9694C15.3502 14.9939 15.4471 15.0034 15.5422 14.9994C15.8307 14.9873 16.0986 14.85 16.2774 14.6294C16.3616 14.5256 16.426 14.4034 16.4637 14.2672C16.4879 14.1804 16.4997 14.0927 16.5003 14.006C16.5024 13.6951 16.3585 13.4036 16.1199 13.215C16.0365 13.149 15.9416 13.0957 15.8373 13.0585C15.3338 12.8702 14.8577 12.7199 14.4017 12.6133C13.5022 12.2408 13.2203 11.851 13.1004 11.5583C12.9984 11.3094 12.9563 10.9989 12.9563 10.5547L12.9564 10.5026C12.989 10.0364 13 9.53873 13 9Z" fill="#BE0000"/>
</svg>
