<svg width="24" height="24" viewBox="0 0 24 24" fill="none" xmlns="http://www.w3.org/2000/svg">
<path fill-rule="evenodd" clip-rule="evenodd" d="M7 5.5C7 5.22386 7.22386 5 7.5 5H12.5068C13.1465 5 13.6217 5.59242 13.483 6.21693L13.0238 8.28307L12.7534 9.5H14H16C16.5523 9.5 17 9.94772 17 10.5V18.5C17 18.7761 16.7761 19 16.5 19H7.5C7.22386 19 7 18.7761 7 18.5V5.5ZM7.5 3C6.11929 3 5 4.11929 5 5.5V18.5C5 19.8807 6.11929 21 7.5 21H16.5C17.8807 21 19 19.8807 19 18.5V11L19 11V8.50002C19 5.56703 16.433 3.00002 13.5 3.00002C13.0623 3.00002 12.7458 3.00002 12.5183 3.00002C12.5144 3.00001 12.5106 3 12.5068 3H12H7.5Z" fill="#000716"/>
</svg>
