<svg width="24" height="24" viewBox="0 0 24 24" fill="none" xmlns="http://www.w3.org/2000/svg">
<path d="M6 2C4.89543 2 4 2.89543 4 4V20C4 21.1046 4.89543 22 6 22H18C19.1046 22 20 21.1046 20 20V8.21393C20 7.75224 19.8403 7.30478 19.5479 6.94745L16.1002 2.73352C15.7203 2.26925 15.1521 2 14.5522 2H6ZM8 9H14C14.5523 9 15 9.44771 15 10C15 10.5523 14.5523 11 14 11H8C7.44772 11 7 10.5523 7 10C7 9.44771 7.44772 9 8 9ZM7 13C7 12.4477 7.44772 12 8 12H14C14.5523 12 15 12.4477 15 13C15 13.5523 14.5523 14 14 14H8C7.44772 14 7 13.5523 7 13ZM8 15H11C11.5523 15 12 15.4477 12 16C12 16.5523 11.5523 17 11 17H8C7.44772 17 7 16.5523 7 16C7 15.4477 7.44772 15 8 15Z" fill="#000716"/>
</svg>
