<svg width="24" height="24" viewBox="0 0 24 24" fill="none" xmlns="http://www.w3.org/2000/svg">
<path fill-rule="evenodd" clip-rule="evenodd" d="M6 4.5C6 4.22386 6.22386 4 6.5 4H14.0388C14.3425 4 14.6298 4.13809 14.8196 4.3753L17.7809 8.07687C17.9227 8.25418 18 8.47449 18 8.70156V19.5C18 19.7761 17.7761 20 17.5 20H6.5C6.22386 20 6 19.7761 6 19.5V4.5ZM6.5 2C5.11929 2 4 3.11929 4 4.5V19.5C4 20.8807 5.11929 22 6.5 22H17.5C18.8807 22 20 20.8807 20 19.5V8.70156C20 8.02035 19.7682 7.35942 19.3426 6.82748L16.3814 3.12591C15.812 2.41427 14.9501 2 14.0388 2H6.5ZM9 10C8.44772 10 8 10.4477 8 11C8 11.5523 8.44772 12 9 12H15C15.5523 12 16 11.5523 16 11C16 10.4477 15.5523 10 15 10H9ZM8 14C8 13.4477 8.44772 13 9 13H15C15.5523 13 16 13.4477 16 14C16 14.5523 15.5523 15 15 15H9C8.44772 15 8 14.5523 8 14ZM9 16C8.44772 16 8 16.4477 8 17C8 17.5523 8.44772 18 9 18H15C15.5523 18 16 17.5523 16 17C16 16.4477 15.5523 16 15 16H9Z" fill="#000716"/>
</svg>
