<svg width="23" height="23" viewBox="0 0 23 23" fill="none" xmlns="http://www.w3.org/2000/svg">
<path fill-rule="evenodd" clip-rule="evenodd" d="M4 8C4 7.44772 4.44772 7 5 7H18C18.5523 7 19 7.44772 19 8C19 8.55228 18.5523 9 18 9H5C4.44772 9 4 8.55228 4 8ZM7 12C7 11.4477 7.44772 11 8 11H15C15.5523 11 16 11.4477 16 12C16 12.5523 15.5523 13 15 13H8C7.44772 13 7 12.5523 7 12ZM10 15C9.44772 15 9 15.4477 9 16C9 16.5523 9.44772 17 10 17H13C13.5523 17 14 16.5523 14 16C14 15.4477 13.5523 15 13 15H10Z" fill="black"/>
</svg>
