<svg width="24" height="24" viewBox="0 0 24 24" fill="none" xmlns="http://www.w3.org/2000/svg">
<path fill-rule="evenodd" clip-rule="evenodd" d="M5 8C5 7.44772 5.44772 7 6 7H19C19.5523 7 20 7.44772 20 8C20 8.55228 19.5523 9 19 9H6C5.44772 9 5 8.55228 5 8ZM8 12C8 11.4477 8.44772 11 9 11H16C16.5523 11 17 11.4477 17 12C17 12.5523 16.5523 13 16 13H9C8.44772 13 8 12.5523 8 12ZM11 15C10.4477 15 10 15.4477 10 16C10 16.5523 10.4477 17 11 17H14C14.5523 17 15 16.5523 15 16C15 15.4477 14.5523 15 14 15H11Z" fill="black"/>
</svg>
