<svg width="24" height="24" viewBox="0 0 24 24" fill="none" xmlns="http://www.w3.org/2000/svg">
<path fill-rule="evenodd" clip-rule="evenodd" d="M7.44815 5.8935C7.50444 5.6868 7.51713 5.46473 7.47746 5.23978C7.33361 4.42394 6.55562 3.87918 5.73978 4.02304C4.92394 4.16689 4.37918 4.94488 4.52304 5.76072C4.6022 6.20968 4.8734 6.57654 5.23726 6.79173L7.86241 20.4835C7.96641 21.0259 8.49042 21.3813 9.03282 21.2773C9.57523 21.1733 9.93063 20.6493 9.82663 20.1069L8.73903 14.4343C10.1971 14.4703 11.1255 14.0813 12.0387 13.6987C13.5727 13.056 15.0639 12.4313 18.951 13.868C19.4473 14.0515 19.9542 13.571 19.7684 13.0756L18.8278 10.5673C18.5931 9.94147 18.6296 9.24617 18.9285 8.64834L19.9776 6.5503C20.1322 6.24105 19.9893 5.86243 19.6687 5.73292C15.2407 3.94416 13.6637 4.60487 12.0387 5.28567C10.8817 5.77042 9.70036 6.26537 7.44815 5.8935Z" fill="#1D2129"/>
</svg>
