<svg width="24" height="24" viewBox="0 0 24 24" fill="none" xmlns="http://www.w3.org/2000/svg">
<path fill-rule="evenodd" clip-rule="evenodd" d="M8.21489 5.47721C8.29203 5.9147 8.17116 6.3413 7.91665 6.66508L7.92354 6.70414C9.9246 7.07552 10.9416 6.64944 11.9369 6.23242C13.289 5.66596 14.6011 5.11622 18.2854 6.60455C18.5522 6.71231 18.671 7.02733 18.5424 7.28465L17.6696 9.0303C17.4209 9.52773 17.3905 10.1062 17.5858 10.627L18.3684 12.714C18.523 13.1262 18.1012 13.5259 17.6883 13.3733C14.454 12.1779 13.2133 12.6977 11.9369 13.2324C11.1752 13.5516 10.4009 13.876 9.18254 13.8443L10.0668 18.8589C10.1627 19.4028 9.79949 19.9215 9.2556 20.0174C8.7117 20.1133 8.19304 19.7501 8.09714 19.2062L5.94704 7.01241C5.59712 6.79521 5.33761 6.43566 5.26047 5.99815C5.11661 5.18231 5.66136 4.40432 6.47721 4.26047C7.29305 4.11661 8.07103 4.66136 8.21489 5.47721Z" fill="#000716"/>
</svg>
