<svg width="24" height="24" viewBox="0 0 24 24" fill="none" xmlns="http://www.w3.org/2000/svg">
<path fill-rule="evenodd" clip-rule="evenodd" d="M9 2C8.44772 2 8 2.44772 8 3V3.8C8 3.91046 8.08954 4 8.2 4H16.8C16.9105 4 17 3.91046 17 3.8V3C17 2.44772 16.5523 2 16 2H9ZM8 5.2C8 5.08954 8.08954 5 8.2 5H16.8C16.9105 5 17 5.08954 17 5.2V6.7889C17 7.5786 16.7662 8.35063 16.3282 9.0077L15.6718 9.9923C15.2338 10.6494 15 11.4214 15 12.2111V21C15 22.1046 14.1046 23 13 23H12C10.8954 23 10 22.1046 10 21V12.2111C10 11.4214 9.76625 10.6494 9.3282 9.9923L8.6718 9.0077C8.23375 8.35063 8 7.5786 8 6.7889V5.2ZM11 13.5C11 12.6716 11.6716 12 12.5 12C13.3284 12 14 12.6716 14 13.5V15.5C14 16.3284 13.3284 17 12.5 17C11.6716 17 11 16.3284 11 15.5V13.5Z" fill="#000716"/>
</svg>
