<svg width="24" height="24" viewBox="0 0 24 24" fill="none" xmlns="http://www.w3.org/2000/svg">
<path fill-rule="evenodd" clip-rule="evenodd" d="M9 2C8.44772 2 8 2.44772 8 3V3.8C8 3.91046 8.08954 4 8.2 4H16.8C16.9105 4 17 3.91046 17 3.8V3C17 2.44772 16.5523 2 16 2H9ZM8.2 5C8.08954 5 8 5.08954 8 5.2V6.7889C8 7.5786 8.23375 8.35063 8.6718 9.0077L9.3282 9.9923C9.76625 10.6494 10 11.4214 10 12.2111V21C10 22.1046 10.8954 23 12 23H13C14.1046 23 15 22.1046 15 21V12.2111C15 11.4214 15.2338 10.6494 15.6718 9.9923L16.3282 9.0077C16.7662 8.35063 17 7.5786 17 6.7889V5.2C17 5.08954 16.9105 5 16.8 5H8.2ZM11 13.5C11 12.6716 11.6716 12 12.5 12C13.3284 12 14 12.6716 14 13.5V15.5C14 16.3284 13.3284 17 12.5 17C11.6716 17 11 16.3284 11 15.5V13.5Z" fill="#000716"/>
</svg>
