<svg width="24" height="24" viewBox="0 0 24 24" fill="none" xmlns="http://www.w3.org/2000/svg">
<path fill-rule="evenodd" clip-rule="evenodd" d="M16.2929 5.70711L13.2071 8.79289C12.8166 9.18342 12.1834 9.18342 11.7929 8.79289L8.70711 5.70711C8.07714 5.07714 8.52331 4 9.41421 4H15.5858C16.4767 4 16.9229 5.07714 16.2929 5.70711ZM5 12C5 11.4477 5.44772 11 6 11H7.08333C7.63562 11 8.08333 11.4477 8.08333 12C8.08333 12.5523 7.63562 13 7.08333 13H6C5.44772 13 5 12.5523 5 12ZM10.4167 12C10.4167 11.4477 10.8644 11 11.4167 11H13.5833C14.1356 11 14.5833 11.4477 14.5833 12C14.5833 12.5523 14.1356 13 13.5833 13H11.4167C10.8644 13 10.4167 12.5523 10.4167 12ZM16.9167 12C16.9167 11.4477 17.3644 11 17.9167 11H19C19.5523 11 20 11.4477 20 12C20 12.5523 19.5523 13 19 13H17.9167C17.3644 13 16.9167 12.5523 16.9167 12ZM11.7929 15.2071L8.70711 18.2929C8.07714 18.9229 8.52331 20 9.41421 20H15.5858C16.4767 20 16.9229 18.9229 16.2929 18.2929L13.2071 15.2071C12.8166 14.8166 12.1834 14.8166 11.7929 15.2071Z" fill="black"/>
</svg>
