<svg width="24" height="24" viewBox="0 0 24 24" fill="none" xmlns="http://www.w3.org/2000/svg">
<path d="M9.92957 4C10.9327 4 11.8703 4.50121 12.4266 5.33594L13.535 7H17.9999C19.6567 7 20.9999 8.34315 20.9999 10V10.1318C22.5911 10.6195 23.5489 12.3839 22.9227 14.0537L20.9364 19.3516C20.7899 19.7417 20.4166 20 19.9999 20H5.99988C4.34311 19.9999 2.99988 18.6568 2.99988 17V7C2.99994 5.34337 4.34331 4.00029 5.99988 4H9.92957ZM8.38562 12C7.96917 12.0002 7.59652 12.2586 7.45007 12.6484L5.495 17.8613C5.64337 17.9485 5.81536 18 5.99988 18H19.3065L21.0507 13.3516C21.2958 12.6979 20.8122 12.0001 20.1141 12H8.38562ZM5.99988 6C5.44786 6.00029 4.9999 6.44791 4.99988 7V13.4844L5.57703 11.9463C6.01614 10.7757 7.1354 10.0002 8.38562 10H18.9999C18.9999 9.44772 18.5522 9 17.9999 9H13.535C12.8664 8.99993 12.2419 8.66573 11.871 8.10938L10.7616 6.44531C10.5761 6.16723 10.2638 6 9.92957 6H5.99988Z" fill="black"/>
</svg>
