<svg width="24" height="24" viewBox="0 0 24 24" fill="none" xmlns="http://www.w3.org/2000/svg">
<path d="M9.86816 4C10.9216 4.00016 11.8983 4.55299 12.4404 5.45605L13.3672 7H18.001C19.6576 7.00025 21.001 8.3433 21.001 10V17C21.001 18.6567 19.6576 19.9998 18.001 20H6.00098C4.39588 20 3.0852 18.7394 3.00488 17.1543L3.00098 17V7C3.00098 5.34315 4.34412 4 6.00098 4H9.86816ZM6.00098 6C5.44869 6 5.00098 6.44772 5.00098 7V17L5.00586 17.1025C5.05721 17.6066 5.48332 18 6.00098 18H18.001C18.5184 17.9998 18.9448 17.6065 18.9961 17.1025L19.001 17V10C19.001 9.44787 18.5531 9.00025 18.001 9H12.8008C12.4497 9 12.1241 8.81565 11.9434 8.51465L10.7256 6.48535C10.5449 6.1844 10.2191 6.00016 9.86816 6H6.00098Z" fill="black"/>
</svg>
