<svg width="24" height="25" viewBox="0 0 24 25" fill="none" xmlns="http://www.w3.org/2000/svg">
<path fill-rule="evenodd" clip-rule="evenodd" d="M9.92969 4C10.9329 4 11.8704 4.50118 12.4268 5.33594L13.5352 7H18C19.6569 7 21 8.34315 21 10V17C21 18.6569 19.6569 20 18 20H6C4.34317 20 3 18.6568 3 17V7C3.00006 5.34333 4.34338 4.00023 6 4H9.92969ZM6 6C5.44792 6.00023 5.00002 6.44787 5 7V17C5 17.5523 5.44775 18 6 18H18C18.5523 18 19 17.5523 19 17V10C19 9.44772 18.5523 9 18 9H13.5352C12.8665 8.99997 12.242 8.66577 11.8711 8.10938L10.7617 6.44531C10.5762 6.1672 10.264 6 9.92969 6H6Z" fill="black"/>
</svg>
