<svg width="24" height="24" viewBox="0 0 24 24" fill="none" xmlns="http://www.w3.org/2000/svg">
<path d="M9.86792 4C10.9213 4.00013 11.898 4.55302 12.4402 5.45605L13.3669 7H18.0007C19.6574 7.0002 21.0007 8.34327 21.0007 10V10.1318C22.5915 10.6198 23.5487 12.3841 22.9226 14.0537L20.9363 19.3516C20.7898 19.7416 20.4164 20 19.9998 20H6.00073C4.34398 19.9999 3.00073 18.6568 3.00073 17V7C3.00073 5.34322 4.34398 4.00012 6.00073 4H9.86792ZM8.3855 12C7.96909 12.0003 7.59638 12.2586 7.44995 12.6484L5.49487 17.8604C5.64349 17.948 5.81573 18 6.00073 18H19.3064L21.0505 13.3516C21.2957 12.6979 20.8121 12.0001 20.114 12H8.3855ZM6.00073 6C5.44855 6.00012 5.00073 6.44779 5.00073 7V13.4814L5.5769 11.9463C6.01601 10.7757 7.13533 10.0003 8.3855 10H19.0007C19.0007 9.44784 18.5528 9.0002 18.0007 9H12.8005C12.4495 8.99993 12.1238 8.81561 11.9431 8.51465L10.7253 6.48535C10.5446 6.18443 10.2188 6.00013 9.86792 6H6.00073Z" fill="black"/>
</svg>
