<svg width="24" height="24" viewBox="0 0 24 24" fill="none" xmlns="http://www.w3.org/2000/svg">
<path d="M19 12C19.5523 12 20 12.4477 20 13V16H23C23.5523 16 24 16.4477 24 17C24 17.5523 23.5523 18 23 18H20V21C20 21.5523 19.5523 22 19 22C18.4477 22 18 21.5523 18 21V18H15C14.4477 18 14 17.5523 14 17C14 16.4477 14.4477 16 15 16H18V13C18 12.4477 18.4477 12 19 12Z" fill="black"/>
<path d="M10.1719 3C10.9676 3 11.7313 3.31619 12.2939 3.87891L14.4141 6H19C20.6569 6 22 7.34315 22 9V9.5C22 10.0523 21.5523 10.5 21 10.5C20.4477 10.5 20 10.0523 20 9.5V9C20 8.44772 19.5523 8 19 8H14.4141C13.8837 7.99995 13.375 7.78915 13 7.41406L10.8789 5.29297C10.6914 5.10546 10.4371 5 10.1719 5H5C4.44792 5.00023 4.00002 5.44787 4 6V17C4 17.5523 4.44774 18 5 18H11.5C12.0523 18 12.5 18.4477 12.5 19C12.5 19.5523 12.0523 20 11.5 20H5C3.34317 20 2 18.6568 2 17V6C2.00005 4.34333 3.34338 3.00023 5 3H10.1719Z" fill="black"/>
</svg>
