<svg width="24" height="24" viewBox="0 0 24 24" fill="none" xmlns="http://www.w3.org/2000/svg">
<path fill-rule="evenodd" clip-rule="evenodd" d="M14.5 6C13.9477 6 13.5 6.44772 13.5 7C13.5 7.55228 13.9477 8 14.5 8C15.0523 8 15.5 7.55228 15.5 7C15.5 6.44772 15.0523 6 14.5 6ZM17.5 7C17.5 7.35064 17.4398 7.68722 17.3293 8H19.5C20.3284 8 21 8.67157 21 9.5C21 10.3284 20.3284 11 19.5 11H4.5C3.67157 11 3 10.3284 3 9.5C3 8.67157 3.67157 8 4.5 8H6.67071C6.56015 7.68722 6.5 7.35064 6.5 7C6.5 5.34315 7.84315 4 9.5 4C10.5435 4 11.4625 4.53276 12 5.34111C12.5375 4.53276 13.4565 4 14.5 4C16.1569 4 17.5 5.34315 17.5 7ZM9.5 8C10.0523 8 10.5 7.55228 10.5 7C10.5 6.44772 10.0523 6 9.5 6C8.94772 6 8.5 6.44772 8.5 7C8.5 7.55228 8.94772 8 9.5 8ZM5 13H11V20H8C6.34315 20 5 18.6569 5 17V13ZM19 13H13V20H16C17.6569 20 19 18.6569 19 17V13Z" fill="#000716"/>
</svg>
