<svg width="24" height="24" viewBox="0 0 24 24" fill="none" xmlns="http://www.w3.org/2000/svg">
<path fill-rule="evenodd" clip-rule="evenodd" d="M14.5 7C13.9477 7 13.5 7.44772 13.5 8C13.5 8.55228 13.9477 9 14.5 9C15.0523 9 15.5 8.55228 15.5 8C15.5 7.44772 15.0523 7 14.5 7ZM17.5 8C17.5 8.35064 17.4398 8.68722 17.3293 9H19C19.5523 9 20 9.44772 20 10V11C20 11.5523 19.5523 12 19 12H5C4.44772 12 4 11.5523 4 11V10C4 9.44772 4.44772 9 5 9H6.67071C6.56015 8.68722 6.5 8.35064 6.5 8C6.5 6.34315 7.84315 5 9.5 5C10.5435 5 11.4625 5.53276 12 6.34111C12.5375 5.53276 13.4565 5 14.5 5C16.1569 5 17.5 6.34315 17.5 8ZM9.5 9C10.0523 9 10.5 8.55228 10.5 8C10.5 7.44772 10.0523 7 9.5 7C8.94772 7 8.5 7.44772 8.5 8C8.5 8.55228 8.94772 9 9.5 9ZM6 18V14H11V20H8C6.89543 20 6 19.1046 6 18ZM13 20V14H18V18C18 19.1046 17.1046 20 16 20H13Z" fill="#000716"/>
</svg>
