<svg width="24" height="24" viewBox="0 0 24 24" fill="none" xmlns="http://www.w3.org/2000/svg">
<path d="M19 20C19.5523 20 20 20.4477 20 21C20 21.5523 19.5523 22 19 22H5C4.44772 22 4 21.5523 4 21C4 20.4477 4.44772 20 5 20H19ZM16 5H12.5V6.5C12.5 6.50723 12.4974 6.51433 12.4971 6.52148C15.4131 6.7607 17.7369 9.08424 17.9775 12H21C21.5523 12 22 12.4477 22 13V18C22 18.5523 21.5523 19 21 19H17C16.4477 19 16 18.5523 16 18V14H13V18C13 18.5523 12.5523 19 12 19C11.4477 19 11 18.5523 11 18V14H8V18C8 18.5523 7.55228 19 7 19H3C2.44772 19 2 18.5523 2 18V13C2 12.4477 2.44772 12 3 12H6.02246C6.26306 9.08456 8.58642 6.76114 11.502 6.52148C11.5017 6.51434 11.5 6.50722 11.5 6.5V2.5C11.5 2.22386 11.7239 2 12 2H16V5Z" fill="black"/>
</svg>
