<svg width="24" height="24" viewBox="0 0 24 24" fill="none" xmlns="http://www.w3.org/2000/svg">
<path fill-rule="evenodd" clip-rule="evenodd" d="M17 9.2C18.1598 9.2 19.1 8.2598 19.1 7.1C19.1 5.9402 18.1598 5 17 5C15.8402 5 14.9 5.9402 14.9 7.1C14.9 8.2598 15.8402 9.2 17 9.2ZM8.5 12C10.1569 12 11.5 10.6569 11.5 9C11.5 7.34315 10.1569 6 8.5 6C6.84315 6 5.5 7.34315 5.5 9C5.5 10.6569 6.84315 12 8.5 12ZM8.5 13C5.5 13 3.5 14 3.5 17C3.5 20.1 13.5 20.1 13.5 17C13.5 14 11.5 13 8.5 13ZM13.5 12.7C13.5 10.6 14.9 9.9 17 9.9C19.1 9.9 20.5 10.6 20.5 12.7C20.5 14.87 13.5 14.87 13.5 12.7Z" fill="#000716"/>
</svg>
