<svg width="24" height="24" viewBox="0 0 24 24" fill="none" xmlns="http://www.w3.org/2000/svg">
<path d="M10.4581 7.382V11.442H5.22214V7.382H3.80814V17H5.22214V12.758H10.4581V17H11.8721V7.382H10.4581ZM13.6297 17H20.4757V15.684H15.8697L18.1237 13.78C19.7757 12.436 20.3917 11.414 20.3917 10.126C20.3917 8.376 18.9637 7.214 17.1717 7.214C15.6457 7.214 14.5117 7.914 13.6717 9.076L14.6237 9.916C15.2957 9.048 16.0657 8.488 17.1157 8.488C18.0677 8.488 18.9357 9.104 18.9357 10.154C18.9357 11.022 18.4457 11.848 17.1577 12.926L13.6297 15.838V17Z" fill="black"/>
</svg>
