<svg width="24" height="24" viewBox="0 0 24 24" fill="none" xmlns="http://www.w3.org/2000/svg">
<path d="M10.4103 7.382V11.442H5.17429V7.382H3.76029V17H5.17429V12.758H10.4103V17H11.8243V7.382H10.4103ZM17.1098 17.168C19.1958 17.168 20.5678 15.992 20.5678 14.368C20.5678 13.024 19.5178 12.296 18.5238 12.072C19.5318 11.764 20.3578 11.022 20.3578 9.832C20.3578 8.292 19.0138 7.214 17.0678 7.214C15.4998 7.214 14.4078 7.942 13.6658 8.908L14.5478 9.776C15.2198 8.992 15.9618 8.488 16.9698 8.488C18.0898 8.488 18.9298 9.132 18.9298 10.028C18.9298 10.994 18.0758 11.526 16.8578 11.526L15.8078 11.512V12.772H16.8578C18.2858 12.758 19.1258 13.276 19.1258 14.27C19.1258 15.236 18.3278 15.894 17.0818 15.894C15.9758 15.894 15.0378 15.376 14.3938 14.592L13.4838 15.53C14.2258 16.454 15.4718 17.168 17.1098 17.168Z" fill="black"/>
</svg>
