<svg width="24" height="24" viewBox="0 0 24 24" fill="none" xmlns="http://www.w3.org/2000/svg">
<path fill-rule="evenodd" clip-rule="evenodd" d="M21 12C21 16.9706 16.9706 21 12 21C7.02944 21 3 16.9706 3 12C3 7.02944 7.02944 3 12 3C16.9706 3 21 7.02944 21 12ZM11 10C11 9.44772 11.4477 9 12 9C12.5523 9 13 9.44772 13 10C13 10.4655 12.681 10.859 12.2482 10.9692C11.6873 11.112 11 11.6284 11 12.5V13C11 13.5523 11.4477 14 12 14C12.5523 14 13 13.5523 13 13V12.829C14.1647 12.4171 15 11.3072 15 10C15 8.34315 13.6569 7 12 7C10.3431 7 9 8.34315 9 10C9 10.5523 9.44772 11 10 11C10.5523 11 11 10.5523 11 10ZM12 17C12.5523 17 13 16.5523 13 16C13 15.4477 12.5523 15 12 15C11.4477 15 11 15.4477 11 16C11 16.5523 11.4477 17 12 17Z" fill="#000716"/>
</svg>
