<svg width="24" height="24" viewBox="0 0 24 24" fill="none" xmlns="http://www.w3.org/2000/svg">
<path d="M19.0709 4.92887C22.9761 8.83405 22.9764 15.1655 19.0713 19.0708C15.1661 22.9759 8.83462 22.9762 4.92939 19.0712C4.53905 18.6808 4.53924 18.0476 4.92938 17.6571C5.31984 17.267 5.95301 17.267 6.34344 17.6571C9.46765 20.7809 14.5332 20.7807 17.6572 17.6567C20.7812 14.5325 20.781 9.46707 17.6569 6.34293C14.5328 3.2191 9.46771 3.21877 6.34355 6.34247L5.50475 7.18203L6.27259 7.18218C6.82487 7.18218 7.27266 7.63015 7.27266 8.18243C7.27244 8.73453 6.82504 9.18165 6.27289 9.18165L3.09084 9.18141C2.82569 9.18137 2.57091 9.07662 2.38341 8.88913C2.19615 8.70173 2.09125 8.44742 2.09113 8.1825L2.09136 5.00044C2.09136 4.44824 2.5386 4.00002 3.09077 3.99988C3.64306 3.99988 4.09084 4.44785 4.09084 5.00014L4.09118 5.76713L4.929 4.92925C8.83417 1.02409 15.1657 1.02385 19.0709 4.92887ZM15.9999 13.0001C15.9996 13.5522 15.5518 14.0002 14.9996 14.0001L12.0005 13.9995C11.4483 13.9994 11.0005 13.5514 11.0004 12.9992L11.0007 8.00062C11.0007 7.44849 11.4481 7.00032 12.0001 7.00007C12.5524 7.00007 13.0002 7.44803 13.0002 8.00032L13.0008 11.9993L14.9998 11.9998C15.552 12 15.9999 12.4478 15.9999 13.0001Z" fill="black"/>
</svg>
