<svg width="24" height="24" viewBox="0 0 24 24" fill="none" xmlns="http://www.w3.org/2000/svg">
<path fill-rule="evenodd" clip-rule="evenodd" d="M4.92911 4.9289C8.83435 1.02366 15.166 1.02366 19.0712 4.9289C22.9765 8.83414 22.9765 15.1658 19.0712 19.071C15.166 22.9763 8.83435 22.9763 4.92911 19.071C4.53858 18.6805 4.53858 18.0473 4.92911 17.6568C5.31963 17.2663 5.9528 17.2663 6.34332 17.6568C9.46751 20.781 14.5328 20.781 17.657 17.6568C20.7812 14.5326 20.7812 9.46731 17.657 6.34311C14.5328 3.21892 9.46752 3.21892 6.34332 6.34311L5.50444 7.182L6.27293 7.182C6.82521 7.182 7.27293 7.62971 7.27293 8.182C7.27293 8.73428 6.82522 9.182 6.27293 9.182L5.21227 9.182L3.09095 9.182C2.82573 9.182 2.57138 9.07664 2.38384 8.8891C2.19631 8.70157 2.09095 8.44721 2.09095 8.182L2.09095 6.06068L2.09095 5.00002C2.09095 4.44773 2.53867 4.00002 3.09095 4.00002C3.64323 4.00002 4.09095 4.44773 4.09095 5.00002L4.09095 5.76706L4.92911 4.9289ZM12.0006 8.00003C12.0006 7.44775 11.5529 7.00003 11.0006 7.00003C10.4483 7.00003 10.0006 7.44775 10.0006 8.00003L10.0006 12.9993C10.0006 13.5516 10.4483 13.9993 11.0006 13.9993L13.9999 13.9995C14.5522 13.9996 15 13.5519 15 12.9996C15.0001 12.4473 14.5524 11.9996 14.0001 11.9995L12.0006 11.9994L12.0006 8.00003Z" fill="black"/>
</svg>
