<svg width="24" height="24" viewBox="0 0 24 24" fill="none" xmlns="http://www.w3.org/2000/svg">
<path fill-rule="evenodd" clip-rule="evenodd" d="M4.92911 4.9289C8.83435 1.02366 15.166 1.02366 19.0712 4.9289C22.9765 8.83414 22.9765 15.1658 19.0712 19.071C15.166 22.9763 8.83435 22.9763 4.92911 19.071C4.53858 18.6805 4.53858 18.0473 4.92911 17.6568C5.31963 17.2663 5.9528 17.2663 6.34332 17.6568C9.46751 20.781 14.5328 20.781 17.657 17.6568C20.7812 14.5326 20.7812 9.46731 17.657 6.34311C14.5328 3.21892 9.46752 3.21892 6.34332 6.34311L5.50444 7.182L6.27293 7.182C6.82521 7.182 7.27293 7.62971 7.27293 8.182C7.27293 8.73428 6.82522 9.182 6.27293 9.182L5.21227 9.182L3.09095 9.182C2.82573 9.182 2.57138 9.07664 2.38384 8.8891C2.19631 8.70157 2.09095 8.44721 2.09095 8.182L2.09095 6.06068L2.09095 5.00002C2.09095 4.44773 2.53867 4.00002 3.09095 4.00002C3.64323 4.00002 4.09095 4.44773 4.09095 5.00002L4.09095 5.76706L4.92911 4.9289ZM13.0006 7.00006C13.0006 6.44778 12.5529 6.00006 12.0006 6.00006C11.4483 6.00006 11.0006 6.44778 11.0006 7.00006L11.0006 11.9993C11.0006 12.5516 11.4482 12.9993 12.0005 12.9993L14.9999 12.9996C15.5522 12.9996 15.9999 12.5519 16 11.9997C16 11.4474 15.5523 10.9996 15 10.9996L13.0006 10.9994L13.0006 7.00006Z" fill="black"/>
</svg>
