<svg width="24" height="24" viewBox="0 0 24 24" fill="none" xmlns="http://www.w3.org/2000/svg">
<path fill-rule="evenodd" clip-rule="evenodd" d="M4.29289 10.5C4.10536 10.6875 4 10.9419 4 11.2071V20.2929C4 20.569 4.22386 20.7929 4.5 20.7929H9C9.27614 20.7929 9.5 20.569 9.5 20.2929V14.7929C9.5 14.2406 9.94772 13.7929 10.5 13.7929H13.5C14.0523 13.7929 14.5 14.2406 14.5 14.7929V20.2929C14.5 20.569 14.7239 20.7929 15 20.7929H19.5C19.7761 20.7929 20 20.569 20 20.2929V11.2071C20 10.9419 19.8946 10.6875 19.7071 10.5L12.3536 3.14645C12.1583 2.95118 11.8417 2.95118 11.6464 3.14645L4.29289 10.5Z" fill="#1D2129"/>
</svg>
