<svg width="24" height="24" viewBox="0 0 24 24" fill="none" xmlns="http://www.w3.org/2000/svg">
<path d="M12 18.5C13.6129 18.5 14.7744 18.4152 15.5608 18.3228C13.697 16.168 12.9882 15.5 12 15.5C11.0118 15.5 10.3029 16.168 8.43914 18.3228C9.22556 18.4152 10.3871 18.5 12 18.5Z" fill="black"/>
<path d="M7.16722 9.76844C8.03876 10.5987 9.13822 11.3366 10.1635 12C9.13822 12.6634 8.03876 13.4013 7.16722 14.2316C5.86557 15.4715 4.87051 17.0989 5.25863 19.2573C5.44927 20.3174 6.30788 21.0296 7.26915 21.1879C8.17397 21.3368 9.69146 21.5 12.0001 21.5C14.3086 21.5 15.8261 21.3368 16.731 21.1879C17.6922 21.0296 18.5508 20.3174 18.7415 19.2573C19.1296 17.0989 18.1345 15.4715 16.8329 14.2316C15.9613 13.4013 14.8619 12.6634 13.8366 12C14.8619 11.3366 15.9613 10.5987 16.8329 9.76844C18.1345 8.52851 19.1296 6.90113 18.7415 4.74274C18.5508 3.68258 17.6922 2.97041 16.731 2.81213C15.8261 2.66315 14.3086 2.5 12.0001 2.5C9.69146 2.5 8.17397 2.66315 7.26915 2.81213C6.30788 2.97041 5.44927 3.68258 5.25863 4.74274C4.87051 6.90113 5.86557 8.52851 7.16722 9.76844ZM12.0001 4.5C14.2155 4.5 15.6231 4.65665 16.406 4.78556C16.6358 4.82339 16.7501 4.96887 16.773 5.0967C16.9962 6.33754 16.493 7.33003 15.4534 8.32031C14.623 9.11136 13.5761 9.78646 12.4758 10.4959C12.3195 10.5967 12.1621 10.6982 12.0041 10.8008L12.0001 10.7981L11.996 10.8008C11.8383 10.6984 11.6811 10.5971 11.5251 10.4965L11.5243 10.4959C10.424 9.78646 9.3771 9.11136 8.54668 8.32031C7.50711 7.33003 7.00394 6.33754 7.22706 5.0967C7.25005 4.96887 7.36435 4.82339 7.59408 4.78556C8.37703 4.65665 9.7846 4.5 12.0001 4.5ZM11.5249 13.5037C11.681 13.403 11.8382 13.3016 11.996 13.1992L12.0001 13.2019L12.0041 13.1992C12.1621 13.3018 12.3195 13.4033 12.4758 13.5041C13.5761 14.2135 14.623 14.8886 15.4534 15.6797C16.493 16.67 16.9962 17.6625 16.773 18.9033C16.7501 19.0311 16.6358 19.1766 16.406 19.2144C15.6231 19.3434 14.2155 19.5 12.0001 19.5C9.7846 19.5 8.37703 19.3434 7.59408 19.2144C7.36435 19.1766 7.25005 19.0311 7.22706 18.9033C7.00394 17.6625 7.50711 16.67 8.54668 15.6797C9.37711 14.8886 10.4247 14.2131 11.5249 13.5037Z" fill="black"/>
</svg>
