<svg width="24" height="24" viewBox="0 0 24 24" fill="none" xmlns="http://www.w3.org/2000/svg">
<path fill-rule="evenodd" clip-rule="evenodd" d="M5 4C3.34315 4 2 5.34315 2 7V17C2 18.6569 3.34315 20 5 20H19C20.6569 20 22 18.6569 22 17V7C22 5.34315 20.6569 4 19 4H5ZM4 7C4 6.44772 4.44772 6 5 6H19C19.5523 6 20 6.44772 20 7V16.9206L17.8894 14.1065C17.0955 13.0479 15.5109 13.0382 14.7042 14.087L13.3104 15.899L9.61294 10.9167C8.87123 9.91725 7.40656 9.83072 6.55233 10.7359L4 13.4404V7ZM17 11C18.1046 11 19 10.1046 19 9C19 7.89543 18.1046 7 17 7C15.8954 7 15 7.89543 15 9C15 10.1046 15.8954 11 17 11Z" fill="black"/>
</svg>
