<svg width="24" height="24" viewBox="0 0 24 24" fill="none" xmlns="http://www.w3.org/2000/svg">
<path fill-rule="evenodd" clip-rule="evenodd" d="M12 4C7.58172 4 4 7.58172 4 12C4 16.4183 7.58172 20 12 20C16.4183 20 20 16.4183 20 12C20 7.58172 16.4183 4 12 4ZM2 12C2 6.47715 6.47715 2 12 2C17.5228 2 22 6.47715 22 12C22 17.5228 17.5228 22 12 22C6.47715 22 2 17.5228 2 12ZM13 9C13 8.44772 12.5523 8 12 8C11.4477 8 11 8.44772 11 9C11 9.55228 11.4477 10 12 10C12.5523 10 13 9.55228 13 9ZM12 11C11.4477 11 11 11.4477 11 12V15C11 15.5523 11.4477 16 12 16C12.5523 16 13 15.5523 13 15V12C13 11.4477 12.5523 11 12 11Z" fill="#000716"/>
</svg>
