<svg width="24" height="24" viewBox="0 0 24 24" fill="none" xmlns="http://www.w3.org/2000/svg">
<path fill-rule="evenodd" clip-rule="evenodd" d="M12 22C17.5228 22 22 17.5228 22 12C22 6.47715 17.5228 2 12 2C6.47715 2 2 6.47715 2 12C2 17.5228 6.47715 22 12 22ZM13.5 8C13.5 7.17157 12.8284 6.5 12 6.5C11.1716 6.5 10.5 7.17157 10.5 8C10.5 8.82843 11.1716 9.5 12 9.5C12.8284 9.5 13.5 8.82843 13.5 8ZM11 12C11 11.4477 11.4477 11 12 11C12.5523 11 13 11.4477 13 12V16C13 16.5523 12.5523 17 12 17C11.4477 17 11 16.5523 11 16V12Z" fill="#000716"/>
</svg>
