<svg width="24" height="24" viewBox="0 0 24 24" fill="none" xmlns="http://www.w3.org/2000/svg">
<path fill-rule="evenodd" clip-rule="evenodd" d="M10.5 3C9.11929 3 8 4.11929 8 5.5V13H10V5.5C10 5.22386 10.2239 5 10.5 5H15.5068C16.1465 5 16.6217 5.59242 16.483 6.21693L16.0238 8.28307L15.7534 9.5H17H19C19.5523 9.5 20 9.94772 20 10.5V18.5C20 18.7761 19.7761 19 19.5 19H10.5C10.2239 19 10 18.7761 10 18.5V18H8V18.5C8 19.8807 9.11929 21 10.5 21H19.5C20.8807 21 22 19.8807 22 18.5V11L22 11V8.50002C22 5.56703 19.433 3.00002 16.5 3.00002C16.0623 3.00002 15.7458 3.00002 15.5183 3.00002C15.5144 3.00001 15.5106 3 15.5068 3H15H10.5Z" fill="#000716"/>
<path fill-rule="evenodd" clip-rule="evenodd" d="M4 12C2.89543 12 2 12.8954 2 14V14.5H16V14C16 12.8954 15.1046 12 14 12H4ZM16 16.5H2V20C2 21.1046 2.89543 22 4 22H14C15.1046 22 16 21.1046 16 20V16.5Z" fill="#000716"/>
</svg>
