<svg width="25" height="25" viewBox="0 0 25 25" fill="none" xmlns="http://www.w3.org/2000/svg">
<path fill-rule="evenodd" clip-rule="evenodd" d="M14.3249 4.67511C14.9084 4.09158 15.7911 3.92576 16.5108 4.32954C17.3914 4.82359 18.5879 5.58788 19.5355 6.53553C20.4832 7.48319 21.2475 8.67968 21.7415 9.56027C22.1453 10.28 21.9795 11.1626 21.396 11.7462L18.6418 14.5003C18.1061 15.036 17.3138 15.223 16.5951 14.9835L14.5858 14.3137L12.9068 15.9927C12.8499 16.0496 12.7729 16.0815 12.6925 16.0815H10.9997C10.8324 16.0815 10.6967 16.2172 10.6967 16.3845V17.8332C10.6967 18.0244 10.5218 18.1678 10.3342 18.1303L9.33849 17.9312C9.13645 17.8908 8.95387 18.0594 8.97814 18.264L9.1366 19.5996C9.14754 19.6918 9.11561 19.7839 9.04996 19.8496L7.51472 21.3848L5.12312 21.3848C4.86225 21.3848 4.63065 21.2179 4.54816 20.9704L4.09763 19.6188C4.02504 19.4011 4.08172 19.1609 4.24404 18.9986L11.7574 11.4853L11.0876 9.47594C10.848 8.75727 11.0351 7.96493 11.5707 7.42927L14.3249 4.67511ZM17.1032 6.68175C16.6673 6.39115 16.0869 6.44863 15.7165 6.81907C15.2873 7.24826 15.2873 7.94412 15.7165 8.37332L17.6977 10.3546C18.1269 10.7838 18.8228 10.7838 19.252 10.3546C19.6224 9.98416 19.6799 9.40375 19.3893 8.96785L18.9386 8.29182C18.6325 7.83261 18.2384 7.43858 17.7792 7.13244L17.1032 6.68175Z" fill="#000716"/>
<path fill-rule="evenodd" clip-rule="evenodd" d="M5 6.00003C5 5.44774 5.44772 5.00003 6 5.00003C6.55228 5.00003 7 5.44774 7 6.00003C7 6.46553 6.681 6.85905 6.24823 6.96922C5.68725 7.11204 5 7.62844 5 8.50003V9.00003C5 9.55231 5.44772 10 6 10C6.55228 10 7 9.55231 7 9.00003V8.82902C8.16475 8.41715 9 7.30722 9 6.00003C9 4.34317 7.65685 3.00003 6 3.00003C4.34315 3.00003 3 4.34317 3 6.00003C3 6.55231 3.44772 7.00003 4 7.00003C4.55228 7.00003 5 6.55231 5 6.00003ZM6 13C6.55228 13 7 12.5523 7 12C7 11.4477 6.55229 11 6 11C5.44772 11 5 11.4477 5 12C5 12.5523 5.44772 13 6 13Z" fill="#000716"/>
</svg>
