<svg width="24" height="24" viewBox="0 0 24 24" fill="none" xmlns="http://www.w3.org/2000/svg">
<path fill-rule="evenodd" clip-rule="evenodd" d="M13.3249 3.67511C13.9084 3.09158 14.7911 2.92576 15.5108 3.32954C16.3914 3.82359 17.5879 4.58788 18.5355 5.53553C19.4832 6.48319 20.2475 7.67968 20.7415 8.56027C21.1453 9.27998 20.9795 10.1626 20.396 10.7462L17.6418 13.5003C17.1061 14.036 16.3138 14.223 15.5951 13.9835L13.5858 13.3137L11.9068 14.9927C11.8499 15.0496 11.7729 15.0815 11.6925 15.0815H9.99973C9.83237 15.0815 9.6967 15.2172 9.6967 15.3845V16.8332C9.6967 17.0244 9.52175 17.1678 9.33424 17.1303L8.33849 16.9312C8.13645 16.8908 7.95387 17.0594 7.97814 17.264L8.1366 18.5996C8.14754 18.6918 8.11561 18.7839 8.04996 18.8496L6.51472 20.3848L4.12312 20.3848C3.86225 20.3848 3.63065 20.2179 3.54816 19.9704L3.09763 18.6188C3.02504 18.4011 3.08172 18.1609 3.24405 17.9986L10.7574 10.4853L10.0876 8.47594C9.84802 7.75727 10.0351 6.96493 10.5707 6.42927L13.3249 3.67511ZM16.1032 5.68178C15.6673 5.39118 15.0869 5.44865 14.7165 5.8191C14.2873 6.24829 14.2873 6.94415 14.7165 7.37334L16.6978 9.35463C17.127 9.78382 17.8228 9.78382 18.252 9.35463C18.6225 8.98419 18.6799 8.40377 18.3893 7.96788L17.9386 7.29185C17.6325 6.83264 17.2385 6.4386 16.7793 6.13247L16.1032 5.68178Z" fill="#000716"/>
</svg>
