<svg width="24" height="24" viewBox="0 0 24 24" fill="none" xmlns="http://www.w3.org/2000/svg">
<path d="M12.8153 19.2929L19.3153 12.7929C19.5028 12.6054 19.6082 12.351 19.6082 12.0858V5.5C19.6082 4.94772 19.1605 4.5 18.6082 4.5H12.0224C11.7572 4.5 11.5028 4.60536 11.3153 4.79289L4.81529 11.2929C4.42477 11.6834 4.42477 12.3166 4.81529 12.7071L11.4011 19.2929C11.7916 19.6834 12.4248 19.6834 12.8153 19.2929ZM15.6082 10C14.7797 10 14.1082 9.32843 14.1082 8.5C14.1082 7.67157 14.7797 7 15.6082 7C16.4366 7 17.1082 7.67157 17.1082 8.5C17.1082 9.32843 16.4366 10 15.6082 10Z" fill="black"/>
</svg>
