<svg width="24" height="24" viewBox="0 0 24 24" fill="none" xmlns="http://www.w3.org/2000/svg">
<path fill-rule="evenodd" clip-rule="evenodd" d="M13 4C13 3.44772 12.5523 3 12 3C11.4477 3 11 3.44772 11 4V6H4C3.44772 6 3 6.44772 3 7C3 7.55228 3.44772 8 4 8H12H14.9497C14.7104 10.3966 13.6303 12.7544 12.0026 14.5856C12.0006 14.5879 11.9986 14.5901 11.9966 14.5923C10.5054 13.5783 9.37648 12.5169 8.89443 11.5528C8.64744 11.0588 8.04676 10.8586 7.55279 11.1056C7.05881 11.3526 6.85858 11.9532 7.10557 12.4472C7.75063 13.7373 9.03344 14.9455 10.5072 15.9931C8.8984 17.2496 6.9951 18 5 18C4.44772 18 4 18.4477 4 19C4 19.5523 4.44772 20 5 20C7.74823 20 10.2686 18.872 12.2715 17.1287C14.4561 18.4102 16.8954 19.4387 18.7253 19.9615C19.2563 20.1132 19.8098 19.8058 19.9615 19.2747C20.1132 18.7437 19.8058 18.1902 19.2747 18.0385C17.7367 17.5991 15.655 16.7402 13.7221 15.6553C15.5242 13.524 16.7241 10.8056 16.9581 8H20C20.5523 8 21 7.55228 21 7C21 6.44772 20.5523 6 20 6H16H13V4Z" fill="#000716"/>
</svg>
