<svg width="24" height="24" viewBox="0 0 24 24" fill="none" xmlns="http://www.w3.org/2000/svg">
<g clip-path="url(#clip0)">
<path d="M10.6351 10.9072C9.72912 12.4411 9.93512 14.4499 11.2531 15.7678C12.8151 17.3299 15.3478 17.3299 16.9099 15.7678L20.4454 12.2323C22.0075 10.6702 22.0075 8.13753 20.4454 6.57543C19.1275 5.2575 17.1187 5.0515 15.5848 5.95744" stroke="black" stroke-width="2" stroke-linecap="round"/>
<path d="M8.68907 17.4464C7.15516 18.3524 5.14636 18.1464 3.82843 16.8284C2.26633 15.2663 2.26633 12.7337 3.82843 11.1716L7.36396 7.63604C8.92606 6.07394 11.4587 6.07394 13.0208 7.63604C14.3388 8.95398 14.5448 10.9628 13.6388 12.4967" stroke="black" stroke-width="2" stroke-linecap="round"/>
</g>
<defs>
<clipPath id="clip0">
<rect width="24" height="24" fill="white"/>
</clipPath>
</defs>
</svg>
