<svg width="24" height="24" viewBox="0 0 24 24" fill="none" xmlns="http://www.w3.org/2000/svg">
<path fill-rule="evenodd" clip-rule="evenodd" d="M11.4962 11.4157C11.777 10.9402 11.6192 10.327 11.1437 10.0461C10.6681 9.76529 10.0549 9.92311 9.77408 10.3987C8.64177 12.3158 8.89762 14.8265 10.546 16.4749C12.4986 18.4276 15.6645 18.4276 17.6171 16.4749L21.1526 12.9394C23.1052 10.9868 23.1052 7.82096 21.1526 5.86833C19.5042 4.21995 16.9935 3.9641 15.0763 5.0964C14.6008 5.37726 14.443 5.99044 14.7238 6.46598C15.0047 6.94152 15.6179 7.09934 16.0934 6.81848C17.244 6.13892 18.7509 6.29507 19.7384 7.28255C20.91 8.45412 20.91 10.3536 19.7384 11.5252L16.2029 15.0607C15.0313 16.2323 13.1318 16.2323 11.9602 15.0607C10.9727 14.0732 10.8166 12.5663 11.4962 11.4157ZM8.18054 16.5854C8.65608 16.3045 9.26926 16.4624 9.55011 16.9379C9.83097 17.4134 9.67315 18.0266 9.19761 18.3075C7.28042 19.4398 4.76971 19.1839 3.12133 17.5355C1.16871 15.5829 1.1687 12.4171 3.12133 10.4645L6.65686 6.92894C8.60948 4.97632 11.7753 4.97632 13.7279 6.92894C15.3763 8.57733 15.6322 11.088 14.4999 13.0052C14.219 13.4808 13.6058 13.6386 13.1303 13.3577C12.6547 13.0769 12.4969 12.4637 12.7778 11.9882C13.4573 10.8375 13.3012 9.33064 12.3137 8.34316C11.1421 7.17158 9.24265 7.17158 8.07107 8.34316L4.53554 11.8787C3.36397 13.0503 3.36397 14.9498 4.53554 16.1213C5.52302 17.1088 7.02992 17.265 8.18054 16.5854Z" fill="black"/>
</svg>
