<svg width="24" height="24" viewBox="0 0 24 24" fill="none" xmlns="http://www.w3.org/2000/svg">
<path fill-rule="evenodd" clip-rule="evenodd" d="M11 2C8.23858 2 6 4.23858 6 7V9C4.89543 9 4 9.89543 4 11V18C4 19.1046 4.89543 20 6 20H11H13.0224C13.0076 19.8353 13 19.6685 13 19.5C13 16.631 15.1967 14.275 18 14.0224V11C18 9.89543 17.1046 9 16 9V7C16 4.23858 13.7614 2 11 2ZM14 9V7C14 5.34315 12.6569 4 11 4C9.34315 4 8 5.34315 8 7V9H14ZM9 14C9 12.8954 9.89543 12 11 12C12.1046 12 13 12.8954 13 14C13 14.7398 12.5983 15.3858 12.0011 15.7318L12 16.5C12 17.0523 11.5523 17.5 11 17.5C10.4477 17.5 10 17.0523 10 16.5L9.99993 15.7324C9.40217 15.3866 9 14.7403 9 14ZM22 19.5C22 21.433 20.433 23 18.5 23C16.567 23 15 21.433 15 19.5C15 17.567 16.567 16 18.5 16C20.433 16 22 17.567 22 19.5ZM16.5 19.5C16.5 18.9477 16.9477 18.5 17.5 18.5H19.5C20.0523 18.5 20.5 18.9477 20.5 19.5C20.5 20.0523 20.0523 20.5 19.5 20.5H17.5C16.9477 20.5 16.5 20.0523 16.5 19.5Z" fill="#000716"/>
</svg>
