<svg width="24" height="24" viewBox="0 0 24 24" fill="none" xmlns="http://www.w3.org/2000/svg">
<path d="M14 5C13.4477 5 13 5.44772 13 6C13 6.55228 13.4477 7 14 7H15.5858L12.7574 9.8284C11.967 9.30488 11.0191 9 10 9C7.23858 9 5 11.2386 5 14C5 16.7614 7.23858 19 10 19C12.7614 19 15 16.7614 15 14C15 12.9809 14.6951 12.033 14.1716 11.2426L17 8.41421V10C17 10.5523 17.4477 11 18 11C18.5523 11 19 10.5523 19 10V6C19 5.44772 18.5523 5 18 5H14ZM10 11C11.6569 11 13 12.3431 13 14C13 15.6569 11.6569 17 10 17C8.34315 17 7 15.6569 7 14C7 12.3431 8.34315 11 10 11Z" fill="#0053FF"/>
</svg>
