<svg width="24" height="24" viewBox="0 0 24 24" fill="none" xmlns="http://www.w3.org/2000/svg">
<path d="M14.7042 7.32092H9.29614V17.0353H14.7042V7.32092Z" fill="#FF5F00"/>
<path d="M9.6395 12.1781C9.63864 11.2425 9.85074 10.319 10.2597 9.47749C10.6687 8.63597 11.2639 7.89849 12.0002 7.32088C11.0884 6.6045 9.99336 6.159 8.84026 6.03528C7.68716 5.91157 6.5225 6.11464 5.4794 6.62129C4.4363 7.12794 3.55685 7.91772 2.94157 8.90036C2.32628 9.883 2 11.0188 2 12.1781C2 13.3373 2.32628 14.4732 2.94157 15.4558C3.55685 16.4385 4.4363 17.2282 5.4794 17.7349C6.5225 18.2415 7.68716 18.4446 8.84026 18.3209C9.99336 18.1972 11.0884 17.7517 12.0002 17.0353C11.2639 16.4577 10.6687 15.7202 10.2597 14.8787C9.85075 14.0372 9.63865 13.1137 9.6395 12.1781Z" fill="#EB001B"/>
<path d="M22.0001 12.1781C22.0001 13.3373 21.6739 14.4731 21.0586 15.4558C20.4434 16.4384 19.564 17.2282 18.5209 17.7349C17.4778 18.2415 16.3132 18.4446 15.1601 18.3209C14.007 18.1972 12.912 17.7517 12.0002 17.0353C12.7359 16.4571 13.3306 15.7195 13.7395 14.8781C14.1484 14.0367 14.3609 13.1135 14.3609 12.1781C14.3609 11.2427 14.1484 10.3195 13.7395 9.47806C13.3306 8.63667 12.7359 7.89907 12.0002 7.32088C12.912 6.6045 14.007 6.15899 15.1601 6.03528C16.3132 5.91157 17.4778 6.11465 18.5209 6.6213C19.564 7.12795 20.4434 7.91774 21.0586 8.90038C21.6739 9.88301 22.0001 11.0189 22.0001 12.1781Z" fill="#F79E1B"/>
<path d="M21.4104 16.0064V15.8075H21.4906V15.767H21.2863V15.8075H21.3665V16.0064H21.4104ZM21.807 16.0064V15.7666H21.7444L21.6724 15.9315L21.6003 15.7666H21.5376V16.0064H21.5819V15.8255L21.6494 15.9815H21.6953L21.7628 15.8251V16.0064H21.807Z" fill="#F79E1B"/>
</svg>
