<svg width="24" height="24" viewBox="0 0 24 24" fill="none" xmlns="http://www.w3.org/2000/svg">
<path d="M1 7C1 5.34315 2.34315 4 4 4H20C21.6569 4 23 5.34315 23 7V17C23 18.6569 21.6569 20 20 20H4C2.34315 20 1 18.6569 1 17V7ZM20.879 14.5169C20.879 12.6032 19.6032 11.9653 17.6895 11.9653C15.7758 11.9653 14.5 12.6032 14.5 14.5169C14.5 16.4944 20.879 16.4944 20.879 14.5169ZM17.6895 11.3274C18.7464 11.3274 19.6031 10.4706 19.6031 9.4137C19.6031 8.35679 18.7464 7.5 17.6895 7.5C16.6325 7.5 15.7758 8.35679 15.7758 9.4137C15.7758 10.4706 16.6325 11.3274 17.6895 11.3274ZM4 9C4 9.55228 4.44772 10 5 10H11C11.5523 10 12 9.55228 12 9C12 8.44772 11.5523 8 11 8H5C4.44772 8 4 8.44772 4 9ZM5 11C4.44772 11 4 11.4477 4 12C4 12.5523 4.44772 13 5 13H8C8.55228 13 9 12.5523 9 12C9 11.4477 8.55228 11 8 11H5Z" fill="black"/>
</svg>
