<svg width="24" height="24" viewBox="0 0 24 24" fill="none" xmlns="http://www.w3.org/2000/svg">
<path fill-rule="evenodd" clip-rule="evenodd" d="M1 7C1 5.34315 2.34315 4 4 4H20C21.6569 4 23 5.34315 23 7V17C23 18.6569 21.6569 20 20 20H4C2.34315 20 1 18.6569 1 17V7ZM4 6C3.44772 6 3 6.44772 3 7V17C3 17.5523 3.44772 18 4 18H20C20.5523 18 21 17.5523 21 17V7C21 6.44772 20.5523 6 20 6H4ZM19.879 15.0169C19.879 16.9944 13.5 16.9944 13.5 15.0169C13.5 13.1032 14.7758 12.4653 16.6895 12.4653C18.6032 12.4653 19.879 13.1032 19.879 15.0169ZM16.6895 11.8274C17.7464 11.8274 18.6031 10.9706 18.6031 9.9137C18.6031 8.85679 17.7464 8 16.6895 8C15.6325 8 14.7758 8.85679 14.7758 9.9137C14.7758 10.9706 15.6325 11.8274 16.6895 11.8274ZM5 9C5 8.44771 5.44772 8 6 8H12C12.5523 8 13 8.44771 13 9C13 9.55229 12.5523 10 12 10H6C5.44772 10 5 9.55229 5 9ZM6 11C5.44772 11 5 11.4477 5 12C5 12.5523 5.44772 13 6 13H9C9.55229 13 10 12.5523 10 12C10 11.4477 9.55229 11 9 11H6Z" fill="black"/>
</svg>
