<svg width="24" height="24" viewBox="0 0 24 24" fill="none" xmlns="http://www.w3.org/2000/svg">
<path fill-rule="evenodd" clip-rule="evenodd" d="M5 7C5 6.44772 5.44772 6 6 6H19C19.5523 6 20 6.44772 20 7C20 7.55229 19.5523 8 19 8L6 8C5.44772 8 5 7.55228 5 7ZM5 12C5 11.4477 5.44772 11 6 11H19C19.5523 11 20 11.4477 20 12C20 12.5523 19.5523 13 19 13H6C5.44772 13 5 12.5523 5 12ZM6 16C5.44772 16 5 16.4477 5 17C5 17.5523 5.44772 18 6 18H19C19.5523 18 20 17.5523 20 17C20 16.4477 19.5523 16 19 16H6Z" fill="#1D2129"/>
</svg>
