<svg width="24" height="24" viewBox="0 0 24 24" fill="none" xmlns="http://www.w3.org/2000/svg">
<path d="M11.5398 4.08422C11.7122 3.67805 12.2878 3.67805 12.4602 4.08422L13.859 7.37935C13.9572 7.61053 14.2116 7.73304 14.4535 7.66562L17.9018 6.70475C18.3269 6.58631 18.6858 7.03638 18.4758 7.42443L16.7717 10.5725C16.6521 10.7934 16.7149 11.0687 16.9185 11.2158L19.8197 13.3127C20.1773 13.5712 20.0493 14.1324 19.6149 14.2101L16.0911 14.8406C15.8439 14.8848 15.6679 15.1056 15.6798 15.3565L15.8492 18.9322C15.8701 19.3729 15.3514 19.6227 15.0199 19.3316L12.3299 16.9697C12.1412 16.804 11.8588 16.804 11.6701 16.9697L8.98014 19.3316C8.64857 19.6227 8.12991 19.3729 8.1508 18.9322L8.32025 15.3565C8.33214 15.1056 8.15609 14.8848 7.90887 14.8406L4.3851 14.2101C3.95075 14.1324 3.82265 13.5712 4.18027 13.3127L7.08152 11.2158C7.28507 11.0687 7.3479 10.7934 7.22834 10.5725L5.52423 7.42443C5.31418 7.03638 5.6731 6.58631 6.09815 6.70475L9.54651 7.66562C9.78844 7.73304 10.0428 7.61053 10.141 7.37935L11.5398 4.08422Z" fill="#000716"/>
</svg>
