<svg width="24" height="24" viewBox="0 0 24 24" fill="none" xmlns="http://www.w3.org/2000/svg">
<path d="M3.29321 3.29321C3.65933 2.9271 4.23833 2.9045 4.6311 3.22485L4.70728 3.29321L10.7502 9.33618L16.0002 4.08618L19.9143 8.00024L14.6643 13.2502L20.7073 19.2932C21.0976 19.6838 21.0977 20.3168 20.7073 20.7073C20.3168 21.0977 19.6838 21.0976 19.2932 20.7073L3.29321 4.70728L3.22485 4.6311C2.9045 4.23833 2.9271 3.65933 3.29321 3.29321ZM9.39673 13.5178L6.00024 16.9143V18.0002H7.08618L10.4827 14.6038L11.8967 16.0178L9.91431 18.0002H13.8792L15.8792 20.0002H4.00024V16.5002L4.00513 16.4016C4.02784 16.1727 4.12917 15.9573 4.29321 15.7932L7.98267 12.1038L9.39673 13.5178ZM12.1643 10.7502L13.2502 11.8362L17.0862 8.00024L16.0002 6.91431L12.1643 10.7502Z" fill="#1D2129"/>
</svg>
