<svg width="24" height="24" viewBox="0 0 24 24" fill="none" xmlns="http://www.w3.org/2000/svg">
<path d="M4.6709 8.79199C4.24036 9.77421 4 10.8589 4 12C4 16.4183 7.58172 20 12 20C13.1409 20 14.2249 19.7585 15.207 19.3281L16.7031 20.8242C15.301 21.5731 13.7007 22 12 22C6.47715 22 2 17.5228 2 12C2 10.2992 2.4258 8.69815 3.1748 7.2959L4.6709 8.79199Z" fill="black"/>
<path d="M12 2C17.5228 2 22 6.47715 22 12C22 14.4013 21.1522 16.6036 19.7412 18.3271L20.707 19.293C21.0976 19.6835 21.0976 20.3165 20.707 20.707C20.3165 21.0976 19.6835 21.0976 19.293 20.707L3.29297 4.70703L3.22461 4.63086C2.90426 4.23809 2.92685 3.65908 3.29297 3.29297C3.65908 2.92685 4.23809 2.90426 4.63086 3.22461L4.70703 3.29297L5.67188 4.25781C7.39566 2.847 9.5987 2 12 2ZM12 4C10.1513 4 8.45031 4.62856 7.0957 5.68164L12 10.5859V6C13.1865 6 14.3464 6.35166 15.333 7.01074C16.3197 7.67003 17.0888 8.60775 17.543 9.7041C17.9971 10.8004 18.1163 12.007 17.8848 13.1709C17.7189 14.0045 17.3764 14.7875 16.8877 15.4736L18.3164 16.9023C19.3696 15.548 20 13.8486 20 12C20 7.58172 16.4183 4 12 4Z" fill="black"/>
<path d="M13.6475 17.7686C13.4906 17.8134 13.3318 17.8528 13.1709 17.8848C12.007 18.1163 10.8004 17.9971 9.7041 17.543C8.60774 17.0888 7.67003 16.3197 7.01074 15.333C6.35166 14.3464 6 13.1865 6 12H7.87891L13.6475 17.7686Z" fill="black"/>
</svg>
