<svg width="24" height="24" viewBox="0 0 24 24" fill="none" xmlns="http://www.w3.org/2000/svg">
<path fill-rule="evenodd" clip-rule="evenodd" d="M14 3.5C14 3.55804 13.9967 3.61532 13.9903 3.67165C16.8619 4.34528 19 6.92295 19 10C19 12.4972 19.4123 13.8606 19.8625 14.6049C19.952 14.753 20.0538 14.9075 20.1587 15.0669C20.5564 15.6708 21 16.3446 21 17C21 17.8284 20.3284 18.5 19.5 18.5H5.5C4.67157 18.5 4 17.8284 4 17C4 16.3446 4.44365 15.6708 4.84126 15.0669C4.94622 14.9075 5.04797 14.753 5.1375 14.6049C5.5877 13.8606 6 12.4972 6 10C6 6.92295 8.13812 4.34528 11.0097 3.67165C11.0033 3.61532 11 3.55804 11 3.5C11 2.67157 11.6716 2 12.5 2C13.3284 2 14 2.67157 14 3.5ZM12.5 22.5C11.1193 22.5 10 21.3807 10 20H15C15 21.3807 13.8807 22.5 12.5 22.5Z" fill="#1D2129"/>
</svg>
