<svg width="24" height="24" viewBox="0 0 24 24" fill="none" xmlns="http://www.w3.org/2000/svg">
<path d="M3.14594 5.2725C5.57513 2.35114 11.7182 1.10121 17.1196 5.59184C22.5211 10.0827 22.4136 16.3508 19.9848 19.2725C19.4212 19.9502 18.6529 20.144 17.9477 20.0498C17.2923 19.9623 16.6892 19.6347 16.2231 19.2725L13.4975 17.1534C13.4586 17.1232 13.4066 17.1148 13.3608 17.1299C13.2688 17.1607 13.2314 17.2714 13.2856 17.3516L13.7045 17.9668L13.8452 18.1983C14.1573 18.7799 14.3399 19.6401 13.7924 20.4112C13.3416 21.0456 12.4974 21.7241 11.1391 21.6534C9.8753 21.5873 8.32382 20.8759 6.35883 19.2422C0.635174 14.4834 0.698217 8.217 3.14594 5.2725ZM15.8413 7.12992C11.1581 3.23642 6.30272 4.60485 4.68403 6.5518L4.53754 6.74125C3.05863 8.78942 2.73942 13.6319 7.63715 17.7041C9.47851 19.235 10.6188 19.6227 11.2436 19.6553C11.7464 19.6815 11.9895 19.4807 12.1381 19.2842C12.1353 19.2684 12.1302 19.2451 12.1186 19.2159C12.1111 19.1971 12.1014 19.177 12.0903 19.1563L12.0522 19.0928L11.6332 18.4776C10.8302 17.2982 11.3808 15.6776 12.7358 15.2305C13.4149 15.0068 14.1601 15.1362 14.7241 15.5743L17.4497 17.6934C17.7457 17.9235 18.0235 18.0421 18.2123 18.0674C18.2969 18.0787 18.3426 18.0691 18.3618 18.0625C18.375 18.0579 18.4037 18.0459 18.4467 17.9942C20.0654 16.0472 20.5242 11.0235 15.8413 7.12992ZM14.892 10.5264C15.5548 10.2318 16.3322 10.5106 16.6567 11.1592L16.6752 11.1963C16.8781 11.602 16.8651 12.0828 16.6401 12.4766L16.2651 13.1319C15.9701 13.6479 15.3737 13.912 14.7934 13.7832L14.226 13.6573C13.5341 13.5033 13.0769 12.8424 13.1772 12.1407L13.2016 11.9737C13.2677 11.5114 13.5668 11.1155 13.9936 10.9258L14.892 10.5264ZM6.37251 9.39457C6.86945 9.17371 7.45232 9.38297 7.69575 9.86918C7.84785 10.1734 7.83802 10.5338 7.66938 10.8291L7.4936 11.1377C7.22099 11.6146 6.66945 11.8584 6.13325 11.7393L5.977 11.7041C5.42573 11.5816 5.06217 11.0552 5.14204 10.4961C5.19477 10.1279 5.43299 9.81224 5.7729 9.66117L6.37251 9.39457ZM11.7221 7.65434C11.9643 7.26699 12.4333 7.08645 12.8725 7.21195L13.2534 7.32133C13.5529 7.40691 13.8205 7.58006 14.02 7.81937L14.352 8.21781C14.642 8.56586 14.6602 9.06591 14.3969 9.43461C14.0392 9.93542 13.3176 9.99551 12.8823 9.56059L12.7729 9.45121C12.6483 9.32661 12.4912 9.23497 12.3217 9.18656C11.6663 8.99911 11.3608 8.23245 11.7221 7.65434ZM7.352 6.96684C7.66184 6.42461 8.34127 6.21881 8.89985 6.49809L9.06879 6.58207C9.1931 6.64422 9.33484 6.66295 9.47114 6.63578C9.90881 6.54825 10.2949 6.93445 10.2075 7.37211L10.1049 7.8848C10.0126 8.34666 9.57049 8.65169 9.1059 8.57426L8.88715 8.53812C8.70015 8.50703 8.51169 8.58279 8.3979 8.73441C8.17135 9.03648 7.70543 8.99401 7.53657 8.65629L7.22504 8.03226C7.08461 7.75139 7.09369 7.41918 7.24946 7.14652L7.352 6.96684Z" fill="#1D2129"/>
</svg>
