<svg width="24" height="24" viewBox="0 0 24 24" fill="none" xmlns="http://www.w3.org/2000/svg">
<path fill-rule="evenodd" clip-rule="evenodd" d="M7 9C7 7.34315 8.34315 6 10 6H11.5V12H10C8.34315 12 7 10.6569 7 9ZM11.5 14H10C7.23858 14 5 11.7614 5 9C5 6.23858 7.23858 4 10 4H11.5H12H12.5H16H18.5C19.0523 4 19.5 4.44772 19.5 5C19.5 5.55228 19.0523 6 18.5 6H17V19C17 19.5523 16.5523 20 16 20C15.4477 20 15 19.5523 15 19V6H13.5V19C13.5 19.5523 13.0523 20 12.5 20C11.9477 20 11.5 19.5523 11.5 19V14Z" fill="black"/>
</svg>
