<svg width="24" height="24" viewBox="0 0 24 24" fill="none" xmlns="http://www.w3.org/2000/svg">
<path d="M14.7779 7.84265C13.9556 7.29324 12.9889 7 12 7V12H7C7 12.9889 7.29324 13.9556 7.84265 14.7779C8.39206 15.6001 9.17295 16.241 10.0866 16.6194C11.0002 16.9978 12.0055 17.0969 12.9755 16.9039C13.9454 16.711 14.8363 16.2348 15.5355 15.5355C16.2348 14.8363 16.711 13.9454 16.9039 12.9755C17.0969 12.0055 16.9978 11.0002 16.6194 10.0866C16.241 9.17295 15.6001 8.39206 14.7779 7.84265Z" fill="black"/>
<path d="M21 12C21 16.9706 16.9706 21 12 21C7.02944 21 3 16.9706 3 12C3 7.02944 7.02944 3 12 3C16.9706 3 21 7.02944 21 12ZM19 12C19 8.13401 15.866 5 12 5C8.13401 5 5 8.13401 5 12C5 15.866 8.13401 19 12 19C15.866 19 19 15.866 19 12Z" fill="black"/>
</svg>
