<svg width="24" height="24" viewBox="0 0 24 24" fill="none" xmlns="http://www.w3.org/2000/svg">
<path fill-rule="evenodd" clip-rule="evenodd" d="M18.9283 11.0263C19.4806 11.0263 19.9283 11.474 19.9283 12.0263C19.9283 16.4446 16.3466 20.0263 11.9283 20.0263C7.51006 20.0263 3.92834 16.4446 3.92834 12.0263C3.92834 7.60803 7.51006 4.02631 11.9283 4.02631L13.514 4.02631L12.9712 3.48345C12.5806 3.09292 12.5806 2.45976 12.9712 2.06923C13.3617 1.67871 13.9949 1.67871 14.3854 2.06923L15.1354 2.81923L16.6354 4.31923C16.8229 4.50677 16.9283 4.76112 16.9283 5.02634C16.9283 5.29155 16.8229 5.54591 16.6354 5.73344L15.1354 7.23345L14.3854 7.98345C13.9949 8.37397 13.3617 8.37397 12.9712 7.98344C12.5806 7.59292 12.5806 6.95976 12.9712 6.56923L13.5141 6.02631L11.9283 6.02631C8.61463 6.02631 5.92834 8.7126 5.92834 12.0263C5.92834 15.34 8.61463 18.0263 11.9283 18.0263C15.242 18.0263 17.9283 15.34 17.9283 12.0263C17.9283 11.474 18.3761 11.0263 18.9283 11.0263ZM12 9.5C12 8.94772 11.5523 8.5 11 8.5C10.4477 8.5 10 8.94772 10 9.5L10 13C10 13.5523 10.4477 14 11 14L13 14C13.5523 14 14 13.5523 14 13C14 12.4477 13.5523 12 13 12L12 12L12 9.5Z" fill="black"/>
</svg>
