<svg width="24" height="24" viewBox="0 0 24 24" fill="none" xmlns="http://www.w3.org/2000/svg">
<path fill-rule="evenodd" clip-rule="evenodd" d="M12 3C11.4477 3 11 3.44772 11 4V11C11 11.5523 11.4477 12 12 12C12.5523 12 13 11.5523 13 11V4C13 3.44772 12.5523 3 12 3ZM17.7142 6.40111C17.3277 6.00665 16.6946 6.00023 16.3001 6.38677C15.9056 6.77332 15.8992 7.40645 16.2858 7.80091C17.3472 8.88411 18 10.3648 18 12C18 15.3137 15.3137 18 12 18C8.68629 18 6 15.3137 6 12C6 10.3648 6.65279 8.88411 7.71424 7.80091C8.10079 7.40645 8.09436 6.77332 7.6999 6.38677C7.30544 6.00023 6.6723 6.00665 6.28576 6.40111C4.87283 7.84299 4 9.82056 4 12C4 16.4183 7.58172 20 12 20C16.4183 20 20 16.4183 20 12C20 9.82056 19.1272 7.84299 17.7142 6.40111Z" fill="#000716"/>
</svg>
