<svg width="24" height="24" viewBox="0 0 24 24" fill="none" xmlns="http://www.w3.org/2000/svg">
<path d="M20 7C21.1046 7 22 7.89543 22 9V15C22 16.1046 21.1046 17 20 17H17V20C17 21.1046 16.1046 22 15 22H9C7.89543 22 7 21.1046 7 20V17H4C2.89543 17 2 16.1046 2 15V9C2 7.89543 2.89543 7 4 7H20ZM9 20H15V14H9V20ZM19 9C18.4477 9 18 9.44772 18 10C18 10.5523 18.4477 11 19 11C19.5523 11 20 10.5523 20 10C20 9.44772 19.5523 9 19 9ZM17.5 3C18.3284 3 19 3.67157 19 4.5C19 5.32843 18.3284 6 17.5 6H6.5C5.67157 6 5 5.32843 5 4.5C5 3.67157 5.67157 3 6.5 3H17.5Z" fill="black"/>
</svg>
