<svg width="24" height="24" viewBox="0 0 24 24" fill="none" xmlns="http://www.w3.org/2000/svg">
<path d="M5.29295 5.29297C5.68348 4.90244 6.31649 4.90244 6.70702 5.29297L9.70702 8.29297C10.0975 8.68349 10.0975 9.31651 9.70702 9.70703C9.31649 10.0976 8.68348 10.0976 8.29295 9.70703L6.99998 8.41406V18C6.99998 18.5523 6.55227 19 5.99998 19C5.4477 19 4.99998 18.5523 4.99998 18V8.41406L3.70702 9.70703C3.31649 10.0976 2.68348 10.0976 2.29295 9.70703C1.90243 9.31651 1.90243 8.68349 2.29295 8.29297L5.29295 5.29297ZM16 17C16.5523 17 17 17.4477 17 18C17 18.5523 16.5523 19 16 19H12C11.4477 19 11 18.5523 11 18C11 17.4477 11.4477 17 12 17H16ZM18 13C18.5523 13 19 13.4477 19 14C19 14.5523 18.5523 15 18 15H12C11.4477 15 11 14.5523 11 14C11 13.4477 11.4477 13 12 13H18ZM20 9C20.5523 9 21 9.44772 21 10C21 10.5523 20.5523 11 20 11H12C11.4477 11 11 10.5523 11 10C11 9.44772 11.4477 9 12 9H20ZM22 5C22.5523 5 23 5.44772 23 6C23 6.55228 22.5523 7 22 7H12C11.4477 7 11 6.55228 11 6C11 5.44772 11.4477 5 12 5H22Z" fill="#1D2129"/>
</svg>
