<svg width="24" height="24" viewBox="0 0 24 24" fill="none" xmlns="http://www.w3.org/2000/svg">
<path d="M11.6592 3.12122C11.8809 3.04368 12.1191 3.04368 12.3408 3.12122C13.488 3.52234 17.2623 4.79374 19.501 4.97766C19.7761 5.0004 20 5.22408 20 5.50012V9.90735C19.9999 15.9073 14 20.5001 12 22.0001C9.99998 20.5001 4.00006 15.9073 4 9.90735V5.50012C4 5.22408 4.22394 5.00041 4.49902 4.97766C6.73769 4.79374 10.5119 3.52236 11.6592 3.12122ZM12 19.4659C12.9597 18.6875 14.1458 17.6331 15.2178 16.3556C16.8274 14.4373 18 12.2351 18 9.90735V6.78528C16.9865 6.60119 15.9069 6.32451 14.9609 6.05383C14.3608 5.8821 13.7872 5.70547 13.2803 5.54309L12 5.11829V19.4659Z" fill="#1D2129"/>
</svg>
