<svg width="24" height="24" viewBox="0 0 24 24" fill="none" xmlns="http://www.w3.org/2000/svg">
<path fill-rule="evenodd" clip-rule="evenodd" d="M12 18.5181C12 18.5181 12 18.5181 12 18.5181C14.2363 16.8618 17 14.531 17 10.5L17 7.26871C15.0996 6.88042 13.0435 6.09464 12 5.66991C12 5.66991 12 5.66991 12 5.66991V18.5181ZM5 6.00002C5 5.72388 5.22409 5.50082 5.49918 5.47681C7.55783 5.29717 10.5202 4.1233 11.5929 3.67429C11.8539 3.56503 12.1461 3.56503 12.4072 3.67429C13.4798 4.12331 16.4422 5.29718 18.5008 5.47681C18.7759 5.50082 19 5.72387 19 6.00002L19 10.5C19 15.9545 14.8678 18.9298 12.6139 20.5526L12.6138 20.5526C12.3884 20.7149 12.1818 20.8637 12 21C11.8182 20.8637 11.6116 20.7149 11.3862 20.5526C9.13227 18.9298 5 15.9546 5 10.5V6.00002Z" fill="#000716"/>
</svg>
