<svg width="24" height="24" viewBox="0 0 24 24" fill="none" xmlns="http://www.w3.org/2000/svg">
<path fill-rule="evenodd" clip-rule="evenodd" d="M2 3C2 2.44772 2.44772 2 3 2H10C10.5523 2 11 2.44772 11 3V10C11 10.5523 10.5523 11 10 11H3C2.44772 11 2 10.5523 2 10V3ZM9 4H4V9H9V4ZM14 2C13.4477 2 13 2.44772 13 3V10C13 10.5523 13.4477 11 14 11H21C21.5523 11 22 10.5523 22 10V3C22 2.44772 21.5523 2 21 2H14ZM20 9H15V4H20V9ZM3 13C2.44772 13 2 13.4477 2 14V21C2 21.5523 2.44772 22 3 22H10C10.5523 22 11 21.5523 11 21V14C11 13.4477 10.5523 13 10 13H3ZM9 20H4V15H9V20ZM19 19.5C19 19.2239 19.2239 19 19.5 19H21.5C21.7761 19 22 19.2239 22 19.5V21.5C22 21.7761 21.7761 22 21.5 22H19.5C19.2239 22 19 21.7761 19 21.5V19.5ZM16.5 16C16.2239 16 16 16.2239 16 16.5V18.5C16 18.7761 16.2239 19 16.5 19H18.5C18.7761 19 19 18.7761 19 18.5V16.5C19 16.2239 18.7761 16 18.5 16H16.5ZM13 19.5C13 19.2239 13.2239 19 13.5 19H15.5C15.7761 19 16 19.2239 16 19.5V21.5C16 21.7761 15.7761 22 15.5 22H13.5C13.2239 22 13 21.7761 13 21.5V19.5ZM13.5 13C13.2239 13 13 13.2239 13 13.5V15.5C13 15.7761 13.2239 16 13.5 16H15.5C15.7761 16 16 15.7761 16 15.5V13.5C16 13.2239 15.7761 13 15.5 13H13.5ZM19 13.5C19 13.2239 19.2239 13 19.5 13H21.5C21.7761 13 22 13.2239 22 13.5V15.5C22 15.7761 21.7761 16 21.5 16H19.5C19.2239 16 19 15.7761 19 15.5V13.5ZM5.5 5C5.22386 5 5 5.22386 5 5.5V7.5C5 7.77614 5.22386 8 5.5 8H7.5C7.77614 8 8 7.77614 8 7.5V5.5C8 5.22386 7.77614 5 7.5 5H5.5ZM16 5.5C16 5.22386 16.2239 5 16.5 5H18.5C18.7761 5 19 5.22386 19 5.5V7.5C19 7.77614 18.7761 8 18.5 8H16.5C16.2239 8 16 7.77614 16 7.5V5.5ZM5.5 16C5.22386 16 5 16.2239 5 16.5V18.5C5 18.7761 5.22386 19 5.5 19H7.5C7.77614 19 8 18.7761 8 18.5V16.5C8 16.2239 7.77614 16 7.5 16H5.5Z" fill="#000716"/>
</svg>
