<svg width="24" height="24" viewBox="0 0 24 24" fill="none" xmlns="http://www.w3.org/2000/svg">
<path fill-rule="evenodd" clip-rule="evenodd" d="M3 2C2.44772 2 2 2.44772 2 3V10C2 10.5523 2.44772 11 3 11H10C10.5523 11 11 10.5523 11 10V3C11 2.44772 10.5523 2 10 2H3ZM4 4H9V9H4V4ZM13 3C13 2.44772 13.4477 2 14 2H21C21.5523 2 22 2.44772 22 3V10C22 10.5523 21.5523 11 21 11H14C13.4477 11 13 10.5523 13 10V3ZM15 9H20V4H15V9ZM2 14C2 13.4477 2.44772 13 3 13H10C10.5523 13 11 13.4477 11 14V21C11 21.5523 10.5523 22 10 22H3C2.44772 22 2 21.5523 2 21V14ZM4 20H9V15H4V20ZM19 19V21.5C19 21.7761 19.2239 22 19.5 22H21.5C21.7761 22 22 21.7761 22 21.5V18.5V16.5C22 16.2239 21.7761 16 21.5 16H19.5H16.5C16.2239 16 16 16.2239 16 16.5V18.5C16 18.7761 16.2239 19 16.5 19H19ZM12.5 19C12.2239 19 12 19.2239 12 19.5V21.5C12 21.7761 12.2239 22 12.5 22H14.5C14.7761 22 15 21.7761 15 21.5V19.5C15 19.2239 14.7761 19 14.5 19H12.5ZM12 13.5C12 13.2239 12.2239 13 12.5 13H14.5C14.7761 13 15 13.2239 15 13.5V15.5C15 15.7761 14.7761 16 14.5 16H12.5C12.2239 16 12 15.7761 12 15.5V13.5ZM5.5 5C5.22386 5 5 5.22386 5 5.5V7.5C5 7.77614 5.22386 8 5.5 8H7.5C7.77614 8 8 7.77614 8 7.5V5.5C8 5.22386 7.77614 5 7.5 5H5.5ZM16 5.5C16 5.22386 16.2239 5 16.5 5H18.5C18.7761 5 19 5.22386 19 5.5V7.5C19 7.77614 18.7761 8 18.5 8H16.5C16.2239 8 16 7.77614 16 7.5V5.5ZM5.5 16C5.22386 16 5 16.2239 5 16.5V18.5C5 18.7761 5.22386 19 5.5 19H7.5C7.77614 19 8 18.7761 8 18.5V16.5C8 16.2239 7.77614 16 7.5 16H5.5Z" fill="#000716"/>
</svg>
