<svg width="24" height="24" viewBox="0 0 24 24" fill="none" xmlns="http://www.w3.org/2000/svg">
<path d="M10 5C10 7.04625 11.5365 8.73363 13.5187 8.97134C14.2062 10.1827 15.5076 11 17 11C19.2091 11 21 9.20914 21 7C21 4.95375 19.4635 3.26637 17.4813 3.02866C16.7938 1.81727 15.4924 1 14 1C11.7909 1 10 2.79086 10 5ZM13.0085 6.73732C12.406 6.39273 12 5.74378 12 5C12 3.89543 12.8954 3 14 3C14.4599 3 14.8836 3.15524 15.2214 3.41618C13.9788 4.03407 13.103 5.27924 13.0085 6.73732ZM17 9C15.8954 9 15 8.10457 15 7C15 5.89543 15.8954 5 17 5C18.1046 5 19 5.89543 19 7C19 8.10457 18.1046 9 17 9Z" fill="black"/>
<path d="M10.2396 23.3468C8.52562 22.8842 6.27698 21.8091 4.8776 21.0947C4.64735 21.6273 4.11726 22 3.50012 22H1.50012C0.671696 22 0.00012207 21.3285 0.00012207 20.5V12.5C0.00012207 11.6716 0.671696 11 1.50012 11H3.50012C4.32854 11 5.0001 11.6716 5.00012 12.5H5.19099C6.98222 11.305 8.52213 10.8855 9.97986 10.9961C11.4199 11.1053 12.6599 11.7336 13.7626 12.2923L13.8353 12.3291C14.2463 12.5372 14.6434 12.7382 15.0549 12.9242C16.0944 13.3941 16.916 14.4194 17.0221 15.6034C17.4617 15.1563 17.9528 14.585 18.4677 13.861C19.4438 12.4885 21.5212 12.107 22.8267 13.4125C23.6466 14.2325 23.8925 15.5309 23.2729 16.5976C21.8698 19.0131 20.2192 20.7753 19.3225 21.6436C18.7516 22.1965 18.0294 22.5059 17.2991 22.6102L11.6502 23.4172C11.2118 23.4798 10.7274 23.4785 10.2396 23.3468ZM9.82859 12.9904C8.87761 12.9182 7.70876 13.1745 6.07349 14.3192C5.90541 14.4369 5.7052 14.5 5.50003 14.5H5.00012V18.9037C6.17492 19.5278 8.90203 20.9142 10.7608 21.4159C10.9297 21.4615 11.1322 21.4709 11.3673 21.4373L17.0163 20.6303C17.3873 20.5773 17.7029 20.4279 17.9312 20.2068C18.7476 19.4162 20.263 17.7975 21.5435 15.593C21.6708 15.3739 21.644 15.0583 21.4124 14.8267C21.0947 14.509 20.4519 14.5219 20.0976 15.0201C18.5174 17.2419 17.0683 18.2738 16.34 18.6922C15.9287 18.9284 15.4873 19.0039 15.0937 18.9957C12.9935 18.9521 11.6213 18.5814 11.2708 18.476C11.2349 18.4652 11.2002 18.455 11.1661 18.4453C11.0206 18.4041 10.8805 18.3568 10.7458 18.3039C10.2734 18.1185 10.0147 17.6087 10.1442 17.118C10.2736 16.6272 10.7501 16.3113 11.2525 16.3831L13.9926 16.7745C14.4427 16.8388 14.8711 16.561 14.9961 16.1238C15.1303 15.6539 14.8553 15.0288 14.2311 14.7466C13.7761 14.541 13.343 14.3217 12.9402 14.1177L12.9318 14.1134C11.7455 13.5127 10.8368 13.0668 9.82859 12.9904Z" fill="black"/>
</svg>
