<svg width="24" height="24" viewBox="0 0 24 24" fill="none" xmlns="http://www.w3.org/2000/svg">
<path d="M19 20.9404C20.6569 20.9404 22 19.5973 22 17.9404L22 3.94043C22 3.01187 21.0899 2.35578 20.209 2.64941L19.5752 2.86133L18.1709 2.1582C17.7486 1.94706 17.2514 1.94706 16.8291 2.1582L15.5 2.82324L14.1709 2.1582C13.7486 1.94705 13.2514 1.94706 12.8291 2.1582L11.5 2.82324L10.1709 2.1582C9.74836 1.94694 9.25115 1.94718 8.8291 2.1582L7.77637 2.68457C7.30101 2.92238 7 3.40821 7 3.94043L7 13.9404L4.09961 13.9404C3.49241 13.9406 3.00021 14.4328 3 15.04L3 17.9404C3 19.5973 4.34315 20.9404 6 20.9404L19 20.9404ZM8.82617 18.9404C8.85121 18.8697 8.87281 18.7977 8.89258 18.7246C8.89772 18.7058 8.90243 18.6869 8.90723 18.668C8.9654 18.4348 9 18.1917 9 17.9404L9 4.30859L9.5 4.05859L10.8291 4.72266L10.9912 4.79199C11.32 4.91062 11.68 4.91062 12.0088 4.79199L12.1709 4.72266L13.5 4.05859L14.8291 4.72266L14.9912 4.79199C15.32 4.91062 15.68 4.91062 16.0088 4.79199L16.1709 4.72266L17.499 4.05859L18.8672 4.74219L19.0039 4.80176C19.3221 4.92315 19.6734 4.93284 20 4.82715L20 17.9404C20 18.4927 19.5523 18.9404 19 18.9404L17.9971 18.9404C17.9662 18.4159 17.5323 18 17 18L12 18C11.4677 18 11.0338 18.4159 11.0029 18.9404L8.82617 18.9404ZM13.833 13.6953C14.5638 13.998 15.3678 14.0771 16.1436 13.9229C16.6804 13.8161 17.1873 13.6008 17.6338 13.293C17.9644 13.065 17.9617 12.5985 17.6777 12.3145L17.5166 12.1533C17.2327 11.8694 16.7747 11.8822 16.417 12.0645C16.2283 12.1607 16.0255 12.2317 15.8154 12.2734C15.366 12.3628 14.8999 12.317 14.4766 12.1416C14.0532 11.9662 13.6912 11.6691 13.4365 11.2881C13.4234 11.2685 13.4119 11.2475 13.3994 11.2275L14.6367 11.2275C14.9126 11.2273 15.1366 11.0035 15.1367 10.7275C15.1367 10.4515 14.9127 10.2277 14.6367 10.2275L13.0586 10.2275C13.0511 10.1521 13.0459 10.0763 13.0459 10C13.0459 9.92373 13.0511 9.8479 13.0586 9.77246L14.6367 9.77246C14.9127 9.77227 15.1367 9.54848 15.1367 9.27246C15.1366 8.99655 14.9126 8.77265 14.6367 8.77246L13.3994 8.77246C13.4119 8.75251 13.4234 8.73152 13.4365 8.71191C13.6912 8.3309 14.0532 8.03378 14.4766 7.8584C14.8999 7.68302 15.366 7.63724 15.8154 7.72656C16.0255 7.76834 16.2283 7.83929 16.417 7.93555C16.7747 8.11784 17.2327 8.13056 17.5166 7.84668L17.6777 7.68555C17.9616 7.40152 17.9644 6.93498 17.6338 6.70703C17.1873 6.39922 16.6804 6.18394 16.1436 6.07715C15.3678 5.92291 14.5638 6.00199 13.833 6.30469C13.1023 6.60737 12.4776 7.11974 12.0381 7.77734C11.8315 8.08658 11.6716 8.4223 11.5586 8.77246L11 8.77246C10.7239 8.77246 10.5001 8.99643 10.5 9.27246C10.5 9.5486 10.7239 9.77246 11 9.77246L11.3721 9.77246C11.3678 9.84812 11.3633 9.92392 11.3633 10C11.3633 10.0761 11.3678 10.1519 11.3721 10.2275L11 10.2275C10.7239 10.2275 10.5 10.4514 10.5 10.7275C10.5001 11.0036 10.7239 11.2275 11 11.2275L11.5586 11.2275C11.6716 11.5777 11.8315 11.9134 12.0381 12.2227C12.4776 12.8803 13.1023 13.3926 13.833 13.6953ZM17 17C17.5523 17 18 16.5523 18 16C18 15.4477 17.5523 15 17 15L12 15C11.4477 15 11 15.4477 11 16C11 16.5523 11.4477 17 12 17L17 17ZM6 18.9404C5.44772 18.9404 5 18.4927 5 17.9404L5 15.9404L7 15.9404L7 17.9404C7 18.4927 6.55228 18.9404 6 18.9404Z" fill="black"/>
</svg>
