<svg width="24" height="24" viewBox="0 0 24 24" fill="none" xmlns="http://www.w3.org/2000/svg">
<path d="M10 5C10 7.04625 11.5365 8.73363 13.5187 8.97134C14.2062 10.1827 15.5076 11 17 11C19.2091 11 21 9.20914 21 7C21 4.95375 19.4635 3.26637 17.4813 3.02866C16.7938 1.81727 15.4924 1 14 1C11.7909 1 10 2.79086 10 5ZM13.0085 6.73732C12.406 6.39273 12 5.74378 12 5C12 3.89543 12.8954 3 14 3C14.4599 3 14.8836 3.15524 15.2214 3.41618C13.9788 4.03407 13.103 5.27924 13.0085 6.73732ZM17 9C15.8954 9 15 8.10457 15 7C15 5.89543 15.8954 5 17 5C18.1046 5 19 5.89543 19 7C19 8.10457 18.1046 9 17 9Z" fill="black"/>
<path d="M10.3251 23.3696C8.59898 22.9195 6.29902 21.8204 4.87769 21.0948C4.64742 21.6273 4.11735 22 3.50024 22H1.50024C0.671817 22 0.000244141 21.3284 0.000244141 20.5V12.5C0.000244141 11.6716 0.671817 11 1.50024 11H3.50024C4.32867 11 5.00024 11.6716 5.00024 12.5L5.18949 12.5C6.92108 11.3318 8.32045 10.8342 9.62741 10.8497C10.9401 10.8651 12.01 11.4085 12.9634 11.8926L13.0394 11.9312C13.4881 12.1588 13.9255 12.3803 14.4057 12.5811C15.5449 13.0575 16.5 14.1609 16.5 15.5616V15.694C16.5 15.7684 16.4973 15.8421 16.492 15.915C17.0679 15.4393 17.7318 14.7833 18.4081 13.8918C19.4331 12.5404 21.5483 12.134 22.8899 13.4757C23.6429 14.2287 23.9799 15.4505 23.3981 16.5257C21.8298 19.4239 18.8559 21.6272 17.6349 22.4556C17.1032 22.8163 16.503 23.0039 15.9072 23.058L11.5239 23.4565C11.1508 23.4904 10.7415 23.4781 10.3251 23.3696ZM9.60381 12.8495C8.82077 12.8403 7.75821 13.1399 6.07346 14.3192C5.90538 14.4369 5.70518 14.5 5.50001 14.5L5.00024 14.5V18.9038C6.19254 19.5371 8.97357 20.9503 10.8298 21.4343C10.9719 21.4713 11.1412 21.4831 11.3429 21.4647L15.7261 21.0662C16.03 21.0386 16.2962 20.9469 16.512 20.8005C17.6973 19.9964 20.3158 18.0192 21.6391 15.5738C21.7272 15.4109 21.718 15.1322 21.4756 14.8898C21.1307 14.5449 20.4179 14.5516 20.0015 15.1005C18.351 17.2764 16.7116 18.294 15.8748 18.7083C15.3719 18.9573 14.8444 18.9879 14.3913 18.9232L11.3587 18.49C11.32 18.4844 11.2816 18.4766 11.2438 18.4666C11.0704 18.4206 10.9044 18.3661 10.7459 18.3039C10.2735 18.1186 10.0148 17.6087 10.1442 17.118C10.2737 16.6272 10.7502 16.3113 11.2526 16.3831L13.3586 16.6839C13.961 16.77 14.5 16.3025 14.5 15.694V15.5616C14.5 15.1267 14.1882 14.658 13.634 14.4262C13.0812 14.195 12.5851 13.9433 12.146 13.7206L12.1346 13.7148C11.094 13.1869 10.4116 12.859 9.60381 12.8495Z" fill="black"/>
</svg>
