<svg width="24" height="24" viewBox="0 0 24 24" fill="none" xmlns="http://www.w3.org/2000/svg">
<path d="M18 2C19.6567 2.00013 20.9999 3.34334 21 5V20C20.9998 20.9284 20.0897 21.5845 19.209 21.291L18.5752 21.0791L17.1709 21.7822C16.7487 21.9932 16.2513 21.9933 15.8291 21.7822L14.5 21.1172L13.1709 21.7822C12.7487 21.9932 12.2513 21.9933 11.8291 21.7822L10.5 21.1172L9.1709 21.7822C8.74846 21.9933 8.25103 21.9932 7.8291 21.7822L6.77637 21.2559C6.30114 21.0181 6.00009 20.5321 6 20V9H3.09961C2.49241 8.99979 2.00021 8.5076 2 7.90039V5C2 3.34315 3.34315 2 5 2H18ZM7.82617 4C7.85066 4.06921 7.87215 4.1395 7.8916 4.21094C7.89768 4.23299 7.90359 4.2551 7.90918 4.27734C7.96654 4.50903 8 4.75059 8 5V19.6318L8.5 19.8818L9.8291 19.2178L9.99121 19.1484C10.3199 19.0299 10.6801 19.0299 11.0088 19.1484L11.1709 19.2178L12.5 19.8818L13.8291 19.2178L13.9912 19.1484C14.3199 19.0299 14.6801 19.0299 15.0088 19.1484L15.1709 19.2178L16.499 19.8818L17.8672 19.1982L18.0039 19.1387C18.322 19.0174 18.6735 19.0077 19 19.1133V5C18.9999 4.44791 18.5521 4.00013 18 4H7.82617ZM16 14C16.5521 14.0001 16.9999 14.4479 17 15C16.9999 15.5521 16.5521 15.9999 16 16H15C14.4479 15.9999 14.0001 15.5521 14 15C14.0001 14.4479 14.4479 14.0001 15 14H16ZM13 10C13.5521 10.0001 13.9999 10.4479 14 11C13.9999 11.5521 13.5521 11.9999 13 12H11C10.4479 11.9999 10.0001 11.5521 10 11C10.0001 10.4479 10.4479 10.0001 11 10H13ZM16 7C16.5521 7.00013 16.9999 7.44791 17 8C16.9999 8.55209 16.5521 8.99987 16 9H11C10.4479 8.99987 10.0001 8.55209 10 8C10.0001 7.44791 10.4479 7.00013 11 7H16ZM5 4C4.44772 4 4 4.44772 4 5V7H6V5C5.99999 4.96547 5.99854 4.93109 5.99512 4.89746C5.99168 4.86372 5.9862 4.83052 5.97949 4.79785C5.97282 4.76536 5.96482 4.7334 5.95508 4.70215L5.92188 4.61035C5.77002 4.25153 5.41415 4 5 4Z" fill="black"/>
</svg>
