<svg width="24" height="24" viewBox="0 0 24 24" fill="none" xmlns="http://www.w3.org/2000/svg">
<path d="M10 17C10.5523 17 11 17.4477 11 18C11 18.5523 10.5523 19 10 19H5C4.44772 19 4 18.5523 4 18C4 17.4477 4.44772 17 5 17H10ZM10 13C10.5523 13 11 13.4477 11 14C11 14.5523 10.5523 15 10 15H5C4.44772 15 4 14.5523 4 14C4 13.4477 4.44772 13 5 13H10ZM10 9C10.5523 9 11 9.44772 11 10C11 10.5523 10.5523 11 10 11H5C4.44772 11 4 10.5523 4 10C4 9.44772 4.44772 9 5 9H10ZM10 5C10.5523 5 11 5.44772 11 6C11 6.55228 10.5523 7 10 7H5C4.44772 7 4 6.55228 4 6C4 5.44772 4.44772 5 5 5H10Z" fill="black"/>
<path d="M19 17C19.5523 17 20 17.4477 20 18C20 18.5523 19.5523 19 19 19H14C13.4477 19 13 18.5523 13 18C13 17.4477 13.4477 17 14 17H19ZM19 13C19.5523 13 20 13.4477 20 14C20 14.5523 19.5523 15 19 15H14C13.4477 15 13 14.5523 13 14C13 13.4477 13.4477 13 14 13H19ZM19 9C19.5523 9 20 9.44772 20 10C20 10.5523 19.5523 11 19 11H14C13.4477 11 13 10.5523 13 10C13 9.44772 13.4477 9 14 9H19ZM19 5C19.5523 5 20 5.44772 20 6C20 6.55228 19.5523 7 19 7H14C13.4477 7 13 6.55228 13 6C13 5.44772 13.4477 5 14 5H19Z" fill="black"/>
</svg>
