<svg width="24" height="24" viewBox="0 0 24 24" fill="none" xmlns="http://www.w3.org/2000/svg">
<path fill-rule="evenodd" clip-rule="evenodd" d="M14.2929 6.70711C13.9024 6.31658 13.9024 5.68342 14.2929 5.29289C14.6834 4.90237 15.3166 4.90237 15.7071 5.29289L18.7071 8.29289C19.0976 8.68342 19.0976 9.31658 18.7071 9.70711L15.7071 12.7071C15.3166 13.0976 14.6834 13.0976 14.2929 12.7071C13.9024 12.3166 13.9024 11.6834 14.2929 11.2929L15.5858 10H9C7.34315 10 6 11.3431 6 13C6 14.6569 7.34315 16 9 16H12C12.5523 16 13 16.4477 13 17C13 17.5523 12.5523 18 12 18H9C6.23858 18 4 15.7614 4 13C4 10.2386 6.23858 8 9 8H15.5858L14.2929 6.70711Z" fill="#000716"/>
</svg>
