<svg width="24" height="24" viewBox="0 0 24 24" fill="none" xmlns="http://www.w3.org/2000/svg">
<path d="M19.073 16.1513C16.7948 20.0972 11.7492 21.4492 7.80324 19.171C3.85733 16.8928 2.50536 11.8472 4.78353 7.90128C7.06171 3.95537 12.1073 2.6034 16.0532 4.88157L16.904 5.37278L16.587 4.18951C16.4083 3.52268 16.8039 2.83742 17.4708 2.65875C18.1376 2.48007 18.8229 2.8757 19.0015 3.54254L20.0996 7.64061C20.2783 8.30744 19.8827 8.9927 19.2158 9.17138L15.1178 10.2695C14.4509 10.4481 13.7657 10.0525 13.587 9.38567C13.4083 8.71883 13.8039 8.03358 14.4708 7.8549L15.654 7.53784L14.8032 7.04663C12.0531 5.45881 8.53641 6.4011 6.9486 9.15128C5.36078 11.9015 6.30306 15.4181 9.05324 17.0059C11.8034 18.5937 15.3201 17.6515 16.9079 14.9013C17.2531 14.3034 18.0176 14.0986 18.6154 14.4437C19.2133 14.7889 19.4181 15.5534 19.073 16.1513Z" fill="black"/>
</svg>
