<svg width="24" height="24" viewBox="0 0 24 24" fill="none" xmlns="http://www.w3.org/2000/svg">
<path d="M19.2895 16.2763C16.9422 20.3418 11.7437 21.7347 7.67824 19.3875C3.61275 17.0403 2.21982 11.8418 4.56703 7.77628C6.91424 3.71079 12.1128 2.31785 16.1782 4.66506L16.5064 4.85452L16.3455 4.25421C16.1311 3.45401 16.6059 2.6317 17.4061 2.41729C18.2063 2.20288 19.0286 2.67764 19.243 3.47784L20.3411 7.57591C20.5555 8.37611 20.0807 9.19842 19.2805 9.41284L15.1825 10.5109C14.3823 10.7253 13.5599 10.2506 13.3455 9.45036C13.1311 8.65017 13.6059 7.82786 14.4061 7.61344L15.0064 7.45259L14.6782 7.26314C12.0476 5.74436 8.68389 6.64567 7.1651 9.27628C5.64632 11.9069 6.54763 15.2706 9.17824 16.7894C11.8089 18.3082 15.1726 17.4069 16.6914 14.7763C17.1056 14.0588 18.023 13.813 18.7404 14.2272C19.4579 14.6415 19.7037 15.5588 19.2895 16.2763Z" fill="#1D2129"/>
</svg>
