<svg width="24" height="24" viewBox="0 0 24 24" fill="none" xmlns="http://www.w3.org/2000/svg">
<path fill-rule="evenodd" clip-rule="evenodd" d="M18.8564 16.0263C19.1326 15.548 18.9687 14.9364 18.4904 14.6603C18.0121 14.3841 17.4005 14.548 17.1244 15.0263C15.4675 17.896 11.798 18.8793 8.92824 17.2224C6.05849 15.5656 5.07524 11.896 6.73209 9.02628C8.38894 6.15652 12.0585 5.17327 14.9282 6.83013L16.3016 7.62302L14.5354 8.09625C14.002 8.23919 13.6854 8.78753 13.8283 9.321C13.9713 9.85446 14.5196 10.171 15.0531 10.0281L19.1512 8.93003C19.6846 8.78709 20.0012 8.23875 19.8583 7.70528L18.7602 3.60721C18.6173 3.07374 18.0689 2.75716 17.5354 2.9001C17.002 3.04304 16.6854 3.59138 16.8283 4.12484L17.3016 5.89097L15.9282 5.09808C12.1019 2.88894 7.20918 4.19994 5.00004 8.02628C2.7909 11.8526 4.1019 16.7453 7.92824 18.9545C11.7546 21.1636 16.6473 19.8526 18.8564 16.0263Z" fill="#000716"/>
</svg>
