<svg width="24" height="24" viewBox="0 0 24 24" fill="none" xmlns="http://www.w3.org/2000/svg">
<path d="M4.87305 6.75586C4.95708 6.74733 5.04194 6.7474 5.12598 6.75586C5.19395 6.76266 5.2599 6.7767 5.32422 6.79395C5.33657 6.79725 5.34906 6.80002 5.36133 6.80371C5.37982 6.80929 5.3979 6.81586 5.41602 6.82227C5.43794 6.82999 5.4599 6.83769 5.48145 6.84668C5.54493 6.87321 5.60542 6.90521 5.66309 6.94141C5.67271 6.94745 5.68289 6.95266 5.69238 6.95898C5.71295 6.97269 5.73227 6.98806 5.75195 7.00293C5.76509 7.01287 5.77916 7.0217 5.79199 7.03223C5.8241 7.05853 5.85446 7.08689 5.88379 7.11621L8.88379 10.1162C9.37194 10.6044 9.37194 11.3956 8.88379 11.8838C8.39563 12.3719 7.60437 12.3719 7.11621 11.8838L6.25 11.0176V12C6.25 15.1756 8.82436 17.75 12 17.75C12.8842 17.75 13.7187 17.5513 14.4639 17.1973C15.0874 16.9012 15.8327 17.1666 16.1289 17.79C16.4251 18.4136 16.1597 19.1589 15.5361 19.4551C14.4628 19.9649 13.263 20.25 12 20.25C7.44365 20.25 3.75 16.5563 3.75 12V11.0176L2.88379 11.8838C2.39563 12.3719 1.60437 12.3719 1.11621 11.8838C0.628056 11.3956 0.628056 10.6044 1.11621 10.1162L4.11621 7.11621C4.14536 7.08706 4.17513 7.05839 4.20703 7.03223C4.21985 7.0217 4.23394 7.01287 4.24707 7.00293C4.26673 6.98806 4.2861 6.9727 4.30664 6.95898C4.31613 6.95265 4.32632 6.94745 4.33594 6.94141C4.39356 6.90518 4.45413 6.87325 4.51758 6.84668C4.53912 6.83768 4.5611 6.83001 4.58301 6.82227C4.60112 6.81585 4.61921 6.8093 4.6377 6.80371C4.64995 6.80001 4.66246 6.79726 4.6748 6.79395C4.7391 6.77665 4.80509 6.76271 4.87305 6.75586ZM12 3.75C16.5563 3.75 20.25 7.44365 20.25 12V12.9824L21.1162 12.1162C21.6044 11.6281 22.3956 11.6281 22.8838 12.1162C23.3719 12.6044 23.3719 13.3956 22.8838 13.8838L19.8838 16.8838C19.8654 16.9022 19.8457 16.9193 19.8262 16.9365C19.8022 16.9577 19.7771 16.9771 19.752 16.9961C19.7323 17.011 19.713 17.0263 19.6924 17.04C19.6829 17.0464 19.6727 17.0516 19.6631 17.0576C19.6054 17.0939 19.545 17.1258 19.4814 17.1523C19.4599 17.1613 19.438 17.169 19.416 17.1768C19.3979 17.1832 19.3798 17.1897 19.3613 17.1953C19.3491 17.199 19.3366 17.2018 19.3242 17.2051C19.2599 17.2224 19.194 17.2364 19.126 17.2432C19.0419 17.2516 18.9571 17.2517 18.873 17.2432C18.805 17.2363 18.7391 17.2224 18.6748 17.2051C18.6625 17.2018 18.65 17.199 18.6377 17.1953C18.6192 17.1897 18.6011 17.1832 18.583 17.1768C18.5611 17.169 18.5391 17.1614 18.5176 17.1523C18.4541 17.1257 18.3936 17.0939 18.3359 17.0576C18.3283 17.0528 18.3201 17.0489 18.3125 17.0439L18.3008 17.0361C18.2823 17.0236 18.2649 17.0096 18.2471 16.9961C18.2221 16.9772 18.1976 16.9575 18.1738 16.9365C18.1543 16.9193 18.1346 16.9022 18.1162 16.8838L15.1162 13.8838C14.6281 13.3956 14.6281 12.6044 15.1162 12.1162C15.6044 11.6281 16.3956 11.6281 16.8838 12.1162L17.75 12.9824V12C17.75 8.82436 15.1756 6.25 12 6.25C11.1158 6.25 10.2813 6.44873 9.53613 6.80273C8.91261 7.0988 8.1673 6.83344 7.87109 6.20996C7.57487 5.58639 7.8403 4.84115 8.46387 4.54492C9.53716 4.03506 10.737 3.75 12 3.75Z" fill="#1D2129"/>
</svg>
