<svg width="24" height="24" viewBox="0 0 24 24" fill="none" xmlns="http://www.w3.org/2000/svg">
<path fill-rule="evenodd" clip-rule="evenodd" d="M9.42909 6.57689C10.2071 6.2073 11.0779 6 12 6C15.3137 6 18 8.68629 18 12V13.5858L16.7071 12.2929C16.3166 11.9024 15.6834 11.9024 15.2929 12.2929C14.9024 12.6834 14.9024 13.3166 15.2929 13.7071L18.2929 16.7071C18.3888 16.803 18.4993 16.8753 18.6172 16.9241C18.7343 16.9727 18.8625 16.9996 18.997 17C18.998 17 18.999 17 19 17C19.001 17 19.002 17 19.003 17C19.2746 16.9992 19.5208 16.8901 19.7005 16.7136C19.7031 16.7111 19.7056 16.7086 19.7081 16.7061L22.7071 13.7071C23.0976 13.3166 23.0976 12.6834 22.7071 12.2929C22.3166 11.9024 21.6834 11.9024 21.2929 12.2929L20 13.5858V12C20 7.58172 16.4183 4 12 4C10.7749 4 9.61141 4.27608 8.57091 4.77037C8.07205 5.00735 7.85976 5.60387 8.09674 6.10272C8.33372 6.60158 8.93023 6.81387 9.42909 6.57689ZM5.38278 7.07588C5.26488 7.02699 5.13559 7 5 7C4.86441 7 4.73512 7.02699 4.61722 7.07588C4.49927 7.12468 4.38877 7.19702 4.29289 7.29289L1.29289 10.2929C0.902369 10.6834 0.902369 11.3166 1.29289 11.7071C1.68342 12.0976 2.31658 12.0976 2.70711 11.7071L4 10.4142V12C4 16.4183 7.58172 20 12 20C13.2251 20 14.3886 19.7239 15.4291 19.2296C15.9279 18.9926 16.1402 18.3961 15.9033 17.8973C15.6663 17.3984 15.0698 17.1861 14.5709 17.4231C13.7929 17.7927 12.9221 18 12 18C8.68629 18 6 15.3137 6 12V10.4142L7.29289 11.7071C7.68342 12.0976 8.31658 12.0976 8.70711 11.7071C9.09763 11.3166 9.09763 10.6834 8.70711 10.2929L5.70739 7.29318M5.70498 7.29078C5.6096 7.19595 5.49986 7.12432 5.38278 7.07588Z" fill="#000716"/>
</svg>
