<svg width="24" height="24" viewBox="0 0 24 24" fill="none" xmlns="http://www.w3.org/2000/svg">
<path d="M10.5 2.5C14.9183 2.5 18.5 6.08172 18.5 10.5C18.5 12.167 17.9885 13.7137 17.1162 14.9951L21.0605 18.9395C21.6463 19.5252 21.6463 20.4748 21.0605 21.0605C20.4748 21.6463 19.5252 21.6463 18.9395 21.0605L14.9951 17.1162C13.7137 17.9885 12.167 18.5 10.5 18.5C6.08172 18.5 2.5 14.9183 2.5 10.5C2.5 6.08172 6.08172 2.5 10.5 2.5ZM10.5 5.5C7.73858 5.5 5.5 7.73858 5.5 10.5C5.5 13.2614 7.73858 15.5 10.5 15.5C13.2614 15.5 15.5 13.2614 15.5 10.5C15.5 7.73858 13.2614 5.5 10.5 5.5Z" fill="black"/>
</svg>
