<svg width="24" height="24" viewBox="0 0 24 24" fill="none" xmlns="http://www.w3.org/2000/svg">
<path fill-rule="evenodd" clip-rule="evenodd" d="M7 10.5C7 8.567 8.567 7 10.5 7C12.433 7 14 8.567 14 10.5C14 12.433 12.433 14 10.5 14C8.567 14 7 12.433 7 10.5ZM10.5 5C7.46243 5 5 7.46243 5 10.5C5 13.5376 7.46243 16 10.5 16C11.6575 16 12.7315 15.6424 13.6175 15.0317L16.2929 17.7071C16.6834 18.0976 17.3166 18.0976 17.7071 17.7071C18.0976 17.3166 18.0976 16.6834 17.7071 16.2929L15.0317 13.6175C15.6424 12.7315 16 11.6575 16 10.5C16 7.46243 13.5376 5 10.5 5Z" fill="#000716"/>
</svg>
