<svg width="24" height="24" viewBox="0 0 24 24" fill="none" xmlns="http://www.w3.org/2000/svg">
<path fill-rule="evenodd" clip-rule="evenodd" d="M8.77162 3.5C6.65372 3.5 4.90289 5.15086 4.77852 7.26511L4.64706 9.5H4.00548C2.72204 9.5 1.77078 10.6917 2.05522 11.9432L3.82303 19.7216C3.9265 20.1769 4.33126 20.5 4.79816 20.5H5.25L5.8618 21.7236C5.9465 21.893 6.11963 22 6.30902 22H7.69098C7.88037 22 8.0535 21.893 8.1382 21.7236L8.75 20.5H15.25L15.8618 21.7236C15.9465 21.893 16.1196 22 16.309 22H17.691C17.8804 22 18.0535 21.893 18.1382 21.7236L18.75 20.5H19.2018C19.6687 20.5 20.0734 20.1769 20.1769 19.7216L21.9447 11.9432C22.2292 10.6917 21.2779 9.5 19.9945 9.5H19.3529L19.2215 7.26511C19.0971 5.15086 17.3463 3.5 15.2284 3.5H8.77162ZM16 16.5V18.5H7.99993V16.5H16Z" fill="black"/>
</svg>
