<svg width="24" height="24" viewBox="0 0 24 24" fill="none" xmlns="http://www.w3.org/2000/svg">
<path d="M5.7926 2.29285C6.18315 1.90258 6.8172 1.90338 7.20764 2.29382L23.2076 18.2928C23.598 18.6834 23.5971 19.3164 23.2067 19.7069C22.8161 20.0973 22.1831 20.0974 21.7926 19.7069L18.7516 16.6659L17.7008 20.0126C17.363 21.0871 16.0051 21.4204 15.2086 20.6239L11.6783 17.0936L9.52698 20.118C9.27988 20.4653 8.73895 20.3642 8.6344 19.951L7.2467 14.4696L2.45276 12.8719C1.13743 12.4323 1.0721 10.5952 2.35315 10.0634L9.27795 7.19128L5.79358 3.70691C5.4033 3.31649 5.40247 2.68336 5.7926 2.29285ZM12.1403 14.7264L16.0397 18.6259L17.1559 15.0702L14.2565 12.1708L12.1403 14.7264ZM4.35608 11.3973L8.22913 12.6893L12.1862 10.1005L10.8073 8.72058L4.35608 11.3973ZM19.6373 2.89734C21.206 2.24704 22.8201 3.72457 22.3112 5.3446L20.1627 12.1766L18.568 10.5819L20.403 4.74402L14.9781 6.99207L13.4489 5.46277L19.6373 2.89734ZM17.6783 6.5116C18.1583 6.19784 18.7032 6.80731 18.3375 7.2489L16.9313 8.94519L15.7545 7.76843L17.6783 6.5116Z" fill="black"/>
</svg>
