<svg width="24" height="24" viewBox="0 0 24 24" fill="none" xmlns="http://www.w3.org/2000/svg">
<path fill-rule="evenodd" clip-rule="evenodd" d="M2.45328 12.8721C1.13727 12.4329 1.07182 10.5956 2.35315 10.0637L19.6372 2.89733C21.206 2.24688 22.8202 3.72439 22.311 5.34458L17.701 20.0129C17.3632 21.0874 16.0053 21.4205 15.2088 20.624L11.6788 17.094L9.52711 20.1186C9.28001 20.4658 8.73949 20.3646 8.63494 19.9514L7.24697 14.47L2.45328 12.8721ZM8.22891 12.6898L17.6789 6.51158C18.1589 6.19776 18.7035 6.80747 18.3376 7.24907L12.1401 14.7269L16.0395 18.6263L20.403 4.7445L4.3557 11.3978L8.22891 12.6898Z" fill="black"/>
</svg>
