<svg width="24" height="24" viewBox="0 0 24 24" fill="none" xmlns="http://www.w3.org/2000/svg">
<path fill-rule="evenodd" clip-rule="evenodd" d="M4.77567 10.2649C4.37356 9.96047 4.26104 9.4043 4.5132 8.96754L5.63042 7.03246C5.88258 6.5957 6.4205 6.41506 6.88517 6.61111L8.22814 7.17771L9.70981 6.32227L9.8906 4.87596C9.95315 4.37554 10.3786 4 10.8829 4H13.1173C13.6216 4 14.047 4.37554 14.1096 4.87597L14.2904 6.32233L15.7719 7.17771L17.1149 6.61111C17.5796 6.41506 18.1175 6.5957 18.3697 7.03246L19.4869 8.96754C19.739 9.4043 19.6265 9.96047 19.2244 10.2649L18.0622 11.1446L18.0622 12.8554L19.2244 13.7351C19.6265 14.0395 19.739 14.5957 19.4868 15.0325L18.3696 16.9675C18.1174 17.4043 17.5795 17.5849 17.1149 17.3889L15.7719 16.8223L14.2904 17.6777L14.1096 19.124C14.047 19.6245 13.6216 20 13.1173 20H10.8829C10.3786 20 9.95315 19.6245 9.8906 19.124L9.70981 17.6777L8.22816 16.8223L6.88523 17.3889C6.42056 17.5849 5.88264 17.4043 5.63048 16.9675L4.51326 15.0325C4.2611 14.5957 4.37362 14.0395 4.77573 13.7351L5.93786 12.8554L5.93786 11.1446L4.77567 10.2649ZM12 15C13.6569 15 15 13.6569 15 12C15 10.3431 13.6569 9 12 9C10.3431 9 9 10.3431 9 12C9 13.6569 10.3431 15 12 15Z" fill="#000716"/>
</svg>
