<svg width="24" height="24" viewBox="0 0 24 24" fill="none" xmlns="http://www.w3.org/2000/svg">
<path d="M12 1.5C11.4262 1.5 10.9397 1.92192 10.8586 2.48995L10.6261 4.11753C10.1511 4.19975 9.6904 4.32386 9.24804 4.48591L8.23344 3.19335C7.87915 2.742 7.24689 2.61984 6.74997 2.90674C6.25304 3.19364 6.0427 3.80227 6.25644 4.33477L6.86932 5.86166C6.50435 6.16705 6.16702 6.50437 5.86164 6.86934L4.33477 6.25648C3.80227 6.04274 3.19364 6.25308 2.90674 6.75C2.61984 7.24693 2.74199 7.87919 3.19335 8.23348L4.4859 9.24807C4.32385 9.69042 4.19975 10.1511 4.11753 10.6261L2.48995 10.8586C1.92192 10.9397 1.5 11.4262 1.5 12C1.5 12.5738 1.92192 13.0603 2.48995 13.1414L4.11753 13.3739C4.19975 13.8489 4.32385 14.3096 4.4859 14.7519L3.19335 15.7665C2.742 16.1208 2.61984 16.7531 2.90674 17.25C3.19364 17.7469 3.80227 17.9573 4.33477 17.7435L5.86164 17.1307C6.16704 17.4956 6.50438 17.833 6.86937 18.1384L6.25651 19.6652C6.04277 20.1977 6.25311 20.8064 6.75003 21.0933C7.24696 21.3802 7.87922 21.258 8.23351 20.8067L9.24809 19.5141C9.69043 19.6762 10.1511 19.8003 10.6261 19.8825L10.8586 21.51C10.9397 22.0781 11.4262 22.5 12 22.5C12.5738 22.5 13.0603 22.0781 13.1414 21.5101L13.3739 19.8825C13.8489 19.8003 14.3096 19.6761 14.752 19.5141L15.7666 20.8067C16.1208 21.258 16.7531 21.3802 17.25 21.0933C17.747 20.8064 17.9573 20.1977 17.7436 19.6652L17.1307 18.1383C17.4957 17.833 17.833 17.4956 18.1384 17.1307L19.6652 17.7435C20.1977 17.9573 20.8064 17.7469 21.0933 17.25C21.3802 16.7531 21.258 16.1208 20.8067 15.7665L19.5141 14.7519C19.6762 14.3096 19.8003 13.8489 19.8825 13.3739L21.51 13.1414C22.0781 13.0603 22.5 12.5738 22.5 12C22.5 11.4262 22.0781 10.9397 21.5101 10.8586L19.8825 10.6261C19.8003 10.1511 19.6761 9.69041 19.5141 9.24806L20.8067 8.23347C21.258 7.87918 21.3802 7.24692 21.0933 6.75C20.8064 6.25307 20.1977 6.04273 19.6652 6.25647L18.1384 6.86934C17.833 6.50435 17.4956 6.16701 17.1306 5.86162L17.7435 4.33477C17.9572 3.80227 17.7469 3.19364 17.25 2.90674C16.753 2.61984 16.1208 2.74199 15.7665 3.19335L14.7519 4.48589C14.3096 4.32385 13.8489 4.19974 13.3739 4.11753L13.1414 2.48995C13.0603 1.92192 12.5738 1.5 12 1.5ZM17.8408 13.3788C17.2179 16.0279 14.8392 18 12 18C11.3999 18 10.8203 17.9119 10.2735 17.7479L12.6009 13.0408L17.8408 13.3788ZM17.9686 11.3829L12.5984 11.0365L9.90714 6.3751C10.5588 6.13256 11.2639 6 12 6C15.1053 6 17.6597 8.35909 17.9686 11.3829ZM8.17584 7.3764L10.8664 12.0365L8.48123 16.8604C6.97779 15.7701 6 13.9992 6 12C6 10.1396 6.84673 8.47693 8.17584 7.3764Z" fill="black"/>
</svg>
