<svg width="24" height="24" viewBox="0 0 24 24" fill="none" xmlns="http://www.w3.org/2000/svg">
<path d="M7 6.00008C7.55228 6.00008 8 6.44779 8 7.00008C7.99992 7.55229 7.55223 8.00008 7 8.00008H6C5.44772 8.00008 5 8.44779 5 9.00008V19.0001C5.00008 19.5523 5.44777 20.0001 6 20.0001H18C18.5522 20.0001 18.9999 19.5523 19 19.0001V9.00008C19 8.44779 18.5523 8.00008 18 8.00008H17C16.4478 8.00008 16.0001 7.55229 16 7.00008C16 6.44779 16.4477 6.00008 17 6.00008H18C19.6569 6.00008 21 7.34322 21 9.00008V19.0001C20.9999 20.6569 19.6568 22.0001 18 22.0001H6C4.3432 22.0001 3.00008 20.6569 3 19.0001V9.00008C3 7.34322 4.34315 6.00008 6 6.00008H7ZM11.293 0.293046C11.6835 -0.0974784 12.3165 -0.0974784 12.707 0.293046L15.707 3.29305C16.0975 3.68358 16.0975 4.31661 15.707 4.70711C15.3165 5.09753 14.6835 5.09753 14.293 4.70711L13 3.41414V12.0001C12.9999 12.5523 12.5522 13.0001 12 13.0001C11.4478 13.0001 11.0001 12.5523 11 12.0001V3.41414L9.70703 4.70711C9.31653 5.09753 8.68347 5.09753 8.29297 4.70711C7.90247 4.31661 7.90252 3.68358 8.29297 3.29305L11.293 0.293046Z" fill="#1D2129"/>
</svg>
