<svg width="24" height="24" viewBox="0 0 24 24" fill="none" xmlns="http://www.w3.org/2000/svg">
<path fill-rule="evenodd" clip-rule="evenodd" d="M17 10C18.6569 10 20 8.65685 20 7C20 5.34315 18.6569 4 17 4C15.3431 4 14 5.34315 14 7C14 7.08764 14.0038 7.17439 14.0111 7.26012L8.16111 9.91922C7.61537 9.35255 6.84886 9 6 9C4.34315 9 3 10.3431 3 12C3 13.6569 4.34315 15 6 15C6.84886 15 7.61537 14.6474 8.16111 14.0808L14.0111 16.7399C14.0038 16.8256 14 16.9124 14 17C14 18.6569 15.3431 20 17 20C18.6569 20 20 18.6569 20 17C20 15.3431 18.6569 14 17 14C16.1511 14 15.3846 14.3526 14.8389 14.9192L8.98888 12.2601C8.99624 12.1744 9 12.0876 9 12C9 11.9124 8.99624 11.8256 8.98888 11.7399L14.8389 9.08078C15.3846 9.64745 16.1511 10 17 10Z" fill="#000716"/>
</svg>
