<svg width="24" height="24" viewBox="0 0 24 24" fill="none" xmlns="http://www.w3.org/2000/svg">
<path fill-rule="evenodd" clip-rule="evenodd" d="M8.29289 5.29289C7.90237 5.68342 7.90237 6.31658 8.29289 6.70711C8.68342 7.09763 9.31658 7.09763 9.70711 6.70711L11 5.41421V13C11 13.5523 11.4477 14 12 14C12.5523 14 13 13.5523 13 13V5.41421L14.2929 6.70711C14.6834 7.09763 15.3166 7.09763 15.7071 6.70711C16.0976 6.31658 16.0976 5.68342 15.7071 5.29289L12.7071 2.29289C12.3166 1.90237 11.6834 1.90237 11.2929 2.29289L8.29289 5.29289ZM8 21C6.34315 21 5 19.6569 5 18V12C5 10.3431 6.34315 9 8 9H8.5C9.05228 9 9.5 9.44771 9.5 10C9.5 10.5523 9.05228 11 8.5 11H8C7.44772 11 7 11.4477 7 12V18C7 18.5523 7.44772 19 8 19H16C16.5523 19 17 18.5523 17 18V12C17 11.4477 16.5523 11 16 11H15.5C14.9477 11 14.5 10.5523 14.5 10C14.5 9.44771 14.9477 9 15.5 9H16C17.6569 9 19 10.3431 19 12V18C19 19.6569 17.6569 21 16 21H8Z" fill="#000716"/>
</svg>
