<svg width="24" height="24" viewBox="0 0 24 24" fill="none" xmlns="http://www.w3.org/2000/svg">
<path fill-rule="evenodd" clip-rule="evenodd" d="M8.29289 5.29289C7.90237 5.68342 7.90237 6.31658 8.29289 6.70711C8.68342 7.09763 9.31658 7.09763 9.70711 6.70711L11 5.41421V14C11 14.5523 11.4477 15 12 15C12.5523 15 13 14.5523 13 14V5.41421L14.2929 6.70711C14.6834 7.09763 15.3166 7.09763 15.7071 6.70711C16.0976 6.31658 16.0976 5.68342 15.7071 5.29289L12.7071 2.29289C12.3166 1.90237 11.6834 1.90237 11.2929 2.29289L8.29289 5.29289ZM7 22C5.34315 22 4 20.6569 4 19V11C4 9.34315 5.34315 8 7 8H8C8.55228 8 9 8.44771 9 9C9 9.55229 8.55228 10 8 10H7C6.44772 10 6 10.4477 6 11V19C6 19.5523 6.44772 20 7 20H17C17.5523 20 18 19.5523 18 19V11C18 10.4477 17.5523 10 17 10H16C15.4477 10 15 9.55229 15 9C15 8.44771 15.4477 8 16 8H17C18.6569 8 20 9.34315 20 11V19C20 20.6569 18.6569 22 17 22H7Z" fill="#000716"/>
</svg>
