<svg width="24" height="24" viewBox="0 0 24 24" fill="none" xmlns="http://www.w3.org/2000/svg">
<path d="M10 15C11.3059 15 12.4141 15.8353 12.8262 17H20L20.1025 17.0049C20.6067 17.0562 21 17.4823 21 18C21 18.5177 20.6067 18.9438 20.1025 18.9951L20 19H12.8262C12.4141 20.1647 11.3059 21 10 21C8.69415 21 7.58594 20.1647 7.17383 19H5C4.44772 19 4 18.5523 4 18C4 17.4477 4.44772 17 5 17H7.17383C7.58594 15.8353 8.69415 15 10 15ZM10 17C9.44772 17 9 17.4477 9 18C9 18.5523 9.44772 19 10 19C10.5523 19 11 18.5523 11 18C11 17.4477 10.5523 17 10 17ZM17 9C18.3059 9 19.4141 9.83532 19.8262 11H20L20.1025 11.0049C20.6067 11.0562 21 11.4823 21 12C21 12.5177 20.6067 12.9438 20.1025 12.9951L20 13H19.8262C19.4141 14.1647 18.3059 15 17 15C15.6941 15 14.5859 14.1647 14.1738 13H5C4.44772 13 4 12.5523 4 12C4 11.4477 4.44772 11 5 11H14.1738C14.5859 9.83532 15.6941 9 17 9ZM17 11C16.4477 11 16 11.4477 16 12C16 12.5523 16.4477 13 17 13C17.5523 13 18 12.5523 18 12C18 11.4477 17.5523 11 17 11ZM10 3C11.3059 3 12.4141 3.83532 12.8262 5H20L20.1025 5.00488C20.6067 5.05621 21 5.48232 21 6C21 6.51768 20.6067 6.94379 20.1025 6.99512L20 7H12.8262C12.4141 8.16468 11.3059 9 10 9C8.69415 9 7.58594 8.16468 7.17383 7H5C4.44772 7 4 6.55228 4 6C4 5.44772 4.44772 5 5 5H7.17383C7.58594 3.83532 8.69415 3 10 3ZM10 5C9.44772 5 9 5.44772 9 6C9 6.55228 9.44772 7 10 7C10.5523 7 11 6.55228 11 6C11 5.44772 10.5523 5 10 5Z" fill="black"/>
</svg>
