<svg width="24" height="24" viewBox="0 0 24 24" fill="none" xmlns="http://www.w3.org/2000/svg">
<path d="M17 1C18.1046 1 19 1.89543 19 3V21C19 22.1046 18.1046 23 17 23H7C5.89543 23 5 22.1046 5 21V3C5 1.89543 5.89543 1 7 1H17ZM12 19C11.1716 19 10.5 19.6716 10.5 20.5C10.5 21.3284 11.1716 22 12 22C12.8284 22 13.5 21.3284 13.5 20.5C13.5 19.6716 12.8284 19 12 19ZM8 4C7.44772 4 7 4.44772 7 5V17C7 17.5523 7.44772 18 8 18H16C16.5523 18 17 17.5523 17 17V5C17 4.44772 16.5523 4 16 4H8Z" fill="black"/>
</svg>
