<svg width="24" height="24" viewBox="0 0 24 24" fill="none" xmlns="http://www.w3.org/2000/svg">
<path fill-rule="evenodd" clip-rule="evenodd" d="M10.7721 4.48688C11.1768 3.32265 12.8233 3.32265 13.228 4.48688L14.597 8.42552L18.766 8.51048C19.9983 8.53559 20.5071 10.1015 19.5249 10.8461L16.2021 13.3653L17.4095 17.3565C17.7665 18.5362 16.4344 19.504 15.4227 18.8L12 16.4183L8.57734 18.8C7.56562 19.504 6.23359 18.5362 6.5905 17.3565L7.79798 13.3653L4.47517 10.8461C3.49298 10.1015 4.00177 8.53559 5.23408 8.51048L9.40302 8.42552L10.7721 4.48688ZM12 7.04571L11.1322 9.54228C10.9537 10.0559 10.4744 10.4041 9.93077 10.4152L7.28822 10.469L9.39443 12.0659C9.82772 12.3943 10.0108 12.9578 9.85334 13.4782L9.08797 16.0081L11.2575 14.4984C11.7038 14.1878 12.2962 14.1878 12.7426 14.4984L14.9121 16.0081L14.1467 13.4782C13.9892 12.9578 14.1723 12.3943 14.6056 12.0659L16.7118 10.469L14.0693 10.4152C13.5257 10.4041 13.0464 10.0559 12.8678 9.54228L12 7.04571Z" fill="#000716"/>
</svg>
