<svg width="24" height="24" viewBox="0 0 24 24" fill="none" xmlns="http://www.w3.org/2000/svg">
<path d="M11.7166 3.31522C11.81 3.04655 12.19 3.04655 12.2834 3.31522L14.2826 9.06675C14.3238 9.18527 14.4344 9.26563 14.5599 9.26819L20.6477 9.39225C20.9321 9.39804 21.0495 9.7594 20.8228 9.93125L15.9706 13.6099C15.8706 13.6858 15.8283 13.8158 15.8647 13.9359L17.6279 19.7641C17.7103 20.0363 17.4029 20.2597 17.1694 20.0972L12.1714 16.6192C12.0684 16.5476 11.9316 16.5476 11.8286 16.6192L6.83057 20.0972C6.5971 20.2597 6.2897 20.0363 6.37207 19.7641L8.13532 13.9359C8.17166 13.8158 8.12941 13.6858 8.02942 13.6099L3.17719 9.93125C2.95053 9.75941 3.06794 9.39804 3.35232 9.39225L9.44014 9.26819C9.5656 9.26563 9.6762 9.18527 9.7174 9.06675L11.7166 3.31522Z" fill="black" stroke="black" stroke-width="2" stroke-linecap="round" stroke-linejoin="round"/>
</svg>
