<svg width="24" height="24" viewBox="0 0 24 24" fill="none" xmlns="http://www.w3.org/2000/svg">
<path fill-rule="evenodd" clip-rule="evenodd" d="M23.5769 11.9615C23.5769 10.3205 22.7821 9.02564 21.2628 9.02564C19.7372 9.02564 18.8141 10.3205 18.8141 11.9487C18.8141 13.8782 19.9038 14.8526 21.468 14.8526C22.2308 14.8526 22.8077 14.6795 23.2436 14.4359V13.1538C22.8077 13.3718 22.3077 13.5064 21.6731 13.5064C21.0513 13.5064 20.5 13.2885 20.4295 12.5321H23.5641C23.5641 12.4487 23.5769 12.1154 23.5769 11.9615ZM20.4103 11.3526C20.4103 10.6282 20.8526 10.3269 21.2564 10.3269C21.6474 10.3269 22.0641 10.6282 22.0641 11.3526H20.4103ZM16.3397 9.02564C15.7115 9.02564 15.3077 9.32051 15.0833 9.52564L15 9.12821H13.5897V16.6026L15.1923 16.2628L15.1987 14.4487C15.4295 14.6154 15.7692 14.8526 16.3333 14.8526C17.4808 14.8526 18.5256 13.9295 18.5256 11.8974C18.5192 10.0385 17.4615 9.02564 16.3397 9.02564ZM15.9551 13.4423C15.5769 13.4423 15.3526 13.3077 15.1987 13.141L15.1923 10.7628C15.359 10.5769 15.5897 10.4487 15.9551 10.4487C16.5385 10.4487 16.9423 11.1026 16.9423 11.9423C16.9423 12.8013 16.5449 13.4423 15.9551 13.4423ZM11.3846 8.64744L12.9936 8.30128V7L11.3846 7.33974V8.64744ZM11.3846 9.13462H12.9936V14.7436H11.3846V9.13462ZM9.66026 9.60897L9.55769 9.13462H8.17308V14.7436H9.77564V10.9423C10.1538 10.4487 10.7949 10.5385 10.9936 10.609V9.13462C10.7885 9.05769 10.0385 8.91667 9.66026 9.60897ZM6.45513 7.74359L4.89103 8.07692L4.88462 13.2115C4.88462 14.1603 5.59615 14.859 6.54487 14.859C7.07051 14.859 7.45513 14.7628 7.66667 14.6474V13.3462C7.46154 13.4295 6.44872 13.7244 6.44872 12.7756V10.5H7.66667V9.13462H6.44872L6.45513 7.74359ZM2.1218 10.7628C2.1218 10.5128 2.32692 10.4167 2.66667 10.4167C3.15385 10.4167 3.76923 10.5641 4.25641 10.8269V9.32051C3.72436 9.10897 3.19872 9.02564 2.66667 9.02564C1.36538 9.02564 0.5 9.70513 0.5 10.8397C0.5 12.609 2.9359 12.3269 2.9359 13.0897C2.9359 13.3846 2.67949 13.4808 2.32051 13.4808C1.78846 13.4808 1.10897 13.2628 0.570513 12.9679V14.4936C1.16667 14.75 1.76923 14.859 2.32051 14.859C3.65385 14.859 4.57051 14.1987 4.57051 13.0513C4.5641 11.141 2.1218 11.4808 2.1218 10.7628Z" fill="#635BFF"/>
</svg>
