<svg width="24" height="24" viewBox="0 0 24 24" fill="none" xmlns="http://www.w3.org/2000/svg">
<path fill-rule="evenodd" clip-rule="evenodd" d="M12 22C17.5228 22 22 17.5228 22 12C22 6.47715 17.5228 2 12 2C6.47715 2 2 6.47715 2 12C2 17.5228 6.47715 22 12 22ZM16.5812 8.18628C17.0306 8.50729 17.1347 9.13184 16.8137 9.58125L11.8137 16.5813C11.6284 16.8407 11.3305 16.9962 11.0116 16.9999C10.6928 17.0037 10.3913 16.8551 10.2 16.6L7.2 12.6C6.86863 12.1582 6.95817 11.5314 7.4 11.2C7.84183 10.8686 8.46863 10.9582 8.8 11.4L10.9803 14.3071L15.1863 8.41878C15.5073 7.96937 16.1318 7.86527 16.5812 8.18628Z" fill="#000716"/>
</svg>
