<svg width="24" height="24" viewBox="0 0 24 24" fill="none" xmlns="http://www.w3.org/2000/svg">
<path d="M12 12.8828C13.3685 12.8828 14.5473 13.0762 15.459 13.54C15.4836 13.5526 15.508 13.5652 15.5322 13.5781C15.712 13.674 15.8806 13.7809 16.0381 13.8994C16.0572 13.9138 16.076 13.9286 16.0947 13.9434C16.3786 14.166 16.6229 14.4279 16.8252 14.7334C16.8278 14.7373 16.8304 14.7412 16.833 14.7451C17.2638 15.4017 17.5 16.2566 17.5 17.3506C17.5 20.8131 6.5 20.8131 6.5 17.3506C6.50002 16.4843 6.64774 15.7676 6.92285 15.1807V15.1816C6.94131 15.1422 6.96087 15.1037 6.98047 15.0654C6.99817 15.0309 7.01555 14.9965 7.03418 14.9629C7.05587 14.9238 7.07863 14.8855 7.10156 14.8477C7.11425 14.8267 7.12659 14.8057 7.13965 14.7852C7.16201 14.75 7.18553 14.7157 7.20898 14.6816C7.22377 14.6602 7.23771 14.6382 7.25293 14.6172C7.28912 14.5671 7.32663 14.5183 7.36523 14.4707C7.37791 14.4551 7.39136 14.4402 7.4043 14.4248C7.42959 14.3947 7.45517 14.365 7.48145 14.3359C7.50976 14.3047 7.53892 14.2743 7.56836 14.2441C7.57784 14.2344 7.58708 14.2245 7.59668 14.2148C7.65404 14.1575 7.71395 14.103 7.77539 14.0498C7.79088 14.0364 7.80554 14.022 7.82129 14.0088C7.84012 13.9931 7.85971 13.9782 7.87891 13.9629C7.90747 13.94 7.93645 13.9176 7.96582 13.8955C8.04207 13.8383 8.12061 13.7833 8.20215 13.7314C8.21912 13.7206 8.23671 13.7108 8.25391 13.7002C8.32151 13.6587 8.39088 13.6191 8.46191 13.5811C8.48776 13.5672 8.51374 13.5534 8.54004 13.54C8.62704 13.4958 8.7158 13.4525 8.80762 13.4131C8.8095 13.4123 8.81159 13.4119 8.81348 13.4111C9.68291 13.0393 10.7644 12.8828 12 12.8828ZM4.90918 10.4727C6.57824 10.4727 7.84977 10.8697 8.44531 11.9434C7.97744 12.1231 7.53558 12.3527 7.13184 12.6455C6.1854 13.3319 5.56313 14.2703 5.24707 15.4111C3.18672 15.4851 1.00026 14.8822 1 13.6006C1 11.2551 2.56367 10.4727 4.90918 10.4727ZM19.0889 10.4727C21.4344 10.4727 22.998 11.255 22.998 13.6006C22.9978 14.882 20.812 15.4849 18.752 15.4111C18.4359 14.2704 17.8145 13.3319 16.8682 12.6455C16.4636 12.3521 16.0207 12.1223 15.5518 11.9424C16.1474 10.869 17.4202 10.4727 19.0889 10.4727ZM12 5C13.8225 5 15.2997 6.50009 15.2998 8.35059C15.2998 10.2012 13.8225 11.7012 12 11.7012C10.1775 11.7012 8.7002 10.2012 8.7002 8.35059C8.7003 6.50009 10.1775 5.00001 12 5ZM4.90918 5C6.20459 5 7.25488 6.05029 7.25488 7.3457C7.2548 8.64104 6.20454 9.69141 4.90918 9.69141C3.61383 9.69139 2.56356 8.64103 2.56348 7.3457C2.56348 6.0503 3.61378 5.00002 4.90918 5ZM19.0889 5C20.3843 5 21.4346 6.05029 21.4346 7.3457C21.4345 8.64104 20.3842 9.69141 19.0889 9.69141C17.7937 9.69118 16.7442 8.64091 16.7441 7.3457C16.7441 6.05043 17.7936 5.00022 19.0889 5Z" fill="#1D2129"/>
</svg>
