<svg width="24" height="24" viewBox="0 0 24 24" fill="none" xmlns="http://www.w3.org/2000/svg">
<path d="M11.1945 18H13.2105L7.90049 5.63403H5.88449L0.574493 18H2.57249L3.68849 15.426H10.0965L11.1945 18ZM4.37249 13.842L6.89249 7.97403L9.41249 13.842H4.37249ZM18.374 8.47803C17.348 8.47803 16.178 8.74803 14.846 9.41403L15.512 10.728C16.322 10.314 17.204 9.95403 18.122 9.95403C19.976 9.95403 20.516 11.196 20.516 12.366V12.654C19.616 12.348 18.626 12.15 17.708 12.15C15.656 12.15 13.982 13.392 13.982 15.246C13.982 17.064 15.458 18.216 17.42 18.216C18.572 18.216 19.832 17.694 20.516 16.74V18H22.262V12.366C22.262 10.062 20.876 8.47803 18.374 8.47803ZM17.78 16.812C16.592 16.812 15.692 16.2 15.692 15.192C15.692 14.184 16.736 13.482 17.978 13.482C18.896 13.482 19.742 13.608 20.516 13.842V15.084C20.21 16.236 18.932 16.812 17.78 16.812Z" fill="black"/>
</svg>
