<svg width="24" height="24" viewBox="0 0 24 24" fill="none" xmlns="http://www.w3.org/2000/svg">
<path d="M20.5001 5C21.3285 5.00002 22.0001 5.67158 22.0001 6.5V9.55762C22.0001 9.81356 21.756 10 21.5001 10C20.3955 10 19.5001 10.8954 19.5001 12C19.5001 13.1046 20.3955 14 21.5001 14C21.756 14 22.0001 14.1864 22.0001 14.4424V17.5C22.0001 18.3284 21.3285 19 20.5001 19H3.50006C2.67163 19 2.00006 18.3284 2.00006 17.5V14C3.10463 14 4.00006 13.1046 4.00006 12C4.00006 10.8954 3.10463 10 2.00006 10V6.5C2.00006 5.67157 2.67163 5 3.50006 5H20.5001ZM15.0001 14.5C14.4478 14.5 14.0001 14.9477 14.0001 15.5V16.5C14.0001 17.0523 14.4478 17.5 15.0001 17.5C15.5523 17.5 16.0001 17.0523 16.0001 16.5V15.5C16.0001 14.9477 15.5523 14.5 15.0001 14.5ZM15.0001 10.5C14.4478 10.5 14.0001 10.9477 14.0001 11.5V12.5C14.0001 13.0523 14.4478 13.5 15.0001 13.5C15.5523 13.5 16.0001 13.0523 16.0001 12.5V11.5C16.0001 10.9477 15.5523 10.5 15.0001 10.5ZM15.0001 6.5C14.4478 6.5 14.0001 6.94772 14.0001 7.5V8.5C14.0001 9.05228 14.4478 9.5 15.0001 9.5C15.5523 9.5 16.0001 9.05228 16.0001 8.5V7.5C16.0001 6.94772 15.5523 6.5 15.0001 6.5Z" fill="#1D2129"/>
</svg>
