<svg width="24" height="24" viewBox="0 0 24 24" fill="none" xmlns="http://www.w3.org/2000/svg">
<path fill-rule="evenodd" clip-rule="evenodd" d="M2 7.5C2 6.67157 2.67157 6 3.5 6H20.5C21.3284 6 22 6.67157 22 7.5V10.0577C22 10.3137 21.756 10.5 21.5 10.5C20.3955 10.5 19.5 11.3954 19.5 12.5C19.5 13.6046 20.3955 14.5 21.5 14.5C21.756 14.5 22 14.6863 22 14.9423V17.5C22 18.3284 21.3284 19 20.5 19H3.5C2.67157 19 2 18.3284 2 17.5V14.5L2.00003 14.5C3.1046 14.5 4.00003 13.6046 4.00003 12.5C4.00003 11.3954 3.1046 10.5 2.00003 10.5L2 10.5V7.5ZM16 16C16 15.4477 15.5523 15 15 15C14.4477 15 14 15.4477 14 16V17C14 17.5523 14.4477 18 15 18C15.5523 18 16 17.5523 16 17V16ZM15 11C14.4477 11 14 11.4477 14 12V13C14 13.5523 14.4477 14 15 14C15.5523 14 16 13.5523 16 13V12C16 11.4477 15.5523 11 15 11ZM16 8C16 7.44772 15.5523 7 15 7C14.4477 7 14 7.44772 14 8V9C14 9.55228 14.4477 10 15 10C15.5523 10 16 9.55228 16 9V8Z" fill="#1D2129"/>
</svg>
