<svg width="24" height="24" viewBox="0 0 24 24" fill="none" xmlns="http://www.w3.org/2000/svg">
<path d="M9.48926 2.30176C10.0415 2.30176 10.4893 2.74947 10.4893 3.30176V4.62207H15.6777C16.23 4.62208 16.6777 5.06984 16.6777 5.62207C16.6777 6.17435 16.23 6.62206 15.6777 6.62207H13.5303C13.3146 8.67643 12.4491 10.6548 11.168 12.249C12.5806 13.0186 14.0691 13.6253 15.1787 13.9424C15.7096 14.0941 16.0167 14.6478 15.8652 15.1787C15.7134 15.7096 15.1598 16.0169 14.6289 15.8652C13.2325 15.4662 11.3932 14.693 9.72461 13.7305C8.16072 15.0494 6.20874 15.9043 4.0752 15.9043C3.52298 15.9043 3.07531 15.4565 3.0752 14.9043C3.07525 14.3521 3.52294 13.9043 4.0752 13.9043C5.46248 13.9043 6.79661 13.4152 7.95312 12.5801C6.9005 11.7993 5.98429 10.9032 5.50098 9.93652C5.25436 9.44264 5.45442 8.84164 5.94824 8.59473C6.44206 8.34783 7.0429 8.54837 7.29004 9.04199C7.62088 9.70368 8.39351 10.454 9.44629 11.1914C10.5502 9.89452 11.2958 8.27608 11.5146 6.62207H3.30176C2.74947 6.62207 2.30176 6.17436 2.30176 5.62207C2.30181 5.06983 2.74951 4.62207 3.30176 4.62207H8.48926V3.30176C8.48926 2.74964 8.9372 2.30202 9.48926 2.30176Z" fill="black"/>
<path d="M20.3794 21.9999L19.5734 20.0779H14.4274L13.6214 21.9999H11.4669L15.9154 11.3514H18.0699L22.5184 21.9999H20.3794ZM15.1249 18.4039H18.8759L17.0004 13.9244L15.1249 18.4039Z" fill="black"/>
</svg>
