<svg width="24" height="24" viewBox="0 0 24 24" fill="none" xmlns="http://www.w3.org/2000/svg">
<path fill-rule="evenodd" clip-rule="evenodd" d="M8 6C8 4.89543 8.89543 4 10 4H14C15.1046 4 16 4.89543 16 6L19 6C19.5523 6 20 6.44772 20 7C20 7.55229 19.5523 8 19 8H18.4623L18.0732 18.1153C18.0113 19.7261 16.6874 21 15.0754 21H8.92456C7.31256 21 5.98873 19.7261 5.92677 18.1153L5.53772 8H5C4.44772 8 4 7.55228 4 7C4 6.44772 4.44772 6 5 6H8ZM7.5392 8L7.92529 18.0384C7.94595 18.5754 8.38722 19 8.92456 19H15.0754C15.6128 19 16.0541 18.5754 16.0747 18.0384L16.4608 8L7.5392 8ZM10.25 10C10.8023 10 11.25 10.4477 11.25 11V16C11.25 16.5523 10.8023 17 10.25 17C9.69772 17 9.25 16.5523 9.25 16V11C9.25 10.4477 9.69772 10 10.25 10ZM14.75 11C14.75 10.4477 14.3023 10 13.75 10C13.1977 10 12.75 10.4477 12.75 11V16C12.75 16.5523 13.1977 17 13.75 17C14.3023 17 14.75 16.5523 14.75 16V11Z" fill="#000716"/>
</svg>
