<svg width="24" height="24" viewBox="0 0 24 24" fill="none" xmlns="http://www.w3.org/2000/svg">
<path fill-rule="evenodd" clip-rule="evenodd" d="M10.5 2C9.11929 2 8 3.11929 8 4.5V5H4C3.44772 5 3 5.44772 3 6C3 6.55229 3.44772 7 4 7H5.03508L5.44898 18.5892C5.49702 19.9344 6.6014 21 7.94738 21H16.0526C17.3986 21 18.503 19.9344 18.551 18.5892L18.9649 7H20C20.5523 7 21 6.55229 21 6C21 5.44772 20.5523 5 20 5H16V4.5C16 3.11929 14.8807 2 13.5 2H10.5ZM10 4.5C10 4.22386 10.2239 4 10.5 4H13.5C13.7761 4 14 4.22386 14 4.5V5H10V4.5ZM7.4477 18.5178L7.03635 7H16.9636L16.5523 18.5178C16.5427 18.7869 16.3218 19 16.0526 19H7.94738C7.67819 19 7.45731 18.7869 7.4477 18.5178ZM11 16V10C11 9.44772 10.5523 9 10 9C9.44772 9 9 9.44772 9 10V16C9 16.5523 9.44772 17 10 17C10.5523 17 11 16.5523 11 16ZM14 9C14.5523 9 15 9.44772 15 10V16C15 16.5523 14.5523 17 14 17C13.4477 17 13 16.5523 13 16V10C13 9.44772 13.4477 9 14 9Z" fill="#000716"/>
</svg>
