<svg width="24" height="24" viewBox="0 0 24 24" fill="none" xmlns="http://www.w3.org/2000/svg">
<path fill-rule="evenodd" clip-rule="evenodd" d="M14.2273 2.75909C12.6835 2.40759 11.4367 2.42888 9.82688 2.77184C8.64364 3.02392 8.02865 4.24825 8.38803 5.32638L8.94868 7.00835C8.98267 7.11032 9 7.2171 9 7.32458V8.89025C9 9.36768 8.82922 9.82935 8.51851 10.1918L3.80849 15.6869C3.28677 16.2955 3 17.0708 3 17.8724C3 19.5896 4.30133 21.0486 6.03289 21.1986C10.462 21.5821 13.6325 21.578 17.9687 21.1999C19.7003 21.049 21 19.5894 21 17.8729C21 17.0709 20.7131 16.2954 20.1912 15.6865L15.4815 10.1918C15.1708 9.82935 15 9.36768 15 8.89025V7.32458C15 7.2171 15.0173 7.11032 15.0513 7.00835L15.623 5.29318C15.9719 4.24654 15.4022 3.02659 14.2273 2.75909ZM10.846 6.3759L10.2932 4.71746C11.6031 4.44301 12.5352 4.43345 13.7147 4.69379L13.1539 6.3759C13.052 6.6818 13 7.00214 13 7.32458V8.89025C13 9.8451 13.3416 10.7684 13.963 11.4934L14.2279 11.8025C13.5501 12.1727 12.9457 12.6283 12.3546 13.0738L12.3546 13.0738C10.8815 14.1842 9.49087 15.2324 7.25177 14.7429L10.037 11.4934C10.6584 10.7684 11 9.8451 11 8.89025V7.32458C11 7.00214 10.948 6.6818 10.846 6.3759Z" fill="black"/>
</svg>
