<svg width="24" height="24" viewBox="0 0 24 24" fill="none" xmlns="http://www.w3.org/2000/svg">
<path fill-rule="evenodd" clip-rule="evenodd" d="M6 8C6.55228 8 7 7.55228 7 7C7 6.44772 6.55228 6 6 6C5.44772 6 5 6.44772 5 7C5 7.55228 5.44772 8 6 8ZM10 6C9.44772 6 9 6.44772 9 7C9 7.55228 9.44772 8 10 8H19C19.5523 8 20 7.55228 20 7C20 6.44772 19.5523 6 19 6H10ZM10 11C9.44772 11 9 11.4477 9 12C9 12.5523 9.44772 13 10 13H19C19.5523 13 20 12.5523 20 12C20 11.4477 19.5523 11 19 11H10ZM9 17C9 16.4477 9.44772 16 10 16H19C19.5523 16 20 16.4477 20 17C20 17.5523 19.5523 18 19 18H10C9.44772 18 9 17.5523 9 17ZM7 12C7 12.5523 6.55228 13 6 13C5.44772 13 5 12.5523 5 12C5 11.4477 5.44772 11 6 11C6.55228 11 7 11.4477 7 12ZM6 18C6.55228 18 7 17.5523 7 17C7 16.4477 6.55228 16 6 16C5.44772 16 5 16.4477 5 17C5 17.5523 5.44772 18 6 18Z" fill="#000716"/>
</svg>
