<svg width="24" height="24" viewBox="0 0 24 24" fill="none" xmlns="http://www.w3.org/2000/svg">
<path d="M5.64844 8.31354C6.16539 8.11971 6.74243 8.38171 6.93652 8.8985C7.13025 9.41544 6.86836 9.99255 6.35156 10.1866L5.92676 10.3448L12 13.3819L18.0723 10.3448L17.6484 10.1866C17.1316 9.99256 16.8698 9.41544 17.0635 8.8985C17.2576 8.38168 17.8346 8.1197 18.3516 8.31354L19.3779 8.6983C20.3535 9.06417 20.9998 9.99727 21 11.0391V17.5733C20.9998 18.5199 20.4648 19.3852 19.6182 19.8087L14.2363 22.5001C12.8288 23.2038 11.1713 23.2038 9.76367 22.5001L4.38184 19.8087C3.53522 19.3852 3.00018 18.5199 3 17.5733V11.0401C3.00006 9.99817 3.64655 9.06526 4.62207 8.69928L5.64844 8.31354ZM5 17.5733C5.00018 17.7625 5.10715 17.9359 5.27637 18.0206L10.6582 20.711C10.7697 20.7667 10.884 20.8145 11 20.8555V15.1182L5 12.1182V17.5733ZM13 15.1182V20.8555C13.116 20.8145 13.2303 20.7667 13.3418 20.711L18.7236 18.0206C18.8928 17.9359 18.9998 17.7625 19 17.5733V12.1182L13 15.1182ZM11.293 1.29303C11.6835 0.902506 12.3165 0.902506 12.707 1.29303L15.707 4.29303C16.0975 4.68356 16.0975 5.31658 15.707 5.70709C15.3165 6.09757 14.6835 6.09757 14.293 5.70709L13 4.41412V9.50006C13 10.0523 12.5523 10.5001 12 10.5001C11.4477 10.5001 11 10.0523 11 9.50006V4.41412L9.70703 5.70709C9.31652 6.09757 8.68348 6.09757 8.29297 5.70709C7.90246 5.31658 7.90248 4.68356 8.29297 4.29303L11.293 1.29303Z" fill="black"/>
</svg>
