<svg width="24" height="24" viewBox="0 0 24 24" fill="none" xmlns="http://www.w3.org/2000/svg">
<path fill-rule="evenodd" clip-rule="evenodd" d="M9.70711 6.70711C10.0976 6.31658 10.0976 5.68342 9.70711 5.29289C9.31658 4.90237 8.68342 4.90237 8.29289 5.29289L5.29289 8.29289C4.90237 8.68342 4.90237 9.31658 5.29289 9.70711L8.29289 12.7071C8.68342 13.0976 9.31658 13.0976 9.70711 12.7071C10.0976 12.3166 10.0976 11.6834 9.70711 11.2929L8.41421 10H15C16.6569 10 18 11.3431 18 13C18 14.6569 16.6569 16 15 16H12C11.4477 16 11 16.4477 11 17C11 17.5523 11.4477 18 12 18H15C17.7614 18 20 15.7614 20 13C20 10.2386 17.7614 8 15 8H8.41421L9.70711 6.70711Z" fill="#000716"/>
</svg>
