<svg width="24" height="24" viewBox="0 0 24 24" fill="none" xmlns="http://www.w3.org/2000/svg">
<path d="M4.29272 4.29303C4.68322 3.90253 5.31626 3.90259 5.70679 4.29303L19.7068 18.293L19.7751 18.3692C20.0955 18.762 20.0729 19.341 19.7068 19.7071C19.3407 20.0731 18.7616 20.0958 18.3689 19.7755L18.2927 19.7071L4.29272 5.70709C3.90233 5.31661 3.90239 4.68354 4.29272 4.29303ZM6.08667 10.3282L4.53589 11.879C3.36465 13.0506 3.36445 14.9507 4.53589 16.1221C5.5232 17.1089 7.03012 17.265 8.18042 16.586C8.65578 16.3055 9.26964 16.4624 9.55054 16.9376C9.831 17.4129 9.67296 18.0267 9.198 18.3077C7.28109 19.4396 4.77012 19.1839 3.12183 17.5362C1.16934 15.5837 1.16954 12.4175 3.12183 10.4649L4.67261 8.91412L6.08667 10.3282ZM13.6794 17.921C12.5375 17.8292 11.4203 17.349 10.5466 16.4756C9.67172 15.6007 9.18852 14.4822 9.09741 13.3389L13.6794 17.921ZM15.2585 4.9942C17.1502 3.982 19.5565 4.27262 21.1531 5.8692C23.1048 7.8217 23.1049 10.9871 21.1531 12.9395L19.1677 14.9249L17.7537 13.5108L19.739 11.5255C20.9098 10.3541 20.9097 8.45471 19.739 7.28326C18.8134 6.35763 17.4304 6.16233 16.3132 6.70123L16.0935 6.81842L16.0027 6.86627C15.5429 7.07817 14.9878 6.91186 14.7244 6.46686C14.4611 6.02105 14.5828 5.45293 14.991 5.1524L15.0759 5.09674L15.2585 4.9942ZM9.72827 5.48541C11.1578 5.35296 12.6338 5.8353 13.7283 6.92975C14.8224 8.02422 15.3018 9.49842 15.1697 10.9268L9.72827 5.48541Z" fill="black"/>
</svg>
