<svg width="24" height="24" viewBox="0 0 24 24" fill="none" xmlns="http://www.w3.org/2000/svg">
<path d="M11 1C13.9176 1 15.9999 3.75002 16 6.76172V7.71387C16 8.26615 15.5523 8.71387 15 8.71387C14.4477 8.71387 14 8.26615 14 7.71387V6.76172C13.9999 4.51374 12.5006 3 11 3C9.49945 3 8.00008 4.51374 8 6.76172V11H18C19.1046 11 20 11.8954 20 13V21C20 22.1046 19.1046 23 18 23H6C4.89543 23 4 22.1046 4 21V13C4 11.8954 4.89543 11 6 11V6.76172C6.00009 3.75002 8.08237 1 11 1ZM12 14.5C10.8954 14.5 10 15.3954 10 16.5C10 17.2403 10.4022 17.8866 11 18.2324V19C11 19.5523 11.4477 20 12 20C12.5523 20 13 19.5523 13 19L13.001 18.2314C13.5981 17.8855 14 17.2398 14 16.5C14 15.3954 13.1046 14.5 12 14.5Z" fill="#1D2129"/>
</svg>
