<svg width="24" height="24" viewBox="0 0 24 24" fill="none" xmlns="http://www.w3.org/2000/svg">
<path fill-rule="evenodd" clip-rule="evenodd" d="M13 7C13 8.65685 11.6569 10 10 10C8.34315 10 7 8.65685 7 7C7 5.34315 8.34315 4 10 4C11.6569 4 13 5.34315 13 7ZM5 15C5 12 7 11 10 11C11.475 11 12.7083 11.2417 13.5809 11.8441C11.4897 12.6228 10 14.6374 10 17C10 17.1091 10.0032 17.2175 10.0094 17.325C7.5063 17.3269 5 16.552 5 15ZM19 17C19 18.933 17.433 20.5 15.5 20.5C13.567 20.5 12 18.933 12 17C12 15.067 13.567 13.5 15.5 13.5C17.433 13.5 19 15.067 19 17ZM14.5 16C13.9477 16 13.5 16.4477 13.5 17C13.5 17.5523 13.9477 18 14.5 18H16.5C17.0523 18 17.5 17.5523 17.5 17C17.5 16.4477 17.0523 16 16.5 16H14.5Z" fill="#000716"/>
</svg>
