<svg width="24" height="24" viewBox="0 0 24 24" fill="none" xmlns="http://www.w3.org/2000/svg">
<path d="M20.8408 7.40085C22.8433 7.56275 23.6736 10.07 22.1865 11.3969L22.0313 11.5249L18.1201 14.4878L19.542 19.1841C20.1732 21.2705 17.8169 22.9856 16.0264 21.7397L11.9981 18.936L7.97267 21.7387V21.7397C7.38207 22.1504 6.73047 22.2375 6.14455 22.0971L11.1543 17.0874L11.4278 16.8979L11.5615 16.8188C11.8835 16.662 12.2699 16.6889 12.5703 16.8979L17.168 20.0971H17.169C17.4017 20.259 17.7101 20.0369 17.6279 19.7641L16.0049 14.4018C15.8837 14.0014 16.025 13.5676 16.3584 13.3149L20.8233 9.93113L20.8613 9.89695C21.0343 9.7155 20.9137 9.3976 20.6475 9.39206L18.8858 9.35593L20.8408 7.40085ZM9.89846 2.47898C10.6735 0.715939 13.1417 0.660047 14.0225 2.31394L14.1026 2.47898L14.1192 2.51902L14.1602 2.62448L14.1729 2.65866L14.9268 4.83054L13.3555 6.40183L12.2881 3.32859L12.2686 3.27878C12.2201 3.17315 12.1273 3.11377 12 3.11374C11.8729 3.11388 11.7799 3.17311 11.7315 3.27878L11.709 3.3364L9.87697 8.60593C9.73963 9.0009 9.37024 9.26923 8.95217 9.27781L3.35256 9.39206C3.06874 9.39803 2.95086 9.75909 3.17775 9.93113L6.959 12.7983L5.53225 14.2251L1.96975 11.5249C0.232473 10.2078 1.13126 7.4369 3.31154 7.39206L8.21584 7.29148L9.82717 2.65866L9.84279 2.61667L9.88478 2.5112L9.89846 2.47898Z" fill="black"/>
<path d="M20 4L4 20" stroke="black" stroke-width="2" stroke-linecap="round"/>
</svg>
