<svg width="24" height="24" viewBox="0 0 24 24" fill="none" xmlns="http://www.w3.org/2000/svg">
<path fill-rule="evenodd" clip-rule="evenodd" d="M8.29289 8.70711C7.90237 8.31658 7.90237 7.68342 8.29289 7.29289L11.2929 4.29289C11.6834 3.90237 12.3166 3.90237 12.7071 4.29289L15.7071 7.29289C16.0976 7.68342 16.0976 8.31658 15.7071 8.70711C15.3166 9.09763 14.6834 9.09763 14.2929 8.70711L13 7.41421V13.5C13 14.0523 12.5523 14.5 12 14.5C11.4477 14.5 11 14.0523 11 13.5V7.41421L9.70711 8.70711C9.31658 9.09763 8.68342 9.09763 8.29289 8.70711ZM7.70711 14.2071C8.09763 13.8166 8.09763 13.1834 7.70711 12.7929C7.31658 12.4024 6.68342 12.4024 6.29289 12.7929L4.87868 14.2071C4.31607 14.7697 4 15.5328 4 16.3284V17C4 18.6569 5.34315 20 7 20H10H14H17C18.6569 20 20 18.6569 20 17V16.3284C20 15.5328 19.6839 14.7697 19.1213 14.2071L17.7071 12.7929C17.3166 12.4024 16.6834 12.4024 16.2929 12.7929C15.9024 13.1834 15.9024 13.8166 16.2929 14.2071L17.7071 15.6213C17.8148 15.729 17.8954 15.8588 17.9445 16H15C14.4477 16 14 16.4477 14 17V18H10V17C10 16.4477 9.55228 16 9 16H6.05547C6.10457 15.8588 6.18518 15.729 6.29289 15.6213L7.70711 14.2071Z" fill="#000716"/>
</svg>
