<svg width="24" height="24" viewBox="0 0 24 24" fill="none" xmlns="http://www.w3.org/2000/svg">
<path fill-rule="evenodd" clip-rule="evenodd" d="M11.7542 11.1051C13.9923 11.1051 15.8067 9.29068 15.8067 7.05253C15.8067 4.81438 13.9923 3 11.7542 3C9.51604 3 7.70166 4.81438 7.70166 7.05253C7.70166 9.29068 9.51604 11.1051 11.7542 11.1051ZM11.7542 12.4559C7.70169 12.4559 5 13.8068 5 17.8593C5 20.2517 9.40912 21.2774 13.1894 20.9361C13.0659 20.4783 13 19.9969 13 19.5C13 16.896 14.8097 14.7146 17.24 14.145C16.067 12.9264 14.1458 12.4559 11.7542 12.4559ZM22 19.5C22 21.433 20.433 23 18.5 23C16.567 23 15 21.433 15 19.5C15 17.567 16.567 16 18.5 16C20.433 16 22 17.567 22 19.5ZM16.5 19.5C16.5 18.9477 16.9477 18.5 17.5 18.5H19.5C20.0523 18.5 20.5 18.9477 20.5 19.5C20.5 20.0523 20.0523 20.5 19.5 20.5H17.5C16.9477 20.5 16.5 20.0523 16.5 19.5Z" fill="#1D2129"/>
</svg>
