<svg width="24" height="24" viewBox="0 0 24 24" fill="none" xmlns="http://www.w3.org/2000/svg">
<path fill-rule="evenodd" clip-rule="evenodd" d="M11.7542 11.1051C13.9923 11.1051 15.8067 9.29068 15.8067 7.05253C15.8067 4.81438 13.9923 3 11.7542 3C9.51604 3 7.70166 4.81438 7.70166 7.05253C7.70166 9.29068 9.51604 11.1051 11.7542 11.1051ZM11.7542 12.4559C7.70169 12.4559 5 13.8068 5 17.8593C5 20.1534 9.05421 21.1908 12.7206 20.9713C12.7211 20.9693 12.7217 20.9674 12.7223 20.9655L13.07 19.816L12.1131 19.0905C9.99136 17.482 11.0905 14.0992 13.7525 14.045L14.9531 14.0205L15.3213 12.9615C14.3177 12.6075 13.1117 12.4559 11.7542 12.4559Z" fill="#1D2129"/>
</svg>
