<svg width="24" height="24" viewBox="0 0 24 24" fill="none" xmlns="http://www.w3.org/2000/svg">
<path fill-rule="evenodd" clip-rule="evenodd" d="M15.8067 7.05253C15.8067 9.29068 13.9923 11.1051 11.7542 11.1051C9.51604 11.1051 7.70166 9.29068 7.70166 7.05253C7.70166 4.81438 9.51604 3 11.7542 3C13.9923 3 15.8067 4.81438 15.8067 7.05253ZM5 17.8593C5 13.8068 7.70169 12.4559 11.7542 12.4559C14.1458 12.4559 16.067 12.9264 17.24 14.145C14.8097 14.7146 13 16.896 13 19.5C13 19.9969 13.0659 20.4783 13.1894 20.9361C9.40912 21.2774 5 20.2517 5 17.8593Z" fill="#1D2129"/>
</svg>
