<svg width="24" height="24" viewBox="0 0 24 24" fill="none" xmlns="http://www.w3.org/2000/svg">
<path d="M9.11245 8.137L5.97034 15.6337H3.92035L2.37411 9.65099C2.28024 9.28249 2.19861 9.14749 1.91311 8.99224C1.44699 8.73937 0.677246 8.50212 0 8.35487L0.0459997 8.137H3.34586C3.76648 8.137 4.1446 8.417 4.2401 8.90137L5.05672 13.2393L7.07496 8.13687H9.11245V8.137ZM17.1447 13.1861C17.1529 11.2075 14.4087 11.0985 14.4275 10.2146C14.4334 9.94561 14.6895 9.65962 15.2502 9.58662C15.528 9.55024 16.2937 9.52249 17.162 9.92212L17.5027 8.33237C17.036 8.163 16.4357 8 15.6887 8C13.7718 8 12.4228 9.01899 12.4114 10.4781C12.3991 11.5574 13.3743 12.1596 14.1091 12.5182C14.8649 12.8855 15.1185 13.1215 15.1157 13.45C15.1103 13.9528 14.5128 14.1748 13.9544 14.1836C12.9797 14.1986 12.4141 13.9198 11.9632 13.7102L11.6117 15.3526C12.0648 15.5605 12.9012 15.7418 13.7683 15.751C15.8057 15.751 17.1384 14.7446 17.1447 13.1861ZM22.2064 15.6337H24L22.4344 8.137H20.7789C20.4066 8.137 20.0926 8.35375 19.9536 8.687L17.0435 15.6337H19.0799L19.4841 14.514H21.9723L22.2064 15.6337ZM20.0425 12.9775L21.0633 10.1627L21.6508 12.9775H20.0425ZM11.8833 8.137L10.2797 15.6337H8.34046L9.9447 8.137H11.8833Z" fill="#1434CB"/>
</svg>
