<svg width="24" height="24" viewBox="0 0 24 24" fill="none" xmlns="http://www.w3.org/2000/svg">
<path fill-rule="evenodd" clip-rule="evenodd" d="M10.2468 0.529587C10.1198 0.207585 9.66413 0.207586 9.53713 0.529588L8.87386 2.21135C8.83508 2.30966 8.75726 2.38748 8.65896 2.42625L6.97719 3.08953C6.65519 3.21652 6.65519 3.67224 6.97719 3.79923L8.65896 4.46251C8.75726 4.50128 8.83508 4.5791 8.87386 4.67741L9.53713 6.35917C9.66413 6.68117 10.1198 6.68117 10.2468 6.35917L10.9101 4.67741C10.9489 4.5791 11.0267 4.50128 11.125 4.46251L12.8068 3.79923C13.1288 3.67224 13.1288 3.21652 12.8068 3.08953L11.125 2.42625C11.0267 2.38748 10.9489 2.30966 10.9101 2.21135L10.2468 0.529587ZM17.5428 6.45711C17.243 6.15728 16.7569 6.15728 16.457 6.45711L14.0833 8.83085C14.3268 8.91575 14.5554 9.05548 14.75 9.25003C14.9445 9.44456 15.0842 9.67316 15.1691 9.91661L17.5428 7.5429C17.8427 7.24306 17.8427 6.75694 17.5428 6.45711ZM15.0428 5.0429C16.1237 3.96202 17.8762 3.96201 18.9571 5.0429C20.0379 6.12378 20.0379 7.87623 18.957 8.95711L7.95705 19.9571C6.87617 21.038 5.12372 21.038 4.04284 19.9571C2.96196 18.8762 2.96196 17.1238 4.04284 16.0429L15.0428 5.0429ZM20.76 10.8872C20.8302 10.6474 21.1698 10.6474 21.24 10.8872L21.5273 11.8697C21.5512 11.9515 21.6152 12.0155 21.697 12.0394L22.6795 12.3268C22.9193 12.3969 22.9193 12.7365 22.6795 12.8067L21.697 13.094C21.6152 13.1179 21.5512 13.1819 21.5273 13.2638L21.24 14.2462C21.1698 14.486 20.8302 14.486 20.76 14.2462L20.4727 13.2638C20.4488 13.1819 20.3848 13.1179 20.303 13.094L19.3205 12.8067C19.0807 12.7365 19.0807 12.3969 19.3205 12.3268L20.303 12.0394C20.3848 12.0155 20.4488 11.9515 20.4727 11.8697L20.76 10.8872ZM19.1407 14.7466C19.0284 14.3624 18.484 14.3624 18.3717 14.7466L17.9112 16.321C17.8729 16.4522 17.7703 16.5548 17.6391 16.5931L16.0647 17.0536C15.6805 17.1659 15.6805 17.7103 16.0647 17.8226L17.6391 18.2831C17.7703 18.3214 17.8729 18.424 17.9112 18.5551L18.3717 20.1296C18.484 20.5138 19.0284 20.5138 19.1407 20.1296L19.6012 18.5551C19.6395 18.424 19.7421 18.3214 19.8732 18.2831L21.4477 17.8226C21.8319 17.7103 21.8319 17.1659 21.4477 17.0536L19.8732 16.5931C19.7421 16.5548 19.6395 16.4522 19.6012 16.321L19.1407 14.7466Z" fill="black"/>
</svg>
