<svg width="24" height="24" viewBox="0 0 24 24" fill="none" xmlns="http://www.w3.org/2000/svg">
<path fill-rule="evenodd" clip-rule="evenodd" d="M10.6846 1.44399C10.6163 1.27974 10.3836 1.27974 10.3153 1.44399L9.88563 2.47707C9.85683 2.54632 9.7917 2.59363 9.71695 2.59963L8.60165 2.68904C8.42432 2.70326 8.35242 2.92456 8.48752 3.04029L9.33726 3.76818C9.39422 3.81697 9.41909 3.89353 9.40169 3.96648L9.14208 5.05482C9.1008 5.22786 9.28906 5.36463 9.44088 5.2719L10.3957 4.68868C10.4597 4.64959 10.5402 4.64959 10.6042 4.68868L11.5591 5.2719C11.7109 5.36463 11.8991 5.22786 11.8579 5.05482L11.5983 3.96648C11.5809 3.89353 11.6057 3.81697 11.6627 3.76818L12.5124 3.04029C12.6475 2.92456 12.5756 2.70326 12.3983 2.68904L11.283 2.59963C11.2082 2.59363 11.1431 2.54632 11.1143 2.47707L10.6846 1.44399ZM17.5428 6.45709C17.243 6.15726 16.7569 6.15725 16.457 6.45709L14.0833 8.83083C14.3268 8.91573 14.5554 9.05545 14.75 9.25001C14.9445 9.44454 15.0842 9.67313 15.1691 9.91659L17.5428 7.54287C17.8427 7.24304 17.8427 6.75692 17.5428 6.45709ZM15.0428 5.04287C16.1237 3.962 17.8762 3.96199 18.9571 5.04287C20.0379 6.12375 20.0379 7.87621 18.957 8.95709L7.95705 19.9571C6.87617 21.038 5.12372 21.038 4.04284 19.9571C2.96196 18.8762 2.96196 17.1238 4.04284 16.0429L15.0428 5.04287ZM21.2297 11.8939C21.3503 11.7631 21.5688 11.8432 21.5765 12.0209L21.597 12.4993C21.6002 12.5743 21.645 12.6411 21.7132 12.6725L22.1482 12.8726C22.3098 12.947 22.3011 13.1795 22.1345 13.2417L21.6858 13.4091C21.6155 13.4353 21.5658 13.4986 21.5571 13.5731L21.5011 14.0486C21.4803 14.2253 21.2565 14.289 21.1459 14.1497L20.8481 13.7747C20.8014 13.7159 20.7258 13.6882 20.6523 13.7029L20.1827 13.7967C20.0083 13.8315 19.8786 13.6383 19.9769 13.49L20.2415 13.0909C20.2829 13.0284 20.2859 12.948 20.2492 12.8826L20.015 12.4649C19.9279 12.3098 20.0716 12.1267 20.243 12.1744L20.7043 12.3027C20.7766 12.3228 20.854 12.3008 20.9049 12.2457L21.2297 11.8939ZM18.9301 15.3072C18.9225 15.1295 18.704 15.0494 18.5833 15.1801L17.8698 15.953C17.819 16.0081 17.7415 16.0301 17.6693 16.01L16.6559 15.7282C16.4845 15.6805 16.3409 15.8635 16.4279 16.0187L16.9425 16.9361C16.9792 17.0015 16.9762 17.0819 16.9347 17.1444L16.3535 18.0211C16.2552 18.1694 16.3849 18.3626 16.5593 18.3277L17.5908 18.1218C17.6644 18.1072 17.74 18.1349 17.7866 18.1936L18.4408 19.0173C18.5514 19.1566 18.7752 19.0929 18.796 18.9163L18.9189 17.8716C18.9277 17.7971 18.9774 17.7338 19.0477 17.7076L20.0332 17.34C20.1999 17.2778 20.2085 17.0453 20.0469 16.9709L19.0914 16.5312C19.0232 16.4999 18.9784 16.433 18.9752 16.3581L18.9301 15.3072Z" fill="black"/>
</svg>
