<svg width="24" height="24" viewBox="0 0 24 24" fill="none" xmlns="http://www.w3.org/2000/svg">
<path fill-rule="evenodd" clip-rule="evenodd" d="M12.8669 3.50763C12.4824 2.83893 11.5176 2.83893 11.1331 3.50763L1.36163 20.5015C0.978298 21.1682 1.45952 22 2.22854 22H21.7715C22.5405 22 23.0217 21.1682 22.6384 20.5015L12.8669 3.50763ZM11.1267 14.2602L10.5377 10.7262C10.3871 9.82258 11.0839 9 12 9C12.9161 9 13.6129 9.82258 13.4623 10.7262L12.8733 14.2602C12.8021 14.6871 12.4328 15 12 15C11.5672 15 11.1979 14.6871 11.1267 14.2602ZM13.5 17.5C13.5 18.3284 12.8284 19 12 19C11.1716 19 10.5 18.3284 10.5 17.5C10.5 16.6716 11.1716 16 12 16C12.8284 16 13.5 16.6716 13.5 17.5Z" fill="#000716"/>
</svg>
