<svg width="24" height="24" viewBox="0 0 24 24" fill="none" xmlns="http://www.w3.org/2000/svg">
<path d="M14.1096 15.059C14.5844 15.3411 14.5802 15.9882 14.1897 16.3787L12.4219 18.1465C12.2267 18.3418 11.9101 18.3418 11.7148 18.1465L9.94705 16.3787C9.55652 15.9882 9.55237 15.3411 10.0272 15.059C11.2814 14.3138 12.8554 14.3138 14.1096 15.059Z" fill="black"/>
<path fill-rule="evenodd" clip-rule="evenodd" d="M17.0181 13.5503C16.6276 13.9408 15.9983 13.9323 15.5487 13.6114C13.4726 12.1296 10.6642 12.1296 8.58807 13.6114C8.13854 13.9323 7.50917 13.9408 7.11865 13.5503C6.72813 13.1598 6.72507 12.5204 7.16084 12.1811C10.0394 9.93972 14.0974 9.93972 16.976 12.1811C17.4117 12.5204 17.4087 13.1598 17.0181 13.5503Z" fill="black"/>
<path fill-rule="evenodd" clip-rule="evenodd" d="M19.8465 10.7218C19.4559 11.1123 18.8256 11.1077 18.3984 10.7576C14.7257 7.74746 9.4109 7.74746 5.73815 10.7576C5.311 11.1077 4.68064 11.1123 4.29011 10.7218C3.89959 10.3313 3.89762 9.69395 4.31892 9.33685C8.78138 5.55438 15.3552 5.55438 19.8176 9.33685C20.2389 9.69395 20.237 10.3313 19.8465 10.7218Z" fill="black"/>
</svg>
