<svg width="24" height="24" viewBox="0 0 24 24" fill="none" xmlns="http://www.w3.org/2000/svg">
<path fill-rule="evenodd" clip-rule="evenodd" d="M6 4.5C6 4.22386 6.22386 4 6.5 4H14.0388C14.3425 4 14.6298 4.13809 14.8196 4.3753L17.7809 8.07687C17.9227 8.25418 18 8.47449 18 8.70156V19.5C18 19.7761 17.7761 20 17.5 20H6.5C6.22386 20 6 19.7761 6 19.5V4.5ZM6.5 2C5.11929 2 4 3.11929 4 4.5V19.5C4 20.8807 5.11929 22 6.5 22H17.5C18.8807 22 20 20.8807 20 19.5V8.70156C20 8.02035 19.7682 7.35942 19.3426 6.82748L16.3814 3.12591C15.812 2.41427 14.9501 2 14.0388 2H6.5ZM9.97239 10.7666C9.8435 10.2296 9.30366 9.89872 8.76663 10.0276C8.22959 10.1565 7.89872 10.6963 8.02761 11.2334L9.22761 16.2334C9.32519 16.6399 9.66542 16.9429 10.0806 16.9928C10.4957 17.0428 10.8981 16.8292 11.0893 16.4573L12 14.6865L12.9107 16.4573C13.1019 16.8292 13.5043 17.0428 13.9194 16.9928C14.3346 16.9429 14.6748 16.6399 14.7724 16.2334L15.9724 11.2334C16.1013 10.6963 15.7704 10.1565 15.2334 10.0276C14.6963 9.89872 14.1565 10.2296 14.0276 10.7666L13.4566 13.1458L12.8893 12.0427C12.7179 11.7095 12.3747 11.5 12 11.5C11.6253 11.5 11.2821 11.7095 11.1107 12.0427L10.5434 13.1458L9.97239 10.7666Z" fill="#0023DB"/>
</svg>
