<svg width="179" height="33" viewBox="0 0 179 33" fill="none" xmlns="http://www.w3.org/2000/svg">
<g clip-path="url(#clip0)">
<path d="M47.992 25.288C52.024 25.288 54.4 23.2 54.4 20.056C54.4 17.008 52.048 15.952 48.496 15.16C45.952 14.584 44.968 14.2 44.968 13C44.968 12.016 45.88 11.224 47.392 11.224C48.976 11.224 50.632 11.872 52.096 13.048L53.944 10.504C52.264 9.064 50.176 8.224 47.488 8.224C43.888 8.224 41.392 10.312 41.392 13.36C41.392 16.552 43.864 17.536 47.344 18.328C49.864 18.904 50.824 19.264 50.824 20.44C50.824 21.472 49.912 22.288 48.136 22.288C46.048 22.288 44.272 21.472 42.712 20.128L40.672 22.552C42.592 24.328 45.136 25.288 47.992 25.288ZM62.3832 21.928C62.1432 22.168 61.6872 22.336 61.2072 22.336C60.5352 22.336 60.0312 21.76 60.0312 20.944V15.424H62.7192V12.592H60.0312V9.184H56.6472V12.592H54.9432V15.424H56.6472V21.496C56.6472 23.728 58.1832 25.288 60.3912 25.288C61.3752 25.288 62.5032 24.856 63.2232 24.208L62.3832 21.928ZM69.4086 12.304C67.6806 12.304 65.9766 12.784 64.2246 13.672L65.4006 16C66.3846 15.496 67.4646 15.112 68.6166 15.112C70.6566 15.112 71.4966 16.264 71.4966 17.584V17.848C70.4406 17.416 69.3126 17.2 68.3046 17.2C65.4486 17.2 63.1686 18.88 63.1686 21.328C63.1686 23.704 65.1846 25.288 67.8246 25.288C69.1926 25.288 70.6086 24.736 71.4966 23.752V25H74.8806V17.584C74.8806 14.344 72.6486 12.304 69.4086 12.304ZM68.6166 22.864C67.4166 22.864 66.5046 22.24 66.5046 21.232C66.5046 20.224 67.5366 19.48 68.8086 19.48C69.7686 19.48 70.7046 19.648 71.4966 19.96V21.088C71.2326 22.24 69.9606 22.864 68.6166 22.864ZM92.1291 12.304C90.2811 12.304 88.7931 13.12 88.0491 14.44C87.2571 13.12 85.8411 12.304 84.1851 12.304C82.6491 12.304 81.4011 13.048 80.8011 14.224V12.592H77.2971V24.976H80.8011V17.512C80.8011 16.192 81.7851 15.256 83.2011 15.256C84.4971 15.256 85.3851 16.264 85.3851 17.704V24.976H88.7691V17.512C88.7691 16.192 89.7531 15.256 91.1691 15.256C92.4411 15.256 93.3531 16.264 93.3531 17.704V24.976H96.7131V17.104C96.7131 14.296 94.7211 12.304 92.1291 12.304ZM106.556 12.304C104.972 12.304 103.604 13 102.836 14.104V8.224H99.3318V25H102.836V17.656C102.836 16.312 103.964 15.256 105.428 15.256C106.82 15.256 107.804 16.312 107.804 17.848V25H111.164V17.104C111.164 14.272 109.268 12.304 106.556 12.304ZM119.626 25.288C123.346 25.288 126.394 22.36 126.394 18.784C126.394 15.208 123.346 12.304 119.626 12.304C115.906 12.304 112.858 15.208 112.858 18.784C112.858 22.36 115.906 25.288 119.626 25.288ZM119.626 22.336C117.754 22.336 116.218 20.728 116.218 18.784C116.218 16.84 117.754 15.256 119.626 15.256C121.498 15.256 123.034 16.84 123.034 18.784C123.034 20.728 121.498 22.336 119.626 22.336ZM134.368 25.288C138.088 25.288 141.136 22.36 141.136 18.784C141.136 15.208 138.088 12.304 134.368 12.304C130.648 12.304 127.6 15.208 127.6 18.784C127.6 22.36 130.648 25.288 134.368 25.288ZM134.368 22.336C132.496 22.336 130.96 20.728 130.96 18.784C130.96 16.84 132.496 15.256 134.368 15.256C136.24 15.256 137.776 16.84 137.776 18.784C137.776 20.728 136.24 22.336 134.368 22.336ZM147.126 11.92C147.126 11.104 147.63 10.528 148.278 10.528C148.758 10.528 149.238 10.696 149.478 10.936L150.318 8.8C149.598 8.152 148.47 7.72 147.486 7.72C145.278 7.72 143.742 9.28 143.742 11.512V12.592H142.038V15.424H143.742V25H147.126V15.424H149.814V12.592H147.126V11.92ZM160.787 8.224V14.344C159.803 13.072 158.339 12.304 156.611 12.304C153.299 12.304 150.923 14.992 150.923 18.784C150.923 22.6 153.299 25.288 156.611 25.288C158.339 25.288 159.803 24.52 160.787 23.248V25H164.291V8.224H160.787ZM157.619 22.336C155.699 22.336 154.331 20.872 154.331 18.784C154.331 16.72 155.699 15.256 157.619 15.256C159.491 15.256 160.787 16.72 160.787 18.784C160.787 20.872 159.491 22.336 157.619 22.336Z" fill="#000716"/>
<mask id="mask0" mask-type="alpha" maskUnits="userSpaceOnUse" x="0" y="0" width="26" height="34">
<path fill-rule="evenodd" clip-rule="evenodd" d="M19.0684 2.76052C19.4884 2.04648 19.2501 1.12712 18.536 0.707094C17.822 0.287064 16.9026 0.525415 16.4826 1.23946L13.0509 7.07343L10.8438 3.32136C10.4237 2.60731 9.50438 2.36896 8.79033 2.78899C8.07628 3.20902 7.83793 4.12837 8.25796 4.84242L11.3106 10.0319L0.845414 27.8227C0.769459 27.9518 0.705269 28.0875 0.653614 28.2281C0.177465 29.5241 0.842116 30.9606 2.13797 31.4368L2.13807 31.4368C5.17059 32.551 8.82285 33.0819 13.0509 33.0819C17.2788 33.0819 20.9311 32.551 23.9636 31.4369C24.1042 31.3852 24.2399 31.321 24.369 31.2451C25.5591 30.545 25.9563 29.0128 25.2563 27.8228L25.2563 27.8227L14.7911 10.0319L19.0684 2.76052ZM3.74009 28.8187L13.0509 12.9904L22.3616 28.8187C21.0683 29.2458 19.6195 29.5684 18.0104 29.7806L13.9412 21.823C13.8455 21.6359 13.6933 21.4836 13.5061 21.3879C13.0144 21.1365 12.4119 21.3313 12.1605 21.823L8.09125 29.7806C6.48218 29.5684 5.03341 29.2458 3.74009 28.8187Z" fill="#0053FF"/>
</mask>
<g mask="url(#mask0)">
<rect x="0.432617" y="-1.23074" width="32.7131" height="5.66591" transform="rotate(4.50632 0.432617 -1.23074)" fill="#FF0000"/>
<rect x="-0.0142212" y="4.41739" width="32.7131" height="6.23251" transform="rotate(4.50632 -0.0142212 4.41739)" fill="#FF9900"/>
<rect x="-0.504028" y="10.6308" width="32.7131" height="5.66591" transform="rotate(4.50632 -0.504028 10.6308)" fill="#FFF500"/>
<rect x="-0.949219" y="16.2789" width="32.7131" height="5.66591" transform="rotate(4.50632 -0.949219 16.2789)" fill="#039E00"/>
<rect x="-1.39404" y="21.9276" width="32.7131" height="6.23251" transform="rotate(4.50632 -1.39404 21.9276)" fill="#0053FF"/>
<rect x="-1.88434" y="28.1405" width="32.7131" height="5.66591" transform="rotate(4.50632 -1.88434 28.1405)" fill="#9000D3"/>
</g>
</g>
<defs>
<clipPath id="clip0">
<rect width="179" height="33" fill="white"/>
</clipPath>
</defs>
</svg>
