<svg width="240" height="240" viewBox="0 0 240 240" fill="none" xmlns="http://www.w3.org/2000/svg">
<g clip-path="url(#clip0)">
<rect y="1" width="240" height="240" rx="50" fill="#FF6200"/>
<mask id="mask0" mask-type="alpha" maskUnits="userSpaceOnUse" x="0" y="1" width="240" height="240">
<rect y="1" width="240" height="240" rx="50" fill="#FF6200"/>
</mask>
<g mask="url(#mask0)">
<path fill-rule="evenodd" clip-rule="evenodd" d="M99.1505 368.923C92.3624 368.923 94.2934 379.97 92.3624 384.99C91.3895 385.991 90.3869 387.992 91.3895 389H105.909C105.909 389 106.882 379.97 106.882 377.969C105.909 375.951 102.99 370.925 99.1505 368.923ZM117.378 289.294C112.36 285.395 104.32 281.487 92.2653 277.574C89.2516 276.598 82.2221 277.574 79.2006 277.574C71.1459 291.242 68.163 303.955 62.1278 318.607C61.1025 321.554 59.0985 327.418 59.0985 327.418C54.1039 324.493 49.0551 322.544 44.0143 322.544C35.9596 322.544 29.9397 325.469 26.9415 333.283C23.9508 332.307 19.9273 330.359 14.9018 331.317C7.8877 332.307 1.82921 336.222 -1.19228 342.079C-4.19051 345.978 -5.20026 349.893 -4.19051 353.808C-9.20067 355.765 -12.2607 360.654 -14.2492 364.554C-16.2456 372.368 -9.20067 386.068 -6.19468 389H3.8487C1.82921 380.205 -2.18652 376.29 0.827214 367.492C2.85446 362.603 9.86861 360.654 11.8879 359.664C11.8879 355.765 6.84711 352.832 7.88769 348.903C9.8686 344.043 15.8961 344.043 21.9313 345.003C20.9216 350.883 19.9273 358.688 18.9176 366.502C17.9078 375.314 22.9411 389 22.9411 389H32.9767H33.9864C32.9767 386.068 31.9747 383.128 31.9747 380.205C30.9958 377.264 30.9958 375.314 30.9958 372.368C31.9747 368.469 31.9747 364.554 31.9747 361.645C42.0257 356.74 39.0042 363.577 41.0006 365.528C41.0006 365.528 45.0549 356.74 40.0139 352.832C39.0042 351.857 32.9767 352.832 32.9767 351.857C32.9767 350.883 33.9864 347.942 34.9807 345.003C37.0155 341.089 38.0099 340.13 40.0139 337.189C41.0006 336.222 44.0143 336.222 48.0609 337.189C49.0551 337.189 54.1039 338.164 57.0945 339.14C56.0848 342.079 52.069 347.942 51.0901 350.883C47.0742 362.603 47.0742 376.29 48.0609 389H59.0985C59.0985 382.137 58.1043 374.323 59.0985 367.492C61.1025 358.688 64.1009 357.714 65.1492 357.714C67.1224 357.714 69.1419 359.664 70.1823 361.645C72.1634 371.392 66.1435 380.205 66.1435 389H74.1827C74.1827 389 77.2119 388.017 78.2062 385.094C80.2026 379.214 84.2261 373.335 85.2512 367.492C86.2301 362.603 84.2261 358.688 81.1969 352.832C78.2062 348.903 75.1925 345.978 68.163 341.089C66.1435 337.189 68.163 332.307 68.163 332.307C68.163 333.283 72.1632 331.317 74.1827 331.317C82.2221 333.283 84.2261 333.283 88.2418 335.232C91.2556 336.222 95.2637 338.164 98.2852 340.13C101.299 342.079 104.32 347.942 107.334 354.782C107.334 354.782 109.338 342.079 109.338 338.164C105.346 334.273 101.299 330.359 95.2637 327.418C90.215 323.503 79.2006 320.58 74.1827 318.607C74.1827 318.607 76.1869 315.682 76.1869 313.733C82.2221 312.743 89.2516 312.743 92.2653 313.733C102.324 316.672 114.364 322.544 119.405 326.444C119.405 326.444 121.393 322.544 121.393 320.58C121.393 320.58 107.334 311.783 108.328 308.844C104.32 305.919 101.299 302.979 97.2908 301.997C91.2556 301.037 79.2006 300.063 79.2006 300.063C79.2006 300.063 82.2221 296.163 85.2512 293.209H93.2906C97.2908 293.209 107.334 296.163 113.354 299.088C122.418 302.979 127.413 305.919 128.438 307.868C129.417 304.929 130.442 301.037 131.468 299.088C120.399 295.173 121.393 291.242 117.378 289.294ZM94.775 262.407C95.7553 259.417 94.775 257.423 95.7553 254.417C95.7553 252.422 95.7553 247.431 96.7583 244.441C94.775 243.428 90.7777 245.436 87.8443 245.436C84.8729 245.436 77.9576 245.436 77.9576 246.434C78.9379 248.444 78.9379 250.43 79.9182 252.422C80.9061 254.417 81.8865 256.411 81.8865 261.426C81.8865 264.417 82.8971 267.423 81.8865 271.403C81.8865 271.403 94.775 264.417 94.775 262.407ZM82.3694 238.819C84.375 235.878 90.3679 230.018 92.4197 228.052C90.3679 226.101 89.4038 223.161 88.3935 221.209C84.375 221.209 69.2804 227.062 69.2804 227.062C72.3038 231.961 74.3247 236.868 76.3301 242.721C78.351 241.745 80.3487 240.771 82.3694 238.819ZM120.271 243.835H114.323C114.323 243.835 112.348 251.489 112.348 257.239C111.368 260.122 110.35 262.034 110.35 262.989C108.375 266.819 107.395 267.776 105.436 272.57C108.375 273.525 111.368 271.613 113.328 271.613C115.303 270.658 118.273 269.687 119.291 268.746C120.271 267.776 123.241 261.063 124.236 259.165V252.461C123.241 250.534 124.236 246.703 124.236 243.835C123.241 241.909 121.251 242.864 120.271 243.835ZM174.854 315.86C173.843 314.857 173.843 312.836 172.794 310.847C170.773 304.799 171.799 301.784 170.773 295.783H162.605C160.553 296.77 159.527 295.783 157.499 296.77C157.499 300.797 158.518 303.796 161.58 308.826C164.626 314.857 174.854 315.86 174.854 315.86ZM71.0076 222.643C71.0076 222.643 74.1249 220.713 74.1249 218.738C79.3287 212.896 85.5717 208.003 86.6348 207.062C84.5246 202.154 83.4933 201.181 80.36 198.263C79.3287 199.236 74.1249 202.154 73.0618 204.113C71.0076 205.085 68.9132 206.058 67.834 207.062C67.834 209.006 68.9132 209.964 69.9284 211.923C69.9284 213.868 71.0076 218.738 71.0076 222.643ZM149.831 256.596C149.831 255.627 146.69 255.627 144.629 255.627C142.527 255.627 140.481 256.596 138.356 256.596C136.279 259.47 135.248 262.33 134.209 266.158C133.178 269.025 131.084 270.931 130.021 272.838C130.021 272.838 139.419 270.931 141.496 270.931C144.629 269.025 146.69 268.056 148.785 264.236C149.831 261.362 150.885 260.423 149.831 256.596ZM276.974 334.358C274.964 333.37 255.724 324.595 252.688 324.595C246.611 325.568 236.514 325.568 230.407 328.503C229.42 325.568 228.419 320.686 230.407 317.759C231.408 315.796 241.551 315.796 244.578 315.796C255.724 316.785 261.785 318.716 264.82 318.716C267.861 321.66 270.911 321.66 271.914 321.66C271.914 321.66 270.911 315.796 269.881 313.849C265.851 311.903 261.785 310.93 258.742 309.957C253.69 307.995 251.68 307.006 243.584 306.048C240.566 306.048 240.566 307.006 234.489 307.006C234.489 306.048 235.49 305.059 236.514 304.087C238.501 301.174 240.566 299.227 242.583 297.266H258.742C262.817 298.239 264.82 299.227 269.881 301.174C272.899 301.174 269.881 296.308 269.881 293.357C268.878 292.368 267.861 291.396 265.851 290.421C261.785 289.449 258.742 288.476 254.691 286.514C251.68 285.555 245.626 283.601 240.566 284.575C235.49 286.514 235.49 285.555 231.408 287.502C226.377 294.345 223.343 302.133 220.316 309.957C220.316 311.903 215.249 323.605 215.249 325.568C215.249 326.54 214.263 328.503 214.263 328.503C210.187 327.515 191.98 324.594 186.935 329.462C184.932 331.407 182.883 333.37 179.826 339.217C175.79 336.305 172.749 335.317 168.712 335.317C163.636 335.317 157.589 338.243 154.555 343.109C154.555 344.114 146.461 358.736 147.462 372.392C148.478 380.217 151.521 383.138 155.556 389H166.709C165.692 385.099 163.636 380.217 161.633 374.346C160.616 369.473 162.651 360.699 163.636 352.888C163.636 352.888 166.709 350.943 169.713 349.954C171.762 348.008 172.749 348.964 175.79 348.964C176.822 348.964 176.822 349.954 176.822 349.954C172.749 353.862 172.749 357.763 171.762 363.618C171.762 366.537 175.79 381.191 179.826 389H187.952C187.952 389 185.919 369.473 186.935 367.526C186.935 363.618 187.952 360.699 188.953 357.763C190.979 358.736 192.981 358.736 195.016 359.71C198.042 361.687 198.042 363.618 198.042 366.537C198.042 371.42 198.042 372.392 197.056 375.336V380.217C197.056 385.099 198.042 389 198.042 389H206.168C206.168 380.217 207.137 381.191 208.17 376.309C209.187 372.392 208.17 370.461 209.187 367.526C209.187 365.565 210.187 363.618 211.236 362.645C214.263 360.699 216.28 360.699 220.316 361.687C220.316 364.591 220.316 367.526 219.332 370.461C218.283 375.336 217.282 380.217 215.249 385.099C215.249 386.072 214.263 388.019 213.23 389H225.377C225.377 389 227.38 385.099 228.419 380.217C231.408 383.138 235.49 381.191 237.5 381.191C240.566 380.217 242.583 377.282 244.578 375.336C240.566 372.392 231.408 373.358 231.408 369.473C229.42 362.645 231.408 361.687 231.408 357.763C231.408 351.915 225.377 349.954 219.332 348.964C217.282 348.008 213.23 348.008 211.236 348.008C209.187 348.964 207.137 351.915 205.166 351.915C205.166 351.915 201.092 348.964 198.042 348.008C196.032 348.008 189.947 346.045 189.947 346.045C190.979 344.114 191.98 342.153 192.981 341.163C193.983 340.206 197.056 337.27 198.042 337.27C200.09 336.305 203.11 337.27 205.166 338.243C210.187 339.217 214.263 340.206 215.249 340.206C216.28 340.206 219.332 342.153 219.332 342.153C222.311 340.206 222.311 338.243 224.344 338.243C230.407 336.305 232.454 335.317 238.501 335.317C243.584 335.317 247.644 344.114 250.648 347.033C251.68 348.964 258.742 357.763 262.817 365.565C264.82 364.591 265.851 362.645 267.861 362.645C267.861 360.699 266.854 352.888 265.851 351.915C262.817 343.109 256.756 341.163 256.756 339.217C258.742 339.217 262.817 341.163 264.82 341.163C266.854 342.153 269.881 343.109 272.899 345.072C273.931 346.045 275.957 347.033 276.974 348.008C277.975 351.915 277.975 354.835 280.008 358.736C280.008 359.71 280.008 360.699 281.009 361.687C284.052 355.816 287.087 354.835 289.105 349.954C287.087 341.163 282.011 337.27 276.974 334.358ZM268.647 378.746C266.588 382.847 264.519 386.933 264.519 389H275.848C278.951 384.905 279.969 380.804 277.901 374.658C274.837 375.68 268.647 372.584 268.647 378.746ZM160.109 281.846C163.081 280.874 165.033 278.913 168.013 277.94C169.965 276.966 171.961 261.364 171.961 261.364C171.961 261.364 166.046 262.323 165.033 263.309C164.041 263.309 160.109 263.309 158.149 265.256C158.149 268.181 158.149 271.099 157.173 275.007C155.193 277.94 150.268 279.885 150.268 284.764C150.268 284.764 154.217 285.744 155.193 285.744C157.173 284.764 159.133 282.819 160.109 281.846ZM62.0492 169.188V174.012C62.0492 175.958 63.1014 186.594 63.1014 189.489C64.1221 192.398 64.1221 195.293 65.1269 198.196C66.2027 200.126 67.2234 202.055 67.2234 204C67.2234 204 69.2961 203.05 70.3009 201.089C73.4022 198.196 74.4544 195.293 76.5114 191.434C75.4749 184.665 73.4022 178.852 73.4022 176.923C73.4022 169.188 74.4544 167.243 75.4749 162.41C71.3689 164.332 66.2027 167.243 62.0492 169.188ZM197.484 307.256C198.455 307.256 199.44 305.288 199.44 305.288C198.455 301.333 197.484 296.415 196.545 292.465C196.545 292.465 193.611 290.483 190.746 290.483C188.814 290.483 186.888 289.5 184.978 290.483C185.917 293.464 185.917 295.446 186.888 298.398C189.762 302.323 193.611 304.289 197.484 307.256ZM107.844 202.145C106.889 200.203 103.997 199.234 102.081 198.263C100.143 198.263 98.2045 202.145 98.2045 206.04C98.2045 207.98 99.1884 214.809 100.143 217.72C100.143 218.691 102.081 219.676 103.997 220.661C106.889 222.586 109.767 223.555 112.667 225.511C112.667 225.511 109.767 216.765 108.813 211.892C107.844 208.981 109.767 205.069 107.844 202.145ZM130.334 232.682C131.356 228.69 134.36 226.699 134.36 219.709C134.36 219.709 133.369 214.714 132.378 212.714C131.356 210.722 130.334 208.729 127.345 206.738C126.331 206.738 124.348 204.714 123.357 205.709C123.357 205.709 122.335 213.71 121.344 214.714C123.357 217.702 125.355 219.709 126.331 222.697C127.345 225.701 128.336 229.687 130.334 232.682ZM157.582 248.458C160.65 245.489 157.582 240.552 157.582 237.6C156.532 234.632 157.582 231.672 156.532 228.704C155.512 226.736 153.426 225.751 151.387 225.751C149.324 225.751 144.179 222.784 144.179 224.752C139.026 224.752 143.159 229.689 143.159 232.649C143.159 236.601 153.426 246.474 153.426 246.474C155.512 247.457 155.512 246.474 157.582 248.458ZM59.7576 165.279C61.8205 162.292 67.9854 156.316 71.0324 152.311C73.119 150.325 77.2289 145.35 87.4722 140.369C88.4959 136.38 89.5273 133.399 89.5273 129.426C79.2603 132.407 72.0718 134.408 70.0484 136.38C64.907 139.375 62.8362 141.377 57.7107 144.374C57.7107 150.325 57.7107 150.325 58.7262 153.321L59.7576 165.279ZM216.794 275.697C213.679 273.791 208.514 268.054 205.446 265.186C203.346 263.279 204.368 260.418 202.308 258.496C200.264 258.496 198.171 258.496 196.118 259.449C193.005 259.449 190.96 259.449 187.869 260.418C188.891 262.31 188.891 264.232 190.96 265.186C195.081 269.007 195.081 269.976 199.209 275.697C200.264 277.619 205.446 278.574 209.551 278.574C211.643 278.574 215.741 276.666 216.794 275.697ZM177.728 221.209C173.531 222.162 165.195 223.115 165.195 225.989C164.149 228.848 165.195 231.715 165.195 233.635C166.267 235.542 166.267 237.448 166.267 240.322C166.267 242.228 165.195 244.149 166.267 247.024C167.313 245.102 172.516 243.195 173.531 241.275C175.633 238.415 177.728 236.511 178.758 233.635C179.805 230.769 178.758 225.989 177.728 221.209ZM190.11 220.329C187.027 222.301 184.978 223.288 184.978 225.259C184.978 229.22 185.986 233.172 185.986 235.159C185.986 238.133 185.986 240.105 187.027 241.092C190.11 242.077 191.168 242.077 195.299 244.05C195.299 245.051 199.44 247.024 199.44 247.024C199.44 247.024 197.389 238.133 196.341 234.157V218.342C192.193 219.327 191.168 220.329 190.11 220.329ZM72.8731 127.491C73.8539 126.526 84.7739 118.847 85.7396 117.889C87.7244 115.973 88.7205 116.932 89.6711 115.015C89.6711 109.247 91.6939 109.247 90.6978 107.345C89.6711 105.4 81.7853 107.345 79.793 107.345C74.8501 108.288 65.9225 111.155 65.9225 113.086C64.9417 115.973 64.9417 122.679 64.9417 123.666C65.9225 126.526 65.9225 129.42 66.8884 132.294C69.9073 129.42 70.8578 128.464 72.8731 127.491ZM289.584 301.573C288.629 300.609 286.705 299.629 284.765 298.651V302.559C284.765 306.474 285.706 307.468 285.706 309.441C285.706 311.399 288.629 325.14 288.629 329.055C293.441 330.05 293.441 333.981 296.336 335.938C296.336 335.938 294.396 324.162 294.396 309.441C294.396 308.447 291.531 302.559 289.584 301.573ZM229.637 265.198C233.631 268.054 241.6 267.099 248.611 266.151C244.585 263.274 243.605 261.35 241.6 259.456C238.591 257.532 236.632 256.577 232.629 252.759H219.686C221.654 257.532 222.626 260.411 229.637 265.198ZM190.443 201.602C192.482 199.694 194.492 195.886 194.492 194.917C196.547 191.101 196.547 186.316 196.547 182.484C188.442 177.691 178.281 176.752 168.136 176.752C158.997 176.752 148.843 177.691 138.698 184.408C139.734 188.238 140.722 191.101 142.77 194.917C143.774 194.917 144.794 196.84 145.784 196.84C147.823 194.917 149.87 192.054 152.885 191.101V194.917C152.885 197.786 152.885 199.694 153.935 202.587C153.935 205.434 156.98 205.434 161.02 205.434C165.068 205.434 166.111 198.741 166.111 197.786C166.111 197.786 167.132 201.602 173.189 204.479C173.189 204.479 180.29 204.479 180.29 203.526C181.326 198.741 182.353 197.786 181.326 193.962C181.326 193.962 187.422 197.786 190.443 201.602ZM222.579 238.847C218.438 232.893 217.415 226.945 217.415 225.955C215.348 223.961 219.464 217.031 214.291 217.031C212.249 216.011 206.034 214.039 206.034 214.039C204.954 217.031 204.954 222.97 206.034 225.955C206.034 228.926 211.176 237.873 213.258 238.847C214.291 239.853 219.464 239.853 220.537 239.853C221.546 238.847 222.579 238.847 222.579 238.847ZM66.9545 109.349C69.0143 106.452 69.0143 106.452 71.0585 104.479C75.1863 101.566 77.2463 99.6089 82.3567 95.7098C83.371 93.7529 84.4011 94.739 87.4752 92.7972C88.4973 91.834 89.5273 90.8477 89.5273 89.8767C89.5273 87.9349 88.4973 85.9777 87.4752 84.0511C86.4452 82.094 84.401 77.2241 84.401 76.2379C84.401 68.4628 85.4467 66.521 86.4452 59.6938C82.3567 58.723 77.2463 58.723 75.1863 62.6219C73.1421 65.5501 73.1421 68.4628 73.1421 71.4061C73.1421 76.2379 74.1563 80.1522 75.1863 85.9777C71.0585 88.9212 69.0143 90.8477 64.9417 92.7972C65.9558 98.6381 66.9545 109.349 66.9545 109.349ZM270.303 251.536C268.321 249.558 266.346 247.586 263.363 245.592C259.36 244.601 257.408 242.607 255.378 238.65C254.395 236.671 253.412 234.677 251.405 232.682C249.453 232.682 248.454 233.686 246.472 234.677C244.467 236.671 240.469 236.671 238.487 239.64C239.47 241.618 240.469 243.613 242.469 245.592C243.482 246.582 244.467 248.576 248.454 250.546C255.378 254.503 257.408 255.493 257.408 255.493C263.363 256.498 270.303 251.536 270.303 251.536ZM221.132 208.303C221.132 208.303 222.101 213.246 224.103 218.167C225.118 220.148 227.087 222.112 228.109 222.112C230.063 223.096 234.079 224.077 237.04 224.077V222.112C234.079 219.149 230.063 212.263 230.063 210.283C228.109 209.316 228.109 209.316 225.118 209.316C224.103 208.303 222.101 208.303 221.132 208.303ZM311.745 278.574C310.806 281.45 307.906 283.356 307.906 287.178C307.906 287.178 312.727 291.945 313.694 294.837C314.654 296.745 313.694 305.348 314.654 307.256C317.54 304.379 319.475 303.426 319.475 299.62C318.493 298.665 317.54 290.992 316.573 285.271C316.573 283.356 313.694 280.497 311.745 278.574ZM392.143 347.41C387.165 347.41 381.229 353.214 377.278 371.578C376.289 378.367 375.294 384.185 376.289 388.027L385.181 389C387.165 386.098 387.165 381.262 389.156 377.387C389.156 375.458 391.161 375.458 393.106 375.458C395.106 376.424 399.088 381.262 401.04 383.189C402.036 381.262 404.013 377.387 404.013 374.478C404.013 373.499 401.04 371.578 400.054 371.578C397.097 369.649 395.106 367.72 391.161 367.72C390.152 363.845 396.086 359.009 396.086 359.009C403.017 359.009 409.963 366.74 409.963 366.74C411.938 365.775 412.919 362.882 414.926 360.952C408.967 350.305 398.077 347.41 392.143 347.41ZM339.723 295.497C338.741 293.545 337.774 290.628 336.829 288.691C336.829 287.722 336.829 285.788 335.848 282.875C335.848 282.875 329.104 287.722 328.152 288.691C331.997 293.545 330.085 296.481 331.015 300.352C331.015 302.272 334.897 303.248 335.848 306.166C335.848 307.119 333.959 315.86 333.959 315.86C339.723 308.102 339.723 298.401 339.723 295.497ZM421.901 381.057C420.906 384.058 419.863 386.022 417.817 388.003C418.851 389 420.906 389 421.901 389H432.163C433.126 388.003 433.126 385.032 434.161 383.038C434.161 381.057 435.172 379.063 435.172 376.092H429.035C425.985 376.092 422.928 378.089 421.901 381.057ZM284.048 237.432H289.038C291.055 237.432 291.055 233.626 289.038 233.626C282.031 231.709 276.053 229.815 272.058 224.077C271.068 225.044 265.051 226.931 263.073 228.848C263.073 228.848 265.051 233.626 270.05 238.398C273.031 241.252 279.065 239.349 284.048 237.432ZM239.934 205.073C242.945 209.03 245.933 211.976 248.912 214.929C249.881 216.908 252.869 216.908 254.836 216.908H264.783C267.772 215.895 269.754 215.895 271.75 213.939C267.772 211.976 262.817 209.998 258.814 208.019C254.836 206.054 251.877 204.092 248.912 201.132C246.9 201.132 245.933 202.113 244.904 202.113C242.945 203.126 241.93 204.092 239.934 205.073ZM134.36 157.584C134.36 157.584 138.346 156.675 141.364 156.675C143.383 156.675 145.379 156.675 147.375 157.584C146.355 158.495 142.354 160.317 142.354 160.317C140.388 161.228 139.366 162.132 136.349 163.041C135.357 161.228 134.36 157.584 134.36 157.584ZM133.716 136.708C135.692 133.799 139.706 131.859 142.682 130.89C146.649 129.921 145.635 122.142 145.635 121.173C146.649 119.217 145.635 116.31 145.635 114.356C143.665 115.339 143.665 114.356 139.706 115.339C135.692 115.339 133.716 113.385 131.748 111.431C129.718 109.5 124.774 105.606 122.79 101.744C127.734 100.744 131.748 100.744 136.707 100.744H149.639C152.592 101.744 154.606 103.682 154.606 105.606C154.606 106.577 153.623 112.416 153.623 113.385C152.592 119.217 152.592 121.173 151.623 129.921V132.83C150.624 134.784 146.649 135.753 144.666 137.692C143.665 140.6 143.665 142.555 140.675 143.524C137.676 144.509 135.692 147.409 133.716 146.44C130.733 144.509 131.748 139.631 133.716 136.708ZM117.324 86.4031C115.259 84.511 111.137 81.6352 109.088 77.806C106.038 73.9841 107.039 70.1699 107.039 69.2012C109.088 63.4648 116.276 61.5428 120.414 60.5892C122.447 60.5892 124.512 60.5892 127.586 62.5113C131.7 64.4184 133.765 64.4184 135.807 71.1085C135.807 72.092 135.807 73.0156 134.781 73.0156C134.781 73.0156 128.602 76.8373 126.545 78.7746C121.43 81.6352 120.414 86.4031 117.324 86.4031ZM146.553 85.8736C149.527 83.8462 152.464 81.8346 154.465 81.8346C156.454 80.8289 160.392 79.8074 160.392 81.8346C160.392 85.8736 157.432 87.885 154.465 91.9082C152.464 94.917 151.5 92.9297 146.553 92.9297H141.591C141.591 89.9124 143.586 88.8909 146.553 85.8736ZM188.008 81.1246C189.943 81.1246 206.614 84.8702 195.844 89.534C193.856 91.4141 188.979 90.4667 184.064 90.4667C184.064 88.6159 184.064 84.8702 182.122 84.8702C180.127 82.9901 177.215 82.9901 177.215 81.1246C173.263 77.379 183.093 80.1918 188.008 81.1246ZM208.096 62.4627C211.209 59.5206 215.369 58.5451 219.473 59.5206C224.638 60.4962 225.66 61.4718 227.736 63.4381C230.842 67.3557 229.82 75.1753 228.758 80.0606C227.736 83.0026 224.638 84.9691 221.548 84.9691C216.375 79.1005 211.209 75.1752 203.984 73.2089C202.946 69.3066 206.082 65.3892 208.096 62.4627ZM214.758 103.725C213.739 105.675 211.687 106.658 209.65 107.673C208.609 107.673 207.629 109.624 207.629 110.607C205.553 113.565 202.505 114.548 198.434 114.548C196.372 114.548 192.299 114.548 190.255 110.607C190.255 110.607 191.257 122.445 191.257 125.394C191.257 126.378 192.299 126.378 192.299 126.378C196.372 127.361 197.399 131.316 199.427 133.282C199.427 133.282 200.455 134.266 201.496 134.266C205.553 137.215 214.758 141.163 210.675 141.163C210.675 143.146 207.629 148.07 206.619 148.07C203.517 145.128 198.434 143.146 194.32 141.163C193.31 139.197 192.299 137.215 191.257 135.265C189.245 133.282 188.218 133.282 185.14 131.316C185.14 124.427 184.129 124.427 184.129 117.513C184.129 116.53 182.085 105.675 182.085 105.675C182.085 104.692 185.14 101.758 188.218 100.744C188.218 100.744 207.629 100.744 216.794 101.758C216.794 101.758 215.799 103.725 214.758 103.725ZM202.773 163.844C198.767 162.805 195.773 159.679 190.762 159.679C190.762 156.578 190.762 156.578 191.782 155.521C197.792 154.483 200.793 156.578 203.777 157.618C203.777 158.656 202.773 163.844 202.773 163.844ZM137.377 177.857C140.404 177.857 143.425 174.932 146.438 173.937C152.439 171.976 157.487 170.015 163.49 169.035C165.532 168.024 165.532 166.079 165.532 164.102C166.54 162.149 166.54 162.149 166.54 159.209C166.54 158.227 162.51 157.248 160.491 153.296C158.488 150.339 160.491 147.399 159.483 147.399C156.493 149.36 152.439 151.321 151.461 147.399C150.452 144.465 150.452 140.513 153.48 139.534C163.49 135.612 174.562 135.612 184.633 139.534C186.62 139.534 187.63 141.509 187.63 143.47C188.623 145.431 187.63 147.399 185.61 149.36C182.598 150.339 179.562 146.419 179.562 149.36C179.562 152.3 177.574 156.252 172.535 158.227C171.556 159.209 172.535 162.149 173.568 165.097C173.568 166.079 173.568 168.024 174.562 168.024C178.584 169.035 184.633 170.015 187.63 171.976C191.629 173.937 198.656 179.818 199.681 178.852C202.678 176.891 203.672 173.937 205.714 171.976C216.747 176.891 225.778 179.818 239.863 188.694C241.866 188.694 241.866 184.758 241.866 182.781C236.82 179.818 221.74 171.976 219.76 170.98C215.753 170.015 213.75 168.024 209.705 167.058V159.209C216.747 161.17 230.772 162.149 244.888 170.015C245.866 167.058 247.899 165.097 246.891 164.102C230.772 156.252 218.782 153.296 208.711 153.296C208.711 152.3 206.678 151.321 208.711 150.339C211.724 148.378 212.726 147.399 213.75 146.419C216.747 142.49 218.782 138.554 219.76 134.632C222.766 128.735 225.778 130.696 227.805 117.913C224.785 117.913 223.759 119.874 220.762 120.87C221.74 117.913 222.766 114.973 222.766 112.016C223.759 106.112 225.778 102.19 225.778 95.2975C228.798 94.3017 233.83 91.3687 234.824 87.4475C234.824 86.4517 234.824 83.5109 235.841 79.5745C235.841 73.6849 236.82 68.7682 234.824 64.8315C234.824 63.8514 227.805 54.0254 222.766 51.0846C215.753 48.1283 212.726 49.124 207.701 50.0888C201.668 50.0888 193.617 55.9859 193.617 66.8075C187.63 66.8075 175.555 67.7878 168.529 73.6849C162.51 70.7286 157.487 69.7638 152.439 68.7682H143.425C142.431 64.8316 140.404 60.8951 136.397 57.9543C131.389 55.0211 125.325 51.0846 118.298 51.0846C115.285 51.0846 112.288 50.0888 109.268 52.0803C106.255 54.0254 101.231 55.9859 100.237 59.9148C98.2181 64.8315 96.2148 68.7682 96.2148 73.6849C96.2148 78.6095 99.243 82.5306 102.256 87.4475C103.227 89.4235 104.251 89.4235 106.255 90.3883C107.264 90.3883 111.294 92.3643 112.288 93.3369C113.282 94.3017 111.294 97.2726 111.294 103.186C111.294 108.087 111.294 108.087 112.288 112.016C112.288 115.952 113.282 119.874 114.291 122.815C111.294 122.815 109.268 119.874 107.264 121.849C107.264 123.826 109.268 128.735 111.294 132.657C116.31 137.573 121.318 142.49 124.347 148.378C124.347 149.36 124.347 151.321 125.325 151.321C118.298 152.3 111.294 152.3 104.251 154.291C98.2183 156.252 91.1911 159.209 85.1886 162.149C85.1886 166.079 86.1672 169.035 86.1672 169.035C87.1766 169.035 96.2148 164.102 104.251 162.149C117.304 158.227 124.347 159.209 124.347 159.209C125.325 161.17 126.342 164.102 125.325 165.097C113.282 170.015 101.231 175.912 90.1509 182.781C91.1911 184.758 90.1509 187.699 92.2005 189.658C102.256 183.761 116.31 176.891 126.342 172.955C130.364 171.976 130.364 172.955 132.383 172.955C133.377 173.937 135.373 177.857 137.377 177.857ZM329.599 264.791C329.599 264.791 327.675 260.969 327.675 260.036C326.72 258.126 325.765 255.266 322.863 254.318C322.863 253.369 321.892 258.126 320.937 260.036C319.954 261.931 319.954 260.969 318.028 264.791C319.954 267.628 320.937 269.525 322.863 272.385C322.863 273.333 325.765 277.14 325.765 277.14C325.765 277.14 329.599 269.525 329.599 267.628V264.791ZM457.761 378.268H452.795C450.812 377.28 449.815 377.28 448.832 378.268C445.846 381.189 445.846 386.072 443.849 389H455.781C457.761 387.03 459.758 386.072 459.758 382.148C459.758 381.189 459.758 379.227 457.761 378.268ZM318.028 243.676C318.028 235.068 315.93 235.068 311.722 231.248C311.722 231.248 308.551 236.99 306.46 239.849C310.665 243.676 311.722 248.458 311.722 248.458C315.93 244.63 315.93 245.583 318.028 243.676ZM357.077 278.222C357.077 275.297 356.054 272.388 354.049 270.434C353.011 267.525 352.005 263.64 352.005 261.687C350.951 259.763 346.908 253.915 344.871 251.006C342.841 249.073 342.841 244.21 341.819 241.287L329.599 243.225C335.725 251.006 340.829 258.778 343.833 266.563C344.871 269.481 354.049 298.651 354.049 298.651C357.077 297.666 353.011 283.085 354.049 282.116C355.032 280.176 355.032 279.191 357.077 278.222ZM281.132 200.156C280.116 198.24 278.052 194.403 277.022 193.446C276.014 191.531 274.965 189.616 273.919 188.643C272.918 187.701 268.808 188.643 266.769 188.643C264.706 188.643 263.689 188.643 261.626 189.616C263.689 191.531 265.721 198.24 266.769 198.24C267.784 200.156 267.784 201.112 269.84 202.101C274.965 203.043 279.069 202.101 284.21 204C286.235 201.112 282.147 201.112 281.132 200.156ZM307.906 222.371C307.906 222.371 295.613 215.521 293.554 212.605C290.488 212.605 290.488 212.605 287.415 215.521C285.34 215.521 284.342 216.525 283.32 218.458C286.4 220.439 287.415 221.397 290.488 223.347C291.526 224.322 292.539 224.322 295.613 223.347H303.825C305.838 223.347 307.906 224.322 307.906 222.371ZM477.976 367.489C477.976 367.489 476.929 370.528 475.883 372.53C473.805 377.593 472.773 379.609 472.773 382.634C475.883 384.697 476.929 383.658 481.11 383.658C483.187 383.658 485.265 384.697 486.313 384.697C488.39 383.658 486.313 381.642 486.313 380.633C485.265 380.633 481.11 371.52 477.976 367.489ZM370.804 282.875C374.945 279.931 375.991 274.011 377.038 271.065C378.084 268.105 375.991 262.208 374.945 260.244C371.835 260.244 369.782 258.265 367.656 258.265C365.578 258.265 364.548 253.342 361.415 254.324C362.462 256.302 364.548 266.149 365.578 268.105C366.641 269.102 370.804 275.99 370.804 282.875ZM448.187 336.652C448.187 335.683 444.996 333.733 443.981 333.733C443.981 332.742 442.868 328.826 441.804 327.865C439.718 326.875 439.718 325.899 437.589 325.899C437.589 326.875 437.589 327.865 436.525 329.816C436.525 331.766 434.399 332.742 435.479 334.693C436.525 336.652 437.589 336.652 439.718 337.626C440.764 338.602 443.981 346.436 444.996 347.41C446.061 346.436 446.061 340.553 448.187 336.652ZM271.833 177.679C274.906 177.679 276.932 179.621 278.981 179.621C278.981 176.724 277.941 174.782 276.932 171.854C275.908 166.986 273.866 164.059 272.827 161.154C272.827 158.242 272.827 156.286 271.833 154.344C270.823 154.344 269.784 154.344 268.774 153.358C265.724 153.358 261.626 152.373 261.626 152.373C261.626 155.315 262.667 160.167 262.667 163.089C262.667 164.059 266.734 172.825 267.75 173.796C268.774 175.753 269.784 176.724 271.833 177.679ZM368.646 242.288C367.64 239.284 364.606 238.267 362.571 236.264C362.571 236.264 349.376 231.248 347.316 231.248C345.281 232.242 352.41 236.264 353.416 238.267C357.479 242.288 367.64 251.325 367.64 251.325L368.646 242.288ZM244.247 119.388C243.241 120.359 242.205 122.315 242.205 123.27C240.163 126.196 237.146 128.145 239.141 131.071C240.163 134.969 240.163 138.85 243.241 141.777C246.298 144.703 250.334 143.716 254.395 146.636C254.395 146.636 251.34 133.982 249.344 128.145C248.324 124.27 246.298 122.315 244.247 119.388ZM436.848 193.025C423.776 180.306 409.67 172.45 395.587 172.45C383.527 172.45 374.446 181.252 374.446 190.093C374.446 225.368 388.561 247.914 397.61 267.49C400.614 272.392 401.616 276.316 401.616 281.217C402.628 293.959 391.579 317.468 384.522 330.211C383.527 329.219 378.47 328.257 374.446 328.257C364.387 328.257 360.363 335.096 358.341 340.969C355.322 340.969 353.339 339.013 350.273 339.013C338.22 338.037 328.152 348.802 328.152 360.582C328.152 373.294 331.147 380.182 336.206 389H346.273C345.255 386.061 342.251 371.347 341.24 367.44C340.258 361.576 342.251 357.636 345.255 354.696C349.291 348.802 359.338 350.788 359.338 350.788C356.334 355.681 352.311 363.514 352.311 371.347C353.339 376.258 354.311 384.121 357.361 389H365.413C367.39 383.113 365.413 378.228 365.413 373.294C365.413 370.385 365.413 367.44 366.394 364.492C366.394 362.538 371.428 368.416 371.428 368.416C371.428 368.416 375.459 363.514 375.459 359.59C375.459 356.658 369.435 357.636 368.449 354.696C367.39 351.764 370.433 344.892 370.433 344.892C376.471 340.969 381.488 341.961 383.527 341.961C386.522 341.961 387.518 342.923 391.579 342.923C394.576 342.923 395.587 337.059 395.587 334.136C396.583 335.096 399.633 337.059 400.614 337.059C403.625 338.037 404.636 338.037 407.655 339.013C411.693 340.969 415.722 342.923 419.761 346.862V345.87C418.733 341.961 420.742 337.059 417.738 335.096C417.738 335.096 412.688 331.173 408.666 329.219C406.659 327.263 403.625 327.263 402.628 325.309C401.616 324.331 401.616 323.339 401.616 321.385C401.616 319.422 402.628 316.491 403.625 316.491C405.632 315.499 406.659 316.491 410.681 318.43C414.711 320.407 418.733 323.339 421.753 325.309C421.753 325.309 422.749 327.263 422.749 326.287C426.787 324.331 426.787 323.339 426.787 317.468C422.749 312.551 426.787 311.589 420.742 307.665C418.733 307.665 407.655 303.74 407.655 303.74C407.655 301.779 410.681 296.891 410.681 296.891C411.693 295.929 413.686 295.929 414.711 297.869C420.742 301.779 424.764 301.779 430.848 303.74C431.798 300.817 431.798 298.861 429.805 296.891C427.768 293.959 424.764 290.998 422.749 290.02C418.733 289.044 416.72 288.066 413.686 287.088C413.686 284.149 412.688 281.217 411.693 277.293C411.693 275.324 413.686 276.316 415.722 276.316C419.761 275.324 436.848 281.217 436.848 281.217C436.848 277.293 435.836 274.346 433.814 272.392C431.798 270.422 429.805 268.466 424.764 266.519C417.738 264.55 411.693 265.543 406.659 262.596C402.628 258.672 401.616 257.694 400.614 253.77C403.625 252.808 408.666 251.815 411.693 251.815C416.72 251.815 419.761 250.838 425.792 252.808C427.768 253.77 434.841 259.664 437.875 259.664C437.875 259.664 435.836 251.815 433.814 248.892C430.848 248.892 425.792 242.996 423.776 242.02C413.686 238.095 411.693 240.064 405.632 241.042C402.628 242.02 399.633 241.042 396.583 241.042C395.587 239.088 398.605 236.141 397.61 234.187C397.61 233.193 393.556 232.217 393.556 230.27C393.556 230.27 409.67 228.3 415.722 229.276C417.738 230.27 423.776 234.187 425.792 234.187C425.792 234.187 427.768 227.306 424.764 221.443C419.761 220.481 414.711 221.443 410.681 220.481C406.659 219.489 402.628 220.481 399.633 220.481C396.583 220.481 393.556 219.489 390.553 219.489C388.561 216.557 387.518 213.602 387.518 210.671C387.518 210.671 412.688 209.677 414.711 208.717C413.686 207.707 411.693 206.761 410.681 204.775C406.659 197.92 403.625 196.951 398.605 196.951C395.587 196.951 388.561 199.874 384.522 198.898C384.522 191.071 388.561 184.216 394.576 184.216C406.659 184.216 418.733 189.101 428.794 199.874C453.98 225.368 467.036 273.368 467.036 307.665C467.036 323.339 465.029 338.037 463.029 349.794C466.041 350.788 468.031 350.788 471.067 350.788C474.108 339.013 477.112 323.339 477.112 308.641C477.112 258.672 458.984 216.557 436.848 193.025ZM284.765 152.426C286.816 160.247 289.852 170.023 290.875 181.715C290.875 184.668 289.852 187.59 290.875 190.527L305.013 195.395C305.013 195.395 303.026 183.678 300.991 170.023C298.964 158.314 297.948 154.404 294.912 149.504C292.879 150.477 291.878 150.477 289.852 150.477C286.816 151.451 284.765 152.426 284.765 152.426ZM318.018 209.435C320.047 211.368 321.046 215.243 322.061 222.026C323.069 225.908 325.099 226.875 327.097 232.682C330.143 230.756 335.194 231.724 335.194 231.724C335.194 226.875 332.15 222.026 332.15 221.075C331.119 219.11 328.112 213.301 327.097 211.368C328.112 211.368 331.119 215.243 336.193 215.243C337.224 215.243 340.262 216.194 342.26 215.243C342.26 215.243 345.274 217.191 345.274 219.11C347.295 222.026 347.295 223.959 348.342 226.875C350.31 226.875 351.356 226.875 352.355 225.908C356.392 225.908 358.406 224.926 358.406 224.926C357.423 222.992 356.392 221.075 356.392 219.11C355.377 217.191 353.386 212.336 353.386 212.336L371.539 209.435C371.539 206.504 370.54 202.622 367.487 200.689C358.406 203.619 348.342 204.571 341.245 204.571C331.119 204.571 321.046 202.622 306.907 196.829C305.899 198.755 306.907 202.622 306.907 202.622C312.966 207.501 312.966 204.571 318.018 209.435ZM95.1013 47.8049C102.197 43.8291 114.298 36.8597 118.326 32.8997C119.364 34.8954 131.488 41.8491 136.524 44.8036C140.552 47.8049 144.604 48.7794 148.632 50.7594C150.654 47.8048 152.652 44.8036 154.698 37.8654C157.727 39.8611 161.763 39.8611 164.776 40.8356C164.776 44.8036 164.776 48.7794 165.814 52.7708C165.814 54.7351 167.828 53.7451 171.873 51.7651C177.923 49.7851 183.972 48.7794 187.016 47.8049C194.052 43.8291 198.102 35.8854 204.162 35.8854C209.227 35.8854 218.306 38.8554 220.336 40.8356C223.358 41.8491 225.387 42.8234 228.425 42.8234C232.452 42.8234 235.481 38.8554 238.487 36.8597C229.424 30.9195 219.353 24.9637 209.227 20.9957C203.161 25.9382 199.117 29.9139 196.097 29.9139C193.053 29.9139 195.082 23.9737 195.082 19.99C192.052 19.99 190.022 19.99 187.016 19C185.018 25.9382 183.972 34.8954 178.938 36.8597C176.923 37.8654 175.894 37.8654 174.893 37.8654V29.9139C174.893 28.9239 178.938 21.9857 177.923 20.9957C177.923 20.9957 168.828 22.968 166.829 23.9737C165.814 24.9637 159.733 27.9494 158.734 27.9494C158.734 27.9494 155.697 26.9437 154.698 26.9437C151.669 24.9637 149.654 24.9637 146.618 22.968C142.59 34.8954 141.551 37.8654 141.551 35.8854C141.551 35.8854 127.413 26.9437 122.393 20.9957C109.247 22.968 109.247 24.9637 98.1381 28.9239C94.1019 32.8997 88.044 37.8654 84.0078 43.8291C81.9936 47.8049 79.964 49.7851 77.9576 53.7451L88.044 57.7209C89.0588 56.7153 94.1019 49.7851 95.1013 47.8049ZM444.015 314.012C446.832 314.972 448.725 321.709 450.626 323.628C453.471 327.48 452.532 316.905 451.579 314.972C451.579 314.012 451.579 306.323 449.687 306.323C448.725 305.348 447.785 302.464 446.832 301.52C445.879 304.39 446.832 306.323 446.832 309.202C446.832 311.134 443.018 313.037 444.015 314.012ZM267.742 114.138C266.727 114.138 263.651 113.177 259.519 112.217H254.395C255.41 115.114 258.504 117.996 259.519 119.917C259.519 120.893 259.519 123.789 260.572 125.696C262.604 125.696 265.68 126.656 267.742 127.623C268.765 127.623 274.92 128.599 276.972 130.522C279.02 130.522 286.18 138.221 287.242 139.181C290.305 141.118 293.39 143.038 295.419 142.078C297.481 142.078 295.419 139.181 295.419 138.221C291.335 132.442 288.257 121.853 287.242 121.853C284.157 120.893 282.096 121.853 278.005 119.917C275.966 117.996 269.796 115.114 267.742 114.138ZM250.59 91.0561C251.601 93.0583 253.571 93.0583 255.563 94.0439C257.54 96.0305 259.54 97.0242 262.514 99.0257C266.468 103.015 268.452 108.013 273.403 111.962C275.388 112.971 276.384 113.965 277.365 113.965C278.377 113.965 282.33 116.96 283.32 117.954C283.32 109.983 280.339 104.024 278.377 100.019C278.377 99.0257 277.365 98.032 275.388 97.0242C272.391 94.0439 269.433 91.0561 268.452 91.0561C265.486 88.0762 263.494 85.0963 260.521 82.1009C257.54 82.1009 255.563 85.0963 253.571 86.0896C252.589 88.0762 248.643 90.0784 250.59 91.0561ZM246.925 65.6921C246.925 68.5886 247.943 71.5157 248.946 74.3973C253.902 77.3014 259.908 79.2325 259.908 79.2325C260.895 76.3207 258.883 73.4316 258.883 70.5199C256.924 63.7457 253.902 56.9793 252.915 49.2396V45.347C248.946 43.4311 244.921 42.4504 239.934 40.5116C239.934 40.5116 239.934 46.3277 241.939 49.2396C243.942 54.0674 246.925 61.8146 246.925 65.6921ZM460.846 91.6306L456.865 86.5648L467.787 83.5349L472.773 100.744L460.846 91.6306ZM424.454 82.7579L418.518 86.4031L410.586 80.9352L419.498 76.3643L429.388 82.7579H424.454ZM581.692 273.909C582.686 268.049 582.686 262.194 582.686 258.283C580.659 256.334 577.611 255.344 575.624 255.344C575.624 252.437 574.591 248.532 575.624 244.619C577.611 244.619 581.692 245.593 581.692 244.619C581.692 238.759 580.661 232.883 579.675 229.967C577.611 228.979 574.591 228.004 571.55 227.014C571.55 224.091 570.55 221.168 569.533 219.219C572.597 218.231 574.591 218.231 576.609 218.231C576.609 218.231 574.591 209.439 573.6 205.526C571.55 204.551 568.516 204.551 566.499 204.551C565.489 202.619 564.473 200.64 563.456 197.717C565.489 196.75 567.53 196.75 569.533 195.775C567.53 190.89 566.499 188.925 564.473 186.002H557.411C556.41 184.053 555.394 182.091 555.394 180.156C556.41 179.145 558.412 178.186 559.437 177.196C558.412 174.289 556.41 171.35 554.361 169.401C552.344 169.401 550.319 170.36 548.302 169.401C547.301 169.401 544.251 165.49 545.268 165.49C546.269 163.526 548.302 162.551 549.319 161.584C546.269 157.688 545.268 154.749 542.225 152.785C540.208 152.785 538.206 152.785 536.157 153.775C536.157 153.775 534.133 150.822 533.13 149.848C530.082 149.848 535.157 144.969 535.157 144.969C532.114 141.072 529.096 138.133 525.054 134.236C522.989 134.236 520.971 136.168 519.971 136.168C519.971 136.168 515.927 133.247 515.927 132.273C515.927 130.324 519.971 129.35 519.971 129.35C519.971 129.35 512.877 121.532 507.835 118.593C505.816 119.568 504.815 119.568 502.759 119.568C499.74 116.647 495.69 114.698 495.69 114.698C495.69 114.698 498.74 112.733 498.74 111.759C493.68 108.829 491.646 106.896 487.604 103.941C483.554 101.993 481.535 99.0557 479.51 96.1168C472.442 85.3924 463.34 69.7658 441.051 66.8278C441.051 66.8278 446.135 73.6629 449.177 78.5573C449.177 79.5161 449.177 79.5161 445.118 79.5161H438.056C436.009 76.578 435.008 75.6192 433.976 73.6629C431.949 69.7658 430.996 68.7763 428.931 66.8278C424.881 63.8896 404.65 74.6373 387.447 78.5573C391.53 83.4286 395.556 86.3515 396.556 88.3153C401.616 93.1942 408.701 101.993 413.745 108.829C414.778 107.855 415.795 106.896 417.819 105.89C430.996 103.941 430.996 101.034 430.996 101.034C430.996 101.034 420.837 93.1942 427.899 93.1942C427.899 93.1942 432.975 94.1532 435.008 92.2276C440.06 91.2381 446.135 90.2638 449.177 92.2276C453.212 95.1425 455.229 99.0557 458.272 101.993C456.253 101.993 454.245 101.034 452.211 101.034C446.135 100.03 440.06 101.034 435.008 101.993C435.008 101.993 443.132 108.829 445.118 111.759C443.132 110.769 437.025 111.759 437.025 111.759C433.976 112.733 429.948 113.708 428.931 113.708C425.913 114.698 422.855 113.708 420.837 114.698C424.881 116.647 443.132 123.497 452.211 123.497C460.304 123.497 465.348 122.491 472.442 119.568C473.442 118.593 475.46 117.619 476.476 118.593C480.534 119.568 482.551 120.558 484.57 122.491C510.883 138.133 540.208 175.263 549.319 194.787C558.412 213.35 563.456 233.871 563.456 253.395C564.473 279.785 555.394 305.177 537.174 327.654C527.024 340.327 507.835 351.091 487.604 353.04C493.68 359.883 496.691 370.615 499.74 380.395C499.74 380.395 506.832 379.421 510.883 377.472C510.883 369.656 505.816 360.871 505.816 358.893C505.816 358.893 511.877 354.995 516.944 354.995C517.929 357.918 520.971 362.804 525.054 369.656C529.096 367.692 532.114 365.727 535.157 362.806C535.157 357.918 532.114 352.065 530.082 346.203C537.174 343.282 541.225 342.276 541.225 342.276C543.265 345.215 548.302 348.138 549.319 351.091C549.319 351.091 554.361 346.203 556.41 341.318C554.361 337.404 551.327 334.474 549.319 330.563L557.411 321.794C557.411 321.794 562.455 325.691 564.473 327.654C567.532 323.743 570.55 319.829 571.55 314.935C566.499 310.065 564.473 310.065 563.456 307.126C565.489 304.187 566.499 300.299 568.516 297.36C571.55 298.35 573.6 300.299 575.624 301.257C577.611 297.36 579.675 291.484 579.675 287.587C577.611 285.624 574.591 284.664 572.597 282.708C573.6 277.822 574.591 272.935 574.591 272.935C574.591 272.935 579.675 273.909 581.692 273.909Z" fill="white"/>
</g>
</g>
<defs>
<clipPath id="clip0">
<rect width="240" height="240" fill="white"/>
</clipPath>
</defs>
</svg>
