<svg width="50" height="50" viewBox="0 0 50 50" fill="none" xmlns="http://www.w3.org/2000/svg">
<path d="M11.0666 15.9604H33.6586C34.3231 33.2367 23.6916 37.888 23.6916 37.888C14.389 38.5525 12.3956 36.5591 12.3956 36.5591C25.685 32.5722 11.7311 34.5656 11.7311 34.5656L7.74426 29.2499C15.0534 27.2565 11.0666 15.9604 11.0666 15.9604Z" fill="#000716"/>
<mask id="mask0_18095_2000" style="mask-type:alpha" maskUnits="userSpaceOnUse" x="7" y="31" width="31" height="15">
<path d="M22.3628 31.9077C24.6083 31.9077 27.3224 32.2824 29.8364 32.7505C34.503 33.6194 37.7071 37.8385 37.4956 42.5806C37.4689 43.1789 37.4356 43.7833 37.3989 44.3921C32.8226 45.525 27.4102 45.8618 22.2221 45.8618C17.0177 45.8618 11.5878 45.523 7.0024 44.3813C6.99962 43.7768 6.99976 43.1766 7.0024 42.5825C7.02353 37.8359 10.2218 33.6195 14.8881 32.7505C17.4023 32.2824 20.1171 31.9077 22.3628 31.9077Z" fill="#002573"/>
</mask>
<g mask="url(#mask0_18095_2000)">
<path d="M22.3625 31.9077C24.6082 31.9077 27.323 32.2824 29.8372 32.7505C34.5036 33.6195 37.7069 37.8386 37.4954 42.5806C36.9102 55.6971 34.108 71.7759 21.0334 71.7759C7.95999 71.7755 6.94384 55.6985 7.00219 42.5825C7.02332 37.8358 10.2223 33.6194 14.8889 32.7505C17.4029 32.2824 20.117 31.9077 22.3625 31.9077Z" fill="#868686"/>
<path d="M18.3758 31.9077H26.3495C26.3495 33.4698 25.2896 34.8581 23.7458 35.0965C23.238 35.175 22.7452 35.2301 22.3626 35.2301C21.98 35.2301 21.4872 35.175 20.9794 35.0965C19.4357 34.8581 18.3758 33.4698 18.3758 31.9077Z" fill="#FECDA9"/>
</g>
<circle cx="22.3626" cy="15.296" r="11.296" fill="#000716"/>
<path d="M12.3954 16.625C12.3954 11.1204 16.8579 6.65796 22.3625 6.65796C27.8672 6.65796 32.3296 11.1204 32.3296 16.625V20.6119C32.3296 26.1165 27.8672 30.5789 22.3625 30.5789C16.8579 30.5789 12.3954 26.1165 12.3954 20.6119V16.625Z" fill="#FECDA9"/>
<path d="M20.3691 22.6052H24.356V31.9078C24.356 33.0088 23.4635 33.9012 22.3626 33.9012C21.2616 33.9012 20.3691 33.0088 20.3691 31.9078V22.6052Z" fill="#FECDA9"/>
<path d="M32.3297 13.3025C24.356 13.3025 21.6981 25.9275 8.40869 23.9341C12.3955 17.9538 9.07316 12.638 14.3889 7.32227L15.7179 6.6578L22.3626 5.32886L30.3363 7.98674L32.3297 13.3025Z" fill="#000716"/>
<rect x="40.6398" y="26" width="11.0662" height="19.6732" rx="0.614787" transform="rotate(43.8932 40.6398 26)" fill="#307E2F" stroke="#307E2F" stroke-width="1.22957"/>
<rect x="35.0483" y="23.0002" width="12.5218" height="22.2611" rx="0.695658" transform="rotate(26.8307 35.0483 23.0002)" fill="#BAE7B9" stroke="#359933" stroke-width="1.39132"/>
<circle cx="35.6107" cy="35.7582" r="4.17395" transform="rotate(26.8307 35.6107 35.7582)" fill="#359933"/>
<circle cx="38.7506" cy="29.5505" r="1.39132" transform="rotate(26.8307 38.7506 29.5505)" fill="#359933"/>
<circle cx="32.4708" cy="41.9659" r="1.39132" transform="rotate(26.8307 32.4708 41.9659)" fill="#359933"/>
<path d="M27.7972 43.4997L27.4832 44.1205L25.0001 42.8645L26.2561 40.3815L26.8769 40.6955C27.9054 41.2157 28.3174 42.4712 27.7972 43.4997Z" fill="#359933"/>
<path d="M37.2167 24.8768L37.5307 24.256L35.0476 23.0001L33.7917 25.4832L34.4125 25.7971C35.441 26.3174 36.6965 25.9053 37.2167 24.8768Z" fill="#359933"/>
<path d="M34.0048 46.6395L33.6908 47.2603L36.1739 48.5163L37.4299 46.0332L36.8091 45.7192C35.7806 45.199 34.5251 45.611 34.0048 46.6395Z" fill="#359933"/>
<path d="M43.4245 28.0169L43.7385 27.3961L46.2216 28.6521L44.9656 31.1351L44.3449 30.8211C43.3164 30.3009 42.9043 29.0454 43.4245 28.0169Z" fill="#359933"/>
</svg>
