<svg width="50" height="50" viewBox="0 0 50 50" fill="none" xmlns="http://www.w3.org/2000/svg">
<g clip-path="url(#clip0_11245_1556)">
<mask id="mask0_11245_1556" style="mask-type:alpha" maskUnits="userSpaceOnUse" x="0" y="-14" width="48" height="55">
<path d="M47.3085 29.883C47.3085 39.2542 35.0213 41 23.9043 41C12.7872 41 0.5 39.2542 0.5 29.883C0.5 20.5118 11.5635 -14 24.4894 -14C37.4152 -14 47.3085 20.5118 47.3085 29.883Z" fill="#C4C4C4"/>
</mask>
<g mask="url(#mask0_11245_1556)">
<path d="M12.7872 14.6702H32.6808C33.2659 29.8829 23.9042 33.9787 23.9042 33.9787C15.7128 34.5638 13.9574 32.8085 13.9574 32.8085C25.6596 29.2978 13.3723 31.0531 13.3723 31.0531L9.86169 26.3723C16.2979 24.617 12.7872 14.6702 12.7872 14.6702Z" fill="#000716"/>
<mask id="mask1_11245_1556" style="mask-type:alpha" maskUnits="userSpaceOnUse" x="9" y="28" width="28" height="36">
<path d="M9.20829 38.1123C9.22689 33.9325 12.0435 30.2201 16.1527 29.455C18.3665 29.0428 20.7566 28.7128 22.734 28.7128C24.7115 28.7128 27.1015 29.0428 29.3154 29.455C33.4246 30.2201 36.2456 33.9351 36.0593 38.1107C35.544 49.6606 33.0767 63.8192 21.5638 63.8192C10.0514 63.8192 9.1569 49.6619 9.20829 38.1123Z" fill="#002573"/>
</mask>
<g mask="url(#mask1_11245_1556)">
<path d="M9.20829 38.1123C9.22689 33.9325 12.0435 30.2201 16.1527 29.455C18.3665 29.0428 20.7566 28.7128 22.734 28.7128C24.7115 28.7128 27.1015 29.0428 29.3154 29.455C33.4246 30.2201 36.2456 33.9351 36.0593 38.1107C35.544 49.6606 33.0767 63.8192 21.5638 63.8192C10.0514 63.8192 9.1569 49.6619 9.20829 38.1123Z" fill="#868686"/>
<path d="M19.2234 28.7128H26.2447V28.7128C26.2447 30.0883 25.3114 31.3107 23.952 31.5207C23.5049 31.5898 23.0709 31.6383 22.734 31.6383C22.3971 31.6383 21.9632 31.5898 21.516 31.5207C20.1567 31.3107 19.2234 30.0883 19.2234 28.7128V28.7128Z" fill="#FECDA9"/>
</g>
<circle cx="22.734" cy="14.0851" r="9.94681" fill="#000716"/>
<path d="M13.9574 15.2554C13.9574 10.4082 17.8868 6.47876 22.734 6.47876V6.47876C27.5812 6.47876 31.5106 10.4082 31.5106 15.2554V18.766C31.5106 23.6132 27.5812 27.5426 22.734 27.5426V27.5426C17.8868 27.5426 13.9574 23.6132 13.9574 18.766V15.2554Z" fill="#FECDA9"/>
<path d="M20.9787 20.5212H24.4893V28.7127C24.4893 29.6822 23.7035 30.468 22.734 30.468V30.468C21.7646 30.468 20.9787 29.6822 20.9787 28.7127V20.5212Z" fill="#FECDA9"/>
<path d="M31.5106 12.3297C24.4893 12.3297 22.1489 23.4468 10.4468 21.6915C13.9574 16.4255 11.0319 11.7446 15.7127 7.06379L16.8829 6.47868L22.734 5.30847L29.7553 7.6489L31.5106 12.3297Z" fill="#000716"/>
</g>
<path d="M48 37C48 31.4772 43.5228 27 38 27C32.4772 27 28 31.4772 28 37C28 42.5228 32.4772 47 38 47C43.5228 47 48 42.5228 48 37Z" fill="#0053FF"/>
<path d="M34 37H42" stroke="white" stroke-width="2" stroke-linecap="round"/>
<path d="M38 33V41" stroke="white" stroke-width="2" stroke-linecap="round"/>
</g>
<defs>
<clipPath id="clip0_11245_1556">
<rect width="50" height="50" fill="white"/>
</clipPath>
</defs>
</svg>
