<svg width="50" height="50" viewBox="0 0 50 50" fill="none" xmlns="http://www.w3.org/2000/svg">
<path d="M11.0666 15.9604H33.6586C34.3231 33.2367 23.6916 37.888 23.6916 37.888C14.389 38.5525 12.3956 36.5591 12.3956 36.5591C25.685 32.5722 11.7311 34.5656 11.7311 34.5656L7.74426 29.2499C15.0534 27.2565 11.0666 15.9604 11.0666 15.9604Z" fill="#000716"/>
<mask id="mask0_8300_207" style="mask-type:alpha" maskUnits="userSpaceOnUse" x="7" y="31" width="31" height="15">
<path fill-rule="evenodd" clip-rule="evenodd" d="M37.4005 44.3936C32.8239 45.5268 27.411 45.8617 22.2225 45.8617C17.0179 45.8617 11.5875 45.5248 7.00191 44.3831C6.99911 43.7779 6.99955 43.177 7.00219 42.5822C7.02332 37.8354 10.2219 33.6195 14.8885 32.7506C17.4027 32.2825 20.1169 31.9077 22.3626 31.9077C24.6083 31.9077 27.3225 32.2825 29.8366 32.7506C34.5032 33.6195 37.7069 37.8384 37.4953 42.5804C37.4686 43.1793 37.4372 43.7843 37.4005 44.3936Z" fill="#002573"/>
</mask>
<g mask="url(#mask0_8300_207)">
<path d="M7.00219 42.5822C7.02332 37.8354 10.2219 33.6195 14.8885 32.7506C17.4027 32.2825 20.1169 31.9077 22.3626 31.9077C24.6083 31.9077 27.3225 32.2825 29.8366 32.7506C34.5032 33.6195 37.7068 37.8384 37.4953 42.5804C36.9101 55.697 34.1082 71.776 21.0336 71.776C7.95965 71.776 6.94383 55.6984 7.00219 42.5822Z" fill="#868686"/>
<path d="M18.3758 31.9077H26.3495V31.9077C26.3495 33.4698 25.2896 34.8581 23.7458 35.0965C23.238 35.175 22.7452 35.2301 22.3626 35.2301C21.98 35.2301 21.4872 35.175 20.9794 35.0965C19.4357 34.8581 18.3758 33.4698 18.3758 31.9077V31.9077Z" fill="#FECDA9"/>
</g>
<circle cx="22.3626" cy="15.296" r="11.296" fill="#000716"/>
<path d="M12.3954 16.625C12.3954 11.1204 16.8579 6.65796 22.3625 6.65796V6.65796C27.8672 6.65796 32.3296 11.1204 32.3296 16.625V20.6119C32.3296 26.1165 27.8672 30.5789 22.3625 30.5789V30.5789C16.8579 30.5789 12.3954 26.1165 12.3954 20.6119V16.625Z" fill="#FECDA9"/>
<path d="M20.3691 22.6052H24.356V31.9078C24.356 33.0088 23.4635 33.9012 22.3626 33.9012V33.9012C21.2616 33.9012 20.3691 33.0088 20.3691 31.9078V22.6052Z" fill="#FECDA9"/>
<path d="M32.3297 13.3025C24.356 13.3025 21.6981 25.9275 8.40869 23.9341C12.3955 17.9538 9.07316 12.638 14.3889 7.32227L15.7179 6.6578L22.3626 5.32886L30.3363 7.98674L32.3297 13.3025Z" fill="#000716"/>
<rect x="28" y="28" width="19" height="19" rx="9.5" fill="#0053FF"/>
<path d="M34 37L37 41L42 34" stroke="white" stroke-width="2" stroke-linecap="round" stroke-linejoin="round"/>
</svg>
