<svg width="50" height="50" viewBox="0 0 50 50" fill="none" xmlns="http://www.w3.org/2000/svg">
<g clip-path="url(#clip0_8300_206)">
<path d="M13.0666 14.9604H35.6586C36.3231 32.2367 25.6916 36.888 25.6916 36.888C16.389 37.5525 14.3956 35.5591 14.3956 35.5591C27.685 31.5722 13.7311 33.5656 13.7311 33.5656L9.74426 28.2499C17.0534 26.2565 13.0666 14.9604 13.0666 14.9604Z" fill="#000716"/>
<mask id="mask0_8300_206" style="mask-type:alpha" maskUnits="userSpaceOnUse" x="9" y="30" width="31" height="15">
<path fill-rule="evenodd" clip-rule="evenodd" d="M39.4005 43.3936C34.8239 44.5268 29.411 44.8617 24.2225 44.8617C19.0179 44.8617 13.5875 44.5248 9.00191 43.3831C8.99911 42.7779 8.99955 42.177 9.00219 41.5822C9.02332 36.8354 12.2219 32.6195 16.8885 31.7506C19.4027 31.2825 22.1169 30.9077 24.3626 30.9077C26.6083 30.9077 29.3225 31.2825 31.8366 31.7506C36.5032 32.6195 39.7069 36.8384 39.4953 41.5804C39.4686 42.1793 39.4372 42.7843 39.4005 43.3936Z" fill="#002573"/>
</mask>
<g mask="url(#mask0_8300_206)">
<path d="M24.3625 30.9077C26.6082 30.9077 29.323 31.2824 31.8372 31.7505C34.0485 32.1623 35.9301 33.3274 37.2766 34.9429L30.0002 46.5005L38.6457 50.8228C37.0867 61.214 33.1158 70.7759 23.0334 70.7759C9.95999 70.7755 8.94384 54.6985 9.00219 41.5825C9.02332 36.8358 12.2223 32.6194 16.8889 31.7505C19.4029 31.2824 22.117 30.9077 24.3625 30.9077Z" fill="#0053FF"/>
<path d="M20.3758 30.9077H28.3495C28.3495 32.4698 27.2896 33.8581 25.7458 34.0965C25.238 34.175 24.7452 34.2301 24.3626 34.2301C23.98 34.2301 23.4872 34.175 22.9794 34.0965C21.4357 33.8581 20.3758 32.4698 20.3758 30.9077Z" fill="#FECDA9"/>
</g>
<circle cx="24.3626" cy="14.296" r="11.296" fill="#000716"/>
<path d="M14.3954 15.625C14.3954 10.1204 18.8579 5.65796 24.3625 5.65796C29.8672 5.65796 34.3296 10.1204 34.3296 15.625V19.6119C34.3296 25.1165 29.8672 29.5789 24.3625 29.5789C18.8579 29.5789 14.3954 25.1165 14.3954 19.6119V15.625Z" fill="#FECDA9"/>
<path d="M22.3691 21.6052H26.356V30.9078C26.356 32.0088 25.4635 32.9012 24.3626 32.9012C23.2616 32.9012 22.3691 32.0088 22.3691 30.9078V21.6052Z" fill="#FECDA9"/>
<path d="M34.3297 12.3025C26.356 12.3025 23.6981 24.9275 10.4087 22.9341C14.3955 16.9538 11.0732 11.638 16.3889 6.32227L17.7179 5.6578L24.3626 4.32886L32.3363 6.98674L34.3297 12.3025Z" fill="#000716"/>
<path d="M44.1449 25.5674C45.9593 26.7456 47.136 28.2989 47.7765 29.3277C48.1894 29.9909 48.1192 30.8172 47.6938 31.4724L44.0653 37.0597C43.7527 37.5411 43.1999 37.8114 42.6279 37.7634L36.5556 37.2539L33.6204 31.9139C33.344 31.4109 33.3668 30.7964 33.6794 30.315L37.3078 24.7277C37.7333 24.0727 38.459 23.672 39.2326 23.7792C40.433 23.946 42.3307 24.3893 44.1449 25.5674ZM43.3019 28.3001C42.9024 27.9634 42.4623 27.6776 41.9923 27.4496L40.6109 26.7796C39.9714 26.4696 39.2011 26.6841 38.814 27.2801C38.3901 27.9328 38.5758 28.8054 39.2283 29.2294L42.7993 31.5484C43.4521 31.9724 44.3246 31.7869 44.7486 31.1341C45.1357 30.538 45.0185 29.747 44.475 29.289L43.3019 28.3001Z" fill="#FFAA00"/>
<mask id="mask1_8300_206" style="mask-type:alpha" maskUnits="userSpaceOnUse" x="26" y="33" width="15" height="17">
<path d="M36.1389 33.0243L40.5898 35.9148L37.3311 40.9327C37.2602 41.0419 37.1394 41.1085 37.0092 41.11L34.6128 41.1389C34.3349 41.1423 34.1498 41.4272 34.2598 41.6825L35.0594 43.5383C35.1694 43.7935 34.9843 44.0785 34.7064 44.0819L32.6858 44.1062C32.4079 44.1095 32.2228 44.3945 32.3328 44.6497L33.2811 46.8507C33.3327 46.9703 33.321 47.1077 33.2501 47.2169L31.9184 49.2676L27.9861 49.5336C27.6918 49.5535 27.4114 49.4054 27.262 49.151L26.7478 48.2758C26.5983 48.0215 26.6054 47.7045 26.7661 47.457L36.1389 33.0243Z" fill="#FFAA00"/>
</mask>
<g mask="url(#mask1_8300_206)">
<path d="M36.1389 33.0243L40.5898 35.9148L30.4731 51.4931L27.5058 49.5661L26.5039 47.8608L36.1389 33.0243Z" fill="#FFAA00"/>
</g>
</g>
<defs>
<clipPath id="clip0_8300_206">
<rect width="50" height="50" fill="white"/>
</clipPath>
</defs>
</svg>
