<svg width="50" height="50" viewBox="0 0 50 50" fill="none" xmlns="http://www.w3.org/2000/svg">
<g clip-path="url(#clip0)">
<mask id="mask0" mask-type="alpha" maskUnits="userSpaceOnUse" x="1" y="-15" width="47" height="56">
<path d="M47.8085 29.383C47.8085 38.7542 35.5213 40.5 24.4043 40.5C13.2872 40.5 1 38.7542 1 29.383C1 20.0118 12.0635 -14.5 24.9894 -14.5C37.9152 -14.5 47.8085 20.0118 47.8085 29.383Z" fill="#C4C4C4"/>
</mask>
<g mask="url(#mask0)">
<path d="M13.2872 14.1702H33.1808C33.7659 29.3829 24.4042 33.4787 24.4042 33.4787C16.2128 34.0638 14.4574 32.3085 14.4574 32.3085C26.1596 28.7978 13.8723 30.5531 13.8723 30.5531L10.3617 25.8723C16.7979 24.117 13.2872 14.1702 13.2872 14.1702Z" fill="#000716"/>
<mask id="mask1" mask-type="alpha" maskUnits="userSpaceOnUse" x="9" y="28" width="28" height="36">
<path d="M9.70835 37.6123C9.72695 33.4325 12.5435 29.7201 16.6527 28.955C18.8666 28.5428 21.2566 28.2128 23.2341 28.2128C25.2115 28.2128 27.6016 28.5428 29.8154 28.955C33.9246 29.7201 36.7456 33.4351 36.5593 37.6107C36.044 49.1606 33.5768 63.3192 22.0639 63.3192C10.5515 63.3192 9.65696 49.1619 9.70835 37.6123Z" fill="#002573"/>
</mask>
<g mask="url(#mask1)">
<path d="M9.70835 37.6123C9.72695 33.4325 12.5435 29.7201 16.6527 28.955C18.8666 28.5428 21.2566 28.2128 23.2341 28.2128C25.2115 28.2128 27.6016 28.5428 29.8154 28.955C33.9246 29.7201 36.7456 33.4351 36.5593 37.6107C36.044 49.1606 33.5768 63.3192 22.0639 63.3192C10.5515 63.3192 9.65696 49.1619 9.70835 37.6123Z" fill="#0053FF"/>
<path d="M19.7234 28.2128H26.7447V28.2128C26.7447 29.5883 25.8114 30.8107 24.452 31.0207C24.0049 31.0898 23.5709 31.1383 23.234 31.1383C22.8971 31.1383 22.4632 31.0898 22.016 31.0207C20.6567 30.8107 19.7234 29.5883 19.7234 28.2128V28.2128Z" fill="#FECDA9"/>
</g>
<circle cx="23.234" cy="13.5851" r="9.94681" fill="#000716"/>
<path d="M14.4575 14.7554C14.4575 9.90817 18.3869 5.97876 23.2341 5.97876V5.97876C28.0813 5.97876 32.0107 9.90818 32.0107 14.7554V18.266C32.0107 23.1132 28.0813 27.0426 23.2341 27.0426V27.0426C18.3869 27.0426 14.4575 23.1132 14.4575 18.266V14.7554Z" fill="#FECDA9"/>
<path d="M21.4788 20.0212H24.9894V28.2127C24.9894 29.1822 24.2035 29.968 23.2341 29.968V29.968C22.2646 29.968 21.4788 29.1822 21.4788 28.2127V20.0212Z" fill="#FECDA9"/>
<path d="M32.0107 11.8297C24.9895 11.8297 22.649 22.9468 10.9469 21.1915C14.4575 15.9255 11.532 11.2446 16.2129 6.56379L17.3831 5.97868L23.2341 4.80847L30.2554 7.1489L32.0107 11.8297Z" fill="#000716"/>
</g>
<path fill-rule="evenodd" clip-rule="evenodd" d="M37.2332 22.7791C36.4593 22.6716 35.7333 23.0725 35.3078 23.7278L31.6792 29.3153C31.3665 29.7968 31.344 30.4111 31.6205 30.9142L34.5557 36.2543L40.628 36.7637C41.2 36.8117 41.7521 36.5412 42.0647 36.0598L45.6933 30.4722C46.1188 29.817 46.1898 28.9907 45.7768 28.3274C45.1363 27.2986 43.9595 25.7458 42.1452 24.5675C40.3308 23.3893 38.4336 22.9458 37.2332 22.7791ZM38.6113 25.7797C37.9717 25.4695 37.2013 25.6841 36.8142 26.2802C36.3902 26.933 36.5758 27.8059 37.2286 28.2298L40.7991 30.5486C41.452 30.9725 42.3248 30.787 42.7488 30.1342C43.1359 29.5381 43.0185 28.747 42.475 28.2889L41.3017 27.3C40.9021 26.9632 40.4621 26.6775 39.9919 26.4494L38.6113 25.7797Z" fill="#FFC900"/>
<mask id="mask2" mask-type="alpha" maskUnits="userSpaceOnUse" x="24" y="32" width="15" height="19">
<path d="M34.1388 32.0243L38.5897 34.9148L35.331 39.9327C35.2601 40.0419 35.1393 40.1085 35.0091 40.11L32.6127 40.1389C32.3348 40.1423 32.1497 40.4272 32.2597 40.6825L33.0594 42.5383C33.1693 42.7935 32.9843 43.0785 32.7064 43.0819L30.6857 43.1062C30.4078 43.1095 30.2228 43.3945 30.3327 43.6497L31.2811 45.8507C31.3326 45.9703 31.3209 46.1077 31.25 46.2169L29.9183 48.2676L25.9861 48.5336C25.6917 48.5535 25.4114 48.4054 25.2619 48.151L24.7477 47.2758C24.5983 47.0215 24.6054 46.7045 24.7661 46.457L34.1388 32.0243Z" fill="#FFC900"/>
</mask>
<g mask="url(#mask2)">
<path d="M34.1388 32.0243L38.5897 34.9148L28.4731 50.4931L25.5058 48.5661L24.5039 46.8608L34.1388 32.0243Z" fill="#FFC900"/>
</g>
</g>
<defs>
<clipPath id="clip0">
<rect width="50" height="50" fill="white"/>
</clipPath>
</defs>
</svg>
