<svg width="50" height="50" viewBox="0 0 50 50" fill="none" xmlns="http://www.w3.org/2000/svg">
<g clip-path="url(#clip0_8300_206)">
<path d="M11.0666 15.9604H33.6586C34.3231 33.2367 23.6916 37.888 23.6916 37.888C14.389 38.5525 12.3956 36.5591 12.3956 36.5591C25.685 32.5722 11.7311 34.5656 11.7311 34.5656L7.74426 29.2499C15.0534 27.2565 11.0666 15.9604 11.0666 15.9604Z" fill="#000716"/>
<mask id="mask0_8300_206" style="mask-type:alpha" maskUnits="userSpaceOnUse" x="7" y="31" width="31" height="15">
<path fill-rule="evenodd" clip-rule="evenodd" d="M37.4005 44.3936C32.8239 45.5268 27.411 45.8617 22.2225 45.8617C17.0179 45.8617 11.5875 45.5248 7.00191 44.3831C6.99911 43.7779 6.99955 43.177 7.00219 42.5822C7.02332 37.8354 10.2219 33.6195 14.8885 32.7506C17.4027 32.2825 20.1169 31.9077 22.3626 31.9077C24.6083 31.9077 27.3225 32.2825 29.8366 32.7506C34.5032 33.6195 37.7069 37.8384 37.4953 42.5804C37.4686 43.1793 37.4372 43.7843 37.4005 44.3936Z" fill="#002573"/>
</mask>
<g mask="url(#mask0_8300_206)">
<path d="M7.00219 42.5822C7.02332 37.8354 10.2219 33.6195 14.8885 32.7506C17.4027 32.2825 20.1169 31.9077 22.3626 31.9077C24.6083 31.9077 27.3225 32.2825 29.8366 32.7506C34.5032 33.6195 37.7068 37.8384 37.4953 42.5804C36.9101 55.697 34.1082 71.776 21.0336 71.776C7.95965 71.776 6.94383 55.6984 7.00219 42.5822Z" fill="#0053FF"/>
<path d="M18.3758 31.9077H26.3495V31.9077C26.3495 33.4698 25.2896 34.8581 23.7458 35.0965C23.238 35.175 22.7452 35.2301 22.3626 35.2301C21.98 35.2301 21.4872 35.175 20.9794 35.0965C19.4357 34.8581 18.3758 33.4698 18.3758 31.9077V31.9077Z" fill="#FECDA9"/>
</g>
<circle cx="22.3626" cy="15.296" r="11.296" fill="#000716"/>
<path d="M12.3954 16.625C12.3954 11.1204 16.8579 6.65796 22.3625 6.65796V6.65796C27.8672 6.65796 32.3296 11.1204 32.3296 16.625V20.6119C32.3296 26.1165 27.8672 30.5789 22.3625 30.5789V30.5789C16.8579 30.5789 12.3954 26.1165 12.3954 20.6119V16.625Z" fill="#FECDA9"/>
<path d="M20.3691 22.6052H24.356V31.9078C24.356 33.0088 23.4635 33.9012 22.3626 33.9012V33.9012C21.2616 33.9012 20.3691 33.0088 20.3691 31.9078V22.6052Z" fill="#FECDA9"/>
<path d="M32.3297 13.3025C24.356 13.3025 21.6981 25.9275 8.40869 23.9341C12.3955 17.9538 9.07316 12.638 14.3889 7.32227L15.7179 6.6578L22.3626 5.32886L30.3363 7.98674L32.3297 13.3025Z" fill="#000716"/>
<path fill-rule="evenodd" clip-rule="evenodd" d="M37.2332 22.7791C36.4593 22.6716 35.7333 23.0725 35.3078 23.7278L31.6792 29.3153C31.3665 29.7968 31.344 30.4111 31.6205 30.9142L34.5557 36.2543L40.628 36.7637C41.2 36.8117 41.7521 36.5412 42.0647 36.0598L45.6933 30.4722C46.1188 29.817 46.1898 28.9907 45.7768 28.3274C45.1363 27.2986 43.9595 25.7458 42.1452 24.5675C40.3308 23.3893 38.4336 22.9458 37.2332 22.7791ZM38.6113 25.7797C37.9717 25.4695 37.2013 25.6841 36.8142 26.2802C36.3902 26.933 36.5758 27.8059 37.2286 28.2298L40.7991 30.5486C41.452 30.9725 42.3248 30.787 42.7488 30.1342C43.1359 29.5381 43.0185 28.747 42.475 28.2889L41.3017 27.3C40.9021 26.9632 40.4621 26.6775 39.9919 26.4494L38.6113 25.7797Z" fill="#FFC900"/>
<mask id="mask1_8300_206" style="mask-type:alpha" maskUnits="userSpaceOnUse" x="24" y="32" width="15" height="17">
<path d="M34.1389 32.0243L38.5898 34.9148L35.3311 39.9327C35.2602 40.0419 35.1394 40.1085 35.0092 40.11L32.6128 40.1389C32.3349 40.1423 32.1498 40.4272 32.2598 40.6825L33.0594 42.5383C33.1694 42.7935 32.9843 43.0785 32.7064 43.0819L30.6858 43.1062C30.4079 43.1095 30.2228 43.3945 30.3328 43.6497L31.2811 45.8507C31.3327 45.9703 31.321 46.1077 31.2501 46.2169L29.9184 48.2676L25.9861 48.5336C25.6918 48.5535 25.4114 48.4054 25.262 48.151L24.7478 47.2758C24.5983 47.0215 24.6054 46.7045 24.7661 46.457L34.1389 32.0243Z" fill="#FFC900"/>
</mask>
<g mask="url(#mask1_8300_206)">
<path d="M34.1389 32.0243L38.5898 34.9148L28.4731 50.4931L25.5058 48.5661L24.5039 46.8608L34.1389 32.0243Z" fill="#FFC900"/>
</g>
</g>
<defs>
<clipPath id="clip0_8300_206">
<rect width="50" height="50" fill="white"/>
</clipPath>
</defs>
</svg>
