<svg width="50" height="50" viewBox="0 0 50 50" fill="none" xmlns="http://www.w3.org/2000/svg">
<g clip-path="url(#clip0_12568_1150)">
<path d="M11.0666 14.9604H33.6586C34.3231 32.2366 23.6916 36.8879 23.6916 36.8879C14.389 37.5524 12.3956 35.559 12.3956 35.559C25.685 31.5722 11.7311 33.5656 11.7311 33.5656L7.74426 28.2498C15.0534 26.2564 11.0666 14.9604 11.0666 14.9604Z" fill="#000716"/>
<mask id="mask0_12568_1150" style="mask-type:alpha" maskUnits="userSpaceOnUse" x="7" y="30" width="31" height="15">
<path fill-rule="evenodd" clip-rule="evenodd" d="M37.4005 43.3937C32.8239 44.5269 27.411 44.8617 22.2225 44.8617C17.0179 44.8617 11.5875 44.5248 7.00191 43.3831C6.99911 42.7779 6.99955 42.177 7.00219 41.5822C7.02332 36.8355 10.2219 32.6196 14.8885 31.7507C17.4027 31.2826 20.1169 30.9078 22.3626 30.9078C24.6083 30.9078 27.3225 31.2826 29.8366 31.7507C34.5032 32.6196 37.7068 36.8384 37.4953 41.5805C37.4686 42.1793 37.4372 42.7843 37.4005 43.3937Z" fill="#002573"/>
</mask>
<g mask="url(#mask0_12568_1150)">
<path d="M7.00219 41.5822C7.02332 36.8355 10.2219 32.6196 14.8885 31.7507C17.4027 31.2826 20.1169 30.9078 22.3626 30.9078C24.6083 30.9078 27.3225 31.2826 29.8366 31.7507C34.5032 32.6196 37.7068 36.8384 37.4953 41.5805C36.9101 54.697 34.1082 70.7761 21.0336 70.7761C7.95965 70.7761 6.94383 54.6985 7.00219 41.5822Z" fill="#868686"/>
<path d="M18.3757 30.9078H26.3494V30.9078C26.3494 32.4699 25.2895 33.8582 23.7457 34.0967C23.238 34.1751 22.7452 34.2302 22.3626 34.2302C21.9799 34.2302 21.4872 34.1751 20.9794 34.0967C19.4356 33.8582 18.3757 32.4699 18.3757 30.9078V30.9078Z" fill="#FECDA9"/>
</g>
<circle cx="22.3625" cy="14.296" r="11.296" fill="#000716"/>
<path d="M12.3955 15.625C12.3955 10.1204 16.8579 5.65796 22.3626 5.65796V5.65796C27.8672 5.65796 32.3297 10.1204 32.3297 15.625V19.6119C32.3297 25.1165 27.8672 29.5789 22.3626 29.5789V29.5789C16.8579 29.5789 12.3955 25.1165 12.3955 19.6119V15.625Z" fill="#FECDA9"/>
<path d="M20.3691 21.6052H24.356V30.9078C24.356 32.0088 23.4635 32.9012 22.3626 32.9012V32.9012C21.2616 32.9012 20.3691 32.0088 20.3691 30.9078V21.6052Z" fill="#FECDA9"/>
<path d="M32.3297 12.3025C24.356 12.3025 21.6981 24.9275 8.40869 22.9341C12.3955 16.9538 9.07316 11.638 14.3889 6.32227L15.7179 5.6578L22.3626 4.32886L30.3363 6.98674L32.3297 12.3025Z" fill="#000716"/>
<mask id="mask1_12568_1150" style="mask-type:alpha" maskUnits="userSpaceOnUse" x="26" y="23" width="23" height="27">
<path d="M27.05 28.4774C27.05 28.4359 27.0871 28.4037 27.1284 28.4076C32.7875 28.942 35.9112 25.8119 36.874 24.6344C37.0353 24.4371 37.3648 24.4372 37.5261 24.6344C38.4889 25.8119 41.6126 28.942 47.2717 28.4076C47.313 28.4037 47.35 28.4359 47.35 28.4774L47.35 34.6125C46.6949 44.5217 41.7475 46.6895 37.9599 48.9352C37.4923 49.2124 36.9078 49.2124 36.4402 48.9352C32.6526 46.6895 27.7052 44.5217 27.05 34.6125V28.4774Z" fill="#0046D7" stroke="black" stroke-width="1.4"/>
</mask>
<g mask="url(#mask1_12568_1150)">
<rect x="19" y="20" width="35" height="35" fill="#003DBA"/>
<path d="M37.2 20H19V55H37.2V20Z" fill="#0053FF"/>
</g>
<mask id="mask2_12568_1150" style="mask-type:alpha" maskUnits="userSpaceOnUse" x="28" y="26" width="19" height="22">
<path d="M28.1 30.5459C28.1 30.1067 28.4809 29.7655 28.9199 29.7777C32.8589 29.8869 35.4855 27.9508 36.5974 26.9215C36.9246 26.6186 37.4753 26.6186 37.8025 26.9215C38.9145 27.9508 41.5411 29.8869 45.48 29.7777C45.9191 29.7655 46.3 30.1067 46.3 30.5459V35.3654C45.7561 43.3674 41.1808 45.6714 37.9431 47.5563C37.4842 47.8235 36.9157 47.8235 36.4568 47.5563C33.2191 45.6714 28.6439 43.3674 28.1 35.3654V30.5459Z" fill="#C4C4C4"/>
</mask>
<g mask="url(#mask2_12568_1150)">
<path d="M37.2 24.55L47.7 27.7V36.1C47.7 36.1 42.8 37.5 37.2 37.5V24.55Z" fill="#DCDCDC"/>
<path d="M37.2 37.5C31.6 37.5 26.6999 36.1 26.6999 36.1V43.1L32.3 48.7L37.2 51.5V37.5Z" fill="white"/>
</g>
</g>
<defs>
<clipPath id="clip0_12568_1150">
<rect width="50" height="50" fill="white"/>
</clipPath>
</defs>
</svg>
