<svg width="50" height="50" viewBox="0 0 50 50" fill="none" xmlns="http://www.w3.org/2000/svg">
<g clip-path="url(#clip0)">
<mask id="mask0" mask-type="alpha" maskUnits="userSpaceOnUse" x="0" y="-14" width="48" height="55">
<path d="M47.3085 29.883C47.3085 39.2542 35.0213 41 23.9043 41C12.7872 41 0.5 39.2542 0.5 29.883C0.5 20.5118 11.5635 -14 24.4894 -14C37.4152 -14 47.3085 20.5118 47.3085 29.883Z" fill="#C4C4C4"/>
</mask>
<g mask="url(#mask0)">
<path d="M12.7872 14.6702H32.6808C33.2659 29.8829 23.9042 33.9787 23.9042 33.9787C15.7128 34.5638 13.9574 32.8085 13.9574 32.8085C25.6596 29.2978 13.3723 31.0531 13.3723 31.0531L9.86169 26.3723C16.2979 24.617 12.7872 14.6702 12.7872 14.6702Z" fill="#000716"/>
<mask id="mask1" mask-type="alpha" maskUnits="userSpaceOnUse" x="9" y="28" width="28" height="36">
<path d="M9.20835 38.1123C9.22695 33.9325 12.0435 30.2201 16.1527 29.455C18.3666 29.0428 20.7566 28.7128 22.7341 28.7128C24.7115 28.7128 27.1016 29.0428 29.3154 29.455C33.4246 30.2201 36.2456 33.9351 36.0593 38.1107C35.544 49.6606 33.0768 63.8192 21.5639 63.8192C10.0515 63.8192 9.15696 49.6619 9.20835 38.1123Z" fill="#002573"/>
</mask>
<g mask="url(#mask1)">
<path d="M9.20835 38.1123C9.22695 33.9325 12.0435 30.2201 16.1527 29.455C18.3666 29.0428 20.7566 28.7128 22.7341 28.7128C24.7115 28.7128 27.1016 29.0428 29.3154 29.455C33.4246 30.2201 36.2456 33.9351 36.0593 38.1107C35.544 49.6606 33.0768 63.8192 21.5639 63.8192C10.0515 63.8192 9.15696 49.6619 9.20835 38.1123Z" fill="#0053FF"/>
<path d="M19.2234 28.7128H26.2447V28.7128C26.2447 30.0883 25.3114 31.3107 23.952 31.5207C23.5049 31.5898 23.0709 31.6383 22.734 31.6383C22.3971 31.6383 21.9632 31.5898 21.516 31.5207C20.1567 31.3107 19.2234 30.0883 19.2234 28.7128V28.7128Z" fill="#FECDA9"/>
</g>
<circle cx="22.734" cy="14.0851" r="9.94681" fill="#000716"/>
<path d="M13.9575 15.2554C13.9575 10.4082 17.8869 6.47876 22.7341 6.47876V6.47876C27.5813 6.47876 31.5107 10.4082 31.5107 15.2554V18.766C31.5107 23.6132 27.5813 27.5426 22.7341 27.5426V27.5426C17.8869 27.5426 13.9575 23.6132 13.9575 18.766V15.2554Z" fill="#FECDA9"/>
<path d="M20.9788 20.5212H24.4894V28.7127C24.4894 29.6822 23.7035 30.468 22.7341 30.468V30.468C21.7646 30.468 20.9788 29.6822 20.9788 28.7127V20.5212Z" fill="#FECDA9"/>
<path d="M31.5107 12.3297C24.4895 12.3297 22.149 23.4468 10.4469 21.6915C13.9575 16.4255 11.032 11.7446 15.7129 7.06379L16.8831 6.47868L22.7341 5.30847L29.7554 7.6489L31.5107 12.3297Z" fill="#000716"/>
</g>
<circle cx="41.7692" cy="32.5155" r="5.84193" transform="rotate(33 41.7692 32.5155)" stroke="#868686" stroke-width="1.60505"/>
<path fill-rule="evenodd" clip-rule="evenodd" d="M35.4497 23.5343C34.6773 23.4163 33.9504 23.8181 33.5249 24.4734L30.4714 29.1753C30.1588 29.6567 30.1362 30.2711 30.4127 30.7742L32.9438 35.3792L38.1803 35.8185C38.7523 35.8665 39.3044 35.596 39.617 35.1146L42.6705 30.4127C43.096 29.7574 43.1674 28.9299 42.7455 28.2723C42.1659 27.369 41.1523 26.0781 39.6273 25.0877C38.1022 24.0973 36.5106 23.6964 35.4497 23.5343ZM36.5153 26.1552C35.9521 25.882 35.2737 26.071 34.9327 26.5959C34.5594 27.1708 34.7228 27.9395 35.2977 28.3128L38.442 30.3547C39.0168 30.728 39.7855 30.5646 40.1588 29.9898C40.4997 29.4648 40.3964 28.7682 39.9178 28.3648L38.8845 27.4939C38.5326 27.1973 38.1452 26.9457 37.7311 26.7449L36.5153 26.1552Z" fill="#FFC900"/>
<mask id="mask2" mask-type="alpha" maskUnits="userSpaceOnUse" x="23" y="31" width="14" height="17">
<path d="M32.5768 31.6542L36.4963 34.1996L33.6402 38.5976C33.5693 38.7068 33.4485 38.7733 33.3183 38.7749L31.3026 38.7992C31.0247 38.8025 30.8397 39.0875 30.9496 39.3427L31.5986 40.8489C31.7086 41.1042 31.5235 41.3891 31.2456 41.3925L29.6057 41.4122C29.3278 41.4156 29.1427 41.7005 29.2527 41.9558L30.0504 43.8071C30.1019 43.9266 30.0903 44.0641 30.0193 44.1733L28.8602 45.9583L25.4547 46.1886C25.1604 46.2085 24.88 46.0604 24.7306 45.806L24.336 45.1345C24.1865 44.8801 24.1936 44.5631 24.3543 44.3156L32.5768 31.6542Z" fill="#FFC900"/>
</mask>
<g mask="url(#mask2)">
<path d="M32.5768 31.6542L36.4963 34.1996L27.5875 47.918L24.9744 46.2211L24.0921 44.7194L32.5768 31.6542Z" fill="#FFC900"/>
</g>
<path d="M38.5875 37.415C41.2934 39.1722 44.9115 38.4032 46.6687 35.6973C48.4259 32.9914 47.6569 29.3733 44.951 27.6161C42.2451 25.8588 38.627 26.6279 36.8698 29.3338" stroke="#868686" stroke-width="1.60505"/>
</g>
<defs>
<clipPath id="clip0">
<rect width="50" height="50" fill="white"/>
</clipPath>
</defs>
</svg>
