<svg width="50" height="50" viewBox="0 0 50 50" fill="none" xmlns="http://www.w3.org/2000/svg">
<g clip-path="url(#clip0)">
<path d="M8 6C8 4.89543 8.89543 4 10 4H37C38.1046 4 39 4.89543 39 6L39 44C39 45.1046 38.1046 46 37 46H10C8.89543 46 8 45.1046 8 44V6Z" fill="#F5F5F5"/>
<path d="M11 13C11 12.4477 11.4477 12 12 12H25C25.5523 12 26 12.4477 26 13V13C26 13.5523 25.5523 14 25 14H12C11.4477 14 11 13.5523 11 13V13Z" fill="#868686"/>
<path d="M11 21C11 20.4477 11.4477 20 12 20H33C33.5523 20 34 20.4477 34 21V23C34 23.5523 33.5523 24 33 24H12C11.4477 24 11 23.5523 11 23V21Z" fill="#DCDCDC"/>
<path d="M11 27C11 26.4477 11.4477 26 12 26H26C26.5523 26 27 26.4477 27 27V27C27 27.5523 26.5523 28 26 28H12C11.4477 28 11 27.5523 11 27V27Z" fill="#DCDCDC"/>
<path d="M11 16C11 15.4477 11.4477 15 12 15H19C19.5523 15 20 15.4477 20 16V16C20 16.5523 19.5523 17 19 17H12C11.4477 17 11 16.5523 11 16V16Z" fill="#868686"/>
<rect x="44.0138" y="7.1571" width="1.25725" height="5.02901" rx="0.628626" transform="rotate(-156.175 44.0138 7.1571)" fill="#C4C4C4"/>
<path d="M45.231 9.06906L46.5049 13.0145C46.7984 13.9234 46.6358 14.9181 46.0682 15.6862L41.9237 21.295C41.6012 21.7314 40.9173 21.6026 40.7757 21.0787V21.0787C40.6962 20.7848 40.8319 20.4751 41.1019 20.3342L41.2391 20.2626C41.4067 20.1752 41.54 20.0339 41.6175 19.8615L43.6835 15.2631C44.0238 14.5056 44.0307 13.6401 43.7025 12.8773L43.6269 12.7015L45.231 9.06906Z" fill="#0053FF"/>
<path d="M29.5396 39.9352C29.3993 40.2528 29.0282 40.3966 28.7106 40.2563V40.2563C28.393 40.1161 28.2492 39.7449 28.3895 39.4273L29.6591 36.5521L30.8093 37.0599L29.5396 39.9352Z" fill="black"/>
<path d="M30.9452 38.7224C30.6136 39.2399 29.9565 39.4322 29.3943 39.1839L29.0426 39.0286C28.4804 38.7804 28.1798 38.1652 28.3389 37.5716C28.9167 35.4163 30.314 30.4006 31.4891 27.7395C33.0127 24.2892 37.6131 26.3207 36.0895 29.771C34.9144 32.4321 32.1489 36.8435 30.9452 38.7224Z" fill="#C4C4C4"/>
<path d="M36.0895 29.771L31.489 27.7395L41.1386 5.88743C41.6995 4.61705 43.1841 4.04197 44.4545 4.60294V4.60294C45.7249 5.16392 46.3 6.64853 45.739 7.9189L36.0895 29.771Z" fill="#0053FF"/>
<rect x="40.4587" y="15.2079" width="1.25725" height="5.02901" rx="0.628626" transform="rotate(-156.175 40.4587 15.2079)" fill="#C4C4C4"/>
<path d="M13 42C23.9354 37.0243 18.7806 32.2683 15.5 36C13.9855 37.7227 12 44 26 40.1341" stroke="#002573" stroke-width="1.5" stroke-linecap="round"/>
</g>
<defs>
<clipPath id="clip0">
<rect width="50" height="50" fill="white"/>
</clipPath>
</defs>
</svg>
