<svg width="50" height="50" viewBox="0 0 50 50" fill="none" xmlns="http://www.w3.org/2000/svg">
<rect x="7" y="38.6348" width="14.8829" height="8.01387" rx="2.28968" fill="white"/>
<path d="M9.28967 44.2268C13.339 36.1698 15.4985 45.5608 18.4484 44.2268" stroke="#868686" stroke-width="2.28968" stroke-linecap="round" stroke-linejoin="round"/>
<rect x="36.9547" y="8.55292" width="1.4035" height="5.614" rx="0.70175" transform="rotate(-156.175 36.9547 8.55292)" fill="#C4C4C4"/>
<path d="M38.3136 10.6872L39.7357 15.0916C40.0633 16.1062 39.8818 17.2166 39.2482 18.0741L34.6216 24.3353C34.2616 24.8225 33.4981 24.6787 33.34 24.0939V24.0939C33.2513 23.7657 33.4028 23.42 33.7042 23.2628L33.8574 23.1829C34.0445 23.0853 34.1932 22.9275 34.2797 22.7351L36.5861 17.6017C36.966 16.7561 36.9737 15.79 36.6073 14.9384L36.5229 14.7422L38.3136 10.6872Z" fill="#0053FF"/>
<path d="M20.7968 45.1439C20.6402 45.4984 20.2259 45.6589 19.8714 45.5024V45.5024C19.5168 45.3458 19.3563 44.9315 19.5129 44.5769L20.9303 41.3672L22.2141 41.9341L20.7968 45.1439Z" fill="black"/>
<path d="M22.3659 43.79C21.9958 44.3677 21.2622 44.5823 20.6346 44.3051L20.242 44.1318C19.6144 43.8546 19.2789 43.1679 19.4565 42.5052C20.1014 40.0992 21.6613 34.5002 22.973 31.5295C24.6739 27.6778 29.8095 29.9456 28.1086 33.7973C26.7968 36.768 23.7096 41.6925 22.3659 43.79Z" fill="#C4C4C4"/>
<path d="M28.1085 33.7973L22.9729 31.5295L33.7449 7.13553C34.3712 5.71738 36.0285 5.07541 37.4466 5.70164V5.70164C38.8648 6.32787 39.5067 7.98517 38.8805 9.40332L28.1085 33.7973Z" fill="#0053FF"/>
<rect x="32.986" y="17.5402" width="1.4035" height="5.614" rx="0.70175" transform="rotate(-156.175 32.986 17.5402)" fill="#C4C4C4"/>
<rect x="21.0803" y="44.502" width="1.4035" height="12.6315" transform="rotate(-156.175 21.0803 44.502)" fill="#868686"/>
</svg>
