<svg width="50" height="50" viewBox="0 0 50 50" fill="none" xmlns="http://www.w3.org/2000/svg">
<path d="M7.68289 10.6426C7.86383 9.13477 9.14292 8 10.6615 8H15.5C17.1569 8 18.5 9.34315 18.5 11V30C18.5 31.6569 17.1569 33 15.5 33H8.38152C6.58295 33 5.1886 31.4283 5.40289 29.6426L7.68289 10.6426Z" fill="#DFB000"/>
<path d="M10.7686 10.2383C10.6257 9.04778 11.5553 8 12.7543 8H28.8385C30.3571 8 31.6362 9.13478 31.8171 10.6426L34.0971 29.6426C34.3114 31.4283 32.917 33 31.1185 33H16.1615C14.6429 33 13.3638 31.8652 13.1829 30.3574L10.7686 10.2383Z" fill="#FFC900"/>
<path d="M27 11V14.5833C27 17.5749 24.5376 20 21.5 20C18.4624 20 16 17.5749 16 14.5833V11" stroke="#634E00" stroke-width="2" stroke-linecap="round" stroke-linejoin="round"/>
<path d="M17.6829 20.6426C17.8638 19.1348 19.1429 18 20.6615 18H25.5C27.1569 18 28.5 19.3431 28.5 21V40C28.5 41.6569 27.1569 43 25.5 43H18.3815C16.583 43 15.1886 41.4283 15.4029 39.6426L17.6829 20.6426Z" fill="#0041CA"/>
<path d="M20.7686 20.2383C20.6257 19.0478 21.5553 18 22.7543 18H38.8385C40.3571 18 41.6362 19.1348 41.8171 20.6426L44.0971 39.6426C44.3114 41.4283 42.917 43 41.1185 43H26.1615C24.6429 43 23.3638 41.8652 23.1829 40.3574L20.7686 20.2383Z" fill="#0053FF"/>
<path d="M37 21V24.5833C37 27.5749 34.5376 30 31.5 30C28.4624 30 26 27.5749 26 24.5833V21" stroke="#002573" stroke-width="2" stroke-linecap="round" stroke-linejoin="round"/>
</svg>
