<svg width="50" height="50" viewBox="0 0 50 50" fill="none" xmlns="http://www.w3.org/2000/svg">
<rect x="9.5116" y="16.3254" width="30.9767" height="25.814" fill="#686868"/>
<rect x="6.06976" y="18.907" width="37.8605" height="2.5814" fill="#D9D9D9"/>
<rect x="4.34882" y="41.2791" width="41.3023" height="1.72093" fill="#DCDCDC"/>
<path d="M43.5003 15.4502V15.8955H6.50031V15.4502L24.9993 7.40723L43.5003 15.4502Z" fill="#ADADAD" stroke="#D9D9D9" stroke-width="2.5814"/>
<path d="M5.20929 17.186H44.7907V18.907H5.20929V17.186Z" fill="#ADADAD"/>
<path d="M5.20929 39.5581H44.7907V41.279H5.20929V39.5581Z" fill="#C7C7C7"/>
<path d="M8.65111 23.2092H12.093V36.1162H7.79065L8.65111 23.2092Z" fill="#DCDCDC"/>
<path d="M7.79065 21.4883H13.8139V23.2092H7.79065V21.4883Z" fill="#ADADAD"/>
<path d="M8.65111 23.2092H12.093V36.1162H7.79065L8.65111 23.2092Z" fill="#DCDCDC"/>
<rect x="9.51166" y="23.2092" width="0.860465" height="12.907" fill="#D5D5D5"/>
<path d="M11.2326 23.2092H13.0765L13.814 36.1162H11.2326V23.2092Z" fill="#C7C7C7"/>
<path d="M6.93024 37.8374H14.6744V36.1165H6.93024V37.8374Z" fill="#ADADAD"/>
<path d="M18.1163 23.2092H21.5581V36.1162H17.2558L18.1163 23.2092Z" fill="#DCDCDC"/>
<path d="M17.2558 21.4883H23.2791V23.2092H17.2558V21.4883Z" fill="#ADADAD"/>
<path d="M18.1163 23.2092H21.5581V36.1162H17.2558L18.1163 23.2092Z" fill="#DCDCDC"/>
<rect x="18.9767" y="23.2092" width="0.860465" height="12.907" fill="#D5D5D5"/>
<path d="M20.6976 23.2092H22.5415L23.279 36.1162H20.6976V23.2092Z" fill="#C7C7C7"/>
<path d="M16.3954 37.8374H24.1396V36.1165H16.3954V37.8374Z" fill="#ADADAD"/>
<path d="M27.5814 23.2092H31.0233V36.1162H26.7209L27.5814 23.2092Z" fill="#DCDCDC"/>
<path d="M26.7209 21.4883H32.7442V23.2092H26.7209V21.4883Z" fill="#ADADAD"/>
<path d="M27.5814 23.2092H31.0233V36.1162H26.7209L27.5814 23.2092Z" fill="#DCDCDC"/>
<rect x="28.4418" y="23.2092" width="0.860465" height="12.907" fill="#D5D5D5"/>
<path d="M30.1628 23.2092H32.0066L32.7442 36.1162H30.1628V23.2092Z" fill="#C7C7C7"/>
<path d="M25.8605 37.8374H33.6047V36.1165H25.8605V37.8374Z" fill="#ADADAD"/>
<path d="M37.0465 23.2092H40.4884V36.1162H36.186L37.0465 23.2092Z" fill="#DCDCDC"/>
<path d="M36.186 21.4883H42.2093V23.2092H36.186V21.4883Z" fill="#ADADAD"/>
<path d="M37.0465 23.2092H40.4884V36.1162H36.186L37.0465 23.2092Z" fill="#DCDCDC"/>
<rect x="37.907" y="23.2092" width="0.860465" height="12.907" fill="#D5D5D5"/>
<path d="M39.6278 23.2092H41.4717L42.2092 36.1162H39.6278V23.2092Z" fill="#C7C7C7"/>
<path d="M35.3256 37.8374H43.0697V36.1165H35.3256V37.8374Z" fill="#ADADAD"/>
<rect width="37.8605" height="1.72093" transform="matrix(1 0 0 -1 6.06976 39.5581)" fill="#DCDCDC"/>
<rect x="41.5123" y="29.1504" width="9.56087" height="16.9971" rx="0.53116" transform="rotate(43.8932 41.5123 29.1504)" fill="#307E2F" stroke="#307E2F" stroke-width="1.06232"/>
<rect x="36.6814" y="26.5591" width="10.8185" height="19.233" rx="0.60103" transform="rotate(26.8307 36.6814 26.5591)" fill="#BAE7B9" stroke="#359933" stroke-width="1.20206"/>
<circle cx="37.1674" cy="37.5812" r="3.60618" transform="rotate(26.8307 37.1674 37.5812)" fill="#359933"/>
<circle cx="39.8801" cy="32.218" r="1.20206" transform="rotate(26.8307 39.8801 32.218)" fill="#359933"/>
<circle cx="34.4545" cy="42.9448" r="1.20206" transform="rotate(26.8307 34.4545 42.9448)" fill="#359933"/>
<path d="M30.4167 44.2698L30.1454 44.8061L28.0001 43.721L29.0852 41.5757L29.6215 41.847C30.5101 42.2964 30.8661 43.3812 30.4167 44.2698Z" fill="#359933"/>
<path d="M38.5548 28.1802L38.8261 27.6439L36.6808 26.5588L35.5957 28.7041L36.132 28.9754C37.0206 29.4248 38.1054 29.0689 38.5548 28.1802Z" fill="#359933"/>
<path d="M35.7799 46.9826L35.5086 47.5189L37.6539 48.604L38.739 46.4587L38.2027 46.1875C37.3141 45.738 36.2293 46.094 35.7799 46.9826Z" fill="#359933"/>
<path d="M43.9183 30.8931L44.1896 30.3567L46.3349 31.4419L45.2498 33.5872L44.7134 33.3159C43.8248 32.8664 43.4688 31.7817 43.9183 30.8931Z" fill="#359933"/>
</svg>
