<svg width="50" height="50" viewBox="0 0 50 50" fill="none" xmlns="http://www.w3.org/2000/svg">
<mask id="mask0" mask-type="alpha" maskUnits="userSpaceOnUse" x="7" y="10" width="36" height="30">
<path d="M7 11C7 10.4477 7.44772 10 8 10H32.0895C32.3603 10 32.6284 10.055 32.8773 10.1617L41.7878 13.9805C42.5232 14.2957 43 15.0187 43 15.8188V38C43 39.1046 42.1046 40 41 40H17.9105C17.6397 40 17.3716 39.945 17.1227 39.8383L8.21216 36.0195C7.47679 35.7043 7 34.9813 7 34.1812V11Z" fill="#A58167"/>
</mask>
<g mask="url(#mask0)">
<path d="M7 10H32.5L43 14.5H7V10Z" fill="#FFBE89"/>
<rect x="17.5" y="14.5" width="25.5" height="25.5" fill="#E7A065"/>
<path d="M7 10L17.5 14.5V40L7 35.5V10Z" fill="#CB8347"/>
<path d="M10.75 11.5H37L40.75 13H11.5L10.75 11.5Z" fill="#5E5E5E"/>
</g>
<path d="M10.75 11.5L13.75 13V17.5L10.75 16.75V11.5Z" fill="#000716"/>
<rect x="20.5" y="17.5" width="10.5" height="12" rx="0.75" fill="white"/>
<rect x="22" y="19" width="7.5" height="1.5" rx="0.75" fill="#C4C4C4"/>
<rect x="22" y="22" width="4.5" height="1.5" rx="0.75" fill="#C4C4C4"/>
<rect x="22" y="25" width="1.5" height="3" rx="0.3" fill="#5E5E5E"/>
<rect x="26.5" y="25" width="1.5" height="3" rx="0.3" fill="#5E5E5E"/>
<rect x="24.25" y="25" width="0.75" height="3" rx="0.3" fill="#5E5E5E"/>
<rect x="25.75" y="25" width="0.375" height="3" rx="0.1875" fill="#5E5E5E"/>
<rect x="28.75" y="25" width="0.75" height="3" rx="0.3" fill="#5E5E5E"/>
<rect x="19.8845" y="37.8654" width="2.65385" height="0.884615" fill="#000716"/>
<rect x="19.8845" y="35.2115" width="2.65385" height="1.76923" fill="#000716"/>
<path d="M23.4231 35.2115H19L21.2115 33L23.4231 35.2115Z" fill="#000716"/>
</svg>
