<svg width="50" height="50" viewBox="0 0 50 50" fill="none" xmlns="http://www.w3.org/2000/svg">
<mask id="mask0_8940:1284" style="mask-type:alpha" maskUnits="userSpaceOnUse" x="7" y="10" width="36" height="30">
<path d="M7 13C7 11.3431 8.34315 10 10 10H32.0895C32.3603 10 32.6284 10.055 32.8773 10.1617L41.1818 13.7208C42.2848 14.1935 43 15.2781 43 16.4782V37C43 38.6569 41.6569 40 40 40H18.1158C17.7095 40 17.3074 39.9175 16.934 39.7574L8.21216 36.0195C7.47679 35.7043 7 34.9813 7 34.1812V13Z" fill="#A58167"/>
</mask>
<g mask="url(#mask0_8940:1284)">
<path d="M7 10H31.8842C32.2905 10 32.6926 10.0825 33.066 10.2426L43 14.5H7V10Z" fill="#FFBE89"/>
<path d="M17.5 14.5H43V37C43 38.6569 41.6569 40 40 40H17.5V14.5Z" fill="#E7A065"/>
<path d="M7 10L17.5 14.5V40L8.81824 36.2792C7.71519 35.8065 7 34.7219 7 33.5218V10Z" fill="#CB8347"/>
<path d="M10.75 11.5H37L40.75 13H11.5L10.75 11.5Z" fill="#5E5E5E"/>
</g>
<path d="M10.75 11.5L13.75 13V17.5L10.75 16.75V11.5Z" fill="#000716"/>
<rect x="20.5" y="17.5" width="10.5" height="12" rx="0.75" fill="white"/>
<rect x="22" y="19" width="7.5" height="1.5" rx="0.75" fill="#C4C4C4"/>
<rect x="22" y="22" width="4.5" height="1.5" rx="0.75" fill="#C4C4C4"/>
<rect x="22" y="25" width="1.5" height="3" rx="0.3" fill="#5E5E5E"/>
<rect x="26.5" y="25" width="1.5" height="3" rx="0.3" fill="#5E5E5E"/>
<rect x="24.25" y="25" width="0.75" height="3" rx="0.3" fill="#5E5E5E"/>
<rect x="25.75" y="25" width="0.375" height="3" rx="0.1875" fill="#5E5E5E"/>
<rect x="28.75" y="25" width="0.75" height="3" rx="0.3" fill="#5E5E5E"/>
<rect x="19.8845" y="37.8654" width="2.65385" height="0.884615" fill="#000716"/>
<rect x="19.8845" y="35.2115" width="2.65385" height="1.76923" fill="#000716"/>
<path d="M23.4231 35.2115H19L21.2115 33L23.4231 35.2115Z" fill="#000716"/>
</svg>
