<svg width="50" height="50" viewBox="0 0 50 50" fill="none" xmlns="http://www.w3.org/2000/svg">
<path d="M7 15.5H43V37C43 40.3137 40.3137 43 37 43H13C9.68629 43 7 40.3137 7 37V15.5Z" fill="#F5F5F5"/>
<path d="M7 13C7 9.68629 9.68629 7 13 7H37C40.3137 7 43 9.68629 43 13V19H7V13Z" fill="#FF1741"/>
<circle cx="33" cy="12" r="3.5" fill="#B60121"/>
<circle cx="17" cy="12" r="3.5" fill="#B60121"/>
<path d="M35 5C35 3.89543 34.1046 3 33 3V3C31.8954 3 31 3.89543 31 5V12C31 13.1046 31.8954 14 33 14V14C34.1046 14 35 13.1046 35 12V5Z" fill="#1D2129"/>
<path d="M19 5C19 3.89543 18.1046 3 17 3V3C15.8954 3 15 3.89543 15 5V12C15 13.1046 15.8954 14 17 14V14C18.1046 14 19 13.1046 19 12V5Z" fill="#1D2129"/>
<rect x="12" y="24" width="5" height="5" rx="1" fill="#D9D9D9"/>
<rect x="12" y="31" width="5" height="5" rx="1" fill="#D9D9D9"/>
<rect x="19" y="24" width="5" height="5" rx="1" fill="#D9D9D9"/>
<rect x="19" y="31" width="5" height="5" rx="1" fill="#D9D9D9"/>
<rect x="33" y="24" width="5" height="5" rx="1" fill="#D9D9D9"/>
<rect x="26" y="24" width="5" height="5" rx="1" fill="#D9D9D9"/>
</svg>
