<svg width="50" height="50" viewBox="0 0 50 50" fill="none" xmlns="http://www.w3.org/2000/svg">
<path d="M21.6 16.9294H39.0353V38.0353C39.0353 39.0489 38.2136 39.8706 37.2 39.8706H21.6V16.9294Z" fill="#0039B0"/>
<path d="M7.83521 16.9294H23.4352V38.0353C23.4352 39.0489 22.6135 39.8706 21.5999 39.8706H9.6705C8.6569 39.8706 7.83521 39.0489 7.83521 38.0353V16.9294Z" fill="#0053FF"/>
<path d="M6 16.0117C6 14.9981 6.82169 14.1765 7.8353 14.1765H15.1765V19.6823H6.91765C6.41085 19.6823 6 19.2715 6 18.7647V16.0117Z" fill="#0053FF"/>
<rect x="7.83521" y="19.6824" width="15.6" height="2.75294" fill="#0039B0"/>
<path d="M8.75293 38.953C8.75293 38.4462 9.16377 38.0353 9.67058 38.0353H15.1765V39.8706H9.67058C9.16377 39.8706 8.75293 39.4598 8.75293 38.953Z" fill="#0039B0"/>
<rect x="23.4353" y="19.6824" width="15.6" height="2.75294" fill="#002573"/>
<path d="M13.3412 22.4353H17.9294V38.0353H19.7647V39.8706H14.2588C13.752 39.8706 13.3412 39.4598 13.3412 38.953V22.4353Z" fill="#EDF0F4"/>
<path d="M33.5294 22.4353H28.9412V38.0353H27.1059V39.8706H32.6118C33.1186 39.8706 33.5294 39.4598 33.5294 38.953V22.4353Z" fill="#DBE2F0"/>
<rect width="4.58824" height="2.75294" transform="matrix(1 0 0 -1 13.3412 22.4353)" fill="#CAD1DA"/>
<path d="M12.4236 15.0941C12.4236 14.5873 12.8344 14.1765 13.3412 14.1765H17.9295V19.6823H13.3412C12.8344 19.6823 12.4236 19.2715 12.4236 18.7647V15.0941Z" fill="#EDF0F4"/>
<path d="M17.9294 38.0353H21.6C22.6136 38.0353 23.4353 37.2136 23.4353 36.2H25.2706V39.8706H18.8471C18.3403 39.8706 17.9294 39.4598 17.9294 38.953V38.0353Z" fill="#0039B0"/>
<path d="M28.9412 38.0353H23.4353V39.8706H28.0235C28.5303 39.8706 28.9412 39.4598 28.9412 38.953V38.0353Z" fill="#0039B0"/>
<rect x="28.9412" y="19.6824" width="4.58824" height="2.75294" fill="#B3BDD1"/>
<path d="M20.6824 9.58824C20.6824 9.08144 21.0932 8.67059 21.6 8.67059H25.2706C25.7774 8.67059 26.1883 9.08144 26.1883 9.58824V14.1765H20.6824V9.58824Z" fill="#DBE2F0"/>
<path d="M10.7398 8.83058C11.1132 6.9638 13.2232 6.03038 14.8557 7.00985L20.6824 10.5059V14.1765H13.0287C11.2915 14.1765 9.98852 12.5871 10.3292 10.8836L10.7398 8.83058Z" fill="#DBE2F0"/>
<path d="M36.1308 8.83058C35.7574 6.9638 33.6474 6.03038 32.0149 7.00985L26.1882 10.5059V14.1765H33.8419C35.5791 14.1765 36.8821 12.5871 36.5414 10.8836L36.1308 8.83058Z" fill="#DBE2F0"/>
<path d="M26.1882 11.4235L31.3848 9.93877C32.0709 9.74274 32.7897 10.1219 33.0153 10.7988C33.2813 11.5967 32.7508 12.4385 31.9162 12.5428L26.1882 13.2588V11.4235Z" fill="#C7D0E3"/>
<path d="M20.6824 11.4235L15.4858 9.93877C14.7997 9.74274 14.0809 10.1219 13.8553 10.7988C13.5893 11.5967 14.1198 12.4385 14.9544 12.5428L20.6824 13.2588V11.4235Z" fill="#C7D0E3"/>
<path d="M17.0118 15.0941C17.0118 14.5873 17.4227 14.1765 17.9295 14.1765H25.2707V19.6823H17.9295C17.4227 19.6823 17.0118 19.2715 17.0118 18.7647V15.0941Z" fill="#0053FF"/>
<path d="M28.0236 14.1765H39.0353C40.0489 14.1765 40.8706 14.9981 40.8706 16.0117V18.7647C40.8706 19.2715 40.4598 19.6823 39.953 19.6823H28.0236V14.1765Z" fill="#0043CD"/>
<path d="M28.9412 14.1765H33.5294C34.0362 14.1765 34.447 14.5873 34.447 15.0941V18.7647C34.447 19.2715 34.0362 19.6823 33.5294 19.6823H28.9412V14.1765Z" fill="#DBE2F0"/>
<path d="M23.4353 16.0117C23.4353 14.9981 24.257 14.1765 25.2706 14.1765H28.9412C29.448 14.1765 29.8588 14.5873 29.8588 15.0941V18.7647C29.8588 19.2715 29.448 19.6823 28.9412 19.6823H23.4353V16.0117Z" fill="#0043CD"/>
<path d="M36.3449 43.4714C36.0626 43.6179 35.7375 43.6179 35.4552 43.4714C33.6286 42.5235 26.8 38.6376 26.8 33.5235C26.8 30.8628 28.957 28.7059 31.6177 28.7059C33.4821 28.7059 35.0991 29.7649 35.9001 31.3143C36.701 29.7649 38.318 28.7059 40.1824 28.7059C42.8431 28.7059 45.0001 30.8628 45.0001 33.5235C45.0001 38.6376 38.1715 42.5235 36.3449 43.4714Z" fill="#FF1741"/>
</svg>
