<svg width="50" height="50" viewBox="0 0 50 50" fill="none" xmlns="http://www.w3.org/2000/svg">
<path d="M10 8C10 5.79086 11.7909 4 14 4H29L41 17V42C41 44.2091 39.2091 46 37 46H14C11.7909 46 10 44.2091 10 42V8Z" fill="#F5F5F5"/>
<path d="M29 15V4L41 17H31C29.8954 17 29 16.1046 29 15Z" fill="#DCDCDC"/>
<path d="M14 30C14 29.4477 14.4477 29 15 29H29C29.5523 29 30 29.4477 30 30V30C30 30.5523 29.5523 31 29 31H15C14.4477 31 14 30.5523 14 30V30Z" fill="#DCDCDC"/>
<path d="M32 30C32 29.4477 32.4477 29 33 29H36C36.5523 29 37 29.4477 37 30V30C37 30.5523 36.5523 31 36 31H33C32.4477 31 32 30.5523 32 30V30Z" fill="#FF1741"/>
<path d="M14 34C14 33.4477 14.4477 33 15 33H19C19.5523 33 20 33.4477 20 34V34C20 34.5523 19.5523 35 19 35H15C14.4477 35 14 34.5523 14 34V34Z" fill="#FFC900"/>
<path d="M14 18C14 17.4477 14.4477 17 15 17H19C19.5523 17 20 17.4477 20 18V18C20 18.5523 19.5523 19 19 19H15C14.4477 19 14 18.5523 14 18V18Z" fill="#FFC900"/>
<path d="M14 26C14 25.4477 14.4477 25 15 25H19C19.5523 25 20 25.4477 20 26V26C20 26.5523 19.5523 27 19 27H15C14.4477 27 14 26.5523 14 26V26Z" fill="#FF1741"/>
<path d="M21 26C21 25.4477 21.4477 25 22 25H36C36.5523 25 37 25.4477 37 26V26C37 26.5523 36.5523 27 36 27H22C21.4477 27 21 26.5523 21 26V26Z" fill="#DCDCDC"/>
<path d="M14 22C14 21.4477 14.4477 21 15 21H36C36.5523 21 37 21.4477 37 22V22C37 22.5523 36.5523 23 36 23H15C14.4477 23 14 22.5523 14 22V22Z" fill="#DCDCDC"/>
<path d="M30 39L26 42L30 45" stroke="#1D2129" stroke-width="2" stroke-linecap="round" stroke-linejoin="round"/>
<path d="M39.5 45L43.5 42L39.5 39" stroke="#1D2129" stroke-width="2" stroke-linecap="round" stroke-linejoin="round"/>
<path d="M34 47L36.5 37" stroke="#1D2129" stroke-width="2" stroke-linecap="round" stroke-linejoin="round"/>
</svg>
