<svg width="50" height="50" viewBox="0 0 50 50" fill="none" xmlns="http://www.w3.org/2000/svg">
<path fill-rule="evenodd" clip-rule="evenodd" d="M39.3083 14H24.6917C22.0171 14 21.0472 14.2785 20.0695 14.8014C19.0917 15.3243 18.3243 16.0917 17.8014 17.0695C17.2785 18.0472 17 19.0171 17 21.6917V29.3083C17 31.9829 17.2785 32.9528 17.8014 33.9305C18.3243 34.9083 19.0917 35.6757 20.0695 36.1986C21.0472 36.7215 22.0171 37 24.6917 37H39.3083C41.9829 37 42.9528 36.7215 43.9305 36.1986C44.9083 35.6757 45.6757 34.9083 46.1986 33.9305C46.7215 32.9528 47 31.9829 47 29.3083V21.6917C47 19.0171 46.7215 18.0472 46.1986 17.0695C45.6757 16.0917 44.9083 15.3243 43.9305 14.8014C42.9528 14.2785 41.9829 14 39.3083 14Z" fill="#DCDCDC"/>
<path fill-rule="evenodd" clip-rule="evenodd" d="M47 30V41.7549C47 42.1415 46.6866 42.4549 46.3 42.4549C46.1134 42.4549 45.9346 42.3805 45.8032 42.2481C42.3305 38.7494 39.3961 37 37 37" fill="#DCDCDC"/>
<path d="M26.5 21H40.5C41.3284 21 42 21.6716 42 22.5C42 23.3284 41.3284 24 40.5 24H26.5C25.6716 24 25 23.3284 25 22.5C25 21.6716 25.6716 21 26.5 21Z" fill="#868686"/>
<path d="M34.5 27H40.5C41.3284 27 42 27.6716 42 28.5C42 29.3284 41.3284 30 40.5 30H34.5C33.6716 30 33 29.3284 33 28.5C33 27.6716 33.6716 27 34.5 27Z" fill="#868686"/>
<path fill-rule="evenodd" clip-rule="evenodd" d="M11.6917 8H26.3083C28.9829 8 29.9528 8.27848 30.9305 8.8014C31.9083 9.32432 32.6757 10.0917 33.1986 11.0695C33.7215 12.0472 34 13.0171 34 15.6917V23.3083C34 25.9829 33.7215 26.9528 33.1986 27.9305C32.6757 28.9083 31.9083 29.6757 30.9305 30.1986C29.9528 30.7215 28.9829 31 26.3083 31H11.6917C9.0171 31 8.04724 30.7215 7.06946 30.1986C6.09169 29.6757 5.32432 28.9083 4.8014 27.9305C4.27848 26.9528 4 25.9829 4 23.3083V15.6917C4 13.0171 4.27848 12.0472 4.8014 11.0695C5.32432 10.0917 6.09169 9.32432 7.06946 8.8014C8.04724 8.27848 9.0171 8 11.6917 8Z" fill="#0053FF"/>
<path fill-rule="evenodd" clip-rule="evenodd" d="M4 24V35.7549C4.00002 36.1415 4.31341 36.4549 4.7 36.4549C4.88655 36.4549 5.06539 36.3805 5.19681 36.2481C8.66947 32.7494 11.6039 31 14 31" fill="#0053FF"/>
<path d="M24.5 15H10.5C9.67157 15 9 15.6716 9 16.5C9 17.3284 9.67157 18 10.5 18H24.5C25.3284 18 26 17.3284 26 16.5C26 15.6716 25.3284 15 24.5 15Z" fill="#002573"/>
<path d="M16.5 21H10.5C9.67157 21 9 21.6716 9 22.5C9 23.3284 9.67157 24 10.5 24H16.5C17.3284 24 18 23.3284 18 22.5C18 21.6716 17.3284 21 16.5 21Z" fill="#002573"/>
</svg>
