<svg width="50" height="50" viewBox="0 0 50 50" fill="none" xmlns="http://www.w3.org/2000/svg">
<circle cx="24" cy="6" r="5" stroke="#DCDCDC" stroke-width="2"/>
<path d="M22.5 8H25.5V13H22.5V8Z" fill="#868686"/>
<path d="M21 6.5C21 5.67157 21.6716 5 22.5 5H25.5C26.3284 5 27 5.67157 27 6.5V6.87868C27 7.2765 26.842 7.65804 26.5607 7.93934L25.9393 8.56066C25.658 8.84196 25.2765 9 24.8787 9H23.1213C22.7235 9 22.342 8.84196 22.0607 8.56066L21.4393 7.93934C21.158 7.65804 21 7.2765 21 6.87868V6.5Z" fill="#0053FF"/>
<path d="M24 46C33.3888 46 41 38.3888 41 29C41 19.6112 33.3888 12 24 12C14.6112 12 7 19.6112 7 29C7 38.3888 14.6112 46 24 46Z" fill="white" stroke="#0053FF" stroke-width="3"/>
<path d="M32 20.9999L31 22" stroke="#DCDCDC" stroke-width="2" stroke-linecap="round"/>
<path d="M24 18V19" stroke="#DCDCDC" stroke-width="2" stroke-linecap="round"/>
<path d="M24 39V40" stroke="#DCDCDC" stroke-width="2" stroke-linecap="round"/>
<path d="M13 29H14" stroke="#DCDCDC" stroke-width="2" stroke-linecap="round"/>
<path d="M15.5 21.4999L16.5001 22.5" stroke="#DCDCDC" stroke-width="2" stroke-linecap="round"/>
<path d="M16 36.9999L17 35.9999" stroke="#DCDCDC" stroke-width="2" stroke-linecap="round"/>
<path d="M32.0001 37L31 35.9999" stroke="#DCDCDC" stroke-width="2" stroke-linecap="round"/>
<path d="M34 29H35" stroke="#DCDCDC" stroke-width="2" stroke-linecap="round"/>
<path fill-rule="evenodd" clip-rule="evenodd" d="M27.3721 32.3722C27.1046 32.6396 26.7865 32.8565 26.4325 33.0083L19.7569 35.8693C18.1022 36.5785 16.4291 34.9122 17.1247 33.2574L20.0012 26.5455C20.1524 26.2003 20.3659 25.8899 20.6278 25.6279L27.3721 32.3722Z" fill="#868686"/>
<path fill-rule="evenodd" clip-rule="evenodd" d="M21.5436 25.0021L28.2636 22.1221C29.9163 21.4334 31.5775 23.1043 30.8692 24.7569L28.0082 31.4326C27.8565 31.7866 27.6395 32.1047 27.372 32.3722L20.6278 25.628C20.8893 25.3665 21.1991 25.1533 21.5436 25.0021Z" fill="#FF1741"/>
<circle cx="24" cy="29" r="2" transform="rotate(45 24 29)" fill="white"/>
</svg>
