<svg width="50" height="50" viewBox="0 0 50 50" fill="none" xmlns="http://www.w3.org/2000/svg">
<path d="M26.6082 5.11821C26.5374 4.52327 27.0021 4 27.6012 4H41.4511C42.565 4 43.4643 4.91001 43.451 6.02381L42.9869 45.0119C42.9803 45.5595 42.5346 46 41.9869 46H32.3631C31.8566 46 31.43 45.6212 31.3701 45.1182L26.6082 5.11821Z" fill="#AAC0EF"/>
<path d="M25.9751 5C25.9751 4.44772 26.4228 4 26.9751 4H39.9751C41.0797 4 41.9751 4.89543 41.9751 6V46H27.9751C26.8705 46 25.9751 45.1046 25.9751 44V5Z" fill="#C8D9FF"/>
<path d="M30.9751 6.5C30.9751 6.22386 31.199 6 31.4751 6H32.4751C32.7512 6 32.9751 6.22386 32.9751 6.5V39.5C32.9751 39.7761 32.7512 40 32.4751 40H31.4751C31.199 40 30.9751 39.7761 30.9751 39.5V6.5Z" fill="#3358AB"/>
<path d="M26.9751 6.5C26.9751 6.22386 27.199 6 27.4751 6H28.4751C28.7512 6 28.9751 6.22386 28.9751 6.5V39.5C28.9751 39.7761 28.7512 40 28.4751 40H27.4751C27.199 40 26.9751 39.7761 26.9751 39.5V6.5Z" fill="#3358AB"/>
<path d="M34.9751 6.5C34.9751 6.22386 35.199 6 35.4751 6H36.4751C36.7512 6 36.9751 6.22386 36.9751 6.5V45.5C36.9751 45.7761 36.7512 46 36.4751 46H35.4751C35.199 46 34.9751 45.7761 34.9751 45.5V6.5Z" fill="#3358AB"/>
<path d="M38.9751 6.5C38.9751 6.22386 39.199 6 39.4751 6H40.4751C40.7512 6 40.9751 6.22386 40.9751 6.5V45.5C40.9751 45.7761 40.7512 46 40.4751 46H39.4751C39.199 46 38.9751 45.7761 38.9751 45.5V6.5Z" fill="#3358AB"/>
<ellipse cx="9.94995" cy="34.5" rx="5" ry="5.5" fill="#1ABD6F"/>
<ellipse cx="8.94995" cy="36.5" rx="5" ry="5.5" fill="#1ABD6F"/>
<ellipse cx="9.94995" cy="36.5" rx="5" ry="5.5" fill="#1ABD6F"/>
<path d="M10.2502 45V39.75M10.2502 34.5V39.75M10.2502 39.75C8.90586 38.9077 8.26141 38.325 7.4502 36.95" stroke="#1D2129" stroke-linecap="round"/>
<path d="M20.9751 17C20.9751 16.4477 21.4228 16 21.9751 16H30.9751C32.0797 16 32.9751 16.8954 32.9751 18V46H21.9751C21.4228 46 20.9751 45.5523 20.9751 45V17Z" fill="#AAC0EF"/>
<path d="M12.9751 18C12.9751 16.8954 13.8705 16 14.9751 16H28.9751C30.0797 16 30.9751 16.8954 30.9751 18V46H12.9751V18Z" fill="#D9E5FF"/>
<rect x="13.9751" y="20" width="16" height="2" rx="1" fill="#1C54D0"/>
<rect x="13.9751" y="24" width="16" height="2" rx="1" fill="#1C54D0"/>
<rect x="13.9751" y="28" width="16" height="2" rx="1" fill="#1C54D0"/>
<rect x="13.9751" y="32" width="16" height="2" rx="1" fill="#1C54D0"/>
<rect x="13.9751" y="36" width="16" height="2" rx="1" fill="#1C54D0"/>
<path d="M19.9751 42C19.9751 41.4477 20.4228 41 20.9751 41H22.9751C23.5274 41 23.9751 41.4477 23.9751 42V46H19.9751V42Z" fill="#002573"/>
<rect x="32.9751" y="45" width="10" height="1" fill="#AAC0EF"/>
<path d="M32.9751 26C32.9751 25.4477 33.4228 25 33.9751 25H35.9751C37.0797 25 37.9751 25.8954 37.9751 27V46H32.9751V26Z" fill="black" fill-opacity="0.3"/>
</svg>
