<svg width="50" height="50" viewBox="0 0 50 50" fill="none" xmlns="http://www.w3.org/2000/svg">
<rect x="3" y="14.9041" width="34" height="23" rx="2" transform="rotate(-10 3 14.9041)" fill="#CCCCCC"/>
<path d="M37.0044 11.9544L3.52094 17.8585L4.38918 22.7825L37.8726 16.8785L37.0044 11.9544Z" fill="#1D2129"/>
<path d="M13.281 24.2609L8.35697 25.1292C7.54113 25.273 6.99638 26.051 7.14023 26.8669C7.28409 27.6827 8.06208 28.2275 8.87792 28.0836L13.802 27.2154C14.6178 27.0715 15.1625 26.2935 15.0187 25.4777C14.8748 24.6618 14.0969 24.1171 13.281 24.2609Z" fill="#868686"/>
<path d="M12 20C12 18.3431 13.3431 17 15 17H43C44.6569 17 46 18.3431 46 20V37C46 38.6569 44.6569 40 43 40H15C13.3431 40 12 38.6569 12 37V20Z" fill="#0053FF"/>
<rect x="15" y="22" width="6" height="5" rx="1" fill="#DBAD00"/>
<rect x="15" y="22" width="6" height="2" rx="1" fill="#C59E02"/>
<rect x="15" y="25" width="6" height="2" rx="1" fill="#C59E02"/>
<rect opacity="0.5" x="17" y="22" width="2" height="5" rx="1" fill="#DBAD00"/>
<path d="M39.7311 26C41.3879 26 42.7311 24.6569 42.7311 23C42.7311 21.3431 41.3879 20 39.7311 20C38.0742 20 36.7311 21.3431 36.7311 23C36.7311 24.6569 38.0742 26 39.7311 26Z" fill="#FFC900"/>
<path d="M35.7311 26C37.3879 26 38.7311 24.6569 38.7311 23C38.7311 21.3431 37.3879 20 35.7311 20C34.0742 20 32.7311 21.3431 32.7311 23C32.7311 24.6569 34.0742 26 35.7311 26Z" fill="#FF1741"/>
<rect x="15" y="29" width="6" height="3" rx="1.5" fill="#002573"/>
<rect x="15" y="33" width="10" height="3" rx="1.5" fill="#002573"/>
<rect x="22" y="29" width="6" height="3" rx="1.5" fill="#002573"/>
<rect x="29" y="29" width="6" height="3" rx="1.5" fill="#002573"/>
<rect x="36" y="29" width="6" height="3" rx="1.5" fill="#002573"/>
</svg>
