<svg width="50" height="50" viewBox="0 0 50 50" fill="none" xmlns="http://www.w3.org/2000/svg">
<path d="M23 17H42V40C42 41.1046 41.1046 42 40 42H23V17Z" fill="#0039B0"/>
<path d="M8 17H25V40C25 41.1046 24.1046 42 23 42H10C8.89543 42 8 41.1046 8 40V17Z" fill="#0053FF"/>
<path d="M6 16C6 14.8954 6.89543 14 8 14H16V20H7C6.44772 20 6 19.5523 6 19V16Z" fill="#0053FF"/>
<rect x="8" y="20" width="17" height="3" fill="#0039B0"/>
<path d="M9 41C9 40.4477 9.44772 40 10 40H16V42H10C9.44772 42 9 41.5523 9 41V41Z" fill="#0039B0"/>
<rect x="25" y="20" width="17" height="3" fill="#002573"/>
<path d="M14 23H19V40H21V42H15C14.4477 42 14 41.5523 14 41V23Z" fill="#EDF0F4"/>
<path d="M36 23H31V40H29V42H35C35.5523 42 36 41.5523 36 41V23Z" fill="#DBE2F0"/>
<rect width="5" height="3" transform="matrix(1 0 0 -1 14 23)" fill="#CAD1DA"/>
<path d="M13 15C13 14.4477 13.4477 14 14 14H19V20H14C13.4477 20 13 19.5523 13 19V15Z" fill="#EDF0F4"/>
<path d="M19 40H23C24.1046 40 25 39.1046 25 38V38H27V42H20C19.4477 42 19 41.5523 19 41V40Z" fill="#0039B0"/>
<path d="M31 40H25V42H30C30.5523 42 31 41.5523 31 41V40Z" fill="#0039B0"/>
<rect x="31" y="20" width="5" height="3" fill="#B3BDD1"/>
<path d="M22 9C22 8.44772 22.4477 8 23 8H27C27.5523 8 28 8.44772 28 9V14H22V9Z" fill="#DBE2F0"/>
<path d="M11.1651 8.17435C11.572 6.14004 13.8714 5.12285 15.6504 6.19022L22 10V14H13.6594C11.7663 14 10.3464 12.268 10.7177 10.4117L11.1651 8.17435Z" fill="#DBE2F0"/>
<path d="M38.8349 8.17435C38.428 6.14004 36.1286 5.12285 34.3496 6.19022L28 10V14H36.3406C38.2337 14 39.6536 12.268 39.2823 10.4117L38.8349 8.17435Z" fill="#DBE2F0"/>
<path d="M28 11L33.6629 9.38204C34.4106 9.16841 35.1939 9.58157 35.4398 10.3193V10.3193C35.7296 11.1888 35.1515 12.1061 34.242 12.2197L28 13V11Z" fill="#C7D0E3"/>
<path d="M22 11L16.3371 9.38204C15.5894 9.16841 14.8061 9.58157 14.5602 10.3193V10.3193C14.2704 11.1888 14.8485 12.1061 15.758 12.2197L22 13V11Z" fill="#C7D0E3"/>
<path d="M18 15C18 14.4477 18.4477 14 19 14H27V20H19C18.4477 20 18 19.5523 18 19V15Z" fill="#0053FF"/>
<path d="M30 14H42C43.1046 14 44 14.8954 44 16V19C44 19.5523 43.5523 20 43 20H30V14Z" fill="#0043CD"/>
<path d="M31 14H36C36.5523 14 37 14.4477 37 15V19C37 19.5523 36.5523 20 36 20H31V14Z" fill="#DBE2F0"/>
<path d="M25 16C25 14.8954 25.8954 14 27 14H31C31.5523 14 32 14.4477 32 15V19C32 19.5523 31.5523 20 31 20H25V16Z" fill="#0043CD"/>
<rect x="40.6398" y="26" width="11.0662" height="19.6732" rx="0.614787" transform="rotate(43.8932 40.6398 26)" fill="#307E2F" stroke="#307E2F" stroke-width="1.22957"/>
<rect x="35.0483" y="23.0002" width="12.5218" height="22.2611" rx="0.695658" transform="rotate(26.8307 35.0483 23.0002)" fill="#BAE7B9" stroke="#359933" stroke-width="1.39132"/>
<circle cx="35.6107" cy="35.7582" r="4.17395" transform="rotate(26.8307 35.6107 35.7582)" fill="#359933"/>
<circle cx="38.7506" cy="29.5505" r="1.39132" transform="rotate(26.8307 38.7506 29.5505)" fill="#359933"/>
<circle cx="32.4708" cy="41.9659" r="1.39132" transform="rotate(26.8307 32.4708 41.9659)" fill="#359933"/>
<path d="M27.7972 43.4997L27.4832 44.1205L25.0001 42.8645L26.2561 40.3815L26.8769 40.6955C27.9054 41.2157 28.3174 42.4712 27.7972 43.4997Z" fill="#359933"/>
<path d="M37.2167 24.8768L37.5307 24.256L35.0476 23.0001L33.7917 25.4832L34.4125 25.7971C35.441 26.3174 36.6965 25.9053 37.2167 24.8768Z" fill="#359933"/>
<path d="M34.0048 46.6395L33.6908 47.2603L36.1739 48.5163L37.4299 46.0332L36.8091 45.7192C35.7806 45.199 34.5251 45.611 34.0048 46.6395Z" fill="#359933"/>
<path d="M43.4245 28.0169L43.7385 27.3961L46.2216 28.6521L44.9656 31.1351L44.3449 30.8211C43.3164 30.3009 42.9043 29.0454 43.4245 28.0169Z" fill="#359933"/>
</svg>
