<svg width="50" height="50" viewBox="0 0 50 50" fill="none" xmlns="http://www.w3.org/2000/svg">
<path d="M34.529 9.52853L6.95442 14.3907C5.32274 14.6784 4.23323 16.2344 4.52094 17.866L7.47296 34.6078C7.76067 36.2395 9.31665 37.329 10.9483 37.0413L38.5229 32.1791C40.1546 31.8914 41.2441 30.3354 40.9564 28.7037L38.0044 11.962C37.7167 10.3303 36.1607 9.24082 34.529 9.52853Z" fill="#CCCCCC"/>
<path d="M38.1345 12.4487L4.651 18.3528L5.51924 23.2768L39.0027 17.3728L38.1345 12.4487Z" fill="#000716"/>
<path opacity="0.2" d="M14.281 24.2685L9.35697 25.1367C8.54113 25.2806 7.99638 26.0586 8.14023 26.8744C8.28409 27.6903 9.06208 28.235 9.87792 28.0912L14.802 27.2229C15.6178 27.0791 16.1625 26.3011 16.0187 25.4852C15.8748 24.6694 15.0969 24.1246 14.281 24.2685Z" fill="#5E5E5E"/>
<path d="M43.2311 18.1981H16.2311C14.5742 18.1981 13.2311 19.5412 13.2311 21.1981V37.1981C13.2311 38.8549 14.5742 40.1981 16.2311 40.1981H43.2311C44.8879 40.1981 46.2311 38.8549 46.2311 37.1981V21.1981C46.2311 19.5412 44.8879 18.1981 43.2311 18.1981Z" fill="#0053FF"/>
<path d="M20.2311 21.1981H17.2311C16.4027 21.1981 15.7311 21.8696 15.7311 22.6981V24.6981C15.7311 25.5265 16.4027 26.1981 17.2311 26.1981H20.2311C21.0595 26.1981 21.7311 25.5265 21.7311 24.6981V22.6981C21.7311 21.8696 21.0595 21.1981 20.2311 21.1981Z" fill="#DCDCDC" fill-opacity="0.5"/>
<path d="M35.2311 29.1981H17.2311C16.4027 29.1981 15.7311 29.8696 15.7311 30.6981C15.7311 31.5265 16.4027 32.1981 17.2311 32.1981H35.2311C36.0595 32.1981 36.7311 31.5265 36.7311 30.6981C36.7311 29.8696 36.0595 29.1981 35.2311 29.1981Z" fill="#002573"/>
<path d="M21.2311 34.1981H17.2311C16.4027 34.1981 15.7311 34.8696 15.7311 35.6981C15.7311 36.5265 16.4027 37.1981 17.2311 37.1981H21.2311C22.0595 37.1981 22.7311 36.5265 22.7311 35.6981C22.7311 34.8696 22.0595 34.1981 21.2311 34.1981Z" fill="#002573"/>
<path d="M40.7311 26.6981C42.3879 26.6981 43.7311 25.3549 43.7311 23.6981C43.7311 22.0412 42.3879 20.6981 40.7311 20.6981C39.0742 20.6981 37.7311 22.0412 37.7311 23.6981C37.7311 25.3549 39.0742 26.6981 40.7311 26.6981Z" fill="#FFC900"/>
<path d="M36.7311 26.6981C38.3879 26.6981 39.7311 25.3549 39.7311 23.6981C39.7311 22.0412 38.3879 20.6981 36.7311 20.6981C35.0742 20.6981 33.7311 22.0412 33.7311 23.6981C33.7311 25.3549 35.0742 26.6981 36.7311 26.6981Z" fill="#FF0000"/>
</svg>
