<svg width="50" height="50" viewBox="0 0 50 50" fill="none" xmlns="http://www.w3.org/2000/svg">
<path d="M25.1 39.4C33.2739 39.4 39.9 32.7739 39.9 24.6C39.9 16.4262 33.2739 9.80005 25.1 9.80005C16.9262 9.80005 10.3 16.4262 10.3 24.6C10.3 32.7739 16.9262 39.4 25.1 39.4Z" fill="white" stroke="#0053FF" stroke-width="3.2"/>
<path d="M28.0903 23.2078C28.4336 22.9298 28.4866 22.426 28.2085 22.0827C27.9305 21.7393 27.4267 21.6863 27.0834 21.9644L17.1359 30.0197C16.7925 30.2977 16.7396 30.8015 17.0176 31.1449C17.2957 31.4882 17.7994 31.5412 18.1428 31.2631L28.0903 23.2078Z" fill="#DCDCDC"/>
<path d="M25.1 16.6001V24.6001L29.9 27.8001" stroke="#000716" stroke-width="1.6" stroke-linecap="round" stroke-linejoin="round"/>
</svg>
