<svg width="50" height="50" viewBox="0 0 50 50" fill="none" xmlns="http://www.w3.org/2000/svg">
<mask id="mask0" mask-type="alpha" maskUnits="userSpaceOnUse" x="6" y="19" width="36" height="21">
<path d="M42 26C42 33.732 33.9411 40 24 40C14.0589 40 6 33.732 6 26C6 21.9149 6.00004 20.0001 6.00004 20.0001L42 20C42 20 42 18.2681 42 26Z" fill="#002573"/>
</mask>
<g mask="url(#mask0)">
<path d="M42 26C42 33.732 33.9411 40 24 40C14.0589 40 6 33.732 6 26C6 21.9149 6.00004 17.0001 6.00004 17.0001L42 17C42 17 42 18.2681 42 26Z" fill="#002573"/>
<rect x="15" y="32" width="18" height="12" fill="#5C73A2"/>
<rect x="33" y="19" width="18" height="24" fill="#000716"/>
</g>
<mask id="mask1" mask-type="alpha" maskUnits="userSpaceOnUse" x="6" y="6" width="36" height="28">
<ellipse cx="24" cy="20" rx="18" ry="14" fill="#0053FF"/>
</mask>
<g mask="url(#mask1)">
<ellipse cx="24" cy="20" rx="18" ry="14" fill="#0053FF"/>
<rect x="24" y="17" width="19" height="17" fill="#002B87"/>
<path d="M6 6H42V17L24 20L6 17V6Z" fill="#0053FF"/>
<path d="M14 33.5L24 20L34 33.5L24 35L14 33.5Z" fill="#8CB2FF"/>
</g>
<path d="M25.5455 46C26.9513 46 28.0909 44.8603 28.0909 43.4545C28.0909 42.0487 26.9513 40.9091 25.5455 40.9091C24.1396 40.9091 23 42.0487 23 43.4545C23 44.8603 24.1396 46 25.5455 46Z" fill="#FFC900"/>
<path d="M31.909 39.6363C33.3148 39.6363 34.4544 38.4967 34.4544 37.0909C34.4544 35.685 33.3148 34.5454 31.909 34.5454C30.5032 34.5454 29.3635 35.685 29.3635 37.0909C29.3635 38.4967 30.5032 39.6363 31.909 39.6363Z" fill="#FFC900"/>
<path d="M38.2726 44.7273C39.6784 44.7273 40.8181 43.5876 40.8181 42.1818C40.8181 40.776 39.6784 39.6364 38.2726 39.6364C36.8668 39.6364 35.7272 40.776 35.7272 42.1818C35.7272 43.5876 36.8668 44.7273 38.2726 44.7273Z" fill="#FFC900"/>
<path d="M44.6363 37.0909C46.0421 37.0909 47.1817 35.9513 47.1817 34.5455C47.1817 33.1396 46.0421 32 44.6363 32C43.2305 32 42.0908 33.1396 42.0908 34.5455C42.0908 35.9513 43.2305 37.0909 44.6363 37.0909Z" fill="#FFC900"/>
<path d="M25.5454 43.4545L31.909 37.0909L38.2727 42.1818L44.6363 34.5454" stroke="#FFC900" stroke-width="2.54545" stroke-linecap="round" stroke-linejoin="round"/>
</svg>
