<svg width="50" height="50" viewBox="0 0 50 50" fill="none" xmlns="http://www.w3.org/2000/svg">
<g clip-path="url(#clip0_20339_813)">
<path d="M23.102 7.37932C24.7272 6.40821 26.8106 6.70916 28.0941 8.10084L35.9554 16.6253C36.772 17.5107 37.1465 18.7174 36.9743 19.9095L34.0405 40.1997C33.7245 42.386 31.6958 43.9026 29.5095 43.5867L11.6948 41.0107C9.50846 40.6946 7.99178 38.666 8.3078 36.4797L11.2416 16.1895C11.414 14.9974 12.1144 13.9466 13.1483 13.3287L23.102 7.37932ZM25.942 11.8999C24.4392 11.255 22.6983 11.9503 22.0534 13.4532C21.4085 14.956 22.1039 16.6969 23.6067 17.3418C25.1095 17.9867 26.8504 17.2913 27.4953 15.7885C28.1402 14.2857 27.4448 12.5448 25.942 11.8999Z" fill="#DCDCDC"/>
<path d="M13.4505 34.4954L29.7807 36.8561" stroke="#868686" stroke-width="3" stroke-linecap="round"/>
<path d="M14.309 28.5573L30.6392 30.918" stroke="#868686" stroke-width="3" stroke-linecap="round"/>
<path d="M21.3402 7.81213C22.6988 6.23025 25.0453 5.95742 26.7306 7.18538L36.6298 14.398C37.5321 15.0554 38.1189 16.0602 38.2478 17.1691L41.0483 41.2549C41.3034 43.4491 39.7312 45.4348 37.537 45.6901L19.6575 47.769C17.4631 48.0241 15.4774 46.4521 15.2223 44.2577L12.4218 20.1719C12.2929 19.0631 12.6326 17.9505 13.3599 17.1036L21.3402 7.81213ZM24.6702 11.4578C22.4758 11.7129 20.9038 13.6986 21.1589 15.893C21.4143 18.0871 23.3999 19.6594 25.5941 19.4043C27.7884 19.1491 29.3603 17.1633 29.1054 14.969C28.8503 12.7747 26.8646 11.2026 24.6702 11.4578Z" fill="#FF1741"/>
<path d="M25 12.4441V3.5" stroke="#1D2129" stroke-width="3" stroke-linecap="round"/>
<path d="M22.3412 33.3107C20.1091 33.5687 18.4214 32.136 18.1779 30.0291C17.9416 27.9847 19.209 26.147 21.4828 25.8842C23.7775 25.619 25.4307 27.1191 25.667 29.1634C25.9106 31.2704 24.5734 33.0527 22.3412 33.3107ZM21.383 40.5668L29.8024 25.0706L32.5561 24.7523L24.1367 40.2485L21.383 40.5668ZM22.0832 31.0786C22.7716 30.999 23.2329 30.4172 23.122 29.4576C23.0159 28.5397 22.4317 28.0576 21.7432 28.1372C21.0548 28.2168 20.6144 28.7962 20.7229 29.7349C20.8314 30.6737 21.4157 31.1558 22.0832 31.0786ZM32.4451 39.5207C30.1712 39.7835 28.4972 38.2858 28.2609 36.2414C28.0173 34.1345 29.3521 32.3313 31.5843 32.0733C33.8581 31.8105 35.5113 33.3106 35.75 35.3758C35.9911 37.4619 34.6563 39.2651 32.4451 39.5207ZM32.1847 37.2677C32.8731 37.1881 33.3343 36.6063 33.2258 35.6676C33.1173 34.7288 32.5122 34.2491 31.8447 34.3263C31.1354 34.4083 30.6926 34.9668 30.8059 35.9473C30.912 36.8652 31.4962 37.3473 32.1847 37.2677Z" fill="white"/>
</g>
<defs>
<clipPath id="clip0_20339_813">
<rect width="50" height="50" fill="white"/>
</clipPath>
</defs>
</svg>
