<svg width="50" height="50" viewBox="0 0 50 50" fill="none" xmlns="http://www.w3.org/2000/svg">
<mask id="mask0_8300_200" style="mask-type:alpha" maskUnits="userSpaceOnUse" x="6" y="6" width="38" height="38">
<circle cx="25" cy="25" r="19" fill="#0053FF"/>
</mask>
<g mask="url(#mask0_8300_200)">
<circle cx="25" cy="25" r="19" fill="#634E00"/>
<path d="M9.28242 19.2439L10.1354 11.1403C10.2281 10.2603 9.76512 9.41519 8.9737 9.01948C8.27425 8.66976 7.43917 8.73294 6.80029 9.18391L2.42276 12.2739C-0.691298 14.4721 -2.45651 18.1152 -2.25219 21.9214C-1.84225 29.5586 -1.35574 38.7184 -1.35574 39.0967C-1.35574 39.3815 4.22628 41.8164 8.90638 43.8078C11.8948 45.0794 15.1926 42.8775 15.1926 39.6299C15.1926 38.1433 14.4674 36.7503 13.2495 35.8978L9.06552 32.969C5.76608 30.6594 5.14724 26.0222 7.72557 22.9282C8.59792 21.8813 9.13977 20.5991 9.28242 19.2439Z" fill="#FFC900"/>
<path d="M26.1215 3.64988L26.7321 3.772C28.0005 4.02569 29.3158 3.89545 30.5099 3.39792C33.632 2.09704 37.2301 3.40567 38.7871 6.40831L43.7234 15.9285C44.3152 17.0696 44.7855 18.2694 45.1163 19.5115C45.7294 21.8133 46.4522 24.6234 46.4522 24.9999C46.4522 25.401 45.0848 26.9235 44.0281 28.0234C43.6087 28.4598 43.1041 28.8034 42.551 29.0492L40.0946 30.1409C38.8807 30.6805 37.4615 30.1037 36.9681 28.8702L36.4248 27.512C35.9843 26.4106 34.5084 26.2154 33.7966 27.1644C33.655 27.3532 33.4714 27.5065 33.2602 27.612L32.9875 27.7484C31.8832 28.3006 31.2682 29.5083 31.4711 30.7262L31.6808 31.9842C31.7219 32.2308 31.7426 32.4804 31.7426 32.7304V36.2805C31.7426 36.9254 31.6116 37.5636 31.3575 38.1564C30.5018 40.153 28.4035 41.3175 26.2565 40.9872L25.3449 40.8469C23.3049 40.5331 21.6884 38.9599 21.3191 36.9292L21.211 36.3342C20.9106 34.6822 19.6058 33.3965 17.9496 33.1204L17.2747 33.0079C15.2168 32.665 13.9522 30.5646 14.6119 28.5854C14.9751 27.4958 15.8645 26.6637 16.9758 26.3738L28.4267 23.3867C28.9926 23.239 29.509 22.9432 29.9226 22.5296L30.5542 21.898C31.77 20.6821 31.4969 18.643 30.004 17.7899C29.1851 17.3219 28.1773 17.3326 27.3685 17.8179L26.2608 18.4825C25.8417 18.734 25.5201 19.12 25.3485 19.5777L24.8089 21.0165C24.3912 22.1304 22.8716 22.2688 22.2596 21.2487C22.0536 20.9053 21.7123 20.6648 21.3196 20.5863L19.8787 20.2981C19.2495 20.1723 18.5991 20.3692 18.1454 20.8229C17.4985 21.4698 16.485 21.5701 15.7239 21.0627L15.0626 20.6219C14.0733 19.9623 13.6953 18.6908 14.1637 17.5979L14.4827 16.8535C14.8687 15.9529 15.9332 15.563 16.8096 16.0012C17.3304 16.2616 17.9481 16.2378 18.4474 15.9383L19.8385 15.1036C20.413 14.759 21.055 14.5423 21.7208 14.4683L23.3509 14.2872C24.1007 14.2038 24.2406 13.1733 23.5401 12.8931L20.9158 11.8434C20.4019 11.6378 20.0179 11.1979 19.8836 10.6609C19.6603 9.76744 20.1786 8.85619 21.0607 8.59156L22.9289 8.03111C24.5223 7.55308 25.6135 6.08644 25.6135 4.42283V4.06627C25.6135 3.7983 25.8587 3.59732 26.1215 3.64988Z" fill="#FFC900"/>
<path opacity="0.25" fill-rule="evenodd" clip-rule="evenodd" d="M53 32.7428C47.5074 36.6814 40.7744 39 33.5 39C14.9985 39 0 24.0015 0 5.5C0 2.20016 0.477108 -0.988248 1.36611 -4H-3V53H53V32.7428Z" fill="black"/>
</g>
</svg>
