<svg width="50" height="50" viewBox="0 0 50 50" fill="none" xmlns="http://www.w3.org/2000/svg">
<mask id="mask0_9205:1138" style="mask-type:alpha" maskUnits="userSpaceOnUse" x="7" y="11" width="36" height="30">
<path d="M7 12C7 11.4477 7.44772 11 8 11H32.0895C32.3603 11 32.6284 11.055 32.8773 11.1617L41.7878 14.9805C42.5232 15.2957 43 16.0187 43 16.8188V39C43 40.1046 42.1046 41 41 41H17.9105C17.6397 41 17.3716 40.945 17.1227 40.8383L8.21216 37.0195C7.47679 36.7043 7 35.9813 7 35.1812V12Z" fill="#A58167"/>
</mask>
<g mask="url(#mask0_9205:1138)">
<path d="M7 11H32.5L43 15.5H7V11Z" fill="#FFBE89"/>
<rect x="17.5" y="15.5" width="25.5" height="25.5" fill="#E7A065"/>
<path d="M7 11L17.5 15.5V41L7 36.5V11Z" fill="#CB8347"/>
<path d="M10.75 12.5H37L40.75 14H11.5L10.75 12.5Z" fill="#5E5E5E"/>
</g>
<path d="M10.75 12.5L13.75 14V18.5L10.75 17.75V12.5Z" fill="#000716"/>
<rect x="20.5" y="18.5" width="10.5" height="12" rx="0.75" fill="white"/>
<rect x="22" y="20" width="7.5" height="1.5" rx="0.75" fill="#C4C4C4"/>
<rect x="22" y="23" width="4.5" height="1.5" rx="0.75" fill="#C4C4C4"/>
<rect x="22" y="26" width="1.5" height="3" rx="0.3" fill="#5E5E5E"/>
<rect x="26.5" y="26" width="1.5" height="3" rx="0.3" fill="#5E5E5E"/>
<rect x="24.25" y="26" width="0.75" height="3" rx="0.3" fill="#5E5E5E"/>
<rect x="25.75" y="26" width="0.375" height="3" rx="0.1875" fill="#5E5E5E"/>
<rect x="28.75" y="26" width="0.75" height="3" rx="0.3" fill="#5E5E5E"/>
<rect x="19.8845" y="38.8654" width="2.65385" height="0.884615" fill="#000716"/>
<rect x="19.8845" y="36.2115" width="2.65385" height="1.76923" fill="#000716"/>
<path d="M23.4231 36.2115H19L21.2115 34L23.4231 36.2115Z" fill="#000716"/>
<rect x="36.6428" y="43.5062" width="4.10864" height="21.5704" transform="rotate(-149.947 36.6428 43.5062)" fill="#FFC900"/>
<path d="M32.5801 47.7002C32.3701 47.917 32.0395 47.963 31.7783 47.8119C31.517 47.6607 31.3922 47.3512 31.4754 47.061L33.0866 41.4487L36.6429 43.5063L32.5801 47.7002Z" fill="#E7A065"/>
<path d="M46.4165 26.6139L42.8602 24.5563L44.4035 21.8891C44.6876 21.398 45.3159 21.2303 45.8069 21.5144L47.5851 22.5432C48.0761 22.8273 48.2438 23.4557 47.9597 23.9467L46.4165 26.6139Z" fill="#FF1741"/>
<rect x="45.9021" y="27.5029" width="4.10864" height="1.02716" transform="rotate(-149.947 45.9021 27.5029)" fill="#DCDCDC"/>
<mask id="mask1_9205:1138" style="mask-type:alpha" maskUnits="userSpaceOnUse" x="31" y="41" width="6" height="7">
<path d="M32.5801 47.7002C32.3701 47.917 32.0395 47.963 31.7783 47.8119C31.517 47.6607 31.3922 47.3512 31.4754 47.061L33.0866 41.4487L36.6429 43.5063L32.5801 47.7002Z" fill="#E7A065"/>
</mask>
<g mask="url(#mask1_9205:1138)">
<rect x="33.042" y="49.7297" width="4.10864" height="3.08148" transform="rotate(-149.947 33.042 49.7297)" fill="#000716"/>
</g>
</svg>
