<svg width="50" height="50" viewBox="0 0 50 50" fill="none" xmlns="http://www.w3.org/2000/svg">
<mask id="mask0_9591_1843" style="mask-type:alpha" maskUnits="userSpaceOnUse" x="6" y="8" width="38" height="34">
<path d="M6 11C6 9.34315 7.34315 8 9 8H32.49C32.8246 8 33.1539 8.08397 33.4477 8.24421L42.4366 13.1472C43.4003 13.6729 44 14.6831 44 15.7809V39C44 40.6569 42.6569 42 41 42H17.3849C16.4787 42 15.5895 41.7537 14.8124 41.2875L6.97101 36.5826C6.3686 36.2212 6 35.5701 6 34.8676V11Z" fill="#A58167"/>
</mask>
<g mask="url(#mask0_9591_1843)">
<path d="M6 8H32.235C32.737 8 33.2309 8.12595 33.6716 8.36631L44 14L6 18V8Z" fill="#FFBE89"/>
<path d="M6 10.6493C6 9.48334 7.27196 8.76317 8.27174 9.36305L15.5145 13.7087C15.8157 13.8894 16 14.2149 16 14.5662V22.5L21 42H17.3849C16.4787 42 15.5895 41.7537 14.8124 41.2875L7.45651 36.8739C6.5529 36.3317 6 35.3552 6 34.3014V10.6493Z" fill="#CB8347"/>
<path d="M16 15C16 14.4477 16.4477 14 17 14H44V39C44 40.6569 42.6569 42 41 42H19C17.3431 42 16 40.6569 16 39V15Z" fill="#E7A065"/>
<path d="M9.32812 10H38.8L42 12H12.6765L9.32812 10Z" fill="#5E5E5E"/>
</g>
<path d="M9.32996 10L12.68 12V20.1192C12.68 20.5073 12.257 20.7474 11.9237 20.5485L9.57369 19.1455C9.42256 19.0553 9.33 18.8922 9.33 18.7162L9.32996 10Z" fill="#000716"/>
<rect x="19.5" y="16.5" width="10.5" height="12" rx="0.75" fill="white"/>
<rect x="21" y="18" width="7.5" height="1.5" rx="0.75" fill="#C4C4C4"/>
<rect x="21" y="21" width="4.5" height="1.5" rx="0.75" fill="#C4C4C4"/>
<rect x="21" y="24" width="1.5" height="3" rx="0.3" fill="#5E5E5E"/>
<rect x="25.5" y="24" width="1.5" height="3" rx="0.3" fill="#5E5E5E"/>
<rect x="23.25" y="24" width="0.75" height="3" rx="0.3" fill="#5E5E5E"/>
<rect x="24.75" y="24" width="0.375" height="3" rx="0.1875" fill="#5E5E5E"/>
<rect x="27.75" y="24" width="0.75" height="3" rx="0.3" fill="#5E5E5E"/>
<rect x="19" y="38" width="3" height="1" fill="#000716"/>
<rect x="19" y="35" width="3" height="2" fill="#000716"/>
<path d="M23 35H18L20.5 32L23 35Z" fill="#000716"/>
<rect x="36.6428" y="43.5062" width="4.10864" height="21.5704" transform="rotate(-149.947 36.6428 43.5062)" fill="#FFC900"/>
<path d="M32.5801 47.7002C32.3701 47.917 32.0395 47.963 31.7783 47.8119C31.517 47.6607 31.3922 47.3512 31.4754 47.061L33.0866 41.4487L36.6429 43.5063L32.5801 47.7002Z" fill="#E7A065"/>
<path d="M46.4165 26.6139L42.8602 24.5563L44.4035 21.8891C44.6876 21.398 45.3159 21.2303 45.8069 21.5144L47.5851 22.5432C48.0761 22.8273 48.2438 23.4557 47.9597 23.9467L46.4165 26.6139Z" fill="#FF1741"/>
<rect x="45.9021" y="27.5029" width="4.10864" height="1.02716" transform="rotate(-149.947 45.9021 27.5029)" fill="#DCDCDC"/>
<path fill-rule="evenodd" clip-rule="evenodd" d="M31.918 45.5193L33.6962 46.5481L32.5802 47.7002C32.3701 47.917 32.0395 47.963 31.7783 47.8119C31.517 47.6607 31.3922 47.3512 31.4755 47.061L31.918 45.5193Z" fill="#000716"/>
</svg>
