<svg width="50" height="50" viewBox="0 0 50 50" fill="none" xmlns="http://www.w3.org/2000/svg">
<path d="M13 26H37V34C37 34 34 39 25 39C16 39 13 34 13 34V26Z" fill="#1D2129"/>
<path d="M13 22.5H37V30.5C37 30.5 34 35.5 25 35.5C16 35.5 13 30.5 13 30.5V22.5Z" fill="black"/>
<path d="M24.5528 10.2236C24.8343 10.0828 25.1657 10.0828 25.4472 10.2236L47.2111 21.1056C47.9482 21.4741 47.9482 22.5259 47.2111 22.8944L25.4472 33.7764C25.1657 33.9172 24.8343 33.9172 24.5528 33.7764L2.78885 22.8944C2.0518 22.5259 2.05181 21.4741 2.78885 21.1056L24.5528 10.2236Z" fill="#5E5E5E"/>
<path d="M25 21.5L37 27.5V34" stroke="#FFC900" stroke-width="2" stroke-linecap="round" stroke-linejoin="round"/>
<ellipse cx="25.5" cy="21.5" rx="2.5" ry="2" fill="#1D2129"/>
<path d="M38 33.5H36L34.618 40.0644C34.2995 41.5773 35.4539 43 37 43C38.5461 43 39.7005 41.5773 39.382 40.0644L38 33.5Z" fill="#FFC900"/>
<circle cx="37" cy="34" r="2" fill="#FFC900"/>
</svg>
