<svg width="24" height="24" viewBox="0 0 24 24" fill="none" xmlns="http://www.w3.org/2000/svg">
<path fill-rule="evenodd" clip-rule="evenodd" d="M1.80476 10.0611L11.7606 4.63063C11.9098 4.54923 12.0902 4.54923 12.2395 4.63063L22.1953 10.0611C22.5427 10.2506 22.5427 10.7495 22.1953 10.939L21 11.5909L19 12.6819L18 13.2273L12.2395 16.3694C12.0902 16.4508 11.9098 16.4508 11.7606 16.3694L6.00003 13.2273L1.80476 10.939C1.45733 10.7495 1.45733 10.2506 1.80476 10.0611ZM21 17V13.2996L19 14.3905V17C19 17.5523 19.4477 18 20 18C20.5523 18 21 17.5523 21 17ZM18 17.3945V14.9359L12.9577 17.6863C12.3608 18.0119 11.6393 18.0119 11.0423 17.6863L6.00003 14.9359V17.3945C6.00003 17.7893 6.11562 18.1774 6.37814 18.4723C7.13022 19.3172 9.00418 21 12 21C14.9959 21 16.8698 19.3172 17.6219 18.4723C17.8844 18.1774 18 17.7893 18 17.3945Z" fill="#1D2129"/>
</svg>
