<svg width="50" height="50" viewBox="0 0 50 50" fill="none" xmlns="http://www.w3.org/2000/svg">
<rect x="4.5" y="9.5" width="41" height="31" rx="2.5" stroke="#DCDCDC" stroke-width="3"/>
<path fill-rule="evenodd" clip-rule="evenodd" d="M15.9858 19.4104C16.3157 19.3203 16.6833 19.402 16.9465 19.6574C19.9356 22.5587 23.0596 24.6432 24.573 25.5814C24.8375 25.7454 25.1625 25.7454 25.427 25.5814C26.9404 24.6432 30.0644 22.5587 33.0535 19.6574C33.3167 19.402 33.6843 19.3203 34.0142 19.4104C33.593 18.5087 32.7055 17.8788 31.6587 17.7987C29.8422 17.6598 27.2613 17.5 25 17.5C22.7387 17.5 20.1578 17.6598 18.3413 17.7987C17.2945 17.8788 16.407 18.5087 15.9858 19.4104ZM34.3379 21.1976C32.5042 22.964 30.6351 24.432 29.0912 25.5365L33.6459 29.3905C34.0675 29.7472 34.1201 30.3782 33.7634 30.7998C33.4066 31.2214 32.7757 31.274 32.3541 30.9173L27.3798 26.7083C27.0408 26.9301 26.7385 27.1215 26.4808 27.2812C25.5708 27.8454 24.4292 27.8454 23.5192 27.2812C23.2615 27.1215 22.9592 26.9301 22.6202 26.7083L17.6459 30.9173C17.2243 31.274 16.5934 31.2214 16.2366 30.7998C15.8799 30.3782 15.9325 29.7472 16.3541 29.3905L20.9088 25.5365C19.3649 24.432 17.4958 22.964 15.6621 21.1976C15.5724 22.3365 15.5 23.6682 15.5 25C15.5 26.7112 15.6195 28.4224 15.7417 29.7245C15.8681 31.0715 16.9309 32.1132 18.2793 32.2227C19.9229 32.3561 22.3175 32.5 25 32.5C27.6825 32.5 30.0771 32.3561 31.7207 32.2227C33.0691 32.1132 34.1319 31.0715 34.2583 29.7245C34.3805 28.4224 34.5 26.7112 34.5 25C34.5 23.6682 34.4276 22.3365 34.3379 21.1976Z" fill="#DCDCDC"/>
</svg>
