<svg width="50" height="50" viewBox="0 0 50 50" fill="none" xmlns="http://www.w3.org/2000/svg">
<path d="M26.1765 16.8241L25.125 15.1884L24.0735 16.8241L18.4542 25.5653L9.84669 38.4765C7.6315 41.7993 10.0135 46.25 14.0069 46.25H36.2431C40.2365 46.25 42.6185 41.7993 40.4033 38.4765L31.7959 25.5653L26.1765 16.8241Z" fill="#DCDCDC" stroke="#DCDCDC" stroke-width="2.5"/>
<mask id="mask0_8461_96" style="mask-type:alpha" maskUnits="userSpaceOnUse" x="10" y="26" width="30" height="19">
<path d="M19.5 26.25H30.75L39.3632 39.1699C41.0246 41.6619 39.2382 45 36.2431 45H14.0069C11.0118 45 9.22536 41.662 10.8867 39.1699L19.5 26.25Z" fill="#DCDCDC"/>
</mask>
<g mask="url(#mask0_8461_96)">
<path d="M43.2501 38.1252C25.1251 41.2502 31.3749 28.75 9.50003 30.6251C-12.3749 32.5002 1.69475 48.7501 1.69475 48.7501H45.4447C45.4447 48.7501 61.3752 35.0001 43.2501 38.1252Z" fill="#003EBD"/>
<path d="M9.49994 33.125C25.75 43.7501 25.1248 25 40.7499 29.375C56.3749 33.75 45.7498 48.75 45.7498 48.75H1.99987C1.99987 48.75 -6.75014 22.4999 9.49994 33.125Z" fill="#0053FF"/>
</g>
<rect x="17" y="5" width="16.25" height="5" rx="2.5" fill="#DCDCDC"/>
<rect x="19.5" y="5" width="11.25" height="22.5" fill="#DCDCDC"/>
<path d="M19.5 12.5H24.5C25.1904 12.5 25.75 13.0596 25.75 13.75V13.75C25.75 14.4404 25.1904 15 24.5 15H19.5V12.5Z" fill="#868686"/>
<path d="M19.5 17.5H24.5C25.1904 17.5 25.75 18.0596 25.75 18.75V18.75C25.75 19.4404 25.1904 20 24.5 20H19.5V17.5Z" fill="#868686"/>
<circle opacity="0.15" cx="30.75" cy="36.25" r="1.25" fill="white"/>
<circle opacity="0.15" cx="27" cy="40" r="1.25" fill="white"/>
<circle opacity="0.25" cx="22.625" cy="28.125" r="1.875" fill="#0053FF"/>
<circle opacity="0.15" cx="27" cy="16.25" r="1.25" fill="#0053FF"/>
<circle opacity="0.25" cx="27" cy="25" r="1.25" fill="#0053FF"/>
<circle opacity="0.15" cx="18.875" cy="33.125" r="0.625" fill="white"/>
<circle opacity="0.15" cx="15.125" cy="39.375" r="1.875" fill="white"/>
</svg>
