<svg width="50" height="50" viewBox="0 0 50 50" fill="none" xmlns="http://www.w3.org/2000/svg">
<path d="M23.718 12.936C26.8718 16.0898 38.4359 9.7821 41.5898 12.936C41.5898 12.936 39.4872 13.4616 36.3333 19.7693C39.4872 21.3462 41.5898 26.6026 41.5898 26.6026C38.4359 23.4488 26.8718 29.7565 23.718 26.6026V12.936Z" fill="#0046D7"/>
<path d="M23.718 20.8205H27.9231C27.9231 20.8205 27.9231 22.3974 27.9231 23.9743C27.9231 25.5513 23.718 24.5 23.718 26.6025V20.8205Z" fill="#002573"/>
<path d="M12.1538 10.3078C16.328 14.0665 24.7692 7.15388 27.923 10.3078L27.923 23.9744C24.7692 20.8206 16.7918 27.7332 12.1538 23.9744V10.3078Z" fill="#0053FF"/>
<path d="M14.782 45L11.6282 6.62823" stroke="#1D2129" stroke-width="3.15385" stroke-linecap="round"/>
<circle cx="11.6282" cy="6.62821" r="2.62821" fill="#0053FF"/>
</svg>
