<svg width="50" height="50" viewBox="0 0 50 50" fill="none" xmlns="http://www.w3.org/2000/svg">
<path d="M22 12.5001C25 15.5001 36 9.50006 39 12.5001C39 12.5001 37 13.0001 34 19.0001C37 20.5001 39 25.5001 39 25.5001C36 22.5001 25 28.5001 22 25.5001V12.5001Z" fill="#0046D7"/>
<path d="M22 20H26C26 20 26 21.5 26 23C26 24.5 22 23.5 22 25.5V20Z" fill="#002573"/>
<path d="M11 10C14.9706 13.5754 23 7.00001 26 10L26 23C23 20 15.4118 26.5754 11 23V10Z" fill="#0053FF"/>
<path d="M13.5 43L10.5 6.5" stroke="#000716" stroke-width="3" stroke-linecap="round"/>
<circle cx="10.5" cy="6.5" r="2.5" fill="#0053FF"/>
</svg>
