<svg width="50" height="50" viewBox="0 0 50 50" fill="none" xmlns="http://www.w3.org/2000/svg">
<path fill-rule="evenodd" clip-rule="evenodd" d="M8.15475 18.1772C7.58739 19.1599 7.84057 20.4113 8.74531 21.0962L11.3603 23.0757V26.9249L8.74551 28.9042C7.84076 29.5891 7.58758 30.8405 8.15495 31.8232L10.6687 36.1771C11.2361 37.1598 12.4464 37.5662 13.4919 37.1251L16.5135 35.8503L19.8471 37.775L20.2538 41.0291C20.3946 42.1551 21.3517 43 22.4865 43H27.514C28.6487 43 29.6059 42.1551 29.7466 41.0291L30.1534 37.7749L33.4867 35.8504L36.5086 37.1253C37.554 37.5664 38.7644 37.16 39.3317 36.1773L41.8455 31.8233C42.4128 30.8406 42.1597 29.5892 41.2549 28.9044L38.6401 26.925L38.6401 23.0755L41.2551 21.096C42.1599 20.4112 42.413 19.1598 41.8457 18.1771L39.3319 13.8231C38.7646 12.8404 37.5542 12.434 36.5087 12.8751L33.4871 14.1499L30.1534 12.2252L29.7466 8.97086C29.6059 7.8449 28.6487 6.99993 27.514 6.99994L22.4865 6.99994C21.3517 6.99994 20.3946 7.8449 20.2538 8.97086L19.8471 12.2252L16.5132 14.15L13.4917 12.8753C12.4462 12.4342 11.2359 12.8406 10.6685 13.8233L8.15475 18.1772ZM25.0002 33.6401C29.7719 33.6401 33.6402 29.7718 33.6402 25.0001C33.6402 20.2283 29.7719 16.36 25.0002 16.36C20.2284 16.36 16.3602 20.2283 16.3602 25.0001C16.3602 29.7718 20.2284 33.6401 25.0002 33.6401Z" fill="#000716"/>
<circle cx="25.0002" cy="25" r="7.56002" stroke="#5E5E5E" stroke-width="3"/>
<path d="M30.3459 30.3457C27.3936 33.2981 22.6068 33.2981 19.6545 30.3457C16.7021 27.3934 16.7021 22.6066 19.6545 19.6543" stroke="#868686" stroke-width="3" stroke-linecap="round"/>
</svg>
