<svg width="50" height="50" viewBox="0 0 50 50" fill="none" xmlns="http://www.w3.org/2000/svg">
<path fill-rule="evenodd" clip-rule="evenodd" d="M7.23471 26.5988C6.7932 27.3636 6.99022 28.3374 7.69428 28.8703L9.72915 30.4107L9.72915 33.4061L7.6944 34.9464C6.99034 35.4793 6.79332 36.4531 7.23484 37.2179L9.191 40.606C9.63252 41.3708 10.5744 41.6871 11.388 41.3438L13.7393 40.3518L16.3335 41.8496L16.65 44.3818C16.7596 45.258 17.5044 45.9156 18.3874 45.9156H22.2998C23.1828 45.9156 23.9277 45.258 24.0372 44.3818L24.3537 41.8495L26.9477 40.3519L29.2993 41.344C30.1129 41.6873 31.0547 41.371 31.4963 40.6062L33.4524 37.2181C33.8939 36.4533 33.6969 35.4795 32.9929 34.9465L30.958 33.4062V30.4106L32.993 28.8702C33.697 28.3372 33.8941 27.3634 33.4525 26.5986L31.4964 23.2105C31.0549 22.4457 30.113 22.1294 29.2994 22.4727L26.9479 23.4648L24.3538 21.9671L24.0372 19.4345C23.9277 18.5583 23.1828 17.9008 22.2998 17.9008L18.3874 17.9008C17.5044 17.9008 16.7596 18.5583 16.65 19.4345L16.3335 21.9671L13.7391 23.4649L11.3878 22.4729C10.5743 22.1296 9.63239 22.4459 9.19088 23.2107L7.23471 26.5988ZM20.3436 38.6318C24.0569 38.6318 27.0671 35.6216 27.0671 31.9082C27.0671 28.1949 24.0569 25.1847 20.3436 25.1847C16.6303 25.1847 13.62 28.1949 13.62 31.9082C13.62 35.6216 16.6303 38.6318 20.3436 38.6318Z" fill="#000716"/>
<circle cx="20.3437" cy="31.9083" r="5.88311" stroke="#868686" stroke-width="2.89807"/>
<path fill-rule="evenodd" clip-rule="evenodd" d="M26.954 10.2781C26.686 10.7422 26.8056 11.3331 27.2328 11.6565L28.4676 12.5912L28.4676 14.409L27.2329 15.3437C26.8057 15.6671 26.6861 16.258 26.954 16.7221L28.1411 18.7781C28.409 19.2422 28.9805 19.4341 29.4742 19.2258L30.9012 18.6238L32.4752 19.5326L32.6673 21.0693C32.7338 21.601 33.1858 22 33.7216 22H36.0957C36.6316 22 37.0836 21.601 37.15 21.0693L37.3421 19.5326L38.9162 18.6238L40.3432 19.2258C40.8369 19.4341 41.4085 19.2422 41.6764 18.7781L42.8634 16.7221C43.1313 16.258 43.0118 15.6671 42.5845 15.3437L41.3497 14.409V12.5913L42.5846 11.6565C43.0119 11.3331 43.1314 10.7422 42.8635 10.2781L41.6764 8.2221C41.4085 7.75805 40.837 7.56612 40.3433 7.77441L38.9165 8.37639L37.3421 7.46744L37.15 5.93071C37.0836 5.39901 36.6316 5 36.0957 5L33.7216 5C33.1858 5 32.7338 5.39901 32.6673 5.93071L32.4752 7.46744L30.9009 8.37637L29.4742 7.77441C28.9805 7.56611 28.4089 7.75804 28.141 8.2221L26.954 10.2781ZM34.9087 17.5801C37.162 17.5801 38.9887 15.7534 38.9887 13.5001C38.9887 11.2468 37.162 9.4201 34.9087 9.4201C32.6554 9.4201 30.8287 11.2468 30.8287 13.5001C30.8287 15.7534 32.6554 17.5801 34.9087 17.5801Z" fill="#000716"/>
<circle cx="34.9088" cy="13.4999" r="3.57" stroke="#868686" stroke-width="1.75861"/>
</svg>
