<svg width="50" height="50" viewBox="0 0 50 50" fill="none" xmlns="http://www.w3.org/2000/svg">
<g clip-path="url(#clip0)">
<mask id="mask0" mask-type="alpha" maskUnits="userSpaceOnUse" x="5" y="-5" width="40" height="47">
<path d="M45 32.5C45 40.5081 34.5 42 25 42C15.5 42 5 40.5081 5 32.5C5 24.4919 14.4543 -5 25.5 -5C36.5457 -5 45 24.4919 45 32.5Z" fill="#C4C4C4"/>
</mask>
<g mask="url(#mask0)">
<path d="M15.5 13H32.5C33 26 25 29.5 25 29.5C18 30 9.5 28 9.5 28C19.5 25 15.5 26 15.5 26L13 23C18.5 21.5 15.5 13 15.5 13Z" fill="#000716"/>
<mask id="mask1" mask-type="alpha" maskUnits="userSpaceOnUse" x="12" y="25" width="24" height="30">
<path d="M12.4417 33.0323C12.4575 29.4605 14.8644 26.2881 18.3759 25.6343C20.2678 25.282 22.3102 25 24 25C25.6898 25 27.7322 25.282 29.6241 25.6343C33.1356 26.2881 35.5462 29.4627 35.387 33.031C34.9467 42.9009 32.8383 55 23 55C13.1621 55 12.3977 42.902 12.4417 33.0323Z" fill="#002573"/>
</mask>
<g mask="url(#mask1)">
<path d="M12.4417 33.0323C12.4575 29.4605 14.8644 26.2881 18.3759 25.6343C20.2678 25.282 22.3102 25 24 25C25.6898 25 27.7322 25.282 29.6241 25.6343C33.1356 26.2881 35.5462 29.4627 35.387 33.031C34.9467 42.9009 32.8383 55 23 55C13.1621 55 12.3977 42.902 12.4417 33.0323Z" fill="#0053FF"/>
<path d="M21 25H27V25C27 26.1754 26.2025 27.2201 25.0408 27.3995C24.6587 27.4586 24.2879 27.5 24 27.5C23.7121 27.5 23.3413 27.4586 22.9592 27.3995C21.7975 27.2201 21 26.1754 21 25V25Z" fill="#FECDA9"/>
</g>
<circle cx="24" cy="12.5" r="8.5" fill="#000716"/>
<path d="M16.5 13.5C16.5 9.35786 19.8579 6 24 6V6C28.1421 6 31.5 9.35786 31.5 13.5V16.5C31.5 20.6421 28.1421 24 24 24V24C19.8579 24 16.5 20.6421 16.5 16.5V13.5Z" fill="#FECDA9"/>
<path d="M22.5 18H25.5V25C25.5 25.8284 24.8284 26.5 24 26.5V26.5C23.1716 26.5 22.5 25.8284 22.5 25V18Z" fill="#FECDA9"/>
<path d="M31.5 11C25.5 11 23.5 20.5 13.5 19C16.5 14.5 14 10.5 18 6.5L19 6L24 5L30 7L31.5 11Z" fill="#000716"/>
<path d="M8.61182 40.4999C8.52997 38.2923 10.4519 36.5 12.661 36.5H14.661C16.8702 36.5 18.7921 38.2923 18.7103 40.4999C18.6107 43.1848 17.8114 45 13.661 45C9.51071 45 8.71136 43.1848 8.61182 40.4999Z" fill="#002573"/>
<path d="M8 29.3791C8 27.1012 9.70728 25.1724 11.9652 24.8713V24.8713C15.1095 24.4521 17.7387 27.2989 17.0254 30.3898V30.3898C16.6416 32.053 15.34 33.365 13.684 33.779V33.779C10.8155 34.4961 8 32.3358 8 29.3791V29.3791Z" fill="#000716"/>
<path d="M9.40002 28.9C9.40002 26.1938 11.5938 24 14.3 24H15.1647C17.3934 24 19.2 25.8067 19.2 28.0353V30.5333C19.2 32.3375 17.7375 33.8 15.9334 33.8H14.3C11.5938 33.8 9.40002 31.6062 9.40002 28.9V28.9Z" fill="#000716"/>
<path d="M12.2855 33.8H15.0855V36.6C15.0855 37.3732 14.4587 38 13.6855 38V38C12.9123 38 12.2855 37.3732 12.2855 36.6V33.8Z" fill="#FECDA9"/>
<path d="M9.48547 31C9.48547 28.6805 11.3659 26.8 13.6855 26.8V26.8C16.0051 26.8 17.8855 28.6805 17.8855 31V32.4C17.8855 34.7196 16.0051 36.6 13.6855 36.6V36.6C11.3659 36.6 9.48547 34.7196 9.48547 32.4001V31Z" fill="#FECDA9"/>
<path d="M10.1 28.2C10.8 31.7 18.0001 30.5 19.0001 29.5L15.7 25.4H12.9L10.1 28.2Z" fill="#000716"/>
<path d="M27.7185 40.1503C27.4273 37.6662 29.0498 35.3787 31.5023 34.8884C32.6128 34.6664 33.8342 34.5 35 34.5C36.1658 34.5 37.3872 34.6664 38.4977 34.8884C40.9502 35.3787 42.5727 37.6662 42.2815 40.1503C41.6322 45.6912 39.4742 49 35 49C30.5258 49 28.3678 45.6912 27.7185 40.1503Z" fill="#002573"/>
<rect x="27.9062" y="19" width="15" height="15" rx="7.5" fill="#000716"/>
<path d="M33.9062 32.2565H36.9062V34.5001C36.9062 35.3285 36.2347 36.0001 35.4062 36.0001V36.0001C34.5778 36.0001 33.9062 35.3285 33.9062 34.5001V32.2565Z" fill="#A07A57"/>
<path d="M30.9062 28.5C30.9062 26.0147 32.921 24 35.4062 24V24C37.8915 24 39.9062 26.0147 39.9062 28.5V29.5C39.9062 31.9853 37.8915 34 35.4062 34V34C32.921 34 30.9062 31.9853 30.9062 29.5V28.5Z" fill="#A07A57"/>
<path d="M41.3166 25.0627C41.3166 25.5546 37.4062 27.5 29.932 26.5385L33.7269 19.8975H36.7628L41.3166 25.0627Z" fill="#000716"/>
</g>
</g>
<defs>
<clipPath id="clip0">
<rect width="50" height="50" fill="white"/>
</clipPath>
</defs>
</svg>
