<svg width="50" height="50" viewBox="0 0 50 50" fill="none" xmlns="http://www.w3.org/2000/svg">
<path d="M14.2894 13.9474H33.0789C33.6316 28.3158 24.7894 32.1842 24.7894 32.1842C17.0526 32.7369 7.65787 30.5263 7.65787 30.5263C18.7105 27.2105 14.2894 28.3158 14.2894 28.3158L11.5263 25C17.6052 23.3421 14.2894 13.9474 14.2894 13.9474Z" fill="#000716"/>
<mask id="mask0_6334_338" style="mask-type:alpha" maskUnits="userSpaceOnUse" x="10" y="27" width="27" height="19">
<path fill-rule="evenodd" clip-rule="evenodd" d="M35.3281 45.2198C32.0164 45.8115 28.3398 46 24.7895 46C20.0976 46 15.185 45.6708 11.1859 44.5168C10.9411 41.7191 10.897 38.8261 10.9092 36.0884C10.9267 32.1406 13.587 28.6342 17.4681 27.9116C19.5591 27.5223 21.8165 27.2106 23.6842 27.2106C25.5519 27.2106 27.8093 27.5223 29.9003 27.9116C33.7814 28.6342 36.4458 32.143 36.2698 36.0869C36.1374 39.0551 35.8685 42.2058 35.3281 45.2198Z" fill="#C4C4C4"/>
</mask>
<g mask="url(#mask0_6334_338)">
<path fill-rule="evenodd" clip-rule="evenodd" d="M10.9092 36.0884C10.9267 32.1406 13.587 28.6342 17.4681 27.9116C19.5591 27.5223 21.8165 27.2106 23.6842 27.2106C25.5519 27.2106 27.8093 27.5223 29.9003 27.9116C33.7814 28.6342 36.4458 32.143 36.2698 36.0869C36.254 36.4415 36.2363 36.7987 36.2163 37.1579H29.2105V53.7368H32.6536C30.6092 57.6828 27.452 60.3685 22.5789 60.3685C16.8416 60.3685 13.8963 56.6457 12.4012 51.5263H17.0526V43.7895L11.072 42.9921C10.927 40.6785 10.8992 38.3313 10.9092 36.0884Z" fill="#0053FF"/>
<path d="M20.3684 27.2106H27V27.2106C27 28.5097 26.1185 29.6643 24.8346 29.8627C24.4123 29.9279 24.0024 29.9737 23.6842 29.9737C23.366 29.9737 22.9561 29.9279 22.5338 29.8627C21.2499 29.6643 20.3684 28.5097 20.3684 27.2106V27.2106Z" fill="#FECDA9"/>
</g>
<circle cx="23.6842" cy="13.3947" r="9.39474" fill="#000716"/>
<path d="M15.3947 14.5C15.3947 9.9219 19.106 6.21057 23.6842 6.21057V6.21057C28.2623 6.21057 31.9737 9.92189 31.9737 14.5V17.8158C31.9737 22.394 28.2623 26.1053 23.6842 26.1053V26.1053C19.106 26.1053 15.3947 22.394 15.3947 17.8158V14.5Z" fill="#FECDA9"/>
<path d="M22.0263 19.4736H25.3421V27.2105C25.3421 28.1261 24.5998 28.8684 23.6842 28.8684V28.8684C22.7686 28.8684 22.0263 28.1261 22.0263 27.2105V19.4736Z" fill="#FECDA9"/>
<path d="M31.9737 11.7368C25.3421 11.7368 23.1316 22.2368 12.0789 20.5789C15.3947 15.6052 12.6316 11.1842 17.0526 6.76312L18.1579 6.21049L23.6842 5.10522L30.3158 7.31575L31.9737 11.7368Z" fill="#000716"/>
<path fill-rule="evenodd" clip-rule="evenodd" d="M17.7132 45.6897C13.5776 45.2837 9.71948 44.4166 6.94791 42.735C7.58976 41.0886 9.27718 39.921 11.1517 39.921H13.3622C15.8039 39.921 17.9281 41.902 17.8377 44.342C17.82 44.8173 17.7826 45.268 17.7132 45.6897Z" fill="#DCDCDC"/>
<path d="M6 32.0505C6 29.5329 7.88699 27.401 10.3826 27.0683V27.0683C13.8579 26.6049 16.7639 29.7513 15.9755 33.1676V33.1676C15.5513 35.006 14.1126 36.456 12.2823 36.9136V36.9136C9.11188 37.7062 6 35.3185 6 32.0505V32.0505Z" fill="#000716"/>
<path d="M7.54736 31.521C7.54736 28.53 9.97209 26.1052 12.9632 26.1052H13.9189C16.3821 26.1052 18.3789 28.1021 18.3789 30.5653V33.3263C18.3789 35.3203 16.7625 36.9368 14.7684 36.9368H12.9632C9.9721 36.9368 7.54736 34.5121 7.54736 31.521V31.521Z" fill="#000716"/>
<path d="M10.7365 36.9369H13.8313V40.0316C13.8313 40.8862 13.1385 41.579 12.2839 41.579V41.579C11.4293 41.579 10.7365 40.8862 10.7365 40.0316V36.9369Z" fill="#FECDA9"/>
<path d="M7.64178 33.8422C7.64178 31.2784 9.72013 29.2001 12.2839 29.2001V29.2001C14.8477 29.2001 16.926 31.2784 16.926 33.8422V35.3895C16.926 37.9533 14.8477 40.0317 12.2839 40.0317V40.0317C9.72013 40.0317 7.64178 37.9533 7.64178 35.3895V33.8422Z" fill="#FECDA9"/>
<path d="M8.32106 30.7474C9.09475 34.6159 17.0527 33.2895 18.158 32.1843L14.5105 27.6527H11.4158L8.32106 30.7474Z" fill="#000716"/>
<path fill-rule="evenodd" clip-rule="evenodd" d="M29.0994 45.8948C28.4573 44.4462 28.0331 42.6799 27.7941 40.6398C27.4723 37.8943 29.2655 35.366 31.9762 34.8241C33.2036 34.5787 34.5535 34.3948 35.8421 34.3948C37.1307 34.3948 38.4805 34.5787 39.7079 34.8241C42.4186 35.366 44.2119 37.8943 43.8901 40.6398C43.835 41.1101 43.77 41.5658 43.6949 42.0065C40.3562 44.5942 34.8189 45.5966 29.0994 45.8948Z" fill="#DCDCDC"/>
<rect x="28.0016" y="17.2632" width="16.5789" height="16.5789" rx="8.28947" fill="#1D2129"/>
<path d="M34.6332 31.915H37.949V34.3948C37.949 35.3104 37.2067 36.0527 36.2911 36.0527V36.0527C35.3755 36.0527 34.6332 35.3104 34.6332 34.3948V31.915Z" fill="#A07A57"/>
<path d="M31.3174 27.7631C31.3174 25.0162 33.5442 22.7894 36.2911 22.7894V22.7894C39.038 22.7894 41.2648 25.0162 41.2648 27.7631V28.8684C41.2648 31.6153 39.038 33.8421 36.2911 33.8421V33.8421C33.5442 33.8421 31.3174 31.6153 31.3174 28.8684V27.7631Z" fill="#A07A57"/>
<path d="M42.8236 23.9641C42.8236 24.5078 38.5016 26.6579 30.2406 25.5952L34.435 18.2551H37.7904L42.8236 23.9641Z" fill="#1D2129"/>
</svg>
