<svg width="50" height="50" viewBox="0 0 50 50" fill="none" xmlns="http://www.w3.org/2000/svg">
<path fill-rule="evenodd" clip-rule="evenodd" d="M13 10C11.3431 10 10 11.3431 10 13V41C10 42.6569 11.3431 44 13 44H36C37.6569 44 39 42.6569 39 41V13C39 11.3431 37.6569 10 36 10H13Z" fill="white" stroke="#FF285C" stroke-width="4"/>
<path d="M17.5 40C18.6046 40 19.5 39.1046 19.5 38C19.5 36.8954 18.6046 36 17.5 36C16.3954 36 15.5 36.8954 15.5 38C15.5 39.1046 16.3954 40 17.5 40Z" fill="#FF285C"/>
<path d="M22.5 35C23.6046 35 24.5 34.1046 24.5 33C24.5 31.8954 23.6046 31 22.5 31C21.3954 31 20.5 31.8954 20.5 33C20.5 34.1046 21.3954 35 22.5 35Z" fill="#FF285C"/>
<path d="M27.5 39C28.6046 39 29.5 38.1046 29.5 37C29.5 35.8954 28.6046 35 27.5 35C26.3954 35 25.5 35.8954 25.5 37C25.5 38.1046 26.3954 39 27.5 39Z" fill="#FF285C"/>
<path d="M32.5 33C33.6046 33 34.5 32.1046 34.5 31C34.5 29.8954 33.6046 29 32.5 29C31.3954 29 30.5 29.8954 30.5 31C30.5 32.1046 31.3954 33 32.5 33Z" fill="#FF285C"/>
<path d="M17.5 38L22.5 33L27.5 37L32.5 31" stroke="#FF285C" stroke-width="2" stroke-linecap="round" stroke-linejoin="round"/>
<path fill-rule="evenodd" clip-rule="evenodd" d="M22 6.5H27C27.5523 6.5 28 6.94772 28 7.5V11.8346C28 12.3868 27.5523 12.8345 27 12.8345C26.846 12.8345 26.6941 12.7989 26.5561 12.7306C25.5731 12.2435 24.8877 12 24.5 12C24.1123 12 23.4269 12.2435 22.444 12.7306C21.9491 12.9758 21.3492 12.7733 21.104 12.2785C21.0356 12.1405 21 11.9885 21 11.8345V7.5C21 6.94772 21.4477 6.5 22 6.5Z" fill="#DCDCDC"/>
<path d="M33 6H16C14.8954 6 14 6.89543 14 8V11C14 12.1046 14.8954 13 16 13H33C34.1046 13 35 12.1046 35 11V8C35 6.89543 34.1046 6 33 6Z" fill="#CCCCCC"/>
<path d="M24.5 9C26.1569 9 27.5 7.65685 27.5 6C27.5 4.34315 26.1569 3 24.5 3C22.8431 3 21.5 4.34315 21.5 6C21.5 7.65685 22.8431 9 24.5 9Z" fill="white" stroke="#CCCCCC" stroke-width="2"/>
<path d="M21.5 19H16.5C15.6716 19 15 19.6716 15 20.5C15 21.3284 15.6716 22 16.5 22H21.5C22.3284 22 23 21.3284 23 20.5C23 19.6716 22.3284 19 21.5 19Z" fill="#CCCCCC"/>
<path d="M24.5 24H16.5C15.6716 24 15 24.6716 15 25.5C15 26.3284 15.6716 27 16.5 27H24.5C25.3284 27 26 26.3284 26 25.5C26 24.6716 25.3284 24 24.5 24Z" fill="#CCCCCC"/>
<path d="M30.375 20.75C31.1344 20.75 31.75 20.1344 31.75 19.375C31.75 18.6156 31.1344 18 30.375 18C29.6156 18 29 18.6156 29 19.375C29 20.1344 29.6156 20.75 30.375 20.75Z" fill="#FF285C"/>
<path d="M32.625 20.75C33.3844 20.75 34 20.1344 34 19.375C34 18.6156 33.3844 18 32.625 18C31.8656 18 31.25 18.6156 31.25 19.375C31.25 20.1344 31.8656 20.75 32.625 20.75Z" fill="#FF285C"/>
<path fill-rule="evenodd" clip-rule="evenodd" d="M29 19.5H34C34 20.3333 33.1667 21.4167 31.5 22.75C29.8333 21.4167 29 20.3333 29 19.5Z" fill="#FF285C"/>
</svg>
