<svg width="50" height="50" viewBox="0 0 50 50" fill="none" xmlns="http://www.w3.org/2000/svg">
<path d="M32 12C32 11.4477 32.4477 11 33 11H36C36.5523 11 37 11.4477 37 12V19.523C37 20.2304 36.2855 20.7142 35.6286 20.4514L32.6286 19.2514C32.249 19.0996 32 18.7319 32 18.323V12Z" fill="#0053FF"/>
<path d="M10 23L25 13L40 23V40C40 41.1046 39.1046 42 38 42H12C10.8954 42 10 41.1046 10 40V23Z" fill="#DCDCDC"/>
<path d="M40.5 24.5L26.2732 12.109C25.5379 11.4685 24.4479 11.4517 23.6932 12.0692L8.5 24.5" stroke="#0053FF" stroke-width="4" stroke-linecap="round" stroke-linejoin="round"/>
<path d="M28 29C28 27.8954 28.8954 27 30 27H35C36.1046 27 37 27.8954 37 29V42H28V29Z" fill="#868686"/>
<rect x="13" y="27" width="12" height="11" rx="2" fill="#868686"/>
<path d="M36 11H33C32.0594 9.11885 33.3665 6.89243 35.4675 6.79693L40.249 6.57959C41.3498 6.52955 42.361 5.95845 42.9723 5.04158L43.7684 3.84742C43.9131 3.63037 44.1567 3.5 44.4175 3.5C44.9501 3.5 45.3261 4.02171 45.1577 4.52691L44.4539 6.63817C44.1747 7.47599 43.4552 8.09081 42.584 8.23599L40.0842 8.65263C38.7287 8.87855 37.4776 9.52237 36.5059 10.4941L36 11Z" fill="#DCDCDC"/>
</svg>
