<svg width="50" height="50" viewBox="0 0 50 50" fill="none" xmlns="http://www.w3.org/2000/svg">
<path d="M10 23L25 13L40 23V40C40 41.1046 39.1046 42 38 42H12C10.8954 42 10 41.1046 10 40V23Z" fill="#DCDCDC"/>
<path d="M40.5 24.5L26.2732 12.109C25.5379 11.4685 24.4479 11.4517 23.6932 12.0692L8.5 24.5" stroke="#0053FF" stroke-width="4" stroke-linecap="round" stroke-linejoin="round"/>
<path d="M28 29C28 27.8954 28.8954 27 30 27H35C36.1046 27 37 27.8954 37 29V42H28V29Z" fill="#868686"/>
<rect x="13" y="27" width="12" height="11" rx="2" fill="#868686"/>
<path d="M32 13C32 11.8954 32.8954 11 34 11H35C36.1046 11 37 11.8954 37 13V19.523C37 20.2304 36.2855 20.7142 35.6286 20.4514L32.6286 19.2514C32.249 19.0996 32 18.7319 32 18.323V13Z" fill="#0053FF"/>
</svg>
