<svg width="50" height="50" viewBox="0 0 50 50" fill="none" xmlns="http://www.w3.org/2000/svg">
<g clip-path="url(#clip0_8497_226)">
<rect x="20.4265" y="11.8971" width="21.7647" height="27.2059" rx="2.72059" fill="#DCDCDC" stroke="#DCDCDC" stroke-width="3.26471"/>
<rect x="28.5883" y="15.7059" width="10.8824" height="3.26471" rx="1.63235" fill="#868686"/>
<rect x="28.5883" y="21.147" width="10.8824" height="3.26471" rx="1.63235" fill="#868686"/>
<rect x="28.5883" y="26.5883" width="10.8824" height="3.26471" rx="1.63235" fill="#868686"/>
<rect x="28.5883" y="32.0294" width="10.8824" height="3.26471" rx="1.63235" fill="#868686"/>
<path d="M9 13.0523C9 12.0536 9.67971 11.183 10.6486 10.9408L26.0219 7.09748C26.2808 7.03274 26.5467 7 26.8137 7H28.5882C29.7903 7 30.7647 7.97444 30.7647 9.17647V41.8235C30.7647 43.0256 29.7903 44 28.5882 44H26.8137C26.5467 44 26.2808 43.9673 26.0219 43.9025L10.6486 40.0592C9.67971 39.817 9 38.9464 9 37.9477V13.0523Z" fill="#207245"/>
<path d="M23.147 30.9411L15.5293 21.147" stroke="white" stroke-width="2.17647" stroke-linecap="round"/>
<path d="M15.5294 29.853L23.1471 20.0588" stroke="white" stroke-width="2.17647" stroke-linecap="round"/>
<rect x="28" y="28" width="19" height="19" rx="9.5" fill="#FFAA00"/>
<path d="M37.4999 32.5C38.0522 32.5 38.4999 32.9477 38.4999 33.5V39.5859L39.7929 38.293C40.1834 37.9024 40.8164 37.9024 41.207 38.293C41.5975 38.6835 41.5975 39.3165 41.207 39.707L38.207 42.707C37.8164 43.0976 37.1834 43.0976 36.7929 42.707L33.7929 39.707C33.4024 39.3165 33.4024 38.6835 33.7929 38.293C34.1834 37.9024 34.8164 37.9024 35.207 38.293L36.4999 39.5859V33.5C36.4999 32.9477 36.9476 32.5 37.4999 32.5Z" fill="#1D2129"/>
</g>
<defs>
<clipPath id="clip0_8497_226">
<rect width="50" height="50" fill="white"/>
</clipPath>
</defs>
</svg>
