<svg width="50" height="50" viewBox="0 0 50 50" fill="none" xmlns="http://www.w3.org/2000/svg">
<path d="M5 8C5 6.34315 6.34315 5 8 5H41C42.6569 5 44 6.34315 44 8V29C44 30.1046 43.1046 31 42 31H7C5.89543 31 5 30.1046 5 29V8Z" fill="#000716"/>
<path d="M8 10C8 9.44771 8.44772 9 9 9H40C40.5523 9 41 9.44772 41 10V27C41 27.5523 40.5523 28 40 28H9C8.44771 28 8 27.5523 8 27V10Z" fill="white"/>
<path d="M5 29H44L46.3787 38.5149C46.6943 39.7772 45.7396 41 44.4384 41H4.56156C3.26041 41 2.30569 39.7772 2.62127 38.5149L5 29Z" fill="#C4C4C4"/>
<path d="M6.83922 31.8039C6.93271 31.3365 7.34312 31 7.8198 31H41.1802C41.6569 31 42.0673 31.3365 42.1608 31.8039L42.7608 34.8039C42.8845 35.4227 42.4112 36 41.7802 36H7.2198C6.58876 36 6.11546 35.4227 6.23922 34.8039L6.83922 31.8039Z" fill="#868686"/>
<path d="M20 40C20 39.4477 20.4477 39 21 39H24.5H28C28.5523 39 29 39.4477 29 40V41H20V40Z" fill="#868686"/>
<path d="M8 9C8 8.44772 8.44772 8 9 8H40C40.5523 8 41 8.44772 41 9V12H27V10C27 9.44772 26.5523 9 26 9H19C18.4477 9 18 9.44772 18 10V12H8V9Z" fill="#E7E7E7"/>
<rect x="20" y="10" width="5" height="2" rx="1" fill="#DCDCDC"/>
<rect x="12" y="18" width="8" height="2" rx="1" fill="#DCDCDC"/>
<rect x="24" y="18" width="5" height="2" rx="1" fill="#DCDCDC"/>
<rect x="24" y="21" width="10" height="2" rx="1" fill="#DCDCDC"/>
<rect x="12" y="21" width="8" height="2" rx="1" fill="#DCDCDC"/>
<rect x="12" y="24" width="8" height="2" rx="1" fill="#0053FF"/>
<circle cx="11" cy="10" r="1" fill="#FF1741"/>
<circle cx="13" cy="10" r="1" fill="#FFC900"/>
<circle cx="15" cy="10" r="1" fill="#1ABD6F"/>
<path d="M28 10C28 9.44772 28.4477 9 29 9H34C34.5523 9 35 9.44772 35 10V12H28V10Z" fill="#C4C4C4"/>
<rect x="16" y="13" width="23" height="2" rx="1" fill="#DCDCDC"/>
<rect x="10" y="13" width="5" height="2" rx="1" fill="#DCDCDC"/>
</svg>
