<svg width="51" height="50" viewBox="0 0 51 50" fill="none" xmlns="http://www.w3.org/2000/svg">
<path d="M5.16663 10.0875C5.16663 8.38232 6.54895 7 8.25413 7H37.2458C38.951 7 40.3333 8.38232 40.3333 10.0875V30.3861C40.3333 31.5229 39.4117 32.4444 38.275 32.4444H7.22496C6.08818 32.4444 5.16663 31.5229 5.16663 30.3861V10.0875Z" fill="#1D2129"/>
<path d="M8.33337 12.2513C8.33337 11.6829 8.79415 11.2222 9.36254 11.2222H36.1375C36.7059 11.2222 37.1667 11.6829 37.1667 12.2513V28.2486C37.1667 28.817 36.7059 29.2777 36.1375 29.2777H9.36254C8.79415 29.2777 8.33337 28.817 8.33337 28.2486V12.2513Z" fill="white"/>
<path d="M5.16667 30.3334H40.3333L42.8606 40.4425C43.1854 41.7416 42.2028 43 40.8637 43H4.63626C3.29717 43 2.31461 41.7416 2.63939 40.4425L5.16667 30.3334Z" fill="#C4C4C4"/>
<path d="M7.11232 33.2718C7.20853 32.7907 7.63092 32.4445 8.1215 32.4445H37.3785C37.8691 32.4445 38.2915 32.7907 38.3877 33.2718L39.0316 36.4912C39.1589 37.1281 38.6719 37.7222 38.0224 37.7222H7.47761C6.82816 37.7222 6.34106 37.1281 6.46843 36.4912L7.11232 33.2718Z" fill="#868686"/>
<path d="M21 41.9181C21 41.3497 21.4608 40.8889 22.0292 40.8889H25.75H26.4708C27.0392 40.8889 27.5 41.3497 27.5 41.9181V43H21V41.9181Z" fill="#868686"/>
<path d="M8.33337 11.1958C8.33337 10.6274 8.79415 10.1666 9.36254 10.1666H36.1375C36.7059 10.1666 37.1667 10.6274 37.1667 11.1958V14.3888H28.3889V12.2513C28.3889 11.683 27.9282 11.2222 27.3598 11.2222H19.9181C19.3497 11.2222 18.8889 11.683 18.8889 12.2513V14.3888H8.33337V11.1958Z" fill="#E7E7E7"/>
<rect x="12" y="22" width="8" height="2" rx="1" fill="#DCDCDC"/>
<rect x="12" y="25" width="8" height="2" rx="1" fill="#0053FF"/>
<circle cx="11.5" cy="12.2777" r="1.05556" fill="#FF1741"/>
<circle cx="13.6112" cy="12.2777" r="1.05556" fill="#FFC900"/>
<circle cx="15.7222" cy="12.2777" r="1.05556" fill="#1ABD6F"/>
<path d="M16.7778 18C16.7778 17.4477 17.2255 17 17.7778 17H34.0555C34.6078 17 35.0555 17.4477 35.0555 18V18C35.0555 18.5523 34.6078 19 34.0555 19H17.7778C17.2255 19 16.7778 18.5523 16.7778 18V18Z" fill="#DCDCDC"/>
<rect x="10.4444" y="17" width="5.27778" height="2" rx="1" fill="#DCDCDC"/>
<path fill-rule="evenodd" clip-rule="evenodd" d="M41.2332 22.7791C40.4593 22.6716 39.7333 23.0725 39.3078 23.7278L35.6792 29.3153C35.3665 29.7968 35.344 30.4111 35.6205 30.9142L38.5557 36.2543L44.628 36.7637C45.2 36.8117 45.7521 36.5412 46.0647 36.0598L49.6933 30.4722C50.1188 29.817 50.1898 28.9907 49.7768 28.3274C49.1363 27.2986 47.9595 25.7458 46.1452 24.5675C44.3308 23.3893 42.4336 22.9458 41.2332 22.7791ZM42.6113 25.7797C41.9717 25.4695 41.2013 25.6841 40.8142 26.2802C40.3902 26.933 40.5758 27.8059 41.2286 28.2298L44.7991 30.5486C45.452 30.9725 46.3248 30.787 46.7488 30.1342C47.1359 29.5381 47.0185 28.747 46.475 28.2889L45.3017 27.3C44.9021 26.9632 44.4621 26.6775 43.9919 26.4494L42.6113 25.7797Z" fill="#FFC900"/>
<mask id="mask0_13407_652" style="mask-type:alpha" maskUnits="userSpaceOnUse" x="28" y="32" width="15" height="17">
<path d="M38.1389 32.0243L42.5898 34.9148L39.3311 39.9327C39.2602 40.0419 39.1394 40.1085 39.0092 40.11L36.6128 40.1389C36.3349 40.1423 36.1498 40.4272 36.2598 40.6825L37.0594 42.5383C37.1694 42.7935 36.9843 43.0785 36.7064 43.0819L34.6858 43.1062C34.4079 43.1095 34.2228 43.3945 34.3328 43.6497L35.2811 45.8507C35.3327 45.9703 35.321 46.1077 35.2501 46.2169L33.9184 48.2676L29.9861 48.5336C29.6918 48.5535 29.4114 48.4054 29.262 48.151L28.7478 47.2758C28.5983 47.0215 28.6054 46.7045 28.7661 46.457L38.1389 32.0243Z" fill="#FFC900"/>
</mask>
<g mask="url(#mask0_13407_652)">
<path d="M38.1389 32.0243L42.5898 34.9148L32.4731 50.4931L29.5058 48.5661L28.5039 46.8608L38.1389 32.0243Z" fill="#FFC900"/>
</g>
</svg>
