<svg width="50" height="50" viewBox="0 0 50 50" fill="none" xmlns="http://www.w3.org/2000/svg">
<g clip-path="url(#clip0_12731_664)">
<path d="M4.16663 9.0875C4.16663 7.38232 5.54895 6 7.25413 6H42.2458C43.951 6 45.3333 7.38232 45.3333 9.0875V31.3861C45.3333 32.5229 44.4117 33.4444 43.275 33.4444H6.22496C5.08818 33.4444 4.16663 32.5229 4.16663 31.3861V9.0875Z" fill="#1D2129"/>
<path d="M7.33337 11.2513C7.33337 10.6829 7.79415 10.2222 8.36254 10.2222H41.1375C41.7059 10.2222 42.1667 10.6829 42.1667 11.2513V29.2486C42.1667 29.817 41.7059 30.2777 41.1375 30.2777H8.36254C7.79415 30.2777 7.33337 29.817 7.33337 29.2486V11.2513Z" fill="white"/>
<path d="M4.16667 31.3334H45.3333L47.8606 41.4425C48.1854 42.7416 47.2028 44 45.8637 44H3.63627C2.29717 44 1.31461 42.7416 1.63939 41.4425L4.16667 31.3334Z" fill="#C4C4C4"/>
<path d="M6.11232 34.2718C6.20853 33.7907 6.63092 33.4445 7.1215 33.4445H42.3785C42.8691 33.4445 43.2915 33.7907 43.3877 34.2718L44.0316 37.4912C44.1589 38.1281 43.6719 38.7222 43.0224 38.7222H6.47761C5.82816 38.7222 5.34106 38.1281 5.46843 37.4912L6.11232 34.2718Z" fill="#868686"/>
<path d="M20 42.9181C20 42.3497 20.4608 41.8889 21.0292 41.8889H24.75H28.4708C29.0392 41.8889 29.5 42.3497 29.5 42.9181V44H20V42.9181Z" fill="#868686"/>
<path d="M7.33337 10.1958C7.33337 9.6274 7.79415 9.16663 8.36254 9.16663H41.1375C41.7059 9.16663 42.1667 9.6274 42.1667 10.1958V13.3888H27.3889V11.2513C27.3889 10.683 26.9282 10.2222 26.3598 10.2222H18.9181C18.3497 10.2222 17.8889 10.683 17.8889 11.2513V13.3888H7.33337V10.1958Z" fill="#E7E7E7"/>
<rect x="20" y="11.2778" width="5.27778" height="2.11111" rx="1.02917" fill="#DCDCDC"/>
<rect x="11.5556" y="19.7222" width="8.44444" height="2.11111" rx="1.05556" fill="#DCDCDC"/>
<rect x="24.2222" y="19.7222" width="5.27778" height="2.11111" rx="1.05556" fill="#DCDCDC"/>
<rect x="24.2222" y="22.8889" width="10.5556" height="2.11111" rx="1.05556" fill="#DCDCDC"/>
<rect x="11.5556" y="22.8889" width="8.44444" height="2.11111" rx="1.05556" fill="#DCDCDC"/>
<rect x="11.5556" y="26.0555" width="8.44444" height="2.11111" rx="1.05556" fill="#0053FF"/>
<circle cx="10.5" cy="11.2777" r="1.05556" fill="#FF1741"/>
<circle cx="12.6112" cy="11.2777" r="1.05556" fill="#FFC900"/>
<circle cx="14.7222" cy="11.2777" r="1.05556" fill="#1ABD6F"/>
<path d="M28.4444 11.2513C28.4444 10.6829 28.9052 10.2222 29.4736 10.2222H34.8041C35.3725 10.2222 35.8333 10.6829 35.8333 11.2513V13.3888H28.4444V11.2513Z" fill="#C4C4C4"/>
<rect x="15.7778" y="14.4445" width="24.2778" height="2.11111" rx="1.05556" fill="#DCDCDC"/>
<rect x="9.4444" y="14.4445" width="5.27778" height="2.11111" rx="1.05556" fill="#DCDCDC"/>
<path d="M48 37C48 31.4772 43.5228 27 38 27C32.4772 27 28 31.4772 28 37C28 42.5228 32.4772 47 38 47C43.5228 47 48 42.5228 48 37Z" fill="#0053FF"/>
<path d="M34 37H42" stroke="white" stroke-width="2" stroke-linecap="round"/>
<path d="M38 33V41" stroke="white" stroke-width="2" stroke-linecap="round"/>
</g>
<defs>
<clipPath id="clip0_12731_664">
<rect width="50" height="50" fill="white"/>
</clipPath>
</defs>
</svg>
