<svg width="51" height="50" viewBox="0 0 51 50" fill="none" xmlns="http://www.w3.org/2000/svg">
<path d="M5.16663 10.0875C5.16663 8.38232 6.54895 7 8.25413 7H37.2458C38.951 7 40.3333 8.38232 40.3333 10.0875V30.3861C40.3333 31.5229 39.4117 32.4444 38.275 32.4444H7.22496C6.08818 32.4444 5.16663 31.5229 5.16663 30.3861V10.0875Z" fill="#1D2129"/>
<path d="M8.33337 12.2513C8.33337 11.6829 8.79415 11.2222 9.36254 11.2222H36.1375C36.7059 11.2222 37.1667 11.6829 37.1667 12.2513V28.2486C37.1667 28.8169 36.7059 29.2777 36.1375 29.2777H9.36254C8.79415 29.2777 8.33337 28.817 8.33337 28.2486V12.2513Z" fill="white"/>
<path d="M5.16667 30.3334H40.3333L42.8606 40.4425C43.1854 41.7416 42.2028 43 40.8637 43H4.63626C3.29717 43 2.31461 41.7416 2.63939 40.4425L5.16667 30.3334Z" fill="#C4C4C4"/>
<path d="M7.11232 33.2718C7.20853 32.7907 7.63092 32.4445 8.1215 32.4445H37.3785C37.8691 32.4445 38.2915 32.7907 38.3877 33.2718L39.0316 36.4912C39.159 37.1281 38.6719 37.7222 38.0224 37.7222H7.47761C6.82816 37.7222 6.34106 37.1281 6.46843 36.4912L7.11232 33.2718Z" fill="#868686"/>
<path d="M21 41.9181C21 41.3497 21.4608 40.8889 22.0292 40.8889H25.75H26.4708C27.0392 40.8889 27.5 41.3497 27.5 41.9181V43H21V41.9181Z" fill="#868686"/>
<path d="M8.33337 11.1958C8.33337 10.6274 8.79415 10.1666 9.36254 10.1666H36.1375C36.7059 10.1666 37.1667 10.6274 37.1667 11.1958V14.3888H28.3889V12.2513C28.3889 11.683 27.9282 11.2222 27.3598 11.2222H19.9181C19.3497 11.2222 18.8889 11.683 18.8889 12.2513V14.3888H8.33337V11.1958Z" fill="#E7E7E7"/>
<rect x="12" y="22" width="8" height="2" rx="1" fill="#DCDCDC"/>
<rect x="12" y="25" width="8" height="2" rx="1" fill="#0053FF"/>
<circle cx="11.5" cy="12.2777" r="1.05556" fill="#FF1741"/>
<circle cx="13.6112" cy="12.2777" r="1.05556" fill="#FFAA00"/>
<circle cx="15.7222" cy="12.2777" r="1.05556" fill="#1ABD6F"/>
<path d="M16.7778 18C16.7778 17.4477 17.2255 17 17.7778 17H34.0555C34.6078 17 35.0555 17.4477 35.0555 18C35.0555 18.5523 34.6078 19 34.0555 19H17.7778C17.2255 19 16.7778 18.5523 16.7778 18Z" fill="#DCDCDC"/>
<rect x="10.4444" y="17" width="5.27778" height="2" rx="1" fill="#DCDCDC"/>
<path d="M46.1449 24.5674C47.9593 25.7456 49.136 27.2989 49.7765 28.3277C50.1894 28.9909 50.1192 29.8172 49.6938 30.4724L46.0653 36.0597C45.7527 36.5411 45.1999 36.8114 44.6279 36.7634L38.5556 36.2539L35.6204 30.9139C35.344 30.4109 35.3668 29.7964 35.6794 29.315L39.3078 23.7277C39.7333 23.0727 40.459 22.672 41.2326 22.7792C42.433 22.946 44.3307 23.3893 46.1449 24.5674ZM45.3019 27.3001C44.9024 26.9634 44.4623 26.6776 43.9923 26.4496L42.6109 25.7796C41.9714 25.4696 41.2011 25.6841 40.814 26.2801C40.3901 26.9328 40.5758 27.8054 41.2283 28.2294L44.7993 30.5484C45.4521 30.9724 46.3246 30.7869 46.7486 30.1341C47.1357 29.538 47.0185 28.747 46.475 28.289L45.3019 27.3001Z" fill="#FFAA00"/>
<mask id="mask0_13407_652" style="mask-type:alpha" maskUnits="userSpaceOnUse" x="28" y="32" width="15" height="17">
<path d="M38.1389 32.0243L42.5898 34.9148L39.3311 39.9327C39.2602 40.0419 39.1394 40.1085 39.0092 40.11L36.6128 40.1389C36.3349 40.1423 36.1498 40.4272 36.2598 40.6825L37.0594 42.5383C37.1694 42.7935 36.9843 43.0785 36.7064 43.0819L34.6858 43.1062C34.4079 43.1095 34.2228 43.3945 34.3328 43.6497L35.2811 45.8507C35.3327 45.9703 35.321 46.1077 35.2501 46.2169L33.9184 48.2676L29.9861 48.5336C29.6918 48.5535 29.4114 48.4054 29.262 48.151L28.7478 47.2758C28.5983 47.0215 28.6054 46.7045 28.7661 46.457L38.1389 32.0243Z" fill="#FFAA00"/>
</mask>
<g mask="url(#mask0_13407_652)">
<path d="M38.1389 32.0243L42.5898 34.9148L32.4731 50.4931L29.5058 48.5661L28.5039 46.8608L38.1389 32.0243Z" fill="#FFAA00"/>
</g>
</svg>
