<svg width="50" height="50" viewBox="0 0 50 50" fill="none" xmlns="http://www.w3.org/2000/svg">
<path d="M9 13C9 11.3431 10.3431 10 12 10H37C38.6569 10 40 11.3431 40 13V29C40 30.1046 39.1046 31 38 31H11C9.89543 31 9 30.1046 9 29V13Z" fill="#000716"/>
<path d="M12 14C12 13.4477 12.4477 13 13 13H36C36.5523 13 37 13.4477 37 14V27C37 27.5523 36.5523 28 36 28H13C12.4477 28 12 27.5523 12 27V14Z" fill="white"/>
<path d="M9 30H40L42.3787 39.5149C42.6943 40.7772 41.7396 42 40.4384 42H8.56155C7.26041 42 6.30569 40.7772 6.62127 39.5149L9 30Z" fill="#C4C4C4"/>
<path d="M10.8392 32.8039C10.9327 32.3365 11.3431 32 11.8198 32H37.1802C37.6569 32 38.0673 32.3365 38.1608 32.8039L38.7608 35.8039C38.8845 36.4227 38.4112 37 37.7802 37H11.2198C10.5888 37 10.1155 36.4227 10.2392 35.8039L10.8392 32.8039Z" fill="#868686"/>
<path d="M20 41C20 40.4477 20.4477 40 21 40H24.5H28C28.5523 40 29 40.4477 29 41V42H20V41Z" fill="#868686"/>
<path d="M12 13H37V18H25V16C25 15.4477 24.5523 15 24 15H15C14.4477 15 14 15.4477 14 16V18H12V13Z" fill="#E7E7E7"/>
<rect x="33" y="14" width="3" height="3" rx="0.5" fill="#868686"/>
<rect x="16" y="16" width="7" height="2" rx="1" fill="#DCDCDC"/>
</svg>
