<svg width="50" height="50" viewBox="0 0 50 50" fill="none" xmlns="http://www.w3.org/2000/svg">
<path fill-rule="evenodd" clip-rule="evenodd" d="M14 9.5C12.3431 9.5 11 10.8431 11 12.5V40.5C11 42.1569 12.3431 43.5 14 43.5H37C38.6569 43.5 40 42.1569 40 40.5V12.5C40 10.8431 38.6569 9.5 37 9.5H14Z" fill="white" stroke="#0053FF" stroke-width="4"/>
<path fill-rule="evenodd" clip-rule="evenodd" d="M23 6H28C28.5523 6 29 6.44772 29 7V11.3346C29 11.8868 28.5523 12.3345 28 12.3345C27.846 12.3345 27.6941 12.2989 27.5561 12.2306C26.5731 11.7435 25.8877 11.5 25.5 11.5C25.1123 11.5 24.4269 11.7435 23.444 12.2306C22.9491 12.4758 22.3492 12.2733 22.104 11.7785C22.0356 11.6405 22 11.4885 22 11.3345V7C22 6.44772 22.4477 6 23 6Z" fill="#DCDCDC"/>
<path d="M34 6.5H17C15.8954 6.5 15 7.39543 15 8.5V11.5C15 12.6046 15.8954 13.5 17 13.5H34C35.1046 13.5 36 12.6046 36 11.5V8.5C36 7.39543 35.1046 6.5 34 6.5Z" fill="#CCCCCC"/>
<path d="M25.5 9.5C27.1569 9.5 28.5 8.15685 28.5 6.5C28.5 4.84315 27.1569 3.5 25.5 3.5C23.8431 3.5 22.5 4.84315 22.5 6.5C22.5 8.15685 23.8431 9.5 25.5 9.5Z" fill="white" stroke="#CCCCCC" stroke-width="2"/>
<path d="M33.5 18.5H17.5C16.6716 18.5 16 19.1716 16 20C16 20.8284 16.6716 21.5 17.5 21.5H33.5C34.3284 21.5 35 20.8284 35 20C35 19.1716 34.3284 18.5 33.5 18.5Z" fill="#CCCCCC"/>
<path d="M33.5 23.5H17.5C16.6716 23.5 16 24.1716 16 25C16 25.8284 16.6716 26.5 17.5 26.5H33.5C34.3284 26.5 35 25.8284 35 25C35 24.1716 34.3284 23.5 33.5 23.5Z" fill="#CCCCCC"/>
<path d="M22.5 28.5H17.5C16.6716 28.5 16 29.1716 16 30C16 30.8284 16.6716 31.5 17.5 31.5H22.5C23.3284 31.5 24 30.8284 24 30C24 29.1716 23.3284 28.5 22.5 28.5Z" fill="#CCCCCC"/>
</svg>
