<svg width="50" height="50" viewBox="0 0 50 50" fill="none" xmlns="http://www.w3.org/2000/svg">
<path d="M35 29.1765V16.8235C35 11.9504 30.5228 8 25 8C19.4772 8 15 11.9504 15 16.8235V29.1765" stroke="#000716" stroke-width="4"/>
<path fill-rule="evenodd" clip-rule="evenodd" d="M36.25 20.7796C38.3211 20.7796 40 22.4212 40 24.4463V39.1129C40 41.138 38.3211 42.7796 36.25 42.7796H13.75C11.6789 42.7796 10 41.138 10 39.1129V24.4463C10 22.4212 11.6789 20.7796 13.75 20.7796H36.25Z" fill="#0053FF"/>
<path d="M21.25 30.863C21.25 28.8379 22.9289 27.1963 25 27.1963C27.0711 27.1963 28.75 28.8379 28.75 30.863C28.75 32.2193 27.9968 33.4037 26.877 34.0379L26.875 35.4463C26.875 36.4588 26.0355 37.2796 25 37.2796C23.9645 37.2796 23.125 36.4588 23.125 35.4463L23.1249 34.039C22.0041 33.405 21.25 32.2201 21.25 30.863Z" fill="#002573"/>
<circle cx="25" cy="31" r="4" fill="#002573"/>
<rect x="23" y="32" width="4" height="6" rx="2" fill="#002573"/>
</svg>
