<svg width="50" height="50" viewBox="0 0 50 50" fill="none" xmlns="http://www.w3.org/2000/svg">
<g clip-path="url(#clip0_9591_1842)">
<path d="M31.5 25.6765V13.3235C31.5 8.45043 27.0228 4.5 21.5 4.5C15.9772 4.5 11.5 8.45043 11.5 13.3235V25.6765" stroke="#1D2129" stroke-width="4"/>
<path fill-rule="evenodd" clip-rule="evenodd" d="M32.75 17.2796C34.8211 17.2796 36.5 18.9212 36.5 20.9463V35.6129C36.5 37.638 34.8211 39.2796 32.75 39.2796H10.25C8.17893 39.2796 6.5 37.638 6.5 35.6129V20.9463C6.5 18.9212 8.17893 17.2796 10.25 17.2796H32.75Z" fill="#0053FF"/>
<path d="M17.75 27.363C17.75 25.3379 19.4289 23.6963 21.5 23.6963C23.5711 23.6963 25.25 25.3379 25.25 27.363C25.25 28.7193 24.4968 29.9037 23.377 30.5379L23.375 31.9463C23.375 32.9588 22.5355 33.7796 21.5 33.7796C20.4645 33.7796 19.625 32.9588 19.625 31.9463L19.6249 30.539C18.5041 29.905 17.75 28.7201 17.75 27.363Z" fill="#002573"/>
<circle cx="21.5" cy="27.5" r="4" fill="#002573"/>
<rect x="19.5" y="28.5" width="4" height="6" rx="2" fill="#002573"/>
<path d="M42.1449 24.5674C43.9593 25.7456 45.136 27.2989 45.7765 28.3277C46.1894 28.9909 46.1192 29.8172 45.6938 30.4724L42.0653 36.0597C41.7527 36.5411 41.1999 36.8114 40.6279 36.7634L34.5556 36.2539L31.6204 30.9139C31.344 30.4109 31.3668 29.7964 31.6794 29.315L35.3078 23.7277C35.7333 23.0727 36.459 22.672 37.2326 22.7792C38.433 22.946 40.3307 23.3893 42.1449 24.5674ZM41.3019 27.3001C40.9024 26.9634 40.4623 26.6776 39.9923 26.4496L38.6109 25.7796C37.9714 25.4696 37.2011 25.6841 36.814 26.2801C36.3901 26.9328 36.5758 27.8054 37.2283 28.2294L40.7993 30.5484C41.4521 30.9724 42.3246 30.7869 42.7486 30.1341C43.1357 29.538 43.0185 28.747 42.475 28.289L41.3019 27.3001Z" fill="#FFAA00"/>
<mask id="mask0_9591_1842" style="mask-type:alpha" maskUnits="userSpaceOnUse" x="24" y="32" width="15" height="17">
<path d="M34.1389 32.0243L38.5898 34.9148L35.3311 39.9327C35.2602 40.0419 35.1394 40.1085 35.0092 40.11L32.6128 40.1389C32.3349 40.1423 32.1498 40.4272 32.2598 40.6825L33.0594 42.5383C33.1694 42.7935 32.9843 43.0785 32.7064 43.0819L30.6858 43.1062C30.4079 43.1095 30.2228 43.3945 30.3328 43.6497L31.2811 45.8507C31.3327 45.9703 31.321 46.1077 31.2501 46.2169L29.9184 48.2676L25.9861 48.5336C25.6918 48.5535 25.4114 48.4054 25.262 48.151L24.7478 47.2758C24.5983 47.0215 24.6054 46.7045 24.7661 46.457L34.1389 32.0243Z" fill="#FFAA00"/>
</mask>
<g mask="url(#mask0_9591_1842)">
<path d="M34.1389 32.0243L38.5898 34.9148L28.4731 50.4931L25.5058 48.5661L24.5039 46.8608L34.1389 32.0243Z" fill="#FFAA00"/>
</g>
</g>
<defs>
<clipPath id="clip0_9591_1842">
<rect width="50" height="50" fill="white"/>
</clipPath>
</defs>
</svg>
