<svg width="50" height="50" viewBox="0 0 50 50" fill="none" xmlns="http://www.w3.org/2000/svg">
<path d="M13.9992 15.7625H36.2171C36.8706 32.7526 26.4151 37.3269 26.4151 37.3269C17.2665 37.9803 15.3061 36.02 15.3061 36.02C28.3755 32.0991 14.6527 34.0595 14.6527 34.0595L10.7319 28.8318C17.92 26.8714 13.9992 15.7625 13.9992 15.7625Z" fill="#1D2129"/>
<mask id="mask0_11241_1478" style="mask-type:alpha" maskUnits="userSpaceOnUse" x="10" y="31" width="30" height="15">
<path fill-rule="evenodd" clip-rule="evenodd" d="M39.8767 44.0548C35.7093 44.9056 30.9741 45.1685 26.4151 45.1685C20.7379 45.1685 14.7874 44.7608 10.0005 43.3177C9.99942 42.8565 10.0001 42.3981 10.0022 41.9434C10.0229 37.2752 13.1686 33.1291 17.7579 32.2746C20.2304 31.8143 22.8997 31.4457 25.1082 31.4457C27.3167 31.4457 29.9859 31.8143 32.4585 32.2746C37.0478 33.1291 40.1983 37.2781 39.9903 41.9416C39.9592 42.6385 39.9217 43.3439 39.8767 44.0548Z" fill="#002573"/>
</mask>
<g mask="url(#mask0_11241_1478)">
<path d="M10.0022 41.9434C10.0229 37.2752 13.1686 33.1291 17.7579 32.2746C20.2304 31.8143 22.8997 31.4457 25.1082 31.4457C27.3167 31.4457 29.9859 31.8143 32.4585 32.2746C37.0478 33.1291 40.1983 37.2781 39.9903 41.9416C39.4148 54.841 36.6593 70.6537 23.8012 70.6537C10.9438 70.6537 9.94476 54.8424 10.0022 41.9434Z" fill="#0053FF"/>
<path d="M21.1874 31.4457H29.029V31.4457C29.029 32.9819 27.9866 34.3472 26.4685 34.5817C25.9691 34.6588 25.4845 34.713 25.1082 34.713C24.7319 34.713 24.2473 34.6588 23.7479 34.5817C22.2297 34.3472 21.1874 32.9819 21.1874 31.4457V31.4457Z" fill="#F0F5FF"/>
</g>
<circle cx="25.1082" cy="15.109" r="11.109" fill="#1D2129"/>
<path d="M15.3062 16.416C15.3062 11.0025 19.6947 6.61401 25.1082 6.61401V6.61401C30.5217 6.61401 34.9102 11.0025 34.9102 16.416V20.3368C34.9102 25.7503 30.5217 30.1389 25.1082 30.1389V30.1389C19.6947 30.1389 15.3062 25.7503 15.3062 20.3368V16.416Z" fill="#F0F5FF"/>
<path d="M23.1478 22.2971H27.0686V31.4457C27.0686 32.5284 26.1909 33.4061 25.1082 33.4061V33.4061C24.0255 33.4061 23.1478 32.5284 23.1478 31.4457V22.2971Z" fill="#F0F5FF"/>
<path d="M34.9102 13.1485C27.0686 13.1485 24.4547 25.5644 11.3853 23.604C15.3062 17.7228 12.0388 12.495 17.2666 7.26729L18.5735 6.61382L25.1082 5.30688L32.9498 7.92076L34.9102 13.1485Z" fill="#1D2129"/>
</svg>
