<svg width="50" height="50" viewBox="0 0 50 50" fill="none" xmlns="http://www.w3.org/2000/svg">
<mask id="mask0_11241_1498" style="mask-type:alpha" maskUnits="userSpaceOnUse" x="10" y="31" width="30" height="15">
<path fill-rule="evenodd" clip-rule="evenodd" d="M39.8767 43.9716C35.7093 44.8224 30.9741 45.0853 26.4151 45.0853C20.7379 45.0853 14.7874 44.6776 10.0005 43.2345C9.99942 42.7733 10.0001 42.315 10.0022 41.8602C10.0229 37.1921 13.1686 33.046 17.7579 32.1915C20.2304 31.7311 22.8997 31.3625 25.1082 31.3625C27.3167 31.3625 29.9859 31.7311 32.4585 32.1915C37.0478 33.046 40.1983 37.195 39.9903 41.8585C39.9592 42.5553 39.9217 43.2607 39.8767 43.9716Z" fill="#002573"/>
</mask>
<g mask="url(#mask0_11241_1498)">
<path d="M10.0022 41.8602C10.0229 37.1921 13.1686 33.046 17.7579 32.1915C20.2304 31.7311 22.8997 31.3625 25.1082 31.3625C27.3167 31.3625 29.9859 31.7311 32.4585 32.1915C37.0478 33.046 40.1983 37.195 39.9903 41.8585C39.4148 54.7579 36.6593 70.5706 23.8012 70.5706C10.9438 70.5706 9.94476 54.7593 10.0022 41.8602Z" fill="#0053FF"/>
</g>
<path d="M12.1592 15.7291C12.1592 10.7622 15.8819 6.55637 20.8053 5.89991V5.89991C27.6614 4.98574 33.3944 11.1931 31.8391 17.9329V17.9329C31.0022 21.5596 28.164 24.4203 24.5531 25.3231V25.3231C18.2984 26.8867 12.1592 22.1762 12.1592 15.7291V15.7291Z" fill="#1D2129"/>
<path d="M15.212 14.6844C15.212 8.78357 19.9955 4 25.8964 4H27.7818C32.6414 4 36.5808 7.93941 36.5808 12.7989V18.2459C36.5808 22.1797 33.3917 25.3688 29.4578 25.3688H25.8964C19.9955 25.3688 15.212 20.5852 15.212 14.6844V14.6844Z" fill="#1D2129"/>
<path d="M21.5037 25.3689H27.609V31.4743C27.609 33.1602 26.2423 34.5269 24.5563 34.5269V34.5269C22.8704 34.5269 21.5037 33.1602 21.5037 31.4743V25.3689Z" fill="#F0F5FF"/>
<path d="M15.3984 19.2636C15.3984 14.2058 19.4986 10.1056 24.5564 10.1056V10.1056C29.6143 10.1056 33.7145 14.2058 33.7145 19.2636V22.3163C33.7145 27.3742 29.6143 31.4744 24.5564 31.4744V31.4744C19.4986 31.4744 15.3984 27.3742 15.3984 22.3163V19.2636Z" fill="#F0F5FF"/>
<path d="M16.7383 13.1581C18.2647 20.7898 33.9643 18.1732 36.1448 15.9927L28.9491 7.05273H22.8437L16.7383 13.1581Z" fill="#1D2129"/>
</svg>
