<svg width="50" height="50" viewBox="0 0 50 50" fill="none" xmlns="http://www.w3.org/2000/svg">
<path d="M4 14C4 12.3431 5.34315 11 7 11H43C44.6569 11 46 12.3431 46 14V36C46 37.6569 44.6569 39 43 39H7C5.34315 39 4 37.6569 4 36V14Z" fill="#DCDCDC"/>
<path d="M4 14C4 12.3431 5.34315 11 7 11H43C44.6569 11 46 12.3431 46 14V16H4V14Z" fill="#002573"/>
<rect x="25" y="21" width="13" height="3" rx="1.5" fill="#868686"/>
<rect x="25" y="26" width="9" height="3" rx="1.5" fill="#868686"/>
<rect x="25" y="31" width="9" height="3" rx="1.5" fill="#868686"/>
<path d="M9.27119 24.056H18.8217C19.1026 31.3594 14.6082 33.3257 14.6082 33.3257C10.6757 33.6066 9.83298 32.7639 9.83298 32.7639C15.4509 31.0785 9.55209 31.9212 9.55209 31.9212L7.8667 29.674C10.9566 28.8313 9.27119 24.056 9.27119 24.056Z" fill="#000716"/>
<mask id="mask0_13457_616" style="mask-type:alpha" maskUnits="userSpaceOnUse" x="7" y="29" width="14" height="6">
<path fill-rule="evenodd" clip-rule="evenodd" d="M20.4036 34.3793C18.4689 34.8584 16.1806 34.9999 13.9872 34.9999C11.7871 34.9999 9.49142 34.8575 7.55293 34.3749C7.55175 34.119 7.55193 33.865 7.55305 33.6136C7.56198 31.607 8.91417 29.8247 10.8869 29.4574C11.9497 29.2595 13.0971 29.1011 14.0465 29.1011C14.9958 29.1011 16.1432 29.2595 17.2061 29.4574C19.1788 29.8247 20.5331 31.6082 20.4437 33.6128C20.4324 33.866 20.4191 34.1217 20.4036 34.3793Z" fill="#002573"/>
</mask>
<g mask="url(#mask0_13457_616)">
<path d="M7.55305 35.3102C7.56198 33.3036 8.91417 31.5214 10.8869 31.1541C11.9497 30.9562 13.0971 30.7977 14.0465 30.7977C14.9958 30.7977 16.1432 30.9562 17.2061 31.1541C19.1788 31.5214 20.5331 33.3048 20.4437 35.3095C20.1963 40.8544 19.0118 47.6516 13.4847 47.6516C7.95781 47.6516 7.52838 40.855 7.55305 35.3102Z" fill="#0053FF"/>
<path d="M12.3611 30.7977H15.7319V30.7977C15.7319 31.4581 15.2838 32.045 14.6312 32.1458C14.4165 32.1789 14.2082 32.2022 14.0465 32.2022C13.8847 32.2022 13.6764 32.1789 13.4617 32.1458C12.8091 32.045 12.3611 31.4581 12.3611 30.7977V30.7977Z" fill="#FECDA9"/>
</g>
<circle cx="14.0464" cy="23.7753" r="4.77526" fill="#000716"/>
<path d="M9.83301 24.337C9.83301 22.01 11.7194 20.1235 14.0465 20.1235V20.1235C16.3735 20.1235 18.2599 22.01 18.2599 24.337V26.0224C18.2599 28.3494 16.3735 30.2359 14.0465 30.2359V30.2359C11.7194 30.2359 9.83301 28.3494 9.83301 26.0224V24.337Z" fill="#FECDA9"/>
<path d="M13.2039 26.8651H14.8892V30.7977C14.8892 31.2631 14.512 31.6404 14.0466 31.6404V31.6404C13.5811 31.6404 13.2039 31.2631 13.2039 30.7977V26.8651Z" fill="#FECDA9"/>
<path d="M18.2599 22.9325C14.8891 22.9325 13.7655 28.2696 8.14758 27.4269C9.83297 24.8988 8.42848 22.6516 10.6757 20.4045L11.2375 20.1236L14.0464 19.5618L17.4172 20.6854L18.2599 22.9325Z" fill="#000716"/>
<rect x="28" y="28" width="19" height="19" rx="9.5" fill="#0053FF"/>
<path d="M34 37L37 41L42 34" stroke="white" stroke-width="2" stroke-linecap="round" stroke-linejoin="round"/>
</svg>
