<svg width="50" height="50" viewBox="0 0 50 50" fill="none" xmlns="http://www.w3.org/2000/svg">
<g clip-path="url(#clip0_14101_679)">
<path fill-rule="evenodd" clip-rule="evenodd" d="M14 9.5C12.3431 9.5 11 10.8431 11 12.5V40.5C11 42.1569 12.3431 43.5 14 43.5H37C38.6569 43.5 40 42.1569 40 40.5V12.5C40 10.8431 38.6569 9.5 37 9.5H31.25L25.5 11L19.75 9.5H14Z" fill="white" stroke="#0053FF" stroke-width="4"/>
<path d="M25.5 9.5C27.1569 9.5 28.5 8.15685 28.5 6.5C28.5 4.84315 27.1569 3.5 25.5 3.5C23.8431 3.5 22.5 4.84315 22.5 6.5C22.5 8.15685 23.8431 9.5 25.5 9.5Z" stroke="#CCCCCC" stroke-width="2"/>
<path fill-rule="evenodd" clip-rule="evenodd" d="M28.5 6.5C28.5 8.15685 27.1569 9.5 25.5 9.5C23.8431 9.5 22.5 8.15685 22.5 6.5H17C15.8954 6.5 15 7.39543 15 8.5V11.5C15 12.6046 15.8954 13.5 17 13.5H34C35.1046 13.5 36 12.6046 36 11.5V8.5C36 7.39543 35.1046 6.5 34 6.5H28.5Z" fill="#CCCCCC"/>
<path d="M33.5 18.5H17.5C16.6716 18.5 16 19.1716 16 20C16 20.8284 16.6716 21.5 17.5 21.5H33.5C34.3284 21.5 35 20.8284 35 20C35 19.1716 34.3284 18.5 33.5 18.5Z" fill="#CCCCCC"/>
<path d="M33.5 23.5H17.5C16.6716 23.5 16 24.1716 16 25C16 25.8284 16.6716 26.5 17.5 26.5H33.5C34.3284 26.5 35 25.8284 35 25C35 24.1716 34.3284 23.5 33.5 23.5Z" fill="#CCCCCC"/>
<path d="M22.5 28.5H17.5C16.6716 28.5 16 29.1716 16 30C16 30.8284 16.6716 31.5 17.5 31.5H22.5C23.3284 31.5 24 30.8284 24 30C24 29.1716 23.3284 28.5 22.5 28.5Z" fill="#CCCCCC"/>
<rect x="31" y="31" width="19" height="19" rx="9.5" fill="#FF1741"/>
<path d="M43.682 37.318L37.318 43.6819" stroke="white" stroke-width="2" stroke-linecap="round"/>
<path d="M37.318 37.3181L43.6819 43.682" stroke="white" stroke-width="2" stroke-linecap="round"/>
</g>
<defs>
<clipPath id="clip0_14101_679">
<rect width="50" height="50" fill="white"/>
</clipPath>
</defs>
</svg>
