<svg width="50" height="50" viewBox="0 0 50 50" fill="none" xmlns="http://www.w3.org/2000/svg">
<mask id="mask0_11876_1590" style="mask-type:alpha" maskUnits="userSpaceOnUse" x="8" y="8" width="35" height="34">
<circle cx="25.5" cy="25" r="16.72" fill="#0053FF"/>
</mask>
<g mask="url(#mask0_11876_1590)">
<circle cx="25.5" cy="25" r="16.72" fill="#634200"/>
<path d="M11.6686 19.9347L12.4192 12.8035C12.5007 12.0291 12.0933 11.2854 11.3969 10.9372C10.7814 10.6294 10.0465 10.685 9.48428 11.0819L5.63206 13.8011C2.89169 15.7355 1.3383 18.9414 1.5181 22.2909C1.87885 29.0115 2.30698 37.0722 2.30698 37.4051C2.30698 37.6557 7.21916 39.7984 11.3376 41.5509C13.9674 42.6699 16.8696 40.7323 16.8696 37.8743C16.8696 36.5662 16.2313 35.3403 15.1596 34.5901L11.4777 32.0127C8.57418 29.9803 8.0296 25.8995 10.2985 23.1768C11.0662 22.2556 11.543 21.1272 11.6686 19.9347Z" fill="#FFAA00"/>
<path d="M26.4869 6.2119L27.0242 6.31937C28.1405 6.54262 29.2979 6.42801 30.3487 5.99018C33.0962 4.84541 36.2625 5.997 37.6326 8.63933L41.9766 17.0171C42.4973 18.0213 42.9112 19.0771 43.2024 20.1702C43.7419 22.1957 44.378 24.6686 44.378 24.9999C44.378 25.3529 43.1746 26.6927 42.2447 27.6606C41.8757 28.0446 41.4316 28.347 40.9449 28.5633L38.7833 29.524C37.715 29.9988 36.4661 29.4912 36.0319 28.4058L35.5538 27.2105C35.1661 26.2413 33.8674 26.0696 33.241 26.9046C33.1164 27.0708 32.9548 27.2057 32.769 27.2986L32.529 27.4186C31.5572 27.9045 31.016 28.9674 31.1946 30.039L31.3791 31.1461C31.4153 31.3631 31.4335 31.5828 31.4335 31.8028V34.9269C31.4335 35.4944 31.3182 36.056 31.0946 36.5776C30.3416 38.3346 28.495 39.3594 26.6057 39.0687L25.8035 38.9453C24.0083 38.6691 22.5858 37.2848 22.2608 35.4977L22.1656 34.9741C21.9013 33.5204 20.7531 32.3889 19.2957 32.146L18.7017 32.047C16.8908 31.7452 15.7779 29.8968 16.3585 28.1552C16.6781 27.1963 17.4608 26.4641 18.4387 26.209L28.5154 23.5803C29.0135 23.4504 29.4679 23.19 29.8318 22.826L30.3877 22.2702C31.4576 21.2003 31.2173 19.4058 29.9035 18.6551C29.1829 18.2433 28.296 18.2527 27.5843 18.6798L26.6095 19.2646C26.2407 19.4859 25.9577 19.8256 25.8067 20.2283L25.3318 21.4945C24.9643 22.4747 23.627 22.5965 23.0884 21.6988C22.9071 21.3967 22.6068 21.185 22.2613 21.1159L20.9933 20.8623C20.4396 20.7516 19.8672 20.9249 19.4679 21.3242C18.8987 21.8934 18.0068 21.9817 17.337 21.5352L16.7551 21.1473C15.8845 20.5669 15.5519 19.4479 15.9641 18.4862L16.2448 17.8311C16.5844 17.0386 17.5212 16.6954 18.2925 17.081C18.7508 17.3102 19.2944 17.2893 19.7337 17.0257L20.9579 16.2912C21.4634 15.9879 22.0284 15.7972 22.6143 15.7321L24.0487 15.5727C24.7086 15.4994 24.8317 14.5925 24.2153 14.3459L21.9059 13.4222C21.4536 13.2413 21.1157 12.8542 20.9976 12.3816C20.801 11.5954 21.2572 10.7935 22.0334 10.5606L23.6774 10.0674C25.0796 9.64672 26.0399 8.35608 26.0399 6.8921V6.57833C26.0399 6.34252 26.2556 6.16565 26.4869 6.2119Z" fill="#FFAA00"/>
<path opacity="0.25" fill-rule="evenodd" clip-rule="evenodd" d="M50.14 31.8137C45.3065 35.2796 39.3815 37.32 32.98 37.32C16.6986 37.32 3.5 24.1214 3.5 7.84C3.5 4.93613 3.91986 2.13033 4.70218 -0.52002H0.859985V49.64H50.14V31.8137Z" fill="black"/>
</g>
<rect x="28" y="28" width="19" height="19" rx="9.5" fill="#FF1741"/>
<path d="M40.682 34.318L34.318 40.6819" stroke="white" stroke-width="2" stroke-linecap="round"/>
<path d="M34.318 34.3181L40.682 40.682" stroke="white" stroke-width="2" stroke-linecap="round"/>
</svg>
