<svg width="50" height="50" viewBox="0 0 50 50" fill="none" xmlns="http://www.w3.org/2000/svg">
<mask id="mask0_11192_2111" style="mask-type:alpha" maskUnits="userSpaceOnUse" x="7" y="12" width="36" height="34">
<path d="M25 12C31.25 12 36.4886 16.7246 37.1318 22.9414L38.127 32.5654C40.6363 34.7361 42.5 36.8111 42.5 38.5C42.5 39.8962 41.6738 41.0039 40.6885 41.8047C39.6911 42.6152 38.3395 43.279 36.8018 43.8076C33.7114 44.8699 29.5386 45.5 25 45.5C20.4614 45.5 16.2886 44.8699 13.1982 43.8076C11.6605 43.279 10.3089 42.6152 9.31152 41.8047C8.32617 41.0039 7.5 39.8962 7.5 38.5C7.5 36.8112 9.36297 34.736 11.8721 32.5654L12.8682 22.9414C13.5114 16.7246 18.75 12 25 12Z" fill="#FFAA00"/>
</mask>
<g mask="url(#mask0_11192_2111)">
<rect x="7" y="3" width="37" height="43" fill="#FFAA00"/>
</g>
<path d="M21 16.5V11C21 8.79086 22.7909 7 25 7C27.2091 7 29 8.79086 29 11V16.5" stroke="#FFAA00" stroke-width="3"/>
<path d="M39 38.5C39 40.9853 32.732 43 25 43C17.268 43 11 40.9853 11 38.5C11 36.0147 17.268 34 25 34C32.732 34 39 36.0147 39 38.5Z" fill="#634200"/>
<circle cx="25" cy="34.5" r="5" fill="#FFAA00"/>
<rect x="28" y="6" width="19" height="19" rx="9.5" fill="#FF1741"/>
<path d="M36.8567 20.5H38.9287V10.882H37.2767L34.3927 12.814L35.2187 14.27L36.8567 13.248V20.5Z" fill="white"/>
</svg>
