<svg width="50" height="50" viewBox="0 0 50 50" fill="none" xmlns="http://www.w3.org/2000/svg">
<mask id="mask0_10664_1448" style="mask-type:alpha" maskUnits="userSpaceOnUse" x="7" y="12" width="36" height="34">
<path fill-rule="evenodd" clip-rule="evenodd" d="M25 12C18.7499 12 13.5112 16.7247 12.8681 22.9416L11.8728 32.5625C9.36278 34.7336 7.5 36.8108 7.5 38.5C7.5 39.8962 8.32596 41.0041 9.31132 41.8049C10.3087 42.6155 11.6608 43.279 13.1987 43.8076C16.289 44.8699 20.4614 45.5 25 45.5C29.5386 45.5 33.711 44.8699 36.8013 43.8076C38.3392 43.279 39.6913 42.6155 40.6887 41.8049C41.674 41.0041 42.5 39.8962 42.5 38.5C42.5 36.8108 40.6372 34.7336 38.1272 32.5625L37.1319 22.9416C36.4888 16.7247 31.2501 12 25 12Z" fill="#FFC900"/>
</mask>
<g mask="url(#mask0_10664_1448)">
<rect x="7" y="3" width="37" height="43" fill="#FFC900"/>
</g>
<path d="M21 16.5V11C21 8.79086 22.7909 7 25 7C27.2091 7 29 8.79086 29 11V16.5" stroke="#FFC900" stroke-width="3"/>
<path d="M39 38.5C39 40.9853 32.732 43 25 43C17.268 43 11 40.9853 11 38.5C11 36.0147 17.268 34 25 34C32.732 34 39 36.0147 39 38.5Z" fill="#634E00"/>
<circle cx="25" cy="34.5" r="5" fill="#FFC900"/>
<rect x="28" y="6" width="19" height="19" rx="9.5" fill="#FF1741"/>
<path d="M36.8567 20.5H38.9287V10.882H37.2767L34.3927 12.814L35.2187 14.27L36.8567 13.248V20.5Z" fill="white"/>
</svg>
