<svg width="50" height="50" viewBox="0 0 50 50" fill="none" xmlns="http://www.w3.org/2000/svg">
<path d="M4 14.7059C4 12.6592 5.65918 11 7.70588 11H42.2941C44.3408 11 46 12.6592 46 14.7059V35.7059C46 37.7526 44.3408 39.4118 42.2941 39.4118H7.70588C5.65918 39.4118 4 37.7526 4 35.7059V14.7059Z" fill="#0053FF"/>
<rect x="7.70587" y="17.1764" width="7.41176" height="6.17647" rx="1.23529" fill="#DBAD00"/>
<rect x="7.70587" y="17.1764" width="7.41176" height="2.47059" rx="1.23529" fill="#C59E02"/>
<rect x="7.70587" y="20.8823" width="7.41176" height="2.47059" rx="1.23529" fill="#C59E02"/>
<rect opacity="0.5" x="10.1765" y="17.1764" width="2.47059" height="6.17647" rx="1.23529" fill="#DBAD00"/>
<path d="M38.2561 22.1176C40.3028 22.1176 41.9619 20.4584 41.9619 18.4117C41.9619 16.365 40.3028 14.7058 38.2561 14.7058C36.2094 14.7058 34.5502 16.365 34.5502 18.4117C34.5502 20.4584 36.2094 22.1176 38.2561 22.1176Z" fill="#FFC900"/>
<path d="M33.3149 22.1176C35.3616 22.1176 37.0208 20.4584 37.0208 18.4117C37.0208 16.365 35.3616 14.7058 33.3149 14.7058C31.2682 14.7058 29.609 16.365 29.609 18.4117C29.609 20.4584 31.2682 22.1176 33.3149 22.1176Z" fill="#FF1741"/>
<rect x="7.70587" y="25.8235" width="7.41176" height="3.70588" rx="1.85294" fill="#002573"/>
<rect x="7.70587" y="30.7646" width="12.3529" height="3.70588" rx="1.85294" fill="#002573"/>
<rect x="16.353" y="25.8235" width="7.41176" height="3.70588" rx="1.85294" fill="#002573"/>
<rect x="25" y="25.8235" width="7.41176" height="3.70588" rx="1.85294" fill="#002573"/>
<rect x="33.647" y="25.8235" width="7.41176" height="3.70588" rx="1.85294" fill="#002573"/>
<rect x="28" y="28" width="19" height="19" rx="9.5" fill="#FFC900"/>
<path fill-rule="evenodd" clip-rule="evenodd" d="M36.5 33.5C36.5 32.9477 36.9477 32.5 37.5 32.5C38.0523 32.5 38.5 32.9477 38.5 33.5V39.5858L39.7929 38.2929C40.1834 37.9024 40.8166 37.9024 41.2071 38.2929C41.5976 38.6834 41.5976 39.3166 41.2071 39.7071L38.2071 42.7071C37.8166 43.0976 37.1834 43.0976 36.7929 42.7071L33.7929 39.7071C33.4024 39.3166 33.4024 38.6834 33.7929 38.2929C34.1834 37.9024 34.8166 37.9024 35.2071 38.2929L36.5 39.5858V33.5Z" fill="#1D2129"/>
</svg>
