<svg width="50" height="50" viewBox="0 0 50 50" fill="none" xmlns="http://www.w3.org/2000/svg">
<g clip-path="url(#clip0_14021_734)">
<mask id="mask0_14021_734" style="mask-type:alpha" maskUnits="userSpaceOnUse" x="5" y="7" width="41" height="36">
<path d="M5 10.1765C5 8.42216 6.42215 7 8.17647 7H33.0482C33.4026 7 33.7512 7.08891 34.0623 7.25857L43.5799 12.45C44.6004 13.0066 45.2353 14.0762 45.2353 15.2386V39.8235C45.2353 41.5778 43.8131 43 42.0588 43H17.0546C16.0951 43 15.1536 42.7392 14.3308 42.2456L6.02813 37.2639C5.39028 36.8812 5 36.1919 5 35.4481V10.1765Z" fill="#A58167"/>
</mask>
<g mask="url(#mask0_14021_734)">
<path d="M5 7H32.7783C33.3097 7 33.8327 7.13336 34.2993 7.38786L45.2353 13.3529L5 17.5882V7Z" fill="#FFBE89"/>
<path d="M5 9.80513C5 8.5706 6.34678 7.80807 7.40538 8.44323L15.0742 13.0445C15.3931 13.2359 15.5882 13.5805 15.5882 13.9524V22.3529L20.8824 43H17.0546C16.0951 43 15.1536 42.7392 14.3308 42.2456L6.54219 37.5724C5.58542 36.9983 5 35.9643 5 34.8486V9.80513Z" fill="#CB8347"/>
<path d="M15.5882 14.4119C15.5882 13.8271 16.0622 13.353 16.647 13.353H45.2353V39.8236C45.2353 41.5779 43.8131 43.0001 42.0588 43.0001H18.7647C17.0104 43.0001 15.5882 41.5779 15.5882 39.8236V14.4119Z" fill="#E7A065"/>
<path d="M8.5238 9.11768H39.7294L43.1176 11.2353H12.0691L8.5238 9.11768Z" fill="#5E5E5E"/>
</g>
<path d="M8.52588 9.11768L12.073 11.2353V19.8321C12.073 20.2431 11.6251 20.4973 11.2722 20.2866L8.78395 18.8011C8.62393 18.7056 8.52592 18.5329 8.52592 18.3466L8.52588 9.11768Z" fill="#1D2129"/>
<rect x="19.2941" y="16" width="11.1176" height="12.7059" rx="0.794118" fill="white"/>
<rect x="20.8823" y="17.5883" width="7.94118" height="1.58824" rx="0.794118" fill="#C4C4C4"/>
<rect x="20.8823" y="20.7648" width="4.76471" height="1.58824" rx="0.794118" fill="#C4C4C4"/>
<rect x="20.8823" y="23.9412" width="1.58824" height="3.17647" rx="0.317647" fill="#5E5E5E"/>
<rect x="25.647" y="23.9412" width="1.58824" height="3.17647" rx="0.317647" fill="#5E5E5E"/>
<rect x="23.2647" y="23.9412" width="0.794118" height="3.17647" rx="0.317647" fill="#5E5E5E"/>
<rect x="24.8529" y="23.9412" width="0.397059" height="3.17647" rx="0.198529" fill="#5E5E5E"/>
<rect x="28.0294" y="23.9412" width="0.794118" height="3.17647" rx="0.317647" fill="#5E5E5E"/>
<rect x="18.7647" y="38.7648" width="3.17647" height="1.05882" fill="#1D2129"/>
<rect x="18.7647" y="35.5883" width="3.17647" height="2.11765" fill="#1D2129"/>
<path d="M22.9999 35.5882H17.7058L20.3529 32.4117L22.9999 35.5882Z" fill="#1D2129"/>
<path d="M38.735 46.5399C44.1501 46.5399 48.54 42.1501 48.54 36.7349C48.54 31.3198 44.1501 26.9299 38.735 26.9299C33.3198 26.9299 28.93 31.3198 28.93 36.7349C28.93 42.1501 33.3198 46.5399 38.735 46.5399Z" fill="white" stroke="#0053FF" stroke-width="2.12"/>
<path d="M40.7161 35.8127C40.9435 35.6285 40.9786 35.2948 40.7944 35.0673C40.6102 34.8398 40.2765 34.8047 40.049 34.9889L33.4588 40.3256C33.2313 40.5098 33.1962 40.8435 33.3804 41.071C33.5647 41.2985 33.8984 41.3336 34.1259 41.1493L40.7161 35.8127Z" fill="#DCDCDC"/>
<path d="M38.735 31.4349V36.7349L41.915 38.8549" stroke="#000716" stroke-width="1.06" stroke-linecap="round" stroke-linejoin="round"/>
</g>
<defs>
<clipPath id="clip0_14021_734">
<rect width="50" height="50" fill="white"/>
</clipPath>
</defs>
</svg>
