<svg width="50" height="50" viewBox="0 0 50 50" fill="none" xmlns="http://www.w3.org/2000/svg">
<g clip-path="url(#clip0_9591:2079)">
<mask id="mask0_9591:2079" style="mask-type:alpha" maskUnits="userSpaceOnUse" x="4" y="6" width="38" height="34">
<path d="M4 9C4 7.34315 5.34315 6 7 6H30.49C30.8246 6 31.1539 6.08397 31.4477 6.24421L40.4366 11.1472C41.4003 11.6729 42 12.6831 42 13.7809V37C42 38.6569 40.6569 40 39 40H15.3849C14.4787 40 13.5895 39.7537 12.8124 39.2875L4.97101 34.5826C4.3686 34.2212 4 33.5701 4 32.8676V9Z" fill="#A58167"/>
</mask>
<g mask="url(#mask0_9591:2079)">
<path d="M4 6H30.235C30.737 6 31.2309 6.12595 31.6716 6.36631L42 12L4 16V6Z" fill="#FFBE89"/>
<path d="M4 8.64929C4 7.48334 5.27196 6.76317 6.27174 7.36305L13.5145 11.7087C13.8157 11.8894 14 12.2149 14 12.5662V20.5L19 40H15.3849C14.4787 40 13.5895 39.7537 12.8124 39.2875L5.45651 34.8739C4.5529 34.3317 4 33.3552 4 32.3014V8.64929Z" fill="#CB8347"/>
<path d="M14 13C14 12.4477 14.4477 12 15 12H42V37C42 38.6569 40.6569 40 39 40H17C15.3431 40 14 38.6569 14 37V13Z" fill="#E7A065"/>
<path d="M7.32812 8H36.8L40 10H10.6765L7.32812 8Z" fill="#5E5E5E"/>
</g>
<path d="M7.32996 8.00006L10.68 10.0001V18.1192C10.68 18.5074 10.257 18.7475 9.9237 18.5485L7.57369 17.1455C7.42256 17.0553 7.33 16.8923 7.33 16.7162L7.32996 8.00006Z" fill="#000716"/>
<rect x="17.5" y="14.5" width="10.5" height="12" rx="0.75" fill="white"/>
<rect x="19" y="16" width="7.5" height="1.5" rx="0.75" fill="#C4C4C4"/>
<rect x="19" y="19" width="4.5" height="1.5" rx="0.75" fill="#C4C4C4"/>
<rect x="19" y="22" width="1.5" height="3" rx="0.3" fill="#5E5E5E"/>
<rect x="23.5" y="22" width="1.5" height="3" rx="0.3" fill="#5E5E5E"/>
<rect x="21.25" y="22" width="0.75" height="3" rx="0.3" fill="#5E5E5E"/>
<rect x="22.75" y="22" width="0.375" height="3" rx="0.1875" fill="#5E5E5E"/>
<rect x="25.75" y="22" width="0.75" height="3" rx="0.3" fill="#5E5E5E"/>
<rect x="17" y="36" width="3" height="1" fill="#000716"/>
<rect x="17" y="33" width="3" height="2" fill="#000716"/>
<path d="M21 33H16L18.5 30L21 33Z" fill="#000716"/>
<g clip-path="url(#clip1_9591:2079)">
<mask id="mask1_9591:2079" style="mask-type:alpha" maskUnits="userSpaceOnUse" x="25" y="17" width="24" height="29">
<path d="M49 39.5C49 44.3049 42.7 45.2 37 45.2C31.3 45.2 25 44.3049 25 39.5C25 34.6951 30.6726 17 37.3 17C43.9274 17 49 34.6951 49 39.5Z" fill="#C4C4C4"/>
</mask>
<g mask="url(#mask1_9591:2079)">
<path d="M31.3 27.8H41.4999C41.8 35.6 37 37.7 37 37.7C32.8 38 27.7 36.8 27.7 36.8C33.7 35 31.3 35.6 31.3 35.6L29.8 33.8C33.1 32.9 31.3 27.8 31.3 27.8Z" fill="#000716"/>
<mask id="mask2_9591:2079" style="mask-type:alpha" maskUnits="userSpaceOnUse" x="29" y="35" width="15" height="18">
<path d="M29.465 39.8194C29.4745 37.6763 30.9187 35.7728 33.0256 35.3806C34.1607 35.1692 35.3861 35 36.4 35C37.4139 35 38.6393 35.1692 39.7744 35.3806C41.8813 35.7728 43.3277 37.6776 43.2322 39.8186C42.968 45.7405 41.703 53 35.8 53C29.8973 53 29.4386 45.7412 29.465 39.8194Z" fill="#002573"/>
</mask>
<g mask="url(#mask2_9591:2079)">
<path fill-rule="evenodd" clip-rule="evenodd" d="M29.465 39.8194C29.4745 37.6763 30.9187 35.7728 33.0256 35.3806C34.1607 35.1692 35.3861 35 36.4 35C37.4139 35 38.6393 35.1692 39.7744 35.3806C41.8813 35.7728 43.3277 37.6776 43.2322 39.8186C43.2236 40.0111 43.214 40.205 43.2031 40.4H39.4V49.4H41.2691C40.1593 51.5421 38.4453 53 35.8 53C32.6855 53 31.0866 50.9791 30.2749 48.2H32.8V44L29.5533 43.5671C29.4746 42.3112 29.4596 41.037 29.465 39.8194Z" fill="#0053FF"/>
<path d="M34.6 35H38.2V35C38.2 35.7052 37.7214 36.332 37.0245 36.4397C36.7952 36.4751 36.5727 36.5 36.4 36.5C36.2272 36.5 36.0047 36.4751 35.7755 36.4397C35.0785 36.332 34.6 35.7052 34.6 35V35Z" fill="#FECDA9"/>
</g>
<circle cx="36.4" cy="27.5" r="5.1" fill="#000716"/>
<path d="M31.9 28.1C31.9 25.6147 33.9147 23.6 36.4 23.6V23.6C38.8853 23.6 40.9 25.6147 40.9 28.1V29.9C40.9 32.3853 38.8853 34.4 36.4 34.4V34.4C33.9147 34.4 31.9 32.3853 31.9 29.9V28.1Z" fill="#FECDA9"/>
<path d="M35.5 30.8H37.3V35C37.3 35.497 36.8971 35.9 36.4 35.9V35.9C35.9029 35.9 35.5 35.497 35.5 35V30.8Z" fill="#FECDA9"/>
<path d="M40.9 26.6C37.3 26.6 36.1 32.3 30.1 31.4C31.9 28.7 30.4 26.3 32.8 23.9L33.4 23.6L36.4 23L40 24.2L40.9 26.6Z" fill="#000716"/>
<path d="M27.1671 44.3C27.118 42.9754 28.2712 41.9 29.5967 41.9H30.7967C32.1222 41.9 33.2753 42.9754 33.2262 44.3C33.1665 45.9109 32.6869 47 30.1967 47C27.7065 47 27.2269 45.9109 27.1671 44.3Z" fill="#DCDCDC"/>
<path d="M26.8 37.6275C26.8 36.2608 27.8244 35.1035 29.1792 34.9228V34.9228C31.0658 34.6713 32.6433 36.3793 32.2153 38.2339V38.2339C31.985 39.2319 31.204 40.019 30.2104 40.2674V40.2674C28.4894 40.6977 26.8 39.4015 26.8 37.6275V37.6275Z" fill="#000716"/>
<path d="M27.64 37.34C27.64 35.7163 28.9563 34.4 30.58 34.4H31.0988C32.436 34.4 33.52 35.484 33.52 36.8212V38.32C33.52 39.4025 32.6425 40.28 31.56 40.28H30.58C28.9563 40.28 27.64 38.9637 27.64 37.34V37.34Z" fill="#000716"/>
<path d="M29.3712 40.28H31.0512V41.96C31.0512 42.4239 30.6751 42.8 30.2112 42.8V42.8C29.7473 42.8 29.3712 42.4239 29.3712 41.96V40.28Z" fill="#FECDA9"/>
<path d="M27.6913 38.6C27.6913 37.2083 28.8195 36.08 30.2113 36.08V36.08C31.603 36.08 32.7313 37.2083 32.7313 38.6V39.44C32.7313 40.8318 31.603 41.96 30.2113 41.96V41.96C28.8195 41.96 27.6913 40.8318 27.6913 39.44V38.6Z" fill="#FECDA9"/>
<path d="M28.06 36.92C28.48 39.02 32.8 38.3 33.4 37.7L31.42 35.24H29.74L28.06 36.92Z" fill="#000716"/>
<path d="M38.6311 42.2902C38.4564 40.7997 39.4299 39.4272 40.9014 39.1331C41.5677 38.9999 42.3005 38.9 43 38.9C43.6995 38.9 44.4323 38.9999 45.0986 39.1331C46.5701 39.4272 47.5436 40.7997 47.3689 42.2902C46.9793 45.6147 45.6845 47.6 43 47.6C40.3155 47.6 39.0207 45.6147 38.6311 42.2902Z" fill="#DCDCDC"/>
<rect x="38.7438" y="29.6" width="9" height="9" rx="4.5" fill="#000716"/>
<path d="M42.3438 37.5539H44.1438V38.9C44.1438 39.3971 43.7408 39.8 43.2438 39.8V39.8C42.7467 39.8 42.3438 39.3971 42.3438 38.9V37.5539Z" fill="#A07A57"/>
<path d="M40.5437 35.3C40.5437 33.8088 41.7525 32.6 43.2437 32.6V32.6C44.7349 32.6 45.9437 33.8088 45.9437 35.3V35.9C45.9437 37.3911 44.7349 38.6 43.2437 38.6V38.6C41.7525 38.6 40.5437 37.3911 40.5437 35.9V35.3Z" fill="#A07A57"/>
<path d="M46.79 33.2376C46.79 33.5328 44.4438 34.7 39.9592 34.1231L42.2362 30.1385H44.0577L46.79 33.2376Z" fill="#000716"/>
</g>
</g>
</g>
<defs>
<clipPath id="clip0_9591:2079">
<rect width="50" height="50" fill="white"/>
</clipPath>
<clipPath id="clip1_9591:2079">
<rect width="30" height="30" fill="white" transform="translate(22 20)"/>
</clipPath>
</defs>
</svg>
