<svg width="50" height="50" viewBox="0 0 50 50" fill="none" xmlns="http://www.w3.org/2000/svg">
<g clip-path="url(#clip0_9591_2414)">
<mask id="mask0_9591_2414" style="mask-type:alpha" maskUnits="userSpaceOnUse" x="5" y="7" width="41" height="36">
<path d="M5 10.1765C5 8.42216 6.42215 7 8.17647 7H33.0482C33.4026 7 33.7512 7.08891 34.0623 7.25857L43.5799 12.45C44.6004 13.0066 45.2353 14.0762 45.2353 15.2386V39.8235C45.2353 41.5778 43.8131 43 42.0588 43H17.0546C16.0951 43 15.1536 42.7392 14.3308 42.2456L6.02813 37.2639C5.39028 36.8812 5 36.1919 5 35.4481V10.1765Z" fill="#A58167"/>
</mask>
<g mask="url(#mask0_9591_2414)">
<path d="M5 7H32.7783C33.3097 7 33.8327 7.13336 34.2993 7.38786L45.2353 13.3529L5 17.5882V7Z" fill="#FFBE89"/>
<path d="M5 9.80513C5 8.5706 6.34678 7.80807 7.40538 8.44323L15.0742 13.0445C15.3931 13.2359 15.5882 13.5805 15.5882 13.9524V22.3529L20.8824 43H17.0546C16.0951 43 15.1536 42.7392 14.3308 42.2456L6.54219 37.5724C5.58542 36.9983 5 35.9643 5 34.8486V9.80513Z" fill="#CB8347"/>
<path d="M15.5881 14.4119C15.5881 13.8271 16.0622 13.353 16.647 13.353H45.2352V39.8236C45.2352 41.5779 43.813 43.0001 42.0587 43.0001H18.7646C17.0103 43.0001 15.5881 41.5779 15.5881 39.8236V14.4119Z" fill="#E7A065"/>
<path d="M8.5238 9.11768H39.7294L43.1176 11.2353H12.0691L8.5238 9.11768Z" fill="#5E5E5E"/>
</g>
<path d="M8.52588 9.11768L12.073 11.2353V19.8321C12.073 20.2431 11.6251 20.4973 11.2722 20.2866L8.78395 18.8011C8.62393 18.7056 8.52592 18.5329 8.52592 18.3466L8.52588 9.11768Z" fill="#1D2129"/>
<rect x="19.2941" y="16" width="11.1176" height="12.7059" rx="0.794118" fill="white"/>
<rect x="20.8823" y="17.5883" width="7.94118" height="1.58824" rx="0.794118" fill="#C4C4C4"/>
<rect x="20.8823" y="20.7648" width="4.76471" height="1.58824" rx="0.794118" fill="#C4C4C4"/>
<rect x="20.8823" y="23.9412" width="1.58824" height="3.17647" rx="0.317647" fill="#5E5E5E"/>
<rect x="25.6471" y="23.9412" width="1.58824" height="3.17647" rx="0.317647" fill="#5E5E5E"/>
<rect x="23.2646" y="23.9412" width="0.794118" height="3.17647" rx="0.317647" fill="#5E5E5E"/>
<rect x="24.8529" y="23.9412" width="0.397059" height="3.17647" rx="0.198529" fill="#5E5E5E"/>
<rect x="28.0294" y="23.9412" width="0.794118" height="3.17647" rx="0.317647" fill="#5E5E5E"/>
<rect x="18.7646" y="38.7648" width="3.17647" height="1.05882" fill="#1D2129"/>
<rect x="18.7646" y="35.5883" width="3.17647" height="2.11765" fill="#1D2129"/>
<path d="M22.9999 35.5882H17.7058L20.3529 32.4117L22.9999 35.5882Z" fill="#1D2129"/>
<path d="M38.5706 30.8561C40.2421 32.5276 46.3711 29.1845 48.0426 30.8561C48.0426 30.8561 46.9282 31.1347 45.2567 34.4777C46.9282 35.3135 48.0426 38.0994 48.0426 38.0994C46.3711 36.4279 40.2421 39.7709 38.5706 38.0994V30.8561Z" fill="#0046D7"/>
<path d="M38.5706 35.0349H40.7993C40.7993 35.0349 40.7993 35.8707 40.7993 36.7065C40.7993 37.5422 38.5706 36.985 38.5706 38.0994V35.0349Z" fill="#002573"/>
<path d="M32.4415 29.4631C34.6539 31.4552 39.1277 27.7915 40.7992 29.4631L40.7992 36.7064C39.1277 35.0349 34.8997 38.6986 32.4415 36.7064V29.4631Z" fill="#0053FF"/>
<path d="M33.8345 47.85L32.163 27.5129" stroke="#1D2129" stroke-width="1.67154" stroke-linecap="round"/>
<circle cx="32.163" cy="27.5129" r="1.39295" fill="#0053FF"/>
</g>
<defs>
<clipPath id="clip0_9591_2414">
<rect width="50" height="50" fill="white"/>
</clipPath>
</defs>
</svg>
