<svg width="50" height="50" viewBox="0 0 50 50" fill="none" xmlns="http://www.w3.org/2000/svg">
<g clip-path="url(#clip0_8502:251)">
<mask id="mask0_8502:251" style="mask-type:alpha" maskUnits="userSpaceOnUse" x="4" y="7" width="38" height="34">
<path d="M4 10C4 8.34315 5.34315 7 7 7H30.49C30.8246 7 31.1539 7.08397 31.4477 7.24421L40.4366 12.1472C41.4003 12.6729 42 13.6831 42 14.7809V38C42 39.6569 40.6569 41 39 41H15.3849C14.4787 41 13.5895 40.7537 12.8124 40.2875L4.97101 35.5826C4.3686 35.2212 4 34.5701 4 33.8676V10Z" fill="#A58167"/>
</mask>
<g mask="url(#mask0_8502:251)">
<path d="M4 7H30.235C30.737 7 31.2309 7.12595 31.6716 7.36631L42 13L4 17V7Z" fill="#FFBE89"/>
<path d="M4 9.64929C4 8.48334 5.27196 7.76317 6.27174 8.36305L13.5145 12.7087C13.8157 12.8894 14 13.2149 14 13.5662V21.5L19 41H15.3849C14.4787 41 13.5895 40.7537 12.8124 40.2875L5.45651 35.8739C4.5529 35.3317 4 34.3552 4 33.3014V9.64929Z" fill="#CB8347"/>
<path d="M14 14C14 13.4477 14.4477 13 15 13H42V38C42 39.6569 40.6569 41 39 41H17C15.3431 41 14 39.6569 14 38V14Z" fill="#E7A065"/>
<path d="M7.32806 9H36.8L40 11H10.6764L7.32806 9Z" fill="#5E5E5E"/>
</g>
<path d="M7.33002 9.00006L10.6801 11.0001V19.1192C10.6801 19.5074 10.257 19.7475 9.92376 19.5485L7.57375 18.1455C7.42262 18.0553 7.33006 17.8923 7.33006 17.7162L7.33002 9.00006Z" fill="#000716"/>
<rect x="17.5" y="15.5" width="10.5" height="12" rx="0.75" fill="white"/>
<rect x="19" y="17" width="7.5" height="1.5" rx="0.75" fill="#C4C4C4"/>
<rect x="19" y="20" width="4.5" height="1.5" rx="0.75" fill="#C4C4C4"/>
<rect x="19" y="23" width="1.5" height="3" rx="0.3" fill="#5E5E5E"/>
<rect x="23.5" y="23" width="1.5" height="3" rx="0.3" fill="#5E5E5E"/>
<rect x="21.25" y="23" width="0.75" height="3" rx="0.3" fill="#5E5E5E"/>
<rect x="22.75" y="23" width="0.375" height="3" rx="0.1875" fill="#5E5E5E"/>
<rect x="25.75" y="23" width="0.75" height="3" rx="0.3" fill="#5E5E5E"/>
<rect x="17" y="37" width="3" height="1" fill="#000716"/>
<rect x="17" y="34" width="3" height="2" fill="#000716"/>
<path d="M21 34H16L18.5 31L21 34Z" fill="#000716"/>
<path d="M40.3315 30.4448L39.8099 29.6336L39.2884 30.4448L36.5012 34.7805L32.2319 41.1844C31.1332 42.8325 32.3146 45.0401 34.2954 45.0401H45.3245C47.3053 45.0401 48.4867 42.8325 47.388 41.1844L43.1187 34.7805L40.3315 30.4448Z" fill="#DCDCDC" stroke="#DCDCDC" stroke-width="1.24"/>
<mask id="mask1_8502:251" style="mask-type:alpha" maskUnits="userSpaceOnUse" x="32" y="35" width="16" height="10">
<path d="M37.0199 35.1201H42.5999L46.8721 41.5283C47.6962 42.7644 46.8101 44.4201 45.3245 44.4201H34.2954C32.8098 44.4201 31.9237 42.7644 32.7478 41.5283L37.0199 35.1201Z" fill="#DCDCDC"/>
</mask>
<g mask="url(#mask1_8502:251)">
<path d="M48.7999 41.0101C39.8099 42.5601 42.9098 36.36 32.0599 37.29C21.2099 38.2201 28.1885 46.2801 28.1885 46.2801H49.8884C49.8884 46.2801 57.79 39.4601 48.7999 41.0101Z" fill="#003EBD"/>
<path d="M32.06 38.53C40.12 43.8001 39.8099 34.5 47.5599 36.67C55.31 38.8401 50.0399 46.28 50.0399 46.28H28.34C28.34 46.28 23.9999 33.26 32.06 38.53Z" fill="#0053FF"/>
</g>
<rect x="35.7799" y="24.5801" width="8.06" height="2.48" rx="1.24" fill="#DCDCDC"/>
<rect x="37.0199" y="24.5801" width="5.58" height="11.16" fill="#DCDCDC"/>
<path d="M37.0199 28.3H39.4999C39.8423 28.3 40.1199 28.5776 40.1199 28.92C40.1199 29.2625 39.8423 29.54 39.4999 29.54H37.0199V28.3Z" fill="#868686"/>
<path d="M37.0199 30.7801H39.4999C39.8423 30.7801 40.1199 31.0577 40.1199 31.4001C40.1199 31.7425 39.8423 32.0201 39.4999 32.0201H37.0199V30.7801Z" fill="#868686"/>
<circle opacity="0.15" cx="42.6" cy="40.0801" r="0.62" fill="white"/>
<circle opacity="0.15" cx="40.74" cy="41.9401" r="0.62" fill="white"/>
<circle opacity="0.25" cx="38.5699" cy="36.0501" r="0.93" fill="#0053FF"/>
<circle opacity="0.15" cx="40.74" cy="30.16" r="0.62" fill="#0053FF"/>
<circle opacity="0.25" cx="40.74" cy="34.5001" r="0.62" fill="#0053FF"/>
<circle opacity="0.15" cx="36.7099" cy="38.53" r="0.31" fill="white"/>
<circle opacity="0.15" cx="34.8499" cy="41.6301" r="0.93" fill="white"/>
</g>
<defs>
<clipPath id="clip0_8502:251">
<rect width="50" height="50" fill="white"/>
</clipPath>
</defs>
</svg>
