<svg width="50" height="50" viewBox="0 0 50 50" fill="none" xmlns="http://www.w3.org/2000/svg">
<g clip-path="url(#clip0_9591:2353)">
<mask id="mask0_9591:2353" style="mask-type:alpha" maskUnits="userSpaceOnUse" x="4" y="6" width="38" height="34">
<path d="M4 9C4 7.34315 5.34315 6 7 6H30.49C30.8246 6 31.1539 6.08397 31.4477 6.24421L40.4366 11.1472C41.4003 11.6729 42 12.6831 42 13.7809V37C42 38.6569 40.6569 40 39 40H15.3849C14.4787 40 13.5895 39.7537 12.8124 39.2875L4.97101 34.5826C4.3686 34.2212 4 33.5701 4 32.8676V9Z" fill="#A58167"/>
</mask>
<g mask="url(#mask0_9591:2353)">
<path d="M4 6H30.235C30.737 6 31.2309 6.12595 31.6716 6.36631L42 12L4 16V6Z" fill="#FFBE89"/>
<path d="M4 8.64929C4 7.48334 5.27196 6.76317 6.27174 7.36305L13.5145 11.7087C13.8157 11.8894 14 12.2149 14 12.5662V20.5L19 40H15.3849C14.4787 40 13.5895 39.7537 12.8124 39.2875L5.45651 34.8739C4.5529 34.3317 4 33.3552 4 32.3014V8.64929Z" fill="#CB8347"/>
<path d="M14 13C14 12.4477 14.4477 12 15 12H42V37C42 38.6569 40.6569 40 39 40H17C15.3431 40 14 38.6569 14 37V13Z" fill="#E7A065"/>
<path d="M7.32812 8H36.8L40 10H10.6765L7.32812 8Z" fill="#5E5E5E"/>
</g>
<path d="M7.32996 8L10.68 10V18.1192C10.68 18.5073 10.257 18.7474 9.9237 18.5485L7.57369 17.1455C7.42256 17.0553 7.33 16.8922 7.33 16.7162L7.32996 8Z" fill="#000716"/>
<rect x="17.5" y="14.5" width="10.5" height="12" rx="0.75" fill="white"/>
<rect x="19" y="16" width="7.5" height="1.5" rx="0.75" fill="#C4C4C4"/>
<rect x="19" y="19" width="4.5" height="1.5" rx="0.75" fill="#C4C4C4"/>
<rect x="19" y="22" width="1.5" height="3" rx="0.3" fill="#5E5E5E"/>
<rect x="23.5" y="22" width="1.5" height="3" rx="0.3" fill="#5E5E5E"/>
<rect x="21.25" y="22" width="0.75" height="3" rx="0.3" fill="#5E5E5E"/>
<rect x="22.75" y="22" width="0.375" height="3" rx="0.1875" fill="#5E5E5E"/>
<rect x="25.75" y="22" width="0.75" height="3" rx="0.3" fill="#5E5E5E"/>
<rect x="17" y="36" width="3" height="1" fill="#000716"/>
<rect x="17" y="33" width="3" height="2" fill="#000716"/>
<path d="M21 33H16L18.5 30L21 33Z" fill="#000716"/>
<path d="M39.8199 28C41.4999 29.68 47.6599 26.32 49.3399 28C49.3399 28 48.2199 28.28 46.5399 31.64C48.2199 32.48 49.3399 35.28 49.3399 35.28C47.6599 33.6 41.4999 36.96 39.8199 35.28V28Z" fill="#0046D7"/>
<path d="M39.8199 32.2H42.0599C42.0599 32.2 42.0599 33.04 42.0599 33.88C42.0599 34.72 39.8199 34.16 39.8199 35.28V32.2Z" fill="#002573"/>
<path d="M33.66 26.6C35.8836 28.6022 40.38 24.92 42.06 26.6L42.06 33.88C40.38 32.2 36.1306 35.8822 33.66 33.88V26.6Z" fill="#0053FF"/>
<path d="M35.06 45.08L33.38 24.64" stroke="#000716" stroke-width="1.68" stroke-linecap="round"/>
<circle cx="33.38" cy="24.64" r="1.4" fill="#0053FF"/>
</g>
<defs>
<clipPath id="clip0_9591:2353">
<rect width="50" height="50" fill="white"/>
</clipPath>
</defs>
</svg>
