<svg width="50" height="50" viewBox="0 0 50 50" fill="none" xmlns="http://www.w3.org/2000/svg">
<g clip-path="url(#clip0_9591_2206)">
<mask id="mask0_9591_2206" style="mask-type:alpha" maskUnits="userSpaceOnUse" x="5" y="7" width="41" height="36">
<path d="M5 10.1765C5 8.42216 6.42215 7 8.17647 7H33.0482C33.4026 7 33.7512 7.08891 34.0623 7.25857L43.5799 12.45C44.6004 13.0066 45.2353 14.0762 45.2353 15.2386V39.8235C45.2353 41.5778 43.8131 43 42.0588 43H17.0546C16.0951 43 15.1536 42.7392 14.3308 42.2456L6.02813 37.2639C5.39028 36.8812 5 36.1919 5 35.4481V10.1765Z" fill="#A58167"/>
</mask>
<g mask="url(#mask0_9591_2206)">
<path d="M5 7H32.7783C33.3097 7 33.8327 7.13336 34.2993 7.38786L45.2353 13.3529L5 17.5882V7Z" fill="#FFBE89"/>
<path d="M5 9.80513C5 8.5706 6.34678 7.80807 7.40538 8.44323L15.0742 13.0445C15.3931 13.2359 15.5882 13.5805 15.5882 13.9524V22.3529L20.8824 43H17.0546C16.0951 43 15.1536 42.7392 14.3308 42.2456L6.54219 37.5724C5.58542 36.9983 5 35.9643 5 34.8486V9.80513Z" fill="#CB8347"/>
<path d="M15.5882 14.4119C15.5882 13.8271 16.0622 13.353 16.647 13.353H45.2353V39.8236C45.2353 41.5779 43.8131 43.0001 42.0588 43.0001H18.7647C17.0104 43.0001 15.5882 41.5779 15.5882 39.8236V14.4119Z" fill="#E7A065"/>
<path d="M8.5238 9.11768H39.7294L43.1176 11.2353H12.0691L8.5238 9.11768Z" fill="#5E5E5E"/>
</g>
<path d="M8.52588 9.11768L12.073 11.2353V19.8321C12.073 20.2431 11.6251 20.4973 11.2722 20.2866L8.78395 18.8011C8.62393 18.7056 8.52592 18.5329 8.52592 18.3466L8.52588 9.11768Z" fill="#1D2129"/>
<rect x="19.2941" y="16" width="11.1176" height="12.7059" rx="0.794118" fill="white"/>
<rect x="20.8823" y="17.5883" width="7.94118" height="1.58824" rx="0.794118" fill="#C4C4C4"/>
<rect x="20.8823" y="20.7648" width="4.76471" height="1.58824" rx="0.794118" fill="#C4C4C4"/>
<rect x="20.8823" y="23.9412" width="1.58824" height="3.17647" rx="0.317647" fill="#5E5E5E"/>
<rect x="25.647" y="23.9412" width="1.58824" height="3.17647" rx="0.317647" fill="#5E5E5E"/>
<rect x="23.2647" y="23.9412" width="0.794118" height="3.17647" rx="0.317647" fill="#5E5E5E"/>
<rect x="24.8529" y="23.9412" width="0.397059" height="3.17647" rx="0.198529" fill="#5E5E5E"/>
<rect x="28.0294" y="23.9412" width="0.794118" height="3.17647" rx="0.317647" fill="#5E5E5E"/>
<rect x="18.7647" y="38.7648" width="3.17647" height="1.05882" fill="#1D2129"/>
<rect x="18.7647" y="35.5883" width="3.17647" height="2.11765" fill="#1D2129"/>
<path d="M22.9999 35.5882H17.7058L20.3529 32.4117L22.9999 35.5882Z" fill="#1D2129"/>
<path d="M39.8735 32.9168L39.3162 32.0499L38.7589 32.9168L35.7807 37.5496L31.2187 44.3926C30.0447 46.1536 31.3071 48.5125 33.4236 48.5125H45.2088C47.3253 48.5125 48.5878 46.1536 47.4137 44.3926L42.8518 37.5496L39.8735 32.9168Z" fill="#DCDCDC" stroke="#DCDCDC" stroke-width="1.325"/>
<mask id="mask1_9591_2206" style="mask-type:alpha" maskUnits="userSpaceOnUse" x="31" y="37" width="17" height="11">
<path d="M36.335 37.9125H42.2975L46.8625 44.76C47.743 46.0808 46.7962 47.85 45.2088 47.85H33.4236C31.8362 47.85 30.8894 46.0808 31.7699 44.76L36.335 37.9125Z" fill="#DCDCDC"/>
</mask>
<g mask="url(#mask1_9591_2206)">
<path d="M48.9225 44.2063C39.3162 45.8626 42.6286 39.2375 31.0349 40.2313C19.4413 41.2251 26.8981 49.8376 26.8981 49.8376H50.0856C50.0856 49.8376 58.5288 42.55 48.9225 44.2063Z" fill="#003EBD"/>
<path d="M31.0349 41.5563C39.6475 47.1876 39.3161 37.25 47.5974 39.5688C55.8787 41.8875 50.2474 49.8375 50.2474 49.8375H27.0599C27.0599 49.8375 22.4224 35.925 31.0349 41.5563Z" fill="#0053FF"/>
</g>
<rect x="35.0099" y="26.65" width="8.6125" height="2.65" rx="1.325" fill="#DCDCDC"/>
<rect x="36.335" y="26.65" width="5.9625" height="11.925" fill="#DCDCDC"/>
<path d="M36.335 30.625H38.985C39.3508 30.625 39.6475 30.9216 39.6475 31.2875V31.2875C39.6475 31.6534 39.3508 31.95 38.985 31.95H36.335V30.625Z" fill="#868686"/>
<path d="M36.335 33.275H38.985C39.3508 33.275 39.6475 33.5716 39.6475 33.9375V33.9375C39.6475 34.3034 39.3508 34.6 38.985 34.6H36.335V33.275Z" fill="#868686"/>
<circle opacity="0.15" cx="42.2974" cy="43.2125" r="0.6625" fill="white"/>
<circle opacity="0.15" cx="40.31" cy="45.2" r="0.6625" fill="white"/>
<circle opacity="0.25" cx="37.9912" cy="38.9062" r="0.99375" fill="#0053FF"/>
<circle opacity="0.15" cx="40.31" cy="32.6126" r="0.6625" fill="#0053FF"/>
<circle opacity="0.25" cx="40.31" cy="37.25" r="0.6625" fill="#0053FF"/>
<circle opacity="0.15" cx="36.0037" cy="41.5562" r="0.33125" fill="white"/>
<circle opacity="0.15" cx="34.0162" cy="44.8688" r="0.99375" fill="white"/>
</g>
<defs>
<clipPath id="clip0_9591_2206">
<rect width="50" height="50" fill="white"/>
</clipPath>
</defs>
</svg>
