<svg width="50" height="50" viewBox="0 0 50 50" fill="none" xmlns="http://www.w3.org/2000/svg">
<g clip-path="url(#clip0_9591_2208)">
<mask id="mask0_9591_2208" style="mask-type:alpha" maskUnits="userSpaceOnUse" x="5" y="7" width="41" height="36">
<path d="M5 10.1765C5 8.42216 6.42215 7 8.17647 7H33.0482C33.4026 7 33.7512 7.08891 34.0623 7.25857L43.5799 12.45C44.6004 13.0066 45.2353 14.0762 45.2353 15.2386V39.8235C45.2353 41.5778 43.8131 43 42.0588 43H17.0546C16.0951 43 15.1536 42.7392 14.3308 42.2456L6.02813 37.2639C5.39028 36.8812 5 36.1919 5 35.4481V10.1765Z" fill="#A58167"/>
</mask>
<g mask="url(#mask0_9591_2208)">
<path d="M5 7H32.7783C33.3097 7 33.8327 7.13336 34.2993 7.38786L45.2353 13.3529L5 17.5882V7Z" fill="#FFBE89"/>
<path d="M5 9.80513C5 8.5706 6.34678 7.80807 7.40538 8.44323L15.0742 13.0445C15.3931 13.2359 15.5882 13.5805 15.5882 13.9524V22.3529L20.8824 43H17.0546C16.0951 43 15.1536 42.7392 14.3308 42.2456L6.54219 37.5724C5.58542 36.9983 5 35.9643 5 34.8486V9.80513Z" fill="#CB8347"/>
<path d="M15.5882 14.4119C15.5882 13.8271 16.0622 13.353 16.647 13.353H45.2353V39.8236C45.2353 41.5779 43.8131 43.0001 42.0588 43.0001H18.7647C17.0104 43.0001 15.5882 41.5779 15.5882 39.8236V14.4119Z" fill="#E7A065"/>
<path d="M8.5238 9.11768H39.7294L43.1176 11.2353H12.0691L8.5238 9.11768Z" fill="#5E5E5E"/>
</g>
<path d="M8.52588 9.11768L12.073 11.2353V19.8321C12.073 20.2431 11.6251 20.4973 11.2722 20.2866L8.78395 18.8011C8.62393 18.7056 8.52592 18.5329 8.52592 18.3466L8.52588 9.11768Z" fill="#1D2129"/>
<rect x="19.2941" y="16" width="11.1176" height="12.7059" rx="0.794118" fill="white"/>
<rect x="20.8823" y="17.5883" width="7.94118" height="1.58824" rx="0.794118" fill="#C4C4C4"/>
<rect x="20.8823" y="20.7648" width="4.76471" height="1.58824" rx="0.794118" fill="#C4C4C4"/>
<rect x="20.8823" y="23.9412" width="1.58824" height="3.17647" rx="0.317647" fill="#5E5E5E"/>
<rect x="25.647" y="23.9412" width="1.58824" height="3.17647" rx="0.317647" fill="#5E5E5E"/>
<rect x="23.2647" y="23.9412" width="0.794118" height="3.17647" rx="0.317647" fill="#5E5E5E"/>
<rect x="24.8529" y="23.9412" width="0.397059" height="3.17647" rx="0.198529" fill="#5E5E5E"/>
<rect x="28.0294" y="23.9412" width="0.794118" height="3.17647" rx="0.317647" fill="#5E5E5E"/>
<rect x="18.7647" y="38.7648" width="3.17647" height="1.05882" fill="#1D2129"/>
<rect x="18.7647" y="35.5883" width="3.17647" height="2.11765" fill="#1D2129"/>
<path d="M22.9999 35.5882H17.7058L20.3529 32.4117L22.9999 35.5882Z" fill="#1D2129"/>
<path d="M33.5735 31.3921H43.5319C43.8248 39.0074 39.1385 41.0576 39.1385 41.0576C35.0379 41.3505 30.0587 40.1789 30.0587 40.1789C35.9166 38.4216 33.5735 39.0074 33.5735 39.0074L32.109 37.25C35.3308 36.3713 33.5735 31.3921 33.5735 31.3921Z" fill="#000716"/>
<mask id="mask1_9591_2208" style="mask-type:alpha" maskUnits="userSpaceOnUse" x="31" y="38" width="15" height="11">
<path fill-rule="evenodd" clip-rule="evenodd" d="M44.724 47.9665C42.9688 48.2801 41.0201 48.38 39.1384 48.38C36.6518 48.38 34.0481 48.2055 31.9286 47.5939C31.7988 46.1111 31.7755 44.5779 31.7819 43.1269C31.7912 41.0345 33.2012 39.1762 35.2582 38.7932C36.3664 38.5868 37.5628 38.4216 38.5527 38.4216C39.5426 38.4216 40.739 38.5868 41.8472 38.7932C43.9042 39.1762 45.3163 41.0358 45.2231 43.1261C45.1529 44.6992 45.0104 46.369 44.724 47.9665Z" fill="#C4C4C4"/>
</mask>
<g mask="url(#mask1_9591_2208)">
<path fill-rule="evenodd" clip-rule="evenodd" d="M31.7819 43.1269C31.7912 41.0345 33.2012 39.1762 35.2582 38.7932C36.3664 38.5868 37.5628 38.4216 38.5527 38.4216C39.5426 38.4216 40.739 38.5868 41.8472 38.7932C43.9042 39.1762 45.3163 41.0358 45.2231 43.1261C45.2147 43.314 45.2053 43.5033 45.1947 43.6937H41.4816V52.4805H43.3065C42.223 54.5719 40.5496 55.9953 37.9669 55.9953C34.9261 55.9953 33.3651 54.0223 32.5727 51.309H35.0379V47.2084L31.8682 46.7858C31.7914 45.5596 31.7766 44.3156 31.7819 43.1269Z" fill="#0053FF"/>
<path d="M36.7953 38.4216H40.31V38.4216C40.31 39.1102 39.8428 39.7221 39.1624 39.8272C38.9385 39.8618 38.7213 39.8861 38.5527 39.8861C38.384 39.8861 38.1668 39.8618 37.943 39.8272C37.2625 39.7221 36.7953 39.1102 36.7953 38.4216V38.4216Z" fill="#FECDA9"/>
</g>
<circle cx="38.5526" cy="31.0992" r="4.97921" fill="#000716"/>
<path d="M34.1592 31.685C34.1592 29.2586 36.1262 27.2916 38.5527 27.2916V27.2916C40.9791 27.2916 42.9461 29.2586 42.9461 31.685V33.4424C42.9461 35.8688 40.9791 37.8358 38.5527 37.8358V37.8358C36.1262 37.8358 34.1592 35.8688 34.1592 33.4424V31.685Z" fill="#FECDA9"/>
<path d="M37.674 34.321H39.4313V38.4216C39.4313 38.9069 39.0379 39.3003 38.5526 39.3003V39.3003C38.0674 39.3003 37.674 38.9069 37.674 38.4216V34.321Z" fill="#FECDA9"/>
<path d="M42.9461 30.2205C39.4313 30.2205 38.2597 35.7855 32.4019 34.9069C34.1592 32.2708 32.6948 29.9277 35.0379 27.5845L35.6237 27.2916L38.5526 26.7058L42.0674 27.8774L42.9461 30.2205Z" fill="#000716"/>
<path fill-rule="evenodd" clip-rule="evenodd" d="M35.3881 48.2155C33.1962 48.0003 31.1514 47.5408 29.6824 46.6495C30.0226 45.7769 30.9169 45.1581 31.9104 45.1581H33.082C34.3761 45.1581 35.502 46.208 35.454 47.5012C35.4447 47.7531 35.4248 47.992 35.3881 48.2155Z" fill="#DCDCDC"/>
<path d="M29.1801 40.9868C29.1801 39.6525 30.1802 38.5226 31.5028 38.3462V38.3462C33.3447 38.1006 34.8849 39.7683 34.4671 41.5789V41.5789C34.2422 42.5532 33.4797 43.3218 32.5097 43.5643V43.5643C30.8294 43.9843 29.1801 42.7189 29.1801 40.9868V40.9868Z" fill="#000716"/>
<path d="M30.0002 40.7062C30.0002 39.1209 31.2853 37.8358 32.8706 37.8358H33.3771C34.6826 37.8358 35.7409 38.8941 35.7409 40.1996V41.663C35.7409 42.7198 34.8842 43.5766 33.8273 43.5766H32.8706C31.2853 43.5766 30.0002 42.2914 30.0002 40.7062V40.7062Z" fill="#000716"/>
<path d="M31.6904 43.5765H33.3306V45.2167C33.3306 45.6697 32.9635 46.0369 32.5105 46.0369V46.0369C32.0576 46.0369 31.6904 45.6697 31.6904 45.2167V43.5765Z" fill="#FECDA9"/>
<path d="M30.0502 41.9364C30.0502 40.5776 31.1518 39.4761 32.5105 39.4761V39.4761C33.8693 39.4761 34.9709 40.5776 34.9709 41.9364V42.7565C34.9709 44.1153 33.8693 45.2168 32.5105 45.2168V45.2168C31.1518 45.2168 30.0502 44.1153 30.0502 42.7565V41.9364Z" fill="#FECDA9"/>
<path d="M30.4102 40.2961C30.8203 42.3464 35.038 41.6434 35.6238 41.0576L33.6906 38.6559H32.0504L30.4102 40.2961Z" fill="#000716"/>
<path fill-rule="evenodd" clip-rule="evenodd" d="M41.4227 48.3242C41.0824 47.5565 40.8576 46.6203 40.7309 45.5391C40.5604 44.084 41.5108 42.744 42.9475 42.4568C43.598 42.3267 44.3134 42.2292 44.9964 42.2292C45.6793 42.2292 46.3948 42.3267 47.0453 42.4568C48.4819 42.744 49.4324 44.084 49.2618 45.5391C49.2326 45.7884 49.1982 46.0299 49.1584 46.2634C47.3889 47.6349 44.4541 48.1662 41.4227 48.3242Z" fill="#DCDCDC"/>
<rect x="40.8409" y="33.1495" width="8.78684" height="8.78684" rx="4.39342" fill="#1D2129"/>
<path d="M44.3557 40.9149H46.113V42.2292C46.113 42.7145 45.7196 43.1079 45.2343 43.1079V43.1079C44.7491 43.1079 44.3557 42.7145 44.3557 42.2292V40.9149Z" fill="#A07A57"/>
<path d="M42.5983 38.7144C42.5983 37.2586 43.7785 36.0784 45.2344 36.0784V36.0784C46.6902 36.0784 47.8704 37.2586 47.8704 38.7144V39.3002C47.8704 40.7561 46.6902 41.9363 45.2344 41.9363V41.9363C43.7785 41.9363 42.5983 40.7561 42.5983 39.3002V38.7144Z" fill="#A07A57"/>
<path d="M48.6966 36.7009C48.6966 36.9891 46.4059 38.1287 42.0276 37.5654L44.2506 33.6752H46.029L48.6966 36.7009Z" fill="#1D2129"/>
</g>
<defs>
<clipPath id="clip0_9591_2208">
<rect width="50" height="50" fill="white"/>
</clipPath>
</defs>
</svg>
