<svg width="50" height="50" viewBox="0 0 50 50" fill="none" xmlns="http://www.w3.org/2000/svg">
<g clip-path="url(#clip0_9591_2207)">
<mask id="mask0_9591_2207" style="mask-type:alpha" maskUnits="userSpaceOnUse" x="5" y="7" width="41" height="36">
<path d="M5 10.1765C5 8.42216 6.42215 7 8.17647 7H33.0482C33.4026 7 33.7512 7.08891 34.0623 7.25857L43.5799 12.45C44.6004 13.0066 45.2353 14.0762 45.2353 15.2386V39.8235C45.2353 41.5778 43.8131 43 42.0588 43H17.0546C16.0951 43 15.1536 42.7392 14.3308 42.2456L6.02813 37.2639C5.39028 36.8812 5 36.1919 5 35.4481V10.1765Z" fill="#A58167"/>
</mask>
<g mask="url(#mask0_9591_2207)">
<path d="M5 7H32.7783C33.3097 7 33.8327 7.13336 34.2993 7.38786L45.2353 13.3529L5 17.5882V7Z" fill="#FFBE89"/>
<path d="M5 9.80513C5 8.5706 6.34678 7.80807 7.40538 8.44323L15.0742 13.0445C15.3931 13.2359 15.5882 13.5805 15.5882 13.9524V22.3529L20.8824 43H17.0546C16.0951 43 15.1536 42.7392 14.3308 42.2456L6.54219 37.5724C5.58542 36.9983 5 35.9643 5 34.8486V9.80513Z" fill="#CB8347"/>
<path d="M15.5882 14.4119C15.5882 13.8271 16.0622 13.353 16.647 13.353H45.2353V39.8236C45.2353 41.5779 43.8131 43.0001 42.0588 43.0001H18.7647C17.0104 43.0001 15.5882 41.5779 15.5882 39.8236V14.4119Z" fill="#E7A065"/>
<path d="M8.5238 9.11768H39.7294L43.1176 11.2353H12.0691L8.5238 9.11768Z" fill="#5E5E5E"/>
</g>
<path d="M8.52588 9.11768L12.073 11.2353V19.8321C12.073 20.2431 11.6251 20.4973 11.2722 20.2866L8.78395 18.8011C8.62393 18.7056 8.52592 18.5329 8.52592 18.3466L8.52588 9.11768Z" fill="#1D2129"/>
<rect x="19.2941" y="16" width="11.1176" height="12.7059" rx="0.794118" fill="white"/>
<rect x="20.8823" y="17.5883" width="7.94118" height="1.58824" rx="0.794118" fill="#C4C4C4"/>
<rect x="20.8823" y="20.7648" width="4.76471" height="1.58824" rx="0.794118" fill="#C4C4C4"/>
<rect x="20.8823" y="23.9412" width="1.58824" height="3.17647" rx="0.317647" fill="#5E5E5E"/>
<rect x="25.647" y="23.9412" width="1.58824" height="3.17647" rx="0.317647" fill="#5E5E5E"/>
<rect x="23.2647" y="23.9412" width="0.794118" height="3.17647" rx="0.317647" fill="#5E5E5E"/>
<rect x="24.8529" y="23.9412" width="0.397059" height="3.17647" rx="0.198529" fill="#5E5E5E"/>
<rect x="28.0294" y="23.9412" width="0.794118" height="3.17647" rx="0.317647" fill="#5E5E5E"/>
<rect x="18.7647" y="38.7648" width="3.17647" height="1.05882" fill="#1D2129"/>
<rect x="18.7647" y="35.5883" width="3.17647" height="2.11765" fill="#1D2129"/>
<path d="M22.9999 35.5882H17.7058L20.3529 32.4117L22.9999 35.5882Z" fill="#1D2129"/>
<path d="M33.155 32.215L47.995 32.745" stroke="#DCDCDC" stroke-width="0.53"/>
<path d="M34.48 35.13H47.73" stroke="#DCDCDC" stroke-width="0.53"/>
<path d="M36.865 29.83L38.19 38.045" stroke="#DCDCDC" stroke-width="0.53"/>
<path d="M40.575 29.83L41.105 37.25" stroke="#DCDCDC" stroke-width="0.53"/>
<path d="M44.02 30.36V36.985" stroke="#DCDCDC" stroke-width="0.53"/>
<path d="M32.9324 31.2133C32.7789 30.5224 33.3327 29.8779 34.0389 29.9258L47.7658 30.8565C48.044 30.8753 48.26 31.1064 48.26 31.3852V37.0527C48.26 37.3176 48.0645 37.5418 47.8021 37.5778L35.7121 39.2372C35.1656 39.3122 34.6529 38.9555 34.5332 38.417L32.9324 31.2133Z" fill="#DCDCDC" stroke="#DCDCDC" stroke-width="1.06"/>
<path d="M31.83 27.4449L40.31 39.6349" stroke="#C4C4C4" stroke-width="1.06"/>
<circle cx="36.07" cy="45.73" r="2.12" fill="#1D2129"/>
<circle cx="46.14" cy="45.73" r="2.12" fill="#1D2129"/>
<path d="M35.54 43.08V44.349C35.54 44.5583 35.6019 44.7629 35.718 44.937L36.07 45.465" stroke="#C4C4C4" stroke-width="1.59" stroke-linecap="round" stroke-linejoin="round"/>
<path d="M45.61 43.08V44.349C45.61 44.5583 45.6719 44.7629 45.788 44.937L46.14 45.465" stroke="#C4C4C4" stroke-width="1.59" stroke-linecap="round" stroke-linejoin="round"/>
<path d="M29.18 26.915H30.5824C31.3148 26.915 31.9525 27.4154 32.1268 28.1268L35.01 39.9" stroke="#868686" stroke-width="1.59" stroke-linecap="round" stroke-linejoin="round"/>
<path d="M28.65 26.915H29.975" stroke="#0053FF" stroke-width="1.59" stroke-linecap="round" stroke-linejoin="round"/>
<path d="M46.14 42.815H34.9994C34.6749 42.815 34.3719 42.6528 34.1919 42.3828V42.3828C33.5928 41.4841 34.1467 40.2689 35.218 40.1315L43.225 39.105" stroke="#868686" stroke-width="1.06" stroke-linecap="round" stroke-linejoin="round"/>
</g>
<defs>
<clipPath id="clip0_9591_2207">
<rect width="50" height="50" fill="white"/>
</clipPath>
</defs>
</svg>
