<svg width="50" height="50" viewBox="0 0 50 50" fill="none" xmlns="http://www.w3.org/2000/svg">
<path d="M21 8L39 26L23.1213 41.8787C21.9497 43.0503 20.0503 43.0503 18.8787 41.8787L5.12132 28.1213C3.94975 26.9497 3.94975 25.0503 5.12132 23.8787L21 8Z" fill="#DCDCDC"/>
<path d="M39 40.5V26L26 12.5L40.7345 18.751C41.9037 19.247 42.9842 19.9304 43.9334 20.7741C45.7735 22.4098 46.3906 25.0236 45.4762 27.3095L44.3914 30.0214C44.1329 30.6679 44 31.3577 44 32.054V40.5C44 41.8807 42.8807 43 41.5 43C40.1193 43 39 41.8807 39 40.5Z" fill="#0053FF"/>
<path d="M9 19L12 18.5" stroke="#000716" stroke-width="2"/>
<path d="M21 8L30 17L39 26" stroke="#000716" stroke-width="3" stroke-linecap="round"/>
<path d="M15.5 13.5L7 22L20.0858 35.0858C20.8668 35.8668 22.1332 35.8668 22.9142 35.0858L28.5858 29.4142C29.3668 28.6332 29.3668 27.3668 28.5858 26.5858L15.5 13.5Z" fill="#868686"/>
<path d="M27.2631 20.9648C27.7959 20.8194 28.1101 20.2697 27.9648 19.7369C27.8194 19.2041 27.2697 18.8899 26.7369 19.0352L27.2631 20.9648ZM6.11726 20.1127L5.43832 20.8469L6.11726 20.1127ZM6.49563 20.4312L9.1644 19.9864L8.8356 18.0136L6.16684 18.4584L6.49563 20.4312ZM5.43832 20.8469C6.8548 22.1568 9.02351 22.7133 11.2593 22.91C13.5339 23.1102 16.0761 22.9532 18.4282 22.6657C20.7873 22.3772 22.9927 21.9525 24.6056 21.6009C25.4131 21.4249 26.0744 21.2667 26.5352 21.1521C26.7656 21.0948 26.946 21.0484 27.0696 21.0161C27.1313 21 27.1789 20.9874 27.2115 20.9787C27.2277 20.9743 27.2402 20.971 27.2489 20.9686C27.2532 20.9675 27.2566 20.9665 27.2589 20.9659C27.2601 20.9656 27.2611 20.9653 27.2618 20.9651C27.2621 20.965 27.2624 20.9649 27.2626 20.9649C27.2629 20.9648 27.2631 20.9648 27 20C26.7369 19.0352 26.737 19.0352 26.737 19.0352C26.7369 19.0352 26.7369 19.0352 26.7367 19.0353C26.7364 19.0354 26.7359 19.0355 26.7351 19.0357C26.7336 19.0361 26.731 19.0368 26.7275 19.0378C26.7206 19.0396 26.7097 19.0426 26.6952 19.0465C26.666 19.0542 26.622 19.0659 26.5638 19.0811C26.4475 19.1115 26.2748 19.156 26.0526 19.2112C25.6081 19.3217 24.9657 19.4755 24.1797 19.6468C22.6055 19.99 20.4643 20.4018 18.1855 20.6804C15.8997 20.9599 13.5125 21.1006 11.4346 20.9177C9.31777 20.7315 7.71066 20.2242 6.79621 19.3786L5.43832 20.8469ZM5 19.8358C5 20.1942 5.13843 20.5696 5.43832 20.8469L6.79621 19.3786C6.94172 19.5131 7 19.6877 7 19.8358H5ZM6.16684 18.4584C5.49351 18.5706 5 19.1532 5 19.8358H7C7 20.1309 6.78668 20.3827 6.49563 20.4312L6.16684 18.4584Z" fill="#000716"/>
<path d="M27 22C28.1046 22 29 21.1046 29 20C29 18.8954 28.1046 18 27 18C25.8954 18 25 18.8954 25 20C25 21.1046 25.8954 22 27 22Z" fill="#000716"/>
</svg>
