<svg width="50" height="50" viewBox="0 0 50 50" fill="none" xmlns="http://www.w3.org/2000/svg">
<g clip-path="url(#clip0_6855:705)">
<path fill-rule="evenodd" clip-rule="evenodd" d="M6.73677 11.7176C11.2119 6.33491 23.3721 3.44019 34.5219 12.7101C45.6717 21.9801 45.0458 34.4644 40.5707 39.8471C39.2051 41.4895 36.9952 40.8239 35.3088 39.5131L29.2828 34.8292C28.616 34.3109 27.7348 34.1587 26.9327 34.4233C25.3318 34.9513 24.6825 36.8658 25.6318 38.2588L26.5575 39.6171C27.1576 40.4977 27.3933 41.629 26.7762 42.4978C25.456 44.3564 21.9725 46.4926 13.5544 39.4938C1.6357 29.5845 2.26162 17.1002 6.73677 11.7176ZM30.8721 30.3485C32.4345 31.8327 34.7037 31.9804 35.9406 30.6785C37.1774 29.3765 36.9135 27.1178 35.3511 25.6336C33.7888 24.1494 31.5195 24.0016 30.2827 25.3036C29.0458 26.6056 29.3097 28.8643 30.8721 30.3485Z" fill="#DCDCDC"/>
<path d="M13.8402 30.6497L13.4915 31.5216C12.9311 32.9225 13.5381 34.519 14.8876 35.1937L15.0079 35.2539C15.3316 35.4157 15.6132 35.6507 15.8303 35.9403L16.8116 37.2486C17.5253 38.2002 19.0139 37.9586 19.39 36.8302C19.4624 36.6131 19.5844 36.4157 19.7463 36.2539L20.535 35.4651C21.4763 34.5239 21.1692 32.9296 19.9457 32.4053C19.3565 32.1527 18.9364 31.6176 18.831 30.9852L18.804 30.8232C18.6286 29.7711 17.7184 29 16.6518 29H16.2769C15.2038 29 14.2388 29.6533 13.8402 30.6497Z" fill="#0053FF"/>
<path d="M10.0354 19.8732L8.70845 20.463C7.9566 20.7971 7.42948 21.4945 7.31312 22.309C7.1365 23.5453 7.94152 24.7092 9.16066 24.9801L9.5058 25.0568C10.6917 25.3203 11.911 24.781 12.5137 23.7262L12.9027 23.0455C13.2759 22.3923 13.298 21.5958 12.9616 20.923C12.4237 19.8471 11.1346 19.3847 10.0354 19.8732Z" fill="#8CB2FF"/>
<path d="M28.4836 12.7096L27.6405 12.4687C26.6691 12.1911 25.6314 12.59 25.0959 13.4467C24.2969 14.7252 24.9737 16.421 26.4233 16.8352C26.798 16.9422 27.1447 17.1446 27.4202 17.4201L27.6614 17.6613C28.6239 18.6238 30.2204 18.4917 31.0116 17.384C31.5939 16.5687 31.5527 15.4631 30.9113 14.6934L30.1769 13.8122C29.736 13.283 29.1459 12.8988 28.4836 12.7096Z" fill="#002573"/>
<path d="M17.0756 11.2877L16.7016 11.1008C15.4665 10.4832 13.9641 10.9381 13.2789 12.1371L13.0516 12.5349C12.7071 13.1378 12.6867 13.8731 12.9972 14.4942L13.6874 15.8746C14.0608 16.6214 15.0895 16.7141 15.5905 16.0462C15.8421 15.7106 16.2598 15.5433 16.6736 15.6122L17.1572 15.6928C18.1845 15.8641 19.1623 15.1892 19.3665 14.1679L19.5932 13.0346C19.7868 12.0667 18.9334 11.2133 17.9655 11.4069C17.6639 11.4672 17.3507 11.4253 17.0756 11.2877Z" fill="#000716"/>
<path d="M38.9662 38.0205L37.0252 37.5384C37.0252 37.5384 37.1364 30.8685 38.9445 23.5897C40.4187 17.6548 43.3415 10.0247 44.3705 7.40945C44.5806 6.87551 45.1531 6.5849 45.71 6.72322C46.2669 6.86155 46.6368 7.38626 46.5727 7.95646C46.2584 10.7493 45.2712 18.8602 43.797 24.795C41.989 32.0738 38.9662 38.0205 38.9662 38.0205Z" fill="#E7A065"/>
<mask id="mask0_6855:705" style="mask-type:alpha" maskUnits="userSpaceOnUse" x="37" y="6" width="10" height="33">
<path d="M38.9662 38.0205L37.0252 37.5384C37.0252 37.5384 37.1364 30.8685 38.9445 23.5897C40.4187 17.6548 43.3415 10.0247 44.3705 7.40945C44.5806 6.87551 45.1531 6.5849 45.71 6.72322C46.2669 6.86155 46.6368 7.38626 46.5727 7.95646C46.2584 10.7493 45.2712 18.8602 43.797 24.795C41.989 32.0738 38.9662 38.0205 38.9662 38.0205Z" fill="#E99C5C"/>
</mask>
<g mask="url(#mask0_6855:705)">
<path d="M40.422 38.3821L35.5695 37.1768L37.0159 31.3537C37.0159 31.3537 38.5922 31.2301 39.5627 31.4712C40.5332 31.7122 41.8684 32.5591 41.8684 32.5591L40.422 38.3821Z" fill="#E7E7E7"/>
</g>
<path d="M34.4464 39.6238C34.7792 38.2838 36.2559 36.9821 38.0811 37.4355C39.9064 37.8889 40.6023 39.7303 40.2694 41.0703C39.4544 44.3513 36.0244 46.1848 34.4557 45.8085C36.1494 43.138 33.7519 42.4196 34.4464 39.6238Z" fill="#000716"/>
<mask id="mask1_6855:705" style="mask-type:alpha" maskUnits="userSpaceOnUse" x="34" y="37" width="7" height="9">
<path d="M34.4464 39.6238C34.7792 38.2838 36.2559 36.9821 38.0811 37.4355C39.9064 37.8889 40.6023 39.7303 40.2694 41.0703C39.4544 44.3513 36.0244 46.1848 34.4557 45.8085C36.1494 43.138 33.7519 42.4196 34.4464 39.6238Z" fill="#000716"/>
</mask>
<g mask="url(#mask1_6855:705)">
<path d="M37.6017 40.0763C34.9539 40.1142 33.7586 40.6842 33.087 41.0073L34.472 48.5294L42.5705 42.1526C41.7501 41.3066 39.7044 40.0462 37.6017 40.0763Z" fill="#0053FF"/>
</g>
</g>
<defs>
<clipPath id="clip0_6855:705">
<rect width="50" height="50" fill="white"/>
</clipPath>
</defs>
</svg>
