<svg width="50" height="50" viewBox="0 0 50 50" fill="none" xmlns="http://www.w3.org/2000/svg">
<path d="M13.5 15.5L41.5 16.5" stroke="#DCDCDC"/>
<path d="M16 21H41" stroke="#DCDCDC"/>
<path d="M20.5 11L23 26.5" stroke="#DCDCDC"/>
<path d="M27.5 11L28.5 25" stroke="#DCDCDC"/>
<path d="M34 12V24.5" stroke="#DCDCDC"/>
<path d="M13.08 13.6101C12.7903 12.3065 13.8353 11.0905 15.1677 11.1809L41.0676 12.9368C41.5925 12.9724 42 13.4085 42 13.9345V24.6279C42 25.1276 41.6311 25.5506 41.136 25.6186L18.3248 28.7495C17.2936 28.8911 16.3262 28.218 16.1004 27.202L13.08 13.6101Z" fill="#DCDCDC" stroke="#DCDCDC" stroke-width="2"/>
<path d="M11 6.5L27 29.5" stroke="#C4C4C4" stroke-width="2"/>
<circle cx="19" cy="41" r="4" fill="#000716"/>
<circle cx="38" cy="41" r="4" fill="#000716"/>
<path d="M18 36V38.3944C18 38.7893 18.1169 39.1753 18.3359 39.5038L19 40.5" stroke="#C4C4C4" stroke-width="3" stroke-linecap="round" stroke-linejoin="round"/>
<path d="M37 36V38.3944C37 38.7893 37.1169 39.1753 37.3359 39.5038L38 40.5" stroke="#C4C4C4" stroke-width="3" stroke-linecap="round" stroke-linejoin="round"/>
<path d="M6 5.5H8.64604C10.028 5.5 11.2312 6.44408 11.5599 7.78639L17 30" stroke="#868686" stroke-width="3" stroke-linecap="round" stroke-linejoin="round"/>
<path d="M5 5.5H7.5" stroke="#0053FF" stroke-width="3" stroke-linecap="round" stroke-linejoin="round"/>
<path d="M38 35.5H16.9799C16.3677 35.5 15.796 35.194 15.4564 34.6846V34.6846C14.326 32.989 15.371 30.696 17.3924 30.4369L32.5 28.5" stroke="#868686" stroke-width="2" stroke-linecap="round" stroke-linejoin="round"/>
<rect x="40.6398" y="26" width="11.0662" height="19.6732" rx="0.614787" transform="rotate(43.8932 40.6398 26)" fill="#307E2F" stroke="#307E2F" stroke-width="1.22957"/>
<rect x="35.0482" y="23.0003" width="12.5218" height="22.2611" rx="0.695658" transform="rotate(26.8307 35.0482 23.0003)" fill="#BAE7B9" stroke="#359933" stroke-width="1.39132"/>
<circle cx="35.6107" cy="35.7581" r="4.17395" transform="rotate(26.8307 35.6107 35.7581)" fill="#359933"/>
<circle cx="38.7505" cy="29.5505" r="1.39132" transform="rotate(26.8307 38.7505 29.5505)" fill="#359933"/>
<circle cx="32.4707" cy="41.966" r="1.39132" transform="rotate(26.8307 32.4707 41.966)" fill="#359933"/>
<path d="M27.7972 43.4997L27.4832 44.1204L25.0001 42.8645L26.2561 40.3814L26.8769 40.6954C27.9054 41.2156 28.3174 42.4711 27.7972 43.4997Z" fill="#359933"/>
<path d="M37.2167 24.8768L37.5306 24.256L35.0476 23L33.7916 25.4831L34.4124 25.7971C35.4409 26.3173 36.6964 25.9053 37.2167 24.8768Z" fill="#359933"/>
<path d="M34.0048 46.6395L33.6908 47.2603L36.1739 48.5163L37.4298 46.0332L36.809 45.7192C35.7805 45.199 34.525 45.611 34.0048 46.6395Z" fill="#359933"/>
<path d="M43.4245 28.0168L43.7385 27.396L46.2215 28.652L44.9656 31.1351L44.3448 30.8211C43.3163 30.3008 42.9042 29.0453 43.4245 28.0168Z" fill="#359933"/>
</svg>
