<svg width="50" height="50" viewBox="0 0 50 50" fill="none" xmlns="http://www.w3.org/2000/svg">
<path d="M43.5001 19C40 21.5 47 24 46.5 18.5" stroke="#FFCAD3" stroke-width="1.5" stroke-linecap="round"/>
<path d="M11.4418 21.4044L11.0789 9.78169C11.0506 8.87573 12.1455 8.39777 12.7858 9.03654L19.6419 15.8757C20.0748 16.3076 20.0194 17.0255 19.525 17.3898L13.0319 22.1733C12.3829 22.6515 11.4669 22.2085 11.4418 21.4044Z" fill="#ECBAC2"/>
<path d="M13.689 33.0262C13.342 31.754 14.2998 30.5 15.6185 30.5H17C18.1046 30.5 19 31.3954 19 32.5V39.7991C19 40.7385 18.2385 41.5 17.2991 41.5C16.5321 41.5 15.86 40.9866 15.6582 40.2467L13.689 33.0262Z" fill="#ECBAC2"/>
<path d="M27.689 33.0262C27.342 31.754 28.2998 30.5 29.6185 30.5H31C32.1046 30.5 33 31.3954 33 32.5V39.7991C33 40.7385 32.2385 41.5 31.2991 41.5C30.5321 41.5 29.86 40.9866 29.6582 40.2467L27.689 33.0262Z" fill="#ECBAC2"/>
<path d="M8 26.6013C8 18.893 14.0474 12.43 21.7554 12.5059C22.7261 12.5154 23.6449 12.5372 24.4688 12.5748C26.3515 12.6609 28.8407 12.8858 31.3503 13.151C37.4637 13.797 42 19.0266 42 25.1741C42 31.9774 36.4775 37.4888 29.6741 37.475L18.8296 37.4529C12.845 37.4408 8 32.5859 8 26.6013Z" fill="#FFCAD3"/>
<path d="M16.8775 36.1325C16.4458 34.8374 17.4097 33.5 18.7749 33.5H20C21.1046 33.5 22 34.3954 22 35.5V40.7566C22 41.7194 21.2194 42.5 20.2566 42.5C19.5062 42.5 18.8399 42.0198 18.6026 41.3079L16.8775 36.1325Z" fill="#FFCAD3"/>
<path d="M30.8775 36.1325C30.4458 34.8374 31.4097 33.5 32.7749 33.5H34C35.1046 33.5 36 34.3954 36 35.5V40.7566C36 41.7194 35.2194 42.5 34.2566 42.5C33.5062 42.5 32.8399 42.0198 32.6026 41.3079L30.8775 36.1325Z" fill="#FFCAD3"/>
<path d="M4 23.5001C4 22.9478 4.45589 22.507 5.00563 22.4541C12.598 21.7226 8.15506 12.5197 24 13L16 28.5001H5C4.44772 28.5001 4 28.0523 4 27.5001V23.5001Z" fill="#FFCAD3"/>
<path d="M15.2805 18.4745L14.9175 6.85176C14.8892 5.9458 15.9841 5.46783 16.6244 6.1066L23.4805 12.9457C23.9134 13.3777 23.858 14.0956 23.3636 14.4598L16.8705 19.2434C16.2215 19.7216 15.3056 19.2786 15.2805 18.4745Z" fill="#FFCAD3"/>
<circle cx="16.5" cy="20.5" r="3" fill="black"/>
<circle cx="20" cy="27" r="5.5" fill="#FFCAD3"/>
<rect x="15" y="18.5" width="2" height="1.5" rx="0.75" fill="white"/>
<path d="M24 15.8965C27.0011 15.2929 31.4989 15.7929 34 17" stroke="#D99DA7" stroke-width="2" stroke-linecap="round"/>
<path d="M40.5 25.0001C46.4391 24.5716 45.7544 18.2536 43.4696 19.0001C42.3628 19.3617 42 22.5 45.0793 21.5" stroke="#FFCAD3" stroke-width="2" stroke-linecap="round"/>
<circle cx="29.25" cy="10.25" r="5.25" fill="#FFC900"/>
<rect x="25.5" y="6.50012" width="7.5" height="7.5" rx="3.75" fill="#FFD432"/>
<circle cx="29.25" cy="10.25" r="5.25" fill="#FFC900"/>
<rect x="25.5" y="6.50012" width="7.5" height="7.5" rx="3.75" fill="#FFD432"/>
<rect x="40.6398" y="26" width="11.0662" height="19.6732" rx="0.614787" transform="rotate(43.8932 40.6398 26)" fill="#307E2F" stroke="#307E2F" stroke-width="1.22957"/>
<rect x="35.0483" y="23.0002" width="12.5218" height="22.2611" rx="0.695658" transform="rotate(26.8307 35.0483 23.0002)" fill="#BAE7B9" stroke="#359933" stroke-width="1.39132"/>
<circle cx="35.6107" cy="35.7582" r="4.17395" transform="rotate(26.8307 35.6107 35.7582)" fill="#359933"/>
<circle cx="38.7506" cy="29.5505" r="1.39132" transform="rotate(26.8307 38.7506 29.5505)" fill="#359933"/>
<circle cx="32.4708" cy="41.9659" r="1.39132" transform="rotate(26.8307 32.4708 41.9659)" fill="#359933"/>
<path d="M27.7972 43.4997L27.4832 44.1205L25.0001 42.8645L26.2561 40.3815L26.8769 40.6955C27.9054 41.2157 28.3174 42.4712 27.7972 43.4997Z" fill="#359933"/>
<path d="M37.2167 24.8768L37.5307 24.256L35.0476 23.0001L33.7917 25.4832L34.4125 25.7971C35.441 26.3174 36.6965 25.9053 37.2167 24.8768Z" fill="#359933"/>
<path d="M34.0048 46.6395L33.6908 47.2603L36.1739 48.5163L37.4299 46.0332L36.8091 45.7192C35.7806 45.199 34.5251 45.611 34.0048 46.6395Z" fill="#359933"/>
<path d="M43.4245 28.0169L43.7385 27.3961L46.2216 28.6521L44.9656 31.1351L44.3449 30.8211C43.3164 30.3009 42.9043 29.0454 43.4245 28.0169Z" fill="#359933"/>
</svg>
