<svg width="50" height="50" viewBox="0 0 50 50" fill="none" xmlns="http://www.w3.org/2000/svg">
<path d="M43.5001 21C40 23.5 47 26 46.5 20.5" stroke="#FFCAD3" stroke-width="1.5" stroke-linecap="round"/>
<path d="M11.4418 23.4044L11.0789 11.7817C11.0506 10.8757 12.1455 10.3978 12.7858 11.0365L19.6419 17.8757C20.0748 18.3076 20.0194 19.0255 19.525 19.3898L13.0319 24.1733C12.3829 24.6515 11.4669 24.2085 11.4418 23.4044Z" fill="#ECBAC2"/>
<path d="M13.689 35.0262C13.342 33.754 14.2998 32.5 15.6185 32.5H17C18.1046 32.5 19 33.3954 19 34.5V41.7991C19 42.7385 18.2385 43.5 17.2991 43.5C16.5321 43.5 15.86 42.9866 15.6582 42.2467L13.689 35.0262Z" fill="#ECBAC2"/>
<path d="M27.689 35.0262C27.342 33.754 28.2998 32.5 29.6185 32.5H31C32.1046 32.5 33 33.3954 33 34.5V41.7991C33 42.7385 32.2385 43.5 31.2991 43.5C30.5321 43.5 29.86 42.9866 29.6582 42.2467L27.689 35.0262Z" fill="#ECBAC2"/>
<path d="M8 28.6013C8 20.893 14.0474 14.43 21.7554 14.5059C22.7261 14.5154 23.6449 14.5372 24.4688 14.5748C26.3515 14.6609 28.8407 14.8858 31.3503 15.151C37.4637 15.797 42 21.0266 42 27.1741C42 33.9774 36.4775 39.4888 29.6741 39.475L18.8296 39.4529C12.845 39.4408 8 34.5859 8 28.6013Z" fill="#FFCAD3"/>
<path d="M16.8775 38.1325C16.4458 36.8374 17.4097 35.5 18.7749 35.5H20C21.1046 35.5 22 36.3954 22 37.5V42.7566C22 43.7194 21.2194 44.5 20.2566 44.5C19.5062 44.5 18.8399 44.0198 18.6026 43.3079L16.8775 38.1325Z" fill="#FFCAD3"/>
<path d="M30.8775 38.1325C30.4458 36.8374 31.4097 35.5 32.7749 35.5H34C35.1046 35.5 36 36.3954 36 37.5V42.7566C36 43.7194 35.2194 44.5 34.2566 44.5C33.5062 44.5 32.8399 44.0198 32.6026 43.3079L30.8775 38.1325Z" fill="#FFCAD3"/>
<path d="M4 25.5001C4 24.9478 4.45589 24.507 5.00563 24.4541C12.598 23.7226 8.15506 14.5197 24 15L16 30.5001H5C4.44772 30.5001 4 30.0523 4 29.5001V25.5001Z" fill="#FFCAD3"/>
<path d="M15.2805 20.4745L14.9175 8.85176C14.8892 7.9458 15.9841 7.46783 16.6244 8.1066L23.4805 14.9457C23.9134 15.3777 23.858 16.0956 23.3636 16.4598L16.8705 21.2434C16.2215 21.7216 15.3056 21.2786 15.2805 20.4745Z" fill="#FFCAD3"/>
<circle cx="16.5" cy="22.5" r="3" fill="black"/>
<circle cx="20" cy="29" r="5.5" fill="#FFCAD3"/>
<rect x="15" y="20.5" width="2" height="1.5" rx="0.75" fill="white"/>
<path d="M24 17.8965C27.0011 17.2929 31.4989 17.7929 34 19" stroke="#D99DA7" stroke-width="2" stroke-linecap="round"/>
<path d="M40.5 27.0001C46.4391 26.5716 45.7544 20.2536 43.4696 21.0001C42.3628 21.3617 42 24.5 45.0793 23.5" stroke="#FFCAD3" stroke-width="2" stroke-linecap="round"/>
<circle cx="29.25" cy="12.25" r="4" fill="#FFAA00"/>
</svg>
