<svg width="50" height="50" viewBox="0 0 50 50" fill="none" xmlns="http://www.w3.org/2000/svg">
<g clip-path="url(#clip0_12568_1097)">
<path d="M10 8C10 6.89543 10.8954 6 12 6H39C40.1046 6 41 6.89543 41 8L41 40C41 41.1046 40.1046 42 39 42H12C10.8954 42 10 41.1046 10 40V8Z" fill="#EAEAEA"/>
<path d="M13 13.5C13 12.6716 13.6716 12 14.5 12H27.5C28.3284 12 29 12.6716 29 13.5V13.5C29 14.3284 28.3284 15 27.5 15H14.5C13.6716 15 13 14.3284 13 13.5V13.5Z" fill="#868686"/>
<path d="M13 28C13 27.4477 13.4477 27 14 27H28C28.5523 27 29 27.4477 29 28V28C29 28.5523 28.5523 29 28 29H14C13.4477 29 13 28.5523 13 28V28Z" fill="#CFCFCF"/>
<path d="M13 24C13 23.4477 13.4477 23 14 23H34C34.5523 23 35 23.4477 35 24V24C35 24.5523 34.5523 25 34 25H14C13.4477 25 13 24.5523 13 24V24Z" fill="#CFCFCF"/>
<path d="M13 32C13 31.4477 13.4477 31 14 31H36C36.5523 31 37 31.4477 37 32V32C37 32.5523 36.5523 33 36 33H14C13.4477 33 13 32.5523 13 32V32Z" fill="#CFCFCF"/>
<path d="M13 36C13 35.4477 13.4477 35 14 35H36C36.5523 35 37 35.4477 37 36V36C37 36.5523 36.5523 37 36 37H14C13.4477 37 13 36.5523 13 36V36Z" fill="#CFCFCF"/>
<path d="M13 17C13 16.4477 13.4477 16 14 16H21C21.5523 16 22 16.4477 22 17V17C22 17.5523 21.5523 18 21 18H14C13.4477 18 13 17.5523 13 17V17Z" fill="#868686"/>
<mask id="mask0_12568_1097" style="mask-type:alpha" maskUnits="userSpaceOnUse" x="24" y="20" width="23" height="27">
<path d="M25.05 24.9774C25.05 24.9359 25.0871 24.9037 25.1284 24.9076C30.7875 25.442 33.9112 22.3119 34.874 21.1344C35.0353 20.9371 35.3648 20.9372 35.5261 21.1344C36.4889 22.3119 39.6126 25.442 45.2717 24.9076C45.313 24.9037 45.35 24.9359 45.35 24.9774L45.35 31.1125C44.6949 41.0217 39.7475 43.1895 35.9599 45.4352C35.4923 45.7124 34.9078 45.7124 34.4402 45.4352C30.6526 43.1895 25.7052 41.0217 25.05 31.1125V24.9774Z" fill="#0046D7" stroke="black" stroke-width="1.4"/>
</mask>
<g mask="url(#mask0_12568_1097)">
<rect x="17" y="16.5" width="35" height="35" fill="#003DBA"/>
<path d="M35.2 16.5H17V51.5H35.2V16.5Z" fill="#0053FF"/>
</g>
<mask id="mask1_12568_1097" style="mask-type:alpha" maskUnits="userSpaceOnUse" x="26" y="23" width="19" height="22">
<path d="M26.1 27.0459C26.1 26.6067 26.4809 26.2655 26.9199 26.2777C30.8589 26.3869 33.4855 24.4508 34.5974 23.4215C34.9246 23.1186 35.4753 23.1186 35.8025 23.4215C36.9145 24.4508 39.5411 26.3869 43.48 26.2777C43.9191 26.2655 44.3 26.6067 44.3 27.0459V31.8654C43.7561 39.8674 39.1808 42.1714 35.9431 44.0563C35.4842 44.3235 34.9157 44.3235 34.4568 44.0563C31.2191 42.1714 26.6439 39.8674 26.1 31.8654V27.0459Z" fill="#C4C4C4"/>
</mask>
<g mask="url(#mask1_12568_1097)">
<path d="M35.2 21.05L45.7 24.2V32.6C45.7 32.6 40.8 34 35.2 34V21.05Z" fill="#DCDCDC"/>
<path d="M35.2 34C29.6 34 24.6999 32.6 24.6999 32.6V39.6L30.3 45.2L35.2 48V34Z" fill="white"/>
</g>
</g>
<defs>
<clipPath id="clip0_12568_1097">
<rect width="50" height="50" fill="white"/>
</clipPath>
</defs>
</svg>
