<svg width="50" height="50" viewBox="0 0 50 50" fill="none" xmlns="http://www.w3.org/2000/svg">
<g clip-path="url(#clip0_13458_716)">
<path d="M14.0666 15.9604H36.6586C37.3231 33.2367 26.6915 37.888 26.6915 37.888C17.3889 38.5525 15.3955 36.5591 15.3955 36.5591C28.685 32.5722 14.7311 34.5656 14.7311 34.5656L10.7442 29.2499C18.0534 27.2565 14.0666 15.9604 14.0666 15.9604Z" fill="#000716"/>
<mask id="mask0_13458_716" style="mask-type:alpha" maskUnits="userSpaceOnUse" x="10" y="31" width="31" height="15">
<path fill-rule="evenodd" clip-rule="evenodd" d="M40.4005 44.3936C35.8239 45.5268 30.411 45.8617 25.2225 45.8617C20.0179 45.8617 14.5875 45.5248 10.0019 44.3831C9.99914 43.7779 9.99958 43.177 10.0022 42.5822C10.0233 37.8354 13.222 33.6195 17.8886 32.7506C20.4027 32.2825 23.1169 31.9077 25.3626 31.9077C27.6083 31.9077 30.3225 32.2825 32.8367 32.7506C37.5032 33.6195 40.7069 37.8384 40.4953 42.5804C40.4686 43.1793 40.4373 43.7843 40.4005 44.3936Z" fill="#002573"/>
</mask>
<g mask="url(#mask0_13458_716)">
<path d="M10.0022 42.5822C10.0233 37.8354 13.222 33.6195 17.8886 32.7506C20.4027 32.2825 23.1169 31.9077 25.3626 31.9077C27.6083 31.9077 30.3225 32.2825 32.8367 32.7506C37.5032 33.6195 40.7069 37.8384 40.4953 42.5804C39.9101 55.697 37.1082 71.776 24.0337 71.776C10.9597 71.776 9.94386 55.6984 10.0022 42.5822Z" fill="#DCDCDC"/>
<path d="M21.3758 31.9077H29.3495C29.3495 33.4698 28.2896 34.8581 26.7458 35.0965C26.238 35.175 25.7452 35.2301 25.3626 35.2301C24.98 35.2301 24.4872 35.175 23.9794 35.0965C22.4357 34.8581 21.3758 33.4698 21.3758 31.9077Z" fill="#FECDA9"/>
</g>
<circle cx="25.3626" cy="15.296" r="11.296" fill="#000716"/>
<path d="M15.3954 16.625C15.3954 11.1204 19.8579 6.65796 25.3625 6.65796C30.8672 6.65796 35.3296 11.1204 35.3296 16.625V20.6119C35.3296 26.1165 30.8672 30.5789 25.3625 30.5789C19.8579 30.5789 15.3954 26.1165 15.3954 20.6119V16.625Z" fill="#FECDA9"/>
<path d="M23.3691 22.6052H27.356V31.9078C27.356 33.0088 26.4635 33.9012 25.3626 33.9012C24.2616 33.9012 23.3691 33.0088 23.3691 31.9078V22.6052Z" fill="#FECDA9"/>
<path d="M35.3296 13.3025C27.356 13.3025 24.6981 25.9275 11.4087 23.9341C15.3955 17.9538 12.0731 12.638 17.3889 7.32227L18.7178 6.6578L25.3626 5.32886L33.3362 7.98674L35.3296 13.3025Z" fill="#000716"/>
<path fill-rule="evenodd" clip-rule="evenodd" d="M36.5674 32.2348C37.0395 30.8765 38.9604 30.8765 39.4326 32.2348L41.0298 36.8298L45.8936 36.929C47.3313 36.9583 47.9249 38.7852 46.779 39.6539L42.9024 42.5929L44.3111 47.2493C44.7275 48.6257 43.1734 49.7547 41.9931 48.9334L38 46.1547L34.0069 48.9334C32.8265 49.7547 31.2725 48.6257 31.6889 47.2493L33.0976 42.5929L29.221 39.6539C28.0751 38.7852 28.6687 36.9583 30.1064 36.929L34.9701 36.8298L36.5674 32.2348Z" fill="#FFC900"/>
</g>
<defs>
<clipPath id="clip0_13458_716">
<rect width="50" height="50" fill="white"/>
</clipPath>
</defs>
</svg>
