<svg width="50" height="50" viewBox="0 0 50 50" fill="none" xmlns="http://www.w3.org/2000/svg">
<rect x="10" y="10" width="30" height="30" rx="2.3537" fill="white"/>
<path fill-rule="evenodd" clip-rule="evenodd" d="M12.5 13.75C12.5 13.0596 13.0596 12.5 13.75 12.5H22.5C23.1904 12.5 23.75 13.0596 23.75 13.75V22.5C23.75 23.1904 23.1904 23.75 22.5 23.75H13.75C13.0596 23.75 12.5 23.1904 12.5 22.5V13.75ZM21.25 15H15V21.25H21.25V15ZM27.5 12.5C26.8096 12.5 26.25 13.0596 26.25 13.75V22.5C26.25 23.1904 26.8096 23.75 27.5 23.75H36.25C36.9404 23.75 37.5 23.1904 37.5 22.5V13.75C37.5 13.0596 36.9404 12.5 36.25 12.5H27.5ZM35 21.25H28.75V15H35V21.25ZM13.75 26.25C13.0596 26.25 12.5 26.8096 12.5 27.5V36.25C12.5 36.9404 13.0596 37.5 13.75 37.5H22.5C23.1904 37.5 23.75 36.9404 23.75 36.25V27.5C23.75 26.8096 23.1904 26.25 22.5 26.25H13.75ZM21.25 35H15V28.75H21.25V35ZM33.75 34.375C33.75 34.0298 34.0298 33.75 34.375 33.75H36.875C37.2202 33.75 37.5 34.0298 37.5 34.375V36.875C37.5 37.2202 37.2202 37.5 36.875 37.5H34.375C34.0298 37.5 33.75 37.2202 33.75 36.875V34.375ZM30.625 30C30.2798 30 30 30.2798 30 30.625V33.125C30 33.4702 30.2798 33.75 30.625 33.75H33.125C33.4702 33.75 33.75 33.4702 33.75 33.125V30.625C33.75 30.2798 33.4702 30 33.125 30H30.625ZM26.25 34.375C26.25 34.0298 26.5298 33.75 26.875 33.75H29.375C29.7202 33.75 30 34.0298 30 34.375V36.875C30 37.2202 29.7202 37.5 29.375 37.5H26.875C26.5298 37.5 26.25 37.2202 26.25 36.875V34.375ZM26.875 26.25C26.5298 26.25 26.25 26.5298 26.25 26.875V29.375C26.25 29.7202 26.5298 30 26.875 30H29.375C29.7202 30 30 29.7202 30 29.375V26.875C30 26.5298 29.7202 26.25 29.375 26.25H26.875ZM33.75 26.875C33.75 26.5298 34.0298 26.25 34.375 26.25H36.875C37.2202 26.25 37.5 26.5298 37.5 26.875V29.375C37.5 29.7202 37.2202 30 36.875 30H34.375C34.0298 30 33.75 29.7202 33.75 29.375V26.875ZM16.875 16.25C16.5298 16.25 16.25 16.5298 16.25 16.875V19.375C16.25 19.7202 16.5298 20 16.875 20H19.375C19.7202 20 20 19.7202 20 19.375V16.875C20 16.5298 19.7202 16.25 19.375 16.25H16.875ZM30 16.875C30 16.5298 30.2798 16.25 30.625 16.25H33.125C33.4702 16.25 33.75 16.5298 33.75 16.875V19.375C33.75 19.7202 33.4702 20 33.125 20H30.625C30.2798 20 30 19.7202 30 19.375V16.875ZM16.875 30C16.5298 30 16.25 30.2798 16.25 30.625V33.125C16.25 33.4702 16.5298 33.75 16.875 33.75H19.375C19.7202 33.75 20 33.4702 20 33.125V30.625C20 30.2798 19.7202 30 19.375 30H16.875Z" fill="#000716"/>
<path d="M17.2857 7H9C7.89543 7 7 7.89543 7 9V17.2857M32.7143 7H41C42.1046 7 43 7.89543 43 9V17.2857M17.2857 43H9C7.89543 43 7 42.1046 7 41V32.7143M43 32.7143V41C43 42.1046 42.1046 43 41 43H32.7143" stroke="#0053FF" stroke-width="2" stroke-linecap="round"/>
<rect x="28" y="28" width="19" height="19" rx="9.5" fill="#0053FF"/>
<path d="M34 37L37 41L42 34" stroke="white" stroke-width="2" stroke-linecap="round" stroke-linejoin="round"/>
</svg>
