<svg width="50" height="50" viewBox="0 0 50 50" fill="none" xmlns="http://www.w3.org/2000/svg">
<path d="M9.67542 26.3376H14.1429V39.7402C14.1429 40.3571 13.6429 40.8571 13.0261 40.8571H10.7923C10.1755 40.8571 9.67542 40.3571 9.67542 39.7402V26.3376Z" fill="#291D1D"/>
<path d="M10.7922 26.3376H14.1429V45.3247C14.1429 45.9415 13.6428 46.4415 13.026 46.4415H11.9091C11.2923 46.4415 10.7922 45.9415 10.7922 45.3247V26.3376Z" fill="#291D1D"/>
<path d="M39.8312 26.8961H35.3636V40.2987C35.3636 40.9156 35.8637 41.4156 36.4805 41.4156H38.7143C39.3311 41.4156 39.8312 40.9156 39.8312 40.2987V26.8961Z" fill="#291D1D"/>
<path d="M38.7144 26.8961H35.3637V45.8831C35.3637 46.5 35.8638 47 36.4806 47H37.5975C38.2143 47 38.7144 46.5 38.7144 45.8831V26.8961Z" fill="#291D1D"/>
<path d="M14.0242 9.63408C14.3384 6.37333 17.1023 4 20.3782 4H29.1284C32.4042 4 35.1681 6.37333 35.4824 9.63408C35.9472 14.4575 36.4805 22.326 36.4805 33.039H13.026C13.026 22.326 13.5593 14.4575 14.0242 9.63408Z" fill="#AA1515"/>
<rect x="8" y="23.5455" width="5.58442" height="4.46753" rx="1.11688" fill="#291D1D"/>
<rect width="5.58442" height="4.46753" rx="1.11688" transform="matrix(-1 0 0 1 41.5066 24.1039)" fill="#291D1D"/>
<mask id="mask0_12966_961" style="mask-type:alpha" maskUnits="userSpaceOnUse" x="10" y="29" width="29" height="12">
<path d="M10.7922 34.1559C10.7922 31.6885 12.7924 29.6884 15.2598 29.6884H34.2468C36.7141 29.6884 38.7143 31.6885 38.7143 34.1559V36.9481C38.7143 38.7986 37.2142 40.2987 35.3637 40.2987H14.1429C12.2924 40.2987 10.7922 38.7986 10.7922 36.9481V34.1559Z" fill="#D9D9D9"/>
</mask>
<g mask="url(#mask0_12966_961)">
<path d="M10.7922 34.1559C10.7922 31.6885 12.7924 29.6884 15.2598 29.6884H36.4805C38.9479 29.6884 40.9481 31.6885 40.9481 34.1559V36.3897C40.9481 38.2402 39.4479 39.7403 37.5974 39.7403H14.1429C12.2924 39.7403 10.7922 38.2402 10.7922 36.3897V34.1559Z" fill="#DB3030"/>
<rect x="9.67542" y="35.2727" width="34.6234" height="7.81818" fill="#291D1D"/>
</g>
<rect x="28" y="28" width="19" height="19" rx="9.5" fill="#0053FF"/>
<path d="M34 37L37 41L42 34" stroke="white" stroke-width="2" stroke-linecap="round" stroke-linejoin="round"/>
</svg>
