<svg width="50" height="50" viewBox="0 0 50 50" fill="none" xmlns="http://www.w3.org/2000/svg">
<mask id="mask0" mask-type="alpha" maskUnits="userSpaceOnUse" x="11" y="6" width="30" height="37">
<path d="M11 11.2251C11 10.5785 11.5734 10.0838 12.2192 10.1153C17.2734 10.361 22.5723 7.87669 24.8493 6.65461C25.5653 6.27034 26.4347 6.27035 27.1507 6.65461C29.4278 7.87669 34.7266 10.361 39.7808 10.1153C40.4266 10.0838 41 10.5785 41 11.2251V20.875C41 34 30.5 39.5 26 43C21.5 39.5 11 34 11 20.875V11.2251Z" fill="#002573"/>
</mask>
<g mask="url(#mask0)">
<path d="M11 11.2251C11 10.5785 11.5734 10.0838 12.2192 10.1153C17.2734 10.361 22.5723 7.87669 24.8493 6.65461C25.5653 6.27034 26.4347 6.27035 27.1507 6.65461C29.4278 7.87669 34.7266 10.361 39.7808 10.1153C40.4266 10.0838 41 10.5785 41 11.2251V20.875C41 34 30.5 39.5 26 43C21.5 39.5 11 34 11 20.875V11.2251Z" fill="#0041C9"/>
<path d="M26 5H10V45H26V5Z" fill="#0053FF"/>
<path d="M42.5 2.5L6 39L11 44L47.5 7.5L42.5 2.5Z" fill="#F5F5F5"/>
<path d="M47.5 7.5L42.5 2.5L26 19V29L47.5 7.5Z" fill="#DCDCDC"/>
</g>
</svg>
