<svg width="50" height="50" viewBox="0 0 50 50" fill="none" xmlns="http://www.w3.org/2000/svg">
<mask id="mask0" mask-type="alpha" maskUnits="userSpaceOnUse" x="10" y="5" width="32" height="38">
<path d="M11.5 12.1105C11.5 12.0513 11.553 12.0053 11.6119 12.0109C19.6963 12.7743 24.1588 8.30275 25.5343 6.62054C25.7647 6.33877 26.2354 6.33877 26.4658 6.62054C27.8412 8.30276 32.3037 12.7743 40.3881 12.0109C40.447 12.0053 40.5 12.0513 40.5 12.1105L40.5 20.875C39.5641 35.0309 32.4964 38.1278 27.0855 41.336C26.4175 41.732 25.5825 41.732 24.9145 41.336C19.5036 38.1278 12.4359 35.0309 11.5 20.875V12.1105Z" fill="#0046D7" stroke="black" stroke-width="2"/>
</mask>
<g mask="url(#mask0)">
<rect width="50" height="50" fill="#003DBA"/>
<path d="M26 0H0V50H26V0Z" fill="#0053FF"/>
</g>
<mask id="mask1" mask-type="alpha" maskUnits="userSpaceOnUse" x="13" y="9" width="26" height="31">
<path d="M13 15.0656C13 14.4381 13.5441 13.9508 14.1713 13.9682C19.7984 14.1242 23.5508 11.3584 25.1392 9.88783C25.6067 9.45512 26.3934 9.45512 26.8608 9.88783C28.4493 11.3584 32.2016 14.1242 37.8287 13.9682C38.4559 13.9508 39 14.4381 39 15.0656V21.9507C38.223 33.382 31.6869 36.6734 27.0616 39.3662C26.4061 39.7479 25.5939 39.7479 24.9384 39.3662C20.3131 36.6734 13.777 33.382 13 21.9507V15.0656Z" fill="#C4C4C4"/>
</mask>
<g mask="url(#mask1)">
<path d="M26 6.5L41 11V23C41 23 34 25 26 25V6.5Z" fill="#CCCCCC"/>
<path d="M26 25C18 25 11 23 11 23V33L19 41L26 45V25Z" fill="white"/>
</g>
</svg>
