<svg width="50" height="50" viewBox="0 0 50 50" fill="none" xmlns="http://www.w3.org/2000/svg">
<mask id="mask0" mask-type="alpha" maskUnits="userSpaceOnUse" x="10" y="6" width="32" height="37">
<path d="M10.0793 14.2491C10.0378 13.5947 10.5964 13.0619 11.2518 13.08C18.3457 13.2758 23.2353 9.00418 25.1275 7.0045C25.5857 6.52027 26.4143 6.52027 26.8725 7.0045C28.7648 9.00419 33.6543 13.2758 40.7482 13.08C41.4036 13.0619 41.9622 13.5947 41.9207 14.2491L41.5 20.875C40.5633 35.0428 32.6071 39.0104 27.0834 42.3325C26.4179 42.7327 25.5821 42.7327 24.9166 42.3325C19.3929 39.0104 11.4367 35.0428 10.5 20.875L10.0793 14.2491Z" fill="#002573"/>
</mask>
<g mask="url(#mask0)">
<rect width="50" height="50" fill="#023EBC"/>
<path d="M26 5H10V45H26V5Z" fill="#0053FF"/>
<path d="M42.5 4.5L6 41L11 46L47.5 9.5L42.5 4.5Z" fill="#F5F5F5"/>
<path d="M47.5 9.5L42.5 4.5L26 21V31L47.5 9.5Z" fill="#DCDCDC"/>
</g>
</svg>
