<svg width="50" height="50" viewBox="0 0 50 50" fill="none" xmlns="http://www.w3.org/2000/svg">
<g clip-path="url(#clip0)">
<path d="M11.5 14.5L39.5 15.5" stroke="#DCDCDC"/>
<path d="M14 20H39" stroke="#DCDCDC"/>
<path d="M18.5 10L21 25.5" stroke="#DCDCDC"/>
<path d="M25.5 10L26.5 24" stroke="#DCDCDC"/>
<path d="M32 11V23.5" stroke="#DCDCDC"/>
<path d="M11.08 12.6101C10.7903 11.3065 11.8353 10.0905 13.1677 10.1809L39.0676 11.9368C39.5925 11.9724 40 12.4085 40 12.9345V23.6279C40 24.1276 39.6311 24.5506 39.136 24.6186L16.3248 27.7495C15.2936 27.8911 14.3262 27.218 14.1004 26.202L11.08 12.6101Z" fill="#DCDCDC" stroke="#DCDCDC" stroke-width="2"/>
<path d="M9 5.5L25 28.5" stroke="#C4C4C4" stroke-width="2"/>
<circle cx="17" cy="40" r="4" fill="#000716"/>
<path d="M16 35V37.3944C16 37.7893 16.1169 38.1753 16.3359 38.5038L17 39.5" stroke="#C4C4C4" stroke-width="3" stroke-linecap="round" stroke-linejoin="round"/>
<path d="M4 4.5H6.64604C8.02802 4.5 9.2312 5.44408 9.55993 6.78639L15 29" stroke="#868686" stroke-width="3" stroke-linecap="round" stroke-linejoin="round"/>
<path d="M3 4.5H5.5" stroke="#0053FF" stroke-width="3" stroke-linecap="round" stroke-linejoin="round"/>
<path d="M30.5 27.5L15.3924 29.4369C13.371 29.696 12.326 31.989 13.4564 33.6846V33.6846C13.796 34.194 14.3677 34.5 14.9799 34.5H25H30.5" stroke="#868686" stroke-width="2" stroke-linecap="round" stroke-linejoin="round"/>
<path fill-rule="evenodd" clip-rule="evenodd" d="M25.2594 29.8548C24.8607 30.5454 25.0386 31.4248 25.6744 31.9061L27.512 33.2971L27.512 36.0021L25.6745 37.393C25.0387 37.8743 24.8608 38.7537 25.2595 39.4443L27.026 42.504C27.4247 43.1945 28.2753 43.4802 29.01 43.1702L31.1336 42.2742L33.4759 43.6265L33.7617 45.9136C33.8606 46.7048 34.5333 47.2986 35.3307 47.2986H38.8637C39.6611 47.2986 40.3337 46.7048 40.4326 45.9136L40.7185 43.6266L43.0608 42.2743L45.1845 43.1703C45.9192 43.4802 46.7698 43.1946 47.1685 42.504L48.935 39.4444C49.3337 38.7538 49.1558 37.8744 48.52 37.3931L46.6825 36.0021V33.2971L48.5201 31.906C49.1559 31.4247 49.3338 30.5453 48.9351 29.8547L47.1686 26.7951C46.7699 26.1045 45.9194 25.8189 45.1847 26.1288L43.0615 27.0246L40.7185 25.6719L40.4326 23.3852C40.3337 22.5939 39.6611 22.0001 38.8637 22.0001L35.3307 22.0001C34.5333 22.0001 33.8606 22.5939 33.7617 23.3852L33.4759 25.6719L31.1329 27.0247L29.0098 26.1289C28.2751 25.8189 27.4246 26.1046 27.0259 26.7951L25.2594 29.8548ZM37.0972 40.721C40.4505 40.721 43.1688 38.0026 43.1688 34.6493C43.1688 31.2961 40.4505 28.5777 37.0972 28.5777C33.7439 28.5777 31.0256 31.2961 31.0256 34.6493C31.0256 38.0026 33.7439 40.721 37.0972 40.721Z" fill="#000716"/>
<circle cx="37.0972" cy="34.6492" r="5.31268" stroke="#868686" stroke-width="2.61707"/>
</g>
<defs>
<clipPath id="clip0">
<rect width="50" height="50" fill="white"/>
</clipPath>
</defs>
</svg>
