<svg width="50" height="50" viewBox="0 0 50 50" fill="none" xmlns="http://www.w3.org/2000/svg">
<g clip-path="url(#clip0)">
<path d="M11.5 14.5L39.5 15.5" stroke="#DCDCDC"/>
<path d="M14 20H39" stroke="#DCDCDC"/>
<path d="M18.5 10L21 25.5" stroke="#DCDCDC"/>
<path d="M25.5 10L26.5 24" stroke="#DCDCDC"/>
<path d="M32 11V23.5" stroke="#DCDCDC"/>
<path d="M11.08 12.6101C10.7903 11.3065 11.8353 10.0905 13.1677 10.1809L39.0676 11.9368C39.5925 11.9724 40 12.4085 40 12.9345V23.6279C40 24.1276 39.6311 24.5506 39.136 24.6186L16.3248 27.7495C15.2936 27.8911 14.3262 27.218 14.1004 26.202L11.08 12.6101Z" fill="#DCDCDC" stroke="#DCDCDC" stroke-width="2"/>
<path d="M9 5.5L25 28.5" stroke="#C4C4C4" stroke-width="2"/>
<circle cx="17" cy="40" r="4" fill="#000716"/>
<path d="M16 35V37.3944C16 37.7893 16.1169 38.1753 16.3359 38.5038L17 39.5" stroke="#C4C4C4" stroke-width="3" stroke-linecap="round" stroke-linejoin="round"/>
<path d="M4 4.5H6.64604C8.02802 4.5 9.2312 5.44408 9.55993 6.78639L15 29" stroke="#868686" stroke-width="3" stroke-linecap="round" stroke-linejoin="round"/>
<path d="M3 4.5H5.5" stroke="#0053FF" stroke-width="3" stroke-linecap="round" stroke-linejoin="round"/>
<path d="M30.5 27.5L15.3924 29.4369C13.371 29.696 12.326 31.989 13.4564 33.6846V33.6846C13.796 34.194 14.3677 34.5 14.9799 34.5H25H30.5" stroke="#868686" stroke-width="2" stroke-linecap="round" stroke-linejoin="round"/>
<path fill-rule="evenodd" clip-rule="evenodd" d="M28.092 31.9233C27.7405 32.532 27.8974 33.3071 28.4578 33.7313L30.0775 34.9574L30.0775 37.3417L28.4579 38.5677C27.8975 38.9919 27.7407 39.767 28.0921 40.3757L29.6491 43.0726C30.0005 43.6813 30.7502 43.933 31.3978 43.6598L33.2697 42.87L35.3342 44.062L35.5861 46.0778C35.6733 46.7752 36.2662 47.2986 36.969 47.2986H40.0831C40.7859 47.2986 41.3788 46.7752 41.466 46.0778L41.718 44.062L43.7825 42.8701L45.6544 43.6598C46.302 43.9331 47.0517 43.6813 47.4031 43.0726L48.9601 40.3758C49.3116 39.7671 49.1547 38.992 48.5943 38.5677L46.9747 37.3417V34.9574L48.5945 33.7313C49.1549 33.3071 49.3117 32.532 48.9603 31.9233L47.4032 29.2264C47.0518 28.6177 46.3021 28.366 45.6545 28.6392L43.7831 29.4287L41.7179 28.2364L41.466 26.2208C41.3788 25.5234 40.7859 25 40.0831 25L36.969 25C36.2662 25 35.6733 25.5234 35.5861 26.2208L35.3342 28.2364L33.269 29.4288L31.3977 28.6393C30.7501 28.366 30.0004 28.6178 29.649 29.2265L28.092 31.9233ZM38.5261 40.8656C41.1308 40.8656 43.2423 38.754 43.2423 36.1493C43.2423 33.5446 41.1308 31.4331 38.5261 31.4331C35.9214 31.4331 33.8098 33.5446 33.8098 36.1493C33.8098 38.754 35.9214 40.8656 38.5261 40.8656Z" fill="#000716"/>
</g>
<defs>
<clipPath id="clip0">
<rect width="50" height="50" fill="white"/>
</clipPath>
</defs>
</svg>
