<svg width="50" height="50" viewBox="0 0 50 50" fill="none" xmlns="http://www.w3.org/2000/svg">
<path d="M3.5 39.4045C3.5 39.2846 3.52157 39.1657 3.56367 39.0534L4.71413 35.9855C4.88061 35.5416 5.33596 35.2756 5.80445 35.3486L24.1016 38.2001C24.2 38.2154 24.3001 38.216 24.3987 38.2017L44.2032 35.3384C44.6684 35.2711 45.1176 35.5369 45.2827 35.977L46.4363 39.0534C46.4784 39.1657 46.5 39.2846 46.5 39.4045V43.2232C46.5 43.7755 46.0523 44.2232 45.5 44.2232H4.5C3.94772 44.2232 3.5 43.7755 3.5 43.2232V39.4045Z" fill="#383838"/>
<path d="M4.74856 35.8518C4.90042 35.4722 5.26813 35.2232 5.67703 35.2232H15.7367C15.9947 35.2232 16.2428 35.1235 16.429 34.9449L24.2216 27.4699C24.6416 27.067 25.3157 27.1066 25.6857 27.5559L31.7 34.8589C31.89 35.0896 32.1731 35.2232 32.4719 35.2232H44.323C44.7319 35.2232 45.0996 35.4722 45.2514 35.8518L46.4514 38.8518C46.7142 39.5087 46.2304 40.2232 45.523 40.2232H4.47703C3.76957 40.2232 3.28581 39.5087 3.54856 38.8518L4.74856 35.8518Z" fill="#5E5E5E"/>
<mask id="mask0_17408_2227" style="mask-type:alpha" maskUnits="userSpaceOnUse" x="7" y="6" width="37" height="33">
<path d="M8.3344 8.79459C8.44332 8.02509 9.04848 7.41973 9.81728 7.306C21.5887 5.56467 28.4217 5.56466 40.1931 7.306C40.9619 7.41973 41.5668 8.0251 41.6774 8.79435C43.1192 18.8165 43.2164 26.7903 42.9379 36.9965C42.9117 37.9575 42.1238 38.7232 41.1625 38.7232H8.90099C7.91865 38.7232 7.12238 37.9251 7.1201 36.9428C7.09651 26.7624 6.9183 18.7991 8.3344 8.79459Z" fill="#D9D9D9"/>
</mask>
<g mask="url(#mask0_17408_2227)">
<path d="M7.70068 6.3783H42.3096V39.1235C35.2605 36.0923 31.0223 34.9917 25.0051 35.0059C19.0542 35.0199 14.7907 36.1304 7.70068 39.1235V6.3783Z" fill="#201515"/>
<path d="M42.3095 5.97803H25.005C25.5669 21.9699 37.8148 28.8235 37.8148 28.8235H43.1758L42.3095 5.97803Z" fill="#DB3030"/>
<path d="M7.70075 5.97803H24.1812C23.6194 21.9699 12.1954 28.8235 12.1954 28.8235H6.83447L7.70075 5.97803Z" fill="#DB3030"/>
<path d="M20.0611 5.97803H15.1169C15.1169 12.8317 16.353 18.1623 10.9968 27.3005H11.8208C19.2371 18.1623 20.0611 12.8317 20.0611 5.97803Z" fill="#C21818"/>
<path d="M29.9494 6.73956H34.8936C34.8936 13.5932 33.6575 18.9238 39.0137 28.062H38.1896C30.7734 18.9238 29.9494 13.5932 29.9494 6.73956Z" fill="#C21818"/>
<path d="M13.4689 28.8235H6.83448L6.29834 38.7232H17.3515C17.9148 38.7232 18.3519 38.2269 18.2467 37.6736C17.1444 31.8805 13.4689 28.8235 13.4689 28.8235Z" fill="#DB3030"/>
<path d="M36.5416 28.8235H43.176L43.7122 38.7232H32.659C32.0957 38.7232 31.6586 38.2269 31.7638 37.6736C32.8661 31.8805 36.5416 28.8235 36.5416 28.8235Z" fill="#DB3030"/>
<path d="M38.6016 28.8235H37.7775C37.7775 28.8235 34.4815 34.9156 34.4815 38.7232H36.9535C36.9535 30.3465 38.6016 28.8235 38.6016 28.8235Z" fill="#C21818"/>
<path d="M10.9968 28.8235H11.8208C11.8208 28.8235 15.1169 34.9156 15.1169 38.7232H12.6449C12.6449 30.3465 10.9968 28.8235 10.9968 28.8235Z" fill="#C21818"/>
<path d="M6.83447 27.3004H13.1507C13.7815 27.3004 14.2929 27.8118 14.2929 28.4427C14.2929 29.0735 13.7815 29.585 13.1507 29.585H6.83447V27.3004Z" fill="#AA1515"/>
<path d="M35.7173 28.4427C35.7173 27.8118 36.2287 27.3004 36.8596 27.3004H43.1757V29.585H36.8596C36.2287 29.585 35.7173 29.0735 35.7173 28.4427Z" fill="#AA1515"/>
<path d="M1.63159 6H48.379C48.379 13.1457 31.1028 15.7285 25.0053 15.7285C18.9078 15.7285 1.63159 13.1457 1.63159 6Z" fill="#DB3030"/>
<path d="M-2.18774 6.73956H16.7648C16.7648 12.6413 9.76058 13.974 7.28851 13.974C4.81644 13.974 -2.18774 12.6413 -2.18774 6.73956Z" fill="#AA1515"/>
<path d="M15.5076 5.93903H34.4601C34.4601 11.8408 27.4559 13.974 24.9838 13.974C22.5118 13.974 15.5076 11.8408 15.5076 5.93903Z" fill="#AA1515"/>
<path d="M33.6362 6.73956H52.5887C52.5887 12.6413 45.5846 13.974 43.1125 13.974C40.6404 13.974 33.6362 12.6413 33.6362 6.73956Z" fill="#AA1515"/>
</g>
</svg>
