<svg width="50" height="50" viewBox="0 0 50 50" fill="none" xmlns="http://www.w3.org/2000/svg">
<path d="M39 25.6574C39 28.9711 36.3137 31.6574 33 31.6574H17" stroke="#0053FF" stroke-width="4" stroke-linecap="round" stroke-linejoin="round"/>
<path fill-rule="evenodd" clip-rule="evenodd" d="M20.455 26.1617L13.2899 30.819C12.8269 31.12 12.6955 31.7394 12.9965 32.2024C13.0727 32.3197 13.1727 32.4197 13.2899 32.4959L20.455 37.1532C20.9181 37.4542 21.5375 37.3228 21.8384 36.8597C21.9439 36.6975 22 36.5082 22 36.3148V27.0001C22 26.4478 21.5523 26.0001 21 26.0001C20.8065 26.0001 20.6172 26.0562 20.455 26.1617Z" fill="#0053FF"/>
<path d="M12 23.6574C12 20.3437 14.6863 17.6574 18 17.6574H34" stroke="#000716" stroke-width="4" stroke-linecap="round" stroke-linejoin="round"/>
<path fill-rule="evenodd" clip-rule="evenodd" d="M30.545 23.1531L37.7101 18.4958C38.1731 18.1948 38.3045 17.5755 38.0035 17.1124C37.9273 16.9951 37.8273 16.8952 37.7101 16.8189L30.545 12.1616C30.0819 11.8606 29.4625 11.992 29.1616 12.4551C29.0561 12.6173 29 12.8066 29 13.0001V22.3147C29 22.867 29.4477 23.3147 30 23.3147C30.1935 23.3147 30.3828 23.2586 30.545 23.1531Z" fill="#000716"/>
</svg>
