<svg width="50" height="50" viewBox="0 0 50 50" fill="none" xmlns="http://www.w3.org/2000/svg">
<g clip-path="url(#clip0_12490_3261)">
<path d="M14.211 6.27434C11.3487 7.20462 10.2276 9.04132 10.4422 12.4046C10.6331 15.3863 11.5156 16.2688 15.4276 17.5092C16.7156 17.9386 17.956 18.4156 18.1468 18.6303C18.7193 19.1789 18.8624 20.1569 18.4808 20.8248C17.6936 22.2321 16.3578 21.3734 16.3578 19.489V18.4872H13.5193L10.7046 18.4633L10.5377 19.7276C10.4661 20.3954 10.3945 21.5881 10.3945 22.3276C10.3945 23.6872 10.3945 23.6872 11.4202 24.2835C12.8276 25.0945 15.4037 25.6909 17.5266 25.6909C19.1964 25.667 19.4349 25.6193 20.5799 24.8321C21.2716 24.3789 22.2973 23.8065 22.8936 23.5918C23.8239 23.234 24.0147 23.0432 24.3487 22.0652C24.5872 21.3734 24.6349 20.9441 24.4679 20.8964C24.1578 20.7771 24.1578 19.8945 24.4679 19.8945C24.8257 19.8945 24.7542 17.6285 24.3725 16.722C23.6808 15.0285 20.5321 13.2633 18.7432 13.5496C18.2422 13.6211 18.0276 13.5973 18.2184 13.478C18.4569 13.3349 18.3138 13.1679 17.6221 12.834C16.8349 12.4523 16.7156 12.2615 16.6441 11.4982C16.5725 10.711 16.6441 10.5441 17.2166 10.3055C17.7652 10.0432 17.8844 10.067 18.2899 10.5679C18.5523 10.878 18.7432 11.4266 18.7432 11.7844V12.4285L21.4147 12.5716C22.8698 12.667 24.1101 12.7147 24.134 12.667C24.1817 12.6432 24.2771 11.6175 24.3725 10.4248L24.5395 8.25416L23.6092 7.63398C21.9395 6.53673 20.723 6.25049 17.6698 6.15508C16.0954 6.10737 14.545 6.15508 14.211 6.27434ZM22.8698 17.1276C23.0129 17.4854 22.8459 17.7477 22.512 17.7477C22.4166 17.7477 22.3211 17.5331 22.3211 17.2707C22.3211 16.722 22.6789 16.6266 22.8698 17.1276ZM16.3578 22.7569C16.3578 22.8762 16.2624 22.9954 16.1193 22.9954C16 22.9954 15.8808 22.8762 15.8808 22.7569C15.8808 22.6138 16 22.5184 16.1193 22.5184C16.2624 22.5184 16.3578 22.6138 16.3578 22.7569ZM15.5468 24.3312C14.9982 24.7129 14.545 24.7606 14.3303 24.4266C14.1395 24.0927 15.4753 23.4487 15.7615 23.7349C15.9285 23.9019 15.8569 24.0927 15.5468 24.3312Z" fill="#1D2129"/>
<path d="M28.7854 6.91836C27.2826 7.46698 26.4478 8.15872 25.8991 9.27982C25.2551 10.6156 25.2789 11.5936 25.9707 11.9037C26.6624 12.2138 26.6863 13.2395 25.9707 13.5734C25.4936 13.8119 25.5175 13.8596 26.5432 14.4083C27.7597 15.0523 30.312 17.4853 30.5505 18.2248C30.6459 18.4872 30.789 18.7018 30.8844 18.7018C31.0753 18.7018 31.3854 15.0523 31.3854 12.5477C31.3854 11.1881 31.4331 11.045 31.9817 10.7826C32.8643 10.3771 33.2459 10.8541 33.3413 12.4523L33.4129 13.8119L36.3468 13.8835L39.2569 13.9551V11.3073V8.68349L38.4936 8.20643C36.7285 7.10918 35.1542 6.70368 32.4588 6.60826C30.4789 6.56056 29.5725 6.63212 28.7854 6.91836Z" fill="#1D2129"/>
<path d="M25.1836 18.0817C25.1836 19.823 25.2552 21.612 25.3267 22.0175C25.4698 22.7331 25.4937 22.7569 26.4717 22.5899C26.9964 22.4945 28.3799 22.3991 29.5487 22.3991C30.6937 22.3991 31.624 22.3276 31.624 22.2083C31.624 21.5166 30.0258 18.7257 28.9763 17.6285C27.8074 16.412 25.8276 14.8854 25.3744 14.8854C25.279 14.8854 25.1836 16.3166 25.1836 18.0817ZM27.3304 19.4652C27.3304 19.6321 27.1157 20.0377 26.8533 20.3716C26.4955 20.8487 26.3047 20.9202 25.9946 20.7055C25.279 20.2762 25.3506 19.8945 26.1854 19.5367C27.1634 19.1074 27.3304 19.1074 27.3304 19.4652Z" fill="#1D2129"/>
<path d="M33.2935 19.2266C33.2935 21.1349 33.1266 21.755 32.5541 21.922C31.8385 22.1605 32.2201 22.4706 33.6036 22.7569C34.2715 22.9 35.6311 23.3771 36.6091 23.8064C37.5871 24.2596 38.5174 24.5697 38.7082 24.4982C38.9706 24.4027 39.0183 23.7826 38.9945 21.6596C38.9467 19.1312 38.9229 18.9404 38.4935 18.9404C38.2311 18.9404 37.9688 18.7257 37.8972 18.4633C37.7541 17.9147 37.7064 17.8908 37.0862 18.2486C36.7045 18.4394 36.4899 18.4156 36.1798 18.1293C35.9174 17.8908 35.3211 17.7477 34.5339 17.7477H33.2935V19.2266Z" fill="#1D2129"/>
<path d="M28.8807 23.9973C27.8312 24.1165 26.877 24.3312 26.7578 24.4505C26.4715 24.7129 28.7853 25.7624 30.1449 25.9771C31.1229 26.144 31.1468 26.1679 31.1468 27.0028C31.1468 27.8853 31.1229 27.8853 30.0972 27.9569C28.7137 28.0523 27.4734 27.3844 27.378 26.478C27.3064 25.8578 27.2587 25.834 25.9468 25.9055L24.5871 25.9771L24.6825 27.6229C24.7064 28.5532 24.8972 29.5073 25.0642 29.7697C25.422 30.3184 25.8514 39.0009 25.5651 39.8835C25.3504 40.5514 24.1101 40.6229 23.7761 39.9789C23.4422 39.3349 23.1559 29.7697 23.4899 29.5789C23.633 29.4835 23.7523 28.7202 23.7523 27.7422V26.0963H22.3211C21.2715 26.0963 20.8422 26.1918 20.7468 26.4541C20.6275 26.7404 20.5082 26.7404 20.1027 26.5257C19.7211 26.3349 19.578 26.3349 19.5064 26.5495C19.4348 26.7642 19.3394 26.7642 19.077 26.5495C18.8147 26.3349 18.6 26.3349 18.1945 26.5257C17.9082 26.6688 17.455 26.8119 17.1926 26.8596C16.477 26.9789 16.6679 29.2688 17.5027 30.3661C17.8367 30.8193 17.9798 31.1055 17.8367 31.0101C17.5266 30.8193 17.4789 35.1367 17.7651 38.0229L17.9082 39.5734L19.4587 40.3606C22.1541 41.6963 26.2569 42.2211 29.2385 41.5771C30.2165 41.3624 30.5027 41.1954 30.7174 40.6945C30.8844 40.2651 30.9082 38.2376 30.8367 34.922C30.7174 29.8174 30.9082 27.5275 31.2183 30.1514C31.3137 30.867 31.3853 32.0358 31.3853 32.7037V33.9679H33.4128H35.4403V31.9642C35.4403 30.5092 35.5358 29.889 35.7981 29.6743C36.2991 29.2688 36.3468 29.7697 36.4899 35.1367C36.5853 38.5716 36.6807 39.8119 36.9192 39.9551C37.1339 40.0982 37.0862 40.1697 36.7284 40.1697C36.0605 40.1697 35.989 40.4321 36.1082 42.2927L36.2036 43.8193L38.7321 43.6523C40.1156 43.5807 41.6422 43.5092 42.1669 43.5092H43.0734V41.8872C43.0495 40.8615 42.9303 40.122 42.7156 39.8358C42.5247 39.5734 42.3578 38.9055 42.3578 38.3092C42.3578 37.5459 42.2862 37.3312 42.0715 37.4505C41.833 37.5697 41.833 37.5459 42.0477 37.3073C42.2385 37.0927 42.2862 35.9716 42.1908 33.2284C42.0715 30.3899 42.1192 29.4358 42.3339 29.4358C42.7633 29.4358 43.0734 30.533 43.0734 32.0835V33.4908H44.0514C44.9578 33.4908 45.0293 33.4431 45.4825 32.4174C46.0789 31.0578 46.6514 28.1239 46.6514 26.4064V25.0945L43.9798 25.2376C39.0183 25.5 37.0624 25.4762 37.5633 25.1661C37.8018 24.9991 37.5871 24.856 36.7046 24.5936C35.6789 24.2835 32.9596 23.8303 32.578 23.9018C32.5303 23.9018 32.3394 24.3312 32.1963 24.8321L31.9101 25.7385L31.8862 24.7129C31.8624 23.5679 32.077 23.6156 28.8807 23.9973ZM28.9523 34.6119C28.7137 34.6596 28.3321 34.6596 28.1174 34.6119C27.8789 34.5404 28.0697 34.4927 28.5229 34.4927C28.9761 34.4927 29.1669 34.5404 28.9523 34.6119ZM41.4036 37.8798C41.4036 37.9275 41.2128 38.1184 40.9981 38.2853C40.6165 38.5954 40.5926 38.5716 40.9027 38.1899C41.2128 37.8083 41.4036 37.689 41.4036 37.8798ZM39.6385 39.0963C39.3761 39.2872 39.0422 39.4541 38.9229 39.4541C38.7798 39.4303 38.9229 39.2872 39.2569 39.0963C40.0202 38.6431 40.211 38.667 39.6385 39.0963ZM38.3027 39.6927C38.1119 39.8119 37.778 39.9073 37.5871 39.9073C37.3486 39.9073 37.3963 39.8358 37.7064 39.6927C38.3504 39.4064 38.7321 39.4064 38.3027 39.6927Z" fill="#1D2129"/>
<path d="M7.29355 26.4303C4.88438 26.9551 3.88254 27.7899 3.23851 29.7697C2.90456 30.8193 3.09539 39.4064 3.50089 41.5532C3.78713 42.9844 4.64584 44.1294 5.7908 44.6064C7.38896 45.2743 13.877 44.7734 15.2367 43.867C16.2385 43.223 16.8348 41.6964 16.8348 39.8119C16.8348 38.2853 16.7871 38.0945 16.0715 37.3074L15.2844 36.4725L16.0954 37.1881L16.9064 37.9037L16.7394 33.9679C16.6202 30.5569 16.5247 29.889 16.0477 28.9587C15.5706 27.9808 15.4514 27.8853 14.7119 27.933C13.6624 27.9808 13.5192 28.1477 13.2569 29.8174L13.0422 31.2248L13.1137 29.6028C13.2091 28.1 13.1614 27.9569 12.6844 27.7184C12.3743 27.5991 11.9688 27.1697 11.7302 26.7881C11.3486 26.1441 11.2293 26.0963 9.96511 26.1202C9.22566 26.1202 8.00915 26.2633 7.29355 26.4303ZM10.6091 30.5808C10.7284 30.8193 10.9192 33.1569 11.0147 35.7808C11.1578 39.9789 11.1339 40.5752 10.8 40.8376C10.2513 41.2908 9.60731 41.1 9.29722 40.4083C9.13025 40.0743 8.96328 37.8798 8.89172 35.3514C8.77245 31.5587 8.82016 30.8193 9.1064 30.5092C9.60731 30.0321 10.3229 30.056 10.6091 30.5808ZM13.4238 32.3459C13.3523 32.5367 13.2807 32.4652 13.2807 32.2028C13.2569 31.9404 13.3284 31.7973 13.4 31.8927C13.4715 31.9642 13.4954 32.1789 13.4238 32.3459ZM15.0458 35.7808C15.2605 36.1386 15.3321 36.3294 15.189 36.2578C14.9266 36.0908 14.3541 35.1606 14.5211 35.1606C14.5926 35.1606 14.8073 35.4468 15.0458 35.7808Z" fill="#1D2129"/>
<path d="M17.932 40.5752C18.3136 42.1973 19.3393 43.3661 20.6751 43.7477C22.1063 44.1532 26.4237 44.3202 27.4256 43.9862C27.9026 43.8431 28.2366 43.6284 28.165 43.5569C28.0696 43.4615 27.2824 43.2706 26.376 43.1275C23.9668 42.722 20.8421 41.6486 19.3155 40.7422C18.576 40.289 17.932 39.9312 17.8843 39.9312C17.8127 39.9312 17.8604 40.2174 17.932 40.5752Z" fill="#1D2129"/>
</g>
<defs>
<clipPath id="clip0_12490_3261">
<rect width="43.6514" height="39" fill="white" transform="translate(3 6)"/>
</clipPath>
</defs>
</svg>
