<svg width="50" height="50" viewBox="0 0 50 50" fill="none" xmlns="http://www.w3.org/2000/svg">
<g clip-path="url(#clip0_17503_729)">
<mask id="mask0_17503_729" style="mask-type:alpha" maskUnits="userSpaceOnUse" x="-8" y="2" width="67" height="39">
<path d="M45.7577 31.25C45.7577 38.0395 42.1934 41 24.8815 41C7.56959 41 5.02379 38.0395 5.02379 31.25C5.02379 27.4517 -11.8209 19.5289 -7.19644 12.5978C-3.55462 7.1395 20.9443 2 25.8999 2C30.0333 2 54.8534 5.45677 57.9779 9.63043C63.3562 16.8148 45.7577 26.9554 45.7577 31.25Z" fill="#C4C4C4"/>
</mask>
<g mask="url(#mask0_17503_729)">
<path d="M28.7181 34.7143C28.4317 32.0437 30.148 29.5893 32.7818 29.0628C33.9744 28.8244 35.286 28.6457 36.538 28.6457C37.79 28.6457 39.1016 28.8244 40.2942 29.0628C42.928 29.5893 44.5913 32.0421 44.2209 34.7023C43.4513 40.2305 41.373 48.0326 36.9619 48.0326C32.0763 48.0326 29.4723 41.7486 28.7181 34.7143Z" fill="#8CB2FF"/>
<rect x="28.92" y="12" width="16.1087" height="16.1087" rx="8.05435" fill="#1D2129"/>
<path d="M35.3635 26.2363H38.5853V28.6457C38.5853 29.5354 37.8641 30.2566 36.9744 30.2566C36.0847 30.2566 35.3635 29.5354 35.3635 28.6457V26.2363Z" fill="#A07A57"/>
<path d="M32.1417 22.2022C32.1417 19.5332 34.3054 17.3696 36.9743 17.3696C39.6433 17.3696 41.8069 19.5332 41.8069 22.2022V23.2761C41.8069 25.9451 39.6433 28.1087 36.9743 28.1087C34.3054 28.1087 32.1417 25.9451 32.1417 23.2761V22.2022Z" fill="#A07A57"/>
<path d="M43.3215 18.5108C43.3215 19.0391 39.1221 21.1283 31.0955 20.0957L35.1708 12.9638H38.4311L43.3215 18.5108Z" fill="#1D2129"/>
<path d="M4.75321 33.5297C4.76083 30.65 7.19634 28.3163 10.0761 28.3163H12.6832C15.563 28.3163 17.9967 30.6512 17.9455 33.5306C17.8589 38.3952 16.9334 42.9674 11.2065 42.9674C5.47937 42.9674 4.74035 38.3947 4.75321 33.5297Z" fill="#DCDCDC"/>
<path d="M4 19.0338C4 16.0644 6.22556 13.55 9.16889 13.1576C13.2678 12.611 16.6951 16.322 15.7653 20.3513C15.265 22.5195 13.5682 24.2297 11.4095 24.7694C7.67022 25.7042 4 22.8881 4 19.0338Z" fill="#000716"/>
<path d="M5.82495 18.4092C5.82495 14.8815 8.68473 12.0217 12.2125 12.0217H13.3397C16.2448 12.0217 18.6 14.3768 18.6 17.282V20.5384C18.6 22.8902 16.6934 24.7967 14.3416 24.7967H12.2125C8.68474 24.7967 5.82495 21.937 5.82495 18.4092Z" fill="#000716"/>
<path d="M9.5863 24.7968H13.2363V28.4468C13.2363 29.4547 12.4192 30.2718 11.4113 30.2718C10.4034 30.2718 9.5863 29.4547 9.5863 28.4468V24.7968Z" fill="#FECDA9"/>
<path d="M5.9364 21.1468C5.9364 18.123 8.38764 15.6718 11.4114 15.6718C14.4352 15.6718 16.8864 18.123 16.8864 21.1468V22.9718C16.8864 25.9955 14.4352 28.4468 11.4114 28.4468C8.38764 28.4468 5.9364 25.9955 5.9364 22.9718V21.1468Z" fill="#FECDA9"/>
<path d="M6.73738 17.4967C7.64988 22.0592 17.0357 20.4949 18.3392 19.1913L14.0374 13.8467H10.3874L6.73738 17.4967Z" fill="#000716"/>
<path d="M16.8749 21.6304H31.288L32.1358 36.0435L15.1793 35.6196L15.6032 31.3804L13.4836 30.5326C18.1467 29.2609 16.8749 21.6304 16.8749 21.6304Z" fill="#1D2129"/>
<mask id="mask1_17503_729" style="mask-type:alpha" maskUnits="userSpaceOnUse" x="14" y="31" width="20" height="27">
<path d="M14.2819 38.6144C14.2954 35.5861 16.336 32.8964 19.3132 32.3421C20.9171 32.0435 22.6487 31.8044 24.0814 31.8044C25.5141 31.8044 27.2457 32.0435 28.8496 32.3421C31.8267 32.8964 33.8706 35.588 33.7356 38.6133C33.3623 46.9812 31.5747 57.2392 23.2336 57.2392C14.8927 57.2392 14.2447 46.9821 14.2819 38.6144Z" fill="#002573"/>
</mask>
<g mask="url(#mask1_17503_729)">
<path d="M14.2819 38.6144C14.2954 35.5861 16.336 32.8964 19.3132 32.3421C20.9171 32.0435 22.6487 31.8044 24.0814 31.8044C25.5141 31.8044 27.2457 32.0435 28.8496 32.3421C31.8267 32.8964 33.8706 35.588 33.7356 38.6133C33.3623 46.9812 31.5747 57.2392 23.2336 57.2392C14.8927 57.2392 14.2447 46.9821 14.2819 38.6144Z" fill="#0053FF"/>
<path d="M21.538 31.8044H26.6249C26.6249 32.8009 25.9487 33.6866 24.9639 33.8388C24.6399 33.8888 24.3255 33.9239 24.0814 33.9239C23.8373 33.9239 23.523 33.8888 23.199 33.8388C22.2141 33.6866 21.538 32.8009 21.538 31.8044Z" fill="#FECDA9"/>
</g>
<circle cx="24.0815" cy="21.2065" r="7.20652" fill="#1D2129"/>
<path d="M17.7228 22.0544C17.7228 18.5426 20.5697 15.6957 24.0815 15.6957C27.5933 15.6957 30.4402 18.5426 30.4402 22.0544V24.5979C30.4402 28.1097 27.5933 30.9565 24.0815 30.9565C20.5697 30.9565 17.7228 28.1097 17.7228 24.5979V22.0544Z" fill="#FECDA9"/>
<path d="M22.8097 25.8696H25.3532V31.8044C25.3532 32.5067 24.7838 33.0761 24.0814 33.0761C23.3791 33.0761 22.8097 32.5067 22.8097 31.8043V25.8696Z" fill="#FECDA9"/>
<path d="M30.4402 19.9348C25.3532 19.9348 23.6576 27.9891 15.1793 26.7174C17.7228 22.9022 15.6032 19.5109 18.9945 16.1196L19.8424 15.6957L24.0815 14.8478L29.1685 16.5435L30.4402 19.9348Z" fill="#1D2129"/>
</g>
</g>
<defs>
<clipPath id="clip0_17503_729">
<rect width="50" height="50" fill="white"/>
</clipPath>
</defs>
</svg>
