<svg width="50" height="50" viewBox="0 0 50 50" fill="none" xmlns="http://www.w3.org/2000/svg">
<path fill-rule="evenodd" clip-rule="evenodd" d="M40.6416 6.9213C39.8498 5.6929 38.0535 5.6929 37.2617 6.92131L33.8218 12.258C33.0571 13.4442 33.7255 14.9638 34.9964 15.2931L32.1009 20.3978C31.3918 21.6479 32.1863 23.1781 33.5468 23.3784L30.6756 28.4402C29.9203 29.7717 30.8707 31.4208 32.3939 31.4426L30.1626 36.6876C29.5984 38.0137 30.5716 39.4853 32.0128 39.4853H45.8905C47.3316 39.4853 48.3048 38.0137 47.7406 36.6876L45.5093 31.4426C47.0325 31.4208 47.9829 29.7717 47.2277 28.4402L44.3564 23.3783C45.7166 23.1777 46.5108 21.6477 45.8018 20.3978L42.9064 15.2933C44.1776 14.9642 44.8463 13.4444 44.0815 12.258L40.6416 6.9213Z" fill="#295D2E"/>
<path fill-rule="evenodd" clip-rule="evenodd" d="M12.7357 8.20169C12.1567 7.30345 10.8432 7.30346 10.2642 8.2017L7.74891 12.104C7.18977 12.9714 7.67854 14.0826 8.60785 14.3234L6.49061 18.056C5.97208 18.9702 6.55305 20.0891 7.54785 20.2355L5.44835 23.9369C4.89608 24.9105 5.59105 26.1164 6.70485 26.1323L5.07325 29.9676C4.66072 30.9373 5.37232 32.0133 6.42613 32.0133H16.5739C17.6277 32.0133 18.3393 30.9373 17.9268 29.9676L16.2952 26.1323C17.409 26.1164 18.1039 24.9105 17.5517 23.9369L15.4521 20.2355C16.4467 20.0888 17.0275 18.9701 16.5091 18.056L14.3919 14.3235C15.3214 14.0829 15.8103 12.9715 15.2511 12.104L12.7357 8.20169Z" fill="#295D2E"/>
<mask id="mask0_13946_1558" style="mask-type:alpha" maskUnits="userSpaceOnUse" x="4" y="7" width="15" height="26">
<path fill-rule="evenodd" clip-rule="evenodd" d="M12.7357 8.20169C12.1567 7.30345 10.8432 7.30346 10.2642 8.2017L7.74891 12.104C7.18977 12.9714 7.67854 14.0826 8.60785 14.3234L6.49061 18.056C5.97208 18.9702 6.55305 20.0891 7.54785 20.2355L5.44835 23.9369C4.89608 24.9105 5.59105 26.1164 6.70485 26.1323L5.07325 29.9676C4.66072 30.9373 5.37232 32.0133 6.42613 32.0133H16.5739C17.6277 32.0133 18.3393 30.9373 17.9268 29.9676L16.2952 26.1323C17.409 26.1164 18.1039 24.9105 17.5517 23.9369L15.4521 20.2355C16.4467 20.0888 17.0275 18.9701 16.5091 18.056L14.3919 14.3235C15.3214 14.0829 15.8103 12.9715 15.2511 12.104L12.7357 8.20169Z" fill="#074225"/>
</mask>
<g mask="url(#mask0_13946_1558)">
</g>
<path fill-rule="evenodd" clip-rule="evenodd" d="M18.7349 5.75622C18.085 4.74793 16.6105 4.74793 15.9606 5.75622L13.1371 10.1366C12.5094 11.1103 13.058 12.3576 14.1011 12.628L11.7245 16.8179C11.1424 17.8441 11.7946 19.1001 12.9113 19.2645L10.5545 23.4193C9.9346 24.5122 10.7147 25.8659 11.965 25.8837L10.1335 30.1889C9.6704 31.2774 10.4692 32.4853 11.6521 32.4853H23.0432C24.2261 32.4853 25.0249 31.2774 24.5618 30.1889L22.7303 25.8837C23.9806 25.8659 24.7607 24.5122 24.1408 23.4193L21.784 19.2644C22.9004 19.0998 23.5524 17.8439 22.9704 16.8179L20.5938 12.6281C21.6373 12.358 22.1862 11.1105 21.5584 10.1366L18.7349 5.75622Z" fill="#295D2E"/>
<mask id="mask1_13946_1558" style="mask-type:alpha" maskUnits="userSpaceOnUse" x="10" y="5" width="15" height="28">
<path fill-rule="evenodd" clip-rule="evenodd" d="M18.7349 5.75622C18.085 4.74793 16.6105 4.74793 15.9606 5.75622L13.1371 10.1366C12.5094 11.1103 13.058 12.3576 14.1011 12.628L11.7245 16.8179C11.1424 17.8441 11.7946 19.1001 12.9113 19.2645L10.5545 23.4193C9.9346 24.5122 10.7147 25.8659 11.965 25.8837L10.1335 30.1889C9.6704 31.2774 10.4692 32.4853 11.6521 32.4853H23.0432C24.2261 32.4853 25.0249 31.2774 24.5618 30.1889L22.7303 25.8837C23.9806 25.8659 24.7607 24.5122 24.1408 23.4193L21.784 19.2644C22.9004 19.0998 23.5524 17.8439 22.9704 16.8179L20.5938 12.6281C21.6373 12.358 22.1862 11.1105 21.5584 10.1366L18.7349 5.75622Z" fill="#0A5732"/>
</mask>
<g mask="url(#mask1_13946_1558)">
<path d="M9.74146 25.8839H19.6878L9.74146 28.3594V25.8839Z" fill="#295D2E"/>
</g>
<path d="M1 37C9.5 30 14 15 14 15L9 37H1Z" fill="#A46C00"/>
<path d="M18 30L43 32V41C43 41.5523 42.5523 42 42 42H18V30Z" fill="#A46C00"/>
<path d="M14 15L22.9255 36.818C22.9747 36.9382 23 37.0668 23 37.1966V42H5V37.23C5 37.0786 5.03354 36.931 5.09932 36.7946C6.05101 34.822 13.5319 19.2132 14 15Z" fill="#D18A00"/>
<path d="M14.2516 22.8483C14.2268 22.6009 13.7732 22.6009 13.7484 22.8483C13.1602 28.711 11.4742 41.614 8 42H20C16.5258 41.614 14.8398 28.711 14.2516 22.8483Z" fill="#271A00"/>
<path d="M14 19L14.0001 15C14.0001 15 21.022 17 26.5 17C31.3609 17 35.8935 15.6874 37.4395 15.1889C37.7343 15.0939 38.0505 15.2791 38.111 15.5828C40.2465 26.3168 47.0354 35.0355 49 37H25C23 35 18.5 31 14 19Z" fill="#FFC900"/>
<path d="M14 19C12 30 2 36 1 37C3 35 9.82527 28.1742 14 15C17.5 28 23 35 25 37C24 36 16 30 14 19Z" fill="#FFC900"/>
</svg>
