<svg width="50" height="50" viewBox="0 0 50 50" fill="none" xmlns="http://www.w3.org/2000/svg">
<g clip-path="url(#clip0)">
<path fill-rule="evenodd" clip-rule="evenodd" d="M35.6401 10.2902C36.733 10.1299 37.7489 10.886 37.9092 11.9788L40.376 28.7989C40.5363 29.8918 39.7803 30.9077 38.6874 31.0679L7.02614 35.7115C5.93326 35.8718 4.91737 35.1157 4.75709 34.0229L4.09105 29.4815C4.17128 29.4746 4.25179 29.4653 4.33252 29.4535C6.51827 29.1329 8.03031 27.1011 7.70974 24.9154C7.38917 22.7296 5.35739 21.2176 3.17164 21.5381C3.09091 21.55 3.0111 21.5642 2.93227 21.5806L2.29022 17.2028C2.12993 16.1099 2.88595 15.094 3.97883 14.9337L35.6401 10.2902Z" fill="#002573"/>
<path fill-rule="evenodd" clip-rule="evenodd" d="M13 17.9999C11.8954 17.9999 11 18.8954 11 19.9999V24.4999C13.2091 24.4999 15 26.2908 15 28.4999C15 30.7091 13.2091 32.4999 11 32.4999V36.9999C11 38.1045 11.8954 38.9999 13 38.9999H45C46.1046 38.9999 47 38.1045 47 36.9999V19.9999C47 18.8954 46.1046 17.9999 45 17.9999H13Z" fill="#0053FF"/>
<path fill-rule="evenodd" clip-rule="evenodd" d="M37 17.9999H35V18.9999C35 19.5522 35.4477 19.9999 36 19.9999C36.5523 19.9999 37 19.5522 37 18.9999V17.9999ZM36 20.9999C35.4477 20.9999 35 21.4477 35 21.9999V22.9999C35 23.5522 35.4477 23.9999 36 23.9999C36.5523 23.9999 37 23.5522 37 22.9999V21.9999C37 21.4477 36.5523 20.9999 36 20.9999ZM35 25.9999C35 25.4477 35.4477 24.9999 36 24.9999C36.5523 24.9999 37 25.4477 37 25.9999V26.9999C37 27.5522 36.5523 27.9999 36 27.9999C35.4477 27.9999 35 27.5522 35 26.9999V25.9999ZM36 28.9999C35.4477 28.9999 35 29.4477 35 29.9999V30.9999C35 31.5522 35.4477 31.9999 36 31.9999C36.5523 31.9999 37 31.5522 37 30.9999V29.9999C37 29.4477 36.5523 28.9999 36 28.9999ZM35 33.9999C35 33.4477 35.4477 32.9999 36 32.9999C36.5523 32.9999 37 33.4477 37 33.9999V34.9999C37 35.5522 36.5523 35.9999 36 35.9999C35.4477 35.9999 35 35.5522 35 34.9999V33.9999ZM36 36.9999C35.4477 36.9999 35 37.4477 35 37.9999V38.9999H37V37.9999C37 37.4477 36.5523 36.9999 36 36.9999Z" fill="#002573"/>
<rect x="18" y="23.9999" width="14" height="3" rx="1.5" fill="#002573"/>
<rect x="18" y="28.9999" width="7" height="3" rx="1.5" fill="#002573"/>
<rect x="38" y="36.9999" width="17" height="7" rx="1" transform="rotate(-90 38 36.9999)" fill="white"/>
<rect x="40" y="34.9999" width="13" height="3" rx="0.5" transform="rotate(-90 40 34.9999)" fill="#002573"/>
</g>
<defs>
<clipPath id="clip0">
<rect width="50" height="50" fill="white"/>
</clipPath>
</defs>
</svg>
