<svg width="50" height="50" viewBox="0 0 50 50" fill="none" xmlns="http://www.w3.org/2000/svg">
<path fill-rule="evenodd" clip-rule="evenodd" d="M36.6401 11.2902C37.733 11.1299 38.7489 11.886 38.9092 12.9788L41.376 29.7989C41.5363 30.8918 40.7803 31.9077 39.6874 32.0679L8.02614 36.7115C6.93326 36.8718 5.91737 36.1157 5.75709 35.0229L5.09105 30.4815C5.17128 30.4746 5.25179 30.4653 5.33252 30.4535C7.51827 30.1329 9.03031 28.1011 8.70974 25.9154C8.38917 23.7296 6.35739 22.2176 4.17164 22.5381C4.09091 22.55 4.0111 22.5642 3.93227 22.5806L3.29022 18.2028C3.12993 17.1099 3.88595 16.094 4.97883 15.9337L36.6401 11.2902Z" fill="#002573"/>
<path fill-rule="evenodd" clip-rule="evenodd" d="M11.0001 18.9999C9.89549 18.9999 9.00006 19.8954 9.00006 20.9999V25.4999C11.2092 25.4999 13.0001 27.2908 13.0001 29.4999C13.0001 31.7091 11.2092 33.4999 9.00006 33.4999V37.9999C9.00006 39.1045 9.89549 39.9999 11.0001 39.9999H45.0001C46.1046 39.9999 47.0001 39.1045 47.0001 37.9999V20.9999C47.0001 19.8954 46.1046 18.9999 45.0001 18.9999H11.0001Z" fill="#0053FF"/>
<path d="M33.0001 30.9999C33.0001 30.4477 33.4478 29.9999 34.0001 29.9999V29.9999C34.5523 29.9999 35.0001 30.4477 35.0001 30.9999V31.9999C35.0001 32.5522 34.5523 32.9999 34.0001 32.9999V32.9999C33.4478 32.9999 33.0001 32.5522 33.0001 31.9999V30.9999Z" fill="#002573"/>
<rect x="16.0001" y="24.9999" width="9" height="3" rx="1.5" fill="#002573"/>
<rect x="16.0001" y="29.9999" width="5" height="3" rx="1.5" fill="#002573"/>
<rect x="28.0001" y="37.9999" width="17" height="17" rx="1" transform="rotate(-90 28.0001 37.9999)" fill="white"/>
<path fill-rule="evenodd" clip-rule="evenodd" d="M30.2501 23.8749C30.2501 23.5298 30.5299 23.2499 30.8751 23.2499H35.2501C35.5952 23.2499 35.8751 23.5298 35.8751 23.8749V28.2499C35.8751 28.5951 35.5952 28.8749 35.2501 28.8749H30.8751C30.5299 28.8749 30.2501 28.5951 30.2501 28.2499V23.8749ZM34.6251 24.4999H31.5001V27.6249H34.6251V24.4999ZM37.7501 23.2499C37.4049 23.2499 37.1251 23.5298 37.1251 23.8749V28.2499C37.1251 28.5951 37.4049 28.8749 37.7501 28.8749H42.1251C42.4702 28.8749 42.7501 28.5951 42.7501 28.2499V23.8749C42.7501 23.5298 42.4702 23.2499 42.1251 23.2499H37.7501ZM41.5001 27.6249H38.3751V24.4999H41.5001V27.6249ZM30.8751 30.1249C30.5299 30.1249 30.2501 30.4048 30.2501 30.7499V35.1249C30.2501 35.4701 30.5299 35.7499 30.8751 35.7499H35.2501C35.5952 35.7499 35.8751 35.4701 35.8751 35.1249V30.7499C35.8751 30.4048 35.5952 30.1249 35.2501 30.1249H30.8751ZM34.6251 34.4999H31.5001V31.3749H34.6251V34.4999ZM40.8751 34.1874C40.8751 34.0148 41.015 33.8749 41.1876 33.8749H42.4376C42.6102 33.8749 42.7501 34.0148 42.7501 34.1874V35.4374C42.7501 35.61 42.6102 35.7499 42.4376 35.7499H41.1876C41.015 35.7499 40.8751 35.61 40.8751 35.4374V34.1874ZM39.3126 31.9999C39.14 31.9999 39.0001 32.1398 39.0001 32.3124V33.5624C39.0001 33.735 39.14 33.8749 39.3126 33.8749H40.5626C40.7352 33.8749 40.8751 33.735 40.8751 33.5624V32.3124C40.8751 32.1398 40.7352 31.9999 40.5626 31.9999H39.3126ZM37.1251 34.1874C37.1251 34.0148 37.265 33.8749 37.4376 33.8749H38.6876C38.8602 33.8749 39.0001 34.0148 39.0001 34.1874V35.4374C39.0001 35.61 38.8602 35.7499 38.6876 35.7499H37.4376C37.265 35.7499 37.1251 35.61 37.1251 35.4374V34.1874ZM37.4376 30.1249C37.265 30.1249 37.1251 30.2649 37.1251 30.4374V31.6874C37.1251 31.86 37.265 31.9999 37.4376 31.9999H38.6876C38.8602 31.9999 39.0001 31.86 39.0001 31.6874V30.4374C39.0001 30.2649 38.8602 30.1249 38.6876 30.1249H37.4376ZM40.8751 30.4374C40.8751 30.2649 41.015 30.1249 41.1876 30.1249H42.4376C42.6102 30.1249 42.7501 30.2649 42.7501 30.4374V31.6874C42.7501 31.86 42.6102 31.9999 42.4376 31.9999H41.1876C41.015 31.9999 40.8751 31.86 40.8751 31.6874V30.4374ZM32.4376 25.1249C32.265 25.1249 32.1251 25.2649 32.1251 25.4374V26.6874C32.1251 26.86 32.265 26.9999 32.4376 26.9999H33.6876C33.8602 26.9999 34.0001 26.86 34.0001 26.6874V25.4374C34.0001 25.2648 33.8601 25.1249 33.6876 25.1249H32.4376ZM39.0001 25.4374C39.0001 25.2649 39.14 25.1249 39.3126 25.1249H40.5626C40.7352 25.1249 40.8751 25.2648 40.8751 25.4374V26.6874C40.8751 26.86 40.7352 26.9999 40.5626 26.9999H39.3126C39.14 26.9999 39.0001 26.86 39.0001 26.6874V25.4374ZM32.4376 31.9999C32.265 31.9999 32.1251 32.1398 32.1251 32.3124V33.5624C32.1251 33.735 32.265 33.8749 32.4376 33.8749H33.6876C33.8602 33.8749 34.0001 33.735 34.0001 33.5624V32.3124C34.0001 32.1398 33.8601 31.9999 33.6876 31.9999H32.4376Z" fill="#002573"/>
</svg>
