<svg width="50" height="50" viewBox="0 0 50 50" fill="none" xmlns="http://www.w3.org/2000/svg">
<path d="M18.3715 27.1131C18.3715 28.8622 18.186 30.2697 16.8449 31.5269C15.6463 32.6514 14.1822 33.0418 12.72 33.1667C11.4414 33.278 9.77421 33.0847 8.69858 32.3254C7.2169 31.2556 6.93188 29.6704 6.93188 27.6519L6.93774 16.5129L11.2871 16.878L11.2832 26.9706C11.2832 27.5133 11.2618 28.2454 11.5448 28.7295C11.8708 29.2312 12.5209 29.4108 13.0694 29.3874C13.5575 29.3659 14.1666 29.1785 14.5316 28.7959C15.0821 28.2532 15.0196 27.4391 15.0196 26.7129L15.0235 17.1923L18.3754 17.4734L18.3715 27.1131Z" fill="#1D2129"/>
<path d="M23.7123 31.9486L19.689 32.2785L19.6929 22.2035L23.7162 22.3304L23.7123 31.9467V31.9486ZM23.7162 21.2391L19.6929 21.0595V17.5828L23.7162 17.9205V21.2391Z" fill="#1D2129"/>
<path d="M31.7358 31.355L27.6733 31.6928L27.6772 21.4869L24.7529 21.3581V18.0082L34.6074 18.8339L34.6054 21.7895L31.7416 21.6646L31.7358 31.355Z" fill="#1D2129"/>
<path d="M3.51171 12.0485L46.5 12.068L46.4883 37.9515L3.5 37.932L37.893 33.6334L37.9008 16.3764L3.51171 12.0485Z" fill="#1D2129"/>
</svg>
